
<svg xmlns="http://www.w3.org/2000/svg" version="1.1" xmlns:xlink="http://www.w3.org/1999/xlink" preserveAspectRatio="none" x="0px" y="0px" width="2048px" height="2048px" viewBox="0 0 2048 2048">
<defs>
<linearGradient id="Gradient_1" gradientUnits="userSpaceOnUse" x1="1033.35" y1="326.45000000000005" x2="1033.35" y2="2326.45" spreadMethod="pad">
<stop  offset="0%" stop-color="#0066CC"/>

<stop  offset="100%" stop-color="#004C99"/>
</linearGradient>

<linearGradient id="Gradient_2" gradientUnits="userSpaceOnUse" x1="924.2" y1="283.04999999999995" x2="924.2" y2="1565.15" spreadMethod="pad">
<stop  offset="0%" stop-color="#0051A1"/>

<stop  offset="100%" stop-color="#003468"/>
</linearGradient>

<radialGradient id="Gradient_3" gradientUnits="userSpaceOnUse" cx="0" cy="0" r="181.32500000000005" fx="0" fy="0" gradientTransform="matrix( 0.9999999999999998, 0, 0, 0.9999999999999998, 539.8,539.8) " spreadMethod="pad">
<stop  offset="0%" stop-color="#0066CC"/>

<stop  offset="100%" stop-color="#003265"/>
</radialGradient>

<linearGradient id="Gradient_4" gradientUnits="userSpaceOnUse" x1="350.875" y1="1566.7" x2="212.52499999999998" y2="1566.7" spreadMethod="pad">
<stop  offset="0%" stop-color="#00468C"/>

<stop  offset="100%" stop-color="#003468"/>
</linearGradient>

<linearGradient id="Gradient_5" gradientUnits="userSpaceOnUse" x1="1341.35" y1="250.55" x2="1341.35" y2="388.95" spreadMethod="pad">
<stop  offset="0%" stop-color="#00468C"/>

<stop  offset="100%" stop-color="#003468"/>
</linearGradient>

<linearGradient id="Gradient_6" gradientUnits="userSpaceOnUse" x1="1227.1" y1="739.8499999999999" x2="1227.1" y2="878.25" spreadMethod="pad">
<stop  offset="0%" stop-color="#00468C"/>

<stop  offset="100%" stop-color="#003468"/>
</linearGradient>

<g id="Layer3_0_FILL">
<path fill="url(#Gradient_1)" stroke="none" d="
M 2033.3 326.4
L 33.3 326.4 33.3 2326.4 2033.3 2326.4 2033.3 326.4 Z"/>
</g>

<g id="Layer3_1_FILL">
<path fill="url(#Gradient_2)" stroke="none" d="
M 1497.55 1564.15
L 1497.55 284.15 217.6 284.15 217.6 1564.15 1497.55 1564.15 Z"/>
</g>

<g id="Layer3_2_FILL">
<path fill="#000000" stroke="none" d="
M 1102.5 1051.55
L 1102.5 923.55 -111 923.55 -111 1051.55 1102.5 1051.55 Z"/>
</g>

<g id="Layer3_3_FILL">
<path fill="#000000" stroke="none" d="
M 1074.05 971.55
L 1074.05 923.55 -111 923.55 -111 971.55 1074.05 971.55 Z"/>
</g>

<g id="Layer3_4_FILL">
<path fill="#002851" stroke="none" d="
M 1280 768
L 1152 768 1152 1024 1280 1024 1280 768 Z"/>
</g>

<g id="Layer3_5_FILL">
<path fill="#00468C" stroke="none" d="
M 1280 768
L 1152 768 1152 896 1280 896 1280 768 Z"/>
</g>

<g id="Layer3_6_FILL">
<path fill="#00468C" stroke="none" d="
M 640 539.8
Q 640 498.3 610.65 468.95 581.3 439.6 539.8 439.6 498.3 439.6 468.95 468.95 439.6 498.3 439.6 539.8 439.6 581.3 468.95 610.65 498.3 640 539.8 640 581.3 640 610.65 610.65 640 581.3 640 539.8 Z"/>
</g>

<g id="Layer3_7_FILL">
<path fill="#00468C" stroke="none" d="
M 610.65 468.95
Q 581.3 439.6 539.8 439.6 498.3 439.6 468.95 468.95 439.6 498.3 439.6 539.8 439.6 581.3 468.95 610.65 498.3 640 539.8 640 581.3 640 610.65 610.65 640 581.3 640 539.8 640 498.3 610.65 468.95 Z"/>
</g>

<g id="Layer3_8_FILL">
<path fill="#00468C" stroke="none" d="
M 610.65 468.95
Q 581.3 439.6 539.8 439.6 498.3 439.6 468.95 468.95 439.6 498.3 439.6 539.8 439.6 581.3 468.95 610.65 498.3 640 539.8 640 581.3 640 610.65 610.65 640 581.3 640 539.8 640 498.3 610.65 468.95 Z"/>
</g>

<g id="Layer3_9_FILL">
<path fill="#00468C" stroke="none" d="
M 610.65 468.95
Q 581.3 439.6 539.8 439.6 498.3 439.6 468.95 468.95 439.6 498.3 439.6 539.8 439.6 581.3 468.95 610.65 498.3 640 539.8 640 581.3 640 610.65 610.65 640 581.3 640 539.8 640 498.3 610.65 468.95 Z"/>
</g>

<g id="Layer3_10_FILL">
<path fill="url(#Gradient_3)" stroke="none" d="
M 640 539.8
Q 640 498.3 610.65 468.95 581.3 439.6 539.8 439.6 498.3 439.6 468.95 468.95 439.6 498.3 439.6 539.8 439.6 581.3 468.95 610.65 498.3 640 539.8 640 581.3 640 610.65 610.65 640 581.3 640 539.8 Z"/>
</g>

<g id="Layer3_11_FILL">
<path fill="url(#Gradient_3)" stroke="none" d="
M 610.65 468.95
Q 581.3 439.6 539.8 439.6 498.3 439.6 468.95 468.95 439.6 498.3 439.6 539.8 439.6 581.3 468.95 610.65 498.3 640 539.8 640 581.3 640 610.65 610.65 640 581.3 640 539.8 640 498.3 610.65 468.95 Z"/>
</g>

<g id="Layer3_12_FILL">
<path fill="url(#Gradient_3)" stroke="none" d="
M 610.65 468.95
Q 581.3 439.6 539.8 439.6 498.3 439.6 468.95 468.95 439.6 498.3 439.6 539.8 439.6 581.3 468.95 610.65 498.3 640 539.8 640 581.3 640 610.65 610.65 640 581.3 640 539.8 640 498.3 610.65 468.95 Z"/>
</g>

<g id="Layer3_13_FILL">
<path fill="url(#Gradient_3)" stroke="none" d="
M 610.65 468.95
Q 581.3 439.6 539.8 439.6 498.3 439.6 468.95 468.95 439.6 498.3 439.6 539.8 439.6 581.3 468.95 610.65 498.3 640 539.8 640 581.3 640 610.65 610.65 640 581.3 640 539.8 640 498.3 610.65 468.95 Z"/>
</g>

<g id="Layer3_14_FILL">
<path fill="#0051A1" stroke="none" d="
M -295.2 435.7
Q -299.4 434.95 -303.15 438.25 -306.7 441.4 -307.6 446 -308.35 449.85 -307.5 454.85 -307.15 456.95 -305.5 463.6 -302.05 477.2 -300.3 494.4 -299.15 505.8 -298.3 525.65 -295.05 599.3 -294.55 689.7 -294.2 750.3 -295.15 853.8 -295.2 859 -294.85 861.75 -294.35 866.15 -292.65 869.25 -290.6 872.85 -286.75 874.55 -282.7 876.3 -279.35 874.55 -276.05 872.8 -274.75 868.3 -273.8 865.05 -273.8 859.8 -273.4 777.9 -273.5 695.9 -273.6 616.6 -275.15 573.85 -277.65 506.35 -285 452.4 -286.95 437.25 -295.2 435.7 Z"/>
</g>

<g id="Layer3_15_FILL">
<path fill="#0066CC" stroke="none" d="
M -165 1013.05
Q -165.7 1017 -164.2 1020.9 -162.95 1024 -160.15 1027.6 -158.5 1029.65 -155.05 1033.65 -148.15 1041.85 -142.35 1053.45 -138.05 1061.9 -133 1075.2 -109.85 1135.6 -98.6 1199.6 -87.35 1263.65 -88.5 1328.25 -88.6 1333.95 -88.3 1336.8 -87.75 1341.5 -85.9 1344.75 -83.75 1348.65 -79.5 1350.25 -75.1 1352 -71.65 1349.75 -68.9 1347.9 -67.75 1343.9 -67 1341.1 -66.9 1336.4 -65.5 1270.5 -76.3 1205.1 -87.1 1139.65 -109.65 1077.75 -116.7 1058.4 -123.1 1045.15 -131.4 1027.9 -141.15 1015.05 -145.7 1008.95 -149.7 1006.8 -152.45 1005.25 -155.45 1005.15 -158.7 1005.05 -161.1 1006.65 -164.2 1008.75 -165 1013.05 Z"/>
</g>

<g id="Layer3_16_FILL">
<path fill="#00468C" stroke="none" d="
M -78.2 415.95
Q -78.15 412.3 -78.65 409.8 -79.3 406.55 -81.1 404.05 -83.1 401.3 -85.9 400.5 -89.05 399.55 -92.4 401.2 -95.55 402.75 -97.4 405.85 -100.25 410.6 -100 419.1 -99.8 425.55 -97.75 437.2 -95.6 449.7 -95.25 455.3 -95.2 455.75 -94.95 464.4 -94.8 469.85 -94.25 473.45 -93.8 476.2 -92.45 481.6 -91.1 486.95 -90.7 489.7 -90.4 491.55 -89.95 497.05 -89.55 501.65 -88.95 504.35 -88.4 506.75 -86.9 511.2 -85.35 515.75 -84.8 518 -84.05 521.35 -83.75 525.6 -83.6 528.4 -83.6 533.35 -83.6 536.5 -83.8 549.15 -84 558.85 -83.9 564.95 -83.8 572.2 -82.25 575.85 -81.05 578.55 -78.95 580.35 -76.65 582.25 -74 582.45 -71 582.65 -68.3 580.6 -65.8 578.7 -64.45 575.7 -63.35 573.2 -62.95 569.75 -62.75 567.7 -62.7 563.55
L -62.45 537.8
Q -62.4 529.85 -62.6 525.85 -63 519.25 -64.25 514.1 -64.7 512.25 -66.35 507.15 -67.75 502.8 -68.3 500.15 -68.9 497.1 -69.4 490.95 -69.85 484.75 -70.5 481.7 -70.85 480 -72 475.8 -73.05 472.1 -73.4 469.9 -73.9 466.8 -73.9 462 -73.9 455.1 -73.95 454.05 -74.2 449 -76.25 438.1 -78.25 427.8 -78.3 422.15 -78.2 418 -78.2 415.95 Z"/>
</g>

<g id="Layer3_17_FILL">
<path fill="url(#Gradient_4)" stroke="none" d="
M 345.55 284.15
L 217.6 284.15 217.6 1948.1 345.55 1948.1 345.55 284.15 Z"/>
</g>

<g id="Layer3_18_FILL">
<path fill="url(#Gradient_5)" stroke="none" d="
M 1664.1 383.9
L 1664.1 255.9 256.1 255.9 382.6 383.9 1664.1 383.9 Z"/>
</g>

<g id="Layer3_19_FILL">
<path fill="url(#Gradient_6)" stroke="none" d="
M 1549.85 873.2
L 1549.85 745.2 141.85 745.2 141.85 873.2 1549.85 873.2 Z"/>
</g>
</defs>

<g transform="matrix( 1, 0, 0, 1, -33.3,-326.4) ">
<use xlink:href="#Layer3_0_FILL"/>
</g>

<g transform="matrix( 1.0000457763671875, 0, 0, 1, 166.4,99.85) ">
<use xlink:href="#Layer3_1_FILL"/>
</g>

<g transform="matrix( 1.6876678466796875, 0, 0, 1, 187.35,996.45) ">
<use xlink:href="#Layer3_2_FILL"/>
</g>

<g transform="matrix( 0, 1.7281646728515625, -2.6666717529296875, 0, 4510.8,191.85) ">
<use xlink:href="#Layer3_3_FILL"/>
</g>

<g transform="matrix( 1, 0, 0, 1, 384,128) ">
<use xlink:href="#Layer3_4_FILL"/>
</g>

<g transform="matrix( 1, 0, 0, 1, 384,0) ">
<use xlink:href="#Layer3_5_FILL"/>
</g>

<g transform="matrix( 1, 0, 0, 1, 0,968.4) ">
<use xlink:href="#Layer3_6_FILL"/>
</g>

<g transform="matrix( 1, 0, 0, 1, 0,0) ">
<use xlink:href="#Layer3_7_FILL"/>
</g>

<g transform="matrix( 1, 0, 0, 1, 968.4,0) ">
<use xlink:href="#Layer3_8_FILL"/>
</g>

<g transform="matrix( 1, 0, 0, 1, 968.4,968.4) ">
<use xlink:href="#Layer3_9_FILL"/>
</g>

<g transform="matrix( 1, 0, 0, 1, 0,937.6) ">
<use xlink:href="#Layer3_10_FILL"/>
</g>

<g transform="matrix( 1, 0, 0, 1, 0,-30.8) ">
<use xlink:href="#Layer3_11_FILL"/>
</g>

<g transform="matrix( 1, 0, 0, 1, 968.4,-30.8) ">
<use xlink:href="#Layer3_12_FILL"/>
</g>

<g transform="matrix( 1, 0, 0, 1, 968.4,937.6) ">
<use xlink:href="#Layer3_13_FILL"/>
</g>

<g transform="matrix( 1, 0, 0, 1, 0,0) ">
<use xlink:href="#Layer3_14_FILL"/>
</g>

<g transform="matrix( 1, 0, 0, 1, 0,0) ">
<use xlink:href="#Layer3_15_FILL"/>
</g>

<g transform="matrix( 1, 0, 0, 1, 0,0) ">
<use xlink:href="#Layer3_16_FILL"/>
</g>

<g transform="matrix( -1.0003662109375, 0, 0, -0.8461761474609375, 601.7,1904.45) ">
<use xlink:href="#Layer3_17_FILL"/>
</g>

<g transform="matrix( 1, 0, 0, 1, 0,0) ">
<use xlink:href="#Layer3_18_FILL"/>
</g>

<g transform="matrix( 0.090911865234375, 0, 0, 1, 1523.1,22.8) ">
<use xlink:href="#Layer3_19_FILL"/>
</g>
</svg>
