
<svg xmlns="http://www.w3.org/2000/svg" version="1.1" xmlns:xlink="http://www.w3.org/1999/xlink" preserveAspectRatio="none" x="0px" y="0px" width="2000px" height="2000px" viewBox="0 0 2000 2000">
<defs>
<g id="Layer2_0_FILL">
<path fill="#000000" stroke="none" d="
M 1821.7 1183.45
Q 1754.95 1167.25 1685.85 1163.35 1630.8 1160.05 1575.65 1158.4 1551.95 1157.7 1528.2 1157.65 1425.45 1157.45 1324.15 1141.75 1322.1 1127.15 1318.5 1113.05 1312.5 1089.6 1301 1068.15 1292.05 1051.4 1278.9 1037.8 1198.75 955.35 1086.25 934.8 1081.25 910.35 1076.15 886 1064.2 828.6 1051.35 771.5 1038.45 714.25 1024.5 657.15 1020.8 642 1018.15 626.7 1012.45 593.95 996.9 565.8 994.7 561.8 990.3 561.65 966.8 560.65 963 586.8 932.6 696.8 911.8 808.9 903.5 853.55 898.05 898.8 895 924.45 887.65 944.15 884.7 944.65 881.9 945.55 863.8 951.8 846 959.15 836.65 962.9 827.45 966.9 757.8 997.05 708.8 1054.75 660.8 1111.3 641.15 1181.35 598.3 1194.3 556.55 1210.95 530.5 1221.4 504.3 1231.55 473.25 1243.55 442.3 1255.35 344.2 1292.95 243.7 1323.2 240.5 1324.1 237.4 1323.5 216.8 1323.4 203.7 1338.4 200.85 1341.65 201.4 1345.9 204.3 1367.7 227.95 1368.1 253.3 1368.5 278.5 1371.9 326.8 1378.35 375.05 1385.65 383.6 1386.85 392.15 1387.7 405.7 1389.15 419.2 1389.05 529.15 1388.1 639.15 1394.4 656.4 1442.1 686.65 1482.9 748.8 1566.65 851.45 1586.15 864.9 1621.35 876.7 1657.15 884.1 1679.55 891.15 1702.15 911 1766 931.45 1829.8 955.6 1905.1 987.5 1977.55 993.1 1990.25 1002.1 2000.55 1009 2008.35 1018.5 2004.35 1026.8 2000.95 1029.6 1992.3 1038.15 1965.9 1040.1 1937.85 1042.25 1906.9 1050.25 1883.5 1056.7 1886.4 1062.55 1882.9 1067.5 1879.95 1068.4 1874.15 1089.15 1738 1093.65 1599.45 1095.4 1599.5 1097.2 1599.6 1121.05 1597.4 1142.05 1585.45 1161.25 1574.45 1178.05 1559.65 1230.95 1513.25 1266.55 1452.35 1293.65 1406.05 1312.25 1357.9 1315.1 1357.35 1318.1 1356.1 1343.2 1346.2 1369.7 1341.3 1426.35 1330.9 1482.4 1317.3 1649.5 1276.7 1814.9 1230.05 1827.1 1226.55 1834.9 1216.65 1844.75 1204.1 1834.75 1191.7 1829.6 1185.4 1821.7 1183.45
M 1326.65 1166.4
Q 1333.95 1167.95 1341.35 1169.15 1532.7 1198.95 1726.45 1207.2
L 1319.9 1314.25 1325.45 1254.5 1326.65 1166.4
M 983.3 623.75
Q 1001.85 696.6 1018.25 769.85 1034.65 843.15 1048.9 916.75 1063.2 990.4 1074.05 1064.85 1076.25 1079.95 1077.2 1095.25 1067.9 1099.1 1058.25 1102.15 1012 1116.75 963.25 1115.8 951.4 1115.55 939.5 1114.25 928.55 1112.9 917.7 1110 908.75 1107.7 902.45 1103.1
L 915.6 974.6
Q 916.1 974 916.6 973.4 917.1 972.75 917.5 972.1 917.95 971.5 918.3 970.8 918.65 970.2 918.95 969.5 919.25 968.85 919.5 968.15 919.7 967.45 919.85 966.75 920 966 920.1 965.25 920.25 964.5 920.3 963.7 920.35 962.95 920.3 962.2 920.25 961.45 920.15 960.75 920 960 919.8 959.3 919.65 958.55 919.4 957.85 919.15 957.1 918.8 956.45 918.45 955.7 918.05 955 917.6 954.3 917.15 953.6 918.55 943.2 920 932.85 927.2 880.8 936.55 829.15 945.9 777.5 957.7 726.15 969.5 674.75 983.3 623.75
M 626.45 1344.2
Q 618.6 1344.3 610.6 1344.6 551.7 1347 492.9 1351.4 410.85 1357 330 1342.65 360.6 1334 391.15 1325.1 473.55 1300.8 553.8 1270.5 592.6 1255.9 631.75 1242.3
L 626.6 1308 626.45 1344.2
M 1108.7 1135
Q 1128.45 1126.75 1120.8 1103.85
L 1094.4 974.6
Q 1118.1 986.95 1140.5 1001.35 1162.9 1015.8 1184.55 1031.3 1241.25 1071.9 1257.65 1139.15 1271.4 1195.5 1267.65 1253.7 1261.6 1347.75 1211.5 1427.65 1198.8 1447.9 1186 1467.9 1153.45 1518.7 1097.5 1538.15 1102.75 1464.3 1111.25 1390.8 1114.2 1365.55 1091 1366.5 1082.7 1360.4 1073.7 1355.65 1053.35 1344.7 1032.15 1335.8 978.95 1313.25 927.5 1336.7 911.5 1344.1 896.35 1352.8 867.75 1369.3 857.15 1397.85 855.8 1401.6 857.25 1405.35 870.75 1440.05 882.55 1475.6 889.75 1497.3 897.35 1518.65 901.9 1531.4 898.3 1535 884.75 1532.85 871.15 1530.5 860.6 1528.9 849.95 1526.75 831.35 1523.2 814.3 1515.15 729 1474.6 687.85 1387.95 678.7 1368.65 675.85 1347.65 666.85 1281.9 680.3 1216.3 689.95 1169.15 713.45 1127.25 771.6 1023.5 884.9 988.05 877.95 1046.65 874.95 1105.55 874.75 1109 876.5 1111.8 888.35 1131.15 911.2 1139.45 977.9 1163.65 1047.85 1145.15 1072.05 1138.8 1092.6 1130.55 1095.5 1133.3 1099 1134.85 1103.95 1136.95 1108.7 1135
M 912 1471.95
Q 905.95 1448.45 894.85 1426.9 888.05 1413.65 885.75 1403.45 910.6 1377.25 943.6 1363.1 964.7 1353.95 987.45 1356.6 989.1 1356.8 990.75 1357.05 1002.9 1359.6 1014.75 1363.7 1046.6 1374.5 1073.3 1394.5
L 1045.3 1825.3
Q 1016 1755.6 986.7 1685.9 972.7 1652.6 960 1618.6 939.25 1563.25 921.05 1507.2 916.55 1489.65 912 1471.95
M 1012.8 1820.5
L 1019.75 1839.7
Q 1003.55 1880.6 1003.8 1926.25
L 887.6 1592.65 919.35 1592.05 1012.8 1820.5 Z"/>

<path fill="#FF0000" stroke="none" d="
M 1019.75 1839.7
L 1012.8 1820.5 919.35 1592.05 887.6 1592.65 1003.8 1926.25
Q 1003.55 1880.6 1019.75 1839.7
M 894.85 1426.9
Q 905.95 1448.45 912 1471.95 916.55 1489.65 921.05 1507.2 939.25 1563.25 960 1618.6 972.7 1652.6 986.7 1685.9 1016 1755.6 1045.3 1825.3
L 1073.3 1394.5
Q 1046.6 1374.5 1014.75 1363.7 1002.9 1359.6 990.75 1357.05 989.1 1356.8 987.45 1356.6 964.7 1353.95 943.6 1363.1 910.6 1377.25 885.75 1403.45 888.05 1413.65 894.85 1426.9
M 610.6 1344.6
Q 618.6 1344.3 626.45 1344.2
L 626.6 1308 631.75 1242.3
Q 592.6 1255.9 553.8 1270.5 473.55 1300.8 391.15 1325.1 360.6 1334 330 1342.65 410.85 1357 492.9 1351.4 551.7 1347 610.6 1344.6
M 1018.25 769.85
Q 1001.85 696.6 983.3 623.75 969.5 674.75 957.7 726.15 945.9 777.5 936.55 829.15 927.2 880.8 920 932.85 918.55 943.2 917.15 953.6 917.6 954.3 918.05 955 918.45 955.7 918.8 956.45 919.15 957.1 919.4 957.85 919.65 958.55 919.8 959.3 920 960 920.15 960.75 920.25 961.45 920.3 962.2 920.35 962.95 920.3 963.7 920.25 964.5 920.1 965.25 920 966 919.85 966.75 919.7 967.45 919.5 968.15 919.25 968.85 918.95 969.5 918.65 970.2 918.3 970.8 917.95 971.5 917.5 972.1 917.1 972.75 916.6 973.4 916.1 974 915.6 974.6
L 902.45 1103.1
Q 908.75 1107.7 917.7 1110 928.55 1112.9 939.5 1114.25 951.4 1115.55 963.25 1115.8 1012 1116.75 1058.25 1102.15 1067.9 1099.1 1077.2 1095.25 1076.25 1079.95 1074.05 1064.85 1063.2 990.4 1048.9 916.75 1034.65 843.15 1018.25 769.85
M 1341.35 1169.15
Q 1333.95 1167.95 1326.65 1166.4
L 1325.45 1254.5 1319.9 1314.25 1726.45 1207.2
Q 1532.7 1198.95 1341.35 1169.15 Z"/>

<path fill="#41344A" stroke="none" d="
M 1120.8 1103.85
Q 1128.45 1126.75 1108.7 1135 1103.95 1136.95 1099 1134.85 1095.5 1133.3 1092.6 1130.55 1072.05 1138.8 1047.85 1145.15 977.9 1163.65 911.2 1139.45 888.35 1131.15 876.5 1111.8 874.75 1109 874.95 1105.55 877.95 1046.65 884.9 988.05 771.6 1023.5 713.45 1127.25 689.95 1169.15 680.3 1216.3 666.85 1281.9 675.85 1347.65 678.7 1368.65 687.85 1387.95 729 1474.6 814.3 1515.15 831.35 1523.2 849.95 1526.75 860.6 1528.9 871.15 1530.5 884.75 1532.85 898.3 1535 901.9 1531.4 897.35 1518.65 889.75 1497.3 882.55 1475.6 870.75 1440.05 857.25 1405.35 855.8 1401.6 857.15 1397.85 867.75 1369.3 896.35 1352.8 911.5 1344.1 927.5 1336.7 978.95 1313.25 1032.15 1335.8 1053.35 1344.7 1073.7 1355.65 1082.7 1360.4 1091 1366.5 1114.2 1365.55 1111.25 1390.8 1102.75 1464.3 1097.5 1538.15 1153.45 1518.7 1186 1467.9 1198.8 1447.9 1211.5 1427.65 1261.6 1347.75 1267.65 1253.7 1271.4 1195.5 1257.65 1139.15 1241.25 1071.9 1184.55 1031.3 1162.9 1015.8 1140.5 1001.35 1118.1 986.95 1094.4 974.6
L 1120.8 1103.85 Z"/>
</g>

<g id="Layer1_0_FILL">
<path fill="#000000" fill-opacity="0.18823529411764706" stroke="none" d="
M 1312.15 1279.35
Q 1310.95 1272.9 1308.2 1268.15 1302.35 1258.15 1289.75 1255.65 1277.15 1253.1 1267.9 1260.1 1263.1 1263.75 1259.05 1270.25 1256.95 1273.65 1252.65 1282.4 1238.6 1311.1 1218.15 1342.4 1201.95 1367.15 1178.05 1398.95 1172.6 1406.2 1169.5 1409.9 1164.55 1415.85 1160.05 1420.1 1148.75 1430.85 1129.05 1440.8 1117.85 1446.45 1094.95 1457.1 1089.45 1459.95 1086.3 1462.4 1081.9 1465.8 1079.95 1469.9 1077.7 1474.6 1079.4 1479.8 1081.15 1485.25 1085.9 1486.35 1081 1493.5 1078.55 1501.35 1075.95 1509.75 1076.4 1517.85 1076.95 1526.4 1080.9 1533.85 1085 1541.65 1091.75 1546.25 1097.7 1550.3 1105.55 1551.75 1112.75 1553.1 1120.55 1552.05 1127.4 1551.15 1135.1 1548.5 1141 1546.45 1148.95 1542.75 1197.25 1520.45 1226.7 1487.3 1233.25 1479.95 1240.15 1470.55 1245.45 1463.3 1252.4 1452.85 1281.2 1409.85 1295.4 1375.8 1313.95 1331.4 1313.2 1291.35 1313.05 1284.35 1312.15 1279.35
M 644.4 1354.1
Q 644.4 1359 646.05 1364.65 647.3 1368.95 649.9 1374.7 664.3 1406.65 692.35 1434.6 716.9 1459.1 751.3 1479.9 754.8 1482 756.35 1483.2 759.05 1485.25 760.5 1487.45 762.15 1489.9 763.05 1494.1 763.6 1496.45 764.55 1501.2 767.35 1512.25 777.75 1521.6 785.35 1528.5 798.85 1535.75 818.55 1546.3 838.65 1554.45 851.8 1559.8 861.25 1562 873.9 1565 884.65 1563.75 897 1562.3 906.6 1554.85 916.8 1546.95 918.95 1535.75 920.45 1527.8 917.5 1517.15 913.35 1504.85 911.4 1498.8 907.95 1486.35 905.8 1480.3 902.15 1469.8 896.7 1463.8 890.5 1457 879.35 1452.9 873.75 1450.85 858.9 1447.35 811.6 1436.05 768.9 1411.5 726.15 1386.95 692.6 1351.75 686.6 1345.5 684.55 1343.6 679.85 1339.2 675.45 1336.75 670.15 1333.8 664.5 1333.4 658.35 1332.9 653.65 1335.7 649.2 1338.35 646.75 1343.6 644.45 1348.45 644.4 1354.1 Z"/>
</g>

<path id="Layer0_0_1_STROKES" stroke="#000000" stroke-opacity="0" stroke-width="1" stroke-linejoin="round" stroke-linecap="round" fill="none" d="
M 679.35 472.9
L 2679.35 472.9 2679.35 2472.9 679.35 2472.9 679.35 472.9 Z"/>
</defs>

<g transform="matrix( 1, 0, 0, 1, 0,0) ">
<use xlink:href="#Layer2_0_FILL"/>
</g>

<g transform="matrix( 1, 0, 0, 1, 0,0) ">
<use xlink:href="#Layer1_0_FILL"/>
</g>

<g transform="matrix( 1, 0, 0, 1, -679.35,-472.9) ">
<use xlink:href="#Layer0_0_1_STROKES"/>
</g>
</svg>
