
<svg xmlns="http://www.w3.org/2000/svg" version="1.1" xmlns:xlink="http://www.w3.org/1999/xlink" preserveAspectRatio="none" x="0px" y="0px" width="2000px" height="2000px" viewBox="0 0 2000 2000">
<defs>
<g id="Layer2_0_FILL">
<path fill="#000000" stroke="none" d="
M 1576.55 897.05
Q 1558.4 891.35 1540.05 898.1 1486.5 917.85 1432.45 936.65 1341.3 968.2 1248.35 993.2 1220.55 963.9 1187 941.3 1129.7 902.65 1062.05 910.35 1037.5 771.7 1001.1 635.65 990.75 597.05 975.1 560.3 969.75 547.7 956.75 550.65 944.2 553.55 940.85 566.2 918.15 652.2 898.3 738.75 876.65 833.05 870.05 929.7 869.95 931.3 868.75 932.9 783.25 893.7 699.75 850.3 684.3 842.2 668.25 835.25 659.15 831.25 649.85 827.55 598.45 806.55 547.05 785.75 537.9 782.1 528.2 781.35 524.15 781.25 520.9 783.55 501.1 798 516 820.55 549.05 870.45 588.35 915.8 610.85 941.8 631.65 969.1 664 1011.5 689.65 1058.25 682.55 1065.75 676.2 1074.1 645.25 1115.05 625.35 1162.45 597.2 1229.6 619.6 1298 526.2 1361.5 443.2 1437.95 375.3 1500.55 308.35 1563.7 302.75 1569 299.8 1576.3 298.2 1580.35 300.7 1583.8 314.1 1601.9 335.8 1590.15
L 655.15 1469 721 1446.2
Q 746.2 1476.2 773.65 1504.35 813.95 1545.65 867.3 1563.35 909.05 1650.65 941.25 1741.85 946.95 1758 952.55 1774.45 957.4 1788.65 962.05 1802.9 987.45 1880.35 1013.05 1957.75 1016.75 1968.85 1027.35 1973 1046.3 1980.15 1049.35 1959.95 1067.85 1838.15 1069.8 1715 1070.1 1695 1069.05 1675.05 1066.3 1623.65 1075 1573.25 1089 1571.15 1102.85 1568.7 1141.55 1562.3 1165.2 1533.25 1208 1552.65 1250.35 1572.6 1304.15 1597.95 1358.45 1622.3 1412.55 1646.5 1467.8 1667.3
L 1473.75 1668.4
Q 1485.1 1681.75 1501.55 1685.7 1507.45 1687.05 1511.45 1682.6 1526 1666.4 1509.35 1650.25 1461.85 1604.25 1414.75 1557.65 1399.85 1542.9 1385.2 1528 1343.8 1486.2 1301.65 1445 1290.55 1434.15 1284.85 1424.25 1296.45 1409.5 1303.05 1391.8 1347.05 1274.2 1329.25 1150.7 1330.45 1149.65 1331.7 1148.65 1411.35 1082.15 1491.05 1015.65 1509.7 1000.15 1528.05 984.55 1552.4 963.9 1577.4 944.05 1594.45 930.45 1589.25 910.35 1586.65 900.15 1576.55 897.05
M 1473.65 967.35
L 1315.45 1099.2 1295.15 1055 1273.55 1022.5 1473.65 967.35
M 934.3 773.55
Q 947.45 714.35 962 655.4 986.5 748.05 1005 841.9 1022 927.95 1035.75 1014.7 1039.25 1036.55 1043.3 1056.05 1039.6 1058.4 1035.8 1060.05 1002.95 1074.2 967.2 1078.75 941.3 1081.75 915.25 1080.4 902.3 1079.75 896.85 1073.4 901.35 1040.25 903.6 1006.35 907.5 947.8 914.5 889.55 921.55 831.15 934.3 773.55
M 573.85 837.2
Q 599.1 844.8 622.95 856 684.3 884.8 742.45 919.5 781.1 942.6 821.8 961.45 819.15 962.7 816.55 964 768.05 989.1 726.4 1024.5
L 707.5 1040.85
Q 701.7 1027.5 694.25 1014.85 639.7 922.15 573.85 837.2
M 640.9 1320.55
Q 643.4 1321.05 646.05 1320.75 649.55 1320.2 652.35 1318.25 659.15 1313.5 661.3 1305.45
L 706.05 1272.5 715.75 1272.75
Q 722 1274.25 727.95 1276.45 781.25 1296.1 814.95 1342.25 609.2 1452.7 389.55 1531.45 506.85 1416 640.9 1320.55
M 1070.15 958.15
Q 1077.9 960.15 1085.85 961.2 1100.8 962.8 1114.9 968.25 1205.15 1002.9 1251.4 1089.3 1271.5 1126.95 1280.5 1168.65 1305.8 1286.2 1253.5 1395.7 1236 1378.7 1218.15 1361.95 1189.2 1334.75 1160.25 1307.7 1144.1 1292.6 1129.3 1305.5 1097.2 1301.2 1065.5 1308.6 1006.95 1322.5 968.1 1368.6 961.3 1376.65 955.6 1385.25 939.5 1409.5 946.7 1434.7
L 950.65 1438.35
Q 952.95 1452.8 967.8 1457.3 1033 1477.1 1096.35 1502.3 1110.15 1507.8 1113.65 1512.65 1108.2 1515.3 1102.3 1516.85 1016.5 1538.9 928.35 1529.65 816.6 1518 745.5 1432.3 760.25 1425.55 774.45 1417.8 795.5 1406.4 817.45 1397.25 841.25 1387.3 864.4 1376.85 874.05 1372.5 877.55 1362.6 886.85 1336.2 858 1329.45 831.15 1282.1 782.1 1257.5 773.8 1253.35 765.6 1248.6 728.8 1227.6 694.05 1247.85 674.9 1259.05 655.85 1270.5 646.5 1234.65 658.25 1199.25 685.35 1117.7 745.6 1057.05 795.45 1006.95 857.85 977.15
L 868.9 978
Q 867.65 1006.8 866.95 1035.6 866.45 1057.2 871.4 1078.2 874.15 1089.65 885.4 1093.95 931.2 1111.9 981.1 1106.75 1023.1 1102.45 1063.65 1090.5 1081.9 1085.15 1087.2 1067.5 1088.7 1062.5 1087.75 1057.5 1078.4 1008.1 1070.15 958.15
M 1005.95 1382.1
Q 1016.7 1370.7 1030.55 1363.7 1078.25 1339.65 1132.05 1332.45 1156.25 1353.85 1181 1376.85 1241.35 1433.05 1298.45 1492.6 1349.8 1546.15 1402.15 1598.95 1298.5 1552.8 1194.95 1506.45 1149.4 1485.95 1102.5 1468.65 1055.9 1451.5 1007.7 1439.6 989.5 1435.05 975.95 1428.6 986.75 1402.45 1005.95 1382.1
M 992.2 1579.3
L 1027.8 1578.4 1023.05 1881.55 901.95 1570.2 992.2 1579.3 Z"/>

<path fill="#FF0000" stroke="none" d="
M 1027.8 1578.4
L 992.2 1579.3 901.95 1570.2 1023.05 1881.55 1027.8 1578.4
M 1030.55 1363.7
Q 1016.7 1370.7 1005.95 1382.1 986.75 1402.45 975.95 1428.6 989.5 1435.05 1007.7 1439.6 1055.9 1451.5 1102.5 1468.65 1149.4 1485.95 1194.95 1506.45 1298.5 1552.8 1402.15 1598.95 1349.8 1546.15 1298.45 1492.6 1241.35 1433.05 1181 1376.85 1156.25 1353.85 1132.05 1332.45 1078.25 1339.65 1030.55 1363.7
M 646.05 1320.75
Q 643.4 1321.05 640.9 1320.55 506.85 1416 389.55 1531.45 609.2 1452.7 814.95 1342.25 781.25 1296.1 727.95 1276.45 722 1274.25 715.75 1272.75
L 706.05 1272.5 661.3 1305.45
Q 659.15 1313.5 652.35 1318.25 649.55 1320.2 646.05 1320.75
M 622.95 856
Q 599.1 844.8 573.85 837.2 639.7 922.15 694.25 1014.85 701.7 1027.5 707.5 1040.85
L 726.4 1024.5
Q 768.05 989.1 816.55 964 819.15 962.7 821.8 961.45 781.1 942.6 742.45 919.5 684.3 884.8 622.95 856
M 962 655.4
Q 947.45 714.35 934.3 773.55 921.55 831.15 914.5 889.55 907.5 947.8 903.6 1006.35 901.35 1040.25 896.85 1073.4 902.3 1079.75 915.25 1080.4 941.3 1081.75 967.2 1078.75 1002.95 1074.2 1035.8 1060.05 1039.6 1058.4 1043.3 1056.05 1039.25 1036.55 1035.75 1014.7 1022 927.95 1005 841.9 986.5 748.05 962 655.4
M 1315.45 1099.2
L 1473.65 967.35 1273.55 1022.5 1295.15 1055 1315.45 1099.2 Z"/>

<path fill="#41344A" stroke="none" d="
M 1085.85 961.2
Q 1077.9 960.15 1070.15 958.15 1078.4 1008.1 1087.75 1057.5 1088.7 1062.5 1087.2 1067.5 1081.9 1085.15 1063.65 1090.5 1023.1 1102.45 981.1 1106.75 931.2 1111.9 885.4 1093.95 874.15 1089.65 871.4 1078.2 866.45 1057.2 866.95 1035.6 867.65 1006.8 868.9 978
L 857.85 977.15
Q 795.45 1006.95 745.6 1057.05 685.35 1117.7 658.25 1199.25 646.5 1234.65 655.85 1270.5 674.9 1259.05 694.05 1247.85 728.8 1227.6 765.6 1248.6 773.8 1253.35 782.1 1257.5 831.15 1282.1 858 1329.45 886.85 1336.2 877.55 1362.6 874.05 1372.5 864.4 1376.85 841.25 1387.3 817.45 1397.25 795.5 1406.4 774.45 1417.8 760.25 1425.55 745.5 1432.3 816.6 1518 928.35 1529.65 1016.5 1538.9 1102.3 1516.85 1108.2 1515.3 1113.65 1512.65 1110.15 1507.8 1096.35 1502.3 1033 1477.1 967.8 1457.3 952.95 1452.8 950.65 1438.35
L 946.7 1434.7
Q 939.5 1409.5 955.6 1385.25 961.3 1376.65 968.1 1368.6 1006.95 1322.5 1065.5 1308.6 1097.2 1301.2 1129.3 1305.5 1144.1 1292.6 1160.25 1307.7 1189.2 1334.75 1218.15 1361.95 1236 1378.7 1253.5 1395.7 1305.8 1286.2 1280.5 1168.65 1271.5 1126.95 1251.4 1089.3 1205.15 1002.9 1114.9 968.25 1100.8 962.8 1085.85 961.2 Z"/>
</g>

<g id="Layer1_0_FILL">
<path fill="#000000" fill-opacity="0.18823529411764706" stroke="none" d="
M 763.45 1378.25
Q 756.8 1377.95 751.6 1380.7 744.1 1384.7 741.45 1394 739.3939453125 1401.176171875 741.05 1408.1 736.7595703125 1412.6046875 734.45 1418.75 731.6 1426.2 732.55 1433.8 733.8 1443.5 741.1 1453 746.6 1460.1 756.7 1468.25 799.2 1502.5 859.4 1522.3 909.5 1538.75 974.8 1545.9 990.3 1547.6 1002.7 1548.35 1017.6 1549.3 1030.65 1549 1057.25 1548.45 1082.6 1543.2 1095.6 1540.55 1103.95 1536.65 1115.05 1531.5 1120.75 1523.25 1128.1 1512.65 1125.35 1498.75 1122.6 1484.85 1111.75 1477.85 1102.55 1471.9 1087.95 1471.65 1083.85 1471.55 1062.15 1473.35 1053.78828125 1474.0544921875 1044.1 1474.05 1043.8703125 1472.2958984375 1043.4 1470.5 1041.7 1464.2 1037.6 1459.45 1029.5 1449.95 1013.4 1447.5 1007.7 1446.65 999.7 1446.6 990.55 1446.75 985.95 1446.75 957.4 1446.75 922.55 1438.6 901.5 1433.65 860.6 1420.75 838.6 1413.8 827.65 1409.5 809.65 1402.4 796.65 1394.05 789.8 1389.4 786.35 1387.15 780.3 1383.15 775.55 1381.15 769.45 1378.55 763.45 1378.25
M 1316.85 1263.65
Q 1313.85 1256.8 1308.5 1252.3 1303 1247.6 1295.8 1246.2 1288.4 1244.75 1281.85 1247.25 1275.7 1249.65 1270.7 1255.35 1266.4 1260.35 1263.3 1267.35 1261.25 1271.95 1258.55 1280.55 1255.6 1290 1254.05 1293.85 1249.05 1306.4 1240.25 1316.8 1236.4 1321.35 1230.95 1326.35 1227.65 1329.4 1220.9 1335.15
L 1198.3 1354.35
Q 1194.8 1357.3 1193 1359.05 1190.25 1361.8 1188.45 1364.4 1183.8 1371.2 1185.15 1377.75 1186.1 1382.25 1189.95 1385.7 1193.5 1388.9 1198.35 1390.3 1202.45 1391.45 1207.8 1391.5 1211.2 1391.5 1217.4 1390.9 1224.25 1402.1 1237.8 1406.3 1251.35 1410.5 1263.35 1405.1 1270.1 1402.05 1276.2 1395.95 1281.2 1390.95 1286.2 1383.45 1298.1 1365.55 1306.2 1340.3 1311.65 1323.2 1317.75 1293.65 1318.85 1288.35 1319.25 1285.6 1319.9 1281.1 1319.85 1277.5 1319.75 1270.2 1316.85 1263.65 Z"/>
</g>

<path id="Layer0_0_1_STROKES" stroke="#000000" stroke-opacity="0" stroke-width="1" stroke-linejoin="round" stroke-linecap="round" fill="none" d="
M 679.35 472.9
L 2679.35 472.9 2679.35 2472.9 679.35 2472.9 679.35 472.9 Z"/>
</defs>

<g transform="matrix( 1, 0, 0, 1, 0,0) ">
<use xlink:href="#Layer2_0_FILL"/>
</g>

<g transform="matrix( 1, 0, 0, 1, 0,0) ">
<use xlink:href="#Layer1_0_FILL"/>
</g>

<g transform="matrix( 1, 0, 0, 1, -679.35,-472.9) ">
<use xlink:href="#Layer0_0_1_STROKES"/>
</g>
</svg>
