
<svg xmlns="http://www.w3.org/2000/svg" version="1.1" xmlns:xlink="http://www.w3.org/1999/xlink" preserveAspectRatio="none" x="0px" y="0px" width="2000px" height="2000px" viewBox="0 0 2000 2000">
<defs>
<filter id="Filter_1" x="-20.630458712369087%" y="-39.539910119145695%" width="141.26091742473818%" height="179.0798202382914%" color-interpolation-filters="sRGB">
<feFlood flood-color="#2284D6" flood-opacity="1" in="SourceGraphic" result="result1"/>

<feGaussianBlur in="SourceGraphic" stdDeviation="33.333333333333336,33.333333333333336" result="result2"/>

<feComposite in2="result2" in="result1" operator="in" result="result3"/>

<feComposite in2="result3" in="SourceGraphic" operator="over" result="result4"/>
</filter>

<g id="Layer2_0_FILL">
<path fill="#000000" stroke="none" d="
M 1531.55 1482
Q 1549 1373.85 1529.5 1266.45 1515 1186.7 1462.4 1125.75 1389.35 1040.95 1278.25 1016 1170.65 991.6 1059.9 997.15 951.7 1002.1 844.55 1016.15 736.55 1030.1 645.45 1088.7 577.85 1132.1 540.8 1202.85 490.6 1298.65 507.85 1407.6 524.95 1515.3 572.1 1613.15 621.05 1714.8 721.2 1765.05 770.6 1787.25 822.65 1801.15 929.6 1829.65 1040.2 1828.35 1148.9 1827.1 1249.15 1785.2 1351.3 1742.6 1432.4 1667.1 1513.95 1591.25 1531.55 1482
M 1330.85 1079.45
Q 1378.15 1097.35 1412.5 1134.05 1489.4 1216 1491.95 1331.25
L 1492.4 1347.65
Q 1439.45 1382.15 1382.55 1410 1259.1 1470.35 1122.45 1483.95 983.65 1498.1 845.95 1481 758.05 1469.9 675.7 1436.75 596.1 1404.8 528.55 1353.1 524.05 1287 552.35 1228.3 599.8 1129.95 700.25 1084.45 798.15 1040 905.85 1030.05 1013.55 1020.15 1120.05 1030.3 1228.8 1041 1330.85 1079.45
M 542.85 1455.6
Q 576.85 1481.95 615.5 1501.1 764.55 1574.95 931.9 1584.7 1042.7 1590.4 1152.5 1576.2 1337.6 1552.3 1496.7 1454.6 1492.4 1539.45 1439.3 1605.35 1370.65 1690.45 1273.05 1739.85 1175.4 1789.25 1066.15 1798.05 957.05 1806.3 851.1 1778.6 794.2 1766.8 740.8 1744.05 670.45 1714.1 625.85 1652.15 562.05 1563.6 542.85 1455.6
M 1497.7 1414.45
Q 1435.45 1455.9 1367.3 1486.4 1271.5 1529.15 1168.2 1548.05 1065.15 1567.15 960.45 1560.9 848.9 1553.6 739.8 1529.3 630.05 1504.85 539.35 1438.5
L 530.4 1380.35
Q 537.45 1385.2 544.65 1389.85 596.35 1422.65 653.15 1445.9 721.4 1473.9 792.5 1492.8 857.05 1510 923.95 1510.85 984.65 1511.65 1045.4 1509.85 1138 1506.15 1228.1 1485.55 1371.35 1452.75 1495.85 1374.1
L 1497.7 1414.45
M 609.4 1565.7
Q 605.1 1568.6 604.15 1573.2 593.7 1624.85 654.9 1619.9 666.5 1619.05 668.25 1608.75 679.25 1544.45 609.4 1565.7
M 658.05 1589.2
Q 663.5 1601.85 650.4 1600.4 598.2 1595.45 633.9 1576.4 651.75 1574.35 658.05 1589.2
M 1153.9 1605.75
Q 1135.3 1615.5 1144.55 1634.75 1173.55 1694.85 1209.5 1639.3 1203.55 1579.75 1153.9 1605.75
M 1185.1 1624.4
L 1188.6 1620.4
Q 1191.35 1621.7 1190.75 1623.75 1177.6 1668.6 1157.3 1630.1 1158.65 1627.95 1161 1627.35 1172.8 1624 1185.1 1624.4
M 849.05 1614.3
Q 848.1 1614.35 847.45 1614.85 797.75 1649.1 854.75 1677.3 866.45 1679.7 877.65 1675.6 897.3 1668.25 895.4 1648.25 890.5 1597.05 849.05 1614.3
M 868.4 1627.65
L 868.5 1627.1
Q 899.55 1654.55 857.55 1658.5 855.9 1658 854.75 1657 831.15 1636.4 868.4 1627.65
M 1427.6 1568.4
Q 1406.25 1509.3 1366.3 1563.65 1373.95 1622.65 1422.4 1584.05 1430.8 1577.35 1427.6 1568.4
M 1394.65 1579.6
Q 1370.3 1551 1412.8 1556.2 1424.75 1566.4 1410.6 1579.05 1401.3 1587.4 1394.65 1579.6
M 1092.5 1374.5
Q 1085.1 1375.7 1083.4 1381.25 1068.25 1430.9 1132.5 1424.5 1141.3 1423.75 1143.65 1416.9 1162.35 1362.85 1092.5 1374.5
M 1137.9 1402.65
L 1134.45 1405.45
Q 1109.5 1412.85 1091.2 1396.35 1120.75 1379.95 1137.9 1402.65
M 888.3 1374.4
Q 875.5 1365.95 857.4 1365.95 839.3 1365.95 826.45 1374.4 813.65 1382.85 813.65 1394.8 813.65 1406.75 826.45 1415.2 839.3 1423.65 857.4 1423.65 875.5 1423.65 888.3 1415.2 901.15 1406.75 901.15 1394.8 901.15 1382.85 888.3 1374.4
M 838.05 1401.05
Q 821.7 1392.9 843.7 1388.35 888.15 1379.25 878.35 1405.3 857.5 1410.85 838.05 1401.05
M 627.15 1302.4
Q 566.75 1298.65 596.2 1346.4 613.3 1358.35 634.3 1360.9 661.3 1363.65 662.95 1339.45 665.35 1304 627.15 1302.4
M 616.6 1310.4
Q 617.1 1310.6 617.6 1310.6 649.1 1309.75 654.4 1336.6 618.9 1360.75 594.7 1323.75 595.5 1322.25 596.75 1321.6 607.4 1316.45 616.6 1310.4
M 1347.15 1331.45
Q 1338 1342.3 1343.85 1354.4 1371.05 1410.5 1420.3 1354.55 1430.5 1344.05 1423.45 1333.9 1388.05 1282.7 1347.15 1331.45
M 1361.05 1358.4
Q 1360.85 1358.1 1360.8 1357.8 1358.75 1336 1379.4 1328.45 1382.35 1327.8 1385.25 1327.3 1405.45 1324.75 1417.15 1338.9 1396.3 1366.15 1361.05 1358.4 Z"/>

<path fill="#778A9A" stroke="none" d="
M 615.5 1501.1
Q 576.85 1481.95 542.85 1455.6 562.05 1563.6 625.85 1652.15 670.45 1714.1 740.8 1744.05 794.2 1766.8 851.1 1778.6 957.05 1806.3 1066.15 1798.05 1175.4 1789.25 1273.05 1739.85 1370.65 1690.45 1439.3 1605.35 1492.4 1539.45 1496.7 1454.6 1337.6 1552.3 1152.5 1576.2 1042.7 1590.4 931.9 1584.7 764.55 1574.95 615.5 1501.1
M 1366.3 1563.65
Q 1406.25 1509.3 1427.6 1568.4 1430.8 1577.35 1422.4 1584.05 1373.95 1622.65 1366.3 1563.65
M 847.45 1614.85
Q 848.1 1614.35 849.05 1614.3 890.5 1597.05 895.4 1648.25 897.3 1668.25 877.65 1675.6 866.45 1679.7 854.75 1677.3 797.75 1649.1 847.45 1614.85
M 1144.55 1634.75
Q 1135.3 1615.5 1153.9 1605.75 1203.55 1579.75 1209.5 1639.3 1173.55 1694.85 1144.55 1634.75
M 604.15 1573.2
Q 605.1 1568.6 609.4 1565.7 679.25 1544.45 668.25 1608.75 666.5 1619.05 654.9 1619.9 593.7 1624.85 604.15 1573.2
M 1412.5 1134.05
Q 1378.15 1097.35 1330.85 1079.45 1228.8 1041 1120.05 1030.3 1013.55 1020.15 905.85 1030.05 798.15 1040 700.25 1084.45 599.8 1129.95 552.35 1228.3 524.05 1287 528.55 1353.1 596.1 1404.8 675.7 1436.75 758.05 1469.9 845.95 1481 983.65 1498.1 1122.45 1483.95 1259.1 1470.35 1382.55 1410 1439.45 1382.15 1492.4 1347.65
L 1491.95 1331.25
Q 1489.4 1216 1412.5 1134.05
M 1343.85 1354.4
Q 1338 1342.3 1347.15 1331.45 1388.05 1282.7 1423.45 1333.9 1430.5 1344.05 1420.3 1354.55 1371.05 1410.5 1343.85 1354.4
M 596.2 1346.4
Q 566.75 1298.65 627.15 1302.4 665.35 1304 662.95 1339.45 661.3 1363.65 634.3 1360.9 613.3 1358.35 596.2 1346.4
M 857.4 1365.95
Q 875.5 1365.95 888.3 1374.4 901.15 1382.85 901.15 1394.8 901.15 1406.75 888.3 1415.2 875.5 1423.65 857.4 1423.65 839.3 1423.65 826.45 1415.2 813.65 1406.75 813.65 1394.8 813.65 1382.85 826.45 1374.4 839.3 1365.95 857.4 1365.95
M 1083.4 1381.25
Q 1085.1 1375.7 1092.5 1374.5 1162.35 1362.85 1143.65 1416.9 1141.3 1423.75 1132.5 1424.5 1068.25 1430.9 1083.4 1381.25 Z"/>
</g>

<g id="S_mbolo_5_0_Layer0_0_FILL">
<path fill="#2284D6" stroke="none" d="
M 103.5 266
Q 67.8 285.05 120 290 133.1 291.45 127.65 278.8 121.35 263.95 103.5 266
M 87.2 0.2
Q 86.7 0.2 86.2 0 77 6.05 66.35 11.2 65.1 11.85 64.3 13.35 88.5 50.35 124 26.2 118.7 -0.65 87.2 0.2
M 313.3 77.95
Q 291.3 82.5 307.65 90.65 327.1 100.45 347.95 94.9 357.75 68.85 313.3 77.95
M 338.1 316.7
L 338 317.25
Q 300.75 326 324.35 346.6 325.5 347.6 327.15 348.1 369.15 344.15 338.1 316.7
M 604.05 95.05
L 607.5 92.25
Q 590.35 69.55 560.8 85.95 579.1 102.45 604.05 95.05
M 864.25 269.2
Q 870.9 277 880.2 268.65 894.35 256 882.4 245.8 839.9 240.6 864.25 269.2
M 660.35 313.35
Q 660.95 311.3 658.2 310
L 654.7 314
Q 642.4 313.6 630.6 316.95 628.25 317.55 626.9 319.7 647.2 358.2 660.35 313.35
M 836.9 176
Q 905.05 145.5 967.3 104.05
L 965.45 63.7
Q 840.95 142.35 697.7 175.15 607.6 195.75 515 199.45 454.25 201.25 393.55 200.45 326.65 199.6 262.1 182.4 191 163.5 122.75 135.5 65.95 112.25 14.25 79.45 7.05 74.8 0 69.95
L 8.95 128.1
Q 99.65 194.45 209.4 218.9 318.5 243.2 430.05 250.5 534.75 256.75 637.8 237.65 741.1 218.75 836.9 176
M 886.75 28.5
Q 875.05 14.35 854.85 16.9 851.95 17.4 849 18.05 828.35 25.6 830.4 47.4 830.45 47.7 830.65 48 865.9 55.75 886.75 28.5 Z"/>
</g>

<g id="Layer1_0_FILL">
<path fill="#000000" fill-opacity="0.2" stroke="none" d="
M 1446.55 1564.3
Q 1446.4091796875 1564.47265625 1446.25 1564.65 1443.6419921875 1566.444140625 1438.65 1570 1414.8 1587.35 1382.55 1605.15 1362.95 1616 1323.6 1635.65 1287.5 1653.7 1268.95 1662.15 1238.25 1676.1 1212.6 1684.55 1158.1 1702.45 1087.9 1708.25 1039.95 1712.2 960.05 1711.35 906.4 1710.85 874.05 1708.6 826.8 1705.3 789.05 1696.95 737 1685.45 688.7 1661.65 640.45 1637.9 599.6 1603.65 594.05 1598.95 588.35 1597.45 581.45 1595.7 578.5 1600.35 575.1 1605.8 581.85 1615.25 609.31015625 1653.745703125 648.55 1683.15 645.4845703125 1684.09296875 644.2 1686.7 642.6 1690.05 645.05 1694.15 646.9 1697.25 650.8 1700.4 731.7 1765.15 840.05 1793.4 942.45 1820.05 1052.2 1810.05 1094 1806.2 1151.4 1795.3 1179.5 1790 1197.95 1785.35 1223.1 1779.05 1243.25 1771.15 1260.25 1764.5 1278.75 1754.7 1294.1 1746.6 1312.65 1735.2 1353.3 1710.3 1396.6 1677.6 1406 1670.55 1410.85 1665.85 1418.2 1658.75 1421.9 1651.45 1425.160546875 1645.07734375 1425.6 1638.3 1450.7373046875 1621.728515625 1469.25 1604.45 1474.75 1599.3 1477.9 1595.45 1482.2 1590.1 1484.2 1584.85 1486.55 1578.8 1485.65 1572.55 1484.704296875 1565.8798828125 1480.4 1561.8 1487.4419921875 1553.7060546875 1493.85 1544.95 1501.9 1533.95 1505.45 1524.9 1510.05 1513.05 1507.85 1502.9 1506.8 1498.25 1504 1497.5 1501.65 1496.85 1498.35 1499.55 1491.4 1505.15 1484.2 1515.65 1480.1 1521.65 1472.15 1533.8 1467.55 1540.2 1459.65 1549.3 1447.5 1563.2 1446.55 1564.3 Z"/>
</g>
</defs>

<g transform="matrix( 1, 0, 0, 1, 0,0) ">
<use xlink:href="#Layer2_0_FILL"/>
</g>

<g filter="url(#Filter_1)" transform="matrix( 1, 0, 0, 1, 0,0) ">
<g transform="matrix( 1, 0, 0, 1, 530.4,1310.4) ">
<g transform="matrix( 1, 0, 0, 1, 0,0) ">
<use xlink:href="#S_mbolo_5_0_Layer0_0_FILL"/>
</g>
</g>
</g>

<g transform="matrix( 1, 0, 0, 1, 0,0) ">
<use xlink:href="#Layer1_0_FILL"/>
</g>
</svg>
