
<svg xmlns="http://www.w3.org/2000/svg" version="1.1" xmlns:xlink="http://www.w3.org/1999/xlink" preserveAspectRatio="none" x="0px" y="0px" width="2000px" height="2000px" viewBox="0 0 2000 2000">
<defs>
<filter id="Filter_1" x="-20%" y="-31.024008817163395%" width="140%" height="162.04801763432678%" color-interpolation-filters="sRGB">
<feFlood flood-color="#FF0000" flood-opacity="1" in="SourceGraphic" result="result1"/>

<feGaussianBlur in="SourceGraphic" stdDeviation="33.333333333333336,33.333333333333336" result="result2"/>

<feComposite in2="result2" in="result1" operator="in" result="result3"/>

<feComposite in2="result3" in="SourceGraphic" operator="over" result="result4"/>
</filter>

<g id="Layer2_0_FILL">
<path fill="#000000" stroke="none" d="
M 1337.5 1103.1
Q 1333.7 1092.15 1323.35 1092.1 1316.45 1088.15 1308.55 1086.4 1263.25 1076.8 1216.65 1077.05
L 912.5 1069.2
Q 848 1066.7 783.7 1070.7 727.9 1074.75 674.65 1092.15 659.65 1097 658.85 1111.65 646.25 1128 635.35 1145.7 616.7 1176 603.15 1208.85
L 598.2 1216.65
Q 574.9 1217.25 552.2 1222.9 551.35 1223.1 550.55 1223.3 549.6 1223.5 548.7 1223.7 531.4 1227.9 514.25 1232.5 492.3 1238.3 472.15 1248.3 449.25 1259.75 429.75 1276.6 424.8 1280.9 422.55 1286.7 421.6 1289.15 421.25 1291.75 420.6 1296.8 422.15 1301.85 439.1 1356.25 447.1 1413 409.2 1423.2 371.2 1433.4 328 1444.85 284.5 1455.15 283.05 1455.5 281.6 1455.9 268.65 1458.9 255.75 1462.7 234.25 1468.85 215.25 1479.85 205 1485.75 210.45 1495.85 212 1498.8 215.15 1500.1 329.45 1546.85 445.3 1588.85 453 1591.65 460.5 1595.1 478.75 1603.4 496.35 1596.1 497.7 1600.6 498.95 1604.95 506.85 1632.45 514 1659.9 517.05 1671.7 522.55 1682.65 530.15 1697.85 541.1 1687.25
L 580.95 1709.25
Q 582.15 1711.85 583.95 1713.7 586.95 1716.85 591.3 1716.95 592.6 1716.95 593.75 1716.3 594.6 1715.75 595.45 1715.2 602.85 1718.3 610.35 1721.25 614.05 1722.8 617.9 1724.1 652.15 1736.5 687.95 1743.8 709.8 1748.3 731.7 1752.65 790.5 1764.1 849.55 1772.3 866.05 1774.7 882.5 1776.45 910.45 1778.85 938.1 1780.1 951.95 1813.8 965.8 1847.5 966.25 1848.6 966.65 1849.8 970.9 1863.35 984.35 1863.6 987.85 1863.65 989.25 1860.5 998.6 1839.35 1003.3 1816.3 1007.6 1795.1 1015.85 1778.8 1045 1782.2 1074.4 1782.8 1166.9 1784.7 1259.25 1776.45 1294.25 1773.55 1329.1 1769.25 1332.9 1768.7 1336.7 1768.15 1358.3 1765.05 1379.35 1759.5 1390.05 1756.85 1400.6 1753.65 1421.6 1747.5 1443.1 1743.5 1459.2 1740.65 1463.15 1725.4 1471.95 1691.55 1477.1 1656.9 1479.25 1642.6 1484.35 1632.75 1487.4 1632.6 1490.45 1631.85 1505.85 1628.4 1521.3 1624.7 1634.1 1597.3 1746.85 1570.3 1761.95 1566.75 1777.1 1564.1 1798.55 1560.5 1804.6 1541.15 1804.8 1540.6 1804.8 1540 1804.75 1538.75 1804.8 1537.5 1804.95 1533.7 1804.95 1529.75 1804.9 1518.45 1794.3 1514.05 1783.7 1509.7 1772.55 1507 1711.3 1492.85 1651.55 1473.2 1591.1 1453.4 1528.1 1444.75 1530.25 1438.4 1532 1431.9 1542.7 1392.05 1546.35 1351.1 1548.5 1348.3 1550.2 1345.3 1556.15 1334.95 1553.65 1323.3 1549.2 1302.8 1533.25 1288.55 1463.8 1226.55 1371.9 1218.85 1357.4 1160.1 1337.5 1103.1
M 1526.05 1323.6
Q 1528.95 1330.35 1523 1334.85 1510.4 1344.3 1495.4 1349.75 1453.65 1364.95 1409.9 1372.9 1361.7 1381.55 1312.65 1383.85 1217.05 1389.2 1121.45 1396.55 1058.85 1401.7 996.15 1400.6 864.55 1398.25 734.85 1376.35 694.6 1369.55 654.25 1363.15 590 1352.75 528.7 1335.45 528.2 1331.7 524.95 1329.8 507.55 1319.75 487.15 1317.3
L 478.9 1312
Q 468.1 1304.55 459.6 1294.55 458 1292.7 457.55 1290.2 455.2 1277.05 469.15 1270.75 528 1244.45 592.5 1239.65 591.1 1244.1 589.7 1248.15 586.95 1256.1 586.45 1264.7 585.65 1279.2 599 1277.7 601.5 1274.8 603.65 1277.15 609.85 1284.1 618.8 1287.6 675 1309.9 735.55 1314.9 814.4 1321.45 893.45 1325.7 1021 1331.95 1147.45 1315.05 1255 1300.95 1360.1 1277.45 1360.55 1277.7 1361.1 1277.85 1377.45 1283.25 1382.15 1266.8 1383.5 1262.15 1381.45 1257.65 1378.15 1250.35 1381.25 1248.3 1428.35 1254.45 1469.8 1277.6 1482.45 1284.7 1494.1 1293.2 1507.7 1303.1 1519.75 1314.7 1523.85 1318.6 1526.05 1323.6
M 1522.45 1368.65
L 1527.7 1366.05 1509.2 1443.9
Q 1506.6 1444.35 1504.45 1445.9 1503.65 1446.45 1502.95 1447.2 1502.6 1447.5 1502.35 1447.9 1502.1 1448.3 1501.95 1448.75 1501.65 1449.85 1501.6 1450.95 1501.45 1455.45 1504.9 1458.25 1499.3 1477 1494.45 1495.9 1472.5 1581.4 1456.15 1668.05 1453.9 1680.15 1452.05 1692.05 1450.15 1704 1444.45 1711.1
L 1433.9 1713.1
Q 1442.8 1673.05 1452.2 1633.1 1454.5 1623.4 1449.25 1615.2 1439.6 1600.35 1436.5 1582.85 1431.65 1555.35 1440.05 1528.35 1447.6 1504.1 1461.45 1483.15 1473.25 1465.3 1488.45 1450.5 1489.85 1449.1 1490.2 1447.2 1495.9 1414.3 1490.6 1380.35
L 1522.45 1368.65
M 1349.95 1253.75
Q 1329.6 1258.95 1309.25 1264 1268.4 1274.05 1227.3 1281.7 1186 1289.45 1144.45 1294.85 1102.6 1300.5 1060.7 1303.7 889.35 1317.4 719.1 1294.3 697.8 1291.55 676.5 1289.35 637.55 1285.3 607.75 1260.85
L 633.1 1204.15 668.25 1132.35
Q 673.6 1139.4 680.65 1144.8 703.85 1162.75 733.25 1166.35 804.8 1174.55 876.65 1176 881.95 1176.1 887.3 1176.25 909.4 1177 931.55 1177.4 947.05 1177.7 962.55 1177.8 978.85 1177.95 995.1 1178.05 1013.95 1178.2 1032.8 1178.3 1054.2 1178.4 1075.5 1178.5 1091.35 1178.6 1107.05 1178.65 1117.7 1178.65 1128.25 1178.6 1137.3 1178.55 1146.35 1178.45 1189.25 1178 1231.95 1173.35 1281.3 1168.45 1321 1139.3
L 1349.95 1253.75
M 1479.3 1440.6
Q 1471.9 1453.55 1461.95 1464.85 1431.05 1499.9 1424.65 1546.05 1418.8 1588 1439.4 1625.15 1439.85 1626 1440.05 1627.05 1440.7 1630.05 1439.95 1633 1429.4 1674.55 1420.65 1716.45 1396.85 1723.2 1373.2 1729.95 1332.95 1741.2 1291.35 1745.25 1228.6 1751.1 1165.65 1756.05 1162.45 1756.3 1159.3 1756.55 1157.75 1756.65 1156.25 1756.8 1087.85 1762.2 1019.45 1761.5
L 1056.1 1657.85
Q 1083.65 1657.8 1103.55 1638.35 1135.65 1607.15 1141.15 1562.3 1143.7 1541.65 1130.9 1525.6 1104.5 1492.4 1065.55 1475.45 1063.95 1474.8 1062.4 1474.05 1060.75 1473.25 1059.25 1472.3 1035.75 1458.5 1009.25 1456.35
L 1009.4 1424.4
Q 1046.5 1424.05 1083.6 1422.25 1171.4 1418.65 1259.25 1415.1 1262.9 1415 1266.55 1414.9 1308.9 1413.5 1351.25 1409.45 1417 1402.9 1480.1 1383.65 1482.45 1405.65 1482.65 1427.75 1482.7 1434.65 1479.3 1440.6
M 1519 1473.25
L 1521.95 1464.1 1727.55 1533.4 1487.05 1608.85 1519 1473.25
M 500.2 1379.05
Q 498.3 1362.4 494.8 1345.95 515.95 1352.7 537.5 1358.8 578.05 1370.4 619.45 1377.75 661.55 1385.2 704 1391.9 744.6 1398.25 785.35 1403.85 820.9 1408.8 856.5 1413.15
L 922.45 1420.6 925.9 1447.55
Q 863.1 1448.8 817.75 1491.7 794.1 1514.15 787 1545.5 779.15 1580.2 799.35 1609.7 813.35 1630.15 834.45 1643.35 845.35 1650.2 857.7 1653.7 867.1 1656.4 876.95 1656.3 881.6 1656.25 886.15 1655.4
L 926.55 1755.15
Q 908.25 1753.5 890.25 1751.8 812.15 1744.1 734.95 1729.4 699.15 1722.7 663.85 1714.45 642.7 1709.55 621.85 1703.55 608.7 1699.65 595.85 1695.2
L 546.6 1546.45
Q 549.55 1543.4 552.65 1540.3 557.5 1535.35 560.7 1529.1 583.5 1484.75 559.65 1440.3 546.2 1415.3 520 1403.9 513.8 1401.25 508.45 1397.6 504.2 1394.65 502.55 1389.75 500.8 1384.5 500.2 1379.05
M 461.8 1378.2
Q 459.15 1361.45 454.6 1345.05 451.55 1334 453.95 1332.1
L 467.55 1338.4 474.05 1340.5
Q 481.1 1367.55 487.55 1394.8 490.75 1408.4 503.8 1413.7 520.25 1420.5 532.65 1433.25 565.6 1467.2 551.1 1512.1 546.05 1527.85 534.7 1540.1 530.8 1544.35 530.3 1550.15 530 1553.75 531.15 1556.95 553.75 1619.6 568.35 1684.25
L 541.1 1670.75
Q 534.6 1646.3 527.6 1622.1 517.75 1587.85 505.2 1554.15 495.65 1528.45 488.45 1501.95 471.85 1440.9 461.8 1378.2
M 402.35 1540.8
Q 394.95 1538.1 387.5 1535.35 379.65 1532.5 371.65 1529.75 349.6 1521.9 327.45 1514.7 287.55 1501.75 247.6 1489.1
L 451.1 1436.55 469.95 1521.1 484.6 1563.05
Q 459.85 1555.75 434.5 1550.25 418.15 1546.6 402.35 1540.8
M 1110.6 1155.85
Q 1058.85 1156.8 1007.25 1156.2 968.55 1155.75 929.8 1155 870.1 1153.85 810.35 1151.6 761.95 1149.95 714 1144.65 687.55 1141.4 676.55 1118.8 684.35 1116.2 692.2 1113.85 734.3 1101.25 778.2 1097.4 820.5 1093.8 862.75 1093.85 887.35 1093.85 912.05 1094.4 969.5 1095.65 1026.9 1097.95 1136.4 1101 1245.55 1106.8 1276.7 1108.25 1307.2 1114.9 1296 1126.5 1281.35 1133.25 1259.1 1143.6 1234.7 1147.5 1203.45 1152.35 1171.65 1153.7 1141.15 1155.25 1110.6 1155.85
M 936.2 1421.8
L 971.8 1423.9 987.9 1424.3
Q 987.3 1427.8 986.9 1431.3 985.4 1443.45 988.7 1455.1 990.5 1461.35 995.05 1465.95 994.8 1468.35 995.75 1470.4 997.05 1473 999.85 1474.2 1022.65 1483.8 1046.2 1491.85 1084.65 1504.75 1109.75 1536.05 1125.55 1555.85 1118.85 1579.25 1116.35 1587.85 1112.3 1595.75 1097 1625.65 1065.1 1633.55
L 1086.5 1576
Q 1090.35 1576.2 1092.85 1573.4 1103.25 1561.35 1089.95 1550.15 1050.95 1517.25 1000.15 1510.95 983.25 1509.1 966.35 1508.6 934.1 1507.7 904.1 1518.45 862.7 1533.35 832.65 1565 828.7 1569.15 828.55 1574.7 828.05 1591.6 842.75 1586.3
L 875.7 1633.75
Q 836.45 1629.4 814.6 1595.6 808.8 1586.7 807.1 1576.25 800.25 1533.55 833.9 1505.1 877.35 1468.4 933.15 1468.35 939.55 1468.35 939.9 1462.1 941.15 1441.3 936.2 1421.8
M 851.35 1575.95
Q 875.45 1550 910 1539.8 951.15 1527.75 993.6 1533.2 998.3 1534.3 1002.85 1535.8 1023.25 1542.75 1043.05 1551.1 1053.6 1555.5 1059.3 1562.1
L 978.35 1821.2
Q 973.6 1811.25 969.1 1801.15 950.45 1759.2 933.4 1716.6 902.65 1639.7 851.35 1575.95
M 619.2 1535.95
Q 619.9 1546.45 627.6 1553.35 659.65 1581.7 702.45 1575.5 723.5 1572.3 723.15 1551.8 723.1 1549.7 722.45 1547.85 712.9 1521.2 684.05 1515.6
L 682.75 1512.35
Q 681.55 1508.25 677.8 1506.4 654.95 1495.15 632.95 1509.6 618.05 1519.4 619.2 1535.95
M 633.35 1534.65
Q 632.85 1531.7 634.85 1529.5 644.35 1518.9 659.6 1517.95 665.35 1517.3 670.15 1520.05 687.2 1529.65 701.45 1543.55 704.8 1546.9 706.4 1551.55 708.35 1557.4 702.3 1558.95 675.5 1566.05 650 1555.15 635.9 1549.05 633.35 1534.65
M 1325.25 1522.75
Q 1310.45 1516.7 1296.35 1523.1 1289.1 1526.35 1280.75 1525.65 1268.4 1525.15 1258.55 1532.8 1237.55 1548.95 1248.8 1573.3 1250.75 1577.55 1254.6 1580.3 1287 1603.6 1328.05 1604.1 1350.25 1604.35 1364.65 1588.25 1378.8 1572.5 1370.15 1554.3 1367.2 1548.05 1361.9 1543.75 1345.45 1530.45 1325.25 1522.75
M 1345.95 1567.05
Q 1346.8 1572.25 1341.55 1574.1 1305.55 1587.25 1271.1 1569.2 1266.9 1567.05 1265.65 1562.45 1261.65 1547.4 1278.55 1544.75 1281.5 1544.15 1284.5 1543.55 1294.1 1541.5 1303.65 1543.6 1321.85 1547.6 1338.45 1556.7 1344.85 1560.15 1345.95 1567.05 Z"/>

<path fill="#41344A" stroke="none" d="
M 1007.25 1156.2
Q 1058.85 1156.8 1110.6 1155.85 1141.15 1155.25 1171.65 1153.7 1203.45 1152.35 1234.7 1147.5 1259.1 1143.6 1281.35 1133.25 1296 1126.5 1307.2 1114.9 1276.7 1108.25 1245.55 1106.8 1136.4 1101 1026.9 1097.95 969.5 1095.65 912.05 1094.4 887.35 1093.85 862.75 1093.85 820.5 1093.8 778.2 1097.4 734.3 1101.25 692.2 1113.85 684.35 1116.2 676.55 1118.8 687.55 1141.4 714 1144.65 761.95 1149.95 810.35 1151.6 870.1 1153.85 929.8 1155 968.55 1155.75 1007.25 1156.2
M 494.8 1345.95
Q 498.3 1362.4 500.2 1379.05 500.8 1384.5 502.55 1389.75 504.2 1394.65 508.45 1397.6 513.8 1401.25 520 1403.9 546.2 1415.3 559.65 1440.3 583.5 1484.75 560.7 1529.1 557.5 1535.35 552.65 1540.3 549.55 1543.4 546.6 1546.45
L 595.85 1695.2
Q 608.7 1699.65 621.85 1703.55 642.7 1709.55 663.85 1714.45 699.15 1722.7 734.95 1729.4 812.15 1744.1 890.25 1751.8 908.25 1753.5 926.55 1755.15
L 886.15 1655.4
Q 881.6 1656.25 876.95 1656.3 867.1 1656.4 857.7 1653.7 845.35 1650.2 834.45 1643.35 813.35 1630.15 799.35 1609.7 779.15 1580.2 787 1545.5 794.1 1514.15 817.75 1491.7 863.1 1448.8 925.9 1447.55
L 922.45 1420.6 856.5 1413.15
Q 820.9 1408.8 785.35 1403.85 744.6 1398.25 704 1391.9 661.55 1385.2 619.45 1377.75 578.05 1370.4 537.5 1358.8 515.95 1352.7 494.8 1345.95
M 627.6 1553.35
Q 619.9 1546.45 619.2 1535.95 618.05 1519.4 632.95 1509.6 654.95 1495.15 677.8 1506.4 681.55 1508.25 682.75 1512.35
L 684.05 1515.6
Q 712.9 1521.2 722.45 1547.85 723.1 1549.7 723.15 1551.8 723.5 1572.3 702.45 1575.5 659.65 1581.7 627.6 1553.35
M 1461.95 1464.85
Q 1471.9 1453.55 1479.3 1440.6 1482.7 1434.65 1482.65 1427.75 1482.45 1405.65 1480.1 1383.65 1417 1402.9 1351.25 1409.45 1308.9 1413.5 1266.55 1414.9 1262.9 1415 1259.25 1415.1 1171.4 1418.65 1083.6 1422.25 1046.5 1424.05 1009.4 1424.4
L 1009.25 1456.35
Q 1035.75 1458.5 1059.25 1472.3 1060.75 1473.25 1062.4 1474.05 1063.95 1474.8 1065.55 1475.45 1104.5 1492.4 1130.9 1525.6 1143.7 1541.65 1141.15 1562.3 1135.65 1607.15 1103.55 1638.35 1083.65 1657.8 1056.1 1657.85
L 1019.45 1761.5
Q 1087.85 1762.2 1156.25 1756.8 1157.75 1756.65 1159.3 1756.55 1162.45 1756.3 1165.65 1756.05 1228.6 1751.1 1291.35 1745.25 1332.95 1741.2 1373.2 1729.95 1396.85 1723.2 1420.65 1716.45 1429.4 1674.55 1439.95 1633 1440.7 1630.05 1440.05 1627.05 1439.85 1626 1439.4 1625.15 1418.8 1588 1424.65 1546.05 1431.05 1499.9 1461.95 1464.85
M 1296.35 1523.1
Q 1310.45 1516.7 1325.25 1522.75 1345.45 1530.45 1361.9 1543.75 1367.2 1548.05 1370.15 1554.3 1378.8 1572.5 1364.65 1588.25 1350.25 1604.35 1328.05 1604.1 1287 1603.6 1254.6 1580.3 1250.75 1577.55 1248.8 1573.3 1237.55 1548.95 1258.55 1532.8 1268.4 1525.15 1280.75 1525.65 1289.1 1526.35 1296.35 1523.1
M 1309.25 1264
Q 1329.6 1258.95 1349.95 1253.75
L 1321 1139.3
Q 1281.3 1168.45 1231.95 1173.35 1189.25 1178 1146.35 1178.45 1137.3 1178.55 1128.25 1178.6 1117.7 1178.65 1107.05 1178.65 1091.35 1178.6 1075.5 1178.5 1054.2 1178.4 1032.8 1178.3 1013.95 1178.2 995.1 1178.05 978.85 1177.95 962.55 1177.8 947.05 1177.7 931.55 1177.4 909.4 1177 887.3 1176.25 881.95 1176.1 876.65 1176 804.8 1174.55 733.25 1166.35 703.85 1162.75 680.65 1144.8 673.6 1139.4 668.25 1132.35
L 633.1 1204.15 607.75 1260.85
Q 637.55 1285.3 676.5 1289.35 697.8 1291.55 719.1 1294.3 889.35 1317.4 1060.7 1303.7 1102.6 1300.5 1144.45 1294.85 1186 1289.45 1227.3 1281.7 1268.4 1274.05 1309.25 1264
M 1523 1334.85
Q 1528.95 1330.35 1526.05 1323.6 1523.85 1318.6 1519.75 1314.7 1507.7 1303.1 1494.1 1293.2 1482.45 1284.7 1469.8 1277.6 1428.35 1254.45 1381.25 1248.3 1378.15 1250.35 1381.45 1257.65 1383.5 1262.15 1382.15 1266.8 1377.45 1283.25 1361.1 1277.85 1360.55 1277.7 1360.1 1277.45 1255 1300.95 1147.45 1315.05 1021 1331.95 893.45 1325.7 814.4 1321.45 735.55 1314.9 675 1309.9 618.8 1287.6 609.85 1284.1 603.65 1277.15 601.5 1274.8 599 1277.7 585.65 1279.2 586.45 1264.7 586.95 1256.1 589.7 1248.15 591.1 1244.1 592.5 1239.65 528 1244.45 469.15 1270.75 455.2 1277.05 457.55 1290.2 458 1292.7 459.6 1294.55 468.1 1304.55 478.9 1312
L 487.15 1317.3
Q 507.55 1319.75 524.95 1329.8 528.2 1331.7 528.7 1335.45 590 1352.75 654.25 1363.15 694.6 1369.55 734.85 1376.35 864.55 1398.25 996.15 1400.6 1058.85 1401.7 1121.45 1396.55 1217.05 1389.2 1312.65 1383.85 1361.7 1381.55 1409.9 1372.9 1453.65 1364.95 1495.4 1349.75 1510.4 1344.3 1523 1334.85 Z"/>
</g>

<g id="S_mbolo_4_0_Layer0_0_FILL">
<path fill="#FF0000" stroke="none" d="
M 222.35 189
L 203.5 104.45 0 157
Q 39.95 169.65 79.85 182.6 102 189.8 124.05 197.65 132.05 200.4 139.9 203.25 147.35 206 154.75 208.7 170.55 214.5 186.9 218.15 212.25 223.65 237 230.95
L 222.35 189
M 219.95 6.3
L 206.35 0
Q 203.95 1.9 207 12.95 211.55 29.35 214.2 46.1 224.25 108.8 240.85 169.85 248.05 196.35 257.6 222.05 270.15 255.75 280 290 287 314.2 293.5 338.65
L 320.75 352.15
Q 306.15 287.5 283.55 224.85 282.4 221.65 282.7 218.05 283.2 212.25 287.1 208 298.45 195.75 303.5 180 318 135.1 285.05 101.15 272.65 88.4 256.2 81.6 243.15 76.3 239.95 62.7 233.5 35.45 226.45 8.4
L 219.95 6.3
M 422.55 187.95
Q 417.75 185.2 412 185.85 396.75 186.8 387.25 197.4 385.25 199.6 385.75 202.55 388.3 216.95 402.4 223.05 427.9 233.95 454.7 226.85 460.75 225.3 458.8 219.45 457.2 214.8 453.85 211.45 439.6 197.55 422.55 187.95
M 755.25 203.7
Q 750.7 202.2 746 201.1 703.55 195.65 662.4 207.7 627.85 217.9 603.75 243.85 655.05 307.6 685.8 384.5 702.85 427.1 721.5 469.05 726 479.15 730.75 489.1
L 811.7 230
Q 806 223.4 795.45 219 775.65 210.65 755.25 203.7
M 724.2 91.8
L 688.6 89.7
Q 693.55 109.2 692.3 130 691.95 136.25 685.55 136.25 629.75 136.3 586.3 173 552.65 201.45 559.5 244.15 561.2 254.6 567 263.5 588.85 297.3 628.1 301.65
L 595.15 254.2
Q 580.45 259.5 580.95 242.6 581.1 237.05 585.05 232.9 615.1 201.25 656.5 186.35 686.5 175.6 718.75 176.5 735.65 177 752.55 178.85 803.35 185.15 842.35 218.05 855.65 229.25 845.25 241.3 842.75 244.1 838.9 243.9
L 817.5 301.45
Q 849.4 293.55 864.7 263.65 868.75 255.75 871.25 247.15 877.95 223.75 862.15 203.95 837.05 172.65 798.6 159.75 775.05 151.7 752.25 142.1 749.45 140.9 748.15 138.3 747.2 136.25 747.45 133.85 742.9 129.25 741.1 123 737.8 111.35 739.3 99.2 739.7 95.7 740.3 92.2
L 724.2 91.8
M 1093.95 242
Q 1099.2 240.15 1098.35 234.95 1097.25 228.05 1090.85 224.6 1074.25 215.5 1056.05 211.5 1046.5 209.4 1036.9 211.45 1033.9 212.05 1030.95 212.65 1014.05 215.3 1018.05 230.35 1019.3 234.95 1023.5 237.1 1057.95 255.15 1093.95 242
M 1274.35 132
L 1271.4 141.15 1239.45 276.75 1479.95 201.3 1274.35 132
M 1280.1 33.95
L 1274.85 36.55 1243 48.25
Q 1248.3 82.2 1242.6 115.1 1242.25 117 1240.85 118.4 1225.65 133.2 1213.85 151.05 1200 172 1192.45 196.25 1184.05 223.25 1188.9 250.75 1192 268.25 1201.65 283.1 1206.9 291.3 1204.6 301 1195.2 340.95 1186.3 381
L 1196.85 379
Q 1202.55 371.9 1204.45 359.95 1206.3 348.05 1208.55 335.95 1224.9 249.3 1246.85 163.8 1251.7 144.9 1257.3 126.15 1253.85 123.35 1254 118.85 1254.05 117.75 1254.35 116.65 1254.5 116.2 1254.75 115.8 1255 115.4 1255.35 115.1 1256.05 114.35 1256.85 113.8 1259 112.25 1261.6 111.8
L 1280.1 33.95 Z"/>
</g>

<g id="Layer1_0_FILL">
<path fill="#000000" fill-opacity="0.2" stroke="none" d="
M 1333.3 1131.7
Q 1324.25 1127.6 1312 1131.8 1305.25 1134.15 1291.2 1142.2 1271.75 1153.35 1250.25 1160.1 1228.75 1166.85 1206.45 1168.8 1189.8 1170.25 1166.75 1169.25 1140.25 1167.65 1127 1167 1105.15 1165.95 1078.25 1166.05 1060.15 1166.15 1029.5 1166.9 1015.05 1167.3 1007.85 1167.8 995.85 1168.6 986.4 1170.35 983.7 1170.85 976.25 1172.5 969.9 1173.85 966.1 1174.45 957.45 1175.8 946.65 1175.85 939.3 1175.85 927.15 1175.15 808.8 1168.2 693.85 1140.35 695.25 1132.9 687.5 1128.15 680 1123.5 672.4 1126.15 665.85 1128.45 660.1 1135 656.35 1139.3 651.2 1147.95
L 614.35 1209.25
Q 607.6546875 1220.3677734375 603.65 1229.3 600.602734375 1226.8294921875 596.75 1225.35 591.35 1223.25 584.3 1222.95 579.1 1222.75 571.45 1223.55 525.8 1228.15 488.45 1248.3 479.5 1253.1 473.35 1257.8 465.75 1263.6 460.95 1270.25 455.55 1277.8 453.9 1286.5 452.1 1295.85 455.3 1303.8 460.1 1315.75 475.05 1322.55 484.95 1327 503.7 1330.45 558.1 1340.65 610 1358.3 615.75 1360.25 642.65 1369.85 662.7 1377 675.5 1380.95 713.45 1392.7 742.8 1393.8 773.25 1395.05 787.5 1381.3 875.2 1406.45 986.6 1411.95 1063.75 1415.7 1189.6 1410.15 1235.7 1408.1 1264.1 1406.05 1305 1403.15 1338.3 1398.5 1368.6 1394.3 1403 1387.4 1431.45 1381.65 1467.05 1373.1 1482.35 1369.45 1490.55 1366.75 1503.3 1362.5 1512.5 1356.75 1523.35 1349.95 1530.3 1340.25 1537.85 1329.6 1538.7 1318.05 1539.8 1302.9 1529.55 1287.8 1521.15 1275.45 1505.95 1264.1 1485 1248.45 1457.8 1236.3 1434.65 1226 1405.2 1217.45 1392.45 1213.8 1384.25 1213.1 1372.5 1212.1 1363.85 1216.1 1357.2537109375 1219.1556640625 1352.8 1225.45
L 1350.9 1173.15
Q 1350.4 1158.1 1347.3 1148.9 1343.05 1136.1 1333.3 1131.7
M 710.7 1251.35
Q 711.55 1252.65 712.1 1254.9 707.6 1255.65 703.8 1256.05 705.05 1252.2 707.65 1249.4 709.45 1249.55 710.7 1251.35
M 1351.95 1269.05
Q 1352.469140625 1266.8494140625 1352.8 1264.45 1354.2009765625 1266.2541015625 1355.9 1267.8 1353.955078125 1268.43828125 1351.95 1269.05
M 597.25 1258.4
Q 597.505859375 1262.29140625 598.45 1265.85 594.387890625 1262.5671875 594.5 1257.75 595.8732421875 1258.278125 597.25 1258.4 Z"/>
</g>
</defs>

<g transform="matrix( 1, 0, 0, 1, 0,0) ">
<use xlink:href="#Layer2_0_FILL"/>
</g>

<g filter="url(#Filter_1)" transform="matrix( 1, 0, 0, 1, 0,0) ">
<g transform="matrix( 1, 0, 0, 1, 247.6,1332.1) ">
<g transform="matrix( 1, 0, 0, 1, 0,0) ">
<use xlink:href="#S_mbolo_4_0_Layer0_0_FILL"/>
</g>
</g>
</g>

<g transform="matrix( 1, 0, 0, 1, 0,0) ">
<use xlink:href="#Layer1_0_FILL"/>
</g>
</svg>
