
<svg xmlns="http://www.w3.org/2000/svg" version="1.1" xmlns:xlink="http://www.w3.org/1999/xlink" preserveAspectRatio="none" x="0px" y="0px" width="2000px" height="2000px" viewBox="0 0 2000 2000">
<defs>
<g id="Layer2_0_FILL">
<path fill="#000000" stroke="none" d="
M 1435.9 578.6
Q 1413.1 563.25 1386.15 556.4 1345.3 545.85 1303.9 536.7 1297.15 535.2 1290.45 533.7 1283.65 532.25 1276.9 530.8 1270.05 529.35 1263.25 527.95 1126.25 500.5 987 487.85 954.4 484.9 921.75 482.4 904.95 481.2 887.9 480.5 857.85 479.05 827.75 481.3 796.1 483.75 766.3 494.3 754.8 498.35 745.75 499.45 744.4 497.05 742 495.85 729.35 489.25 719.05 501.25 668.3 560.4 620.65 622.9 568.85 626.65 525.8 654.75 522.45 653.25 519.25 654.8 514.65 656.85 512.65 661.5 476.5 746.55 450.9 835.55 449.75 835.35 448.65 835.2 442.85 834.55 437 835.05 411.25 837.25 385.85 842.05 282.15 861.05 176.85 867.9 137.7 870.65 98.5 873.9 86 874.85 79.5 885.4 78.85 886.45 78.45 887.7 78.1 888.8 77.95 890 77.1 897.7 82.4 903.55 98.2 921 119.45 932 131.8 938.45 144.4 944.6 152.45 948.55 160.55 952.2 192.95 966.7 225.7 981 266.8 998.8 307.45 1017.55 353.15 1038.75 401.15 1053 381.9 1174.45 387.15 1297.15 386 1299.05 385.4 1301.1 382.05 1312.65 393.1 1313.6
L 398.3 1316.45
Q 399.6 1318.1 400.75 1319.9 401.75 1321.35 402.8 1322.7 424.1 1350 456.3 1364.5 510.85 1389.25 568.35 1406.7 669.7 1437.25 774.3 1454.05 807.9 1459.45 841.8 1463.65 978.05 1479.4 1115.1 1478.8 1135.4 1478.7 1155.75 1478.8 1161.95 1478.8 1168.25 1479.1 1176.8 1479.25 1185.45 1479.5 1242.75 1481.05 1300.1 1480.65 1374.45 1480.15 1446.1 1461.6 1462.9 1457.3 1478.3 1449.65 1480.15 1448.75 1481.95 1447.7 1483.75 1446.8 1485.5 1445.75 1495.7 1439.9 1504.65 1432.55 1524.1 1416.5 1530.5 1392.9 1531.75 1388.2 1533.2 1383.95 1535.95 1376 1539.2 1368.25 1565.3 1306 1583.5 1241.25 1647.7 1230.2 1710.4 1212.4 1725.6 1208.05 1740.8 1203.6 1757.95 1198.7 1775.1 1193.8 1856.55 1171.25 1933.75 1137.55 1937.45 1138.45 1941.3 1137.7 1953.35 1135.4 1952.7 1122.95 1951.7 1104.25 1933.4 1097.15 1922.45 1092.95 1911.55 1088.2 1909.95 1087.5 1908.4 1086.8 1906.75 1086.05 1905.15 1085.3 1894.25 1080.15 1883.55 1074.65 1850.8 1057.7 1818 1041.35 1809.9 1037.35 1801.75 1033.8 1788.45 1028.1 1774.7 1023.25 1701.5 997.55 1626.9 975.6 1627.1 973.35 1627.3 971.1 1627.55 968.75 1627.75 966.4 1627.95 963.95 1628.15 961.5 1628.4 958.9 1628.55 956.3 1630.95 910.4 1637 865.75 1637.85 859.5 1634.55 854 1631.8 849.35 1628.6 845.05 1624.95 840.15 1618.95 838.3 1617 837.8 1615.45 836.85 1545.9 793.25 1473.3 755.15 1463.25 676.7 1442.3 601.05 1449.4 587.65 1435.9 578.6
M 1411.85 604.3
Q 1415.75 605.55 1419.6 606.45
L 1440.75 738.8
Q 1413.4 725.6 1385.35 713.7 1349.5 698.6 1312.95 686.3 1275.35 673.45 1237 663.7 1196.65 653.4 1155.8 645.85 1112.75 637.9 1069.4 632.6 1030.45 627.7 991.4 624.85 950.4 621.75 909.3 620.25 865.75 618.65 822.25 618.5 782.3 618.4 742.4 619.05 701.7 619.7 661.2 620.85
L 742.75 517.75
Q 746.8 517.7 750.8 516.75 751.3 516.6 751.85 516.5 754.6 515.9 757.35 515.3 763.25 514.05 769.1 512.75 781.75 509.7 794.4 507.4 815.4 503.75 836.75 503.2 861.6 502.6 886.45 504.35 974.9 510.15 1062.6 523.2 1127 532.85 1190.65 546 1246.4 557.6 1301.3 572.15 1357 586.75 1411.85 604.3
M 1387.5 748.65
Q 1419.8 762.4 1447.9 780.4 1451.55 796.45 1466.9 794.4 1470.05 793.95 1472.25 791.85
L 1497.25 806.35 1546.2 837.25
Q 1546.15 842.5 1546.25 847.5 1546.35 853.5 1546.65 859.4 1547.1 867.15 1547.65 874.9 1548.1 881.85 1547.5 888.65 1544.5 923.4 1536.6 957.55 1524 966.8 1512.55 977.5 1487.55 1000.9 1470.55 1030.6 1464.5 1041.2 1460.6 1052.6 1455.15 1068.6 1452.35 1085.3 1449.3 1103.35 1450 1121.6 1450.6 1136.8 1455.25 1151.5 1470.55 1200.2 1513.45 1226.1 1512.15 1235.45 1509.75 1244.5 1496.3 1295.45 1467.5 1339.95 1456.85 1334.6 1446.2 1329.35 1413.9 1313.6 1380.4 1300.65 1354.35 1290.75 1327.65 1282.5 1301.1 1274.2 1273.95 1267.7 1246.95 1261.3 1219.65 1257.05 1139.8 1244.35 1059.25 1237.2 1045.6 1236.25 1035.55 1233
L 1053.5 1103.65
Q 1089.6 1114.75 1127.95 1114.5 1154.3 1114.35 1178.65 1105.35 1231.2 1086.15 1249.55 1033.15 1256.7 1012.5 1263.4 991.4 1266.35 982.1 1266.7 972.4 1267.1 960.2 1265.3 948.3 1264.1 940.4 1261.45 932.65 1258.05 922.55 1251.4 914.35 1223.5 880.25 1180.2 872.5 1179.9 814.25 1178.25 755.95 1177.55 731.9 1174.55 708.25 1173.9 703.2 1170.95 699 1168.1 694.9 1163.4 694 1158.6 693.45 1154.8 696.45 1105.25 736.1 1058.15 778.85
L 1067.35 660.55
Q 1109.95 666.75 1152.2 675.55 1273.5 700.4 1387.5 748.65
M 1754 1046.45
Q 1768.3 1051.8 1781.95 1058.7 1845.7 1091.1 1908.05 1125.65 1904.65 1126.65 1901.3 1127.7 1855.4 1141.3 1809.55 1155.3 1788.85 1161.6 1768.05 1167.65 1728.85 1179.2 1689.25 1189.35 1640.7 1201.8 1591.4 1210.5
L 1614.2 1088.4 1624.25 1003.55
Q 1643.1 1010.9 1662.45 1016.95 1687.95 1025 1713.7 1032.8 1734 1039.1 1754 1046.45
M 1592.5 868.6
Q 1592.35 870.7 1592.25 872.85 1587.7 954.95 1584.5 1037.15 1580.9 1128.25 1562.95 1217.05 1556.6 1220.6 1554.4 1227.4 1553.5 1230.3 1554.2 1233.3 1554.95 1236.65 1557.4 1238.9
L 1535.7 1303.65 1512.8 1365.45 1486.45 1350.2
Q 1520.5 1297.1 1533.5 1235.85 1535 1228.85 1537.95 1222.7 1542.35 1213.4 1536.3 1204.05 1535.75 1203.25 1535.15 1202.5 1533.55 1200.2 1531.2 1198.55 1512.85 1185.75 1500.35 1167.25 1483.35 1142 1480.8 1111.65 1475.2 1045.6 1519.15 995.5 1530.3 982.75 1543.1 976.8 1549.4 980.4 1555.5 976.25 1556.25 975.75 1556.95 975.15 1561.05 971.45 1562.65 966.15 1567.8 948.9 1567.75 930.9 1567.75 923.85 1568.45 916.75 1571.7 883.3 1566.2 850.15
L 1592.5 868.6
M 1410.4 1432.6
Q 1367.65 1439.35 1324.25 1441.4 1281.4 1443.7 1238.55 1443.95 1196.7 1444.2 1155.1 1443.8 1122.45 1443.45 1089.8 1442.75 1057.35 1442.1 1024.9 1441.25 984.45 1439.85 944.15 1437.9 902.1 1436 860.1 1432.45 818.15 1428.9 776.5 1422.75 735.85 1416.6 695.7 1407.15 655.25 1397.5 615 1386.85 572.9 1375.6 531.05 1363.75 488.8 1351.7 449.9 1331.95 436.7 1325.25 426.55 1314.55 418.7 1306.35 428.6 1301.2 432.35 1299.25 436.15 1297.5 475.5 1279.95 518.1 1271.3 556.75 1263.25 595.7 1258.8 637 1254 678.65 1252.2 721.55 1250.45 764.45 1250.7 806.05 1250.95 847.8 1252.85 891.75 1254.8 935.5 1258.15 975.35 1261.25 1015.2 1265.35 1057.45 1269.75 1099.55 1274.95 1137.7 1279.6 1175.55 1284.85 1214.5 1289.9 1253 1297.5 1377.6 1325.3 1486.75 1391.9 1485.75 1392.95 1484.75 1393.95 1454.35 1425.7 1410.4 1432.6
M 811.45 641.85
Q 849.05 642.25 886.7 643.75
L 987.2 652.95
Q 987.65 697.55 977.9 741.35 973 763.4 970 786 968.7 795.95 968.65 805.95 968.65 812.05 968.15 818.15 907.25 820.7 852.45 847.25 817.15 864.25 790.65 893.3 759 928 765.8 974.35 770.1 1003.55 789.15 1026.35 827.5 1072.15 885.65 1088 907.8 1093.95 930.25 1098.1 940.5 1100 950.85 1100.95 959.35 1101.75 967.9 1101.35 965.6 1110.95 964.4 1120.6 961.8 1141.4 956.6 1161.55 950.45 1185.65 943.3 1209.45 942.35 1212.65 941.25 1215.85 939.5 1220.95 937.85 1226.2 844.8 1219.75 751.65 1220.9 689.7 1221.7 628.15 1228.3 590.25 1232.55 552.8 1239.9 508.2 1248.8 464.95 1262.9
L 453.5 1262.2
Q 448.05 1236 448.5 1209.05 448.9 1182.15 451.25 1155.35 454.55 1117.9 458.55 1080.55 459.15 1074.8 459.35 1069.05 461.8 1068.6 464 1067.9 480.8 1062.85 496.75 1055.5 525.7 1042.05 540.95 1014 567.6 964.85 570.15 909.2 571 891.25 563.6 875 559.1 865.15 551.4 857.6 545.75 852.15 538.65 848.95 547.25 790.6 565.75 734.3 570.6 719.45 575.1 704.4 578.4 693.25 581.45 681.65 585.25 667.1 588.15 652.5
L 614.75 648.6
Q 616.35 649.9 618.35 650.65 619.05 650.9 619.75 651.15 620.4 651.3 621.05 651.55 621.75 651.6 622.45 651.75 623.1 651.8 623.75 651.85 624.45 651.85 625.15 651.9 625.8 651.75 626.45 651.7 627.15 651.55 627.85 651.5 628.5 651.25 629.15 651.05 629.75 650.85 630.3 650.6 632.05 649.8 633.7 648.75 635.5 647.7 637.2 646.45 638 645.8 638.8 645.1 642.6 644.85 646.4 644.65 688.6 642.4 730.65 641.9 771 641.4 811.45 641.85
M 1001.75 652.3
L 1045.95 657.55 1042.6 792.75
Q 1032.4 801.9 1022.15 811 940.8 883.3 867 963.45 859.95 971.05 865.45 979.85 881.05 1004.75 907.4 1018.4 933.4 1031.85 961.8 1038.1 1016.6 1050.35 1072.25 1056.5 1116.25 1061.4 1157.25 1047.9 1158.1 1048.6 1158.95 1049.35 1162.1 1051.85 1165.85 1050.5 1178.95 1046 1177.7 1030.65
L 1182.05 899.4
Q 1210.05 905 1227.95 927.05 1241.7 944 1241.55 965.8 1241.35 1001.1 1228.9 1034.15 1218.75 1061.2 1195.85 1077.7 1190.05 1081.85 1183.05 1083.8 1118.4 1100.95 1051.8 1086.55
L 1042.95 1082
Q 1039 1084.3 1038.55 1089.15 1031.85 1161.6 1018.8 1232.7
L 962.5 1227.95
Q 963.3 1224.9 964.25 1221.9 984.4 1159.8 981.2 1096.3 985.35 1091.35 982.3 1085.8 980 1081.7 975.25 1081.25 918.65 1075.9 865.5 1055.8 824.15 1040.25 799.85 1004.35 789.7 989.4 788.05 971.55 784.2 930.55 815 901.75 828.05 889.5 843.8 880.65 903.6 846.85 972.9 841.6 975.35 843.3 977.9 842.15 990.5 836.2 987 823.1 992.5 784.25 998.2 745.45 1005 699.1 1001.75 652.3
M 1088.65 782
Q 1120.6 755 1152.5 728.15 1157.2 876.15 1151.85 1023.15 1145.25 1026.4 1138.15 1028.3 1110.1 1036.05 1080.85 1036.35 1053.9 1036.65 1027.5 1031.35 1015.05 1028.7 1002.65 1026.25 979.8 1021.85 956.8 1017.05 930.45 1011.55 906.9 998.5 890.65 989.5 879.85 974.35 894.4 959.15 909.2 944.35 937.3 916.3 966.5 889.3 995.05 862.8 1024.4 837.2 1056.25 809.4 1088.65 782
M 563.1 660.3
Q 559.5 675.1 555.85 689.8 553.05 701 549.5 711.95 547.45 718.35 545.4 724.75 541.15 738.05 537.25 751.35 527.6 784.1 520.4 817.85 517.1 833.25 514.95 849.15 514.45 852.75 515.3 856.1 518.75 869.85 531.65 864.5 537.45 867.25 541.6 872 546.95 878.3 549.05 886.35 553.55 903.4 550.05 920.6 541.85 960.8 523.45 997.45 520.9 1002.5 517.1 1006.7 513.4 1010.8 508.95 1013.9 503 1018 496.3 1021.35 479.55 1029.6 461.95 1035.8 459.1 1036.7 456.15 1037.7 453 1038.85 450.05 1040.4 434.95 1048.8 442.25 1063.05 439.35 1090.45 436.6 1117.85 433.25 1151.65 431.3 1185.5 430.8 1193.95 430.55 1202.5 429.45 1237 436.8 1270.6
L 415.5 1281.1
Q 413.95 1242.2 415.5 1202.55 417.05 1161.75 421.35 1121.3 425.85 1079.15 432.95 1037.55 439.7 997.8 448.7 958.45 457.9 918.05 468.85 878 480.4 835.8 494.05 794.35 506.85 755.55 519.5 716.6
L 529.95 676.3 563.1 660.3
M 332.5 884.7
Q 351.45 881.7 370.35 878.8 406.05 872.8 441.9 866.9
L 415.05 976.7 405.75 1025.15
Q 399.75 1021.55 393.25 1018.95 327.65 993.65 263.3 965.3 198.8 937.05 135.35 906.15 158.15 902.4 181.2 900.95 207.9 899.35 234.45 896.95 283.6 892.05 332.5 884.7
M 604.3 1312.75
Q 598.7 1315.7 596.85 1321.75 593.05 1333.9 603.95 1341.05 630.85 1358.75 662.3 1367.2 704.45 1378.3 747.9 1384.2 789 1389.5 830.35 1392.85 868.4 1395.85 906.9 1397.25 948.25 1398.8 989.45 1398.8 1032.65 1398.75 1075.9 1397.75 1117.05 1396.75 1158.15 1395.6 1201.35 1394.4 1243.95 1387.5 1258.45 1385.15 1262.35 1371.65 1264.3 1365 1260.85 1358.85 1243.25 1327.25 1208.75 1313.6 1168.45 1297.65 1125.5 1290.45 1087.5 1284.15 1048.95 1281 1025.75 1279.3 1002.65 1278.7 962.2 1277.6 921.75 1277.75 868.45 1278 815.15 1278.2 792 1278.3 768.8 1278.7 726.25 1279.5 684.3 1286.15 641.95 1292.65 604.3 1312.75
M 818.2 1302.2
Q 838.65 1301.25 859.1 1300.9 909.5 1300 959.3 1306.85 966.15 1307.95 972.75 1310.05 988.4 1314.8 1003.65 1312.8
L 1005.9 1305.5 1005.7 1305.25
Q 1008.4 1304.45 1014.35 1305 1022.65 1305.3 1031.15 1305.8 1044.3 1306.45 1057.4 1307.4 1104.45 1309.9 1149.45 1323.55 1189.9 1335.95 1222.35 1362.9 1196.9 1364.85 1171.5 1366.8 1133.25 1369.45 1095.1 1370.8 1056.9 1372.35 1018.6 1372.55 980.45 1372.7 942.1 1371.9 903.8 1371.1 865.45 1369.05 821.75 1366.85 778.15 1362.95 734.85 1359.1 692 1350.75 651.85 1342.75 613.8 1327.65 653 1314.7 694.3 1310.6 709.2 1308.9 724.1 1307.9 731.75 1307.2 739.65 1306.7 748.3 1306.1 756.75 1305.5 770.85 1304.8 784.9 1303.85 801.55 1302.9 818.2 1302.2 Z"/>

<path fill="#FF0000" stroke="none" d="
M 370.35 878.8
Q 351.45 881.7 332.5 884.7 283.6 892.05 234.45 896.95 207.9 899.35 181.2 900.95 158.15 902.4 135.35 906.15 198.8 937.05 263.3 965.3 327.65 993.65 393.25 1018.95 399.75 1021.55 405.75 1025.15
L 415.05 976.7 441.9 866.9
Q 406.05 872.8 370.35 878.8
M 555.85 689.8
Q 559.5 675.1 563.1 660.3
L 529.95 676.3 519.5 716.6
Q 506.85 755.55 494.05 794.35 480.4 835.8 468.85 878 457.9 918.05 448.7 958.45 439.7 997.8 432.95 1037.55 425.85 1079.15 421.35 1121.3 417.05 1161.75 415.5 1202.55 413.95 1242.2 415.5 1281.1
L 436.8 1270.6
Q 429.45 1237 430.55 1202.5 430.8 1193.95 431.3 1185.5 433.25 1151.65 436.6 1117.85 439.35 1090.45 442.25 1063.05 434.95 1048.8 450.05 1040.4 453 1038.85 456.15 1037.7 459.1 1036.7 461.95 1035.8 479.55 1029.6 496.3 1021.35 503 1018 508.95 1013.9 513.4 1010.8 517.1 1006.7 520.9 1002.5 523.45 997.45 541.85 960.8 550.05 920.6 553.55 903.4 549.05 886.35 546.95 878.3 541.6 872 537.45 867.25 531.65 864.5 518.75 869.85 515.3 856.1 514.45 852.75 514.95 849.15 517.1 833.25 520.4 817.85 527.6 784.1 537.25 751.35 541.15 738.05 545.4 724.75 547.45 718.35 549.5 711.95 553.05 701 555.85 689.8
M 1152.5 728.15
Q 1120.6 755 1088.65 782 1056.25 809.4 1024.4 837.2 995.05 862.8 966.5 889.3 937.3 916.3 909.2 944.35 894.4 959.15 879.85 974.35 890.65 989.5 906.9 998.5 930.45 1011.55 956.8 1017.05 979.8 1021.85 1002.65 1026.25 1015.05 1028.7 1027.5 1031.35 1053.9 1036.65 1080.85 1036.35 1110.1 1036.05 1138.15 1028.3 1145.25 1026.4 1151.85 1023.15 1157.2 876.15 1152.5 728.15
M 1045.95 657.55
L 1001.75 652.3
Q 1005 699.1 998.2 745.45 992.5 784.25 987 823.1 990.5 836.2 977.9 842.15 975.35 843.3 972.9 841.6 903.6 846.85 843.8 880.65 828.05 889.5 815 901.75 784.2 930.55 788.05 971.55 789.7 989.4 799.85 1004.35 824.15 1040.25 865.5 1055.8 918.65 1075.9 975.25 1081.25 980 1081.7 982.3 1085.8 985.35 1091.35 981.2 1096.3 984.4 1159.8 964.25 1221.9 963.3 1224.9 962.5 1227.95
L 1018.8 1232.7
Q 1031.85 1161.6 1038.55 1089.15 1039 1084.3 1042.95 1082
L 1051.8 1086.55
Q 1118.4 1100.95 1183.05 1083.8 1190.05 1081.85 1195.85 1077.7 1218.75 1061.2 1228.9 1034.15 1241.35 1001.1 1241.55 965.8 1241.7 944 1227.95 927.05 1210.05 905 1182.05 899.4
L 1177.7 1030.65
Q 1178.95 1046 1165.85 1050.5 1162.1 1051.85 1158.95 1049.35 1158.1 1048.6 1157.25 1047.9 1116.25 1061.4 1072.25 1056.5 1016.6 1050.35 961.8 1038.1 933.4 1031.85 907.4 1018.4 881.05 1004.75 865.45 979.85 859.95 971.05 867 963.45 940.8 883.3 1022.15 811 1032.4 801.9 1042.6 792.75
L 1045.95 657.55
M 1592.25 872.85
Q 1592.35 870.7 1592.5 868.6
L 1566.2 850.15
Q 1571.7 883.3 1568.45 916.75 1567.75 923.85 1567.75 930.9 1567.8 948.9 1562.65 966.15 1561.05 971.45 1556.95 975.15 1556.25 975.75 1555.5 976.25 1549.4 980.4 1543.1 976.8 1530.3 982.75 1519.15 995.5 1475.2 1045.6 1480.8 1111.65 1483.35 1142 1500.35 1167.25 1512.85 1185.75 1531.2 1198.55 1533.55 1200.2 1535.15 1202.5 1535.75 1203.25 1536.3 1204.05 1542.35 1213.4 1537.95 1222.7 1535 1228.85 1533.5 1235.85 1520.5 1297.1 1486.45 1350.2
L 1512.8 1365.45 1535.7 1303.65 1557.4 1238.9
Q 1554.95 1236.65 1554.2 1233.3 1553.5 1230.3 1554.4 1227.4 1556.6 1220.6 1562.95 1217.05 1580.9 1128.25 1584.5 1037.15 1587.7 954.95 1592.25 872.85
M 1781.95 1058.7
Q 1768.3 1051.8 1754 1046.45 1734 1039.1 1713.7 1032.8 1687.95 1025 1662.45 1016.95 1643.1 1010.9 1624.25 1003.55
L 1614.2 1088.4 1591.4 1210.5
Q 1640.7 1201.8 1689.25 1189.35 1728.85 1179.2 1768.05 1167.65 1788.85 1161.6 1809.55 1155.3 1855.4 1141.3 1901.3 1127.7 1904.65 1126.65 1908.05 1125.65 1845.7 1091.1 1781.95 1058.7 Z"/>

<path fill="#41344A" stroke="none" d="
M 886.7 643.75
Q 849.05 642.25 811.45 641.85 771 641.4 730.65 641.9 688.6 642.4 646.4 644.65 642.6 644.85 638.8 645.1 638 645.8 637.2 646.45 635.5 647.7 633.7 648.75 632.05 649.8 630.3 650.6 629.75 650.85 629.15 651.05 628.5 651.25 627.85 651.5 627.15 651.55 626.45 651.7 625.8 651.75 625.15 651.9 624.45 651.85 623.75 651.85 623.1 651.8 622.45 651.75 621.75 651.6 621.05 651.55 620.4 651.3 619.75 651.15 619.05 650.9 618.35 650.65 616.35 649.9 614.75 648.6
L 588.15 652.5
Q 585.25 667.1 581.45 681.65 578.4 693.25 575.1 704.4 570.6 719.45 565.75 734.3 547.25 790.6 538.65 848.95 545.75 852.15 551.4 857.6 559.1 865.15 563.6 875 571 891.25 570.15 909.2 567.6 964.85 540.95 1014 525.7 1042.05 496.75 1055.5 480.8 1062.85 464 1067.9 461.8 1068.6 459.35 1069.05 459.15 1074.8 458.55 1080.55 454.55 1117.9 451.25 1155.35 448.9 1182.15 448.5 1209.05 448.05 1236 453.5 1262.2
L 464.95 1262.9
Q 508.2 1248.8 552.8 1239.9 590.25 1232.55 628.15 1228.3 689.7 1221.7 751.65 1220.9 844.8 1219.75 937.85 1226.2 939.5 1220.95 941.25 1215.85 942.35 1212.65 943.3 1209.45 950.45 1185.65 956.6 1161.55 961.8 1141.4 964.4 1120.6 965.6 1110.95 967.9 1101.35 959.35 1101.75 950.85 1100.95 940.5 1100 930.25 1098.1 907.8 1093.95 885.65 1088 827.5 1072.15 789.15 1026.35 770.1 1003.55 765.8 974.35 759 928 790.65 893.3 817.15 864.25 852.45 847.25 907.25 820.7 968.15 818.15 968.65 812.05 968.65 805.95 968.7 795.95 970 786 973 763.4 977.9 741.35 987.65 697.55 987.2 652.95
L 886.7 643.75
M 1324.25 1441.4
Q 1367.65 1439.35 1410.4 1432.6 1454.35 1425.7 1484.75 1393.95 1485.75 1392.95 1486.75 1391.9 1377.6 1325.3 1253 1297.5 1214.5 1289.9 1175.55 1284.85 1137.7 1279.6 1099.55 1274.95 1057.45 1269.75 1015.2 1265.35 975.35 1261.25 935.5 1258.15 891.75 1254.8 847.8 1252.85 806.05 1250.95 764.45 1250.7 721.55 1250.45 678.65 1252.2 637 1254 595.7 1258.8 556.75 1263.25 518.1 1271.3 475.5 1279.95 436.15 1297.5 432.35 1299.25 428.6 1301.2 418.7 1306.35 426.55 1314.55 436.7 1325.25 449.9 1331.95 488.8 1351.7 531.05 1363.75 572.9 1375.6 615 1386.85 655.25 1397.5 695.7 1407.15 735.85 1416.6 776.5 1422.75 818.15 1428.9 860.1 1432.45 902.1 1436 944.15 1437.9 984.45 1439.85 1024.9 1441.25 1057.35 1442.1 1089.8 1442.75 1122.45 1443.45 1155.1 1443.8 1196.7 1444.2 1238.55 1443.95 1281.4 1443.7 1324.25 1441.4
M 596.85 1321.75
Q 598.7 1315.7 604.3 1312.75 641.95 1292.65 684.3 1286.15 726.25 1279.5 768.8 1278.7 792 1278.3 815.15 1278.2 868.45 1278 921.75 1277.75 962.2 1277.6 1002.65 1278.7 1025.75 1279.3 1048.95 1281 1087.5 1284.15 1125.5 1290.45 1168.45 1297.65 1208.75 1313.6 1243.25 1327.25 1260.85 1358.85 1264.3 1365 1262.35 1371.65 1258.45 1385.15 1243.95 1387.5 1201.35 1394.4 1158.15 1395.6 1117.05 1396.75 1075.9 1397.75 1032.65 1398.75 989.45 1398.8 948.25 1398.8 906.9 1397.25 868.4 1395.85 830.35 1392.85 789 1389.5 747.9 1384.2 704.45 1378.3 662.3 1367.2 630.85 1358.75 603.95 1341.05 593.05 1333.9 596.85 1321.75
M 1447.9 780.4
Q 1419.8 762.4 1387.5 748.65 1273.5 700.4 1152.2 675.55 1109.95 666.75 1067.35 660.55
L 1058.15 778.85
Q 1105.25 736.1 1154.8 696.45 1158.6 693.45 1163.4 694 1168.1 694.9 1170.95 699 1173.9 703.2 1174.55 708.25 1177.55 731.9 1178.25 755.95 1179.9 814.25 1180.2 872.5 1223.5 880.25 1251.4 914.35 1258.05 922.55 1261.45 932.65 1264.1 940.4 1265.3 948.3 1267.1 960.2 1266.7 972.4 1266.35 982.1 1263.4 991.4 1256.7 1012.5 1249.55 1033.15 1231.2 1086.15 1178.65 1105.35 1154.3 1114.35 1127.95 1114.5 1089.6 1114.75 1053.5 1103.65
L 1035.55 1233
Q 1045.6 1236.25 1059.25 1237.2 1139.8 1244.35 1219.65 1257.05 1246.95 1261.3 1273.95 1267.7 1301.1 1274.2 1327.65 1282.5 1354.35 1290.75 1380.4 1300.65 1413.9 1313.6 1446.2 1329.35 1456.85 1334.6 1467.5 1339.95 1496.3 1295.45 1509.75 1244.5 1512.15 1235.45 1513.45 1226.1 1470.55 1200.2 1455.25 1151.5 1450.6 1136.8 1450 1121.6 1449.3 1103.35 1452.35 1085.3 1455.15 1068.6 1460.6 1052.6 1464.5 1041.2 1470.55 1030.6 1487.55 1000.9 1512.55 977.5 1524 966.8 1536.6 957.55 1544.5 923.4 1547.5 888.65 1548.1 881.85 1547.65 874.9 1547.1 867.15 1546.65 859.4 1546.35 853.5 1546.25 847.5 1546.15 842.5 1546.2 837.25
L 1497.25 806.35 1472.25 791.85
Q 1470.05 793.95 1466.9 794.4 1451.55 796.45 1447.9 780.4
M 1419.6 606.45
Q 1415.75 605.55 1411.85 604.3 1357 586.75 1301.3 572.15 1246.4 557.6 1190.65 546 1127 532.85 1062.6 523.2 974.9 510.15 886.45 504.35 861.6 502.6 836.75 503.2 815.4 503.75 794.4 507.4 781.75 509.7 769.1 512.75 763.25 514.05 757.35 515.3 754.6 515.9 751.85 516.5 751.3 516.6 750.8 516.75 746.8 517.7 742.75 517.75
L 661.2 620.85
Q 701.7 619.7 742.4 619.05 782.3 618.4 822.25 618.5 865.75 618.65 909.3 620.25 950.4 621.75 991.4 624.85 1030.45 627.7 1069.4 632.6 1112.75 637.9 1155.8 645.85 1196.65 653.4 1237 663.7 1275.35 673.45 1312.95 686.3 1349.5 698.6 1385.35 713.7 1413.4 725.6 1440.75 738.8
L 1419.6 606.45 Z"/>

<path fill="#0C0C0C" stroke="none" d="
M 859.1 1300.9
Q 838.65 1301.25 818.2 1302.2 801.55 1302.9 784.9 1303.85 770.85 1304.8 756.75 1305.5 748.3 1306.1 739.65 1306.7 731.75 1307.2 724.1 1307.9 709.2 1308.9 694.3 1310.6 653 1314.7 613.8 1327.65 651.85 1342.75 692 1350.75 734.85 1359.1 778.15 1362.95 821.75 1366.85 865.45 1369.05 903.8 1371.1 942.1 1371.9 980.45 1372.7 1018.6 1372.55 1056.9 1372.35 1095.1 1370.8 1133.25 1369.45 1171.5 1366.8 1196.9 1364.85 1222.35 1362.9 1189.9 1335.95 1149.45 1323.55 1104.45 1309.9 1057.4 1307.4 1044.3 1306.45 1031.15 1305.8 1022.65 1305.3 1014.35 1305 1008.4 1304.45 1005.7 1305.25
L 1005.9 1305.5 1003.65 1312.8
Q 988.4 1314.8 972.75 1310.05 966.15 1307.95 959.3 1306.85 909.5 1300 859.1 1300.9 Z"/>
</g>

<g id="Layer1_0_FILL">
<path fill="#000000" fill-opacity="0.20784313725490197" stroke="none" d="
M 1399.05 581.9
Q 1393.3 580.75 1378.05 579.2 1347.8 576.25 1307.5 568.2 1260.85 558.2 1237.5 553.3 1206.9 546.85 1168.15 539.75 1146.55 535.75 1098.6 527.35 1005.45 511.15 963.2 504.5 903.1 495.1 863.8 491.85 809.15 487.35 763.95 491.15 752.85 492.15 746.2 493.7 736.55 496 729.9 500.5 723.45 504.9 717.75 512.9 714.25 517.8 708.6 527.95
L 671.25 595.7
Q 668.1 601.35 667 605.05 665.4 610.5 666.9 614.7 670.8 625.65 692.65 625.1 852.35 620.8 1011.15 625 1013.8 634.7 1025.15 640.2 1033.45 644.25 1047.25 646.3 1076.05 650.7 1133.8 659.25 1184.25 666.95 1220.1 673.55 1317.5 691.5 1389 716.6 1394.6 718.6 1397.6 720.15 1402.15 722.5 1404.85 725.6 1408.05 729.3 1410.6 737.4 1413.5 746.7 1415.4 749.85 1419.95 757.35 1429.3 760.2 1438.35 763 1446.9 759.9 1455.15 756.95 1461.05 749.5 1466.7 742.35 1468.55 733.35 1471.65 718.2 1463.45 697.1 1461.85 692.95 1455.8 679.35 1450.9 668.25 1448.65 661.45 1446.4 654.65 1443.45 641.65 1440.2 627.35 1438.55 621.7 1431.8 598.95 1418.25 589.55 1410.65 584.3 1399.05 581.9
M 1485.7 1379.55
Q 1477.35 1364.05 1460.85 1350.45 1436.15 1330.15 1401.9 1315.85 1373.65 1304.05 1336 1295.25 1320.5 1291.6 1268.5 1281.55 1226.55 1273.4 1201.45 1266.2 1191.25 1263.25 1164.9 1254.7 1141.85 1247.15 1128.25 1243.6 1071.35 1228.85 987.5 1229.85 966.4 1230.1 915.95 1232.1 870.1 1233.95 844.45 1233.9 825.1 1233.9 788.8 1232.75 750.75 1231.55 733.1 1231.45 666.3 1231.1 599.85 1239.6 533.4 1248.1 468.8 1265.25 456.7 1268.45 449.85 1271.15 439.65 1275.25 432.85 1280.95 424.9 1287.6 421.4 1297.05 417.7 1307.15 421.05 1316.05 423.95 1323.75 432.3 1329.95 437.75 1334 448.6 1339.25
L 501 1364.4
Q 525.8 1376.25 538.3 1381.95 559.15 1391.45 576.25 1398 628.95 1418.15 696.95 1430.2 743.75 1438.5 821.45 1446.2 1008.2 1464.75 1196.8 1472.8 1227.4 1474.15 1247.1 1474.45 1274.6 1474.95 1297.35 1473.95 1353.3 1471.5 1423.25 1458.05 1436.55 1455.45 1444 1453.4 1455.3 1450.25 1463.7 1445.8 1473.65 1440.6 1480.65 1433 1488.3 1424.65 1491 1414.85 1495.6 1398.05 1485.7 1379.55
M 665.65 1343.25
Q 680.8 1342.5 706.25 1342.6 791.8 1343.05 890.6 1348.7 970.9 1353.3 1074.55 1362.25 1064.05 1366.4 1057.85 1376.65 1051.6 1386.95 1052.8 1398.15 997.75 1397.7 928.35 1391.4 903.95 1389.2 865.6 1385.15
L 797.15 1378
Q 774.55 1375.65 763.25 1374.35 744.45 1372.2 729.5 1370 676.4 1362.15 625.3 1347.65 643.3 1344.35 665.65 1343.25 Z"/>
</g>
</defs>

<g transform="matrix( 1, 0, 0, 1, 0,0) ">
<use xlink:href="#Layer2_0_FILL"/>
</g>

<g transform="matrix( 1, 0, 0, 1, 0,0) ">
<use xlink:href="#Layer1_0_FILL"/>
</g>
</svg>
