
<svg xmlns="http://www.w3.org/2000/svg" version="1.1" xmlns:xlink="http://www.w3.org/1999/xlink" preserveAspectRatio="none" x="0px" y="0px" width="2000px" height="2000px" viewBox="0 0 2000 2000">
<defs>
<g id="Layer2_0_FILL">
<path fill="#000000" stroke="none" d="
M 1374.35 742.35
Q 1361.65 746.2 1362.75 759.6 1365 787.55 1373.35 814.45 1347.4 804.25 1321.95 793.15 1304.05 785.3 1284.85 781.35 1269.4 778.05 1266.05 793.35 1264 802.65 1265.8 812.15 1272.5 847.9 1287.05 880.3
L 1279.9 884.7
Q 1272.25 879.2 1264.15 874.65 1212.85 846.15 1154.2 840.9 1032 830.25 913.95 862.4
L 890.95 849.25
Q 891.75 847.05 892.1 844.9 897.65 808.15 899.8 771.9 900.2 765.6 897.65 759.9 894.15 752 885.7 753.1 869.9 754.6 854.7 759.35 833.65 766 813.65 775.4 800.35 781.7 790.8 784.2 791.4 779.55 792.05 775 798.2 733.1 799.7 690.8 799.9 684.65 795.15 681.05 784.5 672.95 771.1 677.95 730.15 693.05 691.6 712.25 683.85 716.1 680 715.05 682.25 690.85 682.9 666.5 683.15 656.3 675.9 650.25 672.5 647.5 668.15 649.05 655.55 653.25 642.95 658.15 605.05 672.9 568.85 690.65 561.65 687.8 553.45 683.15 552.45 682.65 551.4 682.3 545.9 680.7 541.9 684.4 529.1 696.35 537.9 713.05 498.55 731.45 462.05 754.75 451.4 761.6 448.95 773.6 446.9 783.5 455.65 788.55 475.5 800.15 496.4 809.9 528.2 824.8 560.6 837.8 531.1 863.85 503.3 891.5 496.8 897.95 497.85 906.75 498.65 913.55 505.35 915 555.15 925.4 606.3 925.95 605 927.25 603.75 928.65 574.1 961.45 547.8 997.05 543.8 1002.45 544.15 1009.05 544.9 1021.75 558.45 1023.95 591.35 1029.5 623.95 1036.75 650.25 1042.7 676.25 1037.55
L 664.05 1059.1
Q 659.15 1058.7 654.25 1059.7 602.6 1071.15 569.95 1114.35 564.15 1122.05 559.15 1123.75 555.3 1119.8 551.7 1115.8 538.75 1101.5 521.75 1093.8 515.65 1091.15 510.15 1094.7 500.6 1101 498.75 1113.05 493.6 1147.05 488.15 1179.05 463.65 1158.9 445.95 1132.7 436.8 1119.2 422.75 1126.5 419.65 1128.2 418.3 1131.45 402.55 1169.2 398.75 1209.7 389.7 1199.25 381.7 1188.15 371.15 1173.5 356.65 1162.7 351.05 1158.5 345.45 1162.1 337.9 1166.8 333.65 1174.8 320.75 1199.05 311.35 1224.6 302.05 1249.8 291.7 1274.6 270.85 1259.65 251.7 1242.65 238.5 1230.95 222.65 1223.45 207.8 1216.45 203.55 1233.35 192.85 1275.45 188.2 1318.8 176.3 1322.05 166.2 1328.75 160.5 1332.55 159.8 1339.15 158.75 1349.05 168.6 1351.9 190.35 1358.05 213.3 1355.9 229.3 1390.45 245.9 1424.6 251.35 1435.85 262.05 1441.35 266.6 1443.8 270.8 1440.95 288.15 1429.15 301.7 1412.6 320.45 1389.75 333.7 1363.25 341.15 1370.35 350.35 1379.75 360.85 1390.6 372 1400.6 391 1417.45 412.35 1431.4 425.05 1439.65 439.05 1436.25 443.2 1435.1 444.75 1430.9 457.85 1395.4 462.9 1357.8
L 466.9 1357.8
Q 493 1383.55 520.25 1408.3 526.8 1414.2 532.65 1420.9 541.25 1430.65 553.35 1430.35 557.9 1430.25 559.85 1426.15 575.5 1393.6 582.65 1358.2 615 1403.65 662.25 1433.4 675.05 1441.4 689.95 1443.35 693.65 1443.95 696.75 1441.85 710.15 1432.8 713.35 1415.2 733.5 1432.15 760.2 1434 758.75 1437.25 759.4 1440.8 762.15 1455.2 777.7 1455.85 827.55 1459 877.5 1457.45 853.8 1480.95 830.6 1504.85 817.75 1518 804.45 1530.5 792.55 1541.7 788.2 1557.05 786.65 1562.5 789.65 1567.2 800.8 1584.95 822.8 1582.25 857.75 1578.2 892.8 1579.05 861.5 1608.05 832.85 1639.6 824.95 1648.4 832.5 1656.75 838.6 1663.5 847.7 1664.75 887.9 1670.45 928.65 1675.3 899 1701.1 872.45 1730.25 868.4 1734.75 867.4 1740.65 864.5 1758.2 882.85 1762.65 915.45 1770.9 948.9 1773.95 959.75 1775 970.5 1776.25 992.95 1778.3 1014.55 1773.7 1021.3 1791.4 1031.45 1807.2 1036.3 1814.65 1044.9 1813.7 1049.4 1813.65 1051.8 1809.75 1063.1 1791.75 1066.3 1770.1 1095.9 1772.9 1125.45 1769.75 1140.1 1768.45 1154.5 1766.65 1176.5 1764.5 1196.2 1755.1 1201.25 1752.7 1202.3 1747.35 1204.6 1735.65 1195.15 1727.25 1169.25 1704.55 1139.4 1687.1 1132.65 1683.2 1135.4 1682 1175.45 1674.55 1214.05 1661.85 1228.75 1657.05 1237.75 1645.3 1241.4 1640.5 1238.65 1635.15 1232.25 1622.8 1220.3 1615.1 1191.15 1596.45 1165.2 1573.85 1215.2 1557.95 1262.9 1535.5 1277.45 1528.65 1268.75 1514.05 1263.6 1505.45 1254.95 1500.2 1229.9 1485.05 1206.2 1468.25 1212.95 1466.5 1219.55 1464.25 1246.85 1455.2 1273.05 1444.1 1282 1440.3 1289.5 1434.25 1296.15 1428.9 1299.25 1423.2
L 1316.15 1420.55
Q 1317.3 1421.95 1318.05 1423.55 1327.05 1442.55 1334.2 1462.35 1335.55 1466.1 1338.75 1468.15 1351.85 1476.5 1362.55 1463.45 1387.45 1433 1419.45 1410.15 1425.25 1444.65 1431.5 1478.85 1436.25 1504.6 1439.55 1530.9 1440.1 1535.25 1443.65 1537.85 1456.3 1547.2 1466.6 1534.1 1473.15 1525.75 1479.65 1517.55 1488.9 1505.95 1499.55 1495.4 1521.9 1473.2 1532.95 1443.95 1534 1447.6 1534.95 1451.3 1538.1 1464 1542.4 1476.2 1548.5 1493.55 1553.1 1511.4 1559.2 1535.15 1567.95 1557.85 1569.3 1561.35 1572.85 1562.5 1583.2 1565.55 1589.95 1555.85 1603.25 1537 1618.55 1519.9 1639.4 1496.8 1652.55 1469.05 1662.4 1496.15 1673.95 1522.35 1678.7 1533.2 1682.75 1544.3 1690.05 1564.2 1703.25 1580.05 1708.3 1586.1 1715.9 1585.05 1727.15 1583.5 1734.75 1574.75 1748.8 1558.75 1763.75 1543.45 1787.7 1518.95 1796.7 1487.15 1835.1 1491.8 1873.5 1496.5 1877.2 1496.9 1881.05 1496.75 1895.4 1497.45 1899.8 1484.55 1901.35 1480.05 1898.85 1475.95 1883 1449.55 1857.2 1431.3 1877.4 1391.85 1891.05 1350 1894.6 1339.2 1889.6 1329.3 1885.35 1320.75 1875.5 1321 1859.7 1321.35 1845.2 1328.7 1820.75 1341.1 1798.45 1347.05 1807.5 1320.8 1811.35 1293.3 1812.85 1282.45 1804.55 1276.15 1799.2 1272.05 1792.45 1274 1754.8 1285 1718.25 1300.4 1720.35 1291.2 1722.4 1282.05 1726.45 1263.55 1731.5 1245.4 1736.1 1228.75 1733.95 1212.1 1733.05 1205.05 1726.5 1202.4 1717.2 1198.75 1707.3 1201.35 1658.6 1213.55 1611.2 1229.9 1613.75 1215.15 1616.95 1200.7 1623.1 1173 1620.95 1145.1 1620.15 1134.65 1613.75 1127.35 1611.5 1124.8 1608.35 1125.95 1552.4 1144.75 1500 1172.2
L 1497.85 1171
Q 1486.65 1134.2 1455.85 1110.35 1463.85 1109.8 1471.8 1109.25 1482.85 1108.5 1489.5 1100.55 1492.45 1097 1490.85 1092.75 1481 1066.2 1462.7 1043.85 1501.45 1049.95 1540.4 1056.35 1555.75 1058.7 1563.2 1046.65 1565.05 1043.65 1562.85 1040.7 1557.35 1033.3 1552.95 1025.1 1534.1 989.95 1515.3 954.8 1512.15 948.95 1513.05 946.9 1525.95 947.75 1538.75 947.9 1546.15 947.95 1553.3 946.1 1568.7 942.3 1584.75 942.6 1594.6 942.8 1601.4 936.35 1604.55 933.25 1603.35 929.15 1596.65 905.95 1583.45 885.25 1579.9 879.7 1575.75 874.5 1564.95 860.75 1556 845.75 1586.45 840.7 1617.4 842 1623.65 841.85 1627.9 837.85 1637.85 828.5 1628.6 818.4 1605.6 793.1 1580.35 770.1 1580.75 767.7 1580.25 765.55 1579.25 761.3 1575.4 759.2 1571.1 756.8 1566.25 757.2 1530.85 728.7 1489.45 710.7 1475.2 704.45 1463.25 712.7 1459.85 715.1 1460 719.15 1461.05 747.45 1470.8 775 1435.95 756.65 1399.2 743.1 1386.7 738.6 1374.35 742.35
M 1383.75 761.1
Q 1396.15 760.5 1407.8 766.1 1439.35 781.05 1471.3 794.75
L 1400.15 823.6 1393.65 821.05 1383.75 761.1
M 1482.3 733.15
L 1520.35 753.7 1539 766.9 1494.1 785.15 1482.3 733.15
M 1550.05 783.05
L 1549.4 785.2 1458.75 856.55
Q 1432.65 844.15 1409.85 862.2 1402.7 867.95 1398.5 876.15 1390.2 892.4 1406.55 899.9
L 1377.1 923.45
Q 1374.9 922.1 1372.65 921.45 1346.85 914.75 1327.75 934.85
L 1302.2 903.8 1291.6 891.55 1550.05 783.05
M 1540.15 854
Q 1552.15 869.9 1563.45 886.2 1575.45 903.5 1583.5 923.05
L 1498.25 922.25 1540.15 854
M 1604.75 817.8
L 1558.75 820.7 1574.35 787.85 1604.75 817.8
M 1520.75 830.25
Q 1520.05 830.7 1519.4 831.3 1517.5 833.1 1516.45 835.4 1515.1 838.5 1515.75 841.85 1516.1 843.5 1517.1 844.75
L 1392.7 1045.05 1368.75 995.05
Q 1383.9 975.45 1387.95 950.8 1388.2 949.25 1388.3 947.75 1389.1 936.3 1381.95 927.5
L 1414.1 901.2
Q 1443.45 900.15 1458.8 875.25 1459.5 874.1 1460.1 872.9 1462.8 867 1461.45 860.65
L 1545.45 795.1 1529.8 826.15
Q 1524.85 827.35 1520.75 830.25
M 1486.05 941.9
Q 1488.6 945.85 1490.65 950.1 1505.8 981.3 1525.55 1009.65 1532.95 1020.3 1541.05 1030.45
L 1441.55 1015.7 1486.05 941.9
M 1450.8 867.95
Q 1441.85 886.15 1421.8 888.95 1413.55 890.2 1407.8 885.9 1410.4 870.9 1427.95 867.45 1434.85 866 1441.75 864.6 1449.75 862.75 1450.8 867.95
M 1373.45 836
L 1362.9 840.75 1300.1 871.3 1285.65 803.45
Q 1290.8 803.75 1295.8 805.5 1334.9 819.9 1373.45 836
M 1371.2 931.15
Q 1374.3 932.35 1374.8 935.4 1379.35 961.95 1363 985.5
L 1351.3 967.65 1333.6 942.1
Q 1338.9 938.4 1344.25 934.6 1357.1 925.4 1371.2 931.15
M 1407.15 1081.95
L 1404.45 1072.75 1430.55 1032.9 1466.75 1085.75 1431.2 1092.6 1417.3 1084.7 1407.15 1081.95
M 1381.6 1118.4
L 1390.7 1164.05
Q 1381.7 1166.7 1372.75 1169.8 1321.3 1187.9 1268.55 1201 1200.55 1218.05 1130.75 1223.65 1089.8 1227.05 1048.9 1229.7 1019.55 1231.8 990.25 1231.8 950.05 1231.85 910.2 1226.85 899.9 1225.6 889.45 1224.2 851.1 1218.85 812.85 1213.05 742.8 1202.25 676.05 1179.8 660.3 1174.45 650.8 1163.45
L 658.2 1126.25 672.15 1094.35
Q 690.75 1101.1 709.45 1106.7 841.9 1146.9 980.05 1155.1 1057.95 1160.25 1136 1159.85 1161.9 1159.75 1187.85 1157.85 1202.05 1156.85 1216.1 1155.05 1243.85 1151.45 1271.2 1145.6 1326.85 1134 1381.6 1118.4
M 1518.35 1184.75
L 1601.6 1149.35 1597 1190.9 1586.45 1238.55 1518.35 1184.75
M 1421.5 1124.5
Q 1452.55 1141.8 1465.55 1174.75 1471 1188.5 1467.9 1202.9 1463.45 1223.75 1445.45 1235.55 1379.65 1278.65 1301.7 1291.8 1291.15 1293.45 1280.7 1295.1 1262 1297.95 1243.05 1298.95 1221.35 1300.15 1199.6 1301.6 1196.6 1302 1194.05 1302.5 1173.75 1305.7 1152.65 1306.1 1050.65 1311.15 948.7 1305.55 895.45 1302.9 843 1293.3 806.75 1286.65 770.8 1278.8 745.55 1273.2 720.05 1268.2 642.7 1253.25 571.2 1219.85 561.25 1215.15 555.6 1206.1 547.4 1192.9 553.95 1178.15 583.15 1112.45 650.5 1086.2 646.95 1093.95 643.25 1101.6 629.45 1130.05 627.8 1161.55 626.85 1179.1 642.15 1180.95 642.6 1180.8 643.05 1180.6 643.95 1180.2 644.65 1180.45 647.65 1181 650.35 1182.65 692.65 1206.95 739.7 1220.6 838.05 1248.95 940.15 1257.55 1149.95 1274.35 1350.8 1211.8 1376.85 1203.65 1401.25 1197.1 1401.65 1197.55 1402.05 1198.05 1410.2 1207.4 1421.1 1202.5 1427.4 1199.65 1428.45 1192.85 1433.85 1158.4 1421.5 1124.5
M 1518.6 1319.6
Q 1520.75 1324 1517.45 1327.6 1507.75 1337.95 1492.75 1338.1 1476.35 1338.25 1460.85 1333 1442.85 1326.75 1441.9 1310.25
L 1446.85 1309.6 1448.55 1307.95
Q 1451.35 1307.55 1454.2 1307.2 1479.25 1304.1 1503.85 1309.7 1514.25 1310.75 1518.6 1319.6
M 1528 1331.05
Q 1534.45 1312.25 1516.1 1302.9 1478 1283.65 1438.4 1300.35
L 1411.15 1286.2 1439.5 1272
Q 1482.9 1252.6 1498.55 1209.65
L 1633.9 1309.9 1825.35 1445.4 1826.85 1451.2
Q 1801 1441.2 1775.2 1430.75 1732.45 1413.55 1691.4 1393.1 1683.55 1389.2 1676.05 1384.6 1677.1 1382.65 1677.3 1380.1 1678.1 1370.55 1670.15 1364.85 1635.55 1340 1592.25 1340.2 1583.9 1340.25 1586.6 1345.25
L 1579.15 1349.9 1528 1331.05
M 1494.4 1348.35
Q 1513.2 1348.25 1525.6 1334.95
L 1575.6 1357.9
Q 1575.3 1360.45 1576.1 1362.85 1580.5 1376.55 1593.25 1384.05 1616.65 1397.6 1643.85 1397.8 1660.55 1397.9 1672.5 1390.35 1673.25 1391.85 1674.7 1392.65 1711.65 1413.35 1750.95 1429.45 1785.25 1443.55 1819.8 1456.95 1757.2 1452.35 1695.4 1440.65 1644.45 1431.05 1594.4 1418.35 1550.45 1407.3 1507.05 1394.6 1476.85 1385.75 1446.8 1376.65 1446.1 1374.9 1444.95 1373.65 1443.45 1371.95 1441.4 1370.95 1439.6 1370.15 1437.7 1370.1 1434.9 1369.8 1432.15 1370.4 1430.65 1370.85 1429.2 1371.35
L 1271.1 1324.2
Q 1283.35 1322.55 1295.65 1320.4 1337.9 1313.5 1378.35 1299.35
L 1403.7 1289.45 1433.4 1306.1
Q 1431.15 1311.35 1432.8 1316.95 1436.65 1329.8 1448.4 1336.95 1469.65 1349.8 1494.4 1348.35
M 1590.65 1356.4
Q 1591.65 1356.1 1592.65 1355.8 1607.25 1353.75 1621.35 1359 1629.65 1355.9 1638.1 1359.1 1645.5 1361.85 1652.65 1364.8 1663.7 1369.3 1665.75 1379.15 1665 1381 1663.1 1381.45 1622.1 1393.5 1588.8 1365.5 1583.65 1361.1 1588 1359.7
L 1590.65 1356.4
M 1355.5 1432.3
Q 1354.7 1433.25 1354 1434.25 1350.6 1439.55 1347.85 1439.85
L 1309.3 1362.2 1397.35 1393.4
Q 1373.75 1409.8 1355.5 1432.3
M 1310.25 1404.85
L 1296.4 1410.4
Q 1274.8 1383.4 1250.45 1358.2 1245.25 1352.85 1240.9 1346.75 1230.75 1332.6 1216 1336.55
L 1217.55 1330 1230.4 1328.85 1289.95 1355.1 1310.25 1404.85
M 1453.85 1501.05
L 1436.95 1404.1 1531.6 1433.8
Q 1522 1435.9 1514.3 1442.2 1481.65 1469 1453.85 1501.05
M 1542.85 1436.3
L 1570.35 1444.1 1629.2 1459.15
Q 1613.65 1470.45 1602.5 1486.3 1587.05 1508.25 1578.15 1533.6 1555.3 1486.95 1542.85 1436.3
M 1785.45 1376.7
L 1787.1 1375.2 1852.9 1360.4 1832.3 1411.65 1793 1383.25 1785.45 1376.7
M 1706.8 1226.95
Q 1705.5 1239 1703.3 1250.8 1697.55 1281.25 1687.65 1310.45
L 1609.45 1255.3
Q 1656.85 1236.8 1706.8 1226.95
M 1767.55 1359.85
L 1765.15 1364.05 1711.75 1327.15 1781.15 1302.7 1767.55 1359.85
M 1717.9 1476.75
L 1764.6 1483.2
Q 1746.65 1502.45 1730.45 1522.9 1730.05 1523.4 1729.65 1523.9 1719.25 1537.05 1711.9 1551.95
L 1671 1468.3 1717.9 1476.75
M 681.9 790.35
Q 676.85 788.9 672.05 787.05 657.6 781.85 644.55 786.7
L 587.1 726.15
Q 626.15 741.5 664 759.9 703.15 779 741.35 799.35 779.1 819.55 816.7 839.6
L 882.5 872.7 806.55 908.6
Q 803.55 904.05 799.7 900.2 787.55 888.1 770.6 886.15 760.8 885.05 753 887.55
L 709.05 842.6
Q 717.7 829.5 710.6 814.85 701.7 796.6 681.9 790.35
M 767.55 783.35
L 768.5 787.85 684.05 744.05 775.55 703.4 767.55 783.35
M 658.35 671.1
L 655.3 731.55 583.8 699.35 658.35 671.1
M 860.55 775.8
Q 870.1 771.7 877.15 773.35
L 868.9 840.7 796.95 803.05
Q 828.7 789.2 860.55 775.8
M 595.5 744.95
Q 612.4 764.3 630.6 782.55 635.75 787.7 640.65 792.9 640.05 795.4 640.2 797.65 640.7 805.7 644.65 812.9 657.6 836.55 682 846.4 692.6 850.7 703.2 847.15
L 748 893.15
Q 747.25 894.2 746.65 895.4 738.35 911.35 747.25 927.75 751.65 935.8 757.55 942.95
L 705.3 995.6 689.55 1016.9
Q 621.95 869.4 564.2 717.7 575.6 721.85 583.85 731.45 589.65 738.15 595.5 744.95
M 480.4 776.5
L 547.35 736.45 580.8 822.2 574.1 825.5
Q 567.65 818.7 559.55 813.9 521.8 791.45 480.4 776.5
M 605.05 958.45
L 628.2 930 668.95 1021.25 572.85 1001.9 605.05 958.45
M 534.15 896.2
Q 542.35 887.15 551.75 879.55 573.45 861.9 589.55 839.35
L 618.2 907.6 534.15 896.2
M 433.55 1152.45
Q 437.45 1156.85 441.4 1161.1 447 1167.15 452.75 1173.25 465.4 1186.55 482.05 1194
L 418.75 1224.15 433.55 1152.45
M 548.25 1141
L 532.05 1168.85 509 1180.6 521.3 1119.25 548.25 1141
M 227.95 1329.8
Q 270.45 1313.1 312.45 1295 347.25 1279.85 382.05 1264.75 458.05 1231.9 526.95 1186.5 526.15 1192.15 527.2 1197.5 533.75 1230.45 566 1243.65
L 582.75 1251.55 569.75 1253.9
Q 564.9 1249.3 558.25 1247 553.1 1245.05 547.55 1244.95 538.05 1244.8 534.3 1239.35 530.05 1237.35 525.3 1238.9 499.8 1246.5 496.1 1271.2
L 448.2 1283.6
Q 445.9 1284 444.9 1280.5 444.25 1278.1 442.35 1276.35 439.85 1274.15 436.8 1273.05 433.05 1271.8 429.1 1271.55 409.15 1269.4 390.7 1276.85 384.75 1279.3 379.2 1282.6 363.55 1291.95 361.25 1308.15
L 227.95 1329.8
M 274.35 1286.1
L 209.1 1311.15 221.45 1244.45 274.35 1286.1
M 225.4 1356.1
L 315.25 1357.4 263.65 1419.4 225.4 1356.1
M 571.95 1261.5
Q 577.9 1260.15 583.9 1259 590.3 1258.05 596.2 1259.4 616.9 1264.5 637.35 1270.4 724.8 1296.3 814.6 1311.95 780.1 1314 746 1318.5 712.9 1323.1 679.45 1325.15 587.65 1332.05 495.75 1333.2 370.05 1334.8 244.35 1331.95
L 365.05 1315.95
Q 368.35 1319.7 373.1 1321.3 392.2 1327.8 411.9 1322.05 438.8 1314.15 447.05 1289.05
L 499.3 1279.25
Q 510.45 1291.15 527.15 1288.7 556.45 1284.9 571.95 1261.5
M 504.3 1271.5
Q 502.35 1270.35 503.05 1267.85 506.05 1257.45 515.55 1251.95 527.9 1254 540.45 1253.05 555.25 1252.15 563.15 1261.7 562.85 1262.2 562.45 1262.6 541.55 1284.6 511.9 1279.9
L 504.95 1275.55 504.3 1271.5
M 504.3 1369.25
L 491.6 1357.55 556.9 1357.35 544.45 1403.75 504.3 1369.25
M 374.5 1210.65
L 395.65 1234.65 312.1 1270.8
Q 328.65 1231.65 346.3 1192.7 349.3 1186 352.95 1184.75
L 374.5 1210.65
M 367.65 1306.15
Q 366.95 1303.85 368.7 1302.3 396.15 1277.55 433.05 1282.8
L 439.9 1287.6
Q 439.4 1292.9 435.7 1297.1 414.65 1321.15 381.8 1317.1 370.75 1315.85 367.65 1306.15
M 350.9 1357.7
L 398.4 1357.95 443.65 1359.8
Q 443.15 1360.8 442.65 1361.85 431.15 1387.35 427.75 1415.15 413.45 1408.35 400.8 1399.1 393.4 1393.65 386.7 1387.05 370.2 1370.75 350.9 1357.7
M 692 809.65
Q 705.4 819.95 701.9 834.15 695.45 840.45 686.25 837.9 668.45 833.15 656.9 818.7 648.1 807.6 648.75 794.8 650.2 792.6 652.5 792.85 674.15 795.95 692 809.65
M 751.4 905
Q 752.75 898.95 758.85 898.05 781.8 895.05 798.35 912.85
L 763.5 937.7
Q 757.95 933.7 754.65 927.65 748.75 916.85 751.4 905
M 868.45 1328.95
L 867.55 1320.25 921.2 1326.8 1026.75 1336.5 1031.25 1364.15
Q 1026.35 1362.85 1021.3 1364.2 1019.2 1364.8 1017.7 1366.55 1016.15 1368.4 1014.95 1370.5 1013.15 1373.6 1011.85 1376.95 1010.3 1381.05 1009.05 1385.35 999.9 1416.3 1012.05 1445.1 1013.4 1448.35 1015.7 1450.85 1023.95 1460 1035.7 1461.7
L 1035.35 1529.35
Q 1034.15 1529.15 1032.9 1529 1031.35 1528.9 1029.85 1529.3 1028.5 1529.3 1027.35 1529.9 1026.15 1530.6 1025.2 1531.65 1019.45 1538.1 1016.4 1546.25 1006.75 1572.1 1017.75 1596.45 1018.8 1598.7 1020.5 1600.45 1027.05 1607.35 1035.6 1610.1 1036.55 1611.9 1036.05 1614.45 1035.65 1616.45 1035.9 1618.55 1036.1 1620.2 1036.45 1621.9 1036.9 1624.2 1037.05 1626.5 1038.55 1647.45 1036.3 1668.55 1035.9 1672.25 1035.7 1675.95 1033.3 1719.2 1036.25 1762.25
L 919.6 1452.7
Q 920.65 1451.3 921.05 1449.45 921.15 1448.95 921.2 1448.45 921.25 1447.95 921.25 1447.45 921.25 1446.9 921.2 1446.4 921.15 1445.9 921.05 1445.4 920.95 1444.85 920.8 1444.35 919.35 1440.05 915.7 1437.3 915.25 1437 914.75 1436.75 914.25 1436.4 913.75 1436.1 912.75 1435.65 911.75 1435.2
L 868.45 1328.95
M 852.25 1348.25
L 856.55 1342.9 889.4 1433.3 790.3 1432.85 852.25 1348.25
M 726 1377.8
Q 730.25 1362.5 724.4 1348.05
L 788.55 1339.75 837.15 1338.15 772.95 1414.3 719.45 1398.2
Q 723.15 1388.05 726 1377.8
M 710.85 1349.4
Q 705.15 1355.05 701.55 1362.2 688.35 1388.35 685.1 1417.55 682.35 1417 679.75 1416.05 662.65 1409.55 648.25 1397.9 623.75 1378 601.7 1355.35
L 674.85 1352.2 710.85 1349.4
M 875.8 1545.85
Q 854 1545.9 832.45 1548.75
L 867.75 1505.35 900.3 1463.35 930.5 1549.35
Q 926.8 1547.65 922.75 1547.55 899.4 1545.8 875.8 1545.85
M 1203.75 1373.65
L 1212.4 1349.15
Q 1220.95 1373.85 1239.4 1392.5 1253.35 1406.65 1267.35 1420.8 1247.3 1432.5 1223.3 1440.9 1201.05 1448.65 1178.25 1454
L 1203.75 1373.65
M 1182 1332.55
Q 1178.9 1341.5 1175.8 1350.55 1162.1 1390.75 1149.85 1431.35 1137.35 1472.65 1124.65 1513.95 1112.1 1554.7 1097.5 1594.9 1083.1 1634.6 1067.75 1673.9
L 1043.95 1736.7
Q 1043.3 1728.65 1043.75 1720.5 1046.7 1664.85 1041.85 1609.45 1045.7 1608.95 1048.6 1606.6 1071.85 1587.8 1068.75 1557.15 1066.35 1533.5 1043.55 1529.7
L 1042.4 1460.55
Q 1050.4 1458.15 1055.8 1451.6 1076.8 1426.25 1064.3 1395.55 1057.2 1378.2 1040.8 1368.95 1035.4 1365.95 1033.6 1363.9 1035.75 1359.75 1036.05 1354.45 1036.35 1349 1035.1 1343.8 1034 1339.3 1033.6 1334.6
L 1182 1332.55
M 1050.3 1437.3
Q 1047.35 1443.1 1041.2 1444.85 1023.95 1449.85 1020.65 1432 1014.25 1404.65 1024.3 1380.1 1038 1377.75 1046.7 1390.3 1062.45 1413.15 1050.3 1437.3
M 1028.2 1554.2
Q 1032.45 1546.8 1040.5 1544.5 1052.35 1541.35 1056.35 1553.5 1060.5 1566.05 1057.95 1579.05 1054.35 1597.65 1037.2 1599.9 1032 1598.9 1029.05 1594.45 1016.1 1575.05 1028.2 1554.2
M 1173.8 1470.75
Q 1179.05 1477.85 1186.1 1483.65 1198.6 1493.75 1211.75 1503.2 1225 1512.8 1238.6 1522
L 1143.3 1557.95 1165.8 1492.05 1173.8 1470.75
M 1137.3 1580.75
Q 1138.4 1580.85 1138.8 1581.5 1142.3 1586.6 1146.4 1591.15 1170.9 1618.65 1203.15 1636.65
L 1105.2 1659.55 1124.5 1609.2 1137.3 1580.75
M 1089.5 1700.05
L 1092.95 1692.05 1157.55 1736.05
Q 1116.25 1746.5 1073.65 1745.85
L 1089.5 1700.05
M 976.95 1674.2
L 1006.15 1753.3 899.1 1741.2
Q 909.2 1728.8 920.85 1718 933.05 1706.65 945 1695.15 959.4 1681.3 976.95 1674.2
M 967.25 1651.9
L 955.1 1654.8 868.7 1641.25
Q 878.65 1630.15 889.2 1619.65 906.45 1602.35 924.65 1586
L 939 1569.8 967.25 1651.9
M 1343.8 1031.55
Q 1344.4083984375 1032.7630859375 1345 1034 1347.25 1038.7 1351.6 1048.65
L 1358.95 1065.4
Q 1359.475390625 1062.4951171875 1359.45 1059.15
L 1372 1092.15
Q 1362.15 1095.25 1352.45 1098.8 1310.4 1113.9 1266.6 1122.25 1222.5 1130.55 1177.75 1133.65 1148.95 1135.8 1120.2 1136.1 1065.2 1136.7 1010.2 1133.45 929.85 1129.25 849.95 1118.8 762.55 1107.5 677.45 1084.1 693.55 1053.95 712.8 1025.85 730 1000.7 751.7 979.35 782.1 949.5 820.5 930.3 859.55 910.8 900.85 896.25 905.5 894.8 910.2 893.4 936 886 962.4 881.9 1001.35 875.8 1040.65 874.3 1089.95 872.45 1139.05 877 1183.05 880.7 1224.3 895.95 1250.25 905.5 1269.5 925.35 1316.8 974.1 1347.5 1034.8 1345.7271484375 1033.0853515625 1343.8 1031.55 Z"/>

<path fill="#FF0066" stroke="none" d="
M 1345 1034
Q 1344.4083984375 1032.7630859375 1343.8 1031.55 1345.7271484375 1033.0853515625 1347.5 1034.8 1316.8 974.1 1269.5 925.35 1250.25 905.5 1224.3 895.95 1183.05 880.7 1139.05 877 1089.95 872.45 1040.65 874.3 1001.35 875.8 962.4 881.9 936 886 910.2 893.4 905.5 894.8 900.85 896.25 859.55 910.8 820.5 930.3 782.1 949.5 751.7 979.35 730 1000.7 712.8 1025.85 693.55 1053.95 677.45 1084.1 762.55 1107.5 849.95 1118.8 929.85 1129.25 1010.2 1133.45 1065.2 1136.7 1120.2 1136.1 1148.95 1135.8 1177.75 1133.65 1222.5 1130.55 1266.6 1122.25 1310.4 1113.9 1352.45 1098.8 1362.15 1095.25 1372 1092.15
L 1359.45 1059.15
Q 1359.475390625 1062.4951171875 1358.95 1065.4
L 1351.6 1048.65
Q 1347.25 1038.7 1345 1034
M 955.1 1654.8
L 967.25 1651.9 939 1569.8 924.65 1586
Q 906.45 1602.35 889.2 1619.65 878.65 1630.15 868.7 1641.25
L 955.1 1654.8
M 1006.15 1753.3
L 976.95 1674.2
Q 959.4 1681.3 945 1695.15 933.05 1706.65 920.85 1718 909.2 1728.8 899.1 1741.2
L 1006.15 1753.3
M 1092.95 1692.05
L 1089.5 1700.05 1073.65 1745.85
Q 1116.25 1746.5 1157.55 1736.05
L 1092.95 1692.05
M 1138.8 1581.5
Q 1138.4 1580.85 1137.3 1580.75
L 1124.5 1609.2 1105.2 1659.55 1203.15 1636.65
Q 1170.9 1618.65 1146.4 1591.15 1142.3 1586.6 1138.8 1581.5
M 1186.1 1483.65
Q 1179.05 1477.85 1173.8 1470.75
L 1165.8 1492.05 1143.3 1557.95 1238.6 1522
Q 1225 1512.8 1211.75 1503.2 1198.6 1493.75 1186.1 1483.65
M 1040.5 1544.5
Q 1032.45 1546.8 1028.2 1554.2 1016.1 1575.05 1029.05 1594.45 1032 1598.9 1037.2 1599.9 1054.35 1597.65 1057.95 1579.05 1060.5 1566.05 1056.35 1553.5 1052.35 1541.35 1040.5 1544.5
M 1041.2 1444.85
Q 1047.35 1443.1 1050.3 1437.3 1062.45 1413.15 1046.7 1390.3 1038 1377.75 1024.3 1380.1 1014.25 1404.65 1020.65 1432 1023.95 1449.85 1041.2 1444.85
M 1212.4 1349.15
L 1203.75 1373.65 1178.25 1454
Q 1201.05 1448.65 1223.3 1440.9 1247.3 1432.5 1267.35 1420.8 1253.35 1406.65 1239.4 1392.5 1220.95 1373.85 1212.4 1349.15
M 832.45 1548.75
Q 854 1545.9 875.8 1545.85 899.4 1545.8 922.75 1547.55 926.8 1547.65 930.5 1549.35
L 900.3 1463.35 867.75 1505.35 832.45 1548.75
M 701.55 1362.2
Q 705.15 1355.05 710.85 1349.4
L 674.85 1352.2 601.7 1355.35
Q 623.75 1378 648.25 1397.9 662.65 1409.55 679.75 1416.05 682.35 1417 685.1 1417.55 688.35 1388.35 701.55 1362.2
M 856.55 1342.9
L 852.25 1348.25 790.3 1432.85 889.4 1433.3 856.55 1342.9
M 758.85 898.05
Q 752.75 898.95 751.4 905 748.75 916.85 754.65 927.65 757.95 933.7 763.5 937.7
L 798.35 912.85
Q 781.8 895.05 758.85 898.05
M 701.9 834.15
Q 705.4 819.95 692 809.65 674.15 795.95 652.5 792.85 650.2 792.6 648.75 794.8 648.1 807.6 656.9 818.7 668.45 833.15 686.25 837.9 695.45 840.45 701.9 834.15
M 398.4 1357.95
L 350.9 1357.7
Q 370.2 1370.75 386.7 1387.05 393.4 1393.65 400.8 1399.1 413.45 1408.35 427.75 1415.15 431.15 1387.35 442.65 1361.85 443.15 1360.8 443.65 1359.8
L 398.4 1357.95
M 368.7 1302.3
Q 366.95 1303.85 367.65 1306.15 370.75 1315.85 381.8 1317.1 414.65 1321.15 435.7 1297.1 439.4 1292.9 439.9 1287.6
L 433.05 1282.8
Q 396.15 1277.55 368.7 1302.3
M 395.65 1234.65
L 374.5 1210.65 352.95 1184.75
Q 349.3 1186 346.3 1192.7 328.65 1231.65 312.1 1270.8
L 395.65 1234.65
M 491.6 1357.55
L 504.3 1369.25 544.45 1403.75 556.9 1357.35 491.6 1357.55
M 503.05 1267.85
Q 502.35 1270.35 504.3 1271.5
L 504.95 1275.55 511.9 1279.9
Q 541.55 1284.6 562.45 1262.6 562.85 1262.2 563.15 1261.7 555.25 1252.15 540.45 1253.05 527.9 1254 515.55 1251.95 506.05 1257.45 503.05 1267.85
M 315.25 1357.4
L 225.4 1356.1 263.65 1419.4 315.25 1357.4
M 209.1 1311.15
L 274.35 1286.1 221.45 1244.45 209.1 1311.15
M 532.05 1168.85
L 548.25 1141 521.3 1119.25 509 1180.6 532.05 1168.85
M 441.4 1161.1
Q 437.45 1156.85 433.55 1152.45
L 418.75 1224.15 482.05 1194
Q 465.4 1186.55 452.75 1173.25 447 1167.15 441.4 1161.1
M 551.75 879.55
Q 542.35 887.15 534.15 896.2
L 618.2 907.6 589.55 839.35
Q 573.45 861.9 551.75 879.55
M 628.2 930
L 605.05 958.45 572.85 1001.9 668.95 1021.25 628.2 930
M 547.35 736.45
L 480.4 776.5
Q 521.8 791.45 559.55 813.9 567.65 818.7 574.1 825.5
L 580.8 822.2 547.35 736.45
M 877.15 773.35
Q 870.1 771.7 860.55 775.8 828.7 789.2 796.95 803.05
L 868.9 840.7 877.15 773.35
M 655.3 731.55
L 658.35 671.1 583.8 699.35 655.3 731.55
M 768.5 787.85
L 767.55 783.35 775.55 703.4 684.05 744.05 768.5 787.85
M 1764.6 1483.2
L 1717.9 1476.75 1671 1468.3 1711.9 1551.95
Q 1719.25 1537.05 1729.65 1523.9 1730.05 1523.4 1730.45 1522.9 1746.65 1502.45 1764.6 1483.2
M 1765.15 1364.05
L 1767.55 1359.85 1781.15 1302.7 1711.75 1327.15 1765.15 1364.05
M 1703.3 1250.8
Q 1705.5 1239 1706.8 1226.95 1656.85 1236.8 1609.45 1255.3
L 1687.65 1310.45
Q 1697.55 1281.25 1703.3 1250.8
M 1787.1 1375.2
L 1785.45 1376.7 1793 1383.25 1832.3 1411.65 1852.9 1360.4 1787.1 1375.2
M 1570.35 1444.1
L 1542.85 1436.3
Q 1555.3 1486.95 1578.15 1533.6 1587.05 1508.25 1602.5 1486.3 1613.65 1470.45 1629.2 1459.15
L 1570.35 1444.1
M 1436.95 1404.1
L 1453.85 1501.05
Q 1481.65 1469 1514.3 1442.2 1522 1435.9 1531.6 1433.8
L 1436.95 1404.1
M 1354 1434.25
Q 1354.7 1433.25 1355.5 1432.3 1373.75 1409.8 1397.35 1393.4
L 1309.3 1362.2 1347.85 1439.85
Q 1350.6 1439.55 1354 1434.25
M 1592.65 1355.8
Q 1591.65 1356.1 1590.65 1356.4
L 1588 1359.7
Q 1583.65 1361.1 1588.8 1365.5 1622.1 1393.5 1663.1 1381.45 1665 1381 1665.75 1379.15 1663.7 1369.3 1652.65 1364.8 1645.5 1361.85 1638.1 1359.1 1629.65 1355.9 1621.35 1359 1607.25 1353.75 1592.65 1355.8
M 1517.45 1327.6
Q 1520.75 1324 1518.6 1319.6 1514.25 1310.75 1503.85 1309.7 1479.25 1304.1 1454.2 1307.2 1451.35 1307.55 1448.55 1307.95
L 1446.85 1309.6 1441.9 1310.25
Q 1442.85 1326.75 1460.85 1333 1476.35 1338.25 1492.75 1338.1 1507.75 1337.95 1517.45 1327.6
M 1601.6 1149.35
L 1518.35 1184.75 1586.45 1238.55 1597 1190.9 1601.6 1149.35
M 1404.45 1072.75
L 1407.15 1081.95 1417.3 1084.7 1431.2 1092.6 1466.75 1085.75 1430.55 1032.9 1404.45 1072.75
M 1374.8 935.4
Q 1374.3 932.35 1371.2 931.15 1357.1 925.4 1344.25 934.6 1338.9 938.4 1333.6 942.1
L 1351.3 967.65 1363 985.5
Q 1379.35 961.95 1374.8 935.4
M 1362.9 840.75
L 1373.45 836
Q 1334.9 819.9 1295.8 805.5 1290.8 803.75 1285.65 803.45
L 1300.1 871.3 1362.9 840.75
M 1421.8 888.95
Q 1441.85 886.15 1450.8 867.95 1449.75 862.75 1441.75 864.6 1434.85 866 1427.95 867.45 1410.4 870.9 1407.8 885.9 1413.55 890.2 1421.8 888.95
M 1490.65 950.1
Q 1488.6 945.85 1486.05 941.9
L 1441.55 1015.7 1541.05 1030.45
Q 1532.95 1020.3 1525.55 1009.65 1505.8 981.3 1490.65 950.1
M 1558.75 820.7
L 1604.75 817.8 1574.35 787.85 1558.75 820.7
M 1563.45 886.2
Q 1552.15 869.9 1540.15 854
L 1498.25 922.25 1583.5 923.05
Q 1575.45 903.5 1563.45 886.2
M 1520.35 753.7
L 1482.3 733.15 1494.1 785.15 1539 766.9 1520.35 753.7
M 1407.8 766.1
Q 1396.15 760.5 1383.75 761.1
L 1393.65 821.05 1400.15 823.6 1471.3 794.75
Q 1439.35 781.05 1407.8 766.1 Z"/>

<path fill="#41344A" stroke="none" d="
M 1175.8 1350.55
Q 1178.9 1341.5 1182 1332.55
L 1033.6 1334.6
Q 1034 1339.3 1035.1 1343.8 1036.35 1349 1036.05 1354.45 1035.75 1359.75 1033.6 1363.9 1035.4 1365.95 1040.8 1368.95 1057.2 1378.2 1064.3 1395.55 1076.8 1426.25 1055.8 1451.6 1050.4 1458.15 1042.4 1460.55
L 1043.55 1529.7
Q 1066.35 1533.5 1068.75 1557.15 1071.85 1587.8 1048.6 1606.6 1045.7 1608.95 1041.85 1609.45 1046.7 1664.85 1043.75 1720.5 1043.3 1728.65 1043.95 1736.7
L 1067.75 1673.9
Q 1083.1 1634.6 1097.5 1594.9 1112.1 1554.7 1124.65 1513.95 1137.35 1472.65 1149.85 1431.35 1162.1 1390.75 1175.8 1350.55
M 724.4 1348.05
Q 730.25 1362.5 726 1377.8 723.15 1388.05 719.45 1398.2
L 772.95 1414.3 837.15 1338.15 788.55 1339.75 724.4 1348.05
M 867.55 1320.25
L 868.45 1328.95 911.75 1435.2
Q 912.75 1435.65 913.75 1436.1 914.25 1436.4 914.75 1436.75 915.25 1437 915.7 1437.3 919.35 1440.05 920.8 1444.35 920.95 1444.85 921.05 1445.4 921.15 1445.9 921.2 1446.4 921.25 1446.9 921.25 1447.45 921.25 1447.95 921.2 1448.45 921.15 1448.95 921.05 1449.45 920.65 1451.3 919.6 1452.7
L 1036.25 1762.25
Q 1033.3 1719.2 1035.7 1675.95 1035.9 1672.25 1036.3 1668.55 1038.55 1647.45 1037.05 1626.5 1036.9 1624.2 1036.45 1621.9 1036.1 1620.2 1035.9 1618.55 1035.65 1616.45 1036.05 1614.45 1036.55 1611.9 1035.6 1610.1 1027.05 1607.35 1020.5 1600.45 1018.8 1598.7 1017.75 1596.45 1006.75 1572.1 1016.4 1546.25 1019.45 1538.1 1025.2 1531.65 1026.15 1530.6 1027.35 1529.9 1028.5 1529.3 1029.85 1529.3 1031.35 1528.9 1032.9 1529 1034.15 1529.15 1035.35 1529.35
L 1035.7 1461.7
Q 1023.95 1460 1015.7 1450.85 1013.4 1448.35 1012.05 1445.1 999.9 1416.3 1009.05 1385.35 1010.3 1381.05 1011.85 1376.95 1013.15 1373.6 1014.95 1370.5 1016.15 1368.4 1017.7 1366.55 1019.2 1364.8 1021.3 1364.2 1026.35 1362.85 1031.25 1364.15
L 1026.75 1336.5 921.2 1326.8 867.55 1320.25
M 583.9 1259
Q 577.9 1260.15 571.95 1261.5 556.45 1284.9 527.15 1288.7 510.45 1291.15 499.3 1279.25
L 447.05 1289.05
Q 438.8 1314.15 411.9 1322.05 392.2 1327.8 373.1 1321.3 368.35 1319.7 365.05 1315.95
L 244.35 1331.95
Q 370.05 1334.8 495.75 1333.2 587.65 1332.05 679.45 1325.15 712.9 1323.1 746 1318.5 780.1 1314 814.6 1311.95 724.8 1296.3 637.35 1270.4 616.9 1264.5 596.2 1259.4 590.3 1258.05 583.9 1259
M 312.45 1295
Q 270.45 1313.1 227.95 1329.8
L 361.25 1308.15
Q 363.55 1291.95 379.2 1282.6 384.75 1279.3 390.7 1276.85 409.15 1269.4 429.1 1271.55 433.05 1271.8 436.8 1273.05 439.85 1274.15 442.35 1276.35 444.25 1278.1 444.9 1280.5 445.9 1284 448.2 1283.6
L 496.1 1271.2
Q 499.8 1246.5 525.3 1238.9 530.05 1237.35 534.3 1239.35 538.05 1244.8 547.55 1244.95 553.1 1245.05 558.25 1247 564.9 1249.3 569.75 1253.9
L 582.75 1251.55 566 1243.65
Q 533.75 1230.45 527.2 1197.5 526.15 1192.15 526.95 1186.5 458.05 1231.9 382.05 1264.75 347.25 1279.85 312.45 1295
M 630.6 782.55
Q 612.4 764.3 595.5 744.95 589.65 738.15 583.85 731.45 575.6 721.85 564.2 717.7 621.95 869.4 689.55 1016.9
L 705.3 995.6 757.55 942.95
Q 751.65 935.8 747.25 927.75 738.35 911.35 746.65 895.4 747.25 894.2 748 893.15
L 703.2 847.15
Q 692.6 850.7 682 846.4 657.6 836.55 644.65 812.9 640.7 805.7 640.2 797.65 640.05 795.4 640.65 792.9 635.75 787.7 630.6 782.55
M 672.05 787.05
Q 676.85 788.9 681.9 790.35 701.7 796.6 710.6 814.85 717.7 829.5 709.05 842.6
L 753 887.55
Q 760.8 885.05 770.6 886.15 787.55 888.1 799.7 900.2 803.55 904.05 806.55 908.6
L 882.5 872.7 816.7 839.6
Q 779.1 819.55 741.35 799.35 703.15 779 664 759.9 626.15 741.5 587.1 726.15
L 644.55 786.7
Q 657.6 781.85 672.05 787.05
M 1296.4 1410.4
L 1310.25 1404.85 1289.95 1355.1 1230.4 1328.85 1217.55 1330 1216 1336.55
Q 1230.75 1332.6 1240.9 1346.75 1245.25 1352.85 1250.45 1358.2 1274.8 1383.4 1296.4 1410.4
M 1525.6 1334.95
Q 1513.2 1348.25 1494.4 1348.35 1469.65 1349.8 1448.4 1336.95 1436.65 1329.8 1432.8 1316.95 1431.15 1311.35 1433.4 1306.1
L 1403.7 1289.45 1378.35 1299.35
Q 1337.9 1313.5 1295.65 1320.4 1283.35 1322.55 1271.1 1324.2
L 1429.2 1371.35
Q 1430.65 1370.85 1432.15 1370.4 1434.9 1369.8 1437.7 1370.1 1439.6 1370.15 1441.4 1370.95 1443.45 1371.95 1444.95 1373.65 1446.1 1374.9 1446.8 1376.65 1476.85 1385.75 1507.05 1394.6 1550.45 1407.3 1594.4 1418.35 1644.45 1431.05 1695.4 1440.65 1757.2 1452.35 1819.8 1456.95 1785.25 1443.55 1750.95 1429.45 1711.65 1413.35 1674.7 1392.65 1673.25 1391.85 1672.5 1390.35 1660.55 1397.9 1643.85 1397.8 1616.65 1397.6 1593.25 1384.05 1580.5 1376.55 1576.1 1362.85 1575.3 1360.45 1575.6 1357.9
L 1525.6 1334.95
M 1516.1 1302.9
Q 1534.45 1312.25 1528 1331.05
L 1579.15 1349.9 1586.6 1345.25
Q 1583.9 1340.25 1592.25 1340.2 1635.55 1340 1670.15 1364.85 1678.1 1370.55 1677.3 1380.1 1677.1 1382.65 1676.05 1384.6 1683.55 1389.2 1691.4 1393.1 1732.45 1413.55 1775.2 1430.75 1801 1441.2 1826.85 1451.2
L 1825.35 1445.4 1633.9 1309.9 1498.55 1209.65
Q 1482.9 1252.6 1439.5 1272
L 1411.15 1286.2 1438.4 1300.35
Q 1478 1283.65 1516.1 1302.9
M 1465.55 1174.75
Q 1452.55 1141.8 1421.5 1124.5 1433.85 1158.4 1428.45 1192.85 1427.4 1199.65 1421.1 1202.5 1410.2 1207.4 1402.05 1198.05 1401.65 1197.55 1401.25 1197.1 1376.85 1203.65 1350.8 1211.8 1149.95 1274.35 940.15 1257.55 838.05 1248.95 739.7 1220.6 692.65 1206.95 650.35 1182.65 647.65 1181 644.65 1180.45 643.95 1180.2 643.05 1180.6 642.6 1180.8 642.15 1180.95 626.85 1179.1 627.8 1161.55 629.45 1130.05 643.25 1101.6 646.95 1093.95 650.5 1086.2 583.15 1112.45 553.95 1178.15 547.4 1192.9 555.6 1206.1 561.25 1215.15 571.2 1219.85 642.7 1253.25 720.05 1268.2 745.55 1273.2 770.8 1278.8 806.75 1286.65 843 1293.3 895.45 1302.9 948.7 1305.55 1050.65 1311.15 1152.65 1306.1 1173.75 1305.7 1194.05 1302.5 1196.6 1302 1199.6 1301.6 1221.35 1300.15 1243.05 1298.95 1262 1297.95 1280.7 1295.1 1291.15 1293.45 1301.7 1291.8 1379.65 1278.65 1445.45 1235.55 1463.45 1223.75 1467.9 1202.9 1471 1188.5 1465.55 1174.75
M 1390.7 1164.05
L 1381.6 1118.4
Q 1326.85 1134 1271.2 1145.6 1243.85 1151.45 1216.1 1155.05 1202.05 1156.85 1187.85 1157.85 1161.9 1159.75 1136 1159.85 1057.95 1160.25 980.05 1155.1 841.9 1146.9 709.45 1106.7 690.75 1101.1 672.15 1094.35
L 658.2 1126.25 650.8 1163.45
Q 660.3 1174.45 676.05 1179.8 742.8 1202.25 812.85 1213.05 851.1 1218.85 889.45 1224.2 899.9 1225.6 910.2 1226.85 950.05 1231.85 990.25 1231.8 1019.55 1231.8 1048.9 1229.7 1089.8 1227.05 1130.75 1223.65 1200.55 1218.05 1268.55 1201 1321.3 1187.9 1372.75 1169.8 1381.7 1166.7 1390.7 1164.05
M 1519.4 831.3
Q 1520.05 830.7 1520.75 830.25 1524.85 827.35 1529.8 826.15
L 1545.45 795.1 1461.45 860.65
Q 1462.8 867 1460.1 872.9 1459.5 874.1 1458.8 875.25 1443.45 900.15 1414.1 901.2
L 1381.95 927.5
Q 1389.1 936.3 1388.3 947.75 1388.2 949.25 1387.95 950.8 1383.9 975.45 1368.75 995.05
L 1392.7 1045.05 1517.1 844.75
Q 1516.1 843.5 1515.75 841.85 1515.1 838.5 1516.45 835.4 1517.5 833.1 1519.4 831.3
M 1549.4 785.2
L 1550.05 783.05 1291.6 891.55 1302.2 903.8 1327.75 934.85
Q 1346.85 914.75 1372.65 921.45 1374.9 922.1 1377.1 923.45
L 1406.55 899.9
Q 1390.2 892.4 1398.5 876.15 1402.7 867.95 1409.85 862.2 1432.65 844.15 1458.75 856.55
L 1549.4 785.2 Z"/>
</g>

<g id="Layer1_0_FILL">
<path fill="#000000" fill-opacity="0.2" stroke="none" d="
M 1364 1114.05
Q 1355.15 1114.25 1339.6 1117.3 1244.85 1135.7 1195.65 1142.4 1115.3 1153.3 1050.4 1151.2 997.7 1149.5 932.65 1138.45 893.4 1131.75 816.2 1115
L 716.85 1093.45
Q 705.2 1090.95 698.8 1090.5 688.7 1089.85 681.2 1092.75 671.2 1096.65 663.35 1107.65 658.15 1114.9 651.8 1129.05 646.6 1140.55 645.05 1147.85 642.75 1158.65 646.25 1166.65 648.95 1172.85 655.4 1177.85 660.35 1181.7 668.3 1185.35 690.45 1195.5 723.25 1201.15 742.15 1204.4 780.4 1209.25 798.4 1212 824.45 1217.25 839.1 1220.2 868.35 1226.15 921.35 1236.55 956.75 1237.25 972.5 1237.55 996.95 1236.1 1031.7 1234.1 1037.15 1233.9 1052.8 1233.35 1077.45 1233.5 1110.8 1233.75 1117.75 1233.7 1239.85 1232.65 1357.05 1199.25 1371.25 1195.25 1379.4 1191.4 1391.2 1185.85 1397.95 1177.75 1403.3 1171.3 1405.3 1162.6 1407.25 1154.25 1405.75 1145.6 1404.2 1136.9 1399.55 1129.95 1394.65 1122.6 1387.25 1118.75 1377.6 1113.75 1364 1114.05
M 1308.75 1376.2
Q 1307.55 1374.4 1305.05 1371.2 1299.35 1364.05 1295.2 1359.6 1290.35 1354.5 1279 1344.6 1268.1 1335.05 1262.95 1329.4 1258.3 1324 1255.9 1321.35 1251.7 1316.6 1248.35 1313.8 1243.85 1310.15 1239.05 1308.4 1233.65 1306.45 1228.65 1307.25 1222.9 1308.2 1218.4 1312.75 1215.96796875 1315.18203125 1214.4 1318.15 1212.1623046875 1320.0716796875 1210.5 1322.9 1207.2 1328.55 1208.25 1334.55 1209.45 1341.15 1215.3 1346.95 1217.1177734375 1348.7677734375 1219.55 1350.7 1221.8814453125 1353.82890625 1225.1 1357.35 1229.5 1362.2 1243.15 1375.55 1254.65 1386.75 1260.65 1394.2 1261.0927734375 1394.743359375 1261.6 1395.4 1262.2802734375 1396.780859375 1262.95 1398.25 1267.4 1407.9 1269.75 1411.55 1274.2 1418.6 1279.85 1421.85 1284.55 1424.55 1290.2 1424.75 1295.85 1424.95 1300.65 1422.5 1305.5 1420.05 1308.75 1415.4 1311.95 1410.75 1312.45 1405.35 1312.77734375 1401.6830078125 1311.85 1397.55 1312.0025390625 1397.0892578125 1312.15 1396.6 1314.55 1388.75 1311.7 1381.65 1310.7 1379.1 1308.75 1376.2
M 245.35 1329.6
Q 246.65 1332.65 250.2 1334.65 252.75 1336.1 257.15 1337.3 288.8 1345.95 321.6 1343.05 326.65 1342.6 336.65 1341.5 345.4 1340.65 351.65 1341 359.9 1341.45 372.45 1344.65 389.65 1348.95 393.05 1349.6 407.45 1352.3 425.7 1351.7 436.95 1351.35 458.55 1349
L 552.2 1339.05
Q 576.75 1336.4 590 1335.25 610.95 1333.4 627.95 1332.8 661.5 1331.6 705.1 1334.45 711.436328125 1334.8724609375 726.15 1336.05 724.060546875 1337.851953125 722.1 1340.2 718.8 1344.2 715.5 1350.45 706.4 1367.65 702.9 1387 701.55 1394.1 702.1 1398.9 702.9 1406.1 707.85 1412.05 712.75 1417.95 719.7 1420.4 726.55 1422.8 734.05 1421.55 741.45 1420.35 747.5 1416 748.95 1414.95 749.5 1414.65 750.65 1413.95 751.7 1413.85 753.4 1413.7 755.2 1415 755.75 1415.35 758.2 1417.55 762.8 1421.8 768.95 1423.4 775.2 1425.05 781.1 1423.5 791.65 1420.7 800.2 1408.1 802.3 1405 806.75 1397.4 810.8 1390.45 813.45 1386.85 817.3 1381.65 823.85 1375.4 831.5 1368.4 835.25 1364.8 841.75 1358.65 845.75 1353.3 850.75 1346.55 852.9 1339.75 855.4 1331.75 853.35 1325.5 851.85 1321 848 1317.6 844.25 1314.3 839.45 1313.05 834.85 1311.9 829.85 1312.55 827.99140625 1312.784765625 826.15 1313.25 824.02109375 1306.8033203125 816.8 1301.7 808.5 1295.85 795.45 1292.8 771.25 1287.1 719 1279.9 668.6 1273 642.7 1266.45 615.4 1259.6 605.35 1258.65 584.15 1256.55 570.1 1264.9 566.1 1267.3 560.95 1271.7 558.05 1274.2 552.3 1279.3 541.7 1288.3 532.95 1289.6 525.65 1290.7 515.35 1287.2 503.85 1282.65 498 1281 483.95 1277.15 469.25 1280.95 454.5 1284.75 444.1 1294.95 439.85 1299.15 432.05 1308.65 424.85 1316.65 418.05 1319.3 409 1322.85 394.9 1319.55 378.95 1314.8 371 1313.65 361.95 1312.4 349.35 1314.1 334.9 1316.6 327.7 1317.6 300 1321.4 272.95 1316.15 266.1 1314.75 263.5 1314.5 258.15 1314 254.15 1315.2 249.35 1316.6 246.55 1320.9 243.6 1325.35 245.35 1329.6
M 752.5 1338.55
Q 752.441796875 1338.425390625 752.35 1338.3 752.6525390625 1338.3265625 752.9 1338.35 752.7060546875 1338.4482421875 752.5 1338.55
M 549.95 720.85
Q 550.65 722.95 552.75 727.65 561.3 746.75 572.2 779.4 585.55 819.55 590.25 831.75 602.9 864.65 629.55 915.65 636.7 929.35 651.05 956.8 663.3 980.5 671.55 998.4 674.75 1005.4 676.4 1008.3 679.45 1013.65 682.95 1017 687.15 1021 692.5 1022.5 698.25 1024.1 703.05 1021.95 708.05 1019.7 711.9 1013 715.85 1004.8 718.05 1001 721.9 994.3 730.5 986.25 744.2 973.4 744.75 972.8 752.15 964.85 755 955.9 758.3 945.55 754.1 937.5 749.45 930.9 747.2 927.65 743.2 921.8 743.9 917.2 744.2 915.2 745.7 912.3 747.5 908.7 747.9 907.55 750.1 901.05 745.95 893.4 743 887.95 736.2 881.1
L 715.55 860.35
Q 709.7 854.5 706.4 851.85 701.05 847.5 695.9 845.55 692.45 844.3 685.1 843.05 677.8 841.85 674.3 840.55 662.15 836.1 652.5 820.55 650.25 816.9 645.2 807.35 640.7 798.85 637.6 794.3 634.25 789.4 622.2 775.75 612.2 764.45 608.1 756.35 606.15 752.5 603.7 745.9 600.4 737.1 599.65 735.25 594.5 722.95 586.95 717.95 585.15 716.75 581.25 714.9 577.35 713 575.55 711.8 569.25 706.65 566 704.45 560.25 700.6 555.65 702.05 552.3 703.1 550.3 706.6 548.45 709.85 548.55 713.7 548.6 716.95 549.95 720.85
M 1558.2 791.15
Q 1553.7 787.2 1547 786.95 1540.7 786.7 1534.9 789.65 1529.85 792.25 1525.15 797.1 1521.55 800.9 1517.4 806.85 1512.8 813.75 1510.4 817.1 1506.25 822.95 1502.5 826.55 1498.3 830.65 1490.7 835.45 1479.5 842.6 1478.15 843.55 1458.9 857.3 1443.5 886.05 1442 888.85 1441.2 890.05 1439.75 892.15 1438.1 893.3 1436.5 894.35 1434 895 1433.5 895.15 1429.6 895.95 1422.4 897.4 1414.25 901.55 1409.1 904.1 1399.9 909.8 1394.55 913.1 1391.9 915.25 1387.8 918.65 1385.8 922.45 1383.7 926.65 1383.35 933.25 1383.15 937 1383.1 944.6 1382.7 951.5 1380.55 957.45 1378.15 963.95 1373.95 968.6 1373.85 968.7 1367.95 974.35 1364.4 977.75 1362.85 980.7 1360.8 984.6 1360.8 990.15 1360.8 993.65 1361.85 1000.05
L 1367.6 1035.55
Q 1368.35 1040.3 1369.05 1042.8 1370.15 1046.75 1372.05 1049.4 1374.5 1052.8 1378.45 1054.6 1382.45 1056.45 1386.6 1056.05 1390.8 1055.65 1394.35 1053.1 1397.95 1050.55 1399.65 1046.75 1400.1 1045.75 1401.2 1042.5 1402.1 1039.8 1403.05 1038.35 1404.25 1036.5 1406.6 1034.7 1408 1033.65 1410.85 1031.65 1415.25 1028.4 1419.55 1023.4 1422.65 1019.75 1426.85 1013.7 1439.95 994.65 1456.95 962.45 1479.95 918.8 1485.1 909.95 1490.85 900.05 1495.4 893.55 1501.45 884.95 1507.8 878.8 1510.55 876.15 1515.6 871.85 1521.3 867.05 1523.45 865.05 1529.25 859.7 1536.3 851.45 1540.3 846.65 1548.2 836.95 1554.5 829.3 1556.4 826.7 1560.7 820.75 1562.65 815.35 1565 808.85 1564 802.35 1562.9 795.3 1558.2 791.15
M 1521.7 1328.25
Q 1516.85 1328.25 1512.75 1330.65 1508.4 1333.2 1506.8 1337.45 1505.5 1340.85 1506.25 1344.9 1506.3888671875 1345.633984375 1506.6 1346.35 1501.6734375 1346.069140625 1498.2 1345.4 1491.45 1344.1 1482.7 1340.15 1472.7 1335.3 1467.75 1332.95 1449.4 1324.25 1437.25 1326.35 1437.45 1316.1 1432.55 1306.65 1427.7 1297.25 1419.25 1291.45 1410.8 1285.7 1400.25 1284.55 1389.7 1283.45 1380.2 1287.3 1377.25 1288.5 1370.7 1292.15 1364.7 1295.45 1361.1 1296.75 1351.8 1300.1 1337.45 1298.7 1321.2 1296.35 1313.15 1295.9 1299.8 1295.1 1289 1300.8 1276.8 1307.2 1275.75 1318.45 1275.05 1326.15 1280.25 1333.35 1285 1339.95 1292.8 1343.7 1299.05 1346.7 1308.2 1348.5 1313.55 1349.5 1324.35 1351.05 1340.1 1353.65 1364.9 1361.3 1396.2 1370.95 1405.15 1373.15 1412.25 1374.95 1426.5 1378.25 1438.85 1381.45 1447.2 1385.3 1448.9 1386.1 1460.7 1392.4 1468.85 1396.75 1474.6 1398.45 1482.95 1400.9 1498.7 1400.85 1515.95 1400.8 1523.1 1402.25 1536.25 1404.9 1553.45 1416.3 1558.2 1419.45 1567.6 1426 1576 1431.75 1582.1 1435 1603.6 1446.45 1639.75 1450.4 1642.65 1450.75 1670.25 1453.15 1688.8 1454.75 1700.55 1456.8 1720.8 1460.3 1758.8 1472.9 1797.55 1485.75 1816.95 1489.35 1827.15 1491.25 1834.65 1490 1844.3 1488.4 1848.45 1481.7 1853.1 1474.3 1848.7 1464.95 1844.6 1456.2 1835.95 1451.85 1829.35 1448.55 1818.6 1446.85 1806.45 1445.35 1800.45 1444.15 1789 1441.9 1775.9 1435.95 1767.4 1432.05 1752.75 1423.8 1736.5 1414.65 1729.6 1411.25 1716.45 1404.85 1705.3 1401.95 1693.1 1398.75 1665 1397.2 1638.55 1395.75 1624.95 1391.4 1615.65 1388.45 1604.7 1382.4 1599.5748046875 1379.5689453125 1586.25 1371.25 1586.3416015625 1368.02421875 1584.75 1364.5 1582.2 1358.8 1576.8 1355.05 1572.95 1352.4 1565.9 1349.5 1557.2 1345.9 1554.65 1344.55 1551.5 1342.85 1546.8 1339.6 1540.55 1335.25 1539.1 1334.3 1529.5 1328.25 1521.7 1328.25 Z"/>
</g>

<path id="Layer0_0_1_STROKES" stroke="#FF0000" stroke-opacity="0" stroke-width="1" stroke-linejoin="round" stroke-linecap="round" fill="none" d="
M 679.35 472.9
L 2679.35 472.9 2679.35 2472.9 679.35 2472.9 679.35 472.9 Z"/>
</defs>

<g transform="matrix( 1, 0, 0, 1, 0,0) ">
<use xlink:href="#Layer2_0_FILL"/>
</g>

<g transform="matrix( 1, 0, 0, 1, 0,0) ">
<use xlink:href="#Layer1_0_FILL"/>
</g>

<g transform="matrix( 1, 0, 0, 1, -679.35,-472.9) ">
<use xlink:href="#Layer0_0_1_STROKES"/>
</g>
</svg>
