
<svg xmlns="http://www.w3.org/2000/svg" version="1.1" xmlns:xlink="http://www.w3.org/1999/xlink" preserveAspectRatio="none" x="0px" y="0px" width="2000px" height="2000px" viewBox="0 0 2000 2000">
<defs>
<g id="Layer2_0_FILL">
<path fill="#000000" stroke="none" d="
M 1368.2 1562.25
L 1383.8 1549.2
Q 1487.6 1707.35 1676.75 1725.35 1767.05 1733.7 1834.4 1675.1 1897.6 1620.15 1894.3 1533.15 1889.95 1417.3 1812.3 1333.65 1740.6 1256.4 1635.75 1235.75 1552.9 1219.25 1474.75 1250.55 1459.9 1168.85 1410.5 1103.4 1332 999.45 1204.7 962.55 1084.1 927.45 958.45 930.4
L 917.45 934.15 919.6 914.75
Q 932.9 887.8 944.95 860.5 969.3 805.5 940.1 760.25 908.25 710.9 855.05 735.4 795.5 762.7 796 828.75 796.5 894.5 830.45 951.1 720.15 975.75 618.5 1025
L 620.65 991.9 622.5 989.5 622.8 978.95
Q 634.4 935 644.2 892.4 651.45 860.95 649.8 828.4 649.45 827.9 649.15 827.4 648.6 826.3 648.15 825.2 647.55 823.6 647.15 821.95 646.7 820.1 646.05 818.35 644.95 815.35 643.45 812.6 642.25 810.35 640.75 808.3 637.9 804.4 634.8 800.7 633.75 799.4 632.6 798.25 631.7 797.3 630.85 796.3 630.5 795.9 630.25 795.45 556.6 767.7 519.4 836.9 477.4 914.9 530.55 994.75 551.35 1026.1 580.7 1049.1 529.1 1089.7 487.65 1140.55 423.4 1219.3 425.3 1322.45 368.65 1322.6 315.5 1342.25 230.3 1373.8 182.6 1450.45 115.7 1558.15 151.7 1678.2 161.4 1710.55 185.15 1733.4
L 234.35 1765.3
Q 325.35 1787.9 414.65 1759.65 465.8 1743.55 509.2 1711.55
L 510.55 1708.55
Q 513.8 1706.95 516.55 1704.75 536.75 1688.05 553.45 1667.9 570.1 1647.9 583.4 1625.45
L 583.4 1622.75 596.9 1600.65 631.6 1618.3 609.85 1655.15 609.85 1658.4
Q 563.95 1720.65 581.95 1791.65 592.65 1833.85 631.4 1814.6 659 1800.85 666.5 1770.35
L 666.5 1784.65
Q 675.05 1816.35 704.5 1831.05 717.5 1837.55 731.6 1834.65 745.05 1831.7 754.25 1821.8 763.85 1811.6 763.65 1797.6
L 766 1794.2 769.6 1664.55
Q 922.5 1701 1078.3 1683.7 1150.85 1675.65 1218.15 1647.85 1222.9 1702.75 1241.4 1754.65 1252.5 1785.9 1280.05 1803.95 1298.95 1816.4 1319.5 1807.35 1319.85 1804 1322.65 1801.9 1323.95 1800.9 1324.4 1799.5 1326.75 1792.15 1327.6 1784.5 1329.5 1767.05 1331.75 1749.65 1337.3 1764.75 1349.15 1775.5 1376.9 1800.9 1399.35 1773.45 1434.25 1730.65 1417.75 1672.8 1401 1614.25 1368.2 1562.25
M 1303.85 1049.6
Q 1372.2 1090.75 1409 1162 1454.45 1250.05 1442.1 1346.75 1418.05 1534.65 1236.85 1608.6 1096.2 1665.95 944.25 1661.4 805.55 1657.2 678.4 1601.1 611.25 1571.4 553.25 1526.7
L 552.65 1524.55 538.15 1511.6 537.55 1509.45
Q 521.65 1495.95 508.35 1479.45 499.7 1468.75 492.55 1457.15 490.1 1453.15 487.9 1449 474.7 1430.15 467.5 1407.4 441.65 1326.1 467.8 1244.55 494.55 1160.95 559.35 1100.6
L 559.65 1098.2
Q 576.2 1081.85 595.3 1068.35 599.6 1065.35 604.55 1065.3 614.2 1065.15 623.9 1066.4
L 620.65 1052.35
Q 726.1 994.15 844.3 968.8
L 847.3 970.3 848.4 973 860.8 981.95 861.85 984.35
Q 872.75 991.3 884.65 996.45 896.2 1001.45 908.3 1004.25 916.35 1006 924.45 1007.55
L 917.45 955.3 973.6 948.75
Q 993.75 948.95 1013.8 949.75 1039.85 950.45 1065.2 956.25 1071.5 957.5 1077.75 959
L 1077.75 970.3 1080.95 973.55
Q 1091.45 975.35 1102 976.9 1210.7 993.45 1303.85 1049.6
M 1475.2 1421.2
Q 1475.3 1419.8 1475.6 1418.45 1492.2 1346.95 1479.75 1274.7 1550.55 1244.65 1626 1260.65
L 1627.5 1262.75
Q 1646.45 1267.9 1664.7 1274.95 1776.1 1317.95 1839.2 1420.95
L 1839.2 1424.15
Q 1840.5 1426.25 1841.75 1428.4 1845.75 1435.35 1848.6 1442.95 1853.2 1455.05 1854.3 1467.9
L 1856.2 1470.35 1860.75 1506.75 1862.65 1509.25 1862.95 1539.1 1865.1 1542.35
Q 1865.05 1544.35 1864.9 1546.4 1862.65 1577.7 1852.55 1607.45 1843.05 1635.55 1820.9 1655.2
L 1786.45 1493.65 1784.05 1491.05 1769.05 1488.95 1678.35 1554.75 1665.4 1400.45 1663.25 1398.8
Q 1657.8 1399.4 1652.4 1400.3 1589.35 1409.85 1537.5 1446.85
L 1536.15 1461.4 1650.3 1416.6 1663.8 1578 1680 1577.9 1770.85 1514.9 1805.75 1668.15
Q 1785.7 1685.25 1760.1 1690.45 1640.25 1715.25 1532.15 1653.55 1453.15 1608.5 1407.2 1530.05 1450.85 1489.15 1471.15 1433.35
L 1471.15 1430.1 1473.3 1426.85 1473.3 1423.65 1475.2 1421.2
M 923.4 759.85
L 928.25 762.55
Q 931.45 767.95 933.25 773.8 946.55 817.05 915.15 856.95
L 908.3 859.15
Q 896.5 851.85 895.65 837.7 895.15 829.5 895.75 821.35 896.05 817.55 896.4 813.8
L 898.3 811.4
Q 899.85 790.4 911.65 772.65 913.85 769.35 917 767.1 919.55 765.2 922.2 763.45
L 923.4 759.85
M 909.7 749.7
Q 908.15 750.75 906.7 751.9 892.65 762.45 888.45 780.05 884.55 796.2 882.35 812.75 875.7 825.35 877.2 840.5 878.5 853.8 884.4 865.95 885 867.15 886.05 868.15
L 887.85 871.55 908.8 876.4
Q 905.55 886.9 903.6 897.7 902.35 904.75 902.35 912.05
L 900.3 914.55 900.15 937.9 853.15 946.3 849.45 946.6
Q 832.2 926.85 824.8 901.6 784.4 763.65 909.7 749.7
M 634.4 833.6
L 634.65 839.2 636.75 841.7
Q 636.95 843.35 636.9 845.05 636.15 882 620.65 916.35
L 612 922.75 600.15 915.3
Q 599.4 912.95 598.85 910.55 593.2 885.7 595.3 860.25
L 597.45 857
Q 596.6 842.15 600.9 827.7 604.55 815.6 614.6 807.7
L 632.5 827.85 632.5 831.1 634.4 833.6
M 593.25 807.25
Q 591.6 810.45 590.15 813.7 589.65 814.8 589.35 815.95 588.5 819.05 587.9 822.15 587.7 823.15 587.65 824.2 587.6 825.2 587.5 826.25 586.55 835.95 585.55 845.65
L 583.5 848.2 587.7 926.6 599.6 935.8 614.25 936.8 604.2 1034.4 595.7 1038.65
Q 575.05 1025.4 559.25 1006.55 479.4 911.35 547 821.2 565.45 796.6 596.8 801.05 594.95 804.1 593.25 807.25
M 162.2 1561
Q 163.3 1548.8 166.5 1536.8 173.85 1509.15 186.2 1484.1 265 1344.65 425.3 1338.65
L 427.45 1370.75 429.35 1373.25
Q 429.4 1376.3 429.9 1379.3 451.65 1510.35 566.15 1581.2
L 568.85 1583.35 562.9 1597.95 560.75 1599.55
Q 534.1 1659.5 479.95 1698.25 364.5 1780.85 236.4 1736.65
L 235.9 1604.5
Q 312.85 1627 387.5 1651.9 388.9 1647.4 386.95 1643.15 356.95 1577.65 338.7 1514.45 395.7 1545.9 460.85 1546.8
L 455.2 1537.5
Q 390.3 1507.25 319.5 1496.5 323.75 1569.85 365.3 1632.15 298.25 1600.05 224.1 1596.15
L 223.45 1729.1
Q 197.8 1712.05 181.4 1685.6 153.95 1641.5 156 1589.3
L 157.9 1586.9 160.3 1563.4 162.2 1561
M 868.9 966
L 867 964 899.75 958.05 901.65 983.95 868.9 966
M 1276.35 1620.15
L 1279.9 1619.1 1302.25 1711.25
Q 1310.25 1738.6 1309.8 1767.6 1309.6 1781.2 1301.25 1791.35 1299.55 1793.45 1296.9 1794.6 1271.7 1781 1259.45 1755.05 1234.25 1701.7 1226.75 1643.15
L 1276.35 1620.15
M 705.35 1647.6
L 711.85 1650.85 750.2 1660.25
Q 750.85 1699.65 747.65 1739 738.2 1856.25 682.7 1772.8
L 680.9 1770.35
Q 680.85 1767.5 681 1764.65 684.15 1704.1 705.35 1647.6
M 636.8 1787.85
Q 631.25 1800.8 625.65 1794.9 557.2 1723.2 646.25 1625.45
L 677.4 1637.55
Q 667.65 1715.5 636.8 1787.85
M 1376.15 1772.8
Q 1369.95 1768.45 1367.35 1762.55 1332.9 1684.7 1302.05 1605.25
L 1346.5 1577.45
Q 1358.4 1591.1 1368.2 1607.85 1412.2 1683.2 1392.85 1762.8 1392.2 1765.4 1391.25 1767.95
L 1376.15 1772.8
M 640.6 1147.85
L 641.15 1155.95 699 1196
Q 682.75 1211.25 671.05 1230.05 659.25 1249 657.15 1271.2
L 667.65 1268.75 715.65 1210.15
Q 735.85 1231.1 753.25 1254.3 769.25 1275.7 789.65 1274.5 785.05 1264 777.85 1254.65 754.7 1224.6 724.65 1201.25
L 785.5 1142.75 785.75 1137.1
Q 773.1 1140.4 761.6 1146.4 731 1162.35 707.4 1187.45
L 640.6 1147.85 Z"/>

<path fill="#FF6633" stroke="none" d="
M 1367.35 1762.55
Q 1369.95 1768.45 1376.15 1772.8
L 1391.25 1767.95
Q 1392.2 1765.4 1392.85 1762.8 1412.2 1683.2 1368.2 1607.85 1358.4 1591.1 1346.5 1577.45
L 1302.05 1605.25
Q 1332.9 1684.7 1367.35 1762.55
M 625.65 1794.9
Q 631.25 1800.8 636.8 1787.85 667.65 1715.5 677.4 1637.55
L 646.25 1625.45
Q 557.2 1723.2 625.65 1794.9
M 711.85 1650.85
L 705.35 1647.6
Q 684.15 1704.1 681 1764.65 680.85 1767.5 680.9 1770.35
L 682.7 1772.8
Q 738.2 1856.25 747.65 1739 750.85 1699.65 750.2 1660.25
L 711.85 1650.85
M 1279.9 1619.1
L 1276.35 1620.15 1226.75 1643.15
Q 1234.25 1701.7 1259.45 1755.05 1271.7 1781 1296.9 1794.6 1299.55 1793.45 1301.25 1791.35 1309.6 1781.2 1309.8 1767.6 1310.25 1738.6 1302.25 1711.25
L 1279.9 1619.1
M 166.5 1536.8
Q 163.3 1548.8 162.2 1561
L 160.3 1563.4 157.9 1586.9 156 1589.3
Q 153.95 1641.5 181.4 1685.6 197.8 1712.05 223.45 1729.1
L 224.1 1596.15
Q 298.25 1600.05 365.3 1632.15 323.75 1569.85 319.5 1496.5 390.3 1507.25 455.2 1537.5
L 460.85 1546.8
Q 395.7 1545.9 338.7 1514.45 356.95 1577.65 386.95 1643.15 388.9 1647.4 387.5 1651.9 312.85 1627 235.9 1604.5
L 236.4 1736.65
Q 364.5 1780.85 479.95 1698.25 534.1 1659.5 560.75 1599.55
L 562.9 1597.95 568.85 1583.35 566.15 1581.2
Q 451.65 1510.35 429.9 1379.3 429.4 1376.3 429.35 1373.25
L 427.45 1370.75 425.3 1338.65
Q 265 1344.65 186.2 1484.1 173.85 1509.15 166.5 1536.8
M 1475.6 1418.45
Q 1475.3 1419.8 1475.2 1421.2
L 1473.3 1423.65 1473.3 1426.85 1471.15 1430.1 1471.15 1433.35
Q 1450.85 1489.15 1407.2 1530.05 1453.15 1608.5 1532.15 1653.55 1640.25 1715.25 1760.1 1690.45 1785.7 1685.25 1805.75 1668.15
L 1770.85 1514.9 1680 1577.9 1663.8 1578 1650.3 1416.6 1536.15 1461.4 1537.5 1446.85
Q 1589.35 1409.85 1652.4 1400.3 1657.8 1399.4 1663.25 1398.8
L 1665.4 1400.45 1678.35 1554.75 1769.05 1488.95 1784.05 1491.05 1786.45 1493.65 1820.9 1655.2
Q 1843.05 1635.55 1852.55 1607.45 1862.65 1577.7 1864.9 1546.4 1865.05 1544.35 1865.1 1542.35
L 1862.95 1539.1 1862.65 1509.25 1860.75 1506.75 1856.2 1470.35 1854.3 1467.9
Q 1853.2 1455.05 1848.6 1442.95 1845.75 1435.35 1841.75 1428.4 1840.5 1426.25 1839.2 1424.15
L 1839.2 1420.95
Q 1776.1 1317.95 1664.7 1274.95 1646.45 1267.9 1627.5 1262.75
L 1626 1260.65
Q 1550.55 1244.65 1479.75 1274.7 1492.2 1346.95 1475.6 1418.45
M 1409 1162
Q 1372.2 1090.75 1303.85 1049.6 1210.7 993.45 1102 976.9 1091.45 975.35 1080.95 973.55
L 1077.75 970.3 1077.75 959
Q 1071.5 957.5 1065.2 956.25 1039.85 950.45 1013.8 949.75 993.75 948.95 973.6 948.75
L 917.45 955.3 924.45 1007.55
Q 916.35 1006 908.3 1004.25 896.2 1001.45 884.65 996.45 872.75 991.3 861.85 984.35
L 860.8 981.95 848.4 973 847.3 970.3 844.3 968.8
Q 726.1 994.15 620.65 1052.35
L 623.9 1066.4
Q 614.2 1065.15 604.55 1065.3 599.6 1065.35 595.3 1068.35 576.2 1081.85 559.65 1098.2
L 559.35 1100.6
Q 494.55 1160.95 467.8 1244.55 441.65 1326.1 467.5 1407.4 474.7 1430.15 487.9 1449 490.1 1453.15 492.55 1457.15 499.7 1468.75 508.35 1479.45 521.65 1495.95 537.55 1509.45
L 538.15 1511.6 552.65 1524.55 553.25 1526.7
Q 611.25 1571.4 678.4 1601.1 805.55 1657.2 944.25 1661.4 1096.2 1665.95 1236.85 1608.6 1418.05 1534.65 1442.1 1346.75 1454.45 1250.05 1409 1162
M 641.15 1155.95
L 640.6 1147.85 707.4 1187.45
Q 731 1162.35 761.6 1146.4 773.1 1140.4 785.75 1137.1
L 785.5 1142.75 724.65 1201.25
Q 754.7 1224.6 777.85 1254.65 785.05 1264 789.65 1274.5 769.25 1275.7 753.25 1254.3 735.85 1231.1 715.65 1210.15
L 667.65 1268.75 657.15 1271.2
Q 659.25 1249 671.05 1230.05 682.75 1211.25 699 1196
L 641.15 1155.95 Z"/>

<path fill="#050505" stroke="none" d="
M 867 964
L 868.9 966 901.65 983.95 899.75 958.05 867 964
M 590.15 813.7
Q 591.6 810.45 593.25 807.25 594.95 804.1 596.8 801.05 565.45 796.6 547 821.2 479.4 911.35 559.25 1006.55 575.05 1025.4 595.7 1038.65
L 604.2 1034.4 614.25 936.8 599.6 935.8 587.7 926.6 583.5 848.2 585.55 845.65
Q 586.55 835.95 587.5 826.25 587.6 825.2 587.65 824.2 587.7 823.15 587.9 822.15 588.5 819.05 589.35 815.95 589.65 814.8 590.15 813.7
M 906.7 751.9
Q 908.15 750.75 909.7 749.7 784.4 763.65 824.8 901.6 832.2 926.85 849.45 946.6
L 853.15 946.3 900.15 937.9 900.3 914.55 902.35 912.05
Q 902.35 904.75 903.6 897.7 905.55 886.9 908.8 876.4
L 887.85 871.55 886.05 868.15
Q 885 867.15 884.4 865.95 878.5 853.8 877.2 840.5 875.7 825.35 882.35 812.75 884.55 796.2 888.45 780.05 892.65 762.45 906.7 751.9 Z"/>

<path fill="#FFFFFF" stroke="none" d="
M 634.65 839.2
L 634.4 833.6 632.5 831.1 632.5 827.85 614.6 807.7
Q 604.55 815.6 600.9 827.7 596.6 842.15 597.45 857
L 595.3 860.25
Q 593.2 885.7 598.85 910.55 599.4 912.95 600.15 915.3
L 612 922.75 620.65 916.35
Q 636.15 882 636.9 845.05 636.95 843.35 636.75 841.7
L 634.65 839.2
M 928.25 762.55
L 923.4 759.85 922.2 763.45
Q 919.55 765.2 917 767.1 913.85 769.35 911.65 772.65 899.85 790.4 898.3 811.4
L 896.4 813.8
Q 896.05 817.55 895.75 821.35 895.15 829.5 895.65 837.7 896.5 851.85 908.3 859.15
L 915.15 856.95
Q 946.55 817.05 933.25 773.8 931.45 767.95 928.25 762.55 Z"/>
</g>

<g id="Layer1_0_FILL">
<path fill="#000000" fill-opacity="0.2" stroke="none" d="
M 1458.25 1261.5
Q 1458.3240234375 1260.4681640625 1458.35 1259.45 1458.5 1252.45 1457.75 1245.55
L 1445.95 1245.05
Q 1444.3 1244.95 1443.6 1245.5 1442.9 1246.1 1442.95 1247.3 1442.95 1247.8 1443.25 1249.5 1443.55 1251.5 1442.9 1254.25 1442.55 1255.8 1441.65 1258.95 1441.2 1261 1440.95 1263.9 1440.85 1265.55 1440.65 1268.9 1440.2 1274.2 1438.2 1284 1436.05 1294.2 1435.55 1299.05 1435.51328125 1299.453125 1435.4 1300.55 1424.0595703125 1327.96796875 1405.45 1355.45 1387.75 1381.45 1362.45 1409 1323.6 1451.25 1283.95 1478.95 1242.15 1508.15 1190.85 1527.65 1143.15 1545.8 1088.95 1554.9 1039.95 1563.15 984.1 1564.4 935.8 1565.45 878.65 1561.25 765.3 1552.95 676.5 1527.3 570.75 1496.75 493.95 1440.3 485.45 1434.05 480.15 1431.7 471.9 1428 465.1 1429.95 463.15 1433.3 464.4 1437.75 465.5 1441.6 468.5 1445.15 470.3 1447.25 474.25 1451.2 477.55 1454.85 478.85 1458 480.15 1461.1 480.4 1466.3 480.75 1473.95 480.9 1474.9 481.95 1482 486.85 1489.2 490.5 1494.6 497.25 1501.25 511 1514.95 528.75 1528.3 543.339453125 1539.29140625 562.55 1551.5 555.747265625 1551.2287109375 551.65 1552.45 547.6 1553.65 543.25 1556.7 540.8 1558.35 535.75 1562.65 494.5 1597.5 443.1 1622 427.1474609375 1629.594921875 410.55 1636.05 409.3251953125 1626.1328125 406.85 1616.25 399.9 1588.5 384.2 1565.25 423.4 1573.75 463.05 1570.35
L 463.05 1542.65
Q 442.7 1542.2 432.1 1540.6 415.1 1538 403.35 1530.9 399 1528.3 392.2 1522.9 384.3 1516.65 381.3 1514.6 368.4 1505.85 352.7 1502.75 337 1499.6 321.7 1502.75 319.05 1512.25 319.8 1523 320.5 1532.95 324.05 1543.1 327.15 1552.05 332.65 1561.7 337.05 1569.4 343.8 1578.95 346.75 1583.1 352.7 1591.35 357.8 1598.6 360.95 1604.1 365.15 1611.35 369.25 1621.05 371.6 1626.6 376.15 1638.7 359.75 1638.3 344.4 1632.9 338.75 1630.95 330.45 1627.15 317.85 1621.45 316.7 1620.95 308.2 1617.3 297.3 1613.65 290.5 1611.3 277.55 1607.35 262.8 1602.85 254.8 1601.45 241.95 1599.25 231.8 1601.4 230.3 1615.9 229.85 1633.95 229.5994140625 1643.4326171875 229.6 1659.9 220.403125 1657.1986328125 212 1653.3 204.95 1650.05 196.35 1644.9 192.95 1642.85 181.3 1635.45 172 1629.5 166.25 1626.85 157.55 1622.85 149.85 1622.55 151.9 1629.15 152.75 1632.5 154.2 1638.05 154.7 1642.65 154.95 1644.95 155.35 1652.75 155.65 1659.05 156.45 1662.8 157.65 1668.6 161.1 1675.2 163.25 1679.35 168 1686.65 183.35 1709.9 196.1 1723.45 213.5 1741.9 232.6 1750.35 245.9 1756.2 263.8 1758.75 275.25 1760.4 296.35 1761.3 338.75 1763.15 363.15 1760.65 399.8 1756.85 425.7 1742.35
L 425.75 1734.8
Q 440.75 1731.6 459.6 1719 480.3 1703.95 491.15 1697.45 494.35 1691.75 500.2 1685.95 503.45 1682.75 511.3 1676.1 528.05 1661.95 538.8 1651 552.95 1636.55 562.25 1622.35 573 1605.95 578 1588.65 581.755078125 1575.746484375 581.95 1563.4 666.7216796875 1613.623828125 762.45 1640.7
L 738.6 1637.5
Q 711.05 1633.8 697.6 1631.1 676.4 1626.3 665.8 1624.1 647.1 1620.2 633.75 1619.8 632.8 1623.6 633.35 1627.6 633.95 1631.55 635.95 1634.95 638 1638.35 641.2 1640.75 644.4 1643.2 648.2 1644.2
L 648.15 1645.95 653.55 1647.6 653.55 1649.2
Q 663.9 1653.75 674.45 1657.3
L 692.55 1663.05
Q 697.95 1664.7 700.5 1665.3 704.95 1666.4 708.6 1666.55 708.6 1667.4 709.15 1668.1
L 723.15 1669.2
Q 722.9 1669.65 723.45 1670.05 723.95 1670.35 724.6 1670.45
L 734.85 1671.2
Q 735.45 1671.25 735.9 1671.6 736.45 1672 736.15 1672.4
L 768.5 1672.4 768.5 1643.25
Q 767.7 1643.2 767.05 1642.65 766.6525390625 1642.283203125 766.45 1641.85 790.558203125 1648.525 815.35 1653.75 952 1682.5 1087.3 1662.15 1163.65 1650.7 1228.05 1624.65 1267.9748046875 1608.5119140625 1302.1 1587.2 1296.4953125 1592.654296875 1290.95 1598.25 1284.1 1605.1 1281.4 1607.4 1279.7 1608.85 1278.25 1609.9 1275.2 1612.2 1267.9 1616.8 1260.7 1621.25 1257.05 1623.35 1250.95 1626.9 1245.85 1629.25 1235.2 1634.2 1223.35 1636.8 1220.85 1637.3 1220.15 1638.4 1219.65 1639.25 1219.65 1640.9
L 1219.4 1650.95
Q 1219.4 1652.65 1219.55 1653.4 1219.75 1654.75 1220.5 1655.55 1221.55 1656.7 1224.6 1657 1247.9 1659.05 1269.55 1651.2 1280.5 1647.3 1292.45 1640.05
L 1316 1625
Q 1322.7 1620.8 1324.25 1619.75
L 1328.2 1616.95
Q 1331.45 1614.5 1339.9 1607.15
L 1354.55 1594.15 1354.55 1566.6 1332.5 1566.35
Q 1342.6029296875 1558.780078125 1352.1 1550.65 1374.14140625 1531.7740234375 1392.35 1510.35 1391.821875 1518.5837890625 1394.35 1526.8 1397.3 1536.5 1403.9 1543.85 1407.2 1547.5 1414.55 1554.4 1420.55 1560.75 1421.8 1566.7 1422.45 1569.9 1421.95 1576.05 1421.45 1582.5 1421.95 1585.45 1422.95 1591.65 1428.15 1597.55 1431.65 1601.55 1438.8 1606.95 1510.5 1660.8 1582.85 1686.25 1622.9 1700.35 1663 1705.65 1705.25 1711.3 1745.25 1706.85 1758.75 1705.4 1769.15 1702.9 1781.8 1699.95 1791.95 1695.05 1801.95 1690.2 1811.95 1682.4 1820.3 1675.8 1829.6 1666.4 1851 1644.75 1867.45 1619.05 1894.25 1577.15 1886.7 1545.65 1884.35 1545.8 1870 1545.15 1859.9 1544.75 1853.65 1546.55 1848.5 1548.1 1842.45 1552 1835.6 1556.85 1832.15 1559.25 1812.8869140625 1572.898046875 1788.75 1581.1 1787.2482421875 1575.9134765625 1787.1 1575.35 1784.25 1565.05 1781.85 1552.05 1780.3 1543.8 1777.9 1528.45
L 1774.25 1505.55
Q 1771.15 1506.15 1763.5 1505.35 1756.6 1504.65 1752.95 1505.9 1750.7 1506.7 1748.25 1508.55 1746.9 1509.55 1744.1 1512.1 1710.65 1542.2 1670.5 1562.25 1668.6 1549.6 1667.5 1533.6 1666.85 1524.05 1666.05 1504.8
L 1661.9 1403.3
Q 1652.5 1400.3 1640.65 1404.55 1633.55 1407.1 1620.45 1414.85 1604.05 1424.55 1582.8 1435.15 1569.8 1441.6 1544.15 1453.6
L 1544.95 1465.75
Q 1549.25 1466.45 1554.5 1465.15 1557.9 1464.35 1563.8 1462 1602.3 1446.75 1642.25 1429.8 1643.5 1473.55 1644.2 1492.6 1645.4 1527.7 1647 1555.4 1648.1 1573.8 1649.55 1582.95 1649.9 1584.95 1650.3 1586.05 1650.6431640625 1586.9935546875 1651.1 1587.7 1629.9384765625 1584.4396484375 1598.8 1578.05 1562.25 1570.5 1536.45 1564.15 1502.85 1555.85 1475.05 1546.7 1462.4 1542.55 1454.2 1538.95 1443.1 1534.05 1435 1528.1 1421.85 1517.2 1414.9 1512.75 1404.3421875 1506.0314453125 1395.3 1506.9 1422.4021484375 1474.240234375 1440.85 1435.8 1474.2 1366.35 1470.25 1295.65
L 1460.7 1295.5
Q 1462.0501953125 1289.6234375 1462.7 1285.5 1464.8 1272.3 1463.25 1261.7
L 1458.25 1261.5
M 331.15 1659.2
Q 331.5087890625 1659.294140625 331.85 1659.4 299.9638671875 1666.0404296875 274.25 1665.95 263.5744140625 1665.9197265625 253.65 1664.75 253.5236328125 1654.2650390625 253.3 1639.1 253.3 1633.9 255.7 1632.65 257.3 1631.85 260.45 1632.75 271.6 1635.9 282.65 1640.5 286.25 1642 296.65 1646.75 305.4 1650.75 310.75 1652.8 319.65 1656.2 331.15 1659.2
M 1719.25 1566.9
L 1756.15 1541.6
Q 1759.25625 1564.7865234375 1764.8 1587.65 1742.71875 1592.301171875 1718.2 1592.8 1696.0171875 1593.20859375 1670 1590.25 1679.26015625 1589.0083984375 1689.3 1584.6 1700.9 1579.5 1719.25 1566.9
M 675.15 1733.85
Q 670.95 1732.4 667.5 1734.15 666.05 1742.55 668.4 1752.85 670 1759.75 674.4 1771.05 680.3 1786.15 685.75 1794.45 693.65 1806.45 704.15 1811.1 711.996875 1814.5875 720.6 1813.7 727.611328125 1814.1298828125 734.75 1813.5 738.05 1813.2 739.45 1812.2 739.9 1811.9 741.6 1810 742.9 1808.6 744.05 1808.35 747.9205078125 1800.726171875 747.75 1792.4 755.466015625 1769.6869140625 756.1 1745.55 756.15 1742.85 755.9 1741.25 755.5 1738.85 754.35 1737.35 752.1 1734.45 747.85 1734.8 743.8 1735.15 741.05 1738 738.75 1740.4 737.3 1744.35 736.45 1746.65 735.25 1751.65 731.6 1767.1 726.1 1781.95 724.65 1785.85 723.1 1788.1 720.9 1791.15 718 1791.95 711.75 1793.6 704.95 1784.9 693.7 1770.55 688.05 1753.25 685.85 1746.4 685.5 1745.55 683.85 1741.25 681.7 1738.55 679.1 1735.2 675.15 1733.85
M 663.2 1764.4
Q 668.15 1751.45 664.7 1741
L 647.95 1740.25
Q 628.15 1768.55 607.85 1793.95 599.45 1786.4 594.7 1775.85 589.95 1765.2 589.95 1753.95 589.95 1752.1 589.8 1751.2 589.6 1749.65 588.9 1748.7 587 1746.15 581.1 1746.9 572.75 1757.4 578.35 1777.6 581.5 1789 586.95 1799.8 589.75 1805.25 592.55 1808.55 596.25 1812.9 600.6 1814.6 602.95 1815.55 606.15 1815.9 608 1816.1 611.85 1816.2 616.75 1816.3 619.4 1816.1 623.6 1815.7 626.65 1814.45 630.95 1812.65 634.85 1808.35 637.4 1805.65 641.2 1800
L 651.35 1785.05
Q 655.8 1778.45 657.9 1775.05 661.3 1769.35 663.2 1764.4
M 1257.65 1754.7
Q 1256.7 1755.35 1256.8 1757.15 1256.9 1762.95 1259.9 1769.65 1261.75 1773.85 1266.25 1781.2 1269.35 1786.25 1271.3 1788.7 1274.45 1792.65 1277.85 1794.7 1280.95 1796.6 1284.75 1797.25 1287.05 1797.6 1290.65 1797.6
L 1305.5 1797.65
Q 1307.2 1797.65 1308 1797.35 1309.05 1797 1310.65 1795.4 1315.1 1790.95 1317.1 1788.25 1320.3 1784 1321.2 1779.8
L 1323.8 1778.75 1323.9 1773.9
Q 1325.65 1772.45 1326.45 1771.65 1327.8 1770.25 1328.45 1768.9 1329.1 1767.6 1329.3 1765.8 1329.45 1764.9 1329.55 1762.55
L 1330.8 1723.7
Q 1332.1 1732.25 1336.35 1739.55 1340.4 1746.6 1348.75 1754.6 1354.6 1760.3 1359.65 1763.25 1362 1764.65 1362.6 1765.5 1363.6 1766.9 1363.5 1769.75 1363.4 1771.65 1363.05 1775.6 1363.05 1778.85 1364.65 1780.65 1366 1782.15 1368.5 1782.65 1370.2 1783 1373.15 1782.95
L 1398.7 1782.45
Q 1401.6 1778.45 1402.8 1776.2 1404.7 1772.5 1404.8 1769.2 1404.8 1768.85 1404.75 1766.5 1404.75 1764.9 1405 1763.9 1405.2 1763.1 1405.8 1761.85 1406.45 1760.4 1406.65 1759.8 1407.15 1758.1 1406.9 1754.65 1406.6 1751.1 1407 1749.5 1407.2 1748.6 1407.85 1747.1 1408.55 1745.4 1408.75 1744.75 1409.35 1742.6 1409.1 1738.1 1408.85 1733.6 1409.5 1731.45 1409.7 1730.8 1410.25 1729.45 1410.8 1728.15 1411 1727.45 1411.5 1725.55 1411.25 1721.4 1410.95 1717.4 1411.6 1715.45 1412.4 1713.7 1412.7 1712.8 1413.4 1710.8 1413.4 1707
L 1414.05 1667.55 1392.5 1667
Q 1390.35 1679.1 1390.7 1691.35 1390.85 1695.1 1390.85 1696.35 1390.85 1699.15 1390.3 1701.25 1389.9 1702.95 1388.75 1706.25 1387.95 1709.2 1388.6 1711.25
L 1386.55 1712.35
Q 1386.2 1715.5 1384.95 1718.6 1383.65 1721.75 1380 1726.95
L 1371.55 1739.25
Q 1370.3 1741.15 1369.05 1741.15 1368.3 1741.15 1367.15 1740.3 1361.55 1736.35 1358.8 1733.7 1355.65 1730.75 1351.9 1725.55 1345.75 1717 1340.95 1707.55
L 1331.35 1706.9 1331.35 1706.55
Q 1331.55 1702.9 1330.3 1701.3 1329.35 1700.15 1327.55 1699.65 1326.3 1699.35 1324.15 1699.3
L 1306.05 1698.85
Q 1305.85 1706.75 1305.85 1710.1 1305.9 1716.4 1306.5 1721.35 1307.15 1726.35 1307.05 1728.4 1306.95 1730.7 1305.75 1735
L 1303.1 1744.8
Q 1302.5 1747.45 1301.3 1752.7 1300.2 1757.25 1298.85 1760.35 1296.1 1766.65 1290.9 1771.25 1289.65 1772.35 1289.15 1772.95 1288.3 1774 1288.2 1775 1285.45 1775.3 1282.35 1773.8 1280.35 1772.8 1277.15 1770.4 1270.75 1761.9 1267.45 1757.7 1265.55 1755.4 1264.25 1755 1263.5 1754.75 1262.25 1754.75 1260.7 1754.75 1260.2 1754.7 1259.3 1754.55 1258.85 1754.5 1258.1 1754.4 1257.65 1754.7 Z"/>
</g>
</defs>

<g transform="matrix( 1, 0, 0, 1, 0,0) ">
<use xlink:href="#Layer2_0_FILL"/>
</g>

<g transform="matrix( 1, 0, 0, 1, 0,0) ">
<use xlink:href="#Layer1_0_FILL"/>
</g>
</svg>
