
<svg xmlns="http://www.w3.org/2000/svg" version="1.1" xmlns:xlink="http://www.w3.org/1999/xlink" preserveAspectRatio="none" x="0px" y="0px" width="2000px" height="2000px" viewBox="0 0 2000 2000">
<defs>
<g id="S_mbolo_3_0_Layer0_0_FILL">
<path fill="#000000" stroke="none" d="
M 1429.65 543.5
Q 1428.55 525.2 1425.3 507.15 1401.55 374.55 1281.1 312.15 1172.05 255.7 1051.1 230.05 1062.95 218.25 1070.8 203.4 1130.5 90.15 1032.55 17.35 989.9 -14.3 947 11.75 922.2 26.75 931.8 53.6 945.05 90.5 961.15 126.7 979.6 168.15 961 210.25 848.25 189.75 733.7 195.95 697.3 173 715.85 133.25 747.25 66.05 695 19.1 676.95 2.85 654.15 10.45 562.35 40.75 583.95 144.85 593.1 188.95 629.5 216.2 586.65 228.3 546.85 247.85 450.4 295.25 381.5 377.65 370.65 390.9 360.7 405.05 301.05 490.1 306.55 594.2 299.2 592.35 291.8 591.05 210.95 575.95 137.6 614.65 -19.55 697.65 2.8 871.25 18.3 991.9 133.7 1025.6 242.35 1057.3 334.85 991.6 401.2 944.4 439.1 871.95
L 461.5 888.8
Q 433.35 915.45 410.1 945.6 355.7 1016.3 399.3 1082.75 412.65 1103.1 435.05 1097.5 470.85 1088.3 491.85 1054.15 489.4 1074.9 502.05 1090.5 542.25 1140.15 591.5 1088.55 639.6 1038.15 654.25 968 789.45 992.35 927.05 989.9 1035.75 987.95 1136.15 947.95 1132.65 1035.75 1191.7 1094.8 1218.7 1121.85 1248.6 1104.05 1274.8 1088.35 1275.25 1056.55 1283.75 1068.6 1294.55 1078.7 1304.65 1088.1 1317.55 1088.85 1392.75 1092.7 1375 1012.95 1356.3 928.85 1308 858.15
L 1317.7 851.15
Q 1359.5 904.6 1413.85 945.8 1522.6 1028.3 1659.75 1025.3 1695.35 1024.5 1723.8 1004.75 1864.3 907.2 1793.4 749.8 1733.25 616.2 1599.9 557.1 1516.75 520.2 1429.65 543.5
M 1566.55 713.35
Q 1561.9 693.55 1545.85 705.15 1512.35 729.6 1480.45 756.55 1437.5 792.9 1468.6 813.9
L 1550.4 731.1
Q 1568.7 817.7 1582.05 904.75 1583.15 912 1587.55 910.55 1641.25 891.85 1692.35 850.7 1717.5 905.9 1727.25 965.35 1659.65 1006.4 1576.65 985.15 1434.95 948.65 1346 827.85 1348.95 825.15 1351.8 822.35 1424.35 750.6 1426.95 647.15
L 1430.3 559.55
Q 1448.3 554.3 1467.1 552.75 1565.6 545.45 1642.75 608.5 1726.6 677.05 1768.6 777.05 1803.8 860.85 1753.2 935.95 1738 880.25 1716.8 826.75 1713.6 818.7 1706.05 819 1650.3 822.9 1603.95 871.2 1585.1 792.15 1566.55 713.35
M 1386.15 518.55
Q 1400.15 627.35 1367.1 729.95 1344.15 777.45 1302.45 810.4 1193.1 896.85 1056.9 929.1 1165.75 876.65 1210.75 766.8 1222.2 738.9 1217.1 709.45 1187.85 541.45 1015.05 533 864.55 524.9 752.8 620 703.95 661.5 704.15 725.2 704.45 809.2 783.95 833.1 875.9 860.75 947.5 795.05 977.1 767.85 983.65 730.5 986.7 713 971.75 724.3 947.75 742.55 926.4 764.9 893 799.9 845.95 809.95 783.65 823.1 749.65 770.95 718.5 723.2 748.3 673.5 789.25 605.15 867.75 582.95 967.95 554.75 1069.75 574 1104.25 580.45 1131.15 602.6 1158.35 625.05 1175.55 655.8 1205.45 709.3 1183.85 766.95 1150.75 855.2 1067.8 902.85 1019.7 930.5 967.45 945.9 873.85 957.6 779.6 952.35 670.8 945.6 568.2 909.25 464.65 872.45 401.25 783.75 338.2 695.55 336.75 586.2 335.25 471.6 412.5 386.05 485.15 305.65 585.55 264.85 687.5 223.4 797.9 225.3 905.65 227.15 1011 250.05 1114.05 272.35 1212 310.65 1265.1 331.3 1308.05 368.3 1374.15 425.3 1386.15 518.55
M 1342.75 1044.1
Q 1343.45 1051.95 1338.65 1051.3 1269.75 1041.3 1256.25 958.65
L 1233.15 902.3 1275.1 879.25
Q 1334.55 953.2 1342.75 1044.1
M 999.1 27.9
Q 1028.45 36.5 1043.7 62 1097.6 152.35 1019.25 221.6
L 976.9 213.3
Q 1008.1 159.7 980.5 103.7 970.6 83.7 962.1 63.4 940.15 10.8 999.1 27.9
M 705.35 200.4
L 667.55 205.75
Q 582.9 161.6 615.25 68.8 621.7 50.35 638.7 43.6 709.3 15.95 704.7 94.8 671.3 151.1 705.35 200.4
M 306.55 611
Q 307.4 617.45 308.1 624 319.25 729.75 382.45 814.6
L 416.2 851.85
Q 375.25 932.1 298.5 978.1 218.25 1026.2 127.9 1001.7 83.25 989.75 60.35 952.25 61 951.1 61.45 949.85 67 935.2 70.35 919.8 74.25 901.75 75.7 883.25 124.2 915.45 175.9 941.35 189.4 948.05 190.8 936.55 200.15 858.65 208.05 779.55 265.2 816.2 327.95 830.55 334.8 832.05 336.6 824.85 334 818.35 328.1 814.3 272.4 775.7 207.7 752.25 199.75 749.3 197.3 754.95 163.85 831.9 174.6 919.3 126.6 895.95 81.95 866.6 77.05 863.35 73.2 866.45 44.35 890 50.35 939.6 5.3 858.1 34.6 770.5 67.3 672.85 162.2 628.7 231.15 596.6 306.55 611
M 604.1 955.6
L 628.95 962.3
Q 618.7 1059.3 536.95 1091 528.65 1094.3 526.45 1087.05 503 1009.55 564.6 942.5
L 604.1 955.6
M 464.45 924.05
L 482.65 902.65 534.65 930.6
Q 507.55 987.5 468.05 1036.55 452.2 1056.2 431.15 1067.8 420.55 1073.7 417.4 1060.85 398.75 984.9 464.45 924.05
M 1159.2 966.6
L 1153.4 940.75 1200.3 918.9
Q 1243.95 987.6 1240.4 1064.85 1239.95 1074.9 1234.5 1072.95 1166.8 1049 1159.2 966.6 Z"/>

<path fill="#FF6633" stroke="none" d="
M 1153.4 940.75
L 1159.2 966.6
Q 1166.8 1049 1234.5 1072.95 1239.95 1074.9 1240.4 1064.85 1243.95 987.6 1200.3 918.9
L 1153.4 940.75
M 482.65 902.65
L 464.45 924.05
Q 398.75 984.9 417.4 1060.85 420.55 1073.7 431.15 1067.8 452.2 1056.2 468.05 1036.55 507.55 987.5 534.65 930.6
L 482.65 902.65
M 628.95 962.3
L 604.1 955.6 564.6 942.5
Q 503 1009.55 526.45 1087.05 528.65 1094.3 536.95 1091 618.7 1059.3 628.95 962.3
M 308.1 624
Q 307.4 617.45 306.55 611 231.15 596.6 162.2 628.7 67.3 672.85 34.6 770.5 5.3 858.1 50.35 939.6 44.35 890 73.2 866.45 77.05 863.35 81.95 866.6 126.6 895.95 174.6 919.3 163.85 831.9 197.3 754.95 199.75 749.3 207.7 752.25 272.4 775.7 328.1 814.3 334 818.35 336.6 824.85 334.8 832.05 327.95 830.55 265.2 816.2 208.05 779.55 200.15 858.65 190.8 936.55 189.4 948.05 175.9 941.35 124.2 915.45 75.7 883.25 74.25 901.75 70.35 919.8 67 935.2 61.45 949.85 61 951.1 60.35 952.25 83.25 989.75 127.9 1001.7 218.25 1026.2 298.5 978.1 375.25 932.1 416.2 851.85
L 382.45 814.6
Q 319.25 729.75 308.1 624
M 1338.65 1051.3
Q 1343.45 1051.95 1342.75 1044.1 1334.55 953.2 1275.1 879.25
L 1233.15 902.3 1256.25 958.65
Q 1269.75 1041.3 1338.65 1051.3
M 1367.1 729.95
Q 1400.15 627.35 1386.15 518.55 1374.15 425.3 1308.05 368.3 1265.1 331.3 1212 310.65 1114.05 272.35 1011 250.05 905.65 227.15 797.9 225.3 687.5 223.4 585.55 264.85 485.15 305.65 412.5 386.05 335.25 471.6 336.75 586.2 338.2 695.55 401.25 783.75 464.65 872.45 568.2 909.25 670.8 945.6 779.6 952.35 873.85 957.6 967.45 945.9 1019.7 930.5 1067.8 902.85 1150.75 855.2 1183.85 766.95 1205.45 709.3 1175.55 655.8 1158.35 625.05 1131.15 602.6 1104.25 580.45 1069.75 574 967.95 554.75 867.75 582.95 789.25 605.15 748.3 673.5 718.5 723.2 749.65 770.95 783.65 823.1 845.95 809.95 893 799.9 926.4 764.9 947.75 742.55 971.75 724.3 986.7 713 983.65 730.5 977.1 767.85 947.5 795.05 875.9 860.75 783.95 833.1 704.45 809.2 704.15 725.2 703.95 661.5 752.8 620 864.55 524.9 1015.05 533 1187.85 541.45 1217.1 709.45 1222.2 738.9 1210.75 766.8 1165.75 876.65 1056.9 929.1 1193.1 896.85 1302.45 810.4 1344.15 777.45 1367.1 729.95
M 1545.85 705.15
Q 1561.9 693.55 1566.55 713.35 1585.1 792.15 1603.95 871.2 1650.3 822.9 1706.05 819 1713.6 818.7 1716.8 826.75 1738 880.25 1753.2 935.95 1803.8 860.85 1768.6 777.05 1726.6 677.05 1642.75 608.5 1565.6 545.45 1467.1 552.75 1448.3 554.3 1430.3 559.55
L 1426.95 647.15
Q 1424.35 750.6 1351.8 822.35 1348.95 825.15 1346 827.85 1434.95 948.65 1576.65 985.15 1659.65 1006.4 1727.25 965.35 1717.5 905.9 1692.35 850.7 1641.25 891.85 1587.55 910.55 1583.15 912 1582.05 904.75 1568.7 817.7 1550.4 731.1
L 1468.6 813.9
Q 1437.5 792.9 1480.45 756.55 1512.35 729.6 1545.85 705.15 Z"/>

<path fill="#050505" stroke="none" d="
M 667.55 205.75
L 705.35 200.4
Q 671.3 151.1 704.7 94.8 709.3 15.95 638.7 43.6 621.7 50.35 615.25 68.8 582.9 161.6 667.55 205.75
M 1043.7 62
Q 1028.45 36.5 999.1 27.9 940.15 10.8 962.1 63.4 970.6 83.7 980.5 103.7 1008.1 159.7 976.9 213.3
L 1019.25 221.6
Q 1097.6 152.35 1043.7 62 Z"/>
</g>

<g id="S_mbolo_2_0_Layer0_0_FILL">
<path fill="#000000" fill-opacity="0.2" stroke="none" d="
M 466.6 432.6
Q 469.55 427.6 465.85 426.25 440.6 416.95 410.8 444.95 403.95 432.75 403.5 419.65 402.85 399.6 387.45 398.2 386.1 408.1 385.1 418 378.25 487.55 437.85 464.95 455.5 451.7 466.6 432.6
M 581.45 441
Q 607.65 423.65 608.8 396.25 568.55 437.1 523.35 467.95 520 466.05 518.45 463.05 505.3 437.7 499.65 409.4
L 493.6 415.4
Q 487.9 428.8 487.15 443.45 486.1 464.65 503 475.9 562.5 515.35 581.45 441
M 966.55 113.6
Q 964.55 106.25 958.85 109.85 881.25 159.65 790.3 178.85 767.55 183.5 748.7 170.8 712.75 146.65 704.55 174.4
L 706.85 178.15
Q 709.15 212.75 736.7 233.7 835.15 308.8 931.2 222.15 983.3 175.1 966.55 113.6
M 770.55 215.95
L 780.95 221.95
Q 756.65 215.7 746.4 203 747.2 203.15 748.05 203.35 761.3 206.15 770.55 215.95
M 1344.95 377.7
Q 1343.35 367.6 1335.55 367.8 1310.2 368.55 1311.35 403.9 1311.65 412.65 1304.85 413.15 1273.25 414.1 1242.7 398.1 1242.5 397.4 1242.05 397.3 1220.45 388.75 1216.85 426.45 1216.1 430.35 1213.5 433 1183.75 463.15 1149.35 420.55 1155 476.25 1212.55 474.55 1225.2 480.3 1234.2 469.35 1240.45 461.8 1233.45 454.15 1236.9 449 1238.55 442.8 1242.4 428.1 1245.4 413.7 1268 438.4 1299.7 450.5 1301.7 456.45 1307.65 456.6 1331.95 457.1 1332.6 432.35 1349.65 408.05 1344.95 377.7
M 1690.7 247.7
Q 1684.1 227.8 1664.2 233.75 1631 243.4 1616.65 272.85
L 1569.55 279.45
Q 1559.35 205.5 1545.45 132.25 1544.2 125.5 1540.25 125.8 1478.75 133.7 1449 205.6 1446.9 210.75 1450.25 210.8 1491.45 211.25 1520.6 163.1
L 1537.3 281.15
Q 1448.25 270.5 1373.85 215.7 1383.6 203.05 1391.45 189.15 1421.7 135.45 1401.4 82.2 1426.65 55.7 1401.05 35.2 1393.2 28.9 1387.15 35.35 1299.55 129.45 1196.5 211.35 1209.3 192.75 1216.45 171.35 1230.1 130.35 1198.95 112.25 1190.6 107.5 1185.4 114.6 1143.85 171.85 1095.95 226.65 1081.7 240.5 1063.55 247.95 949.05 295.3 826.35 283.5 533.6 255.65 323.25 60 323.35 32.35 315.6 7.4 312.55 -2.55 302.8 0.9 271.8 143.55 364.55 250.85 294.95 310.1 202.45 314.15
L 212.2 207.6
Q 230.8 218.5 248.75 229.85 281.15 250.3 312.5 236.7 321.65 232.65 314.45 227.95 265.65 195.8 207.15 170.8 198.55 167.15 195 173.3 159.75 234.45 165.4 313.3
L 101.8 303.9
Q 88.15 288.75 71.5 277.45 66.15 273.85 60.35 277.35 52.85 281.8 54.95 290.7 31.5 278.8 8.8 265.55 -0.2 260.25 0 270.05 0.9 310.45 33.5 337.7 27.9 335.8 21.2 336.65 14.3 336.35 16.95 339.7 78.5 418.85 186.6 410.35 222.85 407.65 257.7 398.75 324.05 382 354.45 331.75 366.6 320.75 378.7 309.85 408.95 282.4 429.1 247.1
L 469.8 281.25
Q 463.35 279.5 457.3 282.8 451.55 286 453.45 289.9 484.2 353.15 558 383.85 622.1 410.55 629.1 351.45 909.9 402.5 1177.7 302.15 1154.6 313.4 1136.6 332.4 1121.25 348.55 1142.9 352.25 1197.85 361.35 1251.25 333.65 1315 300.55 1272.7 258.55
L 1313.45 235.3
Q 1359.95 279.95 1416.55 311.2 1414 318.75 1418.5 324.05 1503.95 425.3 1640.85 403.25 1676.1 397.8 1704.8 376.55 1731.5 356.8 1752.4 331.45 1795.75 278.95 1794.5 220.45 1794.35 212.6 1787.15 212.55 1732.7 209.4 1690.7 247.7
M 329.95 114.2
Q 337.05 123.1 340.7 133.25 353.6 169.45 380.15 197.7
L 394.55 213.8 389.25 217.15
Q 343.25 175 329.95 114.2 Z"/>
</g>
</defs>

<g transform="matrix( 1, 0, 0, 0.8795166015625, 136.9,1025.15) ">
<g transform="matrix( 1, 0, 0, 1, 0,0) ">
<use xlink:href="#S_mbolo_3_0_Layer0_0_FILL"/>
</g>
</g>

<g transform="matrix( 1, 0, 0, 0.8795166015625, 153.85,1554.9) ">
<g transform="matrix( 1, 0, 0, 1, 0,0) ">
<use xlink:href="#S_mbolo_2_0_Layer0_0_FILL"/>
</g>
</g>
</svg>
