
<svg xmlns="http://www.w3.org/2000/svg" version="1.1" xmlns:xlink="http://www.w3.org/1999/xlink" preserveAspectRatio="none" x="0px" y="0px" width="2000px" height="2000px" viewBox="0 0 2000 2000">
<defs>
<g id="S_mbolo_5_0_Layer0_0_FILL">
<path fill="#000000" stroke="none" d="
M 1332.6 343.8
Q 1317.65 330.4 1301.1 319.2 1269.75 298 1235.15 282.95 1201 268.2 1165.05 258 1197.4 233.15 1207.35 193.35 1223.75 127.95 1192.15 68.5 1178.3 42.5 1151.5 30.65 1105.15 10.05 1064.25 40 1046.55 53 1042.2 74.55 1037.25 98.9 1045.15 122.6 1053.05 146.4 1063.75 169.2 1066.5 175.05 1068.1 181.3 1070.1 188.95 1068.6 196.5 1066.95 204.9 1061.95 211.8 1052.85 224.35 1038.8 231.15 1018.75 227.85 998.6 224.2 937.4 213.1 875.45 208.8 854.75 207.4 834.55 203.7 822.2 179.7 822.1 153.05 822.1 145.5 825.25 138.75 838.45 110.45 856.05 84.15 862.95 73.8 863.4 61.5 864.5 29.45 837.3 14.25 789.9 -12.15 740.3 10.3 718.2 20.25 703.1 39.25 696.6 47.45 690.9 56.3 685.75 64.3 682.45 73.1 676.35 89.4 677 106.75 677.7 126.2 684.6 144.3 696.6 175.75 716.35 203.05 680.7 204.25 645.3 209.7 586.25 218.5 531.65 242.8 517.25 249.3 503.25 257.05 492.6 263.05 482.6 269.7 465.75 280.95 450.7 294.4 427.55 315.1 410.75 341.35 395.1 365.75 381.05 391.35 362.85 383.95 344.55 377.2 274.3 351.45 199.9 353.25 109.7 355.4 45.8 418.1 30.3 433.3 20.8 452.65 -11.25 518.05 6.1 589.6 24.65 666.1 86.85 714.1 115.25 736.1 149.65 746.5 169.15 752.35 189.35 755.8 204.5 758.3 219.7 759.6 249 761.9 278.3 760 316.75 757.35 354.3 749 397.5 739.7 438.9 724.7 445.15 732.25 451.85 739.5 471.9 761.3 495.35 779.1 448.75 822.75 453 887.7 454.65 913.25 467.45 935 481.6 959 506.9 970.15 530.3 980.45 551.75 967.4 558.7 963.15 563.8 956.7 567.6 951.9 569.7 946 571.25 941.6 571.45 936.75 572.3 915.85 564.65 896 558.05 878.9 559 860.7 560 841.6 571.1 825.85
L 601.05 839.9
Q 592.2 854.15 586.1 869.65 568.7 914 581.4 959 591.55 995 626.75 1006.35 659.5 1016.9 684.25 994 692.55 986.4 694.15 975.5 694.7 971.8 694.25 968.3 693.75 964.05 692.05 959.85 683.95 939.45 672.9 920.65 666.2 909.3 663.45 896.5 660.05 880.45 666.8 865.5 696.5 876 726.55 884.85 768.4 896.95 811.1 906.3 852.85 915.65 895 921.9 933.75 927.95 972.65 930 1011.55 932.15 1050.45 929.35 1092.3 926.25 1133.45 917.45
L 1179.15 908.9
Q 1181.2 935.75 1186.15 962.15 1189 977.2 1191.6 992.3 1198.8 1034.2 1225.45 1067.1 1240.7 1086.05 1261.9 1097.45 1266.3 1099.75 1271.2 1100.15 1275.8 1100.25 1280 1098.75 1284.45 1097 1287.6 1093.4 1292.35 1088 1294.6 1081 1299.1 1067 1299.65 1052.25 1319.75 1087.55 1359.45 1094.05 1366.75 1095.15 1373.45 1092.4 1385.2 1087.45 1391.9 1076.25 1394.8 1071.45 1396.45 1066.2 1398.15 1060.6 1398.5 1054.75 1399.65 1036.6 1397.6 1018.55 1389.25 946.2 1375.5 875 1371.5 854.4 1362.15 835.75
L 1367.9 832.05
Q 1369.95 838.45 1372.35 844.75 1395.4 905.9 1439.55 954.15 1481.4 999.75 1536.8 1026.65 1582.3 1048.7 1632.95 1049.45 1688.4 1050.3 1738.05 1025.55 1782.2 1003.45 1800.6 957.55 1825.1 896.55 1817.25 830.55 1810.35 772.6 1777.3 724.35 1755.25 692.2 1725.85 666.7 1714.7 656.95 1702.6 648.25 1690 639.15 1676.5 631.45 1656.3 619.95 1634.65 611.35 1601.2 598.2 1565.85 592.5 1520.8 585.25 1475.35 589 1463.85 525.1 1435.35 466.85 1419.6 434.65 1396.7 407.15 1387.5 396.15 1377.3 385.95 1355.5 364.2 1332.6 343.8
M 1385.8 456.05
Q 1406.9 493.45 1421.95 533.6 1437.05 573.75 1440.75 616.5 1444.55 660.25 1431.55 702.1 1418.65 743.8 1386.85 773.7 1355.4 803.25 1316.2 821.6 1246.05 856.4 1169.8 874.55 1200.25 858.7 1227.1 837.05 1257.95 812.2 1278.5 778.5 1298.85 745.15 1302.9 706.5 1305.65 680.2 1303.4 653.9 1298.8 600.75 1269.5 556.6 1242.3 515.7 1202.8 486.4 1160.35 454.8 1109.55 439.85 1070.35 428.3 1029.45 429.05 990.95 429.8 954.4 442.3 899.65 460.9 855.3 498 820.05 527.35 797.75 567.25 781.7 595.95 778.55 628.65 776 655.25 784.6 680.4 794.65 709.7 818.85 728.8 836.5 742.65 858.65 747.35 887.85 753.5 917.45 748.5 942.5 744.35 966.05 735.1 990.35 725.5 1011.75 710.5 1033.85 695 1050.8 674 1054.8 669.1 1057.55 663.25 1061.2 655.65 1062.5 647.25 1062.9 644.65 1061.9 642.5 1056.95 631.8 1045 634.3 1032.45 636.9 1022.7 645.65 1006.05 660.5 988.6 673.75 965.2 691.45 937.1 700.3 903.1 711.25 868.05 704.2 847 700 833.4 683.35 826.65 675.1 823.85 664.7 817.3 640.75 824.35 616.65 834.4 582.25 858.4 555.8 890.95 519.8 934.2 497.6 965.8 481.5 1000.8 475.7 1029 470.95 1057.55 474.25 1071.65 475.8 1085.5 479.1 1095.1 481.35 1104.7 484.6 1115.45 488.25 1125.9 492.75 1137.15 497.65 1147.95 503.6 1164.35 512.65 1179.35 524.05 1199.5 539.45 1216.45 558.85 1233.8 578.8 1245.9 602.1 1265.8 640.5 1266.8 683.95 1267.35 707.7 1260.9 730.45 1256.15 747.3 1247.95 762.8 1237.5 782.55 1221.7 798.75 1183.25 838 1132.6 859.45 1069.7 886.25 1001.35 893 940.05 899.4 880.2 884.25
L 878 885.45
Q 773.3 868 672.85 834.05 629.25 819.25 590.85 798.75 590.85 797.95 590.8 797.15 590.6 794.35 588.9 792.1 587.6 790.45 585.5 789.55 582.75 788.55 579.9 788.9 576.2 789.5 572.9 791.45 550 779.5 528.7 764.95 494.95 741.9 468.3 710.9 439.55 677.6 421 637.8 402.6 598.15 395.1 555 387.65 512.1 393.35 468.7 399 425.4 418.85 386.3 438.55 347.55 470.8 318.75 503.5 289.6 543.35 271.9 583.2 254.1 626.1 245.9 668.8 237.55 712.35 235.2 753.45 232.85 794.65 234.05 836.55 235.3 878.2 239.1 918.35 242.6 958.3 248.4 996.95 253.85 1035.5 260.5 1076.45 267.45 1117.05 276.2 1157.7 285.05 1196.85 298.35 1236.1 311.75 1272.4 331.5 1310.35 352.15 1337.45 385.35 1364.65 418.55 1385.8 456.05
M 1478.05 610.45
Q 1503.5 609.95 1528.7 612.3 1585.65 617.85 1637.25 642.55 1671.75 659.05 1700.9 683.75 1723.3 702.65 1740.75 726.2 1768 763.1 1780.95 807 1798.15 865.25 1782.6 923.95 1769.45 868.4 1755 813.15 1751.9 801.2 1739.45 799.85 1735.1 799.2 1731.75 802.1 1685.4 842.3 1642.9 886.75 1635.9 812.05 1627.7 737.25 1627.2 732.55 1625.35 728.1 1620.15 715.7 1607.9 720.3 1600.8 723.1 1595.5 728.5 1554.2 771.3 1518.6 819.25 1510.7 829.9 1515.8 840.6
L 1526.2 842.1 1607.1 745.45
Q 1617.35 824.4 1624.9 903.8 1626.15 916.7 1639 918.8 1640.2 918.9 1640.8 918.3 1688.25 875.6 1733.5 829.75
L 1764.95 963.4
Q 1745.05 991.75 1712.85 1004.35 1682.05 1016.2 1648.8 1018.4 1626.3 1019.15 1604.8 1013.85 1570.05 1005.1 1539.5 986.15 1492.65 957.15 1456.9 915.45 1416.15 867.9 1400.5 807.25 1429.95 782.2 1449.7 748.85 1472.1 711 1477.15 667.4
L 1478.05 610.45
M 1335.7 850.9
Q 1339.2 870.45 1342.85 889.95 1346.5 909.5 1351.1 928.8 1364.45 985.15 1366.15 1042.55 1366.4 1051.1 1363.25 1058.85 1358.25 1060.7 1352.9 1060.5 1342 1059.3 1334.5 1051.25 1317.2 1032.65 1308.2 1008.05 1298.1 980.55 1295.1 951.05 1291.15 912.4 1281.45 874.9
L 1295.6 869.35 1335.7 850.9
M 1180.15 118.1
Q 1189.75 154 1177.1 188.1 1169.3 209.25 1149.6 219.25 1127.9 230.3 1107.6 243.95
L 1068.95 236.45
Q 1077.3 228.75 1082.9 218.95 1100.35 188.4 1087.45 155.7 1076.9 129.15 1069.15 101.45 1065.1 87 1073.65 74.6 1094.45 44.4 1131.4 52.7 1140.05 54.75 1146.5 60.8 1171.2 84.4 1180.15 118.1
M 835.05 42.35
Q 837.45 44.8 837.85 47.85 840.7 68.3 826.45 84.55 813.65 99.2 806.05 116.95 788.05 159 804.45 201.7
L 741.85 201.2
Q 735.8 193.65 729.95 186.15 703.6 152.2 698.15 109.65 695.7 90.35 705.1 73.35 727.7 32.65 773.45 23.4 809.9 16.2 835.05 42.35
M 184.7 383.55
Q 234.2 378.95 282.6 390.05 328.75 400.75 373.55 416.65 363.4 451.25 361.65 487.45 359.7 528.75 367.9 569.25 376.1 609.75 392.65 647.6
L 420.6 699.65
Q 373.6 717.5 324 725.75 269.4 734.7 214.2 730.7 176.7 727.8 141.8 714.2 124.85 707.7 109.5 697.7 96.2 688.95 84.85 677.6 69.2 661.95 57.95 642.85 47.05 624.5 40.05 604.55
L 116.55 528.8
Q 121 540 123.9 551.65 130.65 578.7 134.7 606.1 135.9 614.3 141.7 619.75 144.65 622.5 148.9 622.75 151.9 623 153.95 621.05 182.8 593.7 207.55 562.45 230.25 533.8 257.1 509.05 271.4 549.55 292.15 587.15 298 597.65 302.8 608.7 309.25 623.5 323.85 626.85 329.5 628.15 332.2 623.5 336.55 615.8 331.35 607.9 302.75 564.25 283.65 515.45 278.15 501.4 271.2 488.2 268 482.05 260.95 480.9 256.8 480.05 253.7 482.4 223.7 505.9 198.95 535.7 172.4 567.7 148.65 601.9 145 573.95 139.3 546.3 136.3 531.65 131 517.65 127.45 508.4 117.95 507.55 113.75 507.35 110.9 510.35 71.7 550.5 36.15 594.05 30.45 576.85 28.2 558.7 23.8 523.4 35.05 489.8 46.05 456.85 71.1 432.9 86.95 417.75 106.05 407.25 122.7 398.1 140.95 392.4 162.25 385.5 184.7 383.55
M 614.2 845.5
L 645.2 857.75
Q 642.5 862.75 641.55 868.3 635.9 901.95 651.4 933.6 656.7 944.4 663.45 954.3 668.2 961.25 669 969.55 669.5 974.6 665.9 978.25 650.3 994.15 628.25 984.85 595.25 970.85 593.95 934.75 592.35 890.65 610.45 850.55
L 614.2 845.5
M 537.05 807.25
L 549.35 816.85
Q 545.15 823.05 542.6 830.1 531 862.65 541.1 896.75 543.4 904.55 546.7 911.9 553.35 926.7 547.05 941.05 545.2 945.2 541.25 947.2 522.25 957 503.3 944.05 491.85 936.25 485.75 923.75 466.35 884.1 478.7 841.3 487.5 810.9 512.5 791.55
L 537.05 807.25
M 1198.5 939.45
Q 1195.35 921.3 1193.45 903
L 1253 885.35
Q 1258.7 907.9 1262.7 930.85 1273.65 993.65 1268.3 1056.95 1267.8 1062.8 1266.2 1068.35 1233.4 1049.45 1219.25 1013.35 1205.15 977.5 1198.5 939.45 Z"/>

<path fill="#FF6633" stroke="none" d="
M 1193.45 903
Q 1195.35 921.3 1198.5 939.45 1205.15 977.5 1219.25 1013.35 1233.4 1049.45 1266.2 1068.35 1267.8 1062.8 1268.3 1056.95 1273.65 993.65 1262.7 930.85 1258.7 907.9 1253 885.35
L 1193.45 903
M 549.35 816.85
L 537.05 807.25 512.5 791.55
Q 487.5 810.9 478.7 841.3 466.35 884.1 485.75 923.75 491.85 936.25 503.3 944.05 522.25 957 541.25 947.2 545.2 945.2 547.05 941.05 553.35 926.7 546.7 911.9 543.4 904.55 541.1 896.75 531 862.65 542.6 830.1 545.15 823.05 549.35 816.85
M 645.2 857.75
L 614.2 845.5 610.45 850.55
Q 592.35 890.65 593.95 934.75 595.25 970.85 628.25 984.85 650.3 994.15 665.9 978.25 669.5 974.6 669 969.55 668.2 961.25 663.45 954.3 656.7 944.4 651.4 933.6 635.9 901.95 641.55 868.3 642.5 862.75 645.2 857.75
M 282.6 390.05
Q 234.2 378.95 184.7 383.55 162.25 385.5 140.95 392.4 122.7 398.1 106.05 407.25 86.95 417.75 71.1 432.9 46.05 456.85 35.05 489.8 23.8 523.4 28.2 558.7 30.45 576.85 36.15 594.05 71.7 550.5 110.9 510.35 113.75 507.35 117.95 507.55 127.45 508.4 131 517.65 136.3 531.65 139.3 546.3 145 573.95 148.65 601.9 172.4 567.7 198.95 535.7 223.7 505.9 253.7 482.4 256.8 480.05 260.95 480.9 268 482.05 271.2 488.2 278.15 501.4 283.65 515.45 302.75 564.25 331.35 607.9 336.55 615.8 332.2 623.5 329.5 628.15 323.85 626.85 309.25 623.5 302.8 608.7 298 597.65 292.15 587.15 271.4 549.55 257.1 509.05 230.25 533.8 207.55 562.45 182.8 593.7 153.95 621.05 151.9 623 148.9 622.75 144.65 622.5 141.7 619.75 135.9 614.3 134.7 606.1 130.65 578.7 123.9 551.65 121 540 116.55 528.8
L 40.05 604.55
Q 47.05 624.5 57.95 642.85 69.2 661.95 84.85 677.6 96.2 688.95 109.5 697.7 124.85 707.7 141.8 714.2 176.7 727.8 214.2 730.7 269.4 734.7 324 725.75 373.6 717.5 420.6 699.65
L 392.65 647.6
Q 376.1 609.75 367.9 569.25 359.7 528.75 361.65 487.45 363.4 451.25 373.55 416.65 328.75 400.75 282.6 390.05
M 1342.85 889.95
Q 1339.2 870.45 1335.7 850.9
L 1295.6 869.35 1281.45 874.9
Q 1291.15 912.4 1295.1 951.05 1298.1 980.55 1308.2 1008.05 1317.2 1032.65 1334.5 1051.25 1342 1059.3 1352.9 1060.5 1358.25 1060.7 1363.25 1058.85 1366.4 1051.1 1366.15 1042.55 1364.45 985.15 1351.1 928.8 1346.5 909.5 1342.85 889.95
M 1528.7 612.3
Q 1503.5 609.95 1478.05 610.45
L 1477.15 667.4
Q 1472.1 711 1449.7 748.85 1429.95 782.2 1400.5 807.25 1416.15 867.9 1456.9 915.45 1492.65 957.15 1539.5 986.15 1570.05 1005.1 1604.8 1013.85 1626.3 1019.15 1648.8 1018.4 1682.05 1016.2 1712.85 1004.35 1745.05 991.75 1764.95 963.4
L 1733.5 829.75
Q 1688.25 875.6 1640.8 918.3 1640.2 918.9 1639 918.8 1626.15 916.7 1624.9 903.8 1617.35 824.4 1607.1 745.45
L 1526.2 842.1 1515.8 840.6
Q 1510.7 829.9 1518.6 819.25 1554.2 771.3 1595.5 728.5 1600.8 723.1 1607.9 720.3 1620.15 715.7 1625.35 728.1 1627.2 732.55 1627.7 737.25 1635.9 812.05 1642.9 886.75 1685.4 842.3 1731.75 802.1 1735.1 799.2 1739.45 799.85 1751.9 801.2 1755 813.15 1769.45 868.4 1782.6 923.95 1798.15 865.25 1780.95 807 1768 763.1 1740.75 726.2 1723.3 702.65 1700.9 683.75 1671.75 659.05 1637.25 642.55 1585.65 617.85 1528.7 612.3
M 1421.95 533.6
Q 1406.9 493.45 1385.8 456.05 1364.65 418.55 1337.45 385.35 1310.35 352.15 1272.4 331.5 1236.1 311.75 1196.85 298.35 1157.7 285.05 1117.05 276.2 1076.45 267.45 1035.5 260.5 996.95 253.85 958.3 248.4 918.35 242.6 878.2 239.1 836.55 235.3 794.65 234.05 753.45 232.85 712.35 235.2 668.8 237.55 626.1 245.9 583.2 254.1 543.35 271.9 503.5 289.6 470.8 318.75 438.55 347.55 418.85 386.3 399 425.4 393.35 468.7 387.65 512.1 395.1 555 402.6 598.15 421 637.8 439.55 677.6 468.3 710.9 494.95 741.9 528.7 764.95 550 779.5 572.9 791.45 576.2 789.5 579.9 788.9 582.75 788.55 585.5 789.55 587.6 790.45 588.9 792.1 590.6 794.35 590.8 797.15 590.85 797.95 590.85 798.75 629.25 819.25 672.85 834.05 773.3 868 878 885.45
L 880.2 884.25
Q 940.05 899.4 1001.35 893 1069.7 886.25 1132.6 859.45 1183.25 838 1221.7 798.75 1237.5 782.55 1247.95 762.8 1256.15 747.3 1260.9 730.45 1267.35 707.7 1266.8 683.95 1265.8 640.5 1245.9 602.1 1233.8 578.8 1216.45 558.85 1199.5 539.45 1179.35 524.05 1164.35 512.65 1147.95 503.6 1137.15 497.65 1125.9 492.75 1115.45 488.25 1104.7 484.6 1095.1 481.35 1085.5 479.1 1071.65 475.8 1057.55 474.25 1029 470.95 1000.8 475.7 965.8 481.5 934.2 497.6 890.95 519.8 858.4 555.8 834.4 582.25 824.35 616.65 817.3 640.75 823.85 664.7 826.65 675.1 833.4 683.35 847 700 868.05 704.2 903.1 711.25 937.1 700.3 965.2 691.45 988.6 673.75 1006.05 660.5 1022.7 645.65 1032.45 636.9 1045 634.3 1056.95 631.8 1061.9 642.5 1062.9 644.65 1062.5 647.25 1061.2 655.65 1057.55 663.25 1054.8 669.1 1050.8 674 1033.85 695 1011.75 710.5 990.35 725.5 966.05 735.1 942.5 744.35 917.45 748.5 887.85 753.5 858.65 747.35 836.5 742.65 818.85 728.8 794.65 709.7 784.6 680.4 776 655.25 778.55 628.65 781.7 595.95 797.75 567.25 820.05 527.35 855.3 498 899.65 460.9 954.4 442.3 990.95 429.8 1029.45 429.05 1070.35 428.3 1109.55 439.85 1160.35 454.8 1202.8 486.4 1242.3 515.7 1269.5 556.6 1298.8 600.75 1303.4 653.9 1305.65 680.2 1302.9 706.5 1298.85 745.15 1278.5 778.5 1257.95 812.2 1227.1 837.05 1200.25 858.7 1169.8 874.55 1246.05 856.4 1316.2 821.6 1355.4 803.25 1386.85 773.7 1418.65 743.8 1431.55 702.1 1444.55 660.25 1440.75 616.5 1437.05 573.75 1421.95 533.6 Z"/>

<path fill="#050505" stroke="none" d="
M 837.85 47.85
Q 837.45 44.8 835.05 42.35 809.9 16.2 773.45 23.4 727.7 32.65 705.1 73.35 695.7 90.35 698.15 109.65 703.6 152.2 729.95 186.15 735.8 193.65 741.85 201.2
L 804.45 201.7
Q 788.05 159 806.05 116.95 813.65 99.2 826.45 84.55 840.7 68.3 837.85 47.85
M 1177.1 188.1
Q 1189.75 154 1180.15 118.1 1171.2 84.4 1146.5 60.8 1140.05 54.75 1131.4 52.7 1094.45 44.4 1073.65 74.6 1065.1 87 1069.15 101.45 1076.9 129.15 1087.45 155.7 1100.35 188.4 1082.9 218.95 1077.3 228.75 1068.95 236.45
L 1107.6 243.95
Q 1127.9 230.3 1149.6 219.25 1169.3 209.25 1177.1 188.1 Z"/>
</g>

<g id="S_mbolo_4_0_Layer0_0_FILL">
<path fill="#000000" fill-opacity="0.2" stroke="none" d="
M 620.75 345.3
Q 617.35 344.55 614.5 342.6 594.15 328.35 573.5 339.8 570.1 344.85 571.55 350.8 574.65 363.75 587.2 370.7 596.4 375.8 605.85 380.3 624.95 389.3 640.9 377.35 643.45 375.45 643.5 372.7 643.85 350.35 620.75 345.3
M 445 369.6
Q 430.25 371.45 434 386 435.75 392.95 437.6 399.9 448.75 441.95 490.3 453.05
L 501.1 453.15
Q 504.55 455.8 508.85 456.5 521.4 458.5 529.6 448.45 536.7 439.75 529.95 430.4 537.9 415.1 534.95 397.9 533.95 391.9 528.8 389.75 520.65 386.35 514.9 392.6 504.7 403.6 499.35 418.55 498.5 420.8 496.25 421.5 483.25 424.95 473.1 414.05 469.35 410.05 467.6 404.85 460.55 383.95 445 369.6
M 476.8 287.95
Q 474.75 290.95 475.8 294.15 481.55 311.5 496.85 322.15 504.25 327.3 512.55 331.1 530.95 339.4 540.05 323.25 541 321.55 540.5 319.85 534.9 300.2 514.3 293.1 508.45 288.4 502.25 284.3 486.55 273.6 476.8 287.95
M 659.15 471.45
Q 667.5 456.15 654.9 445.65 647.9 439.75 640.75 444.75 634.85 448.9 629.65 453.8 614.1 468.6 597.55 453.5 583.75 440.9 573.75 424.9 570.15 419.15 563.45 420.6 557.65 421.95 557.15 427.6 555.95 441 561.85 453.8 575.8 484.05 607.1 492.15 641.25 500.85 659.15 471.45
M 1045.9 170.55
Q 1048.35 161.25 1052.9 152.75 1063.7 132.55 1054.35 112.8 1050.9 105.5 1043.65 102.2 1027.45 94.85 1010.85 103.25 984.05 116.9 959.65 134.6 927.15 158.25 888.55 169.5 847.15 181.7 805.25 171.1 801.8 170.15 798.45 170.4 780.25 172.05 787.4 189.1
L 791.65 195.5
Q 785.8 200.75 785.3 208.55 783.75 233.95 803.95 249.75 828.05 268.5 858.4 270.3 885.45 271.75 912.5 268.05 953.4 262.75 991.05 245.75 995.15 243.95 998.85 241.15 1034.4 214.35 1045.9 170.55
M 1334.65 480.75
Q 1332.8 485.25 1332.25 490.2 1329.85 510.55 1319.85 527.75 1317.45 526.05 1315.45 524 1294.95 503.05 1275.9 480.55 1273.65 477.9 1270.3 479.05 1252.9 484.85 1261.25 501.75 1257.4 503.9 1254.2 506.9 1251.05 509.95 1249.95 514.1 1245.5 531 1233.05 542.8
L 1201.4 516.3
Q 1200.4 516.35 1199.55 516.7 1189.4 519.75 1191.7 529.9 1194.5 542.3 1201.25 553.45 1216.15 578 1243.85 574.7 1270.1 556.6 1275.35 525.1 1283.7 538.3 1293.6 550.55 1309.6 570.35 1333.45 564.45 1336.9 563.5 1339.15 560.8 1361.25 534.75 1363.85 499.75 1364.65 489.15 1361.4 479.05 1359 471.65 1351.4 470.2 1339.9 468.1 1334.65 480.75
M 1664.8 372.35
L 1621.6 378.95
Q 1607.75 315.6 1602.15 251.2 1601.45 243.05 1595.25 237.8 1585.3 229.3 1573.85 235.6 1572.55 235.2 1571.35 235.35 1549.35 239.35 1537.8 261 1529.7 276.2 1519.85 290.25 1505.35 310.95 1498.7 334.55 1496.2 343.4 1502.8 348.85 1506.65 352.15 1511.6 351.15
L 1569.1 294.8 1585.05 379.3
Q 1554.75 377.65 1525.95 368.8 1467.6 350.95 1424.4 307.8 1417.35 300.75 1411.9 292.5 1402.4 278.25 1388.25 268.9 1395.6 260.8 1401.85 251.75 1408.6 242.05 1411.25 230.45 1412.85 223.4 1411 216.35 1420.05 205.5 1427.9 193.6 1444.2 169.05 1446.9 140.3 1447.6 132.55 1443.9 126 1434.15 108.7 1414.35 114.45 1410.2 115.65 1407.6 119.05 1386.65 146.05 1362.9 170.75 1335.8 198.95 1302.9 220.1 1293.65 192.1 1278.8 166.35 1273.65 157.45 1263.85 156.25 1257.55 155.7 1255.6 162.15 1251.75 162.95 1248.3 164.7 1245 166.5 1242.85 169.7 1219 205.55 1187.65 235.1 1156.65 264.4 1117.65 281.8 1078.15 299.55 1036.15 310 997.55 320.8 957.75 324.8 813.2 338.05 673.9 295.3 640.65 285.1 609.85 269.05 542 233.7 484.75 182.7 478.85 177.45 472.3 173.2 436.5 150.1 412.3 115.05 409.85 111.5 407.7 107.85 401 96.65 393 86.85 391.5 85 390 83.2 378.15 68.65 369.25 52.45 366.5 47.5 363.4 42.25 359.9 36.35 353.2 36.95 348 37.6 345.45 42.8 336.95 60.2 335.5 79.75 332.5 120.95 331.35 162.15 293.15 173.3 253.3 176 193.2 180.55 134.85 166.6 91.85 156.45 55.05 131.55 42.35 123 34.85 110
L 85.05 68.3
Q 87.5 82.65 89.05 97.1 91.4 119.45 102.5 138.05 110.4 151.35 123.85 144.6 158.1 127.6 180.15 95.75 200.25 66.65 223.6 40.35 236.3 73.2 254.65 103.2 264.2 118.85 278.35 129.4 291.15 138.85 298 125.45 301.45 118.8 297.9 112.15 290.75 98.95 282.7 86.15 267.4 61.65 256.85 34.85 251.5 21.3 243.2 9.85 230.7 -7.35 214.9 5.55 187.45 28.05 168.75 58.55 150.85 87.65 124.25 108.9 118.75 77.8 112.55 46.75 110.8 37.95 107.9 29.6 104.15 18.65 92.25 20.75 90.35 21.05 89.1 22.25 65.4 46.1 40.4 68.85 33.7 74.85 28.1 81.8 21.3 90.3 14.05 93.8 7.4 92.3 1.85 96.55 -0.35 98.25 0.05 100.85 3.55 124.3 17.25 144.55 60.05 207.85 135.5 224.75 177.15 233.9 219.95 234.25 293 234.8 363.25 215.25 370.45 213.3 377.75 211.6 399.35 206.2 412.45 189.2 419.55 200.35 428.25 210.65 464.7 253.8 512.05 285.25 561.6 318.1 617.5 338.4 744 384.55 878.45 395.8 927.45 400.15 976.5 404.5 1039.85 410.75 1100.95 394 1107.35 392.25 1113.85 391.3 1146.4 387.2 1177.45 377.4 1169.4 381.55 1162.4 387.45 1158.95 390.35 1157.8 394.45 1153.2 410.85 1169.2 420.1 1173.5 422.6 1178.35 422.65 1219.2 423.15 1257.85 406.8 1265.45 403.5 1273.45 401.85 1297.35 397.15 1318.8 386.6 1329.9 381.15 1332.2 369.55 1337.1 344.75 1312.7 337.6 1300.95 338.2 1289.75 340.7 1249.9 349.2 1212.5 365.4 1206.25 368.15 1199.6 369.65 1208.85 366.05 1217.95 361.95 1261.55 342.3 1301.7 316.5 1321.4 317.55 1338.8 307.7 1355 298.6 1368.95 286.75
L 1375.55 309.35
Q 1371.4 318.95 1373.1 329.45 1383.9 394.95 1425.95 446.2 1447.35 472.3 1475.85 490.25 1506.1 509.35 1540.95 517.55 1632.2 539.3 1712.5 490.55 1732.25 478.6 1749.7 463.5 1770 446 1779 421.45 1782.35 412.2 1780 402.6 1778.2 395.25 1778.7 390.25 1785.25 384.4 1788.1 375.9 1794.35 357.45 1779.7 344 1774.95 339.6 1768.7 338.95 1751.1 337.75 1735.65 347.5 1729.1 351.6 1728.2 348.3 1727.95 335 1716.4 329.45 1700.75 321.95 1688.75 334.4 1672.95 350.95 1664.8 372.35
M 1244.8 261.3
Q 1247.55 258.9 1244.9 261.25
L 1244.8 261.3
M 376.25 146.7
L 371 118.5 376.25 129.45 383.15 145.75 376.25 146.7 Z"/>
</g>
</defs>

<g transform="matrix( 1, 0, 0, 0.910186767578125, 109.5,990.9) ">
<g transform="matrix( 1, 0, 0, 1, 0,0) ">
<use xlink:href="#S_mbolo_5_0_Layer0_0_FILL"/>
</g>
</g>

<g transform="matrix( 1, 0, 0, 0.910186767578125, 132,1444.75) ">
<g transform="matrix( 1, 0, 0, 1, 0,0) ">
<use xlink:href="#S_mbolo_4_0_Layer0_0_FILL"/>
</g>
</g>
</svg>
