
<svg xmlns="http://www.w3.org/2000/svg" version="1.1" xmlns:xlink="http://www.w3.org/1999/xlink" preserveAspectRatio="none" x="0px" y="0px" width="2000px" height="2000px" viewBox="0 0 2000 2000">
<defs>
<g id="Layer2_0_FILL">
<path fill="#000000" stroke="none" d="
M 1466.3 967.2
Q 1463.85 964.7 1461.2 962.55 1454.6 957.25 1447.6 952.25 1427.2 937.8 1403.55 929.75 1402.1 926.9 1399.3 924.9 1390.6 919.05 1380.3 923.15 1296.85 955.7 1213.15 987.7 1223.85 944.6 1238.25 902.7 1244.55 884.4 1231.95 871.6 1224.6 864 1216.4 857.35 1206.35 849.15 1195.85 841.6 1191.1 838.15 1185.95 835.25 1182.45 833.25 1178.55 833.4 1168.55 834.1 1159.15 837.9 1088.1 866.35 1017.3 895.35 1040.25 812.65 1061.3 729.55 1065.7 712.05 1063.8 694.35 1063.3 689.9 1060.05 686.65 1058 684.7 1055.55 683.1 1053.3 681.65 1051 680.3 1040.85 674.35 1030.6 668.7 1011.2 657.85 990.65 649.95 990.45 649.55 990.25 649.15 990.05 648.7 989.75 648.35 989.15 647.55 988.4 646.95 987.6 646.4 986.7 646.05 986.2 645.8 985.7 645.65 985.1 645.6 984.55 645.55 983.9 645.5 983.3 645.5 982.7 645.55 982.1 645.65 981.5 645.75 980.95 645.85 979.9 646.2 978.85 646.55 968.1 643.5 958.8 650 932.35 668.3 904.85 684.6 867.2 707.05 829.6 729.35 796.15 749.25 763.5 770.35 730.85 791.45 699.05 813.7 667.2 835.9 636 859.15 608.2 879.85 581 901.55 548.75 927.35 520.3 957.05 518.65 958.85 517.05 960.65 515.85 962.1 514.8 963.65 513.5 965.45 512.4 967.4 510.3 971.15 509.8 975.3 509.1 980.9 512.6 985.2 515.7 989.15 520.8 989.6 548.4 1022.85 578.7 1053.55 586.05 1060.9 593.45 1068.25 604.6 1079.2 616.05 1089.9 627.6 1100.6 639.45 1110.85 805.2 1254.6 1007.1 1341.05 1037.15 1353.9 1067.3 1366.55 1169.55 1409.7 1279.85 1418.15 1293.35 1418.9 1307.05 1418.75 1313.95 1418.7 1320.3 1416.1 1404.1 1380.95 1485.2 1344.35 1499.9 1337.75 1510.15 1325.35 1522 1310.9 1526.65 1292.5 1553.15 1187.4 1582.3 1083 1584.25 1075.95 1584.4 1068.35 1584.5 1065.05 1584.5 1061.65 1584.55 1057.4 1582.85 1053.7 1581.4 1050.45 1578.75 1048.2 1576.1 1045.95 1572.8 1046.35 1560.85 1047.15 1557.15 1059.25
L 1547.5 1063.75
Q 1546.1 1063.5 1544.75 1063.3 1541.75 1063.15 1538.95 1064.1 1535.7 1065.25 1532.8 1067.2 1529.55 1069.3 1526.45 1071.55 1520.95 1075.5 1515.4 1079.1 1468.3 1109.65 1420.8 1139.85 1445.6 1069.95 1470.9 1000.2 1474.35 990.65 1473.15 980.55 1472.7 976.9 1471.1 973.75 1469.2 970.1 1466.3 967.2
M 1374.55 955
Q 1373.05 959.15 1371.5 963.3 1343.7 1036.8 1333.25 1114.6 1330.15 1137.5 1329.9 1160.6 1329.75 1175.3 1329.75 1189.9 1329.7 1207.8 1341.55 1219.95 1327.7 1237 1312.8 1253.05 1297.8 1269.25 1281.85 1284.25 1237.25 1326.05 1194.7 1369.85 1128.05 1355.15 1064.35 1330.15 1059.55 1328.25 1054.75 1326.35 1046.45 1322.95 1038.25 1319.45 985.7 1297.5 935.1 1271.25 889.75 1247.75 845.4 1222.75 794 1193.75 744 1162.55 726.1 1151.4 708.7 1139.25 654.25 1101.15 607.5 1053.85 717.6 959.6 829.6 867.35 836.8 861.35 844.05 855.4 894.5 814.45 950 780.4 943.7 807.35 939.4 834.5 932.6 877.1 925.05 920 924.25 924.45 924.6 929.05 925.75 945.6 940.05 940.55
L 942.65 938.15
Q 951.8 939.15 960.5 936.15 978.9 929.85 996.3 924.65 997.75 925.2 999.25 924.95 1008.2 925.85 1011.55 917.1
L 1153.5 861.7
Q 1126.15 916.3 1095.6 970.7 1085.85 988.1 1076.5 1005.6 1066.05 1025.15 1061.85 1046.55 1058.6 1063.05 1073.95 1067.15 1076.7 1067.9 1079.4 1066.85 1137.35 1044.9 1196.1 1025.6 1198.05 1024.9 1199.9 1024.15 1287.05 989.15 1374.55 955
M 1401.95 958.75
L 1403.25 954.75
Q 1412.85 962 1421.45 970.3 1422.6 971.45 1423.8 972.55 1431.45 979.45 1437.5 987.65 1441 992.35 1438.9 997.95 1412 1070 1385.9 1142.4 1385.2 1144.25 1384.6 1146.15 1382.9 1151.4 1382.75 1156.85 1382.6 1160.9 1384.2 1164.85
L 1364.1 1180.95
Q 1364.85 1147.4 1368.45 1114.2 1373 1071.85 1382.25 1030.4 1390.35 994.1 1401.95 958.75
M 1507.65 1185.6
L 1534.15 1151.1
Q 1525.05 1190.85 1514.95 1230.4 1508.55 1255.35 1501.15 1280 1498.6 1288.55 1495.3 1296.8 1491.25 1306.9 1482.15 1312.6 1462.2 1324.85 1440.65 1334.7 1397.5 1354.4 1353.8 1373.1 1377.45 1348.65 1399.3 1322.6 1427.05 1289.4 1453.55 1254.9 1480.35 1220 1507.65 1185.6
M 1468.2 1140
Q 1499.95 1116.25 1535.8 1100.55 1485.65 1167.25 1435.15 1233.25 1374.8 1312.1 1307.7 1385.3
L 1218.15 1374.55
Q 1237.15 1351.9 1258.65 1331.35 1282.7 1308.35 1305.8 1284.45 1336.25 1253 1363.95 1219.1 1378.3 1201.55 1397.45 1188.55 1432.95 1164.45 1468.2 1140
M 1211.2 884.45
Q 1213.15 886.15 1213.35 888.5 1214.8 903.4 1207.65 917.85 1206.95 919.2 1206.45 920.65 1205.95 922.15 1205.45 923.65 1202 933.35 1198.05 943.15 1186.4 972.05 1176.85 1001.6
L 1092.9 1033.7 1181.9 861.75
Q 1195.6 872.25 1209.25 882.8 1210.25 883.6 1211.2 884.45
M 986.85 668.75
Q 986.9220703125 668.792578125 987 668.8 1011.024609375 683.03984375 1035.9 696.3 1042.8 699.95 1042.05 707.75 1039.4 736.05 1030.8 762.9 1018.65 801.05 1008.25 839.45 999.2 872.75 990.65 906.25
L 946.2 924.45
Q 951.05 883.1 957.15 841.75 963.55 798.6 973.9 756.35 984.4 713.45 986.6 669.5
L 986.85 668.75
M 967.45 686.7
Q 967.5373046875 687.0953125 967.6 687.5 968.4251953125 691.93671875 967.6 697.3 964.45 718.35 960.55 739.15 958.85 748.4 954.35 753.9 946.6 756.8 939.65 761.25 921.3 772.9 903.35 785.2 884.1 798.35 865.45 812.45 831.05 838.4 798.6 866.65 775.5 886.7 752.85 907.15 676.15 976.1 600.1 1046.4
L 539 981.45
Q 551.1 970.15 563.7 958.85 592.3 933.3 622.3 909.4 654.2 883.95 687.65 860.15 718.35 838.25 749.85 817.7 784.4 795 819.7 773.45 855.2 751.85 891.15 730.85 928.25 709.1 965.6 687.75
L 967.45 686.7 Z"/>

<path fill="#FF0000" stroke="none" d="
M 967.6 687.5
L 965.6 687.75
Q 928.25 709.1 891.15 730.85 855.2 751.85 819.7 773.45 784.4 795 749.85 817.7 718.35 838.25 687.65 860.15 654.2 883.95 622.3 909.4 592.3 933.3 563.7 958.85 551.1 970.15 539 981.45
L 600.1 1046.4
Q 676.15 976.1 752.85 907.15 775.5 886.7 798.6 866.65 831.05 838.4 865.45 812.45 884.1 798.35 903.35 785.2 921.3 772.9 939.65 761.25 946.6 756.8 954.35 753.9 958.85 748.4 960.55 739.15 964.45 718.35 967.6 697.3 968.4251953125 691.93671875 967.6 687.5
M 1535.8 1100.55
Q 1499.95 1116.25 1468.2 1140 1432.95 1164.45 1397.45 1188.55 1378.3 1201.55 1363.95 1219.1 1336.25 1253 1305.8 1284.45 1282.7 1308.35 1258.65 1331.35 1237.15 1351.9 1218.15 1374.55
L 1307.7 1385.3
Q 1374.8 1312.1 1435.15 1233.25 1485.65 1167.25 1535.8 1100.55
M 1534.15 1151.1
L 1507.65 1185.6
Q 1480.35 1220 1453.55 1254.9 1427.05 1289.4 1399.3 1322.6 1377.45 1348.65 1353.8 1373.1 1397.5 1354.4 1440.65 1334.7 1462.2 1324.85 1482.15 1312.6 1491.25 1306.9 1495.3 1296.8 1498.6 1288.55 1501.15 1280 1508.55 1255.35 1514.95 1230.4 1525.05 1190.85 1534.15 1151.1 Z"/>

<path fill="#41344A" stroke="none" d="
M 987 668.8
L 986.6 669.5
Q 984.4 713.45 973.9 756.35 963.55 798.6 957.15 841.75 951.05 883.1 946.2 924.45
L 990.65 906.25
Q 999.2 872.75 1008.25 839.45 1018.65 801.05 1030.8 762.9 1039.4 736.05 1042.05 707.75 1042.8 699.95 1035.9 696.3 1011.024609375 683.03984375 987 668.8
M 1213.35 888.5
Q 1213.15 886.15 1211.2 884.45 1210.25 883.6 1209.25 882.8 1195.6 872.25 1181.9 861.75
L 1092.9 1033.7 1176.85 1001.6
Q 1186.4 972.05 1198.05 943.15 1202 933.35 1205.45 923.65 1205.95 922.15 1206.45 920.65 1206.95 919.2 1207.65 917.85 1214.8 903.4 1213.35 888.5
M 1403.25 954.75
L 1401.95 958.75
Q 1390.35 994.1 1382.25 1030.4 1373 1071.85 1368.45 1114.2 1364.85 1147.4 1364.1 1180.95
L 1384.2 1164.85
Q 1382.6 1160.9 1382.75 1156.85 1382.9 1151.4 1384.6 1146.15 1385.2 1144.25 1385.9 1142.4 1412 1070 1438.9 997.95 1441 992.35 1437.5 987.65 1431.45 979.45 1423.8 972.55 1422.6 971.45 1421.45 970.3 1412.85 962 1403.25 954.75
M 1371.5 963.3
Q 1373.05 959.15 1374.55 955 1287.05 989.15 1199.9 1024.15 1198.05 1024.9 1196.1 1025.6 1137.35 1044.9 1079.4 1066.85 1076.7 1067.9 1073.95 1067.15 1058.6 1063.05 1061.85 1046.55 1066.05 1025.15 1076.5 1005.6 1085.85 988.1 1095.6 970.7 1126.15 916.3 1153.5 861.7
L 1011.55 917.1
Q 1008.2 925.85 999.25 924.95 997.75 925.2 996.3 924.65 978.9 929.85 960.5 936.15 951.8 939.15 942.65 938.15
L 940.05 940.55
Q 925.75 945.6 924.6 929.05 924.25 924.45 925.05 920 932.6 877.1 939.4 834.5 943.7 807.35 950 780.4 894.5 814.45 844.05 855.4 836.8 861.35 829.6 867.35 717.6 959.6 607.5 1053.85 654.25 1101.15 708.7 1139.25 726.1 1151.4 744 1162.55 794 1193.75 845.4 1222.75 889.75 1247.75 935.1 1271.25 985.7 1297.5 1038.25 1319.45 1046.45 1322.95 1054.75 1326.35 1059.55 1328.25 1064.35 1330.15 1128.05 1355.15 1194.7 1369.85 1237.25 1326.05 1281.85 1284.25 1297.8 1269.25 1312.8 1253.05 1327.7 1237 1341.55 1219.95 1329.7 1207.8 1329.75 1189.9 1329.75 1175.3 1329.9 1160.6 1330.15 1137.5 1333.25 1114.6 1343.7 1036.8 1371.5 963.3 Z"/>
</g>

<g id="Layer1_0_FILL">
<path fill="#000000" fill-opacity="0.2" stroke="none" d="
M 1482.85 1176.4
Q 1481.35 1180.5 1479.75 1186.9 1478.85 1190.45 1477.15 1197.5 1473.4 1211.7 1465.25 1226.8 1458.7 1238.9 1448.1 1253.65 1418 1295.65 1378.65 1330.15 1372.35 1335.65 1369.9 1338.3 1365.35 1343.2 1363.45 1348.05 1361.3 1353.45 1362 1359.45 1362.65 1365.45 1365.95 1370.2 1369.25 1374.95 1374.65 1377.65 1380 1380.35 1385.8 1380.1 1391.6 1379.85 1398.15 1376.55 1402.35 1374.45 1409.3 1369.55 1432.5 1353.15 1442.85 1346.4 1461.9 1333.95 1478 1326 1486.25 1321.95 1488.8 1320.4 1494.65 1316.9 1497.9 1312.75 1501.05 1308.8 1503.05 1302.85 1504.35 1299.05 1505.85 1291.8
L 1531.45 1172.05
Q 1532.75 1166 1533.05 1162.6 1533.4 1157.25 1532.05 1153.25 1530.45 1148.55 1526.15 1145.85 1521.6 1143.05 1517.35 1144.7 1515.15 1145.55 1512.65 1148.1 1508.6 1152.2 1508.45 1152.35 1506.25 1154.2 1501.75 1156.3 1496.5 1158.7 1494.75 1159.85 1487.05 1164.8 1482.85 1176.4
M 1388.15 966.2
Q 1386.85 969.1 1385.2 974 1376.7 999.45 1370.2 1032.45 1366.3 1052.25 1360.2 1092.05
L 1354.5 1129.2
Q 1352.95 1139.25 1353.05 1144.95 1353.25 1153.65 1356.75 1159.7 1361.55 1167.95 1371.8 1170.2 1382.05 1172.45 1389.95 1167.05 1395.4 1163.25 1399.1 1156.15 1401.95 1150.75 1404.15 1142.4 1406.65 1133.2 1409.6 1117.6 1413.2 1098.8 1414.6 1092.65 1424.25 1050.2 1449.75 1004.2 1453.9 996.7 1455.35 993.4 1458.05 987.15 1458.5 981.85 1458.95 976.25 1457.05 970.8 1455.1 965.35 1451.25 961.25 1447.4 957.15 1442.05 954.9 1436.75 952.7 1431.1 952.8 1429.7 952.85 1424.7 953.4 1420.7 953.85 1418.25 953.6 1416.6 953.4 1412.35 952.35 1408.65 951.4 1406.4 951.35 1402.4 951.3 1398.55 953.55 1395 955.55 1392.3 959.05 1390 962 1388.15 966.2
M 1172 876.35
Q 1170 879.2 1166.85 884.8
L 1150.65 913.5
Q 1145.5 922.55 1143 926.5 1140.75 929.95 1134.7 938.35 1129.3 945.85 1126.55 950.35 1119 962.75 1115.35 977.1 1114.25 981.25 1113.95 982.3 1112.95 985.15 1111.6 987 1110.4 988.65 1108.2 990.4 1105.6 992.35 1104.3 993.35 1096.45 999.55 1093.95 1008.15 1092.65 1012.6 1093.15 1017.25 1093.7 1022 1096.05 1025.85 1099.2 1030.95 1105.2 1033.75 1110.85 1036.45 1117.3 1036.35 1128.05 1036.2 1140.6 1028.7 1152.5 1021.65 1156.25 1013.25 1157.15 1011.25 1157.45 1010.75 1158.3 1009.4 1159.35 1008.9 1160.6 1008.3 1162.35 1008.7 1163 1008.85 1165.4 1009.7 1171.4 1011.9 1177.95 1010.25 1184.45 1008.65 1188.75 1003.9 1191.6 1000.7 1193.65 995.8 1195 992.6 1196.7 986.65 1206.1 954.15 1214 920.7 1216 912.45 1216.95 907.3 1218.25 899.9 1218.5 893.7 1218.85 883.8 1215.85 877.35 1213.55 872.4 1209.05 868.9 1204.6 865.4 1199.25 864.25 1193.9 863.1 1188.4 864.4 1182.9 865.7 1178.6 869.1 1175.15 871.85 1172 876.35
M 962.45 757
Q 961.25 760.45 960.2 766.95 956.4 789.6 954.75 801.15 952 820.15 950.75 835.55 950.15 842.8 949.15 857.3 948.15 870 946.45 878.9 945.7 883 943.85 891.15 942.3 898.5 941.9 903.55 940.75 918.35 947.3 927.55 951.9 933.95 959.8 936.75 967.65 939.5 975.35 937.55 983 935.6 988.75 929.6 994.45 923.65 996.25 915.9 997.6 910.35 997.05 898.9 996.5 887.45 997.8 881.9 999.25 875.6 1004.55 867.1 1012.05 855.05 1013.1 852.9 1015.3 848.45 1017.15 842.55 1018.35 838.7 1020.1 831.75 1027.4 803.15 1031.55 783.25 1037.15 756.75 1039.85 734.15 1041.2 722.6 1041.25 714.8 1041.3 704.2 1039.2 695.7 1036.8 685.8 1031.25 678.1 1025.2 669.7 1016.8 665.8 1007.8 661.65 997.8 663.9 987.45 666.2 982.4 674.2 979.9 678.1 978.7 683.7 977.8 687.65 977.35 694 976.05 712.9 977.4 731.4 977.6 733.95 977.55 735.3 977.5 737.45 976.85 739.05 975.85 741.55 972.65 744.15 967.45 748.4 967.4 748.45 964.2 751.65 962.45 757 Z"/>
</g>
</defs>

<g transform="matrix( 1, 0, 0, 1, 0,0) ">
<use xlink:href="#Layer2_0_FILL"/>
</g>

<g transform="matrix( 1, 0, 0, 1, 0,0) ">
<use xlink:href="#Layer1_0_FILL"/>
</g>
</svg>
