
<svg xmlns="http://www.w3.org/2000/svg" version="1.1" xmlns:xlink="http://www.w3.org/1999/xlink" preserveAspectRatio="none" x="0px" y="0px" width="2000px" height="2000px" viewBox="0 0 2000 2000">
<defs>
<g id="Layer2_0_FILL">
<path fill="#000000" stroke="none" d="
M 1073.6 780.5
Q 1069 778.95 1064.55 780.65 1019.7 797.7 975.6 817.75 957.15 826.1 938.05 832.8 910.1 842.45 884.65 856.7 882.3 857.95 880.9 860.15 868.3 880.2 860.9 903.1 857.4 914.05 853.85 925 847.75 943.9 843.35 963.35 841.35 964.9 839.65 966.9 836.9 970.15 836.15 974.55 834.6 984.05 838.6 993 856.6 1033.05 873.25 1073.65 889.65 1113.7 900.75 1155.6 904.3 1168.95 909.75 1181.4 915.55 1194.65 929.05 1188.8 945.5 1181.7 960.65 1171.9 993.85 1150.4 1028.8 1131.7 1063.75 1113.1 1100.3 1097.55 1122.3 1090.3 1125.15 1067.9 1126.25 1059.45 1129 1051.2 1142.95 1009.25 1160.7 971.05 1162.8 970.85 1164.7 970.05 1170.25 967.7 1170.35 961.65 1170.45 952.7 1165.95 945.15 1157.15 930.5 1148.95 915 1143.25 904.2 1137.8 893.5 1122.5 863.35 1106.5 833.45 1101.85 824.85 1097.4 816.2 1092.5 806.6 1085.65 798.25 1085.75 784.75 1073.6 780.5
M 1047.9 821.1
Q 1046.85 824.45 1045.6 827.55 1030.8 863.6 1023.55 901.6
L 943.75 932.3 870.1 956.35
Q 881 922.5 892.4 891.65 895.9 882.15 905.65 878.3 976.9 850.05 1047.9 821.1
M 1059.6 906.15
L 1056.1 901.4 1078.75 829.75 1137.5 950.1 1106 1036.35 1059.6 906.15
M 1036.75 927.05
L 1086.85 1069.9 930.55 1157.5 898.15 1068.25 862.05 985.4
Q 897.8 978.75 932.3 966.35 984.75 947.45 1036.75 927.05 Z"/>

<path fill="#B2A03D" stroke="none" d="
M 1086.85 1069.9
L 1036.75 927.05
Q 984.75 947.45 932.3 966.35 897.8 978.75 862.05 985.4
L 898.15 1068.25 930.55 1157.5 1086.85 1069.9
M 1056.1 901.4
L 1059.6 906.15 1106 1036.35 1137.5 950.1 1078.75 829.75 1056.1 901.4
M 1045.6 827.55
Q 1046.85 824.45 1047.9 821.1 976.9 850.05 905.65 878.3 895.9 882.15 892.4 891.65 881 922.5 870.1 956.35
L 943.75 932.3 1023.55 901.6
Q 1030.8 863.6 1045.6 827.55 Z"/>
</g>

<g id="Layer1_0_FILL">
<path fill="#000000" fill-opacity="0.2" stroke="none" d="
M 1063.4 809.25
Q 1057.05 809 1053.9 808.75 1048.4 808.35 1044.55 807.3 1042.4 806.7 1035.7 804.05 1030.25 801.9 1026.75 801.4 1019.35 800.4 1010.55 804.35 1006.05 806.35 995.55 812.95 977.95 824.05 953.8 834.95 941.5 840.45 910.05 853.15 898.75 857.65 892.6 862.3 883.9 868.85 882.4 877.35 881.8 880.85 882.95 891.1 883.95 899.7 881.75 904.3 880.1 907.8 875.45 911.65 868.95 917.1 867.95 918.2 863.65 922.8 862.2 929.25 860.7 935.65 862.6 941.7 864.45 947.75 869.25 952.2 874.1 956.65 880.25 958.1 887.55 959.8 896.6 957.05 902.45 955.3 912.25 950.3
L 961 925.5
Q 964.9 923.5 967 922.7 970.4 921.4 973.35 921.25 976.35 921.1 981.1 922.25 987.05 923.7 988.8 923.9 994.15 924.45 1001.6 922.4 1005.85 921.25 1014.25 918.6 1017.05 917.85 1024.9 916.4 1031.65 915.15 1035.45 913.9 1041.1 912.05 1045.2 908.9 1049.85 905.3 1051.7 900.55 1060.45 948.75 1074.55 996 1076.65 1003.15 1078.45 1007.1 1081.15 1013 1085 1016.5 1092.35 1023.2 1103.55 1022.25 1114.35 1021.35 1122.05 1014.15 1129.1 1007.55 1132.55 997.15 1135.65 987.9 1135.6 976.9 1135.55 968.55 1133.6 956.65 1131.15 943.25 1130.1 936.5 1128.55 924.65 1127.65 918.75 1126.1 908.35 1123.85 901.25 1121.1 892.45 1111.9 875.05 1103.05 858.25 1100.35 848.65 1097.9 837.9 1096.4 832.7 1093.7 823.55 1089 818.65 1084.55 814 1077.25 811.65 1071.45 809.75 1063.4 809.25 Z"/>
</g>
</defs>

<g transform="matrix( 1, 0, 0, 1, 0,0) ">
<use xlink:href="#Layer2_0_FILL"/>
</g>

<g transform="matrix( 1, 0, 0, 1, 0,0) ">
<use xlink:href="#Layer1_0_FILL"/>
</g>
</svg>
