
<svg xmlns="http://www.w3.org/2000/svg" version="1.1" xmlns:xlink="http://www.w3.org/1999/xlink" preserveAspectRatio="none" x="0px" y="0px" width="2000px" height="2000px" viewBox="0 0 2000 2000">
<defs>
<g id="Layer2_0_FILL">
<path fill="#000000" stroke="none" d="
M 1702.95 1129.15
Q 1694.75 1087.35 1678.1 1048.25 1661.05 1008.35 1633.2 975.05 1613.75 951.8 1588.4 935.35 1556.9 914.95 1534.05 885.25 1507.35 850.4 1469.8 827 1454.3 816.25 1438.7 805.85 1402.5 781.5 1363.6 762 1324.45 742.35 1283.4 727.05 1242.5 711.7 1200.5 699.7 1160.5 688.2 1120.05 678.05 1079 667.75 1037.55 658.1 996.5 648.35 954.85 642.05 916 636.4 877.1 634.45 837.8 632.55 798.4 634.35 759.1 636.25 720.25 641.85 681.45 647.45 643.45 656.7 605.45 665.85 568.85 679.3 531.25 693 497.55 714 462.05 735.95 434.6 767.4 406.85 799.1 388.45 837.05 370.25 874.65 361.4 915.5 352.55 956.55 352.15 998.45 351.75 1040.45 358.3 1081.95 364.45 1120.8 378.65 1157.4 393.5 1195.65 417.05 1229.15 440.35 1262.35 468.55 1291.4 497.8 1321.55 530.4 1348.15 563.85 1375.35 600.25 1398.25 634.15 1419.6 670.2 1436.7 706.9 1454.2 745.1 1468.1 783.5 1481.95 822.8 1493.2 862.55 1504.45 902.8 1514.45 944.35 1524.8 986.15 1534.6 1028.1 1544.45 1070.25 1553.15 1113.2 1562 1156.55 1568.05 1197.75 1574 1239.3 1576.4 1282.95 1578.95 1326.65 1576.5 1368.95 1574.15 1410.65 1566.1 1453.5 1557.85 1494.4 1542.6 1535.7 1527.35 1572.6 1503.75 1608.45 1480.7 1633.1 1446 1657.45 1411.7 1676.35 1374 1694.5 1337.75 1704.7 1298.3 1715.2 1257.85 1713.35 1216.2 1711.4 1172.3 1702.95 1129.15
M 1487.1 871.45
Q 1486.4 872 1486 872.75 1478.85 885.25 1490.45 895.8 1502.9 909.75 1517.35 921.45 1545.15 944.05 1573.35 966.2 1598.55 986 1617.25 1012.15 1641.1 1045.5 1653.4 1084.75 1671.15 1141.45 1677.2 1200.6 1680.4 1231.8 1675.15 1262.65 1668.4 1302.5 1653.45 1340.2 1637.05 1381.5 1611.45 1417.65 1587.9 1450.9 1555.25 1475.45 1525.95 1497.55 1492.25 1512.45 1461.1 1526.1 1428.2 1533.95 1392.5 1542.3 1356 1545.4 1331.6 1547.45 1307.2 1547.85 1283.6 1548.2 1260.1 1547.25 1204.9 1545.2 1150.3 1538.05 1093.2 1530.65 1036.85 1519.15 1010.9 1513.8 984.8 1507.9 936.35 1496.8 888.25 1484.2 852.25 1474.6 816.65 1464.35 778 1453.1 740.3 1439.3 699.8 1424.5 661.25 1404.55 623.6 1385.05 588.65 1360.85 538.1 1325.75 494.7 1282.05 467.7 1254.9 444.05 1224.5 423.15 1197.7 409 1166.55 396.9 1139.75 389.95 1111.5 379.7 1069.6 377.25 1026.4 373.7 963.8 389.85 903.35 403.9 850.8 435.25 806.35 454.95 778.45 481.1 756.4 503.2 737.7 529 724.4 553.7 711.65 579.85 702.3 612.15 690.6 645.35 682.15 676.8 674.05 708.8 668.95 741.25 663.65 774.05 661.2 838.95 656.4 903.7 662.05 976.7 669.05 1048.3 685.9 1098.9 697.95 1149.2 711.15 1165.5 715.45 1181.7 719.75 1201.25 725.1 1220.65 731.05 1239.9 737.05 1259 743.8 1376.35 785.45 1475.1 861.2 1481.35 866 1487.1 871.45
M 936.6 735.3
Q 911.1 755.9 919.05 787.95 920.85 795.15 925.8 800.65 951.45 828.65 988.2 841 1029.3 855 1072.5 852.4 1106.4 850.25 1130.25 826.85 1137.7 819.5 1139.65 809.2 1143.55 788.55 1128.2 772.7 1097.5 741.05 1054.55 731.9 1051.95 731.55 1049.4 731.3 1032.5 729.35 1016.9 722.95 973.6 705.25 936.6 735.3
M 933.65 773.8
Q 934 767.35 937.4 762 950.85 740.65 976.2 734.75 979.55 734.05 983.05 734.05 1004.5 734.15 1025 742.05
L 1027.95 747.6
Q 1029.65 751.1 1033.2 752.1 1077.05 763.35 1111.95 791.75 1120.75 798.95 1115.5 808.1 1110.9 816.1 1105.5 817.25 1104.65 813.65 1101.8 811.4 1058.45 777.35 1002.7 769.95 990.35 768.55 978.05 767.3 954.1 764.35 933.65 773.8
M 721.5 770.4
Q 718.2 759.35 709.4 751.85 679.2 726.05 638.55 725.5 594.75 724.95 559 750.8 543.5 756.05 530.85 766.2 515.2 778.65 510.95 797.75 508.6 808.2 513 817.85 523.95 841.9 550.8 846.05 569.4 848.9 588.4 850.45 623.95 853.95 659.25 848.8 689.45 844.4 709.85 821.65 730.05 799.1 721.5 770.4
M 699.7 787.55
Q 680.5 776.85 658.35 776.5 620.55 775.9 584.75 789.2 564.75 796.6 547.45 808.75 538.35 815.1 531.9 820.4 522.85 809.65 528.05 796.35 535 778.35 552.1 769.05 591.65 747.7 635.8 751.45 654.1 751.8 671.15 756.9 695.6 764.3 699.7 787.55
M 1374.15 1214.7
Q 1366.3 1204.35 1358.35 1194.1 1332 1160.3 1300.9 1131.1 1269.7 1101.8 1232.8 1080.1 1198.7 1060.1 1163.3 1042.55 1124.25 1023.15 1083.75 1006.85 1046.4 991.85 1007.8 980.75 965.6 968.7 922.35 961.25 884.25 954.6 845.65 951.8 802 948.35 758.1 949.25 714.95 950.1 672.5 956.1 642.15 960.25 615.35 974.9 577.55 995.45 563.5 1036.15 548.95 1078.5 561.5 1121.55 573.95 1164.15 603.35 1197.65 629.8 1227.8 662.85 1250.65 697 1274.3 733.35 1294.55 766.55 1313.15 800.65 1329.85 833.75 1346.15 867.95 1360.45 901.2 1374.35 935.3 1386.1 969.5 1398.1 1004.25 1407.65 1040.65 1417.65 1077.75 1424.8 1113.65 1431.75 1150.2 1435.7 1190.15 1440.1 1230.45 1440.8 1271.75 1441.5 1312.8 1436.9 1356.05 1431.7 1389.7 1404.55 1405 1392.15 1412.85 1374 1430.9 1332.4 1415.3 1289 1400.75 1248.45 1374.15 1214.7
M 1334.95 1340.65
Q 1321 1340.35 1307.2 1339.3 1291.75 1338 1276.55 1336 1243.4 1331.55 1210.55 1324.9 1165.2 1315.6 1120.75 1302.6 1050.45 1282.15 983.3 1253.3 879.05 1208.55 785.75 1144.1 695.75 1081.9 642.2 987.15 676.5 975.15 712.95 972.5 753.3 969.85 793.6 970.75 835.2 971.7 876.45 976.85 916.7 981.9 956.4 990.65 996.7 999.45 1036.2 1011.7 1076.15 1023.95 1114.4 1040.25 1154.9 1057.5 1189.4 1084.95 1194.65 1089.15 1200.7 1091.85 1228.95 1104.15 1254.3 1121.75 1264.05 1129.25 1273.05 1137.7 1282.65 1146.75 1291.65 1156.45 1305.65 1171.65 1319.5 1187.05 1345.85 1216.4 1368.65 1248.6 1396.6 1288.05 1398 1334.35 1366.9 1341.4 1334.95 1340.65
M 1395.15 1355.1
Q 1379.45 1393.75 1338.7 1405.4 1302.65 1415.85 1264.75 1416.55 1224.2 1417.25 1183.45 1414.5 1141.7 1411.7 1100.6 1404.75 1058.15 1397.6 1016.4 1386.45 976.05 1375.75 936.6 1361.75 901.95 1349.5 868.1 1334.95 833.4 1319.95 799.8 1302.9 765.15 1285.45 731.4 1266.15 696.55 1246.1 663.9 1222.5 628.35 1196.8 604.1 1160.45 579.3 1123.25 580.35 1078.95 581.45 1033.25 615.1 1002.9
L 631 992.4
Q 642.9 1016.6 658.4 1038.7 680.45 1070.05 707.75 1097.15 728.05 1117.3 750.3 1135.1 765.45 1147.25 781.4 1158.8 798.25 1170.9 815.8 1182.1 834.45 1193.95 853.5 1204.9 911.8 1238.6 973.45 1265.75 1053.45 1301.15 1137.9 1324.4 1207.95 1343.7 1280 1354.1 1337.6 1362.45 1395.15 1355.1
M 1592.8 1083.05
Q 1567.75 1062.5 1542.5 1080.65 1527.3 1092.05 1527.55 1110.8 1527.9 1141.35 1536.65 1170.85 1548.85 1212.1 1573.45 1247.15 1587.2 1266.7 1609 1274.55 1617.15 1277.55 1624.9 1273.7 1650.15 1261.5 1656.3 1233.2 1665.65 1189.9 1645.95 1149.85 1626.75 1110.75 1592.8 1083.05
M 1543.35 1099.3
Q 1544.95 1096.75 1547.85 1096.1 1560.55 1099.5 1571.15 1107.75 1598.3 1128.85 1615.1 1159.5 1637.35 1200.25 1618 1241.4
L 1614.6 1244.6 1606.45 1239.8
Q 1611.35 1232.95 1610.7 1224.3 1607.7 1185.4 1585.35 1153.9 1566.95 1128 1540.4 1111.4 1540.45 1110.2 1540.45 1109.05 1540.5 1103.7 1543.35 1099.3
M 1323.15 862.45
Q 1313.3 862.8 1305.85 869.05 1287.6 884.25 1286.8 908.75 1286.05 932.1 1298.35 951.9 1321.75 989.7 1359.5 1012.65 1398.35 1036.15 1443.15 1031.6 1464.5 1029.1 1479.45 1014.4 1487.3 1006.7 1488.3 995.45 1491.75 956.5 1463.05 927.75 1459.2 923.15 1455.6 918.4 1437 893.75 1409.4 880.65 1389.85 871.45 1368.8 866.45 1346.2 860.9 1323.15 862.45
M 1315.75 887.45
Q 1320.95 882.15 1328.3 882.05 1355.3 881.6 1379.2 890.15 1381 894 1384.75 896.45 1396.65 904.2 1407.15 913.7 1425.45 930.2 1441.05 949.45 1450.9 961.65 1456.5 976.35 1463.15 993.65 1445.75 998.25
L 1428 999.15
Q 1420.4 981.85 1411.45 965.05 1391.55 927.65 1351.35 911.75 1345.85 909.55 1341.1 906.5 1326.05 896.9 1309.1 898.95 1310.9 892.35 1315.75 887.45 Z"/>

<path fill="#778A9A" stroke="none" d="
M 1486 872.75
Q 1486.4 872 1487.1 871.45 1481.35 866 1475.1 861.2 1376.35 785.45 1259 743.8 1239.9 737.05 1220.65 731.05 1201.25 725.1 1181.7 719.75 1165.5 715.45 1149.2 711.15 1098.9 697.95 1048.3 685.9 976.7 669.05 903.7 662.05 838.95 656.4 774.05 661.2 741.25 663.65 708.8 668.95 676.8 674.05 645.35 682.15 612.15 690.6 579.85 702.3 553.7 711.65 529 724.4 503.2 737.7 481.1 756.4 454.95 778.45 435.25 806.35 403.9 850.8 389.85 903.35 373.7 963.8 377.25 1026.4 379.7 1069.6 389.95 1111.5 396.9 1139.75 409 1166.55 423.15 1197.7 444.05 1224.5 467.7 1254.9 494.7 1282.05 538.1 1325.75 588.65 1360.85 623.6 1385.05 661.25 1404.55 699.8 1424.5 740.3 1439.3 778 1453.1 816.65 1464.35 852.25 1474.6 888.25 1484.2 936.35 1496.8 984.8 1507.9 1010.9 1513.8 1036.85 1519.15 1093.2 1530.65 1150.3 1538.05 1204.9 1545.2 1260.1 1547.25 1283.6 1548.2 1307.2 1547.85 1331.6 1547.45 1356 1545.4 1392.5 1542.3 1428.2 1533.95 1461.1 1526.1 1492.25 1512.45 1525.95 1497.55 1555.25 1475.45 1587.9 1450.9 1611.45 1417.65 1637.05 1381.5 1653.45 1340.2 1668.4 1302.5 1675.15 1262.65 1680.4 1231.8 1677.2 1200.6 1671.15 1141.45 1653.4 1084.75 1641.1 1045.5 1617.25 1012.15 1598.55 986 1573.35 966.2 1545.15 944.05 1517.35 921.45 1502.9 909.75 1490.45 895.8 1478.85 885.25 1486 872.75
M 1305.85 869.05
Q 1313.3 862.8 1323.15 862.45 1346.2 860.9 1368.8 866.45 1389.85 871.45 1409.4 880.65 1437 893.75 1455.6 918.4 1459.2 923.15 1463.05 927.75 1491.75 956.5 1488.3 995.45 1487.3 1006.7 1479.45 1014.4 1464.5 1029.1 1443.15 1031.6 1398.35 1036.15 1359.5 1012.65 1321.75 989.7 1298.35 951.9 1286.05 932.1 1286.8 908.75 1287.6 884.25 1305.85 869.05
M 1542.5 1080.65
Q 1567.75 1062.5 1592.8 1083.05 1626.75 1110.75 1645.95 1149.85 1665.65 1189.9 1656.3 1233.2 1650.15 1261.5 1624.9 1273.7 1617.15 1277.55 1609 1274.55 1587.2 1266.7 1573.45 1247.15 1548.85 1212.1 1536.65 1170.85 1527.9 1141.35 1527.55 1110.8 1527.3 1092.05 1542.5 1080.65
M 1358.35 1194.1
Q 1366.3 1204.35 1374.15 1214.7 1400.75 1248.45 1415.3 1289 1430.9 1332.4 1412.85 1374 1405 1392.15 1389.7 1404.55 1356.05 1431.7 1312.8 1436.9 1271.75 1441.5 1230.45 1440.8 1190.15 1440.1 1150.2 1435.7 1113.65 1431.75 1077.75 1424.8 1040.65 1417.65 1004.25 1407.65 969.5 1398.1 935.3 1386.1 901.2 1374.35 867.95 1360.45 833.75 1346.15 800.65 1329.85 766.55 1313.15 733.35 1294.55 697 1274.3 662.85 1250.65 629.8 1227.8 603.35 1197.65 573.95 1164.15 561.5 1121.55 548.95 1078.5 563.5 1036.15 577.55 995.45 615.35 974.9 642.15 960.25 672.5 956.1 714.95 950.1 758.1 949.25 802 948.35 845.65 951.8 884.25 954.6 922.35 961.25 965.6 968.7 1007.8 980.75 1046.4 991.85 1083.75 1006.85 1124.25 1023.15 1163.3 1042.55 1198.7 1060.1 1232.8 1080.1 1269.7 1101.8 1300.9 1131.1 1332 1160.3 1358.35 1194.1
M 709.4 751.85
Q 718.2 759.35 721.5 770.4 730.05 799.1 709.85 821.65 689.45 844.4 659.25 848.8 623.95 853.95 588.4 850.45 569.4 848.9 550.8 846.05 523.95 841.9 513 817.85 508.6 808.2 510.95 797.75 515.2 778.65 530.85 766.2 543.5 756.05 559 750.8 594.75 724.95 638.55 725.5 679.2 726.05 709.4 751.85
M 919.05 787.95
Q 911.1 755.9 936.6 735.3 973.6 705.25 1016.9 722.95 1032.5 729.35 1049.4 731.3 1051.95 731.55 1054.55 731.9 1097.5 741.05 1128.2 772.7 1143.55 788.55 1139.65 809.2 1137.7 819.5 1130.25 826.85 1106.4 850.25 1072.5 852.4 1029.3 855 988.2 841 951.45 828.65 925.8 800.65 920.85 795.15 919.05 787.95
M 937.4 762
Q 934 767.35 933.65 773.8 954.1 764.35 978.05 767.3 990.35 768.55 1002.7 769.95 1058.45 777.35 1101.8 811.4 1104.65 813.65 1105.5 817.25 1110.9 816.1 1115.5 808.1 1120.75 798.95 1111.95 791.75 1077.05 763.35 1033.2 752.1 1029.65 751.1 1027.95 747.6
L 1025 742.05
Q 1004.5 734.15 983.05 734.05 979.55 734.05 976.2 734.75 950.85 740.65 937.4 762
M 658.35 776.5
Q 680.5 776.85 699.7 787.55 695.6 764.3 671.15 756.9 654.1 751.8 635.8 751.45 591.65 747.7 552.1 769.05 535 778.35 528.05 796.35 522.85 809.65 531.9 820.4 538.35 815.1 547.45 808.75 564.75 796.6 584.75 789.2 620.55 775.9 658.35 776.5
M 1338.7 1405.4
Q 1379.45 1393.75 1395.15 1355.1 1337.6 1362.45 1280 1354.1 1207.95 1343.7 1137.9 1324.4 1053.45 1301.15 973.45 1265.75 911.8 1238.6 853.5 1204.9 834.45 1193.95 815.8 1182.1 798.25 1170.9 781.4 1158.8 765.45 1147.25 750.3 1135.1 728.05 1117.3 707.75 1097.15 680.45 1070.05 658.4 1038.7 642.9 1016.6 631 992.4
L 615.1 1002.9
Q 581.45 1033.25 580.35 1078.95 579.3 1123.25 604.1 1160.45 628.35 1196.8 663.9 1222.5 696.55 1246.1 731.4 1266.15 765.15 1285.45 799.8 1302.9 833.4 1319.95 868.1 1334.95 901.95 1349.5 936.6 1361.75 976.05 1375.75 1016.4 1386.45 1058.15 1397.6 1100.6 1404.75 1141.7 1411.7 1183.45 1414.5 1224.2 1417.25 1264.75 1416.55 1302.65 1415.85 1338.7 1405.4
M 1547.85 1096.1
Q 1544.95 1096.75 1543.35 1099.3 1540.5 1103.7 1540.45 1109.05 1540.45 1110.2 1540.4 1111.4 1566.95 1128 1585.35 1153.9 1607.7 1185.4 1610.7 1224.3 1611.35 1232.95 1606.45 1239.8
L 1614.6 1244.6 1618 1241.4
Q 1637.35 1200.25 1615.1 1159.5 1598.3 1128.85 1571.15 1107.75 1560.55 1099.5 1547.85 1096.1
M 1328.3 882.05
Q 1320.95 882.15 1315.75 887.45 1310.9 892.35 1309.1 898.95 1326.05 896.9 1341.1 906.5 1345.85 909.55 1351.35 911.75 1391.55 927.65 1411.45 965.05 1420.4 981.85 1428 999.15
L 1445.75 998.25
Q 1463.15 993.65 1456.5 976.35 1450.9 961.65 1441.05 949.45 1425.45 930.2 1407.15 913.7 1396.65 904.2 1384.75 896.45 1381 894 1379.2 890.15 1355.3 881.6 1328.3 882.05 Z"/>
</g>

<g id="Layer1_0_FILL">
<path fill="#000000" fill-opacity="0.2" stroke="none" d="
M 1407.8 1478.9
Q 1364.8 1489.4 1311.45 1492.45 1259.95 1495.4 1199.25 1491.75 1151.95 1488.95 1087.35 1481.2 1044.75 1476.1 1014.65 1471.25 975.35 1464.9 942.75 1456.85 896.25 1445.3 840.2 1424.4 806.1 1411.7 740.15 1384.2 704.05 1369.2 685.55 1360.95 655.45 1347.6 632.15 1335.15 591.45 1313.4 563.6 1290.25 547.35 1276.75 523.15 1251.9 493.4 1221.3 483.8 1212.35 456.3 1188.35 442.9 1176 419.35 1154.4 406.55 1135.7 403.65 1131.55 401.85 1129.75 398.85 1126.8 395.6 1126.4 391.4 1125.9 387.95 1129.45 384.7 1132.8 384.35 1137.35 384 1141.3 385.6 1145.9 386.75 1149.2 389.4 1153.9 401.6 1176.2 421.65 1200.85 433.8 1215.85 459.45 1243.85 495.65 1283.35 515.3 1302.05 547.7 1333 578 1351.95 583.9 1355.6 586.4 1357.8 590.75 1361.5 592.25 1365.7 593.3 1368.65 593.35 1373.55 593.4 1380.4 593.55 1381.6 594.85 1393.55 606.65 1403 615.3 1409.95 630.7 1416.15 669.7 1431.85 719.75 1447.55 750.3 1457.15 810.4 1474.25
L 972 1520.4
Q 1009.65 1531.15 1029.1 1536.3 1060.9 1544.7 1086.75 1549.85 1134.15 1559.3 1186.35 1563.05 1318.05 1572.6 1422.35 1540.2 1481.1 1521.95 1530.5 1490.3 1582.7 1456.9 1619.2 1411.75 1627.05 1402 1636.1 1389.35 1641.7 1381.45 1652.05 1366.25 1684.35 1318.85 1705.8 1287.05 1711.3 1278.95 1713.75 1274.4 1717.65 1267.1 1719 1260.6 1720.55 1252.9 1718.4 1245.75 1716.05 1238 1710.15 1234 1704.1 1229.85 1695.85 1230.7 1688.2 1231.45 1681.6 1236 1676 1239.8 1670.7 1246.45 1667.5 1250.5 1662 1259.05 1618.35 1326.95 1589.7 1361.5 1545.35 1414.9 1497.45 1443.3 1458.3 1466.55 1407.8 1478.9
M 707.9 773.75
Q 702 767.75 692 761.6 656.35 739.5 623.85 739.05 610.05 738.85 602.15 743.85 600.3 745.05 597.35 747.55 594 750.35 592.6 751.35 587.75 754.9 580.1 757.5 571 760.2 566.5 761.55 550.7 766.25 536.45 773.95 524.95 780.2 519.4 786.65 515.75 790.9 513.9 795.85 511.95 801.2 512.6 806.3 513.3 811.85 516.95 816.4 520.6 820.95 525.85 822.85 532.65 825.25 541.75 822.95 546.4 821.8 557.45 817.15 584 805.95 608.6 804.5 622.25 803.75 635.05 806 648.55 808.4 660.15 814.05 664.55 816.2 673.25 820.85 680.9 824.55 687.05 825.2 693.75 825.9 700.3 823.35 706.85 820.8 711.35 815.7 715.8 810.6 717.5 803.8 719.2 796.95 717.65 790.35 715.55 781.55 707.9 773.75
M 950 782.5
Q 953 782.9 957.8 782.65 966.65 782.25 984.4 780.5 1000.1 779.4 1010.8 781 1018.7 782.25 1027.85 785.35 1034.5 787.65 1044.25 791.9 1055.8 796.95 1062.55 800.95 1072.15 806.7 1078.15 813.65 1078.7 814.3 1083.7 820.7 1087.05 825 1089.75 827.3 1096.2 832.85 1105.2 833.5 1114.25 834.15 1121.35 829.55 1128.45 824.9 1131.4 816.3 1134.3 807.65 1131.4 799.75 1129.95 795.8 1126.85 791.65 1124.8 788.9 1120.75 784.5 1108.65 771.6 1100.1 765.05 1090.75 757.9 1078.45 751.95 1068.35 747.1 1054.85 742.45 1039.2 737.1 1027.65 735.15 999.4 730.35 966.35 739.05 954.35 742.15 947.65 746.55 943.2 749.5 940.25 753.45 936.95 757.7 935.95 762.45 934.85 767.5 936.65 772.45 938.55 777.55 942.75 780.15 945.75 782 950 782.5
M 1568.6 1083.45
Q 1564.05 1080.6 1559.85 1079.3 1554.85 1077.75 1549.6 1078.15 1544.3 1078.55 1539.75 1080.95 1535.1 1083.35 1531.8 1087.5 1528.45 1091.7 1527.25 1096.7 1525.35 1104.9 1529.35 1113.95 1532.8 1121.8 1539.9 1128.75 1543.5 1132.25 1553.75 1140.35 1562.7 1147.5 1567.1 1152.4 1574.95 1161.15 1580.55 1174.6 1584.3 1183.65 1588.7 1199.7 1591.35 1209.15 1591.6 1214.5 1591.85 1218.7 1590.5 1230.35 1589.4 1240.3 1590.6 1246.05 1591.75 1251.5 1595.05 1256.1 1598.4 1260.75 1603.15 1263.55 1607.95 1266.35 1613.6 1266.85 1619.3 1267.4 1624.45 1265.5 1630.6 1263.25 1635.35 1257.8 1639.75 1252.8 1642.2 1246.1 1644.3 1240.3 1645.05 1232.95 1645.65 1227.25 1645.45 1219.4 1644.8 1192.7 1637.55 1169.25 1629.65 1143.65 1614.55 1124.55 1607.2 1115.25 1596.7 1105.7 1588.85 1098.65 1576.55 1089.15 1571.65 1085.35 1568.6 1083.45
M 1463.55 957.55
Q 1461.9 954.4 1458.1 948.4 1454.15 942.15 1451.95 938.9 1448.45 933.75 1445.2 929.85 1441.3 925.15 1435.7 919.95 1432.2 916.65 1425.4 910.85 1408.2 896.3 1396.45 888.65 1379.65 877.75 1363.85 873.45 1359.4 872.25 1351.8 870.8 1342.85 869.1 1339.75 868.4 1331.5 866.5 1329.8 866.25 1324.1 865.35 1319.8 866.25 1311.35 868 1306.75 876.4 1302.2 884.8 1305.25 892.85 1308.6 901.5 1319.35 907 1323.15 908.95 1328.8 910.85 1332.05 911.9 1338.55 913.95 1358.7 920.65 1376.2 933.25 1393.7 945.85 1406.55 962.8 1410.6 968.2 1413.1 972.7 1416.15 978.3 1417.35 983.65 1417.8 985.65 1418.65 991.8 1419.3 996.85 1420.3 999.75 1422.6 1006.45 1428.55 1011 1434.5 1015.5 1441.55 1015.95 1448.65 1016.35 1455.1 1012.6 1461.55 1008.85 1464.65 1002.45 1466.45 998.75 1467.25 993.75 1467.75 990.5 1468.1 984.6 1468.45 979.3 1468.35 975.95 1468.25 971.2 1467.35 967.35 1466.3 962.8 1463.55 957.55
M 1374.05 1338.1
Q 1373.95 1338.1 1357.85 1340.35 1312.45 1346.7 1249.45 1334.55 1231.1 1331 1195.4 1322.6 1159.05 1314 1141.45 1310.55 1137.45 1309.75 1097.05 1302.7 1070.2 1297.95 1052.9 1293.6 1020.05 1285.3 982.1 1269.05 955.55 1257.7 914.15 1236.7 843.9 1201.1 802.5 1173.65 743.85 1134.7 706.65 1090.6 668.4 1045.4 647.3 990.15 644.5 982.85 642.2 979.25 638.55 973.7 633.6 972.05 627.1 969.9 619.9 974.6 614.25 978.35 609.05 985.65 593.7 1007.4 586.15 1034 578.75 1059.85 579.55 1087.25 580.3 1114.65 589.1 1140.05 598.15 1166.2 614.65 1187.05 625.4 1200.6 641.1 1214.5 652.4 1224.45 670.9 1238.45 720.7 1276.15 764.2 1301.85 816 1332.5 865.55 1350.25 885.5 1357.4 911.15 1364.55 926.3 1368.75 957.45 1376.6 1005.75 1388.75 1026.8 1394 1065.6 1403.6 1096.35 1410.75 1119.35 1416.1 1134.4 1419.1 1155.3 1423.25 1172.8 1425.4 1225.6 1431.75 1279.6 1423.9 1332.75 1416.2 1382.6 1395.4 1390.35 1392.15 1394.9 1389.6 1401.4 1386 1405.75 1381.7 1410.8 1376.7 1413.15 1370.4 1415.7 1363.6 1414.2 1357.3 1412.4 1349.75 1405.3 1344.45 1398.75 1339.55 1390.2 1338.2 1383.3 1337.15 1374.05 1338.1 Z"/>
</g>
</defs>

<g transform="matrix( 1, 0, 0, 1, 0,0) ">
<use xlink:href="#Layer2_0_FILL"/>
</g>

<g transform="matrix( 1, 0, 0, 1, 0,0) ">
<use xlink:href="#Layer1_0_FILL"/>
</g>
</svg>
