
<svg xmlns="http://www.w3.org/2000/svg" version="1.1" xmlns:xlink="http://www.w3.org/1999/xlink" preserveAspectRatio="none" x="0px" y="0px" width="2000px" height="2000px" viewBox="0 0 2000 2000">
<defs>
<g id="Layer2_0_FILL">
<path fill="#000000" stroke="none" d="
M 1063.4 985
Q 1029.6 963.7 995.05 943 960.6 922.3 925.3 902.2 890.05 882.1 854.8 861.9 824.7 844.55 792.65 832.25 791.05 831.65 789.8 831.05 784.6 828.95 780 831.9 769.65 838.75 775.1 850.3 785.9 873.25 798.35 895.5 819.4 933.1 836.8 972.4 854.15 1011.7 870.4 1051.45 885.5 1088.35 901.1 1124.95 917.4 1163.2 935.85 1200.5 954.05 1237.25 977.7 1270.6 986.15 1282.55 1000.3 1284.7 1018.1 1287.8 1035.85 1283.75 1075.55 1274.5 1111.35 1255.3 1148.9 1235.15 1177 1203.15 1205.3 1171 1218 1130.05 1218.85 1126.55 1219.4 1123 1219.9 1119.85 1220.85 1116.9 1222.15 1112.75 1221.85 1108.3 1220.45 1087.9 1202.85 1076.15 1166.7 1051.95 1130.5 1028.15 1097.1 1006.25 1063.4 985
M 1032.4 1003.75
Q 1072.9 1028.75 1112.4 1055.05 1141.45 1074.5 1169.5 1095 1182.05 1104.1 1187.9 1115.9 1179.2 1144.6 1161.8 1168.8 1136.25 1204.3 1097.75 1225.05 1058.85 1245.95 1014.95 1251.3 1006.2 1252.1 1001.1 1244.85 980.3 1215.25 963.75 1183.1 945.3 1147.25 928.4 1110.55 910.8 1072.35 893.85 1033.95 876.45 994.5 858.45 955.5
L 816.9 872.9
Q 889.35 918.7 963.2 962.15 998.1 982.6 1032.4 1003.75 Z"/>

<path fill="#FF0000" stroke="none" d="
M 1112.4 1055.05
Q 1072.9 1028.75 1032.4 1003.75 998.1 982.6 963.2 962.15 889.35 918.7 816.9 872.9
L 858.45 955.5
Q 876.45 994.5 893.85 1033.95 910.8 1072.35 928.4 1110.55 945.3 1147.25 963.75 1183.1 980.3 1215.25 1001.1 1244.85 1006.2 1252.1 1014.95 1251.3 1058.85 1245.95 1097.75 1225.05 1136.25 1204.3 1161.8 1168.8 1179.2 1144.6 1187.9 1115.9 1182.05 1104.1 1169.5 1095 1141.45 1074.5 1112.4 1055.05 Z"/>
</g>

<g id="Layer1_0_FILL">
<path fill="#000000" fill-opacity="0.2" stroke="none" d="
M 844.15 873.6
Q 836.95 862 829.05 854.4 824.05 849.6 818.7 847.75 812.3 845.5 807.65 848.45 802 852.1 802.65 860.6 803.15 867.25 807.15 875.4
L 989.3 1247.5
Q 993.35 1255.75 996.45 1259.95 1001.2 1266.3 1007 1268.8 1015.15 1272.3 1023.9 1267.6 1032.6 1262.95 1034.3 1254.25 1035.4 1248.45 1033.15 1241.45 1031.75 1236.95 1027.8 1229.2
L 856 895.15
Q 848.6 880.75 844.15 873.6 Z"/>
</g>
</defs>

<g transform="matrix( 1, 0, 0, 1, 0,0) ">
<use xlink:href="#Layer2_0_FILL"/>
</g>

<g transform="matrix( 1, 0, 0, 1, 0,0) ">
<use xlink:href="#Layer1_0_FILL"/>
</g>
</svg>
