
<svg xmlns="http://www.w3.org/2000/svg" version="1.1" xmlns:xlink="http://www.w3.org/1999/xlink" preserveAspectRatio="none" x="0px" y="0px" width="2000px" height="2000px" viewBox="0 0 2000 2000">
<defs>
<g id="Layer2_0_FILL">
<path fill="#000000" stroke="none" d="
M 1370.15 564.5
Q 1365.75 564.65 1362.2 566.8 1358 566.35 1353.9 565.85 1325.95 562.6 1298.1 560.2 1288.05 559.05 1280.05 564.7 1275.35 568.1 1275.3 573.95 1275.1 600.65 1278.25 626.95 1279.55 637.5 1280.5 648.1 1281.6 660.35 1284.1 672.5 1267.05 659.8 1249.05 645.65 1238.65 637.45 1226.9 632.3 1221.75 630.05 1217.35 633.45 1207.85 640.8 1211.4 652.85 1207.95 655.7 1206.9 660.05 1198.55 695.5 1198.65 732.55 1194.45 728.9 1190.65 724.95 1173.65 707.2 1157.3 688.75 1147.15 677.3 1133.95 684.1 1128.4 686.85 1122.85 689.25 1114.85 692.8 1107.45 697.65 1099.9 702.6 1095.75 710.75 1085.7 730.6 1084.7 753.65 1073 736.4 1058.6 721.25 1055.45 717.95 1052.6 714.5 1042.25 702.25 1033.3 689 1028.7 682.2 1020.9 680.65 1012.15 678.9 1005.25 684.8 992.7 695.4 978.75 704.15 975.75 706.1 972.9 708.45 961.85 717.6 959.4 732.25 953.1 770.35 947.75 808.65 902.1 774.3 852.5 746.05 846.65 742.7 841.35 738.55 836.7 734.9 831.65 732.15 816.9 724.25 805 737.4 801 741.8 797.3 746.2 784.75 761.3 770.05 774.35 765.9 778.1 762.55 782.2 761.1 784 759.85 786 751 800.1 749.5 816.7 721.35 795.6 693.9 773.7 679.1 761.85 668.4 776.05 657 791.2 645.55 806.35 632.7 823.4 626.4 843.1 624.95 847.7 626.35 852.45 638.7 894.45 647.85 937.2 656.25 976.7 662.45 1016.45 669.05 1058.9 675.15 1101.5 681.35 1144.8 689.3 1187.95 696.55 1227.2 706.65 1265.65 716.95 1304.7 729.6 1342.95 742.65 1382.5 757 1421.45 760 1433.05 770.65 1435.9 773.35 1436.7 776.2 1436.45 802.3 1432.45 827.8 1424.35 856.45 1415.25 885.55 1407.85 923.35 1398.35 961.25 1388.95
L 1343.4 1295.55
Q 1344.55 1296.25 1345.8 1296.85 1347 1297.45 1348.3 1297.8 1350.25 1298.35 1352.3 1298.75 1355.45 1299.05 1358.5 1298.05 1362.2 1297 1364.45 1293.95 1365.65 1292.3 1366.2 1290.3 1366.75 1288.15 1366.75 1285.9 1374.35 1279.9 1376.95 1270.35 1388.85 1226.85 1406.5 1185.35 1421.05 1151 1438 1117.65 1451.2 1091.75 1465 1066.2 1476.6 1044.7 1488.45 1023.2 1496.6 1008.45 1504.35 993.45 1508.15 986.05 1506.7 977.95 1504.8 967.45 1495.35 964.05 1485 931.35 1476.15 898.1 1467.5 865.7 1459.6 833.1 1453 806 1446.2 779.05 1437.05 743 1426.85 707.25 1409.05 645.1 1382.4 586.3 1382.45 585.85 1382.5 585.45 1382.85 583.3 1382.85 580.95 1382.85 579.25 1382.65 577.6 1382.45 575.8 1382 574.05 1380.6 568.7 1375.8 565.95 1373.15 564.4 1370.15 564.5
M 1299.35 586
L 1349.25 589.3 1328.6 665.65 1322.3 703.2 1303.05 687.7
Q 1304.2 680.65 1303.2 673.45 1301.45 661.05 1302.45 648.5 1304.9 617.1 1299.35 586
M 1384.7 653.4
Q 1389.8 670.1 1394.9 686.9 1399.3 701.45 1403.25 715.85 1412.5 749.45 1419.4 783.5 1428.9 830.15 1439.25 876.5 1440.25 880.95 1441.35 885.4 1448.3 913.7 1456.7 941.6 1463.55 964.3 1475.65 984.35 1465.85 1006.35 1455.15 1028.15 1433.9 1071.55 1412.15 1114.85 1410.75 1117.65 1409.35 1120.45 1394.6 1150.5 1381.3 1181.3 1366.95 1214.3 1355.55 1248.55 1346.1 1218.95 1338.75 1188.6 1328.65 1147 1320.05 1105.15 1307.55 1044.15 1295 983.2 1286.2 940.45 1277.45 897.75 1269.35 858.2 1261.45 818.55
L 1232.65 658.35
Q 1242.3 665.7 1251.3 673.8 1287.8 706.4 1325.9 737.4 1331.65 742.05 1338.65 739.65 1343.85 737.9 1345.8 732.9 1353.8 712.85 1356.35 691.05 1356.6 689.1 1357 687.2 1360.25 672.45 1364.1 657.8 1369.4 637.5 1374.7 617.2 1379.2 635.4 1384.7 653.4
M 1300.15 1151.45
Q 1312.5 1209.65 1328.85 1266.9
L 787.2 1411.95 777.95 1415.05
Q 768.15 1390.25 759.15 1365.25 745.1 1326.15 733.55 1286.25 722 1246.3 712.85 1205.95 704.2 1167.85 698 1129.5 691.1 1086.85 684.75 1043.95 678.6 1002.6 670.6 961.6
L 645.9 866.15
Q 682.45 907 718.85 948 723.25 952.95 729.15 955.4 732.85 956.95 736.3 954.9 747.55 948.25 751.7 935.2 769.55 878.75 779.65 820.1 800.45 835.55 820.5 852.15 827.1 857.7 833.7 863.3 864.05 889.05 892.35 916.7 896.55 920.75 900.8 924.65 903.25 926.95 905.95 929.25 916.25 938 927.7 944.95 938.8 951.65 949.95 946.65 955.55 944.1 956.2 937.85 964.8 853.1 981.9 769.55 1017.65 831.65 1063.1 886.95 1069.75 895 1079.5 892.75 1084.4 891.7 1085.65 887 1103.8 818.55 1113 748.2 1149.85 810.55 1186.6 873.05 1190.1 878.95 1195.05 883.65 1198.7 887.15 1203.45 886.65 1219.9 884.9 1220.05 867.25 1220.6 805.3 1224.9 743.55 1230 778 1235.2 812.5 1238.65 835.35 1242.2 858.05 1243.55 866.85 1245.05 875.7 1246.5 884.35 1248.1 892.95 1255.2 931.5 1262.85 969.85 1280.9 1060.65 1300.15 1151.45
M 1136.3 712.65
Q 1140.05 711.15 1142.9 713.85 1152.45 722.7 1161.15 732.7 1177.8 751.75 1195.6 769.6
L 1193.25 833.15 1126 717.75
Q 1130.85 714.75 1136.3 712.65
M 744.15 842.1
L 725.35 927.35 646.95 844.5 682.8 795.3 744.15 842.1
M 785.8 789.1
L 821.4 752 942.85 842.25 932.95 915.35 785.8 789.1
M 1016.2 713.05
Q 1016.95 713.45 1017.45 714.1 1041.6 746.6 1067.45 779.5 1072.15 785.55 1078.9 788.85
L 1068 855.5
Q 1047.25 830.05 1028.95 802.8 1005.35 767.7 986.1 729.95
L 984.95 727.8 1016.2 713.05 Z"/>

<path fill="#324A15" stroke="none" d="
M 1017.45 714.1
Q 1016.95 713.45 1016.2 713.05
L 984.95 727.8 986.1 729.95
Q 1005.35 767.7 1028.95 802.8 1047.25 830.05 1068 855.5
L 1078.9 788.85
Q 1072.15 785.55 1067.45 779.5 1041.6 746.6 1017.45 714.1
M 821.4 752
L 785.8 789.1 932.95 915.35 942.85 842.25 821.4 752
M 725.35 927.35
L 744.15 842.1 682.8 795.3 646.95 844.5 725.35 927.35
M 1142.9 713.85
Q 1140.05 711.15 1136.3 712.65 1130.85 714.75 1126 717.75
L 1193.25 833.15 1195.6 769.6
Q 1177.8 751.75 1161.15 732.7 1152.45 722.7 1142.9 713.85
M 1328.85 1266.9
Q 1312.5 1209.65 1300.15 1151.45 1280.9 1060.65 1262.85 969.85 1255.2 931.5 1248.1 892.95 1246.5 884.35 1245.05 875.7 1243.55 866.85 1242.2 858.05 1238.65 835.35 1235.2 812.5 1230 778 1224.9 743.55 1220.6 805.3 1220.05 867.25 1219.9 884.9 1203.45 886.65 1198.7 887.15 1195.05 883.65 1190.1 878.95 1186.6 873.05 1149.85 810.55 1113 748.2 1103.8 818.55 1085.65 887 1084.4 891.7 1079.5 892.75 1069.75 895 1063.1 886.95 1017.65 831.65 981.9 769.55 964.8 853.1 956.2 937.85 955.55 944.1 949.95 946.65 938.8 951.65 927.7 944.95 916.25 938 905.95 929.25 903.25 926.95 900.8 924.65 896.55 920.75 892.35 916.7 864.05 889.05 833.7 863.3 827.1 857.7 820.5 852.15 800.45 835.55 779.65 820.1 769.55 878.75 751.7 935.2 747.55 948.25 736.3 954.9 732.85 956.95 729.15 955.4 723.25 952.95 718.85 948 682.45 907 645.9 866.15
L 670.6 961.6
Q 678.6 1002.6 684.75 1043.95 691.1 1086.85 698 1129.5 704.2 1167.85 712.85 1205.95 722 1246.3 733.55 1286.25 745.1 1326.15 759.15 1365.25 768.15 1390.25 777.95 1415.05
L 787.2 1411.95 1328.85 1266.9
M 1394.9 686.9
Q 1389.8 670.1 1384.7 653.4 1379.2 635.4 1374.7 617.2 1369.4 637.5 1364.1 657.8 1360.25 672.45 1357 687.2 1356.6 689.1 1356.35 691.05 1353.8 712.85 1345.8 732.9 1343.85 737.9 1338.65 739.65 1331.65 742.05 1325.9 737.4 1287.8 706.4 1251.3 673.8 1242.3 665.7 1232.65 658.35
L 1261.45 818.55
Q 1269.35 858.2 1277.45 897.75 1286.2 940.45 1295 983.2 1307.55 1044.15 1320.05 1105.15 1328.65 1147 1338.75 1188.6 1346.1 1218.95 1355.55 1248.55 1366.95 1214.3 1381.3 1181.3 1394.6 1150.5 1409.35 1120.45 1410.75 1117.65 1412.15 1114.85 1433.9 1071.55 1455.15 1028.15 1465.85 1006.35 1475.65 984.35 1463.55 964.3 1456.7 941.6 1448.3 913.7 1441.35 885.4 1440.25 880.95 1439.25 876.5 1428.9 830.15 1419.4 783.5 1412.5 749.45 1403.25 715.85 1399.3 701.45 1394.9 686.9
M 1349.25 589.3
L 1299.35 586
Q 1304.9 617.1 1302.45 648.5 1301.45 661.05 1303.2 673.45 1304.2 680.65 1303.05 687.7
L 1322.3 703.2 1328.6 665.65 1349.25 589.3 Z"/>
</g>

<g id="Layer1_0_FILL">
<path fill="#000000" fill-opacity="0.2" stroke="none" d="
M 687.65 785.8
Q 681.75 787 677.8 791.1
L 675.3 793.95
Q 673.8 795.65 672.55 796.5 671.4 797.25 669.45 798.05 666.45 799.2 666.2 799.3 660.1 801.95 657.15 808.55 654.2 815.1 656.2 821.5 652.75 823.4 650.45 826.85 648.15 830.25 647.7 834.2 646.8 842.2 653.15 851.55 657.6 858 666.65 866.6 678.75 878 681.25 880.75 689.5 889.65 698.65 905.2 702.65 911.95 704.15 914.15 707.4 919.05 710.8 922.2 714.9 926 719.7 927.75 725 929.7 729.85 928.6 734.55 927.55 738.5 923.75 742.05 920.35 744.3 915.4 746.1 911.45 747.4 905.8 748.75 899.15 749.4 895.8 752.3 881.15 757.85 867.05 762 856.45 762.9 852.65 764.95 844.35 762.85 838.1 760.65 831.45 753.3 825.95 750.3 823.65 739.4 817.4 724 808.6 711.3 796.5 706.55 792 705.45 791.05 701.95 788.15 698.8 786.8 693.55 784.6 687.65 785.8
M 785.75 781.35
Q 784.75 784.6 785.35 788.15 786.35 793.7 791.35 800.35 796.6 807.25 804.95 814.6 809.15 818.25 820.4 827 864.85 861.45 905.6 899.95 910.1 904.2 912.1 905.9 915.9 909.05 919.3 910.9 923.45 913.1 927.6 913.8 932.25 914.55 936.25 913.25 940.3 911.95 943.65 908.55 946.65 905.45 948.65 901.15 950.3 897.55 951.45 892.7 952.1 889.7 953 883.9
L 956.7 860.55
Q 957.6 854.5 957.8 851.55 958.1 846.55 957.2 842.65 955.75 836.25 950.65 830.1 946.9 825.65 940.05 820.05 930.9 812.55 900.15 790.75 875.05 772.9 861.55 759.95 852.9 751.65 851.95 750.8 846.3 745.85 841.2 743.4 834.9 740.4 828.2 740.8 821 741.2 816.55 745.65 815.1 747.1 812.65 750.7 810.3 754.2 808.7 755.7 807.9 756.45 804 759.2 801.05 761.25 799.85 763.15 799.2 764.15 798.2 767 797.3 769.5 796.4 770.65 795.35 771.9 793 773.3 790.15 775 789.3 775.7 786.75 777.8 785.75 781.35
M 1023 720.15
Q 1020.05 715.55 1018 713.2 1014.85 709.7 1011.35 708.2 1007.55 706.6 1003.2 707.35 998.9 708.1 995.6 710.75 992.4 713.35 990.6 717.35 988.85 721.2 988.75 725.5 988.7 729.7 990.55 736 993.4 745.25 999.15 755.85 1002.75 762.4 1010.45 774.45
L 1031.5 807.65
Q 1041.05 822.6 1045.75 831.2 1048.95 837.05 1050 838.75 1052.6 842.85 1055.4 845.35 1061.2 850.5 1069.55 850.55 1078 850.6 1083.6 845.4 1089.45 840.05 1091.7 829.6 1096.4 807.65 1083.4 780.1 1079.55 772.05 1075.6 768.2 1071.65 764.35 1066.15 762.7 1060.65 761.1 1055.2 762.15 1052.3 762.7 1051.15 762.3 1049.8 761.8 1048.25 759.3
L 1023 720.15
M 1120.75 717.3
Q 1121 723.15 1123.45 729.75 1125.8 736.2 1131.1 745.95 1151.6 783.95 1177.2 818.1 1182.5 825.15 1186.5 828.8 1192.25 834.05 1198.35 835.55 1204.65 837.1 1211.15 834.6 1217.55 832.15 1221.5 826.85 1225.35 821.6 1226 814.75 1226.65 808 1224.05 801.9 1222.5 798.4 1219.6 794.5 1217.9 792.3 1213.95 787.75 1194.25 765.05 1169.45 730.35 1161.75 719.55 1158.6 713.55 1154.5 705.8 1154.45 705.7 1151.8 701.35 1148.8 699.05 1145.85 696.8 1142.05 696.1 1138.3 695.35 1134.65 696.3 1131.1 697.2 1128.05 699.6 1125.1 701.95 1123.3 705.25 1120.45 710.4 1120.75 717.3
M 1306.9 578.95
Q 1300.65 580.2 1296.75 584.3 1292.25 589 1291.25 597.1 1290.6 602.5 1291.45 611.9
L 1299.2 695.7
Q 1294.5 691.8 1289.45 685.05 1283.75 677 1280.9 673.05 1270.4 658.45 1260.15 654.9 1249.25 651.1 1238.2 657.4 1227.1 663.7 1224.75 675 1222.95 683.7 1226.8 694.95 1227.4 696.8 1235.1 714.3 1239.873046875 725.1744140625 1243.6 738.85
L 1253.4 872.5
Q 1256.3 913.4 1258.8 935.5 1262.7 969.7 1268.9 998.1 1270.1 1003.55 1271.1 1006.55 1272.65 1011.1 1274.85 1014.25 1277.45 1018 1281.3 1020.1 1285.4 1022.3 1289.55 1021.7 1289.71171875 1021.6755859375 1289.85 1021.65 1299.5416015625 1091.8859375 1315.35 1210.9 1316.6 1219.95 1317.6 1224.5 1319.2 1231.95 1321.8 1237.45 1324.9 1244 1329.85 1248.55 1335.2 1253.55 1341.6 1255 1349.75 1256.8 1358.3 1252.65 1366.15 1248.85 1371.7 1241.45 1376.3 1235.3 1379.8 1226.2 1381.6 1221.5 1385.2 1209.55 1413.45 1115.5 1464.7 1031.6 1476.4 1012.55 1480.1 1004.9 1487.65 989.4 1488.85 976 1489.6 967.4 1488 956.8 1487 950.1 1484.05 937.8 1453.1 807.8 1410.7 680 1405.15 663.35 1401.4 654.5 1395.5 640.7 1388.35 630.9 1379.95 619.4 1366 608.3 1357.5 601.55 1339.7 589.8 1333.15 585.5 1329.6 583.55 1323.8 580.45 1318.7 579.2 1312.6 577.75 1306.9 578.95
M 1347.85 672.35
Q 1346.9 666.15 1346.05 663.55 1345.3 661.05 1345.25 660.45 1345.25 659.25 1345.6 658.35 1349.5 668.9 1352 680.85 1352.95 685.4 1353.4 687 1354.4 690.45 1355.95 692.7 1354.05 695.1 1350.95 694.85 1350.5 691 1348.8 679
L 1347.85 672.35 Z"/>
</g>
</defs>

<g transform="matrix( 1, 0, 0, 1, 0,0) ">
<use xlink:href="#Layer2_0_FILL"/>
</g>

<g transform="matrix( 1, 0, 0, 1, 0,0) ">
<use xlink:href="#Layer1_0_FILL"/>
</g>
</svg>
