
<svg xmlns="http://www.w3.org/2000/svg" version="1.1" xmlns:xlink="http://www.w3.org/1999/xlink" preserveAspectRatio="none" x="0px" y="0px" width="2000px" height="2000px" viewBox="0 0 2000 2000">
<defs>
<g id="Layer2_0_FILL">
<path fill="#000000" stroke="none" d="
M 1751.5 1024.55
Q 1749.6 1018.9 1746.2 1014.25 1735.35 999.45 1718.65 1010.35 1695.75 1025.2 1674.3 1042.05 1662 1051.65 1649.65 1060.95 1647.15 1056.45 1644.25 1052.15 1623.2 1021.3 1600.95 991.05 1589.75 975.8 1575.35 987.5 1544 1013.05 1515.3 1041.35 1493.45 1012.75 1473.15 982.95 1468 975.35 1462.2 968.45 1453.65 958.3 1443.9 968.2 1431.5 980.75 1419.45 993.4 1404.65 1008.85 1389.35 1023.75 1388.1 1021.9 1386.8 1020.1 1365.05 989.95 1335.95 966.75
L 1320.15 954.6
Q 1326.55 941.7 1329.2 927.55 1330.35 921.2 1327.85 915.6 1321.6 901.5 1305.55 898.75 1264.95 891.45 1226.35 885.55 1227.05 884.45 1227.75 883.35 1244.5 856.3 1262.2 829.85 1268.8 819.9 1265.25 808.75 1264.1 805.1 1260.8 803 1246.65 793.85 1229.55 790.95 1200 785.6 1170.95 779.3 1182.7 751.1 1196 723.6 1202.5 710.25 1206.5 696 1209.25 686.25 1200.7 681.65 1195.3 678.8 1188.9 679.45 1144.45 683.7 1099.95 681.95 1110.25 654 1120.85 626.15 1123.9 618.1 1125.25 609.45 1127.2 597.2 1116.95 590.9 1110.25 586.7 1102.25 585.25 1061.95 578.35 1021.15 577.9 1019.85 575.1 1018.5 572.35 1017.8 570.85 1016.95 569.55 1016.15 568.25 1015.15 567.2 1013.55 565.65 1011.35 565.4 1010.1 565.1 1008.85 565.2 1003.8 558.55 997.35 563.2 990.65 568.15 987.95 576.3 984.2 587.4 977.95 592.85 975.95 592.4 974.15 591.55 964.25 587.4 953.3 586.25 920 582.75 886.45 585.35 879.7 586 873.85 589.2 869.55 591.5 869.7 596.2 870.05 609.25 876.3 621.4 893.8 655.3 914.65 687.25 877.45 677.45 839 676.65 829.75 676.45 826.7 684.65 822.45 696.05 828.25 707.1 849.9 748.1 879.85 783.45 861.65 778.65 842.9 781.1 825.5 783.05 808.2 782.55 797.7 781.75 793.95 790.7 791.35 796.85 795.15 802.4 817.15 834.45 844.65 862.55 849.7 867.7 849.05 870.2 848.8 870.2 848.6 870.2 817.55 867.15 786.45 870.2 779.55 870.85 773.2 873.45 754 881.4 764.5 899.15 774.2 915.55 785.15 931.1
L 744.15 963.15 741.95 962.65
Q 717.45 902.6 682.9 847.55 680.45 843.7 677.2 840.3 669.05 831.95 660.05 839.4 648.35 849.15 637.05 859.35 600.6 892.5 570.6 932 569.05 902.6 565 873.45 564 866.45 560.75 860.4 550.85 842.3 536.25 857.4 521.95 872.2 505.85 885.1 464.15 918.4 417.05 944 405.55 908.5 389.85 874.5 385.25 864.6 378.05 856.55 372.15 849.95 364.35 854 346.85 863.1 334.55 878.75 309.2 911.1 287.55 938.7 277.45 907.2 262.7 877.55 256.95 866.05 244.9 865.6 241.35 865.1 239.1 867.9 212.4 900.95 186.55 934.85 179.45 944.25 173.45 954.45
L 142.85 955.25 136.15 961.3 160.2 980.75
Q 160.15 981.6 160.25 982.5 161 990.7 161.05 998.85 161.25 1050.95 159.85 1102.95 159.75 1106.15 162.4 1107.75 175.45 1115.6 191.1 1111.45 224.9 1102.7 255.1 1084.5 268.1 1076.55 281.6 1069.45 274.65 1115.65 276.35 1163.9 276.5 1168.7 278.9 1172.7 286.15 1184.8 299.15 1176.2 308.3 1170.25 317.4 1163.8 355.35 1136.85 395.45 1115.5 402.5 1162.3 408.55 1209.55 409.45 1216.65 412.65 1223 420.25 1238.05 435.05 1227.95 466.6 1206.35 497.75 1184.25 508.55 1176.55 517.85 1167.15 516.8 1171.9 516.45 1176.7 513.15 1225.5 514.95 1274.6 515.1 1279.3 518.45 1282.6 528.8 1293 542.35 1285.5 546.95 1300.45 554.3 1314.3 558.8 1322.9 565.4 1330.1 552.5 1328.95 540.25 1325 529.65 1321.65 521 1327.4 518.55 1329.05 519.3 1331.55 527.95 1361.75 543.95 1389.2 563.4 1422.45 584.15 1454.5 536.45 1459.9 488.8 1465.3 486.7 1465.7 484.7 1466.35 473.3 1469.6 477.1 1480.55 479.8 1488.35 485.25 1494.75 490.55 1501 495.5 1507.5 515.7 1533.7 532.95 1561.85 535.4 1565.85 537.25 1570.3 498.6 1572.55 460 1569.45 446.2 1568.8 435.75 1577 432.95 1579.25 433.65 1582.85 440.7 1618.9 460.1 1650.6 478.65 1680.9 500.5 1709.1 493.25 1727.2 485.3 1745 480.55 1755.7 485.4 1765.9 487.4 1770.05 492.05 1769.9 508.25 1768.8 519.75 1755.9 529.9 1744.5 541 1738.55 542.7 1739.2 544.45 1739.65 612.55 1754.65 682.65 1751.1 689.9 1750.9 694.35 1745.2 701.8 1735.85 695.95 1724.95 684.1 1702.75 670.7 1681.5 668.05 1677.3 666.1 1672.75 672.3 1675.4 678.8 1677.95 690.7 1682.55 703 1685.9 744.9 1697.8 788.7 1695.35 810.35 1694.2 806.8 1673.85 800.15 1635.65 789.35 1598.05 785.95 1586.35 784.5 1574.1 785.55 1573.6 786.45 1573.8 846.05 1591.55 907.95 1598.2 921.3 1599.6 923.15 1586.25 924.95 1573 920.5 1560.1 909.05 1526.95 895.35 1494.75 932.55 1503.65 969.7 1512.95 984.9 1516.75 1000.4 1517.55 1006 1517.55 1009.3 1513.4 1016.2 1504.8 1013.25 1493.45 1007.75 1472.05 1008.05 1449.9
L 1068.1 1451.65
Q 1071.8 1482.05 1067.8 1512.3 1066.65 1521 1073.05 1526.4 1078.4 1530.95 1085.2 1527.95 1143.55 1502.85 1202.55 1479.35 1203.6 1478.9 1205 1479.35 1218.4 1546 1239.15 1610.5 1244.2 1626.25 1259 1620.2 1318.25 1595.85 1377.4 1571.25 1379.1 1580.05 1381.2 1588.8 1394.05 1642.35 1411.4 1694.4 1416.5 1709.7 1430.8 1703.75 1436.3 1701.6 1441.45 1698.35 1469.75 1680.2 1503.05 1674.35 1518.05 1671.6 1532.35 1666.45 1532.2 1669 1532.2 1671.55 1532.1 1681.45 1534.65 1691.2 1544 1727.15 1550.65 1763.8 1552.85 1775.85 1562.8 1781.95 1566.5 1784.2 1570.65 1782.8 1615.6 1768.8 1661.35 1758.7 1676.05 1755.35 1689.8 1749.15 1700.85 1756.8 1712.15 1764.35 1715.35 1766.4 1718.9 1766.05 1731.95 1764.1 1727.05 1750.5 1724.9 1744.5 1720.8 1739.45 1739.4 1700.9 1750.1 1659.15 1754.5 1641.9 1749.9 1625.15 1748.4 1619.8 1742.95 1618.7 1719.75 1614.45 1695.75 1615.65 1676.45 1617.2 1657 1619 1662.7 1608 1670.3 1598.05 1676.25 1590.15 1680.5 1581.25 1686.05 1569.6 1691.95 1558.25 1696.15 1550.3 1692.2 1542.75 1689.2 1537 1682.65 1536.5 1657.4 1533.55 1631.8 1531.7 1604.35 1529.3 1576.95 1528.25 1584.9 1513.55 1592.85 1498.85 1597.3 1490.6 1602.1 1482.4 1610.8 1467.65 1607.85 1451.95 1607.35 1449.4 1604.7 1448.4 1596.1 1445.1 1586.5 1444.9 1550.4 1444.1 1514.4 1440.1 1520.85 1415 1528.7 1390.4 1533.7 1374.65 1533.55 1358.4 1533.55 1356 1531.65 1354.7 1518.5 1345.8 1501.75 1344.55 1492.5 1343.75 1493.45 1341.35
L 1510.95 1331
Q 1532.3 1347.7 1556.5 1359.7 1565.3 1364 1574.75 1362.75 1586.95 1361.5 1586.8 1349.1 1586.4 1317 1578.8 1285.6 1576.05 1274.2 1577.45 1270.6 1601.5 1298.25 1632.65 1316.65 1638 1319.75 1642.6 1323.8 1650.25 1330.55 1659.35 1334.85 1669.85 1339.75 1679.95 1335.55 1682.45 1334.55 1683.3 1331.9 1689 1313.65 1691.7 1294.4 1693.2 1283.6 1694.4 1272.85 1696.15 1256.65 1699.15 1240.65 1701.1 1242.65 1703 1244.75 1737.85 1284.4 1786.75 1301.8 1791.55 1303.5 1796.6 1302.95 1815.85 1300.25 1814.15 1279.75 1812.95 1265.6 1810.65 1251.7 1807.15 1230.35 1802.4 1209.15 1825.35 1231.4 1852.6 1247.85 1863.55 1254.5 1875.3 1259.9 1882.05 1262.95 1889.2 1262.95 1899.3 1263 1902.25 1253 1905 1243.7 1903.6 1233.9 1903.05 1229.9 1902.65 1225.85 1901.8 1216.8 1902.45 1207.8 1904.4 1179.5 1895.85 1152.7 1918.1 1146.1 1940.5 1139.9 1950.1 1137.4 1953.45 1128.65 1955.55 1123.2 1951 1119.7 1936.3 1108.35 1917.2 1107.7 1912 1091.75 1900.3 1079.7 1875.45 1054.15 1848.3 1031.25 1839.1 1023.45 1829.5 1030.3 1807.65 1045.8 1786.75 1062.6 1780.8 1067.45 1774.35 1071.6 1769.7 1062.8 1764.7 1054.05 1756.65 1040 1751.5 1024.55
M 1753 1080.5
Q 1754.55 1082.95 1756.2 1085.35 1757.55 1087.4 1757.8 1089.6 1758 1091.1 1757.05 1092.75
L 1659.7 1078.85 1729.6 1031.75 1753 1080.5
M 1663.05 1159.05
Q 1664.55 1161.3 1666.45 1163.05 1667.4 1163.95 1668.5 1164.75 1672.95 1167.85 1678.25 1168.95 1700.85 1173.4 1723.4 1168.5 1738.7 1165.3 1746.9 1152.95
L 1902.35 1130.1 1642.35 1205.7 1507.6 1241.5
Q 1508.3 1239.05 1508.9 1236.55 1514.4 1214.1 1509.6 1191.5
L 1500 1163.4 1537.6 1162.95
Q 1539.2 1164.85 1540.95 1166.65 1541.8 1167.55 1542.8 1168.4 1546.3 1171.05 1550.6 1172.45 1568.45 1177.8 1587.1 1176.35 1606.9 1175.35 1619.25 1161.1
L 1663.05 1159.05
M 1671.8 1153.6
Q 1671.6 1153.1 1671.7 1152.7 1674.7 1138.4 1690.75 1134.55 1698 1133.05 1705.35 1132.95 1725.1 1134.45 1736.3 1148.9 1736.15 1149.55 1735.8 1149.85 1722.4 1160.6 1704.2 1159.65 1698.05 1159.75 1691.95 1160.5 1679.55 1161.55 1671.8 1153.6
M 1660.9 1154.4
L 1621.3 1156.05
Q 1627.05 1136.65 1610.1 1124.9 1588.5 1110.05 1564.45 1119.8 1557.4 1122.6 1551.1 1126.9 1533.9 1138.8 1533.7 1157.15
L 1497.55 1158.65
Q 1492.75 1149.7 1486.5 1141.7 1461.45 1109.35 1423.35 1095.7
L 1411.4 1065.45
Q 1472.85 1068.35 1533.45 1078.05 1629.6 1093 1725.6 1109.05 1799.6 1121.6 1874.7 1125.05
L 1746.95 1144.25
Q 1745 1140.5 1741.6 1137.8 1713 1114.5 1678.95 1128.5 1660.4 1136 1660.9 1154.4
M 1803.05 1185.75
L 1798.8 1181.3 1882 1158.2
Q 1878.55 1164.9 1877.7 1172.7 1874.3 1204.85 1880.1 1236.7 1877.65 1236.95 1873.75 1235 1835.15 1215.15 1803.05 1185.75
M 1894.75 1103.65
Q 1895.55 1104.55 1896.4 1105.45
L 1782.35 1096.5 1835.3 1050.05
Q 1851.9 1059.8 1866.35 1073.8 1881.1 1088.15 1894.75 1103.65
M 1303.35 924.8
L 1301.5 941.5 1268.05 920 1303.35 924.8
M 1449.6 995.9
Q 1452.2 997.55 1453.7 1000.8 1464.55 1024.45 1481.3 1044.7 1485.05 1049.15 1489.1 1053.15
L 1404.05 1049.45
Q 1403.9 1044.7 1408.25 1040.25 1425.1 1022.8 1440.8 1004.3 1444.9 999.45 1449.6 995.9
M 1394.9 1105.35
L 1404.45 1136.6
Q 1397.15 1139.4 1389.65 1142.05 1362.2 1151.85 1334.05 1159.2 1305.15 1166.9 1275.9 1172.25 1190.4 1187.4 1103.55 1185.95 1036.15 1184.8 969.35 1176.6 894.15 1167.5 825 1137.25 804.2 1128.15 784.55 1116.5 741.15 1090.65 698.05 1064.3 706.05 1050.35 715 1036.9 745.05 991.6 787.7 958.2 820.3 932.75 858.4 916.7 862.1 917.95 865.6 915.65 878.85 907.05 894.95 902.5 934.55 891.2 975.4 885.85 1014.45 880.85 1053.85 882 1093 883.3 1131.65 890.25 1172.35 897.65 1209.6 915.75 1215.85 918.8 1221.85 921.95 1260.3 942.55 1295.8 968.3 1331.1 993.8 1356.25 1029.3 1381.1 1064.4 1394.9 1105.35
M 1545.5 1042
Q 1565.75 1022.45 1587 1008.25
L 1638.55 1074.45 1530.7 1058.25
Q 1530.55 1057.7 1530.8 1057.45 1537.8 1049.5 1545.5 1042
M 1592.1 1129.55
Q 1595.35 1130.25 1598.5 1131.25 1605.5 1133.7 1609.4 1139.85 1618.85 1154.6 1602.75 1161.85 1587.75 1168.65 1571.25 1168.2 1554.75 1167.75 1544.65 1156.35 1542.6 1154 1544 1151.1 1558.95 1120.55 1592.1 1129.55
M 1435.4 1132.65
Q 1450 1141.15 1461.45 1153.4 1476.8 1169.7 1484.15 1190.85 1493.5 1217.65 1483.15 1244 1482.1 1246.7 1480.05 1248.3 1473.7 1253.2 1474 1261.25 1464.65 1274.95 1451.45 1285.05 1429.4 1301.9 1402.7 1309.7 1363.9 1321.2 1323.7 1325.75 1298.7 1328.8 1273.55 1330.9 1241.5 1333.55 1209.45 1336.5 1126.05 1343.65 1043.6 1338.05 1041.95 1335.5 1039.3 1334.15 1028.45 1328.75 1018.35 1336.65 981.35 1333.2 944.55 1326.75 913.6 1321.35 883.05 1314.5 853.2 1307.65 823.4 1301.05 772.85 1289.95 722.75 1277.2 709.6 1273.85 700.1 1267.75
L 692.5 1261.9 689.5 1264.65
Q 663.8 1256.6 639.4 1242 617.1 1228.65 599.55 1209.7 582.6 1191.45 578.6 1167.05 575 1145.05 587.05 1126.3 620.45 1074.45 678.3 1051.35 655.25 1091.8 641.25 1136.3 637.75 1147.4 645.65 1155.45 648 1157.9 650.55 1160.1 682.4 1187.1 718.85 1207.8 755.7 1228.85 795.4 1243.4 832.25 1256.95 870.5 1265.6 910.7 1274.75 951.8 1279.75 996.4 1285 1041.4 1286.85 1098.35 1289.25 1155.1 1288.55 1186.15 1288.15 1217.1 1285.6 1260.3 1282.05 1302.3 1271.8 1350.35 1259.85 1396.95 1242.5 1413.35 1236.5 1428.3 1234
L 1437.05 1238.1
Q 1439.2 1238.15 1440.95 1237.1 1452.1 1230.5 1451.05 1216.95 1447.7 1174.4 1435.4 1132.65
M 1481.4 1285.35
L 1493.8 1270.95 1551.75 1254.15
Q 1550.8 1295.35 1561.3 1335.25 1559.1 1334.3 1557 1333.2 1516.6 1313.2 1481.4 1285.35
M 1497.85 1321.05
Q 1490.4 1325.4 1482.9 1329.5 1476.85 1332.75 1475 1338.9
L 1444.25 1332.75 1436.85 1317.95 1471.85 1296.75 1497.85 1321.05
M 1366.8 1218.9
Q 1334.3 1231.8 1300.25 1240.1 1258.3 1250.1 1215.65 1254.75 1170.8 1259.55 1125.65 1260 1080.7 1260.4 1035.8 1258.4 991.65 1256.6 947.65 1252.4 911.6 1249 875.9 1242.4 827.95 1233.8 782.4 1217.1 740.85 1201.8 703.1 1178.45 680.8 1164.55 663.55 1147.1
L 664.75 1143.4 693.05 1073.6
Q 700.45 1079.3 707.95 1084.9 737.4 1107.1 768.3 1127.25 787.95 1140.05 808.75 1151.15 832.15 1163.6 856.85 1172.75 884.25 1182.95 912.9 1189.55 944.65 1196.9 977.35 1200.75 1015.05 1205.25 1053.2 1206.9 1102.5 1209.4 1151.95 1208.65 1209.65 1207.8 1266.8 1199.9 1341.3 1189.95 1410.75 1162.15
L 1418.55 1201.5
Q 1392.1 1209 1366.8 1218.9
M 1313.85 1384.3
L 1314.3 1383.45
Q 1342.55 1382.85 1363.3 1401.9 1387.75 1424.35 1377.4 1455.35 1376.75 1457.35 1374.8 1457.75 1347.35 1460.7 1325.1 1442.9 1300.75 1423.45 1299.35 1393.55 1299.65 1392.65 1299.9 1391.8 1302.75 1382.9 1308.65 1385.85
L 1313 1385.6
Q 1313.5 1385 1313.85 1384.3
M 1327.2 1372.75
Q 1315.1 1371.4 1304.75 1370.2
L 1288.4 1349.2 1380.05 1336.7 1428.6 1321.75 1435.25 1337.45
Q 1434.8 1338.25 1434.45 1339.05 1433.05 1342.15 1434.85 1345 1436.8 1348.15 1440.5 1349.3 1499.4 1475 1580.75 1587.55 1611.9 1630.6 1643.6 1673.15 1637.1 1667.65 1630.55 1662.5 1598.1 1636.7 1566.35 1610.4 1536.85 1585.9 1507.7 1560.9 1503.1 1557 1497.9 1554.05 1490.15 1549.8 1489.35 1544.4 1491.45 1539.65 1491.3 1534.3 1491.15 1527.2 1487.8 1521.15 1473.4 1494.8 1445.05 1482.15 1437 1478.45 1430.25 1484.35 1423.95 1489.85 1422.1 1494.85
L 1386.3 1463.7
Q 1390.85 1456.45 1392.25 1447.95 1393.75 1438.9 1391.65 1430.15 1381.85 1389.1 1341.75 1375.55 1334.7 1373.25 1327.2 1372.75
M 1353.1 1468.15
Q 1357.1 1469.8 1361.05 1470.55 1372.75 1472.15 1382.9 1467.65
L 1422.3 1500.2
Q 1422.7 1508.35 1426.1 1515.75 1434.9 1534.9 1452.55 1546.35 1459.8 1551.05 1467.8 1553.15 1479.2 1556.2 1487 1549.95
L 1667.95 1705.85
Q 1663.65 1703.05 1659.4 1700.3 1627.6 1679.75 1595.35 1660 1539.4 1625.85 1482.25 1593.35 1448.55 1574.15 1414.45 1555.05 1381.6 1536.7 1348.7 1518.5 1303.95 1493.75 1259.3 1468.85 1234.45 1454.95 1209.75 1440.9 1196.05 1433.2 1182.45 1425.35 1125.55 1392.75 1069.8 1358.6
L 1137.25 1359.15 1283 1350.85 1299.4 1374.55
Q 1290.9 1383.3 1290.95 1395.5 1291.05 1411.9 1299.1 1426.4 1311.2 1448.05 1333.45 1459.3 1343.1 1464.15 1353.1 1468.15
M 1430.05 1493.5
Q 1431.5 1489.95 1435.45 1490.55 1467.3 1495.5 1482.05 1524.05 1489.2 1537.85 1479.25 1547.3 1469.2 1549.85 1459.45 1544.25 1440.5 1533.35 1430.95 1513.5 1426 1503.25 1430.05 1493.5
M 1589.05 1461.8
L 1556.95 1518.5 1516.55 1454.9 1589.05 1461.8
M 1497.35 1427.25
L 1454.85 1353.1 1514.1 1366.45 1497.35 1427.25
M 1778.65 1188.75
Q 1775.7 1194.35 1775.45 1200.75 1773.95 1237.35 1784.8 1272.95 1773.55 1267 1763.35 1259.35 1758.45 1255.75 1753.9 1251.85 1728.7 1230.35 1703 1209.55
L 1778.65 1188.75
M 1662.6 1308.55
L 1624.5 1283.2 1578.55 1246.25 1674.95 1217.85
Q 1661.8 1262.05 1662.6 1308.55
M 1577.95 1548.4
L 1664.7 1557.5 1628.7 1614.15 1628 1616.8 1577.95 1548.4
M 851.95 699.75
Q 861.9 698.15 871.95 700.6 898.2 707.15 923.55 700.8
L 932.35 701.05 900.7 777.25 851.95 699.75
M 936.55 689.2
L 888.65 604.35
Q 930.85 603.9 972.3 609.5
L 936.55 689.2
M 1096.7 614.3
L 1077.4 664.55 1043.3 615.1 1038.1 604.45 1096.7 614.3
M 1021.3 621
Q 1022.3 622.6 1023.35 624.25 1023.9 625.1 1024.5 626 1074 698.45 1125 770.15 1133.5 782.05 1141.7 794.05 1171 837 1196.05 882.55
L 1125.15 864.05 1078.85 857.55
Q 1078.25 856.9 1077.7 856.25 1073.2 851.25 1068.05 847.15 1061.4 841.9 1054.35 837.1 1041.9 828.6 1027.05 826.95
L 1020.7 767.9
Q 1037.1 766.95 1049.25 756.1 1049.95 755.4 1050.65 754.7 1054.8 750.45 1056.9 744.85 1063.7 726.5 1053.1 709.5 1045.2 696.95 1032 690.15 1023.3 685.7 1016.8 682.9
L 1012.25 604.45
Q 1016.35 612.95 1021.3 621
M 985.8 629.15
Q 994.5 610.25 1002.75 596.7
L 1007.9 685.85
Q 1006.2 687.1 1004.45 688.3 999.95 691.5 997.25 696.05 986.15 714.85 983.2 736.9 981.85 747.1 988.05 755.1 997.4 767.05 1012.7 767.9
L 1017.5 827.75
Q 997.25 834.15 985.5 852.15 982.9 856.2 981.2 860.7
L 905.3 875.45 879.65 883.3
Q 899.1 831.7 919.95 780.7 951.2 704.2 985.8 629.15
M 1030.9 702.3
Q 1048.15 714.5 1048.6 735.05 1048.75 741 1044.8 745.3 1026 766.05 999.7 754.05 997.2 752.9 996.3 750.5 988.45 729.45 1001.1 708.7 1013.15 688.9 1030.9 702.3
M 1181.85 699.4
L 1151.55 769.95 1101.8 698.8 1181.85 699.4
M 549.2 946.7
Q 552 950.5 551.55 952.85 551.45 953.4 551.1 953.95 549.6 959.7 554.75 962.65 555.5 963 556.35 963.2 557.1 963.5 557.95 963.7
L 452.75 962.2 423.45 961.45
Q 475.25 933.05 521.9 896.75 529.9 890.55 537.85 884.3 540.2 910.3 544.6 936 545.6 941.95 549.2 946.7
M 494 983.1
Q 529.05 984.05 564.25 984.4 599.2 984.75 634.45 984.5 681.35 984.15 728.2 982.4
L 713.95 999.15 692.95 1027.35
Q 682.15 1030.35 671.95 1034.4 661.65 1038.6 651.85 1043.7 642.4 1048.6 633.6 1054.45 625.9 1059.55 618.6 1065.45 609 1073.1 600.15 1081.85
L 557.4 1070.05
Q 557.35 1068.8 557.7 1067.65 558.4 1065.45 557.95 1063.2 554.2 1044.8 533.9 1040.25 526.05 1038.45 519.15 1034.8 509.1 1029.5 497.65 1031.35 493.65 1032 489.7 1032.75 487 1033.15 484.25 1034.1 481.4 1035.05 478.6 1036.4 476.05 1037.7 474.05 1039.55 470.85 1042.6 468.2 1044
L 418.35 1027.9
Q 420.15 1024.55 419.6 1020.85 417.1 1003.1 399.25 995.6 381.05 988 362.05 993 357.7 994.25 353.5 995.55 349.6 996.85 345.95 998.25 343.3 999.2 340.6 1000.55 337.1 1002.4 333.95 1005.25 331 1007.9 329.2 1011.65
L 212.8 973.05 279.2 973.2
Q 304.55 973.4 309.7 973.75 331.7 975.1 353.65 976.5 388.6 978.95 423.85 980.45 458.8 982.1 494 983.1
M 561.3 963.55
Q 586.05 950.1 604.25 927.75 631.8 893.95 663.6 864.75 667.3 871.75 670.15 879.15 687.5 924.4 716.55 962.7
L 561.3 963.55
M 393.45 944.75
Q 397.35 953.95 403.8 960.95
L 302.5 957.75 367.3 882.75
Q 380.4 913.75 393.45 944.75
M 405.6 1027.6
L 408.1 1030.1
Q 398.95 1037.1 387.55 1038.8 374.25 1040.7 361.15 1038.4 341.9 1035.4 333.85 1019.95
L 336.3 1016.05 335.5 1010.55
Q 351.15 997.7 373.1 997.7 400 997.75 412.8 1020.05
L 410.25 1027.9 405.6 1027.6
M 467.15 1050.15
Q 469.8 1063.1 481.55 1070.6 505 1085.5 532.75 1082.1 543.65 1080.6 552.35 1075.75
L 595.25 1086.95 568.75 1125.95
Q 566.85 1130.9 565.15 1135.9 560.45 1149.8 561 1164.5 492.75 1127.75 422.35 1095.35 389.45 1080.25 356.5 1064.9 296.45 1036.95 238.4 1004.95 208.35 988.3 182.45 971.2 199.85 972.95 215.75 980.2 239.4 990.85 264.5 998.4 297.25 1008.5 327.8 1020 329.45 1028.6 337 1033.5 347.2 1040.05 359.05 1043.5 380.25 1049.75 400.5 1041.75 409.05 1038.3 415.6 1033.65
L 467.15 1050.15
M 407.35 1110.05
L 449 1129.6 499.85 1154.25 427.55 1204.8 407.35 1110.05
M 341.55 1078.8
L 380.5 1097.35 301 1144.2 299.55 1058.15 341.55 1078.8
M 500.85 1041.6
Q 511.05 1043.85 521.5 1044.7 540.2 1046.7 550.65 1061.05
L 547.45 1067.5
Q 542.95 1071.45 537.2 1073.1 525.1 1076.2 512.55 1075.1 486.5 1072.5 475.5 1050.35 484.3 1038.05 500.85 1041.6
M 532.6 1170.85
L 565.75 1186.85 574.4 1203.95 591.95 1225.75
Q 582.2 1227.1 573.75 1231.6 557.6 1240.4 542.25 1250.5
L 532.6 1170.85
M 243.65 896.1
L 270.6 956.75 200 954.85 243.65 896.1
M 272.8 1044.5
Q 257.9 1053.05 243 1061.75 209.9 1081.05 174.2 1094.65
L 174 987.95 236.1 1024.8 272.8 1044.5
M 596.25 1243.8
L 606.2 1238.75 642.9 1263.7 606.8 1269 590.95 1250.1 596.25 1243.8
M 579 1274.55
Q 572.8 1275.6 569.3 1280.75 566.15 1285.3 568.9 1290.2 584.3 1317.55 611.55 1333.3 612.25 1333.75 613 1334.25
L 613.9 1334.8
Q 599.2 1333.15 583.65 1331 583.55 1328.75 582.1 1327.15 562.65 1305.9 554.15 1278.45
L 583.6 1258 595.05 1272.05
Q 587.05 1273.45 579 1274.55
M 642.85 1359.6
L 644.75 1359.55
Q 631.65 1393.9 616.4 1428.15 611.45 1439.3 606.1 1450.3
L 542.7 1347.45 642.85 1359.6
M 598.6 1292.85
Q 603.95 1291.25 609.3 1290.7 640.15 1288.4 668 1276.3
L 681.45 1282 654.25 1341.25 598.6 1292.85
M 557.45 1569.25
Q 539.35 1532.05 512.3 1500.6 506 1493.2 500.8 1484.95 512.75 1485.65 524.45 1485.45 560.2 1484.9 595.2 1478.9
L 557.45 1569.25
M 639.75 1515.05
Q 635.65 1523.85 635.85 1533.3
L 634.9 1560.6 536.85 1693.05 683.85 1319.3 695.65 1287.35 759.15 1305.85 805.7 1317.75 790.9 1337.6
Q 788.3 1337.2 785.7 1337.25 758.5 1337.95 741.4 1360.1 728.25 1377.1 722.8 1398.15 722.7 1398.6 722.55 1399.1 721.75 1402.25 721.25 1405.35 718.75 1420.9 728.5 1432 718.8 1447.45 708.2 1462.05 696.5 1478.2 682.25 1488.75 667.9 1487.1 655.95 1495.15 654.9 1495.85 653.95 1496.65 644.75 1504.2 639.75 1515.05
M 645 1561.65
Q 643.4 1555.9 644.25 1549.9 646.1 1536.3 651.7 1523.7 657.4 1511.05 669.25 1504.45 684.25 1496.05 693.3 1509.6 696.55 1523.35 687.2 1535.05 682.85 1540.45 678.75 1545.85 665.45 1563.15 645 1561.65
M 1237.85 818.25
L 1231.45 830.15 1210.15 862.65 1176 806.9 1237.85 818.25
M 1012.8 837.4
Q 1020.95 833.7 1029.95 835.6 1052.65 840.55 1069.05 857.9
L 1014.6 857.85 990 859.75
Q 997.4 844.45 1012.8 837.4
M 823.95 889.45
Q 830.65 889.25 837.2 889.8 850.45 890.3 859.9 882.6
L 857.5 891.45 829.1 904.3 797.2 922.8 784.2 892.45
Q 804.1 890.35 823.95 889.45
M 869.2 860.95
L 866 865.2 818.95 802.55 892.4 798.5 869.2 860.95
M 814 1318.3
L 953.6 1347.45 998.35 1353.45 992.6 1357.05
Q 990.65 1356.7 988.8 1356.8 983.95 1357.3 981.35 1361.5 978.95 1365.3 978.9 1369.85 906.45 1429.75 831.05 1486.25 747.8 1548.5 664.2 1610.45 600 1657.95 537.25 1707.5
L 638.5 1568.25
Q 647.7 1574.75 658.5 1570.5 671.8 1565.4 682.05 1555.3 697.5 1540.1 703.1 1519.35 708.45 1499.5 689.8 1490.8
L 735.8 1436.9
Q 759.5 1444.2 778.85 1430.25 811.25 1406.8 812.65 1367.2 813.3 1348.05 795.8 1339.2
L 814 1318.3
M 743.5 1375.25
Q 748.95 1368.95 755.05 1363.1 773.7 1345.2 796.15 1352.65 801.65 1356.85 802.3 1363.65 805.1 1392.1 785.05 1413.55 765.9 1434.1 739.25 1427.45 735.85 1426.6 734.6 1423.5 724 1397.75 743.5 1375.25
M 762.85 1570.3
Q 762.55 1574.25 762.9 1578 767.65 1627.05 784 1673.25 776.05 1672.9 768.2 1672.4 746.15 1671.8 724.6 1667.55 687.9 1660.65 652.1 1649.2
L 715.65 1602.7 762.85 1570.3
M 870.65 1487.5
L 896.2 1572.3 786.1 1551.3 870.65 1487.5
M 1002.35 1382.95
L 1028.7 1363.7 1067.4 1387.15 1064.55 1434.85 1007.2 1437.8 1002.35 1382.95
M 979.5 1401.2
L 983.15 1487.55 891.3 1471.05 979.5 1401.2
M 1091.75 1507.05
L 1089.1 1399.95 1201.25 1463.95 1091.75 1507.05
M 1249.7 1578.85
Q 1249.55 1578.1 1249.35 1577.35 1236.55 1527.2 1224.7 1476.95
L 1368.55 1557.9
Q 1317 1578.9 1265.7 1600.4 1261.8 1602.05 1258.05 1600.35 1252 1590.55 1249.7 1578.85
M 666.2 1724.05
Q 668.35 1727.05 670.6 1730.05
L 566.8 1724.65 556.55 1723.55 633.4 1664.25
Q 640.05 1682.4 649.9 1699.05 657.45 1711.85 666.2 1724.05
M 549.3 1584.85
L 550.3 1584.4
Q 530 1636.3 508.7 1688.75 493.1 1668 480.25 1645.15 463.8 1615.95 447.95 1586.45 457 1587.2 466 1588.35 508.3 1593.9 549.3 1584.85
M 1644.25 1637.15
Q 1650.65 1639.25 1657.55 1640.05 1693.15 1640.95 1728.8 1639.1
L 1706.25 1720.35 1644.25 1637.15
M 1578.85 1758.4
L 1562.5 1668.95
Q 1617.25 1700.55 1670.75 1736.25
L 1578.85 1758.4
M 1434 1675.85
L 1412.5 1600.9 1404.6 1576.1 1530.15 1647.95 1434 1675.85 Z"/>

<path fill="#FF0066" stroke="none" d="
M 1412.5 1600.9
L 1434 1675.85 1530.15 1647.95 1404.6 1576.1 1412.5 1600.9
M 1562.5 1668.95
L 1578.85 1758.4 1670.75 1736.25
Q 1617.25 1700.55 1562.5 1668.95
M 1657.55 1640.05
Q 1650.65 1639.25 1644.25 1637.15
L 1706.25 1720.35 1728.8 1639.1
Q 1693.15 1640.95 1657.55 1640.05
M 550.3 1584.4
L 549.3 1584.85
Q 508.3 1593.9 466 1588.35 457 1587.2 447.95 1586.45 463.8 1615.95 480.25 1645.15 493.1 1668 508.7 1688.75 530 1636.3 550.3 1584.4
M 670.6 1730.05
Q 668.35 1727.05 666.2 1724.05 657.45 1711.85 649.9 1699.05 640.05 1682.4 633.4 1664.25
L 556.55 1723.55 566.8 1724.65 670.6 1730.05
M 1249.35 1577.35
Q 1249.55 1578.1 1249.7 1578.85 1252 1590.55 1258.05 1600.35 1261.8 1602.05 1265.7 1600.4 1317 1578.9 1368.55 1557.9
L 1224.7 1476.95
Q 1236.55 1527.2 1249.35 1577.35
M 1089.1 1399.95
L 1091.75 1507.05 1201.25 1463.95 1089.1 1399.95
M 983.15 1487.55
L 979.5 1401.2 891.3 1471.05 983.15 1487.55
M 896.2 1572.3
L 870.65 1487.5 786.1 1551.3 896.2 1572.3
M 762.9 1578
Q 762.55 1574.25 762.85 1570.3
L 715.65 1602.7 652.1 1649.2
Q 687.9 1660.65 724.6 1667.55 746.15 1671.8 768.2 1672.4 776.05 1672.9 784 1673.25 767.65 1627.05 762.9 1578
M 755.05 1363.1
Q 748.95 1368.95 743.5 1375.25 724 1397.75 734.6 1423.5 735.85 1426.6 739.25 1427.45 765.9 1434.1 785.05 1413.55 805.1 1392.1 802.3 1363.65 801.65 1356.85 796.15 1352.65 773.7 1345.2 755.05 1363.1
M 866 865.2
L 869.2 860.95 892.4 798.5 818.95 802.55 866 865.2
M 837.2 889.8
Q 830.65 889.25 823.95 889.45 804.1 890.35 784.2 892.45
L 797.2 922.8 829.1 904.3 857.5 891.45 859.9 882.6
Q 850.45 890.3 837.2 889.8
M 1029.95 835.6
Q 1020.95 833.7 1012.8 837.4 997.4 844.45 990 859.75
L 1014.6 857.85 1069.05 857.9
Q 1052.65 840.55 1029.95 835.6
M 1231.45 830.15
L 1237.85 818.25 1176 806.9 1210.15 862.65 1231.45 830.15
M 644.25 1549.9
Q 643.4 1555.9 645 1561.65 665.45 1563.15 678.75 1545.85 682.85 1540.45 687.2 1535.05 696.55 1523.35 693.3 1509.6 684.25 1496.05 669.25 1504.45 657.4 1511.05 651.7 1523.7 646.1 1536.3 644.25 1549.9
M 512.3 1500.6
Q 539.35 1532.05 557.45 1569.25
L 595.2 1478.9
Q 560.2 1484.9 524.45 1485.45 512.75 1485.65 500.8 1484.95 506 1493.2 512.3 1500.6
M 609.3 1290.7
Q 603.95 1291.25 598.6 1292.85
L 654.25 1341.25 681.45 1282 668 1276.3
Q 640.15 1288.4 609.3 1290.7
M 644.75 1359.55
L 642.85 1359.6 542.7 1347.45 606.1 1450.3
Q 611.45 1439.3 616.4 1428.15 631.65 1393.9 644.75 1359.55
M 243 1061.75
Q 257.9 1053.05 272.8 1044.5
L 236.1 1024.8 174 987.95 174.2 1094.65
Q 209.9 1081.05 243 1061.75
M 270.6 956.75
L 243.65 896.1 200 954.85 270.6 956.75
M 565.75 1186.85
L 532.6 1170.85 542.25 1250.5
Q 557.6 1240.4 573.75 1231.6 582.2 1227.1 591.95 1225.75
L 574.4 1203.95 565.75 1186.85
M 521.5 1044.7
Q 511.05 1043.85 500.85 1041.6 484.3 1038.05 475.5 1050.35 486.5 1072.5 512.55 1075.1 525.1 1076.2 537.2 1073.1 542.95 1071.45 547.45 1067.5
L 550.65 1061.05
Q 540.2 1046.7 521.5 1044.7
M 380.5 1097.35
L 341.55 1078.8 299.55 1058.15 301 1144.2 380.5 1097.35
M 449 1129.6
L 407.35 1110.05 427.55 1204.8 499.85 1154.25 449 1129.6
M 408.1 1030.1
L 405.6 1027.6 410.25 1027.9 412.8 1020.05
Q 400 997.75 373.1 997.7 351.15 997.7 335.5 1010.55
L 336.3 1016.05 333.85 1019.95
Q 341.9 1035.4 361.15 1038.4 374.25 1040.7 387.55 1038.8 398.95 1037.1 408.1 1030.1
M 403.8 960.95
Q 397.35 953.95 393.45 944.75 380.4 913.75 367.3 882.75
L 302.5 957.75 403.8 960.95
M 604.25 927.75
Q 586.05 950.1 561.3 963.55
L 716.55 962.7
Q 687.5 924.4 670.15 879.15 667.3 871.75 663.6 864.75 631.8 893.95 604.25 927.75
M 551.55 952.85
Q 552 950.5 549.2 946.7 545.6 941.95 544.6 936 540.2 910.3 537.85 884.3 529.9 890.55 521.9 896.75 475.25 933.05 423.45 961.45
L 452.75 962.2 557.95 963.7
Q 557.1 963.5 556.35 963.2 555.5 963 554.75 962.65 549.6 959.7 551.1 953.95 551.45 953.4 551.55 952.85
M 1151.55 769.95
L 1181.85 699.4 1101.8 698.8 1151.55 769.95
M 1048.6 735.05
Q 1048.15 714.5 1030.9 702.3 1013.15 688.9 1001.1 708.7 988.45 729.45 996.3 750.5 997.2 752.9 999.7 754.05 1026 766.05 1044.8 745.3 1048.75 741 1048.6 735.05
M 1077.4 664.55
L 1096.7 614.3 1038.1 604.45 1043.3 615.1 1077.4 664.55
M 888.65 604.35
L 936.55 689.2 972.3 609.5
Q 930.85 603.9 888.65 604.35
M 871.95 700.6
Q 861.9 698.15 851.95 699.75
L 900.7 777.25 932.35 701.05 923.55 700.8
Q 898.2 707.15 871.95 700.6
M 1664.7 1557.5
L 1577.95 1548.4 1628 1616.8 1628.7 1614.15 1664.7 1557.5
M 1624.5 1283.2
L 1662.6 1308.55
Q 1661.8 1262.05 1674.95 1217.85
L 1578.55 1246.25 1624.5 1283.2
M 1775.45 1200.75
Q 1775.7 1194.35 1778.65 1188.75
L 1703 1209.55
Q 1728.7 1230.35 1753.9 1251.85 1758.45 1255.75 1763.35 1259.35 1773.55 1267 1784.8 1272.95 1773.95 1237.35 1775.45 1200.75
M 1454.85 1353.1
L 1497.35 1427.25 1514.1 1366.45 1454.85 1353.1
M 1556.95 1518.5
L 1589.05 1461.8 1516.55 1454.9 1556.95 1518.5
M 1435.45 1490.55
Q 1431.5 1489.95 1430.05 1493.5 1426 1503.25 1430.95 1513.5 1440.5 1533.35 1459.45 1544.25 1469.2 1549.85 1479.25 1547.3 1489.2 1537.85 1482.05 1524.05 1467.3 1495.5 1435.45 1490.55
M 1314.3 1383.45
L 1313.85 1384.3
Q 1313.5 1385 1313 1385.6
L 1308.65 1385.85
Q 1302.75 1382.9 1299.9 1391.8 1299.65 1392.65 1299.35 1393.55 1300.75 1423.45 1325.1 1442.9 1347.35 1460.7 1374.8 1457.75 1376.75 1457.35 1377.4 1455.35 1387.75 1424.35 1363.3 1401.9 1342.55 1382.85 1314.3 1383.45
M 1493.8 1270.95
L 1481.4 1285.35
Q 1516.6 1313.2 1557 1333.2 1559.1 1334.3 1561.3 1335.25 1550.8 1295.35 1551.75 1254.15
L 1493.8 1270.95
M 1598.5 1131.25
Q 1595.35 1130.25 1592.1 1129.55 1558.95 1120.55 1544 1151.1 1542.6 1154 1544.65 1156.35 1554.75 1167.75 1571.25 1168.2 1587.75 1168.65 1602.75 1161.85 1618.85 1154.6 1609.4 1139.85 1605.5 1133.7 1598.5 1131.25
M 1587 1008.25
Q 1565.75 1022.45 1545.5 1042 1537.8 1049.5 1530.8 1057.45 1530.55 1057.7 1530.7 1058.25
L 1638.55 1074.45 1587 1008.25
M 1404.45 1136.6
L 1394.9 1105.35
Q 1381.1 1064.4 1356.25 1029.3 1331.1 993.8 1295.8 968.3 1260.3 942.55 1221.85 921.95 1215.85 918.8 1209.6 915.75 1172.35 897.65 1131.65 890.25 1093 883.3 1053.85 882 1014.45 880.85 975.4 885.85 934.55 891.2 894.95 902.5 878.85 907.05 865.6 915.65 862.1 917.95 858.4 916.7 820.3 932.75 787.7 958.2 745.05 991.6 715 1036.9 706.05 1050.35 698.05 1064.3 741.15 1090.65 784.55 1116.5 804.2 1128.15 825 1137.25 894.15 1167.5 969.35 1176.6 1036.15 1184.8 1103.55 1185.95 1190.4 1187.4 1275.9 1172.25 1305.15 1166.9 1334.05 1159.2 1362.2 1151.85 1389.65 1142.05 1397.15 1139.4 1404.45 1136.6
M 1453.7 1000.8
Q 1452.2 997.55 1449.6 995.9 1444.9 999.45 1440.8 1004.3 1425.1 1022.8 1408.25 1040.25 1403.9 1044.7 1404.05 1049.45
L 1489.1 1053.15
Q 1485.05 1049.15 1481.3 1044.7 1464.55 1024.45 1453.7 1000.8
M 1301.5 941.5
L 1303.35 924.8 1268.05 920 1301.5 941.5
M 1896.4 1105.45
Q 1895.55 1104.55 1894.75 1103.65 1881.1 1088.15 1866.35 1073.8 1851.9 1059.8 1835.3 1050.05
L 1782.35 1096.5 1896.4 1105.45
M 1798.8 1181.3
L 1803.05 1185.75
Q 1835.15 1215.15 1873.75 1235 1877.65 1236.95 1880.1 1236.7 1874.3 1204.85 1877.7 1172.7 1878.55 1164.9 1882 1158.2
L 1798.8 1181.3
M 1671.7 1152.7
Q 1671.6 1153.1 1671.8 1153.6 1679.55 1161.55 1691.95 1160.5 1698.05 1159.75 1704.2 1159.65 1722.4 1160.6 1735.8 1149.85 1736.15 1149.55 1736.3 1148.9 1725.1 1134.45 1705.35 1132.95 1698 1133.05 1690.75 1134.55 1674.7 1138.4 1671.7 1152.7
M 1756.2 1085.35
Q 1754.55 1082.95 1753 1080.5
L 1729.6 1031.75 1659.7 1078.85 1757.05 1092.75
Q 1758 1091.1 1757.8 1089.6 1757.55 1087.4 1756.2 1085.35 Z"/>

<path fill="#41344A" stroke="none" d="
M 1028.7 1363.7
L 1002.35 1382.95 1007.2 1437.8 1064.55 1434.85 1067.4 1387.15 1028.7 1363.7
M 953.6 1347.45
L 814 1318.3 795.8 1339.2
Q 813.3 1348.05 812.65 1367.2 811.25 1406.8 778.85 1430.25 759.5 1444.2 735.8 1436.9
L 689.8 1490.8
Q 708.45 1499.5 703.1 1519.35 697.5 1540.1 682.05 1555.3 671.8 1565.4 658.5 1570.5 647.7 1574.75 638.5 1568.25
L 537.25 1707.5
Q 600 1657.95 664.2 1610.45 747.8 1548.5 831.05 1486.25 906.45 1429.75 978.9 1369.85 978.95 1365.3 981.35 1361.5 983.95 1357.3 988.8 1356.8 990.65 1356.7 992.6 1357.05
L 998.35 1353.45 953.6 1347.45
M 635.85 1533.3
Q 635.65 1523.85 639.75 1515.05 644.75 1504.2 653.95 1496.65 654.9 1495.85 655.95 1495.15 667.9 1487.1 682.25 1488.75 696.5 1478.2 708.2 1462.05 718.8 1447.45 728.5 1432 718.75 1420.9 721.25 1405.35 721.75 1402.25 722.55 1399.1 722.7 1398.6 722.8 1398.15 728.25 1377.1 741.4 1360.1 758.5 1337.95 785.7 1337.25 788.3 1337.2 790.9 1337.6
L 805.7 1317.75 759.15 1305.85 695.65 1287.35 683.85 1319.3 536.85 1693.05 634.9 1560.6 635.85 1533.3
M 569.3 1280.75
Q 572.8 1275.6 579 1274.55 587.05 1273.45 595.05 1272.05
L 583.6 1258 554.15 1278.45
Q 562.65 1305.9 582.1 1327.15 583.55 1328.75 583.65 1331 599.2 1333.15 613.9 1334.8
L 613 1334.25
Q 612.25 1333.75 611.55 1333.3 584.3 1317.55 568.9 1290.2 566.15 1285.3 569.3 1280.75
M 606.2 1238.75
L 596.25 1243.8 590.95 1250.1 606.8 1269 642.9 1263.7 606.2 1238.75
M 481.55 1070.6
Q 469.8 1063.1 467.15 1050.15
L 415.6 1033.65
Q 409.05 1038.3 400.5 1041.75 380.25 1049.75 359.05 1043.5 347.2 1040.05 337 1033.5 329.45 1028.6 327.8 1020 297.25 1008.5 264.5 998.4 239.4 990.85 215.75 980.2 199.85 972.95 182.45 971.2 208.35 988.3 238.4 1004.95 296.45 1036.95 356.5 1064.9 389.45 1080.25 422.35 1095.35 492.75 1127.75 561 1164.5 560.45 1149.8 565.15 1135.9 566.85 1130.9 568.75 1125.95
L 595.25 1086.95 552.35 1075.75
Q 543.65 1080.6 532.75 1082.1 505 1085.5 481.55 1070.6
M 564.25 984.4
Q 529.05 984.05 494 983.1 458.8 982.1 423.85 980.45 388.6 978.95 353.65 976.5 331.7 975.1 309.7 973.75 304.55 973.4 279.2 973.2
L 212.8 973.05 329.2 1011.65
Q 331 1007.9 333.95 1005.25 337.1 1002.4 340.6 1000.55 343.3 999.2 345.95 998.25 349.6 996.85 353.5 995.55 357.7 994.25 362.05 993 381.05 988 399.25 995.6 417.1 1003.1 419.6 1020.85 420.15 1024.55 418.35 1027.9
L 468.2 1044
Q 470.85 1042.6 474.05 1039.55 476.05 1037.7 478.6 1036.4 481.4 1035.05 484.25 1034.1 487 1033.15 489.7 1032.75 493.65 1032 497.65 1031.35 509.1 1029.5 519.15 1034.8 526.05 1038.45 533.9 1040.25 554.2 1044.8 557.95 1063.2 558.4 1065.45 557.7 1067.65 557.35 1068.8 557.4 1070.05
L 600.15 1081.85
Q 609 1073.1 618.6 1065.45 625.9 1059.55 633.6 1054.45 642.4 1048.6 651.85 1043.7 661.65 1038.6 671.95 1034.4 682.15 1030.35 692.95 1027.35
L 713.95 999.15 728.2 982.4
Q 681.35 984.15 634.45 984.5 599.2 984.75 564.25 984.4
M 1002.75 596.7
Q 994.5 610.25 985.8 629.15 951.2 704.2 919.95 780.7 899.1 831.7 879.65 883.3
L 905.3 875.45 981.2 860.7
Q 982.9 856.2 985.5 852.15 997.25 834.15 1017.5 827.75
L 1012.7 767.9
Q 997.4 767.05 988.05 755.1 981.85 747.1 983.2 736.9 986.15 714.85 997.25 696.05 999.95 691.5 1004.45 688.3 1006.2 687.1 1007.9 685.85
L 1002.75 596.7
M 1023.35 624.25
Q 1022.3 622.6 1021.3 621 1016.35 612.95 1012.25 604.45
L 1016.8 682.9
Q 1023.3 685.7 1032 690.15 1045.2 696.95 1053.1 709.5 1063.7 726.5 1056.9 744.85 1054.8 750.45 1050.65 754.7 1049.95 755.4 1049.25 756.1 1037.1 766.95 1020.7 767.9
L 1027.05 826.95
Q 1041.9 828.6 1054.35 837.1 1061.4 841.9 1068.05 847.15 1073.2 851.25 1077.7 856.25 1078.25 856.9 1078.85 857.55
L 1125.15 864.05 1196.05 882.55
Q 1171 837 1141.7 794.05 1133.5 782.05 1125 770.15 1074 698.45 1024.5 626 1023.9 625.1 1023.35 624.25
M 1361.05 1470.55
Q 1357.1 1469.8 1353.1 1468.15 1343.1 1464.15 1333.45 1459.3 1311.2 1448.05 1299.1 1426.4 1291.05 1411.9 1290.95 1395.5 1290.9 1383.3 1299.4 1374.55
L 1283 1350.85 1137.25 1359.15 1069.8 1358.6
Q 1125.55 1392.75 1182.45 1425.35 1196.05 1433.2 1209.75 1440.9 1234.45 1454.95 1259.3 1468.85 1303.95 1493.75 1348.7 1518.5 1381.6 1536.7 1414.45 1555.05 1448.55 1574.15 1482.25 1593.35 1539.4 1625.85 1595.35 1660 1627.6 1679.75 1659.4 1700.3 1663.65 1703.05 1667.95 1705.85
L 1487 1549.95
Q 1479.2 1556.2 1467.8 1553.15 1459.8 1551.05 1452.55 1546.35 1434.9 1534.9 1426.1 1515.75 1422.7 1508.35 1422.3 1500.2
L 1382.9 1467.65
Q 1372.75 1472.15 1361.05 1470.55
M 1304.75 1370.2
Q 1315.1 1371.4 1327.2 1372.75 1334.7 1373.25 1341.75 1375.55 1381.85 1389.1 1391.65 1430.15 1393.75 1438.9 1392.25 1447.95 1390.85 1456.45 1386.3 1463.7
L 1422.1 1494.85
Q 1423.95 1489.85 1430.25 1484.35 1437 1478.45 1445.05 1482.15 1473.4 1494.8 1487.8 1521.15 1491.15 1527.2 1491.3 1534.3 1491.45 1539.65 1489.35 1544.4 1490.15 1549.8 1497.9 1554.05 1503.1 1557 1507.7 1560.9 1536.85 1585.9 1566.35 1610.4 1598.1 1636.7 1630.55 1662.5 1637.1 1667.65 1643.6 1673.15 1611.9 1630.6 1580.75 1587.55 1499.4 1475 1440.5 1349.3 1436.8 1348.15 1434.85 1345 1433.05 1342.15 1434.45 1339.05 1434.8 1338.25 1435.25 1337.45
L 1428.6 1321.75 1380.05 1336.7 1288.4 1349.2 1304.75 1370.2
M 1300.25 1240.1
Q 1334.3 1231.8 1366.8 1218.9 1392.1 1209 1418.55 1201.5
L 1410.75 1162.15
Q 1341.3 1189.95 1266.8 1199.9 1209.65 1207.8 1151.95 1208.65 1102.5 1209.4 1053.2 1206.9 1015.05 1205.25 977.35 1200.75 944.65 1196.9 912.9 1189.55 884.25 1182.95 856.85 1172.75 832.15 1163.6 808.75 1151.15 787.95 1140.05 768.3 1127.25 737.4 1107.1 707.95 1084.9 700.45 1079.3 693.05 1073.6
L 664.75 1143.4 663.55 1147.1
Q 680.8 1164.55 703.1 1178.45 740.85 1201.8 782.4 1217.1 827.95 1233.8 875.9 1242.4 911.6 1249 947.65 1252.4 991.65 1256.6 1035.8 1258.4 1080.7 1260.4 1125.65 1260 1170.8 1259.55 1215.65 1254.75 1258.3 1250.1 1300.25 1240.1
M 1482.9 1329.5
Q 1490.4 1325.4 1497.85 1321.05
L 1471.85 1296.75 1436.85 1317.95 1444.25 1332.75 1475 1338.9
Q 1476.85 1332.75 1482.9 1329.5
M 1461.45 1153.4
Q 1450 1141.15 1435.4 1132.65 1447.7 1174.4 1451.05 1216.95 1452.1 1230.5 1440.95 1237.1 1439.2 1238.15 1437.05 1238.1
L 1428.3 1234
Q 1413.35 1236.5 1396.95 1242.5 1350.35 1259.85 1302.3 1271.8 1260.3 1282.05 1217.1 1285.6 1186.15 1288.15 1155.1 1288.55 1098.35 1289.25 1041.4 1286.85 996.4 1285 951.8 1279.75 910.7 1274.75 870.5 1265.6 832.25 1256.95 795.4 1243.4 755.7 1228.85 718.85 1207.8 682.4 1187.1 650.55 1160.1 648 1157.9 645.65 1155.45 637.75 1147.4 641.25 1136.3 655.25 1091.8 678.3 1051.35 620.45 1074.45 587.05 1126.3 575 1145.05 578.6 1167.05 582.6 1191.45 599.55 1209.7 617.1 1228.65 639.4 1242 663.8 1256.6 689.5 1264.65
L 692.5 1261.9 700.1 1267.75
Q 709.6 1273.85 722.75 1277.2 772.85 1289.95 823.4 1301.05 853.2 1307.65 883.05 1314.5 913.6 1321.35 944.55 1326.75 981.35 1333.2 1018.35 1336.65 1028.45 1328.75 1039.3 1334.15 1041.95 1335.5 1043.6 1338.05 1126.05 1343.65 1209.45 1336.5 1241.5 1333.55 1273.55 1330.9 1298.7 1328.8 1323.7 1325.75 1363.9 1321.2 1402.7 1309.7 1429.4 1301.9 1451.45 1285.05 1464.65 1274.95 1474 1261.25 1473.7 1253.2 1480.05 1248.3 1482.1 1246.7 1483.15 1244 1493.5 1217.65 1484.15 1190.85 1476.8 1169.7 1461.45 1153.4
M 1621.3 1156.05
L 1660.9 1154.4
Q 1660.4 1136 1678.95 1128.5 1713 1114.5 1741.6 1137.8 1745 1140.5 1746.95 1144.25
L 1874.7 1125.05
Q 1799.6 1121.6 1725.6 1109.05 1629.6 1093 1533.45 1078.05 1472.85 1068.35 1411.4 1065.45
L 1423.35 1095.7
Q 1461.45 1109.35 1486.5 1141.7 1492.75 1149.7 1497.55 1158.65
L 1533.7 1157.15
Q 1533.9 1138.8 1551.1 1126.9 1557.4 1122.6 1564.45 1119.8 1588.5 1110.05 1610.1 1124.9 1627.05 1136.65 1621.3 1156.05
M 1666.45 1163.05
Q 1664.55 1161.3 1663.05 1159.05
L 1619.25 1161.1
Q 1606.9 1175.35 1587.1 1176.35 1568.45 1177.8 1550.6 1172.45 1546.3 1171.05 1542.8 1168.4 1541.8 1167.55 1540.95 1166.65 1539.2 1164.85 1537.6 1162.95
L 1500 1163.4 1509.6 1191.5
Q 1514.4 1214.1 1508.9 1236.55 1508.3 1239.05 1507.6 1241.5
L 1642.35 1205.7 1902.35 1130.1 1746.9 1152.95
Q 1738.7 1165.3 1723.4 1168.5 1700.85 1173.4 1678.25 1168.95 1672.95 1167.85 1668.5 1164.75 1667.4 1163.95 1666.45 1163.05 Z"/>
</g>

<g id="Layer1_0_FILL">
<path fill="#000000" fill-opacity="0.2" stroke="none" d="
M 1376.95 1161.7
Q 1369.25 1162.55 1354.85 1165.8
L 1238.9 1192.1
Q 1199.2 1201.1 1179.1 1204.55 1145.65 1210.35 1118.5 1210.7 1095.25 1211.05 1067.05 1207.6 1047.7 1205.25 1016 1199.65 929.7 1184.35 877.85 1167.1 803.75 1142.35 754.7 1101.95 746.05 1094.6 741.6 1091.1 733.95 1085.05 727.5 1081.7 719.5 1077.5 711.35 1076.4 702.3 1075.2 694.8 1078.1 688.65 1080.5 682.9 1086.05 678.5 1090.3 673.6 1097.25 663.85 1111.2 659.95 1124.5 655.3 1140.4 659.75 1153.65 664.4 1167.55 679.65 1178.95 687.3 1184.7 708.9 1196.4 719.55 1202.15 734.4 1211.15 742.8 1216.25 759.6 1226.5 790.25 1244.95 811.75 1253.5 839.85 1264.7 876.3 1269.85 902.25 1273.55 943.2 1275.2 1061.65 1280 1165.6 1270.25 1281.9 1259.35 1383.7 1230 1393 1227.35 1398.2 1225.3 1406.05 1222.25 1411.65 1218.3 1418.25 1213.7 1422.25 1207.4 1426.6 1200.5 1426.75 1193.2 1427 1182.45 1418.45 1173.6 1410.5 1165.3 1399.05 1162.6 1389.35 1160.35 1376.95 1161.7
M 423.75 1039.3
Q 420.7716796875 1037.0634765625 416.85 1036.55 413.45 1036.05 408.9 1036.75 408.25 1036.85 401 1038.3 386.7 1041.2 371.95 1040.3 357.2 1039.4 343.3 1034.75 335.75 1032.25 332.45 1028.85 330.95 1027.3 328.95 1024.05 326.7 1020.4 325.6 1019.1 322.4 1015.25 316.6 1012.6 313.4 1011.1 305.9 1008.75 294.5 1005.15 276.75 998.4 253.2 989.5 247.75 987.55 213.15 975.2 188.2 973.25 183.45 972.85 180.9 973.8 179.05 974.45 177.85 975.9 176.55 977.45 176.5 979.2 176.45 984.6 186.65 986.45 206.26640625 989.91171875 235.15 1002.4 233.7591796875 1003.7482421875 232.85 1005.45 230.25 1010.35 232.4 1016.4 234.35 1022.05 239.25 1025.8 243.15 1028.8 249.45 1031.15 253.1 1032.55 260.55 1034.85 274.5 1039.55 298.75 1053.8 323.9 1068.5 336.8 1073.25 341.6 1075 356.1 1079.25 368.25 1082.75 375.15 1085.85 382 1088.9 390.95 1094.55 396.05 1097.75 406.15 1104.35 428.7 1118.5 469.75 1135.45 502.45 1149 502.65 1149.05 521.35 1157.05 534.85 1164 541.25 1167.3 544 1168.45 549.25 1170.6 553.65 1171 558.95 1171.5 563.6 1169.3 568.6 1166.95 570.4 1162.45 571.75 1159.1 571.2 1154.1 570.2 1148.3 569.85 1145.45 568.85 1137.2 571.6 1129.1 574.35 1120.95 580.2 1115 584.45 1111.1 586.45 1109.1 589.95 1105.5 591.05 1102.15 591.256640625 1101.534765625 591.4 1100.9 595.501953125 1101.4158203125 597.8 1100.9 599.6 1100.5 601 1099.5 602.5 1098.4 603.1 1096.85 603.95 1094.75 602.9 1092.35 601.9 1090.1 599.75 1088.9 596.15 1086.85 590.65 1088
L 587.95 1088.55
Q 583.3111328125 1082.651953125 575.8 1080.05 566.45 1076.8 553.6 1077.45 548.25 1077.75 530.9 1080.25 517.25 1082.15 508.05 1081.45 495.5 1080.5 486.95 1074.8 481.85 1071.4 474.35 1062.6 466.45 1053.45 461.95 1050.1 454.4 1044.45 442.85 1041.85 436.1078125 1040.372265625 423.75 1039.3
M 633.85 1570.95
Q 629.5 1574.1 625.55 1579.9 624.05 1582.1 619.2 1590.5 604.55 1615.85 576.7 1646.4 569.25 1654.55 552.4 1672.15 536.4 1688.85 528.2 1697.95 524.1 1702.5 522 1705.4 518.9 1709.75 517.6 1713.9 516.05 1718.75 517.1 1723.55 518.2 1728.7 521.9 1731.55 525.3 1734.2 530.25 1734.15 534.75 1734.1 539 1731.9 542.55 1730.05 546.2 1726.55 548.35 1724.5 552.35 1719.85
L 574.85 1693.65 642.75 1635.5
Q 657.65 1622.8 665.2 1616.75 677.95 1606.65 688.95 1599.7 700.6 1592.35 719.05 1583.3 739.75 1573.4 749.9 1568.15 804.2 1540.1 871.05 1482.45 885.45 1470.05 927.05 1432.6 961.95 1401.15 983.45 1383.4 990.3 1377.75 993 1375.15 998.15 1370.25 1001.15 1365.6 1004.8 1360 1005.9 1353.9 1007.15 1347.25 1004.95 1341.65 1002.25 1334.8 994.9 1330.6 988.3 1326.75 980.05 1326.15 973.65 1325.7 964.7 1327.05 954.5 1328.85 949.4 1329.6 926.05 1333.05 898.7 1328.55 876.75 1324.95 849.1 1315.55 833.55 1310.3 824.95 1309.3 811.15 1307.7 802.15 1313.65 792.6 1319.95 791.35 1332.65 790.1 1345.3 798.15 1353.4 799.6203125 1354.8837890625 801.6 1356.3 805.560546875 1367.7376953125 806.65 1375.8 808.4 1388.8 804.1 1398.5 798.5 1411.25 781.1 1420.15 775.85 1422.85 765.45 1427.1 754.45 1431.65 749.85 1433.9 740.3 1438.5 731.7 1445.25 724.25 1451.05 716.15 1459.7 711.5 1464.65 702.15 1475.7 695.75 1483.3 693.2 1489.3 689.7 1497.6 692.8 1503.95 693.55 1505.5 695.9 1508.65 698.1 1511.6 698.85 1513.45 700.6 1517.75 699.15 1524.15 696.15 1537.75 684.35 1548.2 673.55 1557.75 658.7 1562 650.05 1564.15 645.75 1565.45 638.35 1567.65 633.85 1570.95
M 760.1 1465.55
L 742.3 1476.9
Q 748.9283203125 1471.376953125 758.2 1466.5 759.170703125 1466.0326171875 760.1 1465.55
M 1356.35 1463
Q 1345.35 1459.6 1338.15 1456 1318.7 1446.35 1306.6 1427.15 1294.45 1407.9 1294.15 1386.25 1294.4 1376.15 1294.15 1371.2 1293.65 1362.6 1290.45 1357.2 1285.7 1349.2 1274.55 1345.9 1266.3 1343.45 1253.65 1343.45 1236.85 1343.5 1181.85 1347.25 1137.25 1350.3 1110.15 1348.2 1099.45 1347.35 1092.75 1348.95 1083.35 1351.2 1080.9 1358.3 1079.3 1362.95 1081.45 1368.15 1083.45 1372.95 1087.7 1376.3 1091.15 1379.05 1096.5 1381.25 1098.6 1382.1 1106.2 1384.7 1127.25 1392 1152.2 1406.6 1162.1 1412.4 1195.45 1434.05 1258.4 1474.8 1362.15 1531.4 1390.45 1546.85 1447.1 1577.5 1496.5 1604.5 1531.4 1624.7 1569.75 1646.9 1598.85 1665.75 1634.35 1688.7 1663.25 1711.25 1665.75 1713.2 1667.2 1714.05 1669.55 1715.4 1671.65 1715.55 1674.15 1715.8 1676.25 1714.2 1678.4 1712.5 1678.2 1710.2 1678 1708.5 1675.9 1706 1662.4 1689.95 1643.4 1673.55 1629.6 1661.65 1607.15 1644.95 1572.85 1619.35 1570.05 1617.15 1549.15 1601.05 1534.8 1587.3 1517.85 1571.2 1514.15 1568.15 1501.75 1558.15 1490.05 1555.15 1485.55 1554 1471 1552.6 1459.1 1551.5 1452.55 1548.45 1444.55 1544.75 1438.3 1536.8 1433.7 1530.95 1428.5 1520.35 1422.8 1508.25 1419.65 1502.45 1414.25 1492.4 1408.45 1486.5 1397.95 1475.75 1375.2 1468.65 1362.6 1464.95 1356.35 1463
M 1651.55 1159.65
Q 1639.9 1159.15 1634.35 1159.25 1624.75 1159.35 1617.3 1160.9 1608.3 1162.7 1601.1 1166.65 1593.05 1171.05 1588.15 1177.65
L 1563.7 1173.2
Q 1557.4 1172.05 1554.1 1171.25 1548.85 1169.9 1544.9 1168.05 1538.8 1164.65 1535.65 1163.2 1530.2 1160.6 1525.95 1161.15 1523.65 1161.45 1519.75 1163.15 1515.55 1165.05 1513.6 1165.45 1511.3 1165.95 1507.5 1165.75 1502.6 1165.55 1501.4 1165.6 1498 1165.75 1495.4 1167.1 1492.4 1168.65 1491.5 1171.4 1490.35 1174.95 1493.4 1179.45 1495.15 1182 1499.15 1187.05 1502.85 1192.9 1501.85 1201.9 1501.35 1206.4 1498.25 1217.65 1495.8 1226.65 1496.6 1233.8 1497.6 1242.7 1503.65 1246.65 1508.65 1249.9 1516.05 1248.85 1521.25 1248.1 1529.05 1244.85
L 1573.45 1226.6
Q 1585 1221.85 1591.05 1220 1601 1216.9 1609.35 1216.75 1612.05 1216.7 1616.05 1216.95 1618.3 1217.1 1622.75 1217.35 1635.4 1217.9 1654.85 1214.85 1693.6 1208.95 1731.4 1197.55 1744.8 1193.55 1764.4 1186.8 1775.35 1183.05 1797.2 1175.5 1836.7 1162.25 1863.95 1157.5 1870.75 1156.35 1884.35 1154.2 1896.2 1152.1 1904.4 1149.3 1916.75 1145.15 1920.25 1137.7 1922.3 1133.35 1921.15 1128.3 1919.95 1123.25 1916.2 1120.2 1911.75 1116.65 1904.55 1116.5 1899.6 1116.35 1891.6 1118.05 1792.8 1138.9 1697.8 1168.95 1693.95 1170.2 1691.7 1170.55 1688.25 1171.1 1685.55 1170.35 1683.6 1169.75 1681.15 1168.1 1678.45 1166.15 1677.05 1165.25 1672.1 1162.1 1664.8 1160.85 1660.3 1160.05 1651.55 1159.65
M 1507.2 1320.85
Q 1508 1314.95 1505.45 1309.15 1502.85 1303.4 1497.95 1299.85 1490.95 1294.85 1479.95 1294.7 1473.2 1294.6 1460.3 1296.9 1454.1 1298 1451.45 1298.7 1446.6 1300 1443.2 1302.1 1436.15 1306.45 1433.55 1315.05 1430.95 1323.6 1434.45 1331.15 1437.9 1338.65 1446.1 1342.25 1454.3 1345.85 1462.2 1343.3 1463.9 1342.75 1467.95 1340.9 1471.6 1339.25 1473.8 1338.7 1476.8 1338 1482.85 1338.1 1489.05 1338.25 1491.95 1337.6 1497.8 1336.35 1502.1 1331.55 1506.35 1326.85 1507.2 1320.85
M 1011.3 1370.15
Q 1008.65 1373.6 1002.85 1380.3 998.2 1386.3 997.05 1391.65 996.3 1395.15 996.7 1399.6 996.95 1402.2 997.95 1407.55
L 1000.7 1421.55
Q 1001.5 1425.9 1002.25 1428.25 1003.35 1431.9 1005.05 1434.45 1012.85 1446.1 1036.2 1443.4 1062.65 1440.3 1070.2 1425.8 1072.45 1421.55 1073.25 1415.65 1073.75 1412 1073.9 1404.85 1074.1 1394.35 1073.6 1389.05 1072.7 1380.3 1069.65 1374 1066 1366.45 1058.75 1361.05 1051.85 1355.85 1043.25 1353.75 1032.95 1351.2 1025.95 1354.65 1021.9 1356.65 1017.9 1361.5 1015.6 1364.3 1011.3 1370.15 Z"/>
</g>

<path id="Layer0_0_1_STROKES" stroke="#FF0000" stroke-opacity="0" stroke-width="1" stroke-linejoin="round" stroke-linecap="round" fill="none" d="
M 679.35 472.9
L 2679.35 472.9 2679.35 2472.9 679.35 2472.9 679.35 472.9 Z"/>
</defs>

<g transform="matrix( 1, 0, 0, 1, 0,0) ">
<use xlink:href="#Layer2_0_FILL"/>
</g>

<g transform="matrix( 1, 0, 0, 1, 0,0) ">
<use xlink:href="#Layer1_0_FILL"/>
</g>

<g transform="matrix( 1, 0, 0, 1, -679.35,-472.9) ">
<use xlink:href="#Layer0_0_1_STROKES"/>
</g>
</svg>
