
<svg xmlns="http://www.w3.org/2000/svg" version="1.1" xmlns:xlink="http://www.w3.org/1999/xlink" preserveAspectRatio="none" x="0px" y="0px" width="2000px" height="2000px" viewBox="0 0 2000 2000">
<defs>
<g id="Layer2_0_FILL">
<path fill="#000000" stroke="none" d="
M 1194.85 860.45
Q 1180.85 860.55 1167.4 864.35 1142.8 871.4 1137.9 894.3
L 1105.7 902.05
Q 1103.3 894.35 1098.5 888.05 1087.55 873.9 1070 877.05 1047.05 881.05 1045.75 903.35
L 947.15 936.75
Q 946.2 935.5 945.25 934.4 941.7 930.35 937.5 927 933.25 923.6 927.8 923.05 922.8 922.5 918.1 924 907.1 890.4 882.3 865.5 858.15 841.2 823.95 844.4 781.6 848.5 744.8 870.7 709.9 891.8 685.7 924.35 659.65 959.25 654.15 1002.75 648.95 1036 649.4 1069.65 650.25 1130.15 675.7 1184.6 689.9 1215.05 716.9 1234.55 737.45 1249.4 761.85 1256 792.75 1264.5 823.95 1258 832.85 1262.2 841 1256.4 855.35 1246.3 871.1 1237 888.9 1226.45 901.7 1210.2 924.35 1181.6 931.6 1145.85 934.05 1133.75 937.95 1124.75
L 1000.5 1111.8
Q 1006.45 1125.75 1020.55 1131.65 1035.55 1138.1 1051.45 1134.1 1089.25 1124.35 1120.1 1099.6 1125.2 1095.5 1130.9 1093.6 1148.45 1088 1166.2 1083.5 1177 1080.75 1187.35 1076.55 1208.05 1068.3 1230 1069.45 1237.7 1069.4 1242.45 1063.25 1262.3 1037.45 1266.4 1004.3 1270 975 1262.15 946.65 1255.9 924.1 1237.1 912.3 1238 904.9 1237.6 897.45 1236.65 878.8 1221.3 868.4 1209.35 860.35 1194.85 860.45
M 1207.55 895.05
Q 1208.75 896.75 1208.75 898.7 1208.3 945.45 1185.85 986.95 1172.35 1011.95 1155.35 1034.5 1112.9 1090.8 1048.05 1115.9 1026.65 1124.1 1013.9 1106.7 1017.35 1103.85 1025.25 1103.55 1038.4 1102.6 1049.45 1095.8 1064.85 1086.35 1078.65 1074.55 1107.05 1050.2 1130.7 1021.3 1145.2 1003.6 1158.2 984.85 1172.9 963.6 1178.1 938.55 1182.95 915.1 1171.7 895.15 1172.8 894.6 1173.95 894.05 1192.05 884.5 1207.55 895.05
M 1154 909.1
Q 1157.45 914.45 1161.05 919.7 1167.7 929.35 1164.25 940.8 1156 967.95 1139.1 991.1 1105.2 1037.6 1060 1073.4 1052.15 1079.6 1043.3 1084.5 1024.9 1094.7 1003.8 1096.45 1001.95 1095.15 999.55 1094.55 995.45 1093.7 991.1 1094.35 980.3 1096.1 969.45 1098.45 985.2 1087.15 999.85 1074.35 1029.95 1048.15 1055.6 1017.6 1083.95 983.75 1103.45 944.4
L 1109.25 916.65 1154 909.1
M 1221.2 976.8
L 1222.75 973
Q 1227.35 993.3 1222.9 1013.85 1221.8 1018.95 1220.8 1024 1218.15 1036.95 1216.1 1049.35
L 1161.1 1065.25
Q 1168.8 1057.95 1175.8 1049.95 1204.6 1017.1 1221.2 976.8
M 1031.9 928.35
L 1040.75 925.95
Q 1034.05 937.85 1028.5 950.35 1002.3 1009.6 958.2 1057.05 950.4 1065.45 941.55 1072.8 941.6 1064.35 941.5 1055.95 941.4 1047.5 943.8 1039.85 953.5 1008.9 953.6 976.05 953.65 965.45 952.45 955
L 1031.9 928.35
M 882.75 982.85
Q 877.7 963.95 871.45 945.35 855.65 898 815.1 870.5 851.2 864.3 872.5 893.4 885.95 911.85 893.95 933.4 908.3 972.1 914.5 1013.15 920.75 1054.5 916.4 1096 914.1 1118 909.85 1139.55 901.4 1182.75 869.7 1212.2
L 865 1215.6
Q 885.85 1171.25 892.4 1122.55 895.95 1096.05 895.3 1069.35 894.2 1025.35 882.75 982.85
M 928.1 942.9
Q 928.75 943.55 928.75 944.4 928.75 945.25 928.1 945.85 927.5 946.5 926.6 946.5 925.7 946.5 925.05 945.85 924.45 945.25 924.45 944.4 924.45 943.55 925.05 942.9 925.7 942.3 926.6 942.3 927.5 942.3 928.1 942.9
M 932.85 961.4
L 933.05 976.9
Q 931.3 969.35 931.2 961.85 931.2 961.6 932.85 961.4
M 818.15 888.05
Q 831.85 898.7 840.25 913.8 861 951 872.1 992.3 883.4 1034.4 881.3 1078.05 880.9 1096.75 878.8 1115.25 874.35 1154.3 858.45 1190.15 851.3 1206.25 841.25 1217 839.25 1214.85 836.95 1212.95 804.15 1186.15 791.6 1145.15 771.15 1078.4 779.45 1008.95 787.15 944.75 818.15 888.05
M 808.25 881.75
Q 805.7 884.65 803.85 888 771.9 947.05 765.1 1014 759.55 1069.1 771.45 1123.1 777.1 1148.6 787.8 1172.2 799.05 1197.15 818.25 1216.6 824.85 1223.4 833.2 1227.15
L 831.75 1230.1 793.05 1234.85
Q 778.85 1222.5 768.1 1207.25 744 1173.15 736.4 1131.9 728.9 1091.2 733.95 1050.1 738.75 1011 749.1 973 761.95 925.95 779.6 880.6
L 792.55 875.95 808.25 881.75
M 684.85 977.95
Q 697.9 935.8 732.45 908.1
L 758.45 890.6
Q 756 897.3 753.7 904.1 732.95 964.55 721.65 1027.25 716.2 1057.45 716.55 1088.1 716.9 1123.1 726.2 1156.5 738.25 1199.65 767.65 1233.15 742.05 1227.65 723.5 1209.65 692.6 1179.55 682.4 1137.05 672.5 1095.9 673 1053.4 673.5 1014.65 684.85 977.95
M 1074.1 906.4
Q 1074.4 906.2 1074.9 906.7 1085.45 921.65 1078.15 939.15 1061.4 979.15 1032.85 1012.1 1005.85 1043.3 974.25 1069.8
L 939.9 1098.7 942 1090
Q 970.7 1060.5 994.9 1026.95 1013.55 1001.25 1028 972.9 1040.9 947.45 1054.35 923 1055.8 922.7 1057.25 922.4 1058.5 922.3 1059.55 922.05 1062.15 921.3 1064.55 919.9 1066.9 918.6 1068.65 916.75 1070.6 914.8 1071.25 912.35 1071.95 909.9 1071.4 907.7 1072.65 906.7 1074.1 906.4 Z"/>

<path fill="#778A9A" stroke="none" d="
M 1074.9 906.7
Q 1074.4 906.2 1074.1 906.4 1072.65 906.7 1071.4 907.7 1071.95 909.9 1071.25 912.35 1070.6 914.8 1068.65 916.75 1066.9 918.6 1064.55 919.9 1062.15 921.3 1059.55 922.05 1058.5 922.3 1057.25 922.4 1055.8 922.7 1054.35 923 1040.9 947.45 1028 972.9 1013.55 1001.25 994.9 1026.95 970.7 1060.5 942 1090
L 939.9 1098.7 974.25 1069.8
Q 1005.85 1043.3 1032.85 1012.1 1061.4 979.15 1078.15 939.15 1085.45 921.65 1074.9 906.7
M 732.45 908.1
Q 697.9 935.8 684.85 977.95 673.5 1014.65 673 1053.4 672.5 1095.9 682.4 1137.05 692.6 1179.55 723.5 1209.65 742.05 1227.65 767.65 1233.15 738.25 1199.65 726.2 1156.5 716.9 1123.1 716.55 1088.1 716.2 1057.45 721.65 1027.25 732.95 964.55 753.7 904.1 756 897.3 758.45 890.6
L 732.45 908.1
M 803.85 888
Q 805.7 884.65 808.25 881.75
L 792.55 875.95 779.6 880.6
Q 761.95 925.95 749.1 973 738.75 1011 733.95 1050.1 728.9 1091.2 736.4 1131.9 744 1173.15 768.1 1207.25 778.85 1222.5 793.05 1234.85
L 831.75 1230.1 833.2 1227.15
Q 824.85 1223.4 818.25 1216.6 799.05 1197.15 787.8 1172.2 777.1 1148.6 771.45 1123.1 759.55 1069.1 765.1 1014 771.9 947.05 803.85 888
M 840.25 913.8
Q 831.85 898.7 818.15 888.05 787.15 944.75 779.45 1008.95 771.15 1078.4 791.6 1145.15 804.15 1186.15 836.95 1212.95 839.25 1214.85 841.25 1217 851.3 1206.25 858.45 1190.15 874.35 1154.3 878.8 1115.25 880.9 1096.75 881.3 1078.05 883.4 1034.4 872.1 992.3 861 951 840.25 913.8
M 871.45 945.35
Q 877.7 963.95 882.75 982.85 894.2 1025.35 895.3 1069.35 895.95 1096.05 892.4 1122.55 885.85 1171.25 865 1215.6
L 869.7 1212.2
Q 901.4 1182.75 909.85 1139.55 914.1 1118 916.4 1096 920.75 1054.5 914.5 1013.15 908.3 972.1 893.95 933.4 885.95 911.85 872.5 893.4 851.2 864.3 815.1 870.5 855.65 898 871.45 945.35
M 1040.75 925.95
L 1031.9 928.35 952.45 955
Q 953.65 965.45 953.6 976.05 953.5 1008.9 943.8 1039.85 941.4 1047.5 941.5 1055.95 941.6 1064.35 941.55 1072.8 950.4 1065.45 958.2 1057.05 1002.3 1009.6 1028.5 950.35 1034.05 937.85 1040.75 925.95
M 1222.75 973
L 1221.2 976.8
Q 1204.6 1017.1 1175.8 1049.95 1168.8 1057.95 1161.1 1065.25
L 1216.1 1049.35
Q 1218.15 1036.95 1220.8 1024 1221.8 1018.95 1222.9 1013.85 1227.35 993.3 1222.75 973
M 1161.05 919.7
Q 1157.45 914.45 1154 909.1
L 1109.25 916.65 1103.45 944.4
Q 1083.95 983.75 1055.6 1017.6 1029.95 1048.15 999.85 1074.35 985.2 1087.15 969.45 1098.45 980.3 1096.1 991.1 1094.35 995.45 1093.7 999.55 1094.55 1001.95 1095.15 1003.8 1096.45 1024.9 1094.7 1043.3 1084.5 1052.15 1079.6 1060 1073.4 1105.2 1037.6 1139.1 991.1 1156 967.95 1164.25 940.8 1167.7 929.35 1161.05 919.7
M 1208.75 898.7
Q 1208.75 896.75 1207.55 895.05 1192.05 884.5 1173.95 894.05 1172.8 894.6 1171.7 895.15 1182.95 915.1 1178.1 938.55 1172.9 963.6 1158.2 984.85 1145.2 1003.6 1130.7 1021.3 1107.05 1050.2 1078.65 1074.55 1064.85 1086.35 1049.45 1095.8 1038.4 1102.6 1025.25 1103.55 1017.35 1103.85 1013.9 1106.7 1026.65 1124.1 1048.05 1115.9 1112.9 1090.8 1155.35 1034.5 1172.35 1011.95 1185.85 986.95 1208.3 945.45 1208.75 898.7 Z"/>
</g>

<g id="Layer1_0_FILL">
<path fill="#000000" fill-opacity="0.2" stroke="none" d="
M 1196.3 869.1
Q 1189.5 864.5 1180.8 866.95 1172 869.45 1169.35 877 1167.1 883.55 1170.65 894 1171.65 896.9 1173.75 902.65 1175.45 907.75 1175.85 911.45 1176.7 919.35 1172.7 929.35 1170.4 935.15 1164.7 946.5 1161.35 954 1156.5 969.2 1151.6 984.75 1148.45 991.95 1135.65 1021 1104.05 1046.4 1092.309375 1055.792578125 1075.85 1066.35 1075.890625 1066.2662109375 1075.9 1066.15 1076.05 1064.2 1075.15 1062.7 1074.3 1061.3 1072.65 1060.5 1071.1 1059.75 1069.3 1059.65 1066.85 1059.55 1062.65 1060.9 1056.4861328125 1062.77421875 1051.3 1064.7 1048.02109375 1065.0119140625 1043.75 1066
L 1020.1 1071.45
Q 1030.874609375 1062.32109375 1043.85 1049.6 1072.95 1021.15 1089.95 996.85 1111.8 965.6 1119.15 934.5 1120.8 927.3 1120.55 922.05 1120.2 915.15 1116.55 910.9 1112.4 906.05 1105.2 906.25 1098 906.45 1094.1 911.55 1091.7 914.75 1090.6 920.1 1090 923.2 1089.25 929.55 1088.15 937 1084.9 945.9 1082.95 951.25 1078.35 961.6 1072.65 974.35 1069.35 980.15 1062.65 992.2 1050.85 1005.95 1035.95 1023.35 1012.85 1044 1010.4251953125 1046.171484375 1007.55 1048.7 1015.916015625 1040.2263671875 1023 1032.15 1059.2 990.9 1081 940.45 1083.25 935.3 1084.4 931.8 1085.95 927 1086.4 922.85 1086.9 917.95 1085.9 913.6 1084.8 908.8 1082 905.4 1077.9 900.4 1071.1 899.3 1064.25 898.2 1058.8 901.6 1054.35 904.35 1051.05 910.15 1049.05 913.7 1046.3 921.15 1036.5 947.6 1027.9 964.9 1016.45 988.1 1002.85 1004.85 998.25 1010.5 991.95 1017.2 988.75 1020.55 980.45 1029.05 969 1040.55 964.55 1044.9 963.5296875 1045.89765625 962.5 1046.85 968.3931640625 1032.195703125 972.75 1014.4 974.7 1006.4 975.05 1001.3 975.3 997.55 974.9 991.85 974.25 982.85 974.25 982.35 974.25 981.85 974.15 975.15 974.05 970.8 973.7 967.95 973.2 963.75 971.65 958.6 970.75 955.6 968.5 949.5 967.2 945.95 966.05 944.1 964.3 941.35 961.9 940.35 959.6 939.4 956.2 939.85 952.45 940.4 950.65 942.45 948.95 944.4 948.85 948.3 948.7 952.6 950.2 959.2 952.3 968.35 952.55 970 953.2 975 952.85 982.6 951.65 1008.8 942.05 1033.65 939.5 1040.2 936.1 1047.35 933.6 1052.8 932.75 1055.05 931.2 1059.45 931.2 1063.1 931.25 1067.5 933.7 1071 934.5806640625 1072.2626953125 935.6 1073.15 935.2314453125 1073.7294921875 934.9 1074.3 932.25 1078.75 931.85 1083.6 931.35 1088.85 933.75 1092.85 935.6 1096.05 939.1 1097.85 942.5 1099.6 946.2 1099.35 950.05 1099.1 954.15 1096.6 956.9 1094.95 961 1091.35 963.08515625 1089.5611328125 965.1 1087.8 963.5169921875 1091.4005859375 964.7 1094.5 965.8 1097.25 968.75 1098.75 971.5 1100.15 974.7 1100 977.45 1099.85 980.6 1098.55 981.12421875 1098.337890625 981.7 1098.05 985.08203125 1100.7763671875 990.95 1101.95 1000.65 1103.85 1014.3 1101.05 1020.090234375 1099.8546875 1030.2 1097.35 1029.7939453125 1097.920703125 1029.4 1098.5 1026.4 1102.95 1026.1 1108.15 1025.75 1113.75 1028.8 1117.6 1031.35 1120.8 1035.8 1122.1 1039.85 1123.25 1044.3 1122.55 1048.1 1121.9 1052.35 1119.9 1055.3 1118.5 1059.85 1115.75 1072.85 1107.85 1096.7 1091.3 1110.85 1081.6 1118 1076.15 1129.55 1067.4 1137.8 1059.2 1145.2 1051.85 1152.85 1042.05 1158.55 1034.8 1166.35 1023.6 1172.6 1014.7 1176.3 1008.7 1181.4 1000.3 1184.55 992.85 1186.35 988.55 1189.25 979.9 1192.2 971.05 1193.9 966.9 1195.65 962.7 1200.85 952.2 1205.45 942.95 1207.45 937.35 1211.95 924.8 1211.95 911.25 1211.9 897.65 1207.35 885.2 1203.2 873.75 1196.3 869.1
M 1201.45 982.3
Q 1200.288671875 985.6240234375 1198.05 989.9 1197.67734375 990.2439453125 1197.3 990.6 1192.6896484375 994.917578125 1189.95 1003.65 1183.2078125 1014.0142578125 1175 1023.45 1168.4 1030.75 1165.35 1034.6 1159.3 1042.35 1154.6 1052.25 1150.15 1061.7 1153.4 1066.55 1154.95 1068.9 1157.85 1069.9 1160.65 1070.85 1163.6 1070.3 1166.4 1069.8 1169.4 1067.95 1171.55 1066.65 1174.55 1064.1 1175.9890625 1062.88046875 1178.7 1060.35 1178.7501953125 1060.401171875 1178.8 1060.45 1183.6 1065.15 1190.15 1065.95 1195.95 1066.65 1202.6 1064.6 1207.75 1062.95 1214.25 1059.3 1226.9 1052.4 1232.55 1044.45 1236.15 1039.4 1237.2 1033.55 1238.3 1027.3 1236.1 1022 1236 1021.8 1234.25 1018.35 1233.15 1016.2 1232.8 1014.6 1232.45 1012.9 1232.6 1010.35
L 1232.8 1006.05
Q 1232.8447265625 1000.55 1230 995.65 1234.3380859375 985.755859375 1233.4 978.3 1232.8 973.55 1230.1 969.85 1227.2 965.85 1223 964.55 1220.25 963.65 1217.2 964.1 1214.25 964.5 1211.65 966 1206.65 968.85 1204.05 974.75 1203 977.2 1201.45 982.3
M 819.7 880.45
Q 822.4 884.25 827.45 888.85 830.3 891.45 836 896.55 846.9 907.2 856.95 926.5 879.6 970 886.25 1025.25 888.08359375 1040.4400390625 888.7 1056.45 882.9080078125 1057.801953125 879.25 1068.6
L 859.35 1127.4
Q 855.2 1139.6 852.8 1145.7 848.85 1155.7 844.5 1163.15 837.3 1175.55 824.45 1188.75 819.229296875 1194.0537109375 814.6 1197.9 813.611328125 1196.58828125 812.5 1195.15 806.65 1187.55 804.7 1184.5 798.3 1174.55 793.1 1157.6 787.85 1138.45 784.5 1129.15 783.5 1126.4 779.3 1116 776.05 1107.95 774.5 1102.75 772 1094.4 770.7 1084.15 769.75 1076.35 769.25 1065.15 767.55 1023.35 773.95 985.65 780.95 944.5 797.3 909.9 800.95 902.15 801.95 899.65 804.3 893.75 804.8 888.85 805.45 882.95 803.3 877.7 800.95 872.05 796.2 869.55 791.5 867.1 785.7 868.35 780.25 869.5 775.9 873.3 772.2 876.6 769.05 881.8 766.9 885.4 764.15 891.65 748.1 928.45 739.95 968.95 732 1008.55 732.05 1049.6 732.0880859375 1062.116015625 733.1 1082.6 730.388671875 1096.14921875 731.8 1110.7 732.565625 1118.4783203125 735.55 1122.45 735.8033203125 1125.7734375 736.05 1128.4 737.75 1146.25 740.7 1160.25 747.1208984375 1190.7873046875 761.2 1212.45 750.3798828125 1210.135546875 739.85 1203.75 728.7 1196.95 718.85 1186.2 710.7 1177.25 702.45 1164.4 697.95 1157.5 688.4 1140.95 686.9 1138.35 686 1137.2 684.55 1135.2 682.95 1134.1 681.05 1132.8 678.8 1132.7 676.4 1132.6 674.8 1134 670.95 1137.5 675.1 1145.8 694.7 1184.85 726.5 1214.9 739.35 1227.05 751.1 1233.4 765.85 1241.35 779.85 1240.9 784.277734375 1240.7451171875 789 1239.7 792.43203125 1241.330859375 795.9 1242.1 803.8 1243.85 811.3 1241 815.660546875 1239.3271484375 818.6 1236.55 819.87421875 1237.631640625 821.4 1238.6 829.2 1243.6 836.65 1240.35 838.7 1239.45 841.45 1237.5 845.6 1234.55 846.05 1234.25 849.35 1232.1 855.55 1229.55 862.8 1226.55 865.25 1225.2 873 1221 880.45 1212.8 885.1 1207.7 892.7 1197.1 902 1184.15 906.15 1177.25 913.05 1165.9 916.25 1155.75 918.4 1148.85 919.65 1140.1 920.5 1134.1 921.25 1124.1 924.05 1086.55 923.2 1055.95 922.1 1019.55 915.8 988.35 908.75 953.45 894.85 923.5 879.8 891.15 857.75 866.8 852.9 861.45 849 858.35 843.8 854.2 838.6 852.55 832.6 850.6 826.55 852.2 820.15 853.9 817.1 858.85 814.25 863.5 815.25 869.75 816.1 875.35 819.7 880.45
M 886.8 1118.7
Q 886.3134765625 1124.070703125 885.7 1129.5 885.15 1134.1 884.65 1136.5 883.8 1140.3 882.25 1143 880.15 1146.6 875.7 1150.2 875.643359375 1150.245703125 875.55 1150.3 877.9099609375 1144.1271484375 881.85 1132.9
L 886.8 1118.7 Z"/>
</g>
</defs>

<g transform="matrix( 1, 0, 0, 1, 0,0) ">
<use xlink:href="#Layer2_0_FILL"/>
</g>

<g transform="matrix( 1, 0, 0, 1, 0,0) ">
<use xlink:href="#Layer1_0_FILL"/>
</g>
</svg>
