
<svg xmlns="http://www.w3.org/2000/svg" version="1.1" xmlns:xlink="http://www.w3.org/1999/xlink" preserveAspectRatio="none" x="0px" y="0px" width="2000px" height="2000px" viewBox="0 0 2000 2000">
<defs>
<g id="Layer2_0_FILL">
<path fill="#000000" stroke="none" d="
M 1133.5 764.05
Q 1090.35 764.2 1050.9 781.7 1010.85 799.55 973.1 822 937.9 843 907.2 870.45 874.8 899.4 852.1 936.75 829.5 973.95 824.3 1017.3 823.7 1022.65 823.55 1028.15 823.3 1039.55 827.15 1050.25 831.85 1063.35 843.4 1071.25 853.5 1078.15 865.6 1080.4 905.7 1117.5 945.65 1154.8 955.45 1163.9 967.1 1170.25 974.9 1174.5 983.8 1174.5 1010.1 1174.45 1035.1 1165.3 1066.1 1154 1096.15 1140.6 1159.7 1112.45 1215.75 1071.55 1223.85 1065.65 1231.95 1059.8 1266.05 1035 1263.9 993.3 1261.6 949.15 1249.85 906.45 1243.7 884 1237.55 861.5 1232.15 841.85 1226.7 822.25 1222.65 807.7 1213.55 795.95 1209.1 790.25 1202.1 791.95 1173.5 763.9 1133.5 764.05
M 1185.6 843.75
Q 1180.25 870.45 1161.6 890.8 1132 923 1098.6 951.35 1067.25 977.95 1032.85 1000.8 996.45 1024.9 956.05 1041 916.55 1056.8 874.2 1057.65 869.15 1057.75 864.95 1055.7 841.45 1044.5 846.8 1016.85 850.3 990.9 861.75 967.65 881.25 928.1 912.1 896.65 941.45 866.65 977.05 844.45 1012.7 822.3 1052.55 809 1090.5 796.15 1130.5 795.9 1158.85 795.75 1177.75 816.05 1188.75 827.85 1185.6 843.75
M 1140.45 959.75
Q 1169.8 933.75 1194.8 903.5
L 1210.35 879.45
Q 1219.2 907.85 1225.7 937.05 1229.55 954.35 1232.45 971.9 1235.85 992.45 1230.3 1012.25 1228.35 1019.1 1223.1 1023.9 1164.05 1077.65 1093.05 1114.3 1048.55 1137.35 1000.55 1150.3 989.9 1153.1 979.3 1150.1 968.25 1147.15 959.2 1139.85 945.5 1128.8 932.5 1116.95 912.5 1098.8 891.85 1081.4 902.75 1080.45 913.5 1078.3 955.2 1069.6 994.55 1053 1035.05 1035.95 1071.85 1012.05 1108.1 988.5 1140.45 959.75 Z"/>
</g>
</defs>

<g transform="matrix( 1, 0, 0, 1, 0,0) ">
<use xlink:href="#Layer2_0_FILL"/>
</g>
</svg>
