
<svg xmlns="http://www.w3.org/2000/svg" version="1.1" xmlns:xlink="http://www.w3.org/1999/xlink" preserveAspectRatio="none" x="0px" y="0px" width="2000px" height="2000px" viewBox="0 0 2000 2000">
<defs>
<g id="Layer2_0_FILL">
<path fill="#000000" stroke="none" d="
M 1639.7 980.5
Q 1639.45 972.8 1632.95 968.7 1614.75 957.5 1593.05 953.65 1589.55 952.9 1586.1 951.9 1556.2 943.1 1527.8 930.8 1499.1 918.4 1473.2 900.95 1438.85 877.75 1407.2 850.85 1347.1 799.85 1292 743.4 1196 645.1 1152.05 515.65 1147.2 501.35 1135.85 507.25 1134.35 506.95 1132.95 507.3 1072.2 516.8 1013.5 536.15
L 759.85 612.6
Q 673.1 638.4 587.15 666.75 577.9 669.9 568.4 671.8 552.6 674.95 542.25 685.5
L 541.95 688.45 474.15 785.55
Q 474.35 789.65 475.6 793.45 478.3 801.9 487.6 802.25 492.95 886.9 515.4 968.8 539.45 1056.45 585.15 1135.15 587.7 1139.45 590.3 1143.7 603.65 1165.85 618.6 1187.2 653.15 1236.45 693.1 1281.5 718.45 1310.1 744.15 1338.35 845.55 1449.85 973.6 1529.2 1017.85 1556.65 1063.65 1581.7 1079.05 1590.2 1096.1 1594.3 1113.9 1598.7 1117.8 1581.65 1182.7 1539.9 1242.9 1491.65 1283.1 1459.5 1322.15 1426 1324.3 1424.15 1326.45 1422.3 1328.7 1420.45 1330.9 1418.55 1357.55 1395.75 1384.25 1372.75 1392.05 1366 1399.95 1359.1 1442.9 1321.8 1480.5 1279.25 1543.85 1207.5 1612.5 1141.3 1618.75 1135.25 1624.1 1128.55 1629.15 1122.2 1633.65 1118.4 1637.05 1118.6 1640 1117.15 1644.65 1114.95 1646.45 1110 1648.15 1105.35 1647.2 1100.4 1646 1094.45 1645.8 1088.15 1645.6 1082.95 1644.6 1078.2 1638.6 1050.45 1639.65 1022.1 1640.4 1001.25 1639.7 980.5
M 1588.9 978.8
Q 1600.65 981.1 1609.9 988.35 1613.9 991.6 1613.6 996.8 1611.35 1034.4 1616.45 1071.65 1579.4 1051.2 1541.8 1031.75 1521.6 1021.35 1501.65 1010.7 1457.55 987.1 1415.7 959.7 1375.55 933.45 1339.3 902.15 1313.7 880.15 1289.1 857.2 1258.95 829.05 1229.45 800.3 1208 779.35 1187.2 758.1 1132.8 702.5 1091.65 637.5
L 1090.9 625.3 1086 619.9 1138.55 537.2
Q 1147.1 566.95 1161.4 594.2 1202.35 672.2 1260.45 738.9 1312 798.2 1370.95 850.15 1409.4 884 1451.3 913.4 1504.8 950.95 1566.55 972.55 1577.65 976.45 1588.9 978.8
M 1423.9 1004.95
Q 1439.05 1014 1454.6 1022.55 1457.05 1023.95 1459.55 1025.35 1468.15 1030 1476.5 1034.7 1540.35 1070.8 1604.15 1107 1530.1 1188.3 1456.55 1270.2 1444.2 1284 1431.4 1297.45 1422.25 1307.05 1412.7 1316.2 1403.5 1325 1394.15 1333.65 1379.6 1347.05 1365 1360.1 1300.7 1417.6 1235.6 1473.85 1212.65 1493.7 1188.6 1512.25 1182.85 1516.6 1177.15 1520.95 1145.85 1544.7 1111.85 1564.3 1107.6 1559.65 1102.05 1556.65 1089.75 1549.8 1077 1543.8 1019.4 1516.4 966.45 1481.2 916.9 1448.25 871.25 1410.1 810.45 1359.25 756.2 1301.25 724.3 1267.2 694.25 1231.15 674.45 1207.35 655.9 1182.65 611.85 1124.05 580.2 1057.8 558.75 1012.85 543.55 965.35 530.3 924.05 521.1 881.6 520.05 876.75 519.05 871.9 515.05 852.1 510.8 832.2 507.05 814.4 508.95 800.45 538 789.6 567.4 779.5 608.6 765.3 650.3 753.05 687.75 742.1 725.65 732.25 767.5 721.5 809.55 711.8 850.3 702.5 891.1 693.55 931.15 684.75 971.25 676.15 1015.8 666.65 1060.45 657.4 1066.75 656 1073 654 1074.8 653.3 1075.05 653.65 1087.35 673.4 1100.1 692.8 1122.25 726.35 1148.75 756.4 1168.55 778.8 1189 800.45 1217.6 830.65 1247.1 860.3 1258.6 871.9 1270.25 883.2 1279.2 891.95 1288.25 900.55 1324.7 934.95 1364.6 965.15 1393.1 986.75 1423.9 1004.95
M 806.45 676.15
Q 766.15 685.3 726.1 695.45 683.95 705.95 642.7 719.05 604.15 731.3 565.85 743.95
L 519.15 759.2
Q 526.9 746.1 535.95 733.8 540.15 728.2 544.05 722.15 553.75 707.1 560.9 690.5
L 1009 561.05 1111.8 534.35
Q 1107.35 539.85 1103.2 545.55 1102.8 546.1 1102.4 546.7 1092.8 561.05 1082.6 575.1 1076.7 583.35 1072.75 592.55 1067.5 604.85 1063.25 617.5
L 806.45 676.15
M 951.7 1374.85
Q 936.15 1398.85 955.85 1420.8 972 1438.85 992 1452.65 1025.7 1475.85 1065.35 1486.75 1082.25 1491.5 1099.2 1487 1133.4 1477.6 1134.95 1442.7 1135.35 1434.25 1130.85 1427 1108.05 1389.85 1069.05 1369.15 1059.35 1363.95 1049.3 1359.55 1017.9 1345.85 984.7 1349.6 963.8 1356.25 951.7 1374.85
M 967.95 1403.7
Q 966.15 1401.5 966.3 1398.65 967.45 1378.35 987.7 1371.2 1004.55 1403.1 1031.6 1427.35 1058.5 1451.45 1094.2 1457.1 1103.4 1458.45 1105.8 1460.2 1095.5 1468.2 1082.65 1466.4 1039.2 1459.9 1002.5 1436.05 982.9 1422.15 967.95 1403.7
M 1005.1 1369.55
Q 1004 1370.75 1004.6 1369.5
L 1005.1 1369.55
M 598.2 819.05
Q 567 828.05 568.65 860.45 568.1 885.65 580.2 908.25 587.4 921.65 596.9 933.35 626.25 969.65 673.3 963.35 681.45 962.25 687.9 957.2 709.3 940.3 710.65 911.8 711.05 903.5 707.95 895.85 693.25 859.4 663.1 833.4 634.55 808.75 598.2 819.05
M 608.7 835.95
Q 608.7 837.25 608.7 838.65 609.3 876.3 630.25 907.5 648.75 935.1 679.85 941 661.45 949.1 641.2 944.2 634.65 942.5 629.1 938.7 591.7 913.05 584.75 866.9 581.45 844.9 600.7 836.7
L 608.7 835.95
M 941.5 746.2
Q 939.45 770.6 957.25 787.55 981.75 810.85 1014.8 818.6 1051.35 827.2 1079.4 803.9 1086.65 797.85 1089.55 789.05 1101 754.3 1076.6 724.85 1071.6 718.8 1064.55 714.95 1049.3 706.7 1034.25 698.15 1032.35 697.1 1030.1 696.4 1001.45 686.65 973.3 700.95 944.2 714.45 941.5 746.2
M 959.8 761.5
Q 954.95 745 964.4 731.25 971.8 720.4 981.65 718.45 980.4 728.55 983 738.25 995.3 783.8 1038.8 799.25 1004.2 801.65 974.8 781.75 963.5 774.15 959.8 761.5
M 1367.05 1090.25
Q 1353.35 1096.6 1341.3 1105.9 1323.15 1119.85 1325.95 1142.75 1328.15 1161.1 1336.75 1177.65 1351.7 1206.3 1381.4 1219.35 1421.9 1237.25 1463.25 1220.3 1496.8 1206.4 1494.1 1170.7 1491.55 1136.55 1466.05 1112.95 1460.45 1107.8 1453.8 1103.8 1417.7 1082 1374.8 1087.35 1370.85 1088.4 1367.05 1090.25
M 1351.2 1131.7
L 1369.25 1116.65
Q 1378.2 1139.6 1396.6 1156 1429.45 1185.3 1471.45 1181.85 1470.8 1183.75 1470 1185.6 1468.45 1189.25 1465.25 1191.15 1430.4 1211.85 1392.1 1198.05 1367.85 1189.45 1357.35 1164.65 1355.15 1159.4 1352.35 1154.45 1345.55 1142.55 1351.2 1131.7 Z"/>
</g>
</defs>

<g transform="matrix( 1, 0, 0, 1, 0,0) ">
<use xlink:href="#Layer2_0_FILL"/>
</g>
</svg>
