
<svg xmlns="http://www.w3.org/2000/svg" version="1.1" xmlns:xlink="http://www.w3.org/1999/xlink" preserveAspectRatio="none" x="0px" y="0px" width="2000px" height="2000px" viewBox="0 0 2000 2000">
<defs>
<g id="Layer2_0_FILL">
<path fill="#000000" stroke="none" d="
M 1344.85 883.6
Q 1327.85 843.8 1309 804.8 1290.35 766.3 1269.05 728.95 1247.9 691.9 1223.6 656.5 1200.8 623.25 1174.9 592.3 1147.75 559.8 1116.95 530.7 1087.5 502.95 1054.8 479.05 1022.1 455.15 985.8 437.3 946.75 418.05 903.55 413.25 862.05 409.05 820.95 415.65 777.15 423.05 743.75 452.45 710.95 481.35 690.5 520.15 671.25 556.7 662.45 597.15 653.65 637.5 654.05 678.8 654.45 722.9 662.75 766.1 670.95 808.7 683.85 850.15 696.2 889.95 711 928.75 725.3 966.15 742 1002.65 759.65 1041.3 780.35 1078.45 801.65 1116.6 826.45 1152.75 849.35 1186.1 874.35 1217.75 899.3 1249.3 925.45 1279.75 952.8 1311.65 980.35 1343.35 1008.65 1375.9 1038.95 1406.6 1069.05 1437.1 1103.1 1463.1 1134.8 1487.3 1169.25 1507.35 1206.2 1528.9 1245.7 1544.65 1286.7 1561.05 1330.75 1563 1372.75 1564.45 1410.1 1545.55 1449.7 1525.6 1467.65 1484.75 1484.45 1446.45 1486.4 1404.45 1488.35 1362.45 1482.85 1320.65 1480.6 1300.55 1477.15 1280.7 1469.75 1237.75 1458.5 1195.8 1447.75 1155.65 1434.5 1116.15 1421.55 1077.6 1407.25 1039.7 1391.85 998.85 1375.6 958.2 1360.7 920.75 1344.85 883.6
M 1309.95 878.3
Q 1326.9 917.4 1342.4 957.2 1357.45 995.9 1372.2 1034.65 1387 1073.45 1400.8 1112.6 1415 1152.85 1426.55 1193.75 1437 1230.8 1444.7 1268.5 1452.5 1306.85 1456.1 1345.95 1460.05 1388.95 1452.9 1431.3 1445.65 1474 1417.8 1506.3 1411.5 1513.5 1402.55 1517.65 1367.25 1534.3 1327.65 1533.4 1285.6 1532.45 1247.35 1515.3 1208.25 1497.9 1171.7 1476.1 1135.3 1454.35 1101.8 1428.2 1069.55 1403.05 1041.95 1372.95 1013.8 1342.2 986.65 1310.8 959.5 1279.4 933.15 1247.65 905.75 1214.7 879.9 1180.55 855.95 1149 834.15 1115.9 810.9 1080.6 791.05 1043.25 772.5 1008.25 757.45 971.55 741.45 932.5 726.8 892.8 712 852.75 700.5 811.65 689.45 772.1 684.1 731.4 678.75 690.45 682 649.15 685.2 607.9 698.95 568.7 712.45 530.05 737.45 497.55 764.7 462.15 807.35 448.6 848.25 435.65 891.3 439.9 934.8 444.65 974.45 463.65 1011.55 481.35 1044.3 506.35 1079.15 532.95 1110.95 563.2 1142.8 593.55 1169.05 628.8 1193.45 661.55 1214.4 696.65 1236.85 734.25 1257.65 772.5 1277.45 809 1295.35 846.3 1302.95 862.2 1309.95 878.3
M 1360.4 1344.5
Q 1356.5 1302.4 1344.05 1261.95 1332.2 1223.5 1316.7 1186.3 1300.85 1148.2 1282.45 1111.1 1264.1 1074 1244.65 1037.55 1224.25 999.3 1203.65 961.2 1183 923.1 1160.4 886.05 1137.9 849.1 1115 812.4 1093.4 777.8 1076.25 740.75 1057.8 700.8 1035.15 663.35 1013.55 627.7 980.1 603.25 974.35 599.05 967.45 597.7 953.35 594.85 939.8 590.1 919.55 583 898.2 581.8 851.9 578.35 819.4 610.6 793.2 642.7 790 684.3 786.7 727.65 798 769.75 808.9 810.35 824.2 849.55 839.25 888.05 856.25 925.7 872.7 962.15 891.05 997.65 910.9 1036 933.45 1072.7 952.4 1103.55 973.25 1133.1 994 1162.5 1016.8 1190.45 1044.4 1224.35 1075 1255.55 1105.25 1286.35 1138.2 1314 1171.7 1342.05 1205.8 1369.2 1239.4 1395.9 1278.9 1412.1 1310.7 1425.25 1339.95 1408.2 1349.35 1402.7 1353.45 1392.6 1362.75 1369.65 1360.4 1344.5
M 1340.35 1356.35
Q 1340.9 1365.25 1339.15 1374.2 1334 1400.7 1305.95 1398.4 1273.15 1394.3 1245.55 1374.95 1209.8 1349.85 1175.9 1322.35 1141.95 1294.8 1109.9 1265.15 1082.75 1240 1057.9 1212.35 1032.1 1183.7 1009 1153.1 984.8 1121.1 963.1 1087.4 939.25 1050.5 918.15 1011.95 899.6 978 882.85 943.05 865.25 906.3 849.2 868.75 833.4 831.7 821.55 793.25 808.55 751.3 806.8 707.25 805.55 675.9 816.65 646.55 831 608.5 870.8 599.7 915.65 589.7 953.5 615.9 990.15 641.2 1012.95 679.6 1033.65 714.5 1051 751.25 1069.15 789.8 1091.95 825.65 1114 860.45 1134.85 895.85 1156.1 931.85 1176.55 968.45 1197.85 1006.5 1218.7 1044.7 1239.15 1082.1 1258.25 1120.05 1277.5 1158.3 1294.2 1197.6 1310 1234.75 1323.3 1272.7 1337.55 1313.4 1340.35 1356.35 Z"/>

<path fill="#006699" stroke="none" d="
M 1342.4 957.2
Q 1326.9 917.4 1309.95 878.3 1302.95 862.2 1295.35 846.3 1277.45 809 1257.65 772.5 1236.85 734.25 1214.4 696.65 1193.45 661.55 1169.05 628.8 1142.8 593.55 1110.95 563.2 1079.15 532.95 1044.3 506.35 1011.55 481.35 974.45 463.65 934.8 444.65 891.3 439.9 848.25 435.65 807.35 448.6 764.7 462.15 737.45 497.55 712.45 530.05 698.95 568.7 685.2 607.9 682 649.15 678.75 690.45 684.1 731.4 689.45 772.1 700.5 811.65 712 852.75 726.8 892.8 741.45 932.5 757.45 971.55 772.5 1008.25 791.05 1043.25 810.9 1080.6 834.15 1115.9 855.95 1149 879.9 1180.55 905.75 1214.7 933.15 1247.65 959.5 1279.4 986.65 1310.8 1013.8 1342.2 1041.95 1372.95 1069.55 1403.05 1101.8 1428.2 1135.3 1454.35 1171.7 1476.1 1208.25 1497.9 1247.35 1515.3 1285.6 1532.45 1327.65 1533.4 1367.25 1534.3 1402.55 1517.65 1411.5 1513.5 1417.8 1506.3 1445.65 1474 1452.9 1431.3 1460.05 1388.95 1456.1 1345.95 1452.5 1306.85 1444.7 1268.5 1437 1230.8 1426.55 1193.75 1415 1152.85 1400.8 1112.6 1387 1073.45 1372.2 1034.65 1357.45 995.9 1342.4 957.2
M 1344.05 1261.95
Q 1356.5 1302.4 1360.4 1344.5 1362.75 1369.65 1353.45 1392.6 1349.35 1402.7 1339.95 1408.2 1310.7 1425.25 1278.9 1412.1 1239.4 1395.9 1205.8 1369.2 1171.7 1342.05 1138.2 1314 1105.25 1286.35 1075 1255.55 1044.4 1224.35 1016.8 1190.45 994 1162.5 973.25 1133.1 952.4 1103.55 933.45 1072.7 910.9 1036 891.05 997.65 872.7 962.15 856.25 925.7 839.25 888.05 824.2 849.55 808.9 810.35 798 769.75 786.7 727.65 790 684.3 793.2 642.7 819.4 610.6 851.9 578.35 898.2 581.8 919.55 583 939.8 590.1 953.35 594.85 967.45 597.7 974.35 599.05 980.1 603.25 1013.55 627.7 1035.15 663.35 1057.8 700.8 1076.25 740.75 1093.4 777.8 1115 812.4 1137.9 849.1 1160.4 886.05 1183 923.1 1203.65 961.2 1224.25 999.3 1244.65 1037.55 1264.1 1074 1282.45 1111.1 1300.85 1148.2 1316.7 1186.3 1332.2 1223.5 1344.05 1261.95 Z"/>
</g>

<g id="Layer1_0_FILL">
<path fill="#000000" fill-opacity="0.2" stroke="none" d="
M 1369.15 1285.9
Q 1359.35 1251.5 1341.45 1210.5 1330.65 1185.65 1307.05 1137.6
L 1135.8 788.35
Q 1109.85 735.65 1098.75 714.1 1088.25 693.6 1080.9 681.35 1070.45 663.75 1059.75 650.8 1026.45 610.3 974.5 592.35 922.6 574.35 871.4 585.65 864.7 587.1 860.25 591.2 855.1 595.85 857.55 600.75 859.05 603.7 863.05 604.9 865.9 605.75 870.65 605.85 911.5 606.65 941.3 613.4 978.9 621.9 1005.25 640.95 1026.35 656.2 1044.95 681.9 1058.35 700.4 1074.9 731.4 1094.2 767.55 1116.3 814.45 1128.15 839.55 1155 898.9 1179.6 953.25 1193.95 983.15 1216.05 1029.4 1236.1 1065.8 1240.65 1074 1258.8 1106 1272.85 1130.75 1281.1 1146.45 1319.75 1220 1342.5 1300.15 1344.55 1307.45 1347.05 1311.45 1350.6 1317.2 1355.8 1318.2 1360.8 1319.15 1365.35 1315.45 1369.7 1312 1371.1 1306.65 1372.3 1302.05 1371.5 1296.25 1371 1292.25 1369.15 1285.9
M 1476.4 1352.95
Q 1476.35 1345.05 1473.5 1339.2 1470.05 1332.2 1463.85 1332.15 1457.75 1332.1 1454 1339 1451.2 1344.1 1449.8 1352.6 1446 1376.5 1437.1 1397.9 1427.75 1420.35 1413.5 1438.35 1398.55 1457.15 1378.85 1470 1358.4 1483.3 1335.85 1488.25 1314.15 1492.95 1290.05 1490 1267.95 1487.3 1245.35 1478.4 1225.65 1470.65 1204.2 1457.75 1187.65 1447.75 1165.8 1431.95 1109.9 1391.4 1049.6 1336.45 1003 1294 941.6 1231.4 907 1196.1 887.3 1173.55 858.6 1140.7 839.2 1110.75 826.15 1090.65 811.15 1062.15 794.2 1028.7 785.65 1012 782.6 1006.05 779.05 1006.15 775.5 1006.3 774.75 1010.75 774.05 1014.6 775.6 1018.85 803 1093.85 864.15 1172.3 888.9 1204 922.45 1240.65 945.1 1265.4 984.45 1305.8 980.45 1307.95 979.05 1313 977.7 1317.7 979.2 1322.45 980.45 1326.5 983.7 1330.7 985.65 1333.25 990.05 1337.8 1054.85 1404.6 1099.65 1441.1 1163.85 1493.4 1226.25 1519.45 1242.7 1526.3 1256 1529.95 1272.35 1534.45 1286.95 1535 1298.67265625 1535.513671875 1314.6 1533.45 1315.012109375 1536.290234375 1317.1 1538.9 1319.2 1541.5 1322.6 1543.45 1332.45 1549 1347.2 1547.6 1356.05 1546.75 1364.55 1543.65 1373 1540.6 1380.35 1535.55 1385.15 1532.25 1390.5 1527.4 1393.47890625 1524.687890625 1398.6 1519.55 1410.45859375 1515.591796875 1419 1509.5 1433.65 1499.05 1443.95 1479.15 1450.8 1465.9 1458.6 1441.25 1467.25 1413.85 1470.95 1397.65 1476.45 1373.25 1476.4 1352.95 Z"/>
</g>
</defs>

<g transform="matrix( 1, 0, 0, 1, 0,0) ">
<use xlink:href="#Layer2_0_FILL"/>
</g>

<g transform="matrix( 1, 0, 0, 1, 0,0) ">
<use xlink:href="#Layer1_0_FILL"/>
</g>
</svg>
