
<svg xmlns="http://www.w3.org/2000/svg" version="1.1" xmlns:xlink="http://www.w3.org/1999/xlink" preserveAspectRatio="none" x="0px" y="0px" width="2000px" height="2000px" viewBox="0 0 2000 2000">
<defs>
<g id="Layer2_0_FILL">
<path fill="#000000" stroke="none" d="
M 1483.7 1130.2
Q 1480.15 1113.8 1474.8 1097.75 1440.3 994.4 1378.15 904.85 1336.8 845.35 1280.1 800.4 1266.65 789.75 1252.35 780.1 1251.6 777.05 1249.5 774.9 1241.85 767.25 1230.8 766.15 1173.1 759.6 1115.5 752.2 1111.6 751.7 1107.7 751.25 1067.6 746.05 1027.85 741.75 986.5 737.35 944.85 735 917.85 733.75 891.65 739.35 866.15 744.55 856.75 769.05 841.1 809.7 839.2 853.6 837.35 895.8 846.2 937 852.85 968.6 866.2 998.1 882.6 1034.45 909.15 1064.15 854.15 1058.6 813.75 1021.4 812.7 1020.45 811.75 1019.5 808.6 1016.2 805.8 1012.85 787.75 991.85 772.15 968.7 763.25 955.45 752.7 943.35 700.75 884.1 622.55 873.9 603.45 871.55 585.35 876.5 575.1 879.2 571.15 889.05 564.85 853.9 552.6 820.4 551.55 817.5 550.4 814.65 544.7 800.15 536.85 786.95 531.05 777.3 520.7 780.7 516 782.3 512.3 785.5 501 795.45 488.05 803.45 477.1 810.15 467.7 818.4 464.6 821.1 465.75 825.05 473.65 851.4 492.55 872.3 505.7 886.95 520.05 900.4 507.25 894.55 494.55 888.75 492.65 887.9 490.8 887.05 478.15 881.3 465.7 875.25 459.15 872.15 452 872.65 446.5 873.45 444.95 878.95 439.75 897.25 438.1 916.35 437.1 928.25 446.95 934.45 460.9 943.4 477.75 945.2 502.05 947.65 522.9 952.3 505.45 957 488.05 961.75 476.05 965 463.9 968.35 441.95 974.5 421.15 983.3 417.6 984.75 415.9 987.95 408.05 1002.55 422.75 1013.9 423.6 1014.55 424.35 1015.4 425.35 1016.4 426.3 1017.55 434.95 1028.3 440.8 1040.95 444.2 1048.3 452.15 1049.65 456.55 1050.55 460.35 1048.7 483.15 1037.95 505.5 1026.1 524.35 1016.15 540.5 1002.25 547.7 996.1 554.8 989.8 555.7 1000.85 558.9 1011.55 562.3 1022.95 573.35 1027.1 577.65 1028.7 581.4 1026.05 584.1 1024.2 585.2 1021.3 593.9 1019.05 602.65 1017.05 660.15 1004.05 704.2 1043.45 705.95 1045.05 707.6 1046.8 712.6 1051.95 716.35 1058 732.1 1083.05 741.35 1111.4 743.55 1118.25 747.25 1124.5 774.4 1170.1 827.55 1179.3 869.35 1186.8 910.85 1176.75 944.3 1168.45 976.3 1155.5 970.85 1162.15 965.5 1168.9 945.15 1194.7 928.9 1223.45 876.05 1317.1 892.85 1421.9 894.35 1431.3 900.95 1438 907.45 1444.55 916.7 1444.1 912.3 1472.3 904.5 1499.7 904.15 1500.9 903.9 1502.1 903.15 1505.3 902.2 1508.45 898.65 1520.1 896.6 1531.95 895 1541 896 1550.1 896.45 1553.9 899.25 1556.5 910.75 1566.85 926.85 1568.7 937.95 1570.3 949.35 1569.25 963.2 1568.95 967.05 1555.65 974.9 1528.5 977.9 1501.9 978.6 1522.35 980.7 1542.7 980.8 1543.6 981.25 1544.4 982.1 1546.05 983.25 1547.55 985.2 1550.15 988.2 1550.15 1000.5 1550.1 1012.2 1545.45 1022.45 1541.45 1031.7 1535.45 1038.95 1530.8 1037.7 1522.25 1033.6 1494.85 1020.65 1469.75 1014.7 1458.2 1007.6 1447.5 1002.9 1440.5 1004.6 1437.2 1008.5 1435.7 1011.1 1432.6 1013.5 1429.75 1013.85 1425.85 1017.85 1383.4 1022.15 1340.85 1025 1312.8 1031.7 1285.4 1033.7 1277.2 1036.4 1275.55 1052.6 1293.9 1064.45 1315.2 1078.4 1340.3 1095.25 1363.85 1146.15 1435.1 1224.9 1472.85 1249.75 1484.8 1277.4 1486.05 1292.5 1486.5 1306.95 1481.8 1307.75 1482.25 1308.65 1482.6 1309.95 1483.05 1311.3 1483.4 1312.8 1483.3 1314.3 1483.25 1315.75 1482.9 1317.15 1482.3 1318.55 1481.8 1319.75 1480.95 1321.3 1479.8 1322.6 1478.35 1323.9 1476.9 1324.95 1475.25 1325.7 1474.15 1326.35 1473 1345.2 1461.6 1361.1 1446.25 1402.7 1406.15 1435.95 1359.05 1469.25 1311.8 1498 1261.8 1504.55 1250.45 1503.4 1237.65 1502.7 1229.7 1495.8 1226.15 1493.95 1177.55 1483.7 1130.2
M 1363.9 927.8
Q 1378.4 950.2 1390.5 974.05 1400.8 994.4 1410.7 1014.95 1424.1 1042.75 1434.9 1071.85 1449.2 1110.3 1455.65 1150.7 1463.45 1199.7 1466.9 1248.95 1452.7 1275.6 1436.65 1301.1 1394.1 1368.65 1337.7 1425.2 1338.05 1421.8 1338.3 1418.4 1341.85 1375.3 1335.85 1332.4 1330.15 1291.9 1318.05 1252.9 1298.1 1188.8 1267.95 1128.8 1255.65 1104.25 1242.65 1080.1 1225.85 1048.95 1208.4 1018.35 1191.2 988.25 1171.35 960.2 1157.65 940.85 1142.5 922.7 1106.35 879.35 1065.8 839.75 1014.25 789.45 947.7 762
L 1228.95 793.85 1236.5 793.85
Q 1251.85 807 1266.95 820.3 1295.9 845.85 1322.15 874.1 1345.4 899.15 1363.9 927.8
M 1300.85 1278.75
Q 1311.6 1320.25 1315.3 1363.1 1318.9 1404.45 1310.55 1444.8 1298.1 1451.6 1284 1451.95 1250.1 1453.85 1220.25 1436.6 1185.7 1416.55 1157.45 1388.4 1138.35 1369.35 1121.4 1348.45 1098.65 1320.35 1076.65 1291.7 1077.1 1289.7 1076.55 1287.8 1075.2 1283.3 1072.25 1279.4 1067.75 1273.5 1063.15 1267.8 1054.6 1257.2 1047.15 1245.7
L 1063.6 1215.35
Q 1064.05 1217.3 1064.8 1219.2 1068.55 1228.65 1075.25 1236.35 1112.85 1279.45 1154.65 1318.5 1179.65 1341.85 1210 1358.2 1221.1 1364.25 1233.35 1367.4 1241.4 1369.55 1248.9 1366.55 1255.2 1364.1 1257 1357.7 1262 1339.8 1257.35 1321.4 1246.8 1279.5 1235.3 1237.85 1214.3 1161.8 1178.75 1091.55 1172.1 1078.4 1163.7 1066 1128.55 1014.35 1091.65 964.05 1060.3 921.35 1023.65 883.3 1008.5 867.65 989.8 856.35 970.2 844.35 947.5 841 941.6 840.3 936.1 842.6 916.6 850.5 918.75 872.9 920.1 886.6 922.75 900.1 925.15 912.55 928.1 924.95 945.65 999.25 995.35 1057.3 971.3 1063.65 946.6 1066.2 935.4 1067.05 929.7 1063.9 929.95 1059.05 927.25 1054.85 911.3 1029.9 898.3 1003.2 879.8 965.25 871.6 923.9 863.25 881.9 867.15 839.5 868.25 827.25 869.65 815.05 872.65 788.6 888.3 768.85
L 900.3 762.85
Q 936.3 775.8 969.3 795.4 1002.9 815.2 1032.85 840.25 1076.5 876.75 1111.9 921.4 1209.35 1044.3 1270.5 1189 1289 1232.8 1300.85 1278.75
M 523.9 802.4
Q 543.5 838.8 555.2 879.35 557.45 887.05 562.65 892.95 566.35 897 567.45 900.25
L 562.05 915.55
Q 539.7 899.1 520.1 879.15 497.8 856.5 485.65 828.2
L 523.9 802.4
M 538.15 929.15
L 558.35 938.6 458.4 918.4 460.1 895.3 538.15 929.15
M 581.55 944
Q 586.65 921.9 594.3 900.5 623.55 897.65 651.8 905.75 693.15 917.55 722.1 949.15 750.9 980.55 775.85 1015.3 801.4 1051 840.4 1070.9 879 1090.6 922.5 1090.95 966.5 1091.35 1009.1 1080.5 1049.85 1069.95 1087.35 1051.6
L 1119.2 1025.65
Q 1120.9 1028.1 1121.65 1030.85 1121.7 1031 1120.75 1031.45 1113.05 1035.75 1106.8 1042.05 1053.2 1096 983.3 1126.5 934.15 1148 881.15 1156.4 850.3 1161.35 820.1 1154 777.3 1143.7 763.5 1102.35 749.55 1060.6 720.95 1027.25 704.5 1008.1 680.9 999.3 659.1 991.3 635.8 991.8 615.8 992.25 596.6 997.65 587.85 1000.1 583 998.25 582.75 997.55 582.55 996.9 575.45 970.7 581.55 944
M 470.2 1020
Q 464.65 1022.75 459 1023.55
L 442.35 1000.75 542.25 972.05
Q 509.4 1000.7 470.2 1020
M 1009.15 907.85
Q 1014.2 924.7 1020.55 941.1 1039.2 989.5 1072.2 1028.65
L 1012.9 1050.95
Q 1000.85 1030.9 987.05 1011.8 969.25 987.2 959.1 958.85 944.5 918.05 938.2 874.9 937.8 872 938.45 869.25 941.55 856.25 955.4 862.35
L 1002.35 889.45
Q 1006.3 898.5 1009.15 907.85
M 1131.3 1072
Q 1126.1 1077.55 1121.1 1083.3 1109.6 1096.55 1098.2 1109.85 1069 1143.9 1043.4 1180.8 1028.65 1201.95 1017.5 1225 1006.05 1248.6 999.1 1273.85 991.35 1302.05 987.8 1331.15 983.2 1369.1 981.35 1407.45
L 917.15 1416.05
Q 913.7 1400.75 912.6 1385 909.6 1340.85 921.95 1298.15 933.5 1258.1 953.95 1221.9 974.5 1185.5 999.7 1152.4 1003.75 1147.05 1009.05 1143.95 1037.95 1127.1 1066.1 1108.55 1101.8 1084.95 1132.8 1055.35
L 1136.5 1051.55 1141.85 1063.6
Q 1135.95 1067.05 1131.3 1072
M 1187.1 1182.1
Q 1192.5 1186.6 1199.1 1187.9
L 1241.65 1344.3
Q 1228 1340.4 1215.65 1333.45 1177.35 1312.2 1147.95 1279.75 1118.8 1247.65 1092.95 1212.85
L 1078.15 1191.6 1136.8 1119
Q 1145.15 1132.5 1154.25 1145.8 1168.1 1166.25 1187.1 1182.1
M 935.35 1444.25
L 956.05 1443.2 938.65 1536.5 925.55 1535.15 935.35 1444.25
M 991.55 1532.45
Q 991.8 1531.4 991.75 1530.4 991.45 1520.7 989.7 1511.05 988.95 1506.95 988.25 1502.95 983.2 1473.8 985.25 1444.5
L 1020.75 1523.45 992.3 1532.2 991.55 1532.45 Z"/>

<path fill="#C79A30" stroke="none" d="
M 989.7 1511.05
Q 991.45 1520.7 991.75 1530.4
L 992.3 1532.2 1020.75 1523.45 985.25 1444.5
Q 983.2 1473.8 988.25 1502.95 988.95 1506.95 989.7 1511.05
M 956.05 1443.2
L 935.35 1444.25 925.55 1535.15 938.65 1536.5 956.05 1443.2
M 459 1023.55
Q 464.65 1022.75 470.2 1020 509.4 1000.7 542.25 972.05
L 442.35 1000.75 459 1023.55
M 558.35 938.6
L 538.15 929.15 460.1 895.3 458.4 918.4 558.35 938.6
M 555.2 879.35
Q 543.5 838.8 523.9 802.4
L 485.65 828.2
Q 497.8 856.5 520.1 879.15 539.7 899.1 562.05 915.55
L 567.45 900.25
Q 566.35 897 562.65 892.95 557.45 887.05 555.2 879.35 Z"/>

<path fill="#41344A" stroke="none" d="
M 1199.1 1187.9
Q 1192.5 1186.6 1187.1 1182.1 1168.1 1166.25 1154.25 1145.8 1145.15 1132.5 1136.8 1119
L 1078.15 1191.6 1092.95 1212.85
Q 1118.8 1247.65 1147.95 1279.75 1177.35 1312.2 1215.65 1333.45 1228 1340.4 1241.65 1344.3
L 1199.1 1187.9
M 1020.55 941.1
Q 1014.2 924.7 1009.15 907.85 1006.3 898.5 1002.35 889.45
L 955.4 862.35
Q 941.55 856.25 938.45 869.25 937.8 872 938.2 874.9 944.5 918.05 959.1 958.85 969.25 987.2 987.05 1011.8 1000.85 1030.9 1012.9 1050.95
L 1072.2 1028.65
Q 1039.2 989.5 1020.55 941.1
M 1315.3 1363.1
Q 1311.6 1320.25 1300.85 1278.75 1289 1232.8 1270.5 1189 1209.35 1044.3 1111.9 921.4 1076.5 876.75 1032.85 840.25 1002.9 815.2 969.3 795.4 936.3 775.8 900.3 762.85
L 888.3 768.85
Q 872.65 788.6 869.65 815.05 868.25 827.25 867.15 839.5 863.25 881.9 871.6 923.9 879.8 965.25 898.3 1003.2 911.3 1029.9 927.25 1054.85 929.95 1059.05 929.7 1063.9 935.4 1067.05 946.6 1066.2 971.3 1063.65 995.35 1057.3 945.65 999.25 928.1 924.95 925.15 912.55 922.75 900.1 920.1 886.6 918.75 872.9 916.6 850.5 936.1 842.6 941.6 840.3 947.5 841 970.2 844.35 989.8 856.35 1008.5 867.65 1023.65 883.3 1060.3 921.35 1091.65 964.05 1128.55 1014.35 1163.7 1066 1172.1 1078.4 1178.75 1091.55 1214.3 1161.8 1235.3 1237.85 1246.8 1279.5 1257.35 1321.4 1262 1339.8 1257 1357.7 1255.2 1364.1 1248.9 1366.55 1241.4 1369.55 1233.35 1367.4 1221.1 1364.25 1210 1358.2 1179.65 1341.85 1154.65 1318.5 1112.85 1279.45 1075.25 1236.35 1068.55 1228.65 1064.8 1219.2 1064.05 1217.3 1063.6 1215.35
L 1047.15 1245.7
Q 1054.6 1257.2 1063.15 1267.8 1067.75 1273.5 1072.25 1279.4 1075.2 1283.3 1076.55 1287.8 1077.1 1289.7 1076.65 1291.7 1098.65 1320.35 1121.4 1348.45 1138.35 1369.35 1157.45 1388.4 1185.7 1416.55 1220.25 1436.6 1250.1 1453.85 1284 1451.95 1298.1 1451.6 1310.55 1444.8 1318.9 1404.45 1315.3 1363.1
M 1390.5 974.05
Q 1378.4 950.2 1363.9 927.8 1345.4 899.15 1322.15 874.1 1295.9 845.85 1266.95 820.3 1251.85 807 1236.5 793.85
L 1228.95 793.85 947.7 762
Q 1014.25 789.45 1065.8 839.75 1106.35 879.35 1142.5 922.7 1157.65 940.85 1171.35 960.2 1191.2 988.25 1208.4 1018.35 1225.85 1048.95 1242.65 1080.1 1255.65 1104.25 1267.95 1128.8 1298.1 1188.8 1318.05 1252.9 1330.15 1291.9 1335.85 1332.4 1341.85 1375.3 1338.3 1418.4 1338.05 1421.8 1337.7 1425.2 1394.1 1368.65 1436.65 1301.1 1452.7 1275.6 1466.9 1248.95 1463.45 1199.7 1455.65 1150.7 1449.2 1110.3 1434.9 1071.85 1424.1 1042.75 1410.7 1014.95 1400.8 994.4 1390.5 974.05 Z"/>

<path fill="#003399" stroke="none" d="
M 1121.1 1083.3
Q 1126.1 1077.55 1131.3 1072 1135.95 1067.05 1141.85 1063.6
L 1136.5 1051.55 1132.8 1055.35
Q 1101.8 1084.95 1066.1 1108.55 1037.95 1127.1 1009.05 1143.95 1003.75 1147.05 999.7 1152.4 974.5 1185.5 953.95 1221.9 933.5 1258.1 921.95 1298.15 909.6 1340.85 912.6 1385 913.7 1400.75 917.15 1416.05
L 981.35 1407.45
Q 983.2 1369.1 987.8 1331.15 991.35 1302.05 999.1 1273.85 1006.05 1248.6 1017.5 1225 1028.65 1201.95 1043.4 1180.8 1069 1143.9 1098.2 1109.85 1109.6 1096.55 1121.1 1083.3 Z"/>

<path fill="#990000" stroke="none" d="
M 594.3 900.5
Q 586.65 921.9 581.55 944 575.45 970.7 582.55 996.9 582.75 997.55 583 998.25 587.85 1000.1 596.6 997.65 615.8 992.25 635.8 991.8 659.1 991.3 680.9 999.3 704.5 1008.1 720.95 1027.25 749.55 1060.6 763.5 1102.35 777.3 1143.7 820.1 1154 850.3 1161.35 881.15 1156.4 934.15 1148 983.3 1126.5 1053.2 1096 1106.8 1042.05 1113.05 1035.75 1120.75 1031.45 1121.7 1031 1121.65 1030.85 1120.9 1028.1 1119.2 1025.65
L 1087.35 1051.6
Q 1049.85 1069.95 1009.1 1080.5 966.5 1091.35 922.5 1090.95 879 1090.6 840.4 1070.9 801.4 1051 775.85 1015.3 750.9 980.55 722.1 949.15 693.15 917.55 651.8 905.75 623.55 897.65 594.3 900.5 Z"/>
</g>

<g id="Layer1_0_FILL">
<path fill="#000000" fill-opacity="0.2" stroke="none" d="
M 996.3 877.55
Q 987.95 870.7 981.3 866.5 972.75 861.05 964.65 858.3 954.95 855 947.8 856.65 943.15 857.7 939.25 860.85 935.4 864 933.35 868.35 931.3 872.7 931.3 877.65 931.3 882.6 933.35 886.95 934.35 889.05 937.2 893.25 939.9 897.2 940.9 899.6 941.95 902.05 942.6 905.45 942.7 906.05 943.5 911.55 946.25 931.45 954.85 955.05 960.1 969.5 972.25 996.8 975.75 1004.65 977.75 1008.75 980.9 1015.3 983.95 1020.3 991.1 1031.9 1001.1 1041.15 1008.55 1048.05 1016.15 1051.3 1025.3 1055.15 1033.3 1053.05 1035.15 1052.55 1038.7 1051.25 1041.95 1050.2 1044.2 1050.25 1046.5 1050.35 1049.75 1051.65 1055.05 1053.85 1055.1 1053.85 1058.217578125 1054.8796875 1061.45 1054.8 952.592578125 1126.1525390625 852.25 1133.3 833.25 1134.65 819.55 1132.2 801.95 1129.05 790.75 1119.35 779.2 1109.35 770.4 1086.15 765.8 1073.4 763.3 1067.1 758.95 1056.15 754.5 1049 748.65 1039.65 740.2 1032.35 731.7 1025.1 721.6 1020.65 717.55 1018.9 714.1 1018.85 709.8 1018.85 707.8 1021.65 706.4 1023.7 706.8 1026.5 707.1 1029.05 708.75 1031.25 710.05 1033 712.4 1034.85 713.75 1035.9 716.55 1037.95 726.2 1045.3 733.05 1057.7 738 1066.65 743.35 1082.3 751.05 1104.7 752.4 1108.15 758.15 1122.55 765.2 1131.7 773.85 1143 787.4 1150.75 799.9 1157.95 814.95 1161.25 828.4 1164.2 844.25 1164.25 857.4 1164.25 873.8 1162.2 913.3 1157.25 956.7 1142.9 992.9 1130.95 1036 1110.95 1050.5150390625 1104.2361328125 1063.6 1097.55 1062.3822265625 1098.75546875 1060.8 1100.3 1057.1 1103.95 1054.65 1105.65 1052.4 1107.25 1048.4 1109.3 1043.45 1111.85 1041.95 1112.75 1039.65 1114.15 1035.85 1116.95 1031.55 1120.15 1029.85 1121.25 1025.8 1123.9 1020.45 1126.35 1016.7 1128.05 1010.55 1130.4 1005 1132.5 1002.3 1133.95 997.9 1136.3 995.4 1139.35 992.4 1142.95 992.35 1147.7 992.25 1152.7 995.7 1155.3 998.4 1157.35 1002.65 1157.2 1005.8 1157.1 1010.2 1155.65 1018.081640625 1153.1140625 1026.6 1149.25 1020.38359375 1156.951953125 1014.75 1164.75 982.85 1208.95 971.7 1255.65 969 1266.85 965.4 1289.9
L 959.15 1329.85
Q 954.8 1357.55 953.65 1371.9 951.7 1395.35 954.15 1413.95 954.9 1419.75 956.2 1423.5 957.85 1428.55 960.9 1431.7 964.35 1435.35 969.55 1435.85 974.95 1436.4 978.05 1432.9 980.8 1429.85 981.1 1422.6 981.5 1414.2 982.8 1411.35 983.4 1410 984.9 1408 986.6 1405.65 987.1 1404.7 989.95 1399.75 989.45 1392.2 989.3 1389.5 987.4 1378.95 983.2 1355.55 989.15 1326.35 992.95 1307.85 1004.35 1274.8 1013.25 1249.05 1018.45 1236.35 1027.05 1215.3 1036.65 1199.85 1041.3 1192.35 1047.9 1183.5 1051.85 1178.15 1060.05 1167.7 1083.6 1137.65 1096.15 1123.05 1116.95 1098.9 1136 1081.95 1140.25 1078.15 1142.05 1076.3 1145.2 1072.95 1146.85 1069.75 1148.85 1065.85 1148.7 1061.75 1148.55 1057.25 1145.9 1054.35 1143.05 1051.25 1138.25 1050.9 1133.9328125 1050.560546875 1129.9 1052.45 1130.916015625 1049.6537109375 1130.85 1046.75 1130.65 1038.9 1123.1 1033.75 1115.9 1028.85 1107.4 1029.6 1100.25 1030.25 1092.15 1034.55 1087.8876953125 1036.8416015625 1079.85 1042.35 1080.6255859375 1040.378125 1081 1038.15 1082 1032.2 1079.75 1026.9 1077.95 1022.7 1073.35 1017.9 1067.95 1012.7 1065.4 1009.9 1061.25 1005.35 1057.6 999 1054.8 994.1 1051.7 986.9 1045.4 972.15 1041.4 956.5 1038.35 943.1 1036.65 936.45 1033.7 924.75 1030.1 917.05 1025 906.1 1015.5 895.5 1008 887.15 996.3 877.55
M 1448.4 1066
Q 1439.35 1045.3 1423.05 1015.75 1393.9 962.7 1364.5 919.1 1331.3 869.85 1295.8 829.6 1282.8 814.95 1273.25 806.4 1260.05 794.55 1246.95 788 1231 780.05 1209.8 777.15 1193.6 774.95 1170.6 775.45 1128.4 776.35 1127.8 776.35 1103.4 775.95 1085.8 770.95 1079.95 769.3 1068.55 765.2 1056.9 761 1051.25 759.4 1031 753.6 1016.85 758.15 1010.75 760.55 1007.7 761.65 1002.25 763.55 998.25 763.3 994.15 763 986.8 759.4 979.3 755.75 975.3 755.4 968.35 754.75 962.75 760.15 957.2 765.55 957.6 772.5 957.9 778.2 962.2 783.95 965 787.75 971.2 793.3
L 1075.6 886.8
Q 1090.9 900.5 1098.4 907.55 1110.95 919.25 1120.3 929.2 1144.75 955.15 1169.5 992 1184.9 1014.9 1211.65 1060.15 1232.25 1094.9 1242.5 1113.7 1258.85 1143.8 1269.45 1169.2 1288.6 1215.2 1300.7 1273.95 1309.6 1316.95 1317.35 1382.5 1318.75 1394.55 1320.15 1400.55 1322.4 1410.4 1326.7 1417.25 1331.75 1425.4 1340.2 1429.4 1349.2 1433.75 1357.45 1430.85 1363.35 1428.8 1368.5 1422.9 1371.85 1419.1 1376.55 1411.3
L 1443.55 1300.45
Q 1454 1283.25 1458.75 1273.8 1466.45 1258.55 1469.6 1245.3 1472.4 1233.65 1472.9 1218.7 1473.2 1209.7 1472.6 1191.7 1471.75 1167.65 1470.8 1155.25 1469.2 1135.1 1465.9 1119.2 1460.7 1094.2 1448.4 1066
M 1121.7 1115.15
Q 1119.45 1117.25 1115.75 1121.35
L 1089.85 1149.8
Q 1082.2 1158.2 1078.8 1163.1 1073.35 1171 1071.9 1178.5 1070.25 1186.65 1072.9 1195.75 1075.2 1203.8 1080.55 1211.65 1084.65 1217.7 1091.75 1225.2 1095.75 1229.45 1103.95 1237.85 1113.45 1248.05 1126.15 1264.8 1146.75 1292.05 1147.25 1292.65 1159.6 1308.15 1170.8 1318.55 1184.65 1331.4 1199.05 1338.7 1208.05 1343.3 1216.1 1344.15 1225.85 1345.25 1232.5 1340.55 1237.15 1337.3 1239.8 1331.5 1242.2 1326.25 1242.5 1320 1242.75 1314.7 1241.55 1308.25 1240.8 1304.15 1238.8 1296.75
L 1219.9 1225
Q 1217.55 1216.1 1216.05 1211.75 1213.55 1204.5 1210.4 1199.25 1206.75 1193.2 1199.75 1186 1191.5 1178.05 1187.5 1173.95 1175.4 1160.3 1169.3 1153.6 1158.4 1141.7 1148.8 1136.05 1151.25 1132.75 1152.4 1129 1153.65 1125.05 1153.3 1121.2 1152.9 1117.15 1150.7 1113.8 1148.45 1110.25 1144.95 1108.6 1141.25 1106.85 1136.7 1107.35 1132.5 1107.85 1128.55 1110.05 1125.2 1111.95 1121.7 1115.15 Z"/>
</g>
</defs>

<g transform="matrix( 1, 0, 0, 1, 0,0) ">
<use xlink:href="#Layer2_0_FILL"/>
</g>

<g transform="matrix( 1, 0, 0, 1, 0,0) ">
<use xlink:href="#Layer1_0_FILL"/>
</g>
</svg>
