
<svg xmlns="http://www.w3.org/2000/svg" version="1.1" xmlns:xlink="http://www.w3.org/1999/xlink" preserveAspectRatio="none" x="0px" y="0px" width="2000px" height="2000px" viewBox="0 0 2000 2000">
<defs>
<g id="Layer2_0_FILL">
<path fill="#000000" stroke="none" d="
M 1418.55 786.1
Q 1398.75 758.95 1368.65 743.45 1330.2 723.7 1288.9 710.4 1215 686.6 1137.75 678.85 1124.3 677.55 1111.25 680.5 1098.8 683.45 1095.6 696.35 1068.65 804.6 1063.9 915.95 1050.5 907.8 1035.8 902.05 996.95 886.65 955.35 882.1 915.1 878.15 875.5 885.6 833.35 893.75 804.8 925.75 791.75 940.35 786.75 959.2 777.8 993.2 788.85 1027.1 802.3 1068.55 828.4 1103.35 854.7 1138.4 889.55 1164.95 924.2 1191.45 964 1209.45 1002.65 1226.85 1043.8 1236.95 1084.55 1247.05 1125.05 1237.8 1131.05 1236.1 1136.9 1233.35 1164.6 1220.3 1182.15 1195.15 1197.1 1173.65 1202.8 1148 1208.45 1122.4 1204.25 1096.55 1200.55 1073.65 1190.35 1052.55 1168.7 1007.55 1132.55 972.95 1133.8 970.75 1134.85 968.45 1142.3 952.1 1148.1 935.35 1174.2 859.45 1192.25 781.4 1194.3 782.4 1196.35 783.4 1209.9 789.8 1223.4 796.1 1230.2 799.3 1237.1 802.4 1261.3 813.45 1286.5 822.3 1320.75 834.35 1356.7 838 1383.55 841.05 1408.65 832.25 1416.3 829.6 1420.55 822.65 1431.85 804.25 1418.55 786.1
M 991.8 918.15
Q 1003.9 921.5 1016.1 924.75 1051.9 934.55 1073.25 964.85
L 1083.6 974.85
Q 1065.65 1012.5 1037.55 1042.75 1028.2 1052.85 1016.45 1060.2 948.5 1102.65 868.3 1108.05 861 1100.05 854.15 1091.25 828.4 1058.3 816.35 1018.5 808.35 991.95 813.2 964.95 815.7 950.85 826.65 941.75 860.95 913.15 906.1 909.7 949.75 906.15 991.8 918.15
M 1096.65 1011.7
Q 1103.5 1000.65 1110 996.35 1140.45 1023.75 1159 1060.6 1167.55 1077.55 1171.65 1096.25 1181.4 1140.5 1155.25 1177.45 1128.7 1214.95 1082.65 1210.5 972.45 1198.6 887.3 1126.5 897.45 1126.4 907.55 1124.95 963.1 1117.45 1012.55 1090.9 1064.7 1062.95 1096.65 1011.7 Z"/>

<path fill="#B2A03D" stroke="none" d="
M 1110 996.35
Q 1103.5 1000.65 1096.65 1011.7 1064.7 1062.95 1012.55 1090.9 963.1 1117.45 907.55 1124.95 897.45 1126.4 887.3 1126.5 972.45 1198.6 1082.65 1210.5 1128.7 1214.95 1155.25 1177.45 1181.4 1140.5 1171.65 1096.25 1167.55 1077.55 1159 1060.6 1140.45 1023.75 1110 996.35
M 1016.1 924.75
Q 1003.9 921.5 991.8 918.15 949.75 906.15 906.1 909.7 860.95 913.15 826.65 941.75 815.7 950.85 813.2 964.95 808.35 991.95 816.35 1018.5 828.4 1058.3 854.15 1091.25 861 1100.05 868.3 1108.05 948.5 1102.65 1016.45 1060.2 1028.2 1052.85 1037.55 1042.75 1065.65 1012.5 1083.6 974.85
L 1073.25 964.85
Q 1051.9 934.55 1016.1 924.75 Z"/>
</g>

<g id="Layer1_0_FILL">
<path fill="#000000" fill-opacity="0.2" stroke="none" d="
M 1015.9 1118
Q 1005.25 1117.8 992.3 1115.55 983.7 1114.1 969 1110.65 947.85 1105.8 935.1 1102.2 916.65 1096.9 902.2 1090.7 873.6767578125 1078.4927734375 855.15 1060.45 852.2443359375 1057.11015625 848.85 1053.1
L 811.4 1008.85
Q 809.15 1006.25 807.55 1005.05 805.1 1003.25 802.7 1003.3 800.2 1003.35 798.2 1005.4 796.3 1007.3 795.7 1010 795.2 1012.35 795.6 1015.2 795.85 1017.2 796.75 1020.35 804.25 1046.85 821.25 1071.65 836.9 1094.5 859.45 1114.3 870.85 1124.3 880.35 1129.7 881.208203125 1130.184375 882.05 1130.65 882.487109375 1131.5599609375 882.9 1132.6 885.05 1138 885.2 1138.35 887.75 1143.95 892.65 1149.35 896.45 1153.6 902.5 1158.5 935 1185.05 981.2 1197.75 1017.2150390625 1207.6744140625 1060.1 1208.85 1060.86875 1209.60390625 1061.55 1210.2 1065.4 1213.65 1071.45 1216.2 1083.1 1221.05 1098.55 1220.7 1109.75 1220.45 1126.5 1217.1 1136.95 1215 1143.05 1212.95 1152 1209.95 1158.15 1205.4 1166.55 1199.2 1169.3 1190.9 1170.8 1186.35 1170.3 1181.7 1169.7 1176.8 1167.05 1173.15 1166.6990234375 1172.6650390625 1166.3 1172.2 1174.8185546875 1159.4611328125 1180.3 1140.35 1184.55 1125.35 1187.65 1104.9 1188.8 1097.15 1188.85 1092.4 1189 1085.45 1187.35 1080.1 1185.4 1073.8 1180.8 1069.4 1175.85 1064.75 1169.85 1064.4 1164.6 1064.1 1158.5 1067.4 1156.5 1068.45 1148.2 1074.15 1140.7 1079.3 1130.55 1084.2 1124.2 1087.3 1111.9 1092.45 1081.45 1105.3 1064.9 1110.35 1038.15 1118.45 1015.9 1118 Z"/>
</g>
</defs>

<g transform="matrix( 1, 0, 0, 1, 0,0) ">
<use xlink:href="#Layer2_0_FILL"/>
</g>

<g transform="matrix( 1, 0, 0, 1, 0,0) ">
<use xlink:href="#Layer1_0_FILL"/>
</g>
</svg>
