
<svg xmlns="http://www.w3.org/2000/svg" version="1.1" xmlns:xlink="http://www.w3.org/1999/xlink" preserveAspectRatio="none" x="0px" y="0px" width="2000px" height="2000px" viewBox="0 0 2000 2000">
<defs>
<g id="Layer2_0_FILL">
<path fill="#000000" stroke="none" d="
M 1431.85 585.4
Q 1389.55 578.45 1348.05 568.2 1306.35 558 1264.65 547.65 1223 537.35 1181.4 527.2 1145.9 518.55 1110.35 509.95 1072.8 500.85 1035.25 491.8 995.55 482.35 955.8 472.8 916.6 463.4 877.15 454.05 835.45 444.05 793.5 434.05 752.65 424.15 711.5 414.75 669.05 405.1 625.7 399.75 587.05 395.1 548.05 395.15 505.1 395.25 464.1 382.45 463.1 382.1 462.1 382.05 443.4 380 435.95 399.2 380.3 502.6 321.7 606.95 270.75 697.6 226.45 791.85
L 65.9 1129.35
Q 64.9 1131.45 63.9 1133.5 60.4 1140.65 60.55 1148.65 61 1169.6 80.75 1164.7
L 166.1 1307.5 278.4 1505.1
Q 290.15 1526.05 302.5 1546.7 308.8 1557.3 317.25 1566.4 329.1 1579.15 338.7 1566.75 376.1 1576.4 413.7 1585.65 483.1 1602.65 552.9 1617.45 607.15 1628.9 661.8 1638.55 692.15 1643.85 722.35 1648.55 746.8 1652.25 771.45 1655.55 836.05 1664.7 899.75 1678.25 946.15 1688.25 993 1696.65 1030.55 1703.6 1068.35 1708.25 1083.85 1710 1099.4 1711.9 1110.5 1713.05 1121.7 1714.5 1132.2 1715.75 1142.65 1716.95 1156.25 1718.8 1169.7 1720.65 1253.4 1731.5 1335.4 1751.3 1355.9 1756.25 1376.6 1760.2 1391 1763.15 1403.15 1770.25 1409.9 1774.2 1416.65 1770.5 1420.85 1768.25 1423.1 1763.85 1429.6 1751.25 1435.8 1738.35 1471.5 1664.65 1508.95 1591.85 1567.85 1477.4 1625.75 1362.35 1628.65 1363.15 1631.6 1363.95 1662.3 1371.55 1693.25 1378.9 1716.85 1384.4 1740.5 1389.25 1760.5 1393.35 1780.5 1397.2 1801.05 1401.4 1821.45 1397.75 1837.1 1394.85 1845.8 1381.45 1861.85 1356.65 1871.35 1328.35 1892.75 1264.55 1909.95 1199.4 1923.6 1147.8 1938.3 1096.4 1942 1083.4 1945.95 1070.45 1949.45 1058.85 1953.25 1047.3 1956.5 1037.35 1959.65 1027.3 1965.4 1009.15 1969.6 990.65 1975.85 963 1974.45 934.8 1973.5 915.75 1964.95 898.8 1954.1 877.15 1931.1 869.7 1907.1 861.75 1888.6 878.5 1883.5 883.1 1880.4 889.25 1845.2 958.95 1831.55 1036.5 1809.25 1163.35 1784.4 1289.95
L 1665.65 1281.2 1769.65 1049.05
Q 1770.5 1048.5 1771.35 1047.9 1773.65 1046.3 1775.05 1043.8 1779.4 1036.3 1776.6 1027.8 1772.25 1014.5 1765.2 1002.3 1757.75 989.35 1749.75 976.7 1739.35 960.3 1728.6 943.95 1714.45 922.4 1700.2 900.8 1686.55 880.05 1672.6 859.5 1588.85 736 1519.25 604.05 1511.45 589.3 1496 598.15 1463.95 590.65 1431.85 585.4
M 1510.8 646.5
Q 1518.65 667.05 1529.4 686.2 1542 708.6 1555.6 730.35
L 1745.3 1035.3
Q 1734.1 1063.6 1722.25 1091.55 1682.15 1186.3 1637.3 1278.8
L 1588.45 1267.45
Q 1600.35 1236.55 1607.15 1204.2 1612.9 1176.6 1616 1148.6 1621.3 1100.35 1597.9 1058.9 1587.6 1040.6 1569.8 1029.45 1543.35 1012.85 1512.95 1022.45 1472.9 1035.2 1438.15 1058.75 1407.35 1079.55 1386.9 1110.6 1355.75 1157.75 1342.3 1213.05 1333.1 1250.95 1330.55 1289.85 1327.8 1332.45 1339.55 1373.3 1347.6 1401.15 1367.5 1422.05 1386.9 1442.45 1414.6 1448.2 1433.3 1452.25 1451.2 1445.95 1467.75 1439.95 1481.05 1428.4 1501.2 1411 1517.95 1390.3 1541.75 1361 1560.15 1328.05 1561.8 1329.9 1563.55 1331.7 1568.85 1337.15 1575.25 1341.6 1586.95 1349.6 1600.3 1354.45
L 1408.8 1731.4
Q 1396.9 1716.05 1385 1700.65 1361 1669.7 1339.35 1636.85 1317.6 1603.95 1300.65 1568.4 1293.2 1552.8 1285 1537.5 1275.35 1519.55 1265 1502.15 1247.3 1472.35 1228.85 1442.9 1207.55 1408.95 1186.6 1374.85 1178.95 1362.35 1174.85 1349.75
L 1399.15 896.2
Q 1414.95 862.5 1430.4 828.5 1472.3 736.5 1509.25 642.45 1510 644.45 1510.8 646.5
M 1936.75 914.2
Q 1942.25 925.85 1941.65 939.05 1939.3 989 1923.4 1036.95 1918.7 1051.1 1914.3 1065.25
L 1832.35 1339.25
Q 1830.9 1344.4 1829 1349.35 1824.2 1361.7 1811.35 1363.75 1793.3 1366.35 1775 1363.7 1732.05 1357.85 1690.35 1345.85
L 1642.3 1329.05 1654.65 1303.9
Q 1717.4 1308.25 1779.65 1317.35 1790.15 1318.75 1799.75 1314.6 1806.2 1311.85 1809.4 1305.5 1812.75 1299 1814.35 1291.7 1833.1 1205.25 1847.95 1118.3 1865.35 1016.6 1899.75 919.85 1902.15 913.1 1907.45 908.2 1923.25 893.8 1935.7 912.35 1936.3 913.2 1936.75 914.2
M 1372.5 1177.45
Q 1382.1 1146.6 1400.8 1118.25 1424.45 1082.4 1462.1 1061.95 1500.6 1041.1 1542.8 1047.3 1556.65 1051.95 1565.5 1063.5 1591.15 1097.05 1585.55 1139.8 1582.15 1165.5 1578.15 1190.85 1572.45 1226.8 1560.75 1261.15 1557.15 1271.8 1550.35 1276.95 1536.65 1276.05 1523.2 1273.8 1481.9 1266.55 1447.2 1242.95 1424.55 1227.5 1402.85 1210.9 1384.5 1196.95 1372.5 1177.45
M 1618.2 1318.2
L 1582.8 1299.1 1576.25 1296.5 1578.05 1292.6
Q 1583.95 1295.25 1590.2 1297 1607.7 1301.5 1626.05 1302.1
L 1618.2 1318.2
M 165.65 1176.15
Q 207.75 1181.45 249.9 1186.1 290.35 1190.8 330.65 1196 372.25 1201.25 413.6 1208.15 455.65 1215.4 497.35 1223.65 547.35 1233.35 597.35 1243.05 605.2 1244.6 613.1 1246.15 653.9 1254.05 694.65 1262.15 737.2 1270.75 779.7 1279.9 822.2 1289 864.4 1298.6 906.65 1308.25 948.75 1318.4 990.85 1328.5 1032.8 1339.2 1060.7 1346.4 1088.3 1354.8 1122.5 1365.3 1157.5 1370.6
L 1164.5 1369.2
Q 1174.55 1387.2 1185.25 1404.7 1194.8 1420.2 1204.6 1435.75 1231.05 1477.55 1254.4 1521.05 1255.7 1523.45 1256.95 1525.95 1266.7 1545.1 1275.05 1564.8 1279.45 1575.25 1284.05 1585.6 1285.3 1588.4 1286.45 1591.05 1287.45 1593.35 1288.5 1595.6 1289.35 1597.35 1290.25 1599.3 1297.35 1614.7 1305.3 1629.6 1332 1679.5 1365.15 1725.3 1354.05 1722.6 1342.95 1720.1 1289.05 1707.45 1234.5 1698.7 1194.85 1692.2 1155.15 1686.75 1121.95 1682.3 1088.65 1677.7 1055.75 1673.15 1022.95 1668.5 985.95 1663.15 948.8 1657.6 918.9 1653 889.1 1648.5 858.95 1643.8 828.8 1639 765.7 1629.05 702.9 1618.9 699 1618.25 695.15 1617.6 654.1 1611.05 613.15 1604.05 586.35 1599.5 559.65 1594.75 540.7 1591.25 521.85 1587.85 501.1 1583.9 480.25 1579.75 460.15 1575.8 440.3 1571.65 421.2 1567.6 402.1 1563.45 367.8 1555.7 334.9 1547.3 333.8 1545.7 332.75 1544.1 302.4 1498.4 275 1450.45 272.85 1446.75 270.8 1443.05 250.35 1406.65 229.95 1370.4 217 1347.5 204.05 1324.6 197.95 1313.85 191.85 1303.15 186.1 1293.1 180.25 1283.2 174.75 1273.95 169.25 1264.95 164.1 1256.4 158.95 1248.1 133.65 1207.1 105.2 1168.25 135.35 1172.65 165.65 1176.15
M 1298.8 593.1
Q 1387.95 614.35 1477.65 632.85 1467.25 660.25 1456.1 687.5 1422.35 770.35 1385.45 851.65 1376.95 870.4 1368.3 889.3 1359.7 908 1351 926.5 1342.7 944.15 1334.3 961.85 1323 985.6 1311.65 1009.45 1287.35 1060.6 1262.75 1111.45
L 1151.95 1336.7
Q 1083.95 1318.45 1015.4 1302.55 943.05 1285.7 870.3 1270.45 844.1 1265 817.6 1259.6 777.15 1251.3 736.55 1243.3 682.3 1232.5 627.9 1221.85 604.2 1217.25 580.35 1212.7 557.85 1208.35 535.2 1204.15 521.35 1201.55 507.5 1199 430.7 1185.3 353.35 1174.7 237.55 1158.85 121 1149.4 108.3 1148.35 95.7 1146.7 113.35 1109.25 130.85 1071.7 148.95 1032.85 166.95 993.8 184.4 955.9 202.05 918 219.15 881.15 236.55 844.3 253.1 809.25 269.9 774.3 288.55 735.55 307.8 697 326.1 660.3 344.9 624.1 362.75 589.7 381.25 555.75 401.5 518.65 422.65 481.9 444.5 443.95 466.95 406.25 466.95 406.2 467 406.2 474.95 408.45 483.1 410.1 492.05 411.9 501.05 413.25 507.75 414.05 514.8 415.1 516.7 415.35 518.7 415.5 522.05 415.95 525.65 416.2 609.55 422.55 691.65 439.1 735.6 447.85 779 459.15 801.3 464.75 823.6 470.65 911.2 493.8 998.9 516.95 1050.8 530.65 1102.65 544.05 1122.6 549.2 1142.55 554.4 1163.45 559.7 1184.45 565 1201.25 569.3 1218.1 573.45 1258.4 583.4 1298.8 593.1
M 1539.3 1301.95
Q 1535.15 1309.5 1530.75 1317.15 1509.15 1354.3 1484.95 1389.9 1466 1417.75 1433.9 1426.05 1405.25 1433.45 1384.75 1411.9 1354.2 1379.9 1349.05 1335.6 1343.9 1291.75 1352.8 1248.25
L 1364.75 1198.25
Q 1372.3 1212.1 1384.7 1222.15 1417.15 1248.5 1452.55 1270.1 1492.9 1294.7 1539.3 1301.95
M 1170.55 848.25
Q 1163.95 844 1156 842.5 1139 839.7 1122.55 845.7 1081.95 860.85 1052.1 892.25 1021.35 924.5 1011.6 967.35 1007.85 983.8 1016.8 1000.3 1017.9 1002.55 1018.6 1004.95 1030.9 1047 1047.65 1087 1049.8 1092.1 1054.3 1095.05 1076.35 1109.75 1103.5 1110.2 1145.6 1110.85 1184.3 1094.05 1224.5 1076.6 1257.9 1048.15 1265.1 1042 1267.85 1033.05 1280.7 991.1 1286.7 947.7 1288.6 934 1287.65 920.35 1285.1 883.8 1255.75 862 1220.1 835.45 1177.8 849.1 1173.9 850.4 1170.55 848.25
M 1072.2 1083.9
Q 1068.85 1082.85 1066.85 1080 1054.1 1062 1048.8 1040.1 1078.65 1063.2 1116.05 1067.4 1158.85 1071.8 1196.9 1050.85 1202.95 1047.85 1208.95 1044.4 1232.85 1030.75 1251.5 1010.5 1250.5 1019.45 1248.65 1028.25 1248 1031.25 1245.95 1033.5 1215.35 1066.25 1172.3 1081.4 1122.45 1099.05 1072.2 1083.9
M 1223.2 873.2
Q 1233.55 875.95 1241.55 882.65 1268.75 905.35 1260.45 941.3 1250.4 984.65 1214.05 1010.7 1178.6 1036.05 1135.15 1040.35 1089.75 1045.3 1057.35 1013.55 1054.45 1010.6 1051.6 1007.6 1029.35 983.65 1042.65 953.75 1052.05 932.55 1067.15 914.9 1096.45 880.45 1141.25 871.6 1147.15 870.45 1152.9 869.6 1188.4 864.1 1223.2 873.2
M 1033.25 637.4
Q 1031.45 622.3 1018.9 626.85
L 1007.6 623.1 687.35 543.4
Q 654.15 535.1 620.7 527.55 601.95 523.45 583.1 521.2 539.3 516.15 497.3 503.05 481.15 498.1 473.5 511.2 470.7 517.1 467.9 523 466.45 526 464.95 529.05 452.05 555.45 438.1 581.3 410.65 632.05 381.25 681.4 312.85 796.15 262 919.55 258.75 927.4 255.15 935.05 250.1 945.65 257.2 953.7 265.75 1006.25 281.25 1056.8 285.5 1070.75 298.1 1065.75 323.8 1067.8 348.55 1074.95 424.6 1097.2 502.05 1114.1 504.5 1114.65 506.95 1115.2 514.85 1117.05 522.75 1118.85 637.5 1144.25 752.75 1168.05 795.75 1176.95 839.4 1182.65 848.4 1183.85 856.3 1187.5 859.6 1189.05 863.5 1188.35 879.8 1185.25 875.5 1167.9 888.6 1144.85 899.45 1120.6 900.55 1118.15 901.6 1115.7 910.45 1096 919.15 1076.3 929.25 1053.55 940.8 1031.6 995.8 926.75 1055.1 825 1062.7 811.9 1068 797.9 1078 771.25 1060.45 750.15 1051.45 701.95 1037.05 655.1 1034.35 646.35 1033.25 637.4
M 653.25 758.95
L 667 729.95 804.8 755.35 735.95 908.5 605.6 878.25 653.25 758.95
M 675.75 711.8
L 726.25 602.65 733.85 582.8 872.4 617.85 813.15 737.25 675.75 711.8
M 826.5 759.95
L 945.2 788.65 870.9 935.8 756.35 913.55 806.15 807 826.5 759.95
M 834.1 741.95
L 884 620.85 1002 653.1 991.8 675.7 993.3 681.25 951.85 774.3 834.1 741.95
M 721.75 579.85
L 664.95 710.05 533.95 688.75
Q 562.95 637.6 590.85 585.85 597.75 573.05 602.2 559.15 603.35 555.45 604.4 551.75
L 721.75 579.85
M 1022.25 695.85
Q 1025.4 714.55 1027.8 733.3 1031 758.35 1041.75 780.5
L 1044.55 785 984.15 904.95 965.5 791.6 1019.25 677.5
Q 1020.7 686.7 1022.25 695.85
M 597.7 550.15
Q 595.5 559.9 591.4 568.95 583.65 586 573.95 601.95 548.2 644.05 524.4 687.15
L 410.2 665.45 486.4 525.55 597.7 550.15
M 374.9 729.65
L 404.15 679.45 514.9 704.45 438.95 849.25 322.45 832.45 374.9 729.65
M 618.85 810.2
L 593.75 875.85 449.75 850.85 524.55 706.1 656 728.1 618.85 810.2
M 398.55 961
Q 400.8 953.5 404.15 946.35 404.65 945.25 405.15 944.2 424 903.45 443.75 863
L 588.85 888.6 548.4 994.35 509.25 987.55 396.75 970.15
Q 397.2 965.5 398.55 961
M 369.4 985.6
L 381.45 988
Q 382.8 992.55 384.65 997.1 385.3 998.7 386 1000.35 387.4 1003.5 388.85 1006.75 402.35 1037.1 406.55 1070.5 354.35 1054.25 300.2 1049.1
L 279.15 961.65 369.4 985.6
M 380.45 967.15
Q 369.45 965.25 358.4 963 316.6 954.05 276.2 939.45
L 317.05 843.75 432.75 861.2
Q 414.7 896.3 395.1 930.85 385.3 948.1 380.45 967.15
M 420.2 1073.85
Q 418.55 1060.65 416.4 1047.5 411.65 1018.45 400.2 991.35
L 483.95 1003.7 552.95 1017.35 574.45 1109.35 420.2 1073.85
M 876.8 968.3
Q 877.55 970.7 878.25 973.1 883.65 991.45 886.55 1010.45 891.2 1041.15 895.65 1071.55
L 865.7 1136.7 843.5 1079.45 832.95 1050.85 876.8 968.3
M 955.05 813.2
L 971.9 927.7 923.4 1011.85 909.1 1040.55 888.05 948.35 955.05 813.2
M 801.85 1040.4
L 700.3 1023.35 750.95 925.9 865.65 948.7 813.5 1043.5 801.85 1040.4
M 700.45 1044.65
L 802.1 1060.95 815.1 1059.7 841.9 1164.55 721.4 1139.85 700.45 1044.65
M 586.15 1111.1
Q 585.25 1101.55 582.3 1092.15 576.4 1073.2 572.7 1054.15 569.25 1036.3 566.65 1018.3
L 680.7 1040.95 702.35 1137.15 586.15 1111.1
M 560.7 996.6
L 600.9 890.9 729.7 920.6 680.7 1019.65 560.7 996.6
M 317.55 1294.5
Q 313.6 1293.7 310.1 1291.85 295.75 1284.3 283.05 1290.25 282.7 1290.45 282.45 1290.9 282.3 1291.4 282.15 1291.9 281.7 1293.7 282.55 1295.25 282.85 1295.8 283.25 1296.3 284.2 1297.35 285.4 1298.15 286.75 1299.2 288.35 1300 289.2 1300.45 290.15 1300.85
L 366.55 1493.35
Q 367.35 1494.9 367.95 1496.55 370.2 1502.35 375.6 1504.45 408.55 1517.35 443.1 1525.85 485 1536.15 527.8 1543.55 553.75 1548.05 579.65 1552.4 593.55 1554.75 607.55 1557.15 614.9 1558.45 622.1 1559.7 634.3 1561.9 646.4 1564.25 676.35 1570.15 706.05 1576.5 737.95 1583.25 769.7 1590.35 813.15 1599.75 856.75 1608.05 966.3 1629.1 1077.75 1635 1130.15 1638.15 1182.75 1640.4 1188.2 1640.6 1193.65 1640.8 1197.45 1651.7 1207.95 1650.65 1212.7 1649.9 1214 1644.85 1214.2 1644.1 1214.3 1643.35 1214.65 1640.4 1214 1637.6 1213.8 1636.75 1213.6 1636 1214.85 1633.75 1214.75 1631.15 1214.55 1627.1 1212.6 1623.65 1212.25 1623.05 1211.85 1622.5 1209.95 1620.1 1207.35 1618.5 1206.55 1618.05 1205.8 1617.65 1171.7 1535.75 1133.15 1455.9 1121.75 1432.2 1105.5 1411.55 1097.95 1402 1085.55 1401.9 1050.2 1401.55 1014.85 1398.7 989.8 1396.7 964.7 1393.85 951.25 1392.35 937.9 1390.65 915.85 1387.9 893.95 1384.8 821.25 1374.4 748.4 1363.2 680.15 1352.8 612.15 1342.35 577.6 1337 542.9 1332 430.05 1315.4 317.55 1294.5
M 453.7 1345.4
Q 456.05 1342.05 457.5 1338.4 548.75 1353.25 640.05 1368.15 657.9 1371.1 675.9 1374 715.65 1380.45 755.25 1386.65 795.9 1393 836.85 1399 879.4 1405.2 921.9 1410.45 964.2 1415.75 1006.6 1419.9 1045.5 1423.95 1084.5 1426.35
L 1094.35 1425.95
Q 1106.15 1443.25 1116.1 1461.55 1134.35 1495.15 1146.3 1531.45 1152.65 1550.6 1160.3 1569.4 1166.35 1584.1 1173.1 1598.55 1176.85 1606.6 1180.75 1614.55 1106.1 1613.4 1031.9 1606.6 882.55 1592.85 736.55 1558 684.25 1545.55 631.4 1535.25 628.45 1534.7 625.5 1534.2 614.45 1532.25 603.35 1530.45 587.5 1528 571.85 1526.1 542.2 1522.7 512.55 1519.25 484.75 1516.05 457.3 1510.75 439.1 1507.1 420.9 1502.35 406.5 1498.45 394.85 1492.15 398.6 1467.7 407.2 1444.55 422.3 1403.7 442.15 1364.9 447.35 1354.75 453.7 1345.4
M 391.6 1327
Q 416.4 1331.3 438.7 1336.05 419.75 1366.45 406.05 1399.6 391.6 1434.65 380.25 1471.05 378.05 1462.2 374.8 1453.9 359 1413.55 338.45 1375.25
L 305.3 1306.2
Q 347.75 1319.65 391.6 1327 Z"/>

<path fill="#B2A03D" stroke="none" d="
M 1530.75 1317.15
Q 1535.15 1309.5 1539.3 1301.95 1492.9 1294.7 1452.55 1270.1 1417.15 1248.5 1384.7 1222.15 1372.3 1212.1 1364.75 1198.25
L 1352.8 1248.25
Q 1343.9 1291.75 1349.05 1335.6 1354.2 1379.9 1384.75 1411.9 1405.25 1433.45 1433.9 1426.05 1466 1417.75 1484.95 1389.9 1509.15 1354.3 1530.75 1317.15
M 600.9 890.9
L 560.7 996.6 680.7 1019.65 729.7 920.6 600.9 890.9
M 582.3 1092.15
Q 585.25 1101.55 586.15 1111.1
L 702.35 1137.15 680.7 1040.95 566.65 1018.3
Q 569.25 1036.3 572.7 1054.15 576.4 1073.2 582.3 1092.15
M 802.1 1060.95
L 700.45 1044.65 721.4 1139.85 841.9 1164.55 815.1 1059.7 802.1 1060.95
M 700.3 1023.35
L 801.85 1040.4 813.5 1043.5 865.65 948.7 750.95 925.9 700.3 1023.35
M 971.9 927.7
L 955.05 813.2 888.05 948.35 909.1 1040.55 923.4 1011.85 971.9 927.7
M 878.25 973.1
Q 877.55 970.7 876.8 968.3
L 832.95 1050.85 843.5 1079.45 865.7 1136.7 895.65 1071.55
Q 891.2 1041.15 886.55 1010.45 883.65 991.45 878.25 973.1
M 416.4 1047.5
Q 418.55 1060.65 420.2 1073.85
L 574.45 1109.35 552.95 1017.35 483.95 1003.7 400.2 991.35
Q 411.65 1018.45 416.4 1047.5
M 358.4 963
Q 369.45 965.25 380.45 967.15 385.3 948.1 395.1 930.85 414.7 896.3 432.75 861.2
L 317.05 843.75 276.2 939.45
Q 316.6 954.05 358.4 963
M 381.45 988
L 369.4 985.6 279.15 961.65 300.2 1049.1
Q 354.35 1054.25 406.55 1070.5 402.35 1037.1 388.85 1006.75 387.4 1003.5 386 1000.35 385.3 998.7 384.65 997.1 382.8 992.55 381.45 988
M 404.15 946.35
Q 400.8 953.5 398.55 961 397.2 965.5 396.75 970.15
L 509.25 987.55 548.4 994.35 588.85 888.6 443.75 863
Q 424 903.45 405.15 944.2 404.65 945.25 404.15 946.35
M 593.75 875.85
L 618.85 810.2 656 728.1 524.55 706.1 449.75 850.85 593.75 875.85
M 404.15 679.45
L 374.9 729.65 322.45 832.45 438.95 849.25 514.9 704.45 404.15 679.45
M 591.4 568.95
Q 595.5 559.9 597.7 550.15
L 486.4 525.55 410.2 665.45 524.4 687.15
Q 548.2 644.05 573.95 601.95 583.65 586 591.4 568.95
M 1027.8 733.3
Q 1025.4 714.55 1022.25 695.85 1020.7 686.7 1019.25 677.5
L 965.5 791.6 984.15 904.95 1044.55 785 1041.75 780.5
Q 1031 758.35 1027.8 733.3
M 664.95 710.05
L 721.75 579.85 604.4 551.75
Q 603.35 555.45 602.2 559.15 597.75 573.05 590.85 585.85 562.95 637.6 533.95 688.75
L 664.95 710.05
M 884 620.85
L 834.1 741.95 951.85 774.3 993.3 681.25 991.8 675.7 1002 653.1 884 620.85
M 945.2 788.65
L 826.5 759.95 806.15 807 756.35 913.55 870.9 935.8 945.2 788.65
M 726.25 602.65
L 675.75 711.8 813.15 737.25 872.4 617.85 733.85 582.8 726.25 602.65
M 667 729.95
L 653.25 758.95 605.6 878.25 735.95 908.5 804.8 755.35 667 729.95
M 1400.8 1118.25
Q 1382.1 1146.6 1372.5 1177.45 1384.5 1196.95 1402.85 1210.9 1424.55 1227.5 1447.2 1242.95 1481.9 1266.55 1523.2 1273.8 1536.65 1276.05 1550.35 1276.95 1557.15 1271.8 1560.75 1261.15 1572.45 1226.8 1578.15 1190.85 1582.15 1165.5 1585.55 1139.8 1591.15 1097.05 1565.5 1063.5 1556.65 1051.95 1542.8 1047.3 1500.6 1041.1 1462.1 1061.95 1424.45 1082.4 1400.8 1118.25 Z"/>

<path fill="#324A15" stroke="none" d="
M 1477.65 632.85
Q 1387.95 614.35 1298.8 593.1 1258.4 583.4 1218.1 573.45 1201.25 569.3 1184.45 565 1163.45 559.7 1142.55 554.4 1122.6 549.2 1102.65 544.05 1050.8 530.65 998.9 516.95 911.2 493.8 823.6 470.65 801.3 464.75 779 459.15 735.6 447.85 691.65 439.1 609.55 422.55 525.65 416.2 522.05 415.95 518.7 415.5 516.7 415.35 514.8 415.1 507.75 414.05 501.05 413.25 492.05 411.9 483.1 410.1 474.95 408.45 467 406.2 466.95 406.2 466.95 406.25 444.5 443.95 422.65 481.9 401.5 518.65 381.25 555.75 362.75 589.7 344.9 624.1 326.1 660.3 307.8 697 288.55 735.55 269.9 774.3 253.1 809.25 236.55 844.3 219.15 881.15 202.05 918 184.4 955.9 166.95 993.8 148.95 1032.85 130.85 1071.7 113.35 1109.25 95.7 1146.7 108.3 1148.35 121 1149.4 237.55 1158.85 353.35 1174.7 430.7 1185.3 507.5 1199 521.35 1201.55 535.2 1204.15 557.85 1208.35 580.35 1212.7 604.2 1217.25 627.9 1221.85 682.3 1232.5 736.55 1243.3 777.15 1251.3 817.6 1259.6 844.1 1265 870.3 1270.45 943.05 1285.7 1015.4 1302.55 1083.95 1318.45 1151.95 1336.7
L 1262.75 1111.45
Q 1287.35 1060.6 1311.65 1009.45 1323 985.6 1334.3 961.85 1342.7 944.15 1351 926.5 1359.7 908 1368.3 889.3 1376.95 870.4 1385.45 851.65 1422.35 770.35 1456.1 687.5 1467.25 660.25 1477.65 632.85
M 1018.9 626.85
Q 1031.45 622.3 1033.25 637.4 1034.35 646.35 1037.05 655.1 1051.45 701.95 1060.45 750.15 1078 771.25 1068 797.9 1062.7 811.9 1055.1 825 995.8 926.75 940.8 1031.6 929.25 1053.55 919.15 1076.3 910.45 1096 901.6 1115.7 900.55 1118.15 899.45 1120.6 888.6 1144.85 875.5 1167.9 879.8 1185.25 863.5 1188.35 859.6 1189.05 856.3 1187.5 848.4 1183.85 839.4 1182.65 795.75 1176.95 752.75 1168.05 637.5 1144.25 522.75 1118.85 514.85 1117.05 506.95 1115.2 504.5 1114.65 502.05 1114.1 424.6 1097.2 348.55 1074.95 323.8 1067.8 298.1 1065.75 285.5 1070.75 281.25 1056.8 265.75 1006.25 257.2 953.7 250.1 945.65 255.15 935.05 258.75 927.4 262 919.55 312.85 796.15 381.25 681.4 410.65 632.05 438.1 581.3 452.05 555.45 464.95 529.05 466.45 526 467.9 523 470.7 517.1 473.5 511.2 481.15 498.1 497.3 503.05 539.3 516.15 583.1 521.2 601.95 523.45 620.7 527.55 654.15 535.1 687.35 543.4
L 1007.6 623.1 1018.9 626.85
M 1156 842.5
Q 1163.95 844 1170.55 848.25 1173.9 850.4 1177.8 849.1 1220.1 835.45 1255.75 862 1285.1 883.8 1287.65 920.35 1288.6 934 1286.7 947.7 1280.7 991.1 1267.85 1033.05 1265.1 1042 1257.9 1048.15 1224.5 1076.6 1184.3 1094.05 1145.6 1110.85 1103.5 1110.2 1076.35 1109.75 1054.3 1095.05 1049.8 1092.1 1047.65 1087 1030.9 1047 1018.6 1004.95 1017.9 1002.55 1016.8 1000.3 1007.85 983.8 1011.6 967.35 1021.35 924.5 1052.1 892.25 1081.95 860.85 1122.55 845.7 1139 839.7 1156 842.5
M 249.9 1186.1
Q 207.75 1181.45 165.65 1176.15 135.35 1172.65 105.2 1168.25 133.65 1207.1 158.95 1248.1 164.1 1256.4 169.25 1264.95 174.75 1273.95 180.25 1283.2 186.1 1293.1 191.85 1303.15 197.95 1313.85 204.05 1324.6 217 1347.5 229.95 1370.4 250.35 1406.65 270.8 1443.05 272.85 1446.75 275 1450.45 302.4 1498.4 332.75 1544.1 333.8 1545.7 334.9 1547.3 367.8 1555.7 402.1 1563.45 421.2 1567.6 440.3 1571.65 460.15 1575.8 480.25 1579.75 501.1 1583.9 521.85 1587.85 540.7 1591.25 559.65 1594.75 586.35 1599.5 613.15 1604.05 654.1 1611.05 695.15 1617.6 699 1618.25 702.9 1618.9 765.7 1629.05 828.8 1639 858.95 1643.8 889.1 1648.5 918.9 1653 948.8 1657.6 985.95 1663.15 1022.95 1668.5 1055.75 1673.15 1088.65 1677.7 1121.95 1682.3 1155.15 1686.75 1194.85 1692.2 1234.5 1698.7 1289.05 1707.45 1342.95 1720.1 1354.05 1722.6 1365.15 1725.3 1332 1679.5 1305.3 1629.6 1297.35 1614.7 1290.25 1599.3 1289.35 1597.35 1288.5 1595.6 1287.45 1593.35 1286.45 1591.05 1285.3 1588.4 1284.05 1585.6 1279.45 1575.25 1275.05 1564.8 1266.7 1545.1 1256.95 1525.95 1255.7 1523.45 1254.4 1521.05 1231.05 1477.55 1204.6 1435.75 1194.8 1420.2 1185.25 1404.7 1174.55 1387.2 1164.5 1369.2
L 1157.5 1370.6
Q 1122.5 1365.3 1088.3 1354.8 1060.7 1346.4 1032.8 1339.2 990.85 1328.5 948.75 1318.4 906.65 1308.25 864.4 1298.6 822.2 1289 779.7 1279.9 737.2 1270.75 694.65 1262.15 653.9 1254.05 613.1 1246.15 605.2 1244.6 597.35 1243.05 547.35 1233.35 497.35 1223.65 455.65 1215.4 413.6 1208.15 372.25 1201.25 330.65 1196 290.35 1190.8 249.9 1186.1
M 310.1 1291.85
Q 313.6 1293.7 317.55 1294.5 430.05 1315.4 542.9 1332 577.6 1337 612.15 1342.35 680.15 1352.8 748.4 1363.2 821.25 1374.4 893.95 1384.8 915.85 1387.9 937.9 1390.65 951.25 1392.35 964.7 1393.85 989.8 1396.7 1014.85 1398.7 1050.2 1401.55 1085.55 1401.9 1097.95 1402 1105.5 1411.55 1121.75 1432.2 1133.15 1455.9 1171.7 1535.75 1205.8 1617.65 1206.55 1618.05 1207.35 1618.5 1209.95 1620.1 1211.85 1622.5 1212.25 1623.05 1212.6 1623.65 1214.55 1627.1 1214.75 1631.15 1214.85 1633.75 1213.6 1636 1213.8 1636.75 1214 1637.6 1214.65 1640.4 1214.3 1643.35 1214.2 1644.1 1214 1644.85 1212.7 1649.9 1207.95 1650.65 1197.45 1651.7 1193.65 1640.8 1188.2 1640.6 1182.75 1640.4 1130.15 1638.15 1077.75 1635 966.3 1629.1 856.75 1608.05 813.15 1599.75 769.7 1590.35 737.95 1583.25 706.05 1576.5 676.35 1570.15 646.4 1564.25 634.3 1561.9 622.1 1559.7 614.9 1558.45 607.55 1557.15 593.55 1554.75 579.65 1552.4 553.75 1548.05 527.8 1543.55 485 1536.15 443.1 1525.85 408.55 1517.35 375.6 1504.45 370.2 1502.35 367.95 1496.55 367.35 1494.9 366.55 1493.35
L 290.15 1300.85
Q 289.2 1300.45 288.35 1300 286.75 1299.2 285.4 1298.15 284.2 1297.35 283.25 1296.3 282.85 1295.8 282.55 1295.25 281.7 1293.7 282.15 1291.9 282.3 1291.4 282.45 1290.9 282.7 1290.45 283.05 1290.25 295.75 1284.3 310.1 1291.85
M 1529.4 686.2
Q 1518.65 667.05 1510.8 646.5 1510 644.45 1509.25 642.45 1472.3 736.5 1430.4 828.5 1414.95 862.5 1399.15 896.2
L 1174.85 1349.75
Q 1178.95 1362.35 1186.6 1374.85 1207.55 1408.95 1228.85 1442.9 1247.3 1472.35 1265 1502.15 1275.35 1519.55 1285 1537.5 1293.2 1552.8 1300.65 1568.4 1317.6 1603.95 1339.35 1636.85 1361 1669.7 1385 1700.65 1396.9 1716.05 1408.8 1731.4
L 1600.3 1354.45
Q 1586.95 1349.6 1575.25 1341.6 1568.85 1337.15 1563.55 1331.7 1561.8 1329.9 1560.15 1328.05 1541.75 1361 1517.95 1390.3 1501.2 1411 1481.05 1428.4 1467.75 1439.95 1451.2 1445.95 1433.3 1452.25 1414.6 1448.2 1386.9 1442.45 1367.5 1422.05 1347.6 1401.15 1339.55 1373.3 1327.8 1332.45 1330.55 1289.85 1333.1 1250.95 1342.3 1213.05 1355.75 1157.75 1386.9 1110.6 1407.35 1079.55 1438.15 1058.75 1472.9 1035.2 1512.95 1022.45 1543.35 1012.85 1569.8 1029.45 1587.6 1040.6 1597.9 1058.9 1621.3 1100.35 1616 1148.6 1612.9 1176.6 1607.15 1204.2 1600.35 1236.55 1588.45 1267.45
L 1637.3 1278.8
Q 1682.15 1186.3 1722.25 1091.55 1734.1 1063.6 1745.3 1035.3
L 1555.6 730.35
Q 1542 708.6 1529.4 686.2 Z"/>

<path fill="#333333" stroke="none" d="
M 1241.55 882.65
Q 1233.55 875.95 1223.2 873.2 1188.4 864.1 1152.9 869.6 1147.15 870.45 1141.25 871.6 1096.45 880.45 1067.15 914.9 1052.05 932.55 1042.65 953.75 1029.35 983.65 1051.6 1007.6 1054.45 1010.6 1057.35 1013.55 1089.75 1045.3 1135.15 1040.35 1178.6 1036.05 1214.05 1010.7 1250.4 984.65 1260.45 941.3 1268.75 905.35 1241.55 882.65
M 1066.85 1080
Q 1068.85 1082.85 1072.2 1083.9 1122.45 1099.05 1172.3 1081.4 1215.35 1066.25 1245.95 1033.5 1248 1031.25 1248.65 1028.25 1250.5 1019.45 1251.5 1010.5 1232.85 1030.75 1208.95 1044.4 1202.95 1047.85 1196.9 1050.85 1158.85 1071.8 1116.05 1067.4 1078.65 1063.2 1048.8 1040.1 1054.1 1062 1066.85 1080 Z"/>

<path fill="#1D2E08" stroke="none" d="
M 438.7 1336.05
Q 416.4 1331.3 391.6 1327 347.75 1319.65 305.3 1306.2
L 338.45 1375.25
Q 359 1413.55 374.8 1453.9 378.05 1462.2 380.25 1471.05 391.6 1434.65 406.05 1399.6 419.75 1366.45 438.7 1336.05
M 457.5 1338.4
Q 456.05 1342.05 453.7 1345.4 447.35 1354.75 442.15 1364.9 422.3 1403.7 407.2 1444.55 398.6 1467.7 394.85 1492.15 406.5 1498.45 420.9 1502.35 439.1 1507.1 457.3 1510.75 484.75 1516.05 512.55 1519.25 542.2 1522.7 571.85 1526.1 587.5 1528 603.35 1530.45 614.45 1532.25 625.5 1534.2 628.45 1534.7 631.4 1535.25 684.25 1545.55 736.55 1558 882.55 1592.85 1031.9 1606.6 1106.1 1613.4 1180.75 1614.55 1176.85 1606.6 1173.1 1598.55 1166.35 1584.1 1160.3 1569.4 1152.65 1550.6 1146.3 1531.45 1134.35 1495.15 1116.1 1461.55 1106.15 1443.25 1094.35 1425.95
L 1084.5 1426.35
Q 1045.5 1423.95 1006.6 1419.9 964.2 1415.75 921.9 1410.45 879.4 1405.2 836.85 1399 795.9 1393 755.25 1386.65 715.65 1380.45 675.9 1374 657.9 1371.1 640.05 1368.15 548.75 1353.25 457.5 1338.4 Z"/>

<path fill="#0C0C0C" stroke="none" d="
M 1582.8 1299.1
L 1618.2 1318.2 1626.05 1302.1
Q 1607.7 1301.5 1590.2 1297 1583.95 1295.25 1578.05 1292.6
L 1576.25 1296.5 1582.8 1299.1
M 1941.65 939.05
Q 1942.25 925.85 1936.75 914.2 1936.3 913.2 1935.7 912.35 1923.25 893.8 1907.45 908.2 1902.15 913.1 1899.75 919.85 1865.35 1016.6 1847.95 1118.3 1833.1 1205.25 1814.35 1291.7 1812.75 1299 1809.4 1305.5 1806.2 1311.85 1799.75 1314.6 1790.15 1318.75 1779.65 1317.35 1717.4 1308.25 1654.65 1303.9
L 1642.3 1329.05 1690.35 1345.85
Q 1732.05 1357.85 1775 1363.7 1793.3 1366.35 1811.35 1363.75 1824.2 1361.7 1829 1349.35 1830.9 1344.4 1832.35 1339.25
L 1914.3 1065.25
Q 1918.7 1051.1 1923.4 1036.95 1939.3 989 1941.65 939.05 Z"/>
</g>

<g id="Layer1_0_FILL">
<path fill="#000000" fill-opacity="0.2" stroke="none" d="
M 1547.6 678.2
Q 1544.3 671.5 1540.6 667.05 1536.1 661.7 1530.25 658.8 1527.6982421875 657.5341796875 1525.15 656.9 1524.56953125 653.6025390625 1522.65 650.8 1520 646.9 1515.95 645.95 1509.85 644.55 1504.25 650.25 1500 654.6 1496.5 662.5 1444.85 780.35 1443.4 783.65 1412.75 852.8 1388.55 904 1324.9 1038.45 1263.8 1136.7 1256.15 1149.05 1240.7 1173.65 1227.65 1195 1219.2 1211.45 1209.6 1230.15 1192.65 1270.65 1176.15 1310.05 1165.8 1329.7 1160.3 1340.25 1158.55 1345.2 1155.35 1354.2 1156.65 1361.5 1157.243359375 1364.7880859375 1158.8 1368.15 1151.1734375 1359.969921875 1143.2 1351.6 1131.85 1339.65 1122.2 1334.35 1109 1327.15 1097.9 1331.35 1096.890234375 1331.7279296875 1095.9 1332.2 1070.2306640625 1322.8267578125 1053.6 1317.65 1023.2 1308.25 997.65 1304.2 985.05 1302.2 946.8 1298.7 914.9 1295.85 896.25 1291.55 884.15 1288.75 863.85 1282.2 840.5 1274.6 831.55 1272.2 813.65 1267.45 786.2 1263.05 740.9 1255.85 740.4 1255.75 720.95 1252.25 682.4 1243.15 643.85 1234.05 624.4 1230.5 602.45 1226.55 559.45 1221.35 515.55 1216.05 494.45 1212.35 477.2 1209.3 447.7 1202.7 414.1 1195.2 401.1 1192.65 361.25 1184.9 296.85 1177.95 212.5 1168.85 192.1 1166 172.05 1163.2 161.45 1163.7 145.3287109375 1164.4564453125 134.9 1171.75 130.22109375 1169.15703125 125.4 1167.6 116.95 1164.8 112.45 1168.2 109 1170.75 108.9 1175.75 108.8 1180.35 111.45 1184.3 113.55 1187.4 117.65 1190.55 118.8451171875 1191.4908203125 120.7 1192.85 120.424609375 1193.953125 120.2 1195.1 117.4 1209.4 124.25 1221.05 129.95 1230.65 141.55 1237.2 148.3533203125 1241.061328125 157.45 1243.95 158.1544921875 1245.40546875 158.85 1246.9 197.2 1329.35 246.4 1405.25 253.4 1416.05 267.5 1437.55 279.45 1456.25 287.15 1470.7 289.35 1474.85 303.6 1504.1 313.5 1524.45 321.5 1536.7 326.1 1543.75 330.25 1548.25 335.55 1554 341.4 1557.05 348.05 1560.55 355.4 1560.2 361.92421875 1559.9072265625 366.55 1556.55 369.952734375 1558.7369140625 374.55 1560.35 378.05 1561.55 385 1563.2 431.35 1573.95 453.8 1578.5 492.3 1586.3 523.35 1589.8 533.523828125 1590.9525390625 560.45 1593.15 560.6818359375 1593.57734375 560.95 1594 563.5 1598 568.25 1601.45 571.55 1603.9 577.3 1606.9 625.8 1632.35 695.35 1643.05 722.05 1647.15 757.7 1650.05 768.15 1650.9 820.35 1654.35 905.3517578125 1659.919921875 990.05 1669.6 1012.3017578125 1673.344921875 1029.15 1675.85 1076.902734375 1682.947265625 1119.5 1686.9 1147.8515625 1691.2603515625 1176.15 1696.05 1180.91171875 1696.85546875 1185.35 1697.6 1186.7828125 1700.8205078125 1189.3 1703.8 1193.85 1709.15 1200.55 1712.35 1206.2 1715.1 1213.95 1716.6 1218.65 1717.55 1227.95 1718.6
L 1347.55 1732.2
Q 1356.5 1733.25 1361.25 1733.3 1366.935546875 1733.337109375 1371.6 1732.3 1377.1439453125 1737.7412109375 1383.45 1739.45 1393.65 1742.15 1404.05 1735.4 1413.45 1729.35 1419.1 1718.65 1422.6 1712.05 1427.2 1697.9 1431.85 1683.7 1435.3 1677.15 1438.35 1671.3 1443.75 1664.15 1450.15 1656 1453.35 1651.9 1471.4 1628.8 1487.45 1598.95 1500.25 1575.05 1514.4 1541.65 1516.15 1537.5 1538.45 1482.55 1552.9 1446.8 1563.8 1424.1 1569.55 1412.15 1574.25 1404.1 1580.45 1393.5 1587.05 1385.6 1594.25 1377 1594.75 1376.35 1598.75 1370.85 1599.85 1365.8 1602.4 1353.9 1591 1339.45 1588.6068359375 1336.3896484375 1586.15 1333.85 1587.7734375 1329.686328125 1589.3 1325.65 1589.737109375 1325.4251953125 1590.15 1325.15 1594.7 1322.1 1598.5 1316.4 1601 1312.7 1604.45 1305.55 1608.8279296875 1296.4634765625 1612.8 1287.65 1622.9109375 1287.366796875 1628.55 1286.35 1638.05 1284.55 1644.15 1279.85 1648.1 1276.8 1651.6 1271.7 1653.9 1268.35 1657.25 1262.05 1686.75 1207.55 1708.75 1160.15 1734.2 1105.45 1752.35 1054.75 1755.7 1045.35 1757.05 1039.85 1759.1 1031.45 1758.8 1024.45 1758.35 1013.55 1752 1001.45 1747.95 993.65 1738.5 980.8 1704.05 934.5 1686.85 911.25 1656.55 870.2 1636.55 840.7 1581.25 759.35 1552.85 690.35 1549.2 681.5 1547.6 678.2
M 1352.45 1169.4
Q 1356.25 1155.9 1359.95 1146.4 1364.7 1134.25 1370.65 1124.9 1382.1 1106.85 1403.1 1091.25 1417.9 1080.3 1443.75 1066.45 1467.05 1053.95 1482.75 1047.85 1504.85 1039.2 1524.25 1037.5 1525.320703125 1037.4048828125 1526.35 1037.3 1536.8021484375 1053.07421875 1540.75 1075.2 1544.3 1095.05 1542.85 1122.55 1539.75 1180.4 1522.45 1235.3 1514.9 1259.3 1505.95 1278.05 1495.4 1300.05 1482 1316.85 1464.05 1339.35 1439.25 1354.9 1414.45 1370.45 1386.4 1376.8 1376.25 1379.1 1368.5 1379.15 1367.315625 1379.15 1366.15 1379.1 1342.486328125 1336.703125 1339.25 1281.55 1336.15 1227.9 1352.45 1169.4
M 1573.45 1033.35
Q 1575.823828125 1034.8888671875 1578.05 1036.6 1574.8791015625 1037.1583984375 1571.95 1039.15 1570.5380859375 1034.708984375 1568.8 1030.55 1571.3232421875 1031.960546875 1573.45 1033.35
M 1611.75 1106.25
Q 1612.88671875 1123.0814453125 1609.85 1142.85 1609.6583984375 1128.483203125 1608.1 1112.4 1606.305078125 1094.4013671875 1601.85 1067.15 1610.244140625 1085.0748046875 1611.75 1106.25
M 1535.85 1355.75
Q 1532.463671875 1362.937890625 1530.25 1367.2 1524.7 1377.95 1519.2 1385.9 1503.1 1409 1477.55 1423.65 1475.604296875 1424.76796875 1473.65 1425.8 1474.2703125 1425.31171875 1474.9 1424.8 1497.4 1406.6 1516.9 1381.6 1526.68046875 1369.066015625 1536.05 1354.35 1535.976171875 1355.034765625 1535.85 1355.75
M 303.95 1313.45
Q 299.2166015625 1300.478515625 296.95 1292.9 297.573828125 1292.995703125 298.2 1293.1
L 501.8 1326.9
Q 607.4 1344.45 667.75 1355.2 759.25 1371.5 833.1 1386.95 908.25 1402.75 930.05 1406.55 985 1416.15 1028.05 1417.25 1031.25 1417.35 1058.75 1417.55 1077.35 1417.7 1089.45 1418.65 1098.45 1419.4 1101.1 1419.5 1103.84140625 1419.5626953125 1106.3 1419.4 1117.5876953125 1438.4384765625 1134.15 1465.45 1157.75 1505.6 1169.05 1535.75 1171.65 1542.65 1177.55 1560.3 1182.8 1576.1 1186.3 1584.85 1197.45 1612.7 1212.85 1627.9 1187.9 1630.85 1157.15 1629.6 1136.05 1628.7 1101.45 1625 995.5 1613.6 862.35 1591.55 790.65 1579.65 624.55 1549.3 601.2 1545.05 589.5 1543.1 570 1539.85 554.35 1537.95 540.15 1536.2 512.85 1533.8 484.45 1531.35 471.3 1529.8 422.95 1524.1 390.9 1511.45 388.7685546875 1510.609375 386.95 1509.95 384.734765625 1505.2748046875 380.85 1498.55 363.2 1468 346.35 1427.15 336.25 1402.7 318.15 1352.8
L 303.95 1313.45
M 1018.35 689.1
Q 1011.2 687.7 1004.3 692.7 997.95 697.3 994.75 704.9 992.4 710.5 990.9 719.7 988.65 733.25 988.25 734.9 985.45 746.95 977.8 760.65 973.65 768.05 962.7 784.4 929.25 834.55 893.1 900.8 871.55 940.3 830.4 1021.2 825.95 1029.95 824.2 1034.85 821.35 1042.65 821.45 1049.3 821.4865234375 1051.588671875 821.85 1054.05 819.2681640625 1054.0083984375 816.4 1054 781.45 1053.9 730.15 1043.8 673.2 1031.4 644.5 1026.8 628.3 1024.2 603.05 1021.25 567.05 1017.05 561.45 1016.3 512.8 1010 437.75 994.35 333.55 972.7 314.45 969.2 307.4517578125 967.926171875 302.05 968.1
L 301.8 966.4
Q 300.9 960.65 299.4 957.4 297.3 952.7 293.5 951.2 289.4 949.6 285.05 952.25 280.95 954.7 279.2 959.15 277.75 962.9 277.85 967.95 277.9 971.1 278.8 977.05
L 286.65 1028
Q 287.85 1035.65 289.1 1039.7 291.1 1046 294.75 1049.8 301.4 1056.75 316.1 1057.4 320.2 1057.6 328.65 1057.6 336.2 1057.75 340.95 1058.7 345.6 1059.65 352.15 1062.35 355.8 1063.85 363.05 1066.9 373.35 1070.8 388.45 1072.8 397.1 1073.95 414.55 1075.7 435.65 1078.3 462.7 1085.15 469.45 1086.85 510.1 1098.2 576.25 1116.55 660.3 1133.85 710.85 1144.25 812 1162.7 820.2 1164.15 824.25 1164.6 831.15 1165.25 836.55 1164.5 843.05 1163.6 848.25 1160.45 853.95 1157 856.65 1151.75 859.5927734375 1145.966015625 858.45 1139.4 862.5328125 1140.3248046875 867.05 1138.75 872.1 1136.95 875.95 1132.85 879.2 1129.45 881.95 1124.15 883.5 1121.2 886.35 1114.4 901.15 1079.2 923.8 1038.8 939.6 1010.55 967.25 966.25 1002.85 909.15 1011.8 894.2 1036.35 853.15 1052.55 820.1 1057.25 810.6 1059.15 804.5 1062 795.6 1061.4 788.05 1060.85 781.55 1057.4 773.5 1052.9 764.25 1050.65 759.65 1042 741.8 1038.15 722.35 1036.95 715.55 1036.2 712.2 1034.95 706.4 1033.1 702.4 1030.85 697.35 1027.2 693.9 1023.15 690.05 1018.35 689.1
M 838.25 1115.75
Q 840.3177734375 1114.9232421875 842.2 1114 842.7146484375 1116.2564453125 843.2 1118.25 843.1302734375 1118.19609375 843.05 1118.15 840.8244140625 1116.8505859375 838.25 1115.75
M 1062.15 1038.55
Q 1058.65 1037.6 1055.1 1038.7 1051.45 1039.8 1049.35 1042.6 1046.5 1046.3 1046.95 1052.1 1047.3 1056.4 1049.55 1062.35 1051.95 1068.8 1054.2 1072.9 1057.3 1078.4 1061.25 1081.75 1066.25 1085.95 1074 1088 1079.55 1089.45 1088.35 1090.1 1106.9 1091.55 1126.35 1090.8 1134.85 1090.4 1141 1089.65 1148.85 1088.7 1155.35 1086.9 1161.3 1085.25 1169 1082 1173.5 1080.15 1182.3 1076.2 1188.25 1073.65 1200.35 1068.65 1211.2 1064.1 1218.15 1060.6 1238.05 1050.6 1248.9 1038 1258.9 1026.35 1257.45 1015.9 1256.8 1011.1 1253.65 1007.1 1250.55 1003.1 1246 1001.15 1241.6 999.25 1236.5 999.65 1231.55 1000 1227.3 1002.45 1224.6 1004.05 1221.5 1006.95 1218.05 1010.5 1216.3 1012.2 1198.1 1030.2 1168.05 1038.2 1155.8 1041.5 1140.8 1043.25 1129.5 1044.6 1113.15 1045.4 1105.85 1045.8 1102.2 1046.6 1096.25 1047.85 1092.6 1051 1091.6 1051.9 1089.75 1053.9 1087.95 1055.9 1086.9 1056.75 1083 1060.05 1079.5 1059.05 1076.7 1058.25 1074.9 1054.6 1073.2 1050 1072.3 1047.85 1070.9 1044.45 1068.25 1042 1065.55 1039.45 1062.15 1038.55 Z"/>
</g>
</defs>

<g transform="matrix( 1, 0, 0, 1, 0,0) ">
<use xlink:href="#Layer2_0_FILL"/>
</g>

<g transform="matrix( 1, 0, 0, 1, 0,0) ">
<use xlink:href="#Layer1_0_FILL"/>
</g>
</svg>
