
<svg xmlns="http://www.w3.org/2000/svg" version="1.1" xmlns:xlink="http://www.w3.org/1999/xlink" preserveAspectRatio="none" x="0px" y="0px" width="2000px" height="2000px" viewBox="0 0 2000 2000">
<defs>
<g id="Layer2_0_FILL">
<path fill="#000000" stroke="none" d="
M 1457.4 578.25
Q 1426 552.9 1393.2 529.2 1358.2 503.85 1320.9 482.25 1285.9 462.05 1248.9 446.35 1212.7 430.85 1174.55 421.2 1150.5 415.05 1126.6 421.35 1107.35 426.3 1087.5 425.9 1050.2 425.2 1012.9 423.4 972.6 422.65 932.4 425.7 894.6 428.8 857.45 436.1 819.3 443.4 782.85 456.35 744.1 470.15 708.25 490.25 672.8 510.2 638.65 532.2 608.9 551.4 580.35 572.3 545.65 597.85 513.1 626.1 483.65 651.65 456.35 679.5 428.4 707.95 403.1 739 378.65 768.9 357.9 801.75 349.8 814.55 339.5 824.9 337.15 827.3 335.65 830.35 317 867.6 299.15 905.9 282.2 942.25 271.55 980.85 260.1 1022.35 258.95 1065.4 257.85 1108.2 269.1 1149.5 280.5 1191.3 297.95 1230.95 313.85 1267 334.85 1300.35 356.9 1335.4 385.2 1365.55 391.6 1372.35 397.35 1379.7 411.75 1398.1 431.1 1411.05 451.6 1424.95 471.8 1439.95 504.8 1464.55 540.55 1485.2 574.4 1504.8 609.55 1522.35 643.8 1539.45 678.85 1554.65 714.8 1570.3 751.25 1584.2 790.8 1599.35 830.8 1612.85 868.7 1625.75 907.1 1637.6 947.05 1650.05 987.35 1661.15 1028.3 1672.55 1069.85 1681.55 1110.8 1690.5 1152.45 1695.3 1194.7 1700.05 1237.25 1699.4 1280.35 1698.75 1322.7 1690.65 1363.15 1682.7 1401.85 1668.25 1440.35 1653.9 1476.5 1634.25 1512.05 1615 1544.6 1590.9 1579.75 1564.85 1605.45 1529.3 1630.95 1493.95 1649.4 1454.4 1666.7 1417.25 1681.15 1379 1696.7 1337.8 1708.6 1295.45 1720.45 1253.2 1728 1209.85 1735.5 1166.7 1737.9 1122.85 1740.3 1079.15 1737.1 1035.55 1733.85 991.75 1724.3 948.75 1715.85 910.85 1702.45 874.6 1687.2 833.3 1665.25 795.3 1644.55 759.5 1618.15 727.85 1591 695.35 1559.9 666.45 1529.5 638.2 1497.7 611.5 1477.6 594.55 1457.4 578.25
M 529.5 1369.25
Q 507.75 1350.45 490.4 1327.6 478.75 1312.2 469.95 1295 457 1269.8 452.1 1241.95 458.7 1237.05 466 1233.35 499.3 1216.1 536.75 1212.9 578.65 1208.75 621.1 1207.55 658.7 1206.25 695.95 1207.6 739.75 1209 783.4 1213.95 826.8 1218.75 869.75 1226.85 912.2 1234.9 954.05 1246.2 991.55 1256.4 1027.7 1269.8 1065.7 1283.7 1101.55 1302.3 1140.3 1322.3 1175 1348.8 1207.3 1373.4 1233.85 1404.05 1237.95 1409 1242 1414 1255.1 1430.15 1265.2 1448.45 1276.7 1469.2 1281.9 1492.45 1287 1515.45 1284.9 1538.95 1282.7 1563.75 1273.05 1586.8 1237.8 1598.95 1200.45 1598.3 1175.6 1597.85 1150.85 1595.8 1096.8 1591.5 1043.8 1580.5 971.05 1565.5 900.55 1541.65 822 1515.05 745.7 1482.9 725.7 1474.5 705.65 1465.95 694.35 1461 682.95 1456.1 667.85 1449.7 652.85 1442.9 638.85 1436.6 625.1 1430 599.55 1417.6 575.2 1402.55 551 1387.75 529.5 1369.25
M 424.65 1281.05
Q 430.1 1263.5 442.75 1250.35 445.95 1266.15 452 1281.15 478.4 1346.85 534.6 1390.65 583.6 1428.7 639.9 1454.85 725.4 1494.5 812.65 1529.5 860.8 1548.7 909.7 1565 950.45 1578.55 992.05 1589.2 1013.25 1594.6 1034.6 1599.2 1055.35 1603.6 1076.1 1607 1100.25 1611.15 1124.7 1613.75 1148.05 1616.3 1171.75 1617.45 1196.5 1618.75 1221.15 1618.05 1239.4 1617.5 1257.3 1614.3 1256.35 1615.5 1255.3 1616.6 1224.35 1649.65 1178.1 1649.35 1161.6 1649.25 1145.2 1648.95 1101.85 1648.15 1059.85 1638.35 1019.55 1628.85 979.8 1617.35 938.85 1605.5 898.3 1592.8 860.2 1581 822.65 1568.25 788 1556.55 753.7 1543.7 713.95 1528.9 674.85 1512.1 634.7 1494.75 595.5 1475.55 558.45 1457.35 522.8 1436.6 486.15 1415.15 453.2 1388.45 450 1385.8 447.65 1382.55 433.85 1363.5 426.35 1341.25 421.6 1327.15 420.8 1312.2 419.95 1296.25 424.65 1281.05
M 1423.55 1144.35
Q 1392.45 1116.25 1357.75 1093.05 1325.05 1071.2 1291.05 1051.25 1271.5 1039.8 1251.85 1028.75 1214.65 1008 1177.05 988 1139.55 968.05 1101.65 949.2 1053.95 925.3 1004.95 904 971.9 889.6 937.65 878.25 888.15 861.65 836.35 854.55 794.2 849.05 751.6 847.55 710.95 845.85 670.2 845.5 638.95 845.2 607.65 845.05 554.6 844.85 501.65 846.4 467.85 847.55 434.25 851.3 392 856.2 350.35 865.35
L 369.55 833.8
Q 379.85 831.6 390.15 829.45 444.4 818.55 499.65 812.9 551.05 807.65 602.85 806 706.2 802.75 809.65 807.95 888.6 810.95 965.3 828.95 1006.3 838.55 1045.3 854 1071.65 864.5 1097.85 875.45 1122.95 885.8 1147.85 896.45 1153.7 898.9 1159.6 901.45 1163.65 903.15 1167.8 904.9 1171.45 906.55 1175.15 908.25 1219.15 927.65 1261.25 950.85 1286.95 965.1 1311.45 981.3 1343.05 1002.2 1373.4 1024.65 1396.4 1041.65 1417.85 1060.65 1441.1 1081.25 1460.15 1105.9 1473.3 1122.85 1485.3 1140.7 1532.55 1210.85 1571.5 1285.85 1587.25 1316.15 1602.3 1346.75 1613.05 1368.55 1623.55 1390.55
L 1616.3 1407.85
Q 1598.9 1378.8 1580.2 1350.45 1557.55 1316 1534 1282 1507.35 1243.55 1479.5 1206 1454.55 1172.35 1423.55 1144.35
M 1480.55 663.25
Q 1509.65 688.25 1537.4 714.75 1568.45 744.5 1594.1 778.8 1619.95 813.3 1638.55 852.3 1655.35 887.6 1666.4 924.9 1678.7 966.55 1684.4 1009.65 1689.5 1048.2 1689.35 1087.15 1689.45 1103.6 1688.55 1119.9 1686.45 1157.7 1680.3 1195.15 1671.6 1247.75 1656.2 1298.9 1646.75 1330.35 1635.05 1361.15 1621.6 1334.3 1607.95 1307.6 1598.7 1289.5 1589.2 1271.5 1578.65 1251.5 1567.55 1231.65 1554.35 1208.05 1540.55 1184.8 1516.6 1144.5 1489.2 1106.2 1456.3 1060.35 1412.9 1024.65 1350.4 973.3 1280.45 932.85 1236.75 907.6 1190.7 886.85 1175.5 880 1160.05 873.45 1153.1 870.45 1145.9 867.5 1133.55 862.35 1121.2 857.25 1097.7 847.55 1074.2 838.1 1039.25 824 1003.25 812.9 953.5 797.4 901.8 790.85 849.4 784.1 796.55 780.95 741.85 777.7 687.25 778.45 658.75 778.85 630.15 779.85 584.45 781.45 538.8 783.55 524.15 784.25 509.6 785.2 489.25 786.55 468.95 789.3 444.2 792.65 419.85 799 403.1 803.2 386.55 808.25 394.65 796.95 402.9 785.75 427.75 752 455.75 720.8 481.45 692.2 509.6 665.95 537.7 639.7 567.95 616.25 602.2 589.6 638.25 565.5 674.2 541.4 711 518.6 747.95 495.75 789.1 481.35 828.5 467.75 869.5 460.8 908.1 454.1 947.35 451.65 986.4 449.25 1025.25 450.95 1069.1 452.8 1112.65 460 1155.9 467.15 1198.05 478.95 1239.15 490.5 1276.2 511.75 1312.05 532.4 1345.4 557.1 1380.05 582.65 1414.15 609.1 1448 635.3 1480.55 663.25
M 1324.5 1089.25
Q 1363.9 1112.35 1399 1141.15 1443.75 1177.8 1477.35 1224.65 1492.4 1245.65 1506.95 1267.1 1524.75 1293.25 1542.4 1319.4 1577.4 1371.4 1608.5 1425.6 1594.9 1456.6 1577.9 1486 1556.7 1522.6 1525.3 1551.1 1523.65 1552.55 1521.95 1553.95 1498.55 1573.35 1472.05 1588.2 1420.6 1617.05 1364.85 1635.7 1305.15 1655.6 1242.1 1657.6 1272.35 1641.9 1289.35 1612.25 1292.45 1606.85 1296.85 1603 1304.55 1596.15 1301.75 1586.9 1307.1 1573.35 1309.95 1558.85 1314.65 1535.15 1313.35 1511 1312.15 1489.15 1306.7 1467.6 1292.4 1410.85 1254.65 1365.85 1216.2 1320.05 1165.8 1287.95 1125.2 1262.1 1080.85 1243.55 988.55 1204.95 890.1 1186.75 733.65 1157.75 574.5 1166.6 531.4 1169.05 489.8 1180.05 448.1 1191.25 417.95 1221.75 378.95 1261.2 383.9 1317.15 354.45 1278.95 333 1235.6 310 1189.05 297.05 1138.95 284.7 1091.25 289.75 1042.4 298.6 957.3 340.8 882.55 368.7 878.55 396.55 873.15 402.4 872.15 408.4 871.05 415.3 869.7 422.1 868.7 443.3 865.15 464.65 863.3 525.4 859 586.1 859.25 668.8 859.6 751.55 863.45 785.5 865 819.2 868.8 849.5 872.2 879.3 878.45 909.45 884.7 938.85 895.05 960.35 902.7 981.45 911.5 1040.85 936.15 1098.35 964.95 1184.85 1008.2 1268.65 1056.7 1296.6 1072.85 1324.5 1089.25
M 1412.25 1246.65
Q 1414.3 1246.75 1415.7 1247.9 1423.35 1254.1 1438.6 1255.65 1434.3 1252.85 1434.7 1250.05 1435.5 1244.8 1432.2 1241 1420.35 1227.6 1401.75 1231.65 1391.65 1233.85 1386.7 1243.3 1379.5 1256.95 1382.1 1272.9 1389.25 1317.1 1431.6 1331.2 1440.5 1334.15 1449.25 1330.8 1474.15 1321.25 1470.1 1294.2 1467.55 1277.35 1456.85 1264.1 1448.95 1254.45 1438.6 1255.65 1438.35 1256.45 1438.4 1257.2 1439.3 1266.85 1445.6 1275.5 1456 1289.95 1453.05 1306.2 1452.75 1308.45 1452.15 1310.7 1451.55 1312.9 1449.7 1313.65 1429.5 1321.65 1413.3 1304.55 1395.65 1286 1396.2 1260.05 1396.5 1244.9 1412.25 1246.65
M 841.6 968.65
Q 839.6 965.5 836.7 963.35 819.4 950.6 797.5 947.25 793.65 945 789.45 944.55 768.25 943.85 750.4 955.8 737.6 964.4 737.8 978.8 738 991.75 746.9 1000.95 778.1 1033.3 823.25 1022.95 832.85 1020.65 839.05 1013.2 856.75 992 841.6 968.65
M 772.1 961.95
Q 780.7 959.4 789.25 960.2 796.75 960.9 803.9 962.75 825.35 967.85 833.85 986.55 836.1 991.45 833.5 996.15 822.35 1016.5 797.8 1011.65 794.1 1011.2 790.4 1010.75 767.55 1008.75 754.1 990.85 745.65 979.6 756.05 970.65 763.05 964.55 772.1 961.95
M 1116.75 1047.85
Q 1116.8 1047.45 1116.75 1047.15 1113.8 1034.05 1098.85 1036.05 1080.7 1034.25 1063.85 1040.5 1044.6 1047.75 1048.65 1067.6 1056.1 1103.95 1088.95 1119.85 1115.45 1132.6 1140.4 1118.8 1159.65 1108.1 1152.65 1086.55 1143.25 1057.5 1116.75 1047.85
M 1063.65 1068.55
Q 1060.7 1056.4 1072.55 1053.3 1091.25 1048.25 1109.4 1051.95
L 1122.15 1066.6
Q 1138.15 1077.85 1139.45 1096.45 1139.8 1101.15 1136 1103.65 1117 1116.55 1094.8 1106.35 1070.1 1094.95 1063.65 1068.55
M 505.45 978.45
Q 511.1 972.55 514 964.75 520.65 946.9 504.55 933.6 493.25 924.25 478.7 920.65 445.7 912.75 418.05 931.25 412.25 935.05 410.85 941.85 405.6 967.25 424.45 985.9 432.05 993.45 442.5 995.8 478.65 1003.7 505.45 978.45
M 490.8 952.4
Q 496.75 958.9 489.45 964.95 464 986.1 437.8 969 431.6 962.5 427.45 954.55 425.65 951.05 426.85 947.45 431.5 933.75 446.8 932.7 461.3 943 479.4 946.2 486.25 947.4 490.8 952.4
M 564.6 683.25
Q 557.3 677.15 547.15 680 536.15 683.2 525.25 686.6 507.45 692 497.95 707.25 496.15 710.15 496.7 713.6 500.9 739.4 527.1 747.2 541.45 751.4 556.3 749.85 577.85 747.2 592.85 732.05 607.5 717.25 594.55 702.5 584.3 691.1 569.55 685.9 566.85 685.05 564.6 683.25
M 556.5 702.1
Q 558.85 703.3 561.4 703.9 575.3 706.5 581.45 717.2 581.1 719.7 579.15 721.1 559.1 735.95 533.5 731.35 517.6 728.6 514.25 714.35
L 536.45 701.9
Q 546.65 696.8 556.5 702.1
M 1212.4 780.45
Q 1200.4 777.5 1188.05 778.7 1176.3 779.25 1166.05 785.05 1150.9 793.6 1156.85 811.15 1158.3 815.4 1161.05 818.9 1190.1 855.25 1237.05 856.1 1254.3 856.4 1267.5 845.9 1270.7 843.35 1271.45 839.4 1276.9 810.45 1250.1 795.85 1246.95 794.2 1244 792.2 1229.4 782.2 1212.4 780.45
M 1249.5 821.35
Q 1257.7 829.05 1254.3 836.55 1224.45 846.1 1196.1 831.65 1178.4 822.75 1171.05 805.3 1169.85 802.5 1171.9 800.6 1180.85 792.3 1194 793.25 1200.45 792.65 1205.55 796.45 1211.7 801.15 1219 803.45 1236.35 809.05 1249.5 821.35
M 812.5 733.85
Q 833.9 759.25 868.15 759.8 889.3 760.1 907.25 749.15 924.95 738.4 915.75 720.6 908.3 712.4 900.95 704.25 898 700.95 893.8 699.4 861.6 687.4 828.75 698.2 807.3 705.2 809.55 726.8 810 730.85 812.5 733.85
M 874 713.85
Q 876.85 715.8 880.15 716.85 894.4 721 900.25 732.35 897.1 738 889.95 739.9 855.25 749.15 827.65 728.4
L 825.2 720.3
Q 830.8 713.4 839.75 711.6 847.2 710.1 854.8 709.5 865.65 708.15 874 713.85
M 1480.85 968.5
Q 1474.45 968.3 1468.5 970.05 1450.85 975.1 1452.65 994.85 1456.9 1042.35 1498.65 1064.45 1517.05 1074.15 1533.3 1062.15 1542.2 1055.55 1544.2 1044.8 1548.85 1019.85 1529.4 1002.05 1527.25 1000.1 1526.05 997.6 1519.55 983.85 1506 977 1494.3 969.9 1480.85 968.5
M 1500.65 993.1
Q 1501.95 994.05 1502.6 995.55 1507.7 1007.65 1517.15 1017.25 1519.55 1020.65 1521.65 1024.35 1526.85 1033.4 1523.8 1042.6 1522.4 1046.9 1517.85 1047.3 1505.3 1049 1495.2 1040.2 1472.9 1020.8 1469.6 991.75 1469.3 989.25 1471.4 988.45 1486.2 983.2 1500.65 993.1 Z"/>

<path fill="#778A9A" stroke="none" d="
M 1399 1141.15
Q 1363.9 1112.35 1324.5 1089.25 1296.6 1072.85 1268.65 1056.7 1184.85 1008.2 1098.35 964.95 1040.85 936.15 981.45 911.5 960.35 902.7 938.85 895.05 909.45 884.7 879.3 878.45 849.5 872.2 819.2 868.8 785.5 865 751.55 863.45 668.8 859.6 586.1 859.25 525.4 859 464.65 863.3 443.3 865.15 422.1 868.7 415.3 869.7 408.4 871.05 402.4 872.15 396.55 873.15 368.7 878.55 340.8 882.55 298.6 957.3 289.75 1042.4 284.7 1091.25 297.05 1138.95 310 1189.05 333 1235.6 354.45 1278.95 383.9 1317.15 378.95 1261.2 417.95 1221.75 448.1 1191.25 489.8 1180.05 531.4 1169.05 574.5 1166.6 733.65 1157.75 890.1 1186.75 988.55 1204.95 1080.85 1243.55 1125.2 1262.1 1165.8 1287.95 1216.2 1320.05 1254.65 1365.85 1292.4 1410.85 1306.7 1467.6 1312.15 1489.15 1313.35 1511 1314.65 1535.15 1309.95 1558.85 1307.1 1573.35 1301.75 1586.9 1304.55 1596.15 1296.85 1603 1292.45 1606.85 1289.35 1612.25 1272.35 1641.9 1242.1 1657.6 1305.15 1655.6 1364.85 1635.7 1420.6 1617.05 1472.05 1588.2 1498.55 1573.35 1521.95 1553.95 1523.65 1552.55 1525.3 1551.1 1556.7 1522.6 1577.9 1486 1594.9 1456.6 1608.5 1425.6 1577.4 1371.4 1542.4 1319.4 1524.75 1293.25 1506.95 1267.1 1492.4 1245.65 1477.35 1224.65 1443.75 1177.8 1399 1141.15
M 514 964.75
Q 511.1 972.55 505.45 978.45 478.65 1003.7 442.5 995.8 432.05 993.45 424.45 985.9 405.6 967.25 410.85 941.85 412.25 935.05 418.05 931.25 445.7 912.75 478.7 920.65 493.25 924.25 504.55 933.6 520.65 946.9 514 964.75
M 1116.75 1047.15
Q 1116.8 1047.45 1116.75 1047.85 1143.25 1057.5 1152.65 1086.55 1159.65 1108.1 1140.4 1118.8 1115.45 1132.6 1088.95 1119.85 1056.1 1103.95 1048.65 1067.6 1044.6 1047.75 1063.85 1040.5 1080.7 1034.25 1098.85 1036.05 1113.8 1034.05 1116.75 1047.15
M 836.7 963.35
Q 839.6 965.5 841.6 968.65 856.75 992 839.05 1013.2 832.85 1020.65 823.25 1022.95 778.1 1033.3 746.9 1000.95 738 991.75 737.8 978.8 737.6 964.4 750.4 955.8 768.25 943.85 789.45 944.55 793.65 945 797.5 947.25 819.4 950.6 836.7 963.35
M 1382.1 1272.9
Q 1379.5 1256.95 1386.7 1243.3 1391.65 1233.85 1401.75 1231.65 1420.35 1227.6 1432.2 1241 1435.5 1244.8 1434.7 1250.05 1434.3 1252.85 1438.6 1255.65 1448.95 1254.45 1456.85 1264.1 1467.55 1277.35 1470.1 1294.2 1474.15 1321.25 1449.25 1330.8 1440.5 1334.15 1431.6 1331.2 1389.25 1317.1 1382.1 1272.9
M 1537.4 714.75
Q 1509.65 688.25 1480.55 663.25 1448 635.3 1414.15 609.1 1380.05 582.65 1345.4 557.1 1312.05 532.4 1276.2 511.75 1239.15 490.5 1198.05 478.95 1155.9 467.15 1112.65 460 1069.1 452.8 1025.25 450.95 986.4 449.25 947.35 451.65 908.1 454.1 869.5 460.8 828.5 467.75 789.1 481.35 747.95 495.75 711 518.6 674.2 541.4 638.25 565.5 602.2 589.6 567.95 616.25 537.7 639.7 509.6 665.95 481.45 692.2 455.75 720.8 427.75 752 402.9 785.75 394.65 796.95 386.55 808.25 403.1 803.2 419.85 799 444.2 792.65 468.95 789.3 489.25 786.55 509.6 785.2 524.15 784.25 538.8 783.55 584.45 781.45 630.15 779.85 658.75 778.85 687.25 778.45 741.85 777.7 796.55 780.95 849.4 784.1 901.8 790.85 953.5 797.4 1003.25 812.9 1039.25 824 1074.2 838.1 1097.7 847.55 1121.2 857.25 1133.55 862.35 1145.9 867.5 1153.1 870.45 1160.05 873.45 1175.5 880 1190.7 886.85 1236.75 907.6 1280.45 932.85 1350.4 973.3 1412.9 1024.65 1456.3 1060.35 1489.2 1106.2 1516.6 1144.5 1540.55 1184.8 1554.35 1208.05 1567.55 1231.65 1578.65 1251.5 1589.2 1271.5 1598.7 1289.5 1607.95 1307.6 1621.6 1334.3 1635.05 1361.15 1646.75 1330.35 1656.2 1298.9 1671.6 1247.75 1680.3 1195.15 1686.45 1157.7 1688.55 1119.9 1689.45 1103.6 1689.35 1087.15 1689.5 1048.2 1684.4 1009.65 1678.7 966.55 1666.4 924.9 1655.35 887.6 1638.55 852.3 1619.95 813.3 1594.1 778.8 1568.45 744.5 1537.4 714.75
M 1468.5 970.05
Q 1474.45 968.3 1480.85 968.5 1494.3 969.9 1506 977 1519.55 983.85 1526.05 997.6 1527.25 1000.1 1529.4 1002.05 1548.85 1019.85 1544.2 1044.8 1542.2 1055.55 1533.3 1062.15 1517.05 1074.15 1498.65 1064.45 1456.9 1042.35 1452.65 994.85 1450.85 975.1 1468.5 970.05
M 868.15 759.8
Q 833.9 759.25 812.5 733.85 810 730.85 809.55 726.8 807.3 705.2 828.75 698.2 861.6 687.4 893.8 699.4 898 700.95 900.95 704.25 908.3 712.4 915.75 720.6 924.95 738.4 907.25 749.15 889.3 760.1 868.15 759.8
M 1188.05 778.7
Q 1200.4 777.5 1212.4 780.45 1229.4 782.2 1244 792.2 1246.95 794.2 1250.1 795.85 1276.9 810.45 1271.45 839.4 1270.7 843.35 1267.5 845.9 1254.3 856.4 1237.05 856.1 1190.1 855.25 1161.05 818.9 1158.3 815.4 1156.85 811.15 1150.9 793.6 1166.05 785.05 1176.3 779.25 1188.05 778.7
M 547.15 680
Q 557.3 677.15 564.6 683.25 566.85 685.05 569.55 685.9 584.3 691.1 594.55 702.5 607.5 717.25 592.85 732.05 577.85 747.2 556.3 749.85 541.45 751.4 527.1 747.2 500.9 739.4 496.7 713.6 496.15 710.15 497.95 707.25 507.45 692 525.25 686.6 536.15 683.2 547.15 680
M 442.75 1250.35
Q 430.1 1263.5 424.65 1281.05 419.95 1296.25 420.8 1312.2 421.6 1327.15 426.35 1341.25 433.85 1363.5 447.65 1382.55 450 1385.8 453.2 1388.45 486.15 1415.15 522.8 1436.6 558.45 1457.35 595.5 1475.55 634.7 1494.75 674.85 1512.1 713.95 1528.9 753.7 1543.7 788 1556.55 822.65 1568.25 860.2 1581 898.3 1592.8 938.85 1605.5 979.8 1617.35 1019.55 1628.85 1059.85 1638.35 1101.85 1648.15 1145.2 1648.95 1161.6 1649.25 1178.1 1649.35 1224.35 1649.65 1255.3 1616.6 1256.35 1615.5 1257.3 1614.3 1239.4 1617.5 1221.15 1618.05 1196.5 1618.75 1171.75 1617.45 1148.05 1616.3 1124.7 1613.75 1100.25 1611.15 1076.1 1607 1055.35 1603.6 1034.6 1599.2 1013.25 1594.6 992.05 1589.2 950.45 1578.55 909.7 1565 860.8 1548.7 812.65 1529.5 725.4 1494.5 639.9 1454.85 583.6 1428.7 534.6 1390.65 478.4 1346.85 452 1281.15 445.95 1266.15 442.75 1250.35 Z"/>

<path fill="#2284D6" stroke="none" d="
M 1415.7 1247.9
Q 1414.3 1246.75 1412.25 1246.65 1396.5 1244.9 1396.2 1260.05 1395.65 1286 1413.3 1304.55 1429.5 1321.65 1449.7 1313.65 1451.55 1312.9 1452.15 1310.7 1452.75 1308.45 1453.05 1306.2 1456 1289.95 1445.6 1275.5 1439.3 1266.85 1438.4 1257.2 1438.35 1256.45 1438.6 1255.65 1423.35 1254.1 1415.7 1247.9
M 789.25 960.2
Q 780.7 959.4 772.1 961.95 763.05 964.55 756.05 970.65 745.65 979.6 754.1 990.85 767.55 1008.75 790.4 1010.75 794.1 1011.2 797.8 1011.65 822.35 1016.5 833.5 996.15 836.1 991.45 833.85 986.55 825.35 967.85 803.9 962.75 796.75 960.9 789.25 960.2
M 1072.55 1053.3
Q 1060.7 1056.4 1063.65 1068.55 1070.1 1094.95 1094.8 1106.35 1117 1116.55 1136 1103.65 1139.8 1101.15 1139.45 1096.45 1138.15 1077.85 1122.15 1066.6
L 1109.4 1051.95
Q 1091.25 1048.25 1072.55 1053.3
M 489.45 964.95
Q 496.75 958.9 490.8 952.4 486.25 947.4 479.4 946.2 461.3 943 446.8 932.7 431.5 933.75 426.85 947.45 425.65 951.05 427.45 954.55 431.6 962.5 437.8 969 464 986.1 489.45 964.95
M 561.4 703.9
Q 558.85 703.3 556.5 702.1 546.65 696.8 536.45 701.9
L 514.25 714.35
Q 517.6 728.6 533.5 731.35 559.1 735.95 579.15 721.1 581.1 719.7 581.45 717.2 575.3 706.5 561.4 703.9
M 1254.3 836.55
Q 1257.7 829.05 1249.5 821.35 1236.35 809.05 1219 803.45 1211.7 801.15 1205.55 796.45 1200.45 792.65 1194 793.25 1180.85 792.3 1171.9 800.6 1169.85 802.5 1171.05 805.3 1178.4 822.75 1196.1 831.65 1224.45 846.1 1254.3 836.55
M 880.15 716.85
Q 876.85 715.8 874 713.85 865.65 708.15 854.8 709.5 847.2 710.1 839.75 711.6 830.8 713.4 825.2 720.3
L 827.65 728.4
Q 855.25 749.15 889.95 739.9 897.1 738 900.25 732.35 894.4 721 880.15 716.85
M 1502.6 995.55
Q 1501.95 994.05 1500.65 993.1 1486.2 983.2 1471.4 988.45 1469.3 989.25 1469.6 991.75 1472.9 1020.8 1495.2 1040.2 1505.3 1049 1517.85 1047.3 1522.4 1046.9 1523.8 1042.6 1526.85 1033.4 1521.65 1024.35 1519.55 1020.65 1517.15 1017.25 1507.7 1007.65 1502.6 995.55
M 1357.75 1093.05
Q 1392.45 1116.25 1423.55 1144.35 1454.55 1172.35 1479.5 1206 1507.35 1243.55 1534 1282 1557.55 1316 1580.2 1350.45 1598.9 1378.8 1616.3 1407.85
L 1623.55 1390.55
Q 1613.05 1368.55 1602.3 1346.75 1587.25 1316.15 1571.5 1285.85 1532.55 1210.85 1485.3 1140.7 1473.3 1122.85 1460.15 1105.9 1441.1 1081.25 1417.85 1060.65 1396.4 1041.65 1373.4 1024.65 1343.05 1002.2 1311.45 981.3 1286.95 965.1 1261.25 950.85 1219.15 927.65 1175.15 908.25 1171.45 906.55 1167.8 904.9 1163.65 903.15 1159.6 901.45 1153.7 898.9 1147.85 896.45 1122.95 885.8 1097.85 875.45 1071.65 864.5 1045.3 854 1006.3 838.55 965.3 828.95 888.6 810.95 809.65 807.95 706.2 802.75 602.85 806 551.05 807.65 499.65 812.9 444.4 818.55 390.15 829.45 379.85 831.6 369.55 833.8
L 350.35 865.35
Q 392 856.2 434.25 851.3 467.85 847.55 501.65 846.4 554.6 844.85 607.65 845.05 638.95 845.2 670.2 845.5 710.95 845.85 751.6 847.55 794.2 849.05 836.35 854.55 888.15 861.65 937.65 878.25 971.9 889.6 1004.95 904 1053.95 925.3 1101.65 949.2 1139.55 968.05 1177.05 988 1214.65 1008 1251.85 1028.75 1271.5 1039.8 1291.05 1051.25 1325.05 1071.2 1357.75 1093.05 Z"/>

<path fill="#0C0C0C" stroke="none" d="
M 490.4 1327.6
Q 507.75 1350.45 529.5 1369.25 551 1387.75 575.2 1402.55 599.55 1417.6 625.1 1430 638.85 1436.6 652.85 1442.9 667.85 1449.7 682.95 1456.1 694.35 1461 705.65 1465.95 725.7 1474.5 745.7 1482.9 822 1515.05 900.55 1541.65 971.05 1565.5 1043.8 1580.5 1096.8 1591.5 1150.85 1595.8 1175.6 1597.85 1200.45 1598.3 1237.8 1598.95 1273.05 1586.8 1282.7 1563.75 1284.9 1538.95 1287 1515.45 1281.9 1492.45 1276.7 1469.2 1265.2 1448.45 1255.1 1430.15 1242 1414 1237.95 1409 1233.85 1404.05 1207.3 1373.4 1175 1348.8 1140.3 1322.3 1101.55 1302.3 1065.7 1283.7 1027.7 1269.8 991.55 1256.4 954.05 1246.2 912.2 1234.9 869.75 1226.85 826.8 1218.75 783.4 1213.95 739.75 1209 695.95 1207.6 658.7 1206.25 621.1 1207.55 578.65 1208.75 536.75 1212.9 499.3 1216.1 466 1233.35 458.7 1237.05 452.1 1241.95 457 1269.8 469.95 1295 478.75 1312.2 490.4 1327.6 Z"/>
</g>

<g id="Layer1_0_FILL">
<path fill="#000000" fill-opacity="0.20784313725490197" stroke="none" d="
M 1445.85 1573.4
Q 1446.05 1552.4 1440.25 1524.9 1424 1448 1382 1379.75 1339.95 1311.55 1278.55 1262.4 1237.35 1229.5 1179.65 1199.55 1141.45 1179.75 1072.65 1150.3 1030.25 1132.1 1004.9 1122.4 967.25 1107.95 935.5 1099.2 914.55 1093.45 889.65 1088.4 870 1084.4 843.3 1079.9 762.4 1066.4 692.4 1060.6 612.45 1053.95 540.55 1056.8 491.05 1058.8 457.65 1067.45 413.35 1079 385.45 1104.35 368.5 1119.75 355.3 1142.5 344.15 1161.8 335.15 1187.35 329.95 1202.05 327.5 1213.6 324.4 1228.05 324.75 1240.65 325.15 1255 330.1 1267.45 333.2748046875 1275.461328125 338 1281.8 339.3466796875 1289.222265625 341.4 1296.3 347.3 1316.75 358.55 1326.35 365.5 1332.3 374.4 1333.8 383.85 1335.4 391.15 1331.1 396.95 1327.7 400.8 1320.85 403.6177734375 1315.7779296875 405.15 1309.25 405.85234375 1311.9978515625 406.7 1314.9 408.5 1321.2 412.6 1332.9 423.7 1364.8 431.5 1380.7 444.05 1406.35 460.55 1422 469.5 1430.4 485.6 1441 507.35 1455.25 527.2 1464.85 550 1475.95 571.85 1481.75 585.7 1485.4 596.35 1485.15 600.3205078125 1485.062109375 603.9 1484.45 616.8494140625 1491.1005859375 630 1496.4 643.55 1501.9 670.55 1510.6 698.05 1519.45 711.1 1524.65 731.6 1532.8 774.7 1555.6 815.4 1577.05 838.7 1585.6 857.35 1592.45 890.55 1600.7 928.5 1610.15 942.8 1614.7 957.85 1619.45 987.7 1631.2 1017.25 1642.8 1032.6 1647.6 1058.15 1655.65 1090.25 1661.25 1112.75 1665.15 1149 1669.45 1182.3 1673.45 1201.4 1673.7 1229.2998046875 1674.0841796875 1251.2 1668.25 1258.2474609375 1674.991796875 1270.3 1675.65 1283.05 1676.35 1296.35 1670.35 1299.85 1668.8 1306.85 1665.6 1312.95 1663.05 1317.8 1662.75 1321 1662.5 1326.05 1663.15 1332.9 1664.05 1334.25 1664.15 1340.8287109375 1664.5154296875 1347.4 1662.75 1347.6849609375 1664.9673828125 1348.5 1667.05 1351.15 1673.8 1358.7 1677.05 1365.8 1680.15 1373.55 1678.8 1380.25 1677.6 1387.3 1673.35 1392.4 1670.25 1399.4 1664.35 1411.7 1653.95 1420.2 1644.1 1430.35 1632.3 1436.1 1620.1 1445.6 1599.95 1445.85 1573.4
M 1305.75 1511.5
Q 1306.3 1517.45 1305.55 1524.9 1305.15 1529.25 1303.7 1538.25
L 1294.7 1594.35
Q 1293.75 1600.05 1292.85 1603 1291.35 1607.7 1288.7 1610.55 1288.6658203125 1610.5869140625 1288.6 1610.6 1284.121875 1604.9626953125 1276.3 1601.85 1267.55 1598.4 1257.15 1598.9 1249.55 1599.25 1238.25 1602.05 1221.05 1606.25 1219.45 1606.55 1209.55 1608.5 1198 1608.9 1188.35 1609.25 1176.35 1608.6 1127.65 1605.9 1062.25 1587.25 1043.1 1581.8 1006.25 1570.15 968.5 1558.2 950.35 1552.95 911.7 1542.35 892.35 1536.95 858 1527.35 835.05 1518.85 818.7 1512.8 789.6 1500.05 758.25 1486.35 744.25 1480.95 727.85 1474.6 700.2 1465.35 666.3 1454.05 655.9 1450.3 603.95 1431.65 572.75 1409.85 550.55 1394.3 527.2 1369.7 513.05 1354.8 487.15 1323.55 469.15 1301.75 461.25 1288.85 448.7 1268.3 446.45 1249.3 445.8 1243.65 445.15 1241.4 443.85 1237.15 440.95 1235.3 438.080078125 1233.4708984375 434.75 1234.2 436.698046875 1232.37421875 438.75 1230.6 448.8 1221.95 462.35 1214.25 473.05 1208.2 488.2 1201.55 527.65 1184.4 563.6 1177.05 583.95 1172.9 609.85 1170.55 625.3 1169.15 656.5 1167.5 685.95 1165.95 701.4 1165.55 726.25 1164.95 746.25 1166.1 767.9 1167.35 793.1 1171.2 812.85 1174.25 839.45 1179.7 922.35 1196.8 1003.25 1222.2 1051.65 1237.45 1084.3 1252 1127.15 1271.05 1158.35 1295.1 1165.5 1300.6 1185.55 1317.65 1202.4 1332 1213.2 1339.55 1220.85 1344.9 1236.55 1355 1250 1364.3 1257.65 1372.95 1272.15 1389.4 1280.65 1420.85 1281.65 1424.6 1287.15 1447.65 1291.1 1464.05 1294.55 1474.1 1296.65 1480.3 1301.3 1492.55 1305 1503.4 1305.75 1511.5
M 413.55 1264.7
Q 413.334375 1264.823046875 413.1 1264.95 415.776171875 1258.5431640625 419.75 1252.3 418.01875 1257.47890625 417.2 1263.05 415.3869140625 1263.650390625 413.55 1264.7 Z"/>
</g>
</defs>

<g transform="matrix( 1, 0, 0, 1, 0,0) ">
<use xlink:href="#Layer2_0_FILL"/>
</g>

<g transform="matrix( 1, 0, 0, 1, 0,0) ">
<use xlink:href="#Layer1_0_FILL"/>
</g>
</svg>
