
<svg xmlns="http://www.w3.org/2000/svg" version="1.1" xmlns:xlink="http://www.w3.org/1999/xlink" preserveAspectRatio="none" x="0px" y="0px" width="2048px" height="2048px" viewBox="0 0 2048 2048">
<defs>
<g id="Layer2_0_FILL">
<path fill="#FFCC00" stroke="none" d="
M 1745.5 675.35
Q 1650.2 577.85 1520.25 454 1322.1095703125 265.08828125 1116.05 82.4 1079.8458984375 50.303125 1043.4 18.4 1031.485546875 8.0228515625 1025.25 -2.5 833.5880859375 -2.5 641.9 -2.5 640.65 -2.5 639.4 -2.5 629.4 -2.5 619.4 -2.5 611.9 -2.5 604.45 -2.5 601.95 -2.5 599.45 -2.5 594.45 -2.5 589.45 -2.5 589.45 -1.25 589.45 0 509.5 0 429.6 0 423.35 0 417.1 0 408.35 0 399.65 0 394.65 0 389.65 0 379.65 0 369.65 0 359.65 0 349.7 0 314.7 0 279.75 0 247.7125 0.891015625 215.65 1.75 215.6375 1.7658203125 215.6 1.75 212 0.35 207.3 -0.15 204.3 -0.45 198.65 -0.5
L 139.75 -1.3
Q 132.05 -1.4 127.35 -1.85 122.15 -2.55 119.55 -2.9 114.9 -3.5 111.75 -3.4 107.75 -3.4 105.15 -2.1 103.55 -1.3 102.4 -0.05 101.322265625 1.1625 100.9 2.55 100.8857421875 2.737109375 100.85 2.9 100.3 5.3 101.65 7.75 102.85 10.05 105.15 11.55 106.95 12.75 109.8 13.8 111.4 14.4 114.65 15.5 115.090625 15.66953125 115.55 15.85 148.2771484375 45.6640625 181.95 76.75 375.495703125 255.4966796875 600.3 477 763.75 638 1086.25 964.5
L 2049.2 1939.5
Q 2049.84921875 1937.55234375 2050.5 1935.6 2050.5 1931.85 2050.5 1928.1 2050.5 1924.35 2050.5 1920.6 2050.5 1916.9 2050.5 1913.15 2050.5 1909.4 2050.5 1905.65 2050.5 1901.9 2050.5 1898.15 2050.5 1894.4 2050.5 1890.65 2050.5 1886.9 2050.5 1883.15 2050.5 1879.4 2050.5 1875.65 2050.5 1871.9 2050.5 1868.2 2050.5 1864.45 2050.5 1860.7 2050.5 1856.95 2050.5 1853.2 2050.5 1849.45 2050.5 1845.7 2050.5 1841.95 2050.5 1838.2 2050.5 1834.45 2050.5 1830.7 2050.5 1826.95 2050.5 1823.2 2050.5 1819.45 2050.5 1815.75 2050.5 1812 2050.5 1808.25 2050.5 1804.5 2050.5 1800.75 2050.5 1797 2050.5 1793.25 2050.5 1789.5 2050.5 1785.75 2050.5 1782 2050.5 1778.25 2050.5 1774.5 2050.5 1770.75 2050.5 1767 2050.5 1763.3 2050.5 1759.55 2050.5 1755.8 2050.5 1752.05 2050.5 1748.3 2050.5 1744.55 2050.5 1740.8 2050.5 1737.05 2050.5 1733.3 2050.5 1729.55 2050.5 1725.8 2050.5 1722.05 2050.5 1718.3 2050.5 1714.6 2050.5 1710.85 2050.5 1707.1 2050.5 1703.35 2050.5 1699.6 2050.5 1695.85 2050.5 1692.1 2050.5 1688.35 2050.5 1684.6 2050.5 1680.85 2050.5 1677.1 2050.5 1673.35 2050.5 1669.6 2050.5 1665.85 2050.5 1662.15 2050.5 1658.4 2050.5 1654.65 2050.5 1650.9 2050.5 1647.15 2050.5 1643.4 2050.5 1639.65 2050.5 1635.9 2050.5 1632.15 2050.5 1628.4 2050.5 1624.65 2050.5 1620.9 2050.5 1617.15 2050.5 1613.4 2050.5 1609.7 2050.5 1605.95 2050.5 1602.2 2050.5 1598.45 2050.5 1594.7 2050.5 1590.95 2050.5 1587.2 2050.5 1583.45 2050.5 1579.7 2050.5 1575.95 2050.5 1572.2 2050.5 1568.45 2050.5 1564.7 2050.5 1561 2050.5 1557.25 2050.5 1553.5 2050.5 1549.75 2050.5 1546 2050.5 1542.25 2050.5 1538.5 2050.5 1534.75 2050.5 1531 2050.5 1527.25 2050.5 1523.5 2050.5 1519.75 2050.5 1516 2050.5 1512.25 2050.5 1508.55 2050.5 1504.8 2050.5 1501.05 2050.5 1497.3 2050.5 1493.55 2050.5 1489.8 2050.5 1486.05 2050.5 1482.3 2050.5 1478.55 2050.5 1474.8 2050.5 1471.05 2050.5 1467.3 2050.5 1463.55 2050.5 1459.8 2050.5 1456.1 2050.5 1452.35 2050.5 1448.6 2050.5 1444.85 2050.5 1441.1 2050.5 1437.35 2050.5 1433.6 2050.5 1429.85 2050.5 1426.1 2050.5 1422.35 2050.5 1418.6 2050.5 1414.85 2050.5 1411.1 2050.5 1407.4 2050.5 1403.65 2050.5 1399.9 2050.5 1396.15 2050.5 1392.4 2050.5 1388.65 2050.5 1384.9 2050.5 1381.15 2049.25 1377.4 2048 1373.65 2048 1369.9 2048 1366.15 2048 1362.4 2048 1358.65 2048 1354.95 2048 1351.2 2048 1347.45 2048 1343.7 2048 1339.95 2048 1336.2 2048 1332.45 2048 1328.7 2048 1324.95 2048 1321.2 2048 1317.45 2048 1313.7 2048 1309.95 2048 1306.2 2048 1303.852734375 2048 1301.45 2048.175 1301.230078125 2048.35 1300.95 2048.5 1300.6 2048.6 1300.2 2048.85 1299.85 2049.1 1299.45 2049.25 1299.1 2049.35 1298.7 2049.5 1298.3 2049.6 1297.95 2049.6 1297.55 2049.6 1297.2 2049.6 1296.8 2049.6 1296.45 2049.75 1296.05 2049.85 1295.7 2049.85 1295.3 2049.85 1294.95 2049.85 1294.55 2049.85 1294.2 2050 1293.8 2050.1 1293.45 2050.1 1293.05 2050.1 1292.65 2050.1 1292.3 2050.1 1291.9 2050.1 1291.55 2050.1 1291.15 2050.1 1290.8 2050.1 1290.4 2050.1 1290.05 2050.1 1289.65 2050.1 1289.3 2050.1 1288.9 2050.1 1288.55 2050.1 1288.15 2050.1 1287.8 2050.1 1287.4 2050 1287 2049.85 1286.65 2049.85 1286.25 2049.85 1285.9 2050 1285.5 2050.1 1285.15 2050.1 1284.75 2050.1 1284.4 2050.1 1284 2050.1 1283.65 2050.1 1283.25 2050.1 1282.9 2050.1 1282.5 2050.1 1282.15 2050.1 1281.75 2050.1 1281.4 2050.1 1281 2050.1 1280.6 2050.1 1280.25 2050.1 1279.85 2050.1 1279.5 2050.1 1279.1 2050.1 1278.75 2050.1 1278.35 2050.1 1278 2050.1 1277.6 2050.1 1277.25 2050.1 1276.85 2050.1 1276.5 2050.1 1276.1 2050.1 1275.75 2050.1 1275.35 2050.1 1274.95 2050.1 1274.6 2050.1 1274.2 2050.1 1273.85 2050.1 1273.45 2050.1 1273.1 2050.1 1272.7 2050.1 1272.35 2050.1 1271.95 2050.1 1271.6 2050.1 1271.2 2050.1 1270.85 2050.1 1270.45 2050.1 1270.1 2050.1 1269.7 2050.1 1269.35 2050.1 1268.95 2050.1 1268.55 2050.1 1268.2 2050.1 1267.8 2050.1 1267.45 2050.1 1267.05 2050.1 1266.7 2050.1 1266.3 2050.1 1265.95 2050.1 1265.55 2050.1 1265.2 2050.1 1264.8 2050.1 1264.45 2050.1 1264.05 2050.1 1263.7 2050.1 1263.3 2050.1 1262.9 2050.1 1262.55 2050.1 1262.15 2050.1 1261.8 2050.1 1261.4 2050.1 1261.05 2050.1 1260.65 2050.1 1260.3 2050.1 1259.9 2050.1 1259.55 2050.1 1259.15 2050.1 1258.8 2050.1 1258.4 2050.1 1258.05 2050.1 1257.65 2050.1 1257.25 2050.1 1256.9 2050.1 1256.5 2050.1 1256.15 2050.1 1255.75 2050.1 1255.4 2050.1 1255 2050.1 1254.65 2050.1 1254.25 2050.1 1253.9 2050.1 1253.5 2050 1253.15 2049.85 1252.75 2049.85 1252.4 2049.85 1252 2049.85 1251.65 2049.85 1251.25 2049.85 1250.85 2049.85 1250.5 2049.75 1250.1 2049.6 1249.75 2049.75 1249.35 2049.85 1249 2049.85 1248.6 2049.85 1248.25 2049.85 1247.85 2049.85 1247.5 2049.85 1247.1 2049.85 1246.75 2049.85 1246.35 2049.85 1246 2049.85 1245.6 2049.85 1245.2 2049.85 1244.85 2049.85 1244.45 2049.85 1244.1 2049.85 1243.7 2049.75 1243.35 2049.6 1242.95 2049.6 1242.6 2049.6 1242.2 2049.5 1241.85 2049.35 1241.45 2049.25 1241.1 2049.1 1240.7 2049.1 1240.35 2049.1 1239.95 2049 1239.6 2048.85 1239.2 2048.85 1238.8 2048.85 1238.45 2048.75 1238.05 2048.6 1237.7 2048.6 1237.3 2048.6 1236.95 2048.6 1236.55 2048.6 1236.2 2048.6 1235.8 2048.6 1235.45 2048.6 1235.05 2048.6 1234.7 2048.6 1234.3 2048.6 1233.95 2048.6 1233.55 2048.6 1233.15 2048.6 1232.8 2048.6 1232.4 2048.6 1232.05 2048.6 1231.65 2048.6 1231.3 2048.6 1230.9 2048.6 1230.55 2048.6 1230.15 2048.6 1229.8 2048.6 1229.4 2048.6 1229.05 2048.6 1228.65 2048.6 1228.3 2048.6 1227.9 2048.6 1227.5 2048.6 1227.15 2048.6 1226.75 2048.6 1226.4 2048.6 1226 2048.6 1225.65 2048.6 1225.25 2048.6 1224.9 2048.6 1224.5 2048.6 1224.15 2048.6 1223.75 2048.6 1223.4 2048.5 1223 2048.35 1222.65 2048.35 1222.25 2048.35 1221.9 2048.5 1221.5 2048.6 1221.1 2048.6 1220.75 2048.6 1220.35 2048.6 1220 2048.6 1219.6 2048.5 1219.25 2048.35 1218.85 2048.35 1218.5 2048.35 1218.1 2048.35 1217.75 2048.35 1217.35 2048.35 1217 2048.35 1216.6 2048.35 1216.25 2048.35 1215.85 2048.35 1215.45 2048.35 1215.1 2048.35 1214.7 2048.35 1214.35 2048.35 1213.95 2048.35 1213.6 2048.35 1213.2 2048.35 1212.85 2048.35 1212.45 2048.35 1212.1 2048.35 1211.7 2048.35 1211.35 2048.25 1210.95 2048.1 1210.6 2048.1 1210.2 2048.1 1209.85 2048.1 1209.45 2048.1 1209.05 2048.1 1208.7 2048.1 1208.3 2048.1 1207.95 2048.1 1207.55 2048.1 1207.2 2048.1 1206.8 2048 1206.45 2047.85 1206.05 2047.85 1205.7 2047.85 1205.3 2047.85 1204.95 2047.85 1204.55 2047.85 1204.2 2047.85 1203.8 2047.85 1203.4 2047.85 1203.05 2047.85 1202.65 2047.85 1202.3 2047.85 1201.9 2047.85 1201.55 2047.85 1201.15 2047.85 1200.8 2047.85 1200.4 2047.85 1200.05 2047.85 1199.65 2047.85 1199.3 2047.85 1198.9 2047.85 1198.55 2047.75 1198.15 2047.6 1197.75 2047.6 1197.4 2047.6 1197 2047.6 1196.65 2047.6 1196.25 2047.6 1195.9 2047.6 1195.5 2047.6 1195.15 2047.6 1194.75 2047.6 1194.4 2047.6 1194 2047.6 1193.65 2047.6 1193.25 2047.6 1192.9 2047.6 1192.5 2047.6 1192.15 2047.6 1191.75 2047.6 1191.35 2047.6 1191 2047.6 1190.6 2047.6 1190.25 2047.6 1189.85 2047.6 1189.5 2047.6 1189.1 2047.6 1188.75 2047.6 1188.35 2047.6 1188 2047.6 1187.6 2047.6 1187.25 2047.6 1186.85 2047.6 1186.5 2047.520703125 1186.1828125 2047.4 1185.85 2047.6298828125 1185.5521484375 2047.85 1185.2 2048 1184.85 2048.1 1184.45 2048.25 1184.1 2048.35 1183.7 2048.5 1183.35 2048.6 1182.95 2048.75 1182.6 2048.85 1182.2 2048.85 1181.85 2048.85 1181.45 2049 1181.1 2049.1 1180.7 2049 1180.35 2048.85 1179.95 2048.85 1179.55 2048.85 1179.2 2049 1178.8 2049.1 1178.45 2049 1178.05 2048.85 1177.7 2049 1177.3 2049.1 1176.95 2049.1 1176.55 2049.1 1176.2 2049.1 1175.8 2049.1 1175.45 2049.1 1175.05 2049.1 1174.7 2049.1 1174.3 2049.1 1173.9 2049.1 1173.55 2049.1 1173.15 2049.1 1172.8 2049.1 1172.4 2049.1 1172.05 2049.1 1171.65 2049 1171.3 2048.85 1170.9 2048.85 1170.55 2048.85 1170.15 2048.85 1169.8 2048.85 1169.4 2048.85 1169.05 2048.85 1168.65 2048.85 1168.3 2048.85 1167.9 2048.85 1167.5 2048.85 1167.15 2048.85 1166.75 2048.85 1166.4 2048.85 1166 2048.85 1165.65 2049 1165.25 2049.1 1164.9 2049 1164.5 2048.85 1164.15 2048.85 1163.75 2048.85 1163.4 2048.85 1163 2048.85 1162.65 2048.85 1162.25 2048.85 1161.85 2048.85 1161.5 2048.85 1161.1 2048.85 1160.75 2048.85 1160.35 2048.85 1160 2048.85 1159.6 2048.85 1159.25 2048.85 1158.85 2048.85 1158.5 2048.85 1158.1 2048.85 1157.75 2048.85 1157.35 2048.85 1157 2048.85 1156.6 2048.85 1156.2 2048.85 1155.85 2048.85 1155.45 2048.85 1155.1 2048.85 1154.7 2048.85 1154.35 2048.85 1153.95 2048.85 1153.6 2048.85 1153.2 2048.85 1152.85 2048.85 1152.45 2048.85 1152.1 2048.85 1151.7 2048.85 1151.35 2048.85 1150.95 2048.85 1150.6 2048.85 1150.2 2048.85 1149.8 2048.85 1149.45 2048.85 1149.05 2048.85 1148.7 2048.85 1148.3 2048.85 1147.95 2048.85 1147.55 2048.85 1147.2 2048.85 1146.8 2048.85 1146.45 2048.85 1146.05 2048.85 1145.7 2048.85 1145.3 2048.85 1144.95 2048.85 1144.55 2048.85 1144.15 2048.85 1143.8 2049 1143.4 2049.1 1143.05 2049.1 1142.65 2049.1 1142.3 2049 1141.9 2048.85 1141.55 2048.85 1141.15 2048.85 1140.8 2048.85 1140.4 2048.85 1140.05 2048.85 1139.65 2048.85 1139.3 2048.85 1138.9 2048.85 1138.5 2048.85 1138.15 2048.85 1137.75 2048.85 1137.4 2048.85 1137 2048.85 1136.65 2048.85 1136.25 2048.85 1135.9 2048.85 1135.5 2048.85 1135.15 2048.85 1134.75 2048.85 1134.4 2048.85 1134 2048.85 1133.65 2048.85 1133.25 2048.85 1132.9 2048.85 1132.5 2048.85 1132.1 2048.85 1131.75 2048.85 1131.35 2048.85 1131 2048.85 1130.6 2048.85 1130.25 2048.85 1129.85 2048.85 1129.5 2048.85 1129.1 2048.85 1128.75 2048.85 1128.35 2048.85 1128 2048.85 1127.6 2048.85 1127.25 2048.85 1126.85 2048.85 1126.45 2048.85 1126.1 2048.85 1125.7 2048.85 1125.35 2048.85 1124.95 2048.75 1124.6 2048.6 1124.2 2048.6 1123.85 2048.6 1123.45 2048.6 1123.1 2048.6 1122.7 2048.6 1122.35 2048.6 1121.95 2048.75 1121.6 2048.85 1121.2 2048.75 1120.85 2048.6 1120.45 2048.6 1120.05 2048.6 1119.7 2048.6 1119.3 2048.6 1118.95 2048.6 1118.55 2048.6 1118.2 2048.6 1117.8 2048.6 1117.45 2048.6 1117.05 2048.6 1116.7 2048.6 1116.3 2048.6 1115.95 2048.6 1115.55 2048.6 1115.2 2048.6 1114.8 2048.6 1114.4 2048.6 1114.05 2048.6 1113.65 2048.6 1113.3 2048.6 1112.9 2048.6 1112.55 2048.6 1112.15 2048.6 1111.8 2048.6 1111.4 2048.6 1111.05 2048.6 1110.65 2048.6 1110.3 2048.6 1109.9 2048.6 1109.55 2048.6 1109.15 2048.6 1108.75 2048.6 1108.4 2048.6 1108 2048.6 1107.65 2048.6 1107.25 2048.6 1106.9 2048.6 1106.5 2048.6 1106.15 2048.6 1105.75 2048.6 1105.4 2048.6 1105 2048.6 1104.65 2048.6 1104.25 2048.6 1103.9 2048.6 1103.5 2048.6 1103.15 2048.6 1102.75 2048.6 1102.35 2049 1102 2049.35 1101.6 2049.5 1101.25 2049.6 1100.85 2049.85 1100.5 2050.1 1100.1 2050.25 1099.75 2050.35 1099.35 2050.5 1099 2050.6 1098.6 2050.6 1098.25 2050.6 1097.85 2050.6 1097.5 2050.6 1097.1 2050.6 1096.7 2050.6 1096.35 2050.5 1095.95 2050.35 1095.6 2050.1 1095.2 2049.85 1094.85 2049.75 1094.45 2049.6 1094.1 2049.35 1093.7 2049.1 1093.35 2048.725 1093.05 2048.35 1092.75 2048.35 1092.6875 2048.35 1092.6 2048.35 1092.2 2048.35 1091.85 2048.35 1091.45 2048.35 1091.1 2048.35 1090.7 2048.35 1090.3 2048.25 1089.95 2048.1 1089.55 2048.1 1089.2 2048.1 1088.8 2048.1 1088.45 2048.1 1088.05 2048.1 1087.7 2048.1 1087.3 2048.1 1086.95 2048.1 1086.55 2048.1 1086.2 2048.1 1085.8 2048 1085.45 2047.85 1085.05 2047.85 1084.65 2047.85 1084.3 2047.85 1083.9 2047.85 1083.55 2047.85 1083.15 2047.85 1082.8 2047.85 1082.4 2047.85 1082.05 2047.85 1081.65 2047.85 1081.3 2047.85 1080.9 2047.85 1080.55 2047.75 1080.15 2047.6 1079.8 2047.6 1079.4 2047.6 1079 2047.6 1078.65 2047.6 1078.25 2047.6 1077.9 2047.6 1077.5 2047.6 1077.15 2047.6 1076.75 2047.6 1076.4 2047.6 1076 2047.6 1075.65 2047.6 1075.25 2047.6 1074.9 2047.6 1074.5 2047.6 1074.15 2047.6 1073.75 2047.6 1073.4 2047.6 1073 2047.6 1072.6 2047.6 1072.25 2047.5 1071.85 2047.35 1071.5 2047.35 1071.1 2047.35 1070.75 2047.35 1070.35 2047.35 1070 2047.35 1069.6 2047.35 1069.25 2047.35 1068.85 2047.35 1068.5 2047.35 1068.1 2047.35 1067.75 2047.35 1067.35 2047.35 1066.95 2047.35 1066.6 2047.35 1066.2 2047.35 1065.85 2047.35 1065.45 2047.35 1065.1 2047.35 1064.7 2047.35 1064.35 2047.35 1063.95 2047.35 1063.6 2047.35 1063.2 2047.35 1062.85 2047.35 1062.45 2047.35 1062.1 2047.35 1061.7 2047.35 1061.35 2047.35 1060.95 2047.35 1060.55 2047.35 1060.2 2047.35 1059.8 2047.35 1059.45 2047.35 1059.05 2047.35 1058.7 2047.35 1058.3 2047.35 1057.95 2047.35 1057.55 2047.35 1057.2 2047.35 1056.8 2047.35 1056.45 2047.35 1056.05 2047.35 1055.7 2047.35 1055.3 2047.35 1054.9 2047.35 1054.55 2047.35 1054.15 2047.35 1053.8 2047.35 1053.4 2047.35 1053.05 2047.35 1052.65 2047.35 1052.3 2047.35 1051.9 2047.35 1051.55 2047.35 1051.15 2047.35 1050.8 2047.35 1050.4 2047.35 1050.05 2047.35 1049.65 2047.35 1049.25 2047.35 1048.9 2047.35 1048.5 2047.35 1048.15 2047.35 1047.75 2047.35 1047.4 2047.35 1047 2047.35 1046.65 2047.35 1046.25 2047.35 1045.9 2047.35 1045.5 2047.35 1045.15 2047.35 1044.75 2047.35 1044.4 2047.35 1044 2047.35 1043.65 2047.35 1043.25 2047.35 1042.85 2047.35 1042.5 2047.35 1042.1 2047.35 1041.75 2047.35 1041.35 2047.35 1041 2047.35 1040.6 2047.35 1040.25 2047.35 1039.85 2047.35 1039.5 2047.35 1039.1 2047.35 1038.75 2047.35 1038.35 2047.35 1038 2047.35 1037.6 2047.35 1037.2 2047.35 1036.85 2047.35 1036.45 2047.35 1036.1 2047.35 1035.7 2047.35 1035.35 2047.35 1034.95 2047.35 1034.6 2047.35 1034.2 2047.35 1033.85 2047.35 1033.45 2047.35 1033.1 2047.35 1032.7 2047.35 1032.35 2047.35 1031.95 2047.35 1031.55 2047.35 1031.2 2047.35 1030.8 2047.35 1030.45 2047.35 1030.05 2047.35 1029.7 2047.35 1029.3 2047.5 1028.95 2047.6 1028.55 2047.5 1028.2 2047.35 1027.8 2047.35 1027.45 2047.35 1027.05 2047.35 1026.7 2047.35 1026.3 2047.5 1025.95 2047.6 1025.55 2047.5 1025.15 2047.35 1024.8 2047.35 1024.4 2047.35 1024.05 2047.35 1023.65 2047.35 1023.3 2047.35 1022.9 2047.35 1022.55 2047.35 1022.15 2047.35 1021.8 2047.35 1021.4 2047.35 1021.05 2047.35 1020.65 2047.35 1020.3 2047.35 1019.9 2047.35 1019.5 2047.35 1019.15 2047.35 1018.75 2047.35 1018.51171875 2047.35 1018.25 2047.85 1018 2048.35 1017.75 2048.85 1017.4 2049.35 1017 2049.85 1016.65 2050.35 1016.25 2050.6 1015.9 2050.85 1015.5 2051.1 1015.15 2051.35 1014.75 2051.35 1014.26640625 2051.35 1013.8 2051.35 1012.95 2051.35 1012.15 2051.35 1011.3 2051.35 1010.45 2051.35 1009.65 2051.35 1008.8 2051.35 1008 2051.35 1007.15 2051.35 1006.9841796875 2051.35 1006.8 2051.2193359375 1006.6408203125 2051.1 1006.45 2050.85 1006.1 2050.6 1005.7 2050.35 1005.35 2050.1 1004.95 2049.6 1004.6 2049.1 1004.2 2048.5 1003.85 2047.85 1003.45 2047.75078125 1003.4169921875 2047.65 1003.35 2047.3025390625 1002.9880859375 2046.9 1002.55 2042.8 998.2 2041.65 996.75 2039.4 993.85 2039.3 993.75 2037.9 992.05 2036.5 991.2 2034.8 990.15 2032.85 990.15
L 2032.8 990.15
Q 2023.0560546875 980.173046875 2012.9 969 2007.523828125 963.11171875 1995.55 949.4 1981.8001953125 933.63515625 1959.35 907.55 1864.2 796.8 1745.5 675.35
M 8.85 1032.85
Q 5.139453125 1029.1123046875 2.5 1026.2 2.5 1026.35546875 2.5 1026.5 2.5 1030.25 2.5 1034 1.25 1037.75 0 1041.5 0 1045.25 0 1049 0 1052.7 0 1056.45 0 1060.2 0 1063.95 0 1067.7 0 1071.45 0 1075.2 0 1078.95 0 1082.7 0 1086.45 0 1090.2 0 1093.95 0 1097.7 0 1101.4 0 1105.15 0 1108.9 0 1112.65 0 1116.4 0 1120.15 0 1123.9 0 1127.65 0 1131.4 0 1135.15 0 1138.9 0 1142.65 0 1146.4 -1.25 1150.15 -2.5 1153.85 -2.5 1157.6 -2.5 1161.35 -2.5 1165.1 -2.5 1168.85 -2.5 1172.6 -2.5 1176.35 -2.5 1180.1 -2.5 1183.85 -2.5 1187.6 -2.5 1191.35 -2.5 1195.1 -2.5 1198.85 -2.5 1202.6 -2.5 1206.3 -2.5 1210.05 -2.5 1213.8 -2.5 1217.55 -2.5 1221.3 -2.5 1225.05 -2.5 1228.8 -2.5 1232.55 -2.5 1236.3 -2.5 1240.05 -2.5 1243.8 -2.5 1247.55 -2.5 1251.3 -2.5 1255 -2.5 1258.75 -2.5 1262.5 -2.5 1266.25 -2.5 1270 -2.5 1273.75 -2.5 1277.5 -2.5 1281.25 -2.5 1285 -2.5 1288.75 -2.5 1292.5 -2.5 1296.25 -2.5 1300 -2.5 1303.75 -2.5 1307.45 -2.5 1311.2 -2.5 1314.95 -2.5 1318.7 -2.5 1322.45 -2.5 1326.2 -2.5 1329.95 -2.5 1333.7 -2.5 1337.45 -2.5 1341.2 -2.5 1344.95 -2.5 1348.7 -2.5 1352.45 -2.5 1356.2 -1.25 1359.9 0 1363.65 0 1367.4 0 1371.15 0 1374.9 0 1378.65 0 1382.4 0 1386.15 0 1389.9 0 1393.65 0 1397.4 0 1401.15 0 1404.9 0 1408.6 0 1412.35 0 1416.1 0 1419.85 0 1423.6 0 1427.35 0 1431.1 0 1434.85 0 1438.6 0 1442.35 0 1446.1 0 1449.85 0 1453.6 0 1457.35 0 1461.05 0 1464.8 0 1468.55 0 1472.3 0 1476.05 0 1479.8 0 1483.55 0 1487.3 0 1491.05 0 1494.8 0 1498.55 0 1502.3 0 1506.05 0 1509.8 0 1513.5 0 1517.25 0 1521 0 1524.75 0 1528.5 0 1532.25 0 1536 0 1539.75 0 1543.5 0 1547.25 0 1551 0 1554.75 0 1558.5 0 1562.2 0 1565.95 0 1569.7 0 1573.45 0 1577.2 0 1580.95 0 1584.7 0 1588.45 0 1592.2 0 1595.95 0 1599.7 0 1603.45 0 1607.2 0 1610.95 0 1614.65 0 1618.4 0 1622.15 0 1625.9 0 1629.65 0 1633.4 0 1637.15 0 1640.9 0 1644.65 0 1648.4 -1.25 1652.15 -2.5 1655.9 -1.25 1659.65 0 1663.4 0 1667.1 0 1670.85 0 1674.6 0 1678.35 0 1682.1 0 1685.85 0 1689.6 0 1693.35 0 1697.1 0 1700.85 0 1704.6 0 1708.35 0 1712.1 0 1715.8 0 1719.55 0 1723.3 0 1727.05 0 1730.8 0 1734.55 0 1738.3 0 1742.05 0 1745.8 0 1749.55 0 1753.3 0 1757.05 0 1760.8 0 1764.55 0 1768.25 0 1772 0 1775.75 0 1779.5 0 1783.25 0 1787 0 1790.75 0 1794.5 0 1798.25 0 1802 0 1805.75 0 1809.5 0 1813.25 0 1817 0 1820.7 0 1824.45 0 1828.2 0 1831.95 0 1835.7 0 1839.45 0 1843.2 0 1846.95 0 1850.7 1.25 1854.45 2.5 1858.2 1.25 1861.95 0 1865.7 0 1869.4 0 1873.15 0 1876.9 0 1880.65 0 1884.4 0 1888.15 0 1891.9 0 1895.65 0 1899.4 0 1903.15 0 1906.9 0 1910.65 0 1914.4 0 1918.15 0 1921.85 0 1925.6 0 1929.35 0 1933.1 0 1936.85 0 1940.6 0 1944.35 0 1948.1 0 1951.85 0 1955.6 0 1959.35 0 1963.1 0 1966.85 0 1970.6 0 1974.3 0 1978.05 0 1981.8 0 1985.55 1.25 1989.3 2.5 1993.05 1.25 1996.8 0 2000.55 0 2004.3 0 2008.05 0 2011.8 0 2015.55 1.25 2019.3 2.5 2023 2.5 2026.75 2.5 2030.5 3.75 2034.25 5 2038 8.75 2041.75 12.5 2045.5 17.5 2049.25 22.5 2053 31.25 2055.5 40 2058 46.2 2056.75 52.45 2055.5 52.866796875 2055.2220703125 53.25 2054.95 54.11640625 2055.2220703125 54.95 2055.5 62.45 2056.75 69.95 2058 84.95 2059.25 99.9 2060.5 134.9 2061.75 169.85 2063 179.85 2063 189.85 2063 269.75 2061.75 349.7 2060.5 661.4 2059.4869140625 973.1 2058.45 926.5880859375 2010.708984375 875.65 1957.3 811.8294921875 1890.401953125 741.1 1814.65 665.25 1733.45 498.6 1552.55 341.6 1382 255.9 1290.6 162.333203125 1190.8046875 79.95 1105.7 43.2927734375 1067.81640625 8.85 1032.85
M 1043.6 2058.25
Q 1044.273828125 2058.2478515625 1044.9 2058.25 1044.2736328125 2058.2291015625 1043.6 2058.2
L 1043.6 2058.25 Z"/>

<path fill="#000000" stroke="none" d="
M 2020.55 -10
Q 2019.3 -8.75 2018.05 -7.5 1988.09609375 -7.5 1958.1 -7.5 1918.15 -8.75 1878.2 -10 1818.25 -11.25 1758.3 -12.5 1754.55 -12.5 1750.8 -12.5 1744.55 -12.5 1738.3 -12.5 1729.6 -12.5 1720.85 -12.5 1715.85 -12.5 1710.85 -12.5 1699.6 -12.5 1688.35 -12.5 1683.4 -12.5 1678.4 -12.5 1650.9 -13.75 1623.45 -15 1536 -15 1448.6 -15 1444.85 -15 1441.1 -15 1428.6 -15 1416.15 -15 1412.4 -15 1408.65 -15 1393.65 -15 1378.65 -15 1374.95 -15 1371.2 -15 1310 -15 1248.8 -15 1237.55 -15 1226.3 -15 1212.6 -15 1198.85 -15 1193.85 -15 1188.85 -15 1168.9 -15 1148.9 -15 1143.9 -15 1138.9 -15 1133.9 -15 1128.9 -15 1128.9 -13.75 1128.9 -12.5 1123.9 -12.5 1118.95 -12.5 1113.95 -11.25 1108.95 -10 1107.7 -8.75 1106.45 -7.5 1104.549609375 -5.599609375 1102.65 -3.7
L 1090.2 -14.9
Q 1068.6271484375 -13.6384765625 1031.45 -12.95 1025.8669921875 -12.8421875 1020.6 -12.85 1021.571875 -9.5673828125 1023.3 -6.1 1024.1974609375 -4.2978515625 1025.25 -2.5 1031.485546875 8.0228515625 1043.4 18.4 1079.8458984375 50.303125 1116.05 82.4 1322.1095703125 265.08828125 1520.25 454 1650.2 577.85 1745.5 675.35 1864.2 796.8 1959.35 907.55 1981.8001953125 933.63515625 1995.55 949.4 2007.523828125 963.11171875 2012.9 969 2023.0560546875 980.173046875 2032.8 990.15
L 2032.85 990.15
Q 2034.8 990.15 2036.5 991.2 2037.9 992.05 2039.3 993.75 2039.4 993.85 2041.65 996.75 2042.8 998.2 2046.9 1002.55 2047.3025390625 1002.9880859375 2047.65 1003.35 2047.75078125 1003.4169921875 2047.85 1003.45 2048.5 1003.85 2049.1 1004.2 2049.6 1004.6 2050.1 1004.95 2050.35 1005.35 2050.6 1005.7 2050.85 1006.1 2051.1 1006.45 2051.2193359375 1006.6408203125 2051.35 1006.8 2051.35 1006.1439453125 2051.35 1005.5 2051.35 1004.65 2051.35 1003.85 2051.35 1003 2051.35 1002.2 2051.35 1001.35 2051.35 1000.5 2051.35 999.7 2051.35 998.85 2051.35 998.05 2051.35 997.2 2051.35 996.35 2051.35 995.55 2051.35 994.7 2051.35 993.9 2051.35 993.05 2051.35 992.25 2051.35 991.4 2051.35 990.55 2051.35 989.75 2051.35 988.9 2051.35 988.1 2051.35 987.25 2051.35 986.4 2051.35 985.6 2051.35 984.75 2051.35 983.95 2051.35 983.1 2051.35 982.3 2051.35 981.45 2051.35 980.6 2051.35 979.8 2051.35 978.95 2051.35 978.15 2051.35 977.3 2051.35 976.45 2051.35 975.65 2051.35 974.8 2051.35 974 2051.35 973.15 2051.35 972.35 2051.35 971.5 2051.35 970.65 2051.35 969.85 2051.35 969 2051.35 968.2 2051.35 967.35 2051.35 966.5 2051.35 965.7 2051.35 964.85 2051.35 964.05 2051.35 963.2 2051.35 962.4 2051.35 961.55 2051.35 960.7 2051.35 959.9 2051.35 959.05 2051.35 958.25 2051.35 957.4 2051.35 956.6 2051.35 955.75 2051.35 954.9 2051.35 954.1 2051.35 953.25 2051.35 952.45 2051.35 951.6 2051.35 950.75 2051.35 949.95 2051.35 949.1 2051.35 948.3 2051.35 947.45 2051.35 946.65 2051.35 945.8 2051.35 944.95 2051.35 944.15 2051.35 943.3 2051.35 942.5 2051.35 941.65 2051.35 940.8 2051.35 940 2051.35 939.15 2051.35 938.35 2051.35 937.5 2051.35 936.7 2051.35 935.85 2051.35 935 2051.35 934.2 2051.35 933.35 2051.35 932.55 2051.35 931.7 2051.35 930.85 2051.35 930.05 2051.35 929.2 2051.35 928.4 2051.35 927.55 2051.35 926.75 2051.35 925.9 2051.35 925.05 2051.35 924.25 2051.35 923.4 2051.35 922.6 2051.35 921.75 2051.35 920.9 2051.35 920.1 2051.35 919.25 2051.35 918.45 2051.35 917.6 2051.35 916.8 2051.35 915.95 2051.35 915.1 2051.35 914.3 2051.35 913.45 2051.35 912.65 2051.35 911.8 2051.35 910.95 2051.35 910.15 2051.35 909.3 2051.35 908.5 2051.35 907.65 2051.35 906.85 2051.35 906 2051.35 905.15 2051.35 904.35 2051.35 903.5 2051.35 902.7 2051.35 901.85 2051.35 901 2051.35 900.2 2051.35 899.35 2051.35 898.55 2051.35 897.7 2051.35 896.9 2051.35 896.05 2051.35 895.2 2051.35 894.4 2051.35 893.55 2051.35 892.75 2051.35 891.9 2051.35 891.05 2051.35 890.25 2051.35 889.4 2051.35 888.6 2051.35 887.75 2051.35 886.95 2051.35 886.1 2051.35 885.25 2051.35 884.45 2051.35 883.6 2051.35 882.8 2051.35 881.95 2051.35 881.1 2051.35 880.3 2051.35 879.45 2051.35 878.65 2051.35 877.8 2051.35 877 2051.35 876.15 2051.35 875.3 2051.35 874.5 2051.35 873.65 2051.35 872.85 2051.35 872 2051.35 871.15 2051.35 870.35 2051.35 869.5 2051.35 868.7 2051.35 867.85 2051.35 867.05 2051.35 866.2 2051.35 865.35 2051.35 864.55 2051.35 863.7 2051.35 862.9 2051.35 862.05 2051.35 861.2 2051.35 860.4 2051.35 859.55 2051.35 858.75 2051.35 857.9 2051.35 857.1 2051.35 856.25 2051.35 855.4 2051.35 854.6 2051.35 853.75 2051.35 852.95 2051.35 852.1 2051.35 851.25 2051.35 850.45 2051.35 849.6 2051.35 848.8 2051.35 847.95 2051.35 847.15 2051.35 846.3 2051.35 845.45 2051.35 844.65 2051.35 843.8 2051.35 843 2051.35 842.15 2051.35 841.3 2051.35 840.5 2051.35 839.65 2051.35 838.85 2051.35 838 2051.35 837.2 2051.35 836.35 2051.35 835.5 2051.35 834.7 2051.35 833.85 2051.35 833.05 2051.35 832.2 2051.35 831.35 2051.35 830.55 2051.35 829.7 2051.35 828.9 2051.35 828.05 2051.35 827.25 2051.35 826.4 2051.35 825.55 2051.35 824.75 2051.35 823.9 2051.35 823.1 2051.35 822.25 2051.35 821.4 2051.35 820.6 2051.35 819.75 2051.35 818.95 2051.35 818.1 2051.35 817.3 2051.35 816.45 2051.35 815.6 2051.35 814.8 2051.35 813.95 2051.35 813.15 2051.35 812.3 2051.35 811.45 2051.35 810.65 2051.35 809.8 2051.35 809 2051.35 808.15 2051.35 807.35 2051.35 806.5 2051.35 805.65 2051.35 804.85 2051.35 804 2051.35 803.2 2051.35 802.35 2051.35 801.5 2051.35 800.7 2051.35 799.85 2051.35 799.05 2051.35 798.2 2051.35 797.4 2051.35 796.55 2051.35 795.7 2051.35 794.9 2051.35 794.05 2051.35 793.25 2051.35 792.4 2051.35 791.55 2051.35 790.75 2051.35 789.9 2051.35 789.1 2051.35 788.25 2051.35 787.45 2051.35 786.6 2051.35 785.75 2051.35 784.95 2051.35 784.1 2051.35 783.3 2051.35 782.45 2051.35 781.6 2051.35 780.8 2051.35 779.95 2051.35 779.15 2051.35 778.3 2051.35 777.5 2051.35 776.65 2051.35 775.8 2051.35 775 2051.35 774.15 2051.35 773.35 2051.35 772.5 2051.35 771.65 2051.35 770.85 2051.35 770 2051.35 769.2 2051.35 768.35 2051.35 767.55 2051.35 766.7 2051.35 765.85 2051.35 765.05 2051.35 764.2 2051.35 763.4 2051.35 762.55 2051.35 761.7 2051.35 760.9 2051.35 760.05 2051.35 759.25 2051.35 758.4 2051.35 757.6 2051.35 756.75 2051.35 755.9 2051.35 755.1 2051.35 754.25 2051.35 753.45 2051.35 752.6 2051.35 751.8 2051.35 750.95 2051.35 750.1 2051.35 749.3 2051.35 748.45 2051.35 747.65 2051.35 746.8 2051.35 745.95 2051.35 745.15 2051.35 744.3 2051.35 743.5 2051.35 742.65 2051.35 741.85 2051.35 741 2051.35 740.15 2051.35 739.35 2051.35 738.5 2051.35 737.7 2051.35 736.85 2051.35 736 2051.35 735.2 2051.35 734.35 2051.35 733.55 2051.35 732.7 2051.35 731.9 2051.35 731.05 2051.35 730.2 2051.35 729.4 2051.35 728.55 2051.35 727.75 2051.35 726.9 2051.35 726.05 2051.35 725.25 2051.35 724.4 2051.35 723.6 2051.35 722.75 2051.35 721.95 2051.35 721.1 2051.35 720.25 2051.35 719.45 2051.35 718.6 2051.35 717.8 2051.35 716.95 2051.35 716.1 2051.35 715.3 2051.35 714.45 2051.35 713.65 2051.35 712.8 2051.35 712 2051.35 711.15 2051.35 710.3 2051.35 709.5 2051.35 708.65 2051.35 707.85 2051.35 707 2051.35 706.15 2051.35 705.35 2051.35 704.5 2051.35 703.7 2051.35 702.85 2051.35 702.05 2051.35 701.2 2051.35 700.35 2051.35 699.55 2051.35 698.7 2051.35 697.9 2051.35 697.05 2051.35 696.2 2051.35 695.4 2051.35 694.55 2051.35 693.75 2051.35 692.9 2051.35 692.1 2051.35 691.25 2051.35 690.4 2051.35 689.6 2051.35 688.75 2051.35 687.95 2051.35 687.1 2051.35 686.25 2051.35 685.45 2051.35 684.6 2051.35 683.8 2051.35 682.95 2051.35 682.15 2051.35 681.3 2051.35 680.45 2051.35 679.65 2051.35 678.8 2051.35 678 2051.35 677.15 2051.35 676.3 2051.35 675.5 2051.35 674.65 2051.35 673.85 2051.35 673 2051.35 672.2 2051.35 671.35 2051.35 670.5 2051.35 669.7 2051.35 668.85 2051.35 668.05 2051.35 667.2 2051.35 666.35 2051.35 665.55 2051.35 664.7 2051.35 663.9 2051.35 663.05 2051.35 662.25 2051.35 661.4 2051.35 660.55 2051.35 659.75 2051.35 658.9 2051.35 658.1 2051.35 657.25 2051.35 656.4 2051.35 655.6 2051.35 654.75 2051.35 653.95 2051.35 653.1 2051.35 652.3 2051.35 651.45 2051.35 650.6 2051.35 649.8 2051.35 648.95 2051.35 648.15 2051.35 647.3 2051.35 646.45 2051.35 645.65 2051.35 644.8 2051.35 644 2051.35 643.15 2051.35 642.35 2051.35 641.5 2051.35 640.65 2051.35 639.85 2051.35 639 2051.35 638.2 2051.35 637.35 2051.35 636.5 2051.35 635.7 2051.35 634.85 2051.35 634.05 2051.35 633.2 2051.35 632.4 2051.35 631.55 2051.35 630.7 2051.35 629.9 2051.35 629.05 2051.35 628.25 2051.35 627.4 2051.35 626.55 2051.35 625.75 2051.35 624.9 2051.35 624.1 2051.35 623.25 2051.35 622.45 2051.35 621.6 2051.35 620.75 2051.35 619.95 2051.35 619.1 2051.35 618.3 2051.35 617.45 2051.35 616.6 2051.35 615.8 2051.35 614.95 2051.35 614.15 2051.35 613.3 2051.35 612.5 2051.35 611.65 2051.35 610.8 2051.35 610 2051.35 609.15 2051.35 608.35 2051.35 607.5 2051.35 606.65 2051.35 605.85 2051.35 605 2051.35 604.2 2051.35 603.35 2051.35 602.55 2051.35 601.7 2051.35 600.85 2051.35 600.05 2051.35 599.2 2051.35 598.4 2051.35 597.55 2051.35 596.7 2051.35 595.9 2051.35 595.05 2051.35 594.25 2051.35 593.4 2051.35 592.6 2051.35 591.75 2051.35 590.9 2051.35 590.1 2051.35 589.25 2051.35 588.45 2051.35 587.6 2051.35 586.75 2051.35 585.95 2051.35 585.1 2051.35 584.3 2051.35 583.45 2051.35 582.65 2051.35 581.8 2051.35 580.95 2051.35 580.15 2051.35 579.3 2051.35 578.5 2051.35 577.65 2051.35 576.8 2051.35 576 2051.35 575.15 2051.35 574.35 2051.35 573.5 2051.35 572.7 2051.35 571.85 2051.35 571 2051.35 570.2 2051.35 569.35 2051.35 568.55 2051.35 567.7 2051.35 566.85 2051.35 566.05 2051.35 565.2 2051.35 564.4 2051.35 563.55 2051.35 562.75 2051.35 561.9 2051.35 561.05 2051.35 560.25 2051.35 559.4 2051.35 558.6 2051.35 557.75 2051.35 556.9 2051.35 556.1 2051.35 555.25 2051.35 554.45 2051.35 553.6 2051.35 552.8 2051.35 551.95 2051.35 551.1 2051.35 550.3 2051.35 549.45 2051.35 548.65 2051.35 547.8 2051.35 547 2051.35 546.15 2051.35 545.3 2051.35 544.5 2051.35 543.65 2051.35 542.85 2051.35 542 2051.35 541.15 2051.35 540.35 2051.35 539.5 2051.35 538.7 2051.35 537.85 2051.35 537.05 2051.35 536.2 2051.35 535.35 2051.35 534.55 2051.35 533.7 2051.35 532.9 2051.35 532.05 2051.35 531.2 2051.35 530.4 2051.35 529.55 2051.35 528.75 2051.35 527.9 2051.35 527.1 2051.35 526.25 2051.35 525.4 2051.35 524.6 2051.35 523.75 2051.35 522.95 2051.35 522.1 2051.35 521.25 2051.35 520.45 2051.35 519.6 2051.35 518.8 2051.35 517.95 2051.35 517.15 2051.35 516.3 2051.35 515.45 2051.35 514.65 2051.35 513.8 2051.35 513 2051.35 512.15 2051.35 511.3 2051.35 510.5 2051.35 509.65 2051.35 508.85 2051.35 508 2051.35 507.2 2051.35 506.35 2051.35 505.5 2051.35 504.7 2051.35 503.85 2051.35 503.05 2051.35 502.2 2051.35 501.35 2051.35 500.55 2051.35 499.7 2051.35 498.9 2051.35 498.05 2051.35 497.25 2051.35 496.4 2051.35 495.55 2051.35 494.75 2051.35 493.9 2051.35 493.1 2051.35 492.25 2051.35 491.4 2051.35 490.6 2051.35 489.75 2051.35 488.95 2051.35 488.1 2051.35 487.3 2051.35 486.45 2051.35 485.6 2051.35 484.8 2051.35 483.95 2051.35 483.15 2051.35 482.3 2051.35 481.45 2051.35 480.65 2051.35 479.8 2051.35 479 2051.35 478.15 2051.35 477.35 2051.35 476.5 2051.35 475.65 2051.35 474.85 2051.35 474 2051.35 473.2 2051.35 472.35 2051.35 471.5 2051.35 470.7 2051.35 469.85 2051.35 469.05 2051.35 468.2 2051.35 467.4 2051.35 466.55 2051.35 465.7 2051.35 464.9 2051.35 464.05 2051.35 463.25 2051.35 462.4 2051.35 461.55 2051.35 460.75 2051.35 459.9 2051.35 459.1 2051.35 458.25 2051.35 457.45 2051.35 456.6 2051.35 455.75 2051.35 454.95 2051.35 454.1 2051.35 453.3 2051.35 452.45 2051.35 451.6 2051.35 450.8 2051.35 449.95 2051.35 449.15 2051.35 448.3 2051.35 447.5 2051.35 446.65 2051.35 445.8 2051.35 445 2051.35 444.15 2051.35 443.35 2051.35 442.5 2051.35 441.65 2051.35 440.85 2051.35 440 2051.35 439.2 2051.35 438.35 2051.35 437.55 2051.35 436.7 2051.35 435.85 2051.35 435.05 2051.35 434.2 2051.35 433.4 2051.35 432.55 2051.35 431.7 2051.35 430.9 2051.35 430.05 2051.35 429.25 2051.35 428.4 2051.35 427.6 2051.35 426.75 2051.35 425.9 2051.35 425.1 2051.35 424.25 2051.35 423.45 2051.35 422.6 2051.35 421.75 2051.35 420.95 2051.35 420.1 2051.35 419.3 2051.35 418.45 2051.35 417.65 2051.35 416.8 2051.35 415.95 2051.35 415.15 2051.35 414.3 2051.35 413.5 2051.35 412.65 2051.35 411.8 2051.35 411 2051.35 410.15 2051.35 409.35 2051.35 408.5 2051.35 407.7 2051.35 406.85 2051.35 406 2051.35 405.2 2051.35 404.35 2051.35 403.55 2051.35 402.7 2051.35 401.85 2051.65 401.05 2051.9 400.2 2051.9 399.4 2051.9 398.55 2051.9 397.75 2051.9 396.9 2051.65 396.05 2051.35 395.25 2051.35 394.4 2051.35 393.6 2051.35 392.75 2051.35 391.9 2051.35 391.1 2051.35 390.25 2051.35 389.45 2051.35 388.6 2051.35 387.8 2051.35 386.95 2051.35 386.1 2051.35 385.3 2051.35 384.45 2051.35 383.65 2051.35 382.8 2051.35 381.95 2051.35 381.15 2051.35 380.3 2051.35 379.5 2051.35 378.65 2051.35 377.85 2051.35 377 2051.35 376.15 2051.35 375.35 2051.35 374.5 2051.35 373.7 2051.35 372.85 2051.35 372 2051.35 371.2 2051.35 370.35 2051.35 369.55 2051.35 368.7 2051.35 367.9 2051.35 367.05 2051.35 366.2 2051.35 365.4 2051.35 364.55 2051.35 363.75 2051.35 362.9 2051.35 362.05 2051.35 361.25 2051.35 360.4 2051.35 359.6 2051.35 358.75 2051.35 357.95 2051.35 357.1 2051.35 356.25 2051.35 355.45 2051.35 354.6 2051.35 353.8 2051.35 352.95 2051.35 352.15 2051.35 351.3 2051.35 350.45 2051.35 349.65 2051.35 348.8 2051.35 348 2051.35 347.15 2051.35 346.3 2051.35 345.5 2051.35 344.65 2051.35 343.85 2051.35 343 2051.35 342.2 2051.35 341.35 2051.35 340.5 2051.35 339.7 2051.35 338.85 2051.35 338.05 2051.35 337.2 2051.65 336.35 2051.9 335.55 2051.9 334.7 2051.9 333.9 2051.9 333.05 2051.9 332.25 2051.9 331.4 2051.9 330.55 2051.9 329.75 2051.9 328.9 2051.65 328.1 2051.35 327.25 2051.35 326.4 2051.35 325.6 2051.35 324.75 2051.35 323.95 2051.35 323.1 2051.35 322.3 2051.35 321.45 2051.35 320.6 2051.35 319.8 2051.35 318.95 2051.35 318.15 2051.35 317.3 2051.35 316.45 2051.35 315.65 2051.35 314.8 2051.35 314 2051.35 313.15 2051.35 312.35 2051.35 311.5 2051.35 310.65 2051.35 309.85 2051.35 309 2051.35 308.2 2051.35 307.35 2051.35 306.5 2051.35 305.7 2051.35 304.85 2051.35 304.05 2051.35 303.2 2051.35 302.4 2051.35 301.55 2051.35 300.7 2051.35 299.9 2051.35 299.05 2051.35 298.25 2051.35 297.4 2051.35 296.55 2051.35 295.75 2051.35 294.9 2051.35 294.1 2051.35 293.25 2051.35 292.45 2051.35 291.6 2051.35 290.75 2051.35 289.95 2051.35 289.1 2051.35 288.3 2051.35 287.45 2051.35 286.6 2051.35 285.8 2051.35 284.95 2051.35 284.15 2051.35 283.3 2051.35 282.5 2051.35 281.65 2051.35 280.8 2051.35 280 2051.35 279.15 2051.35 278.35 2051.35 277.5 2051.35 276.65 2051.35 275.85 2051.35 275 2051.35 274.2 2051.35 273.35 2051.35 272.55 2051.35 271.7 2051.35 270.85 2051.35 270.05 2051.35 269.2 2051.35 268.4 2051.35 267.55 2051.35 266.7 2051.35 265.9 2051.35 265.05 2051.35 264.25 2051.35 263.4 2051.35 262.6 2051.35 261.75 2051.35 260.9 2051.35 260.1 2051.35 259.25 2051.35 258.45 2051.35 257.6 2051.35 256.75 2051.35 255.95 2051.35 255.1 2051.35 254.3 2051.35 253.45 2051.35 252.65 2051.35 251.8 2051.35 250.95 2051.35 250.15 2051.35 249.3 2051.35 248.5 2051.35 247.65 2051.35 246.8 2051.35 246 2051.35 245.15 2051.35 244.35 2051.35 243.5 2051.35 242.7 2051.35 241.85 2051.35 241 2051.35 240.2 2051.35 239.35 2051.35 238.55 2051.35 237.7 2051.35 236.85 2051.35 236.05 2051.35 235.2 2051.35 234.4 2051.35 233.55 2051.35 232.75 2051.35 231.9 2051.35 231.05 2051.35 230.25 2051.35 229.4 2051.35 228.6 2051.35 227.75 2051.35 226.9 2051.35 226.1 2051.35 225.25 2051.35 224.45 2051.35 223.6 2051.35 222.8 2051.35 221.95 2051.35 221.1 2051.35 220.3 2051.35 219.45 2051.35 218.65 2051.35 217.8 2051.35 216.95 2051.35 216.15 2051.35 215.3 2051.35 214.5 2051.35 213.65 2051.35 212.85 2051.35 212 2051.35 211.15 2051.35 210.35 2051.35 209.5 2051.35 208.7 2051.35 207.85 2051.35 207 2051.35 206.2 2051.35 205.35 2051.35 204.55 2051.35 203.7 2051.35 202.9 2051.35 202.05 2051.35 201.2 2051.35 200.4 2051.35 199.55 2051.35 198.75 2051.35 197.9 2051.35 197.05 2051.35 196.25 2051.35 195.4 2051.35 194.6 2051.35 193.75 2051.35 192.95 2051.35 192.1 2051.35 191.25 2051.35 190.45 2051.35 189.6 2051.35 188.8 2051.35 187.95 2051.35 187.1 2051.35 186.3 2051.35 185.45 2051.35 184.65 2051.35 183.8 2051.35 183 2051.35 182.15 2051.35 181.3 2051.35 180.5 2051.35 179.65 2051.35 178.85 2051.35 178 2051.35 177.15 2051.35 176.35 2051.35 175.5 2051.35 174.7 2051.35 173.85 2051.35 173.05 2051.35 172.2 2051.35 171.35 2051.35 170.55 2051.35 169.7 2051.35 168.9 2051.35 168.05 2051.35 167.2 2051.35 166.4 2051.35 165.55 2051.35 164.75 2051.35 163.9 2051.35 163.1 2051.35 162.25 2051.35 161.4 2051.35 160.6 2051.35 159.75 2051.35 158.95 2051.35 158.1 2051.35 157.25 2051.35 156.45 2051.35 155.6 2051.35 154.8 2051.35 153.95 2051.35 153.15 2051.35 152.3 2051.35 151.45 2051.35 150.65 2051.35 149.8 2051.35 149 2051.35 148.15 2051.35 147.35 2051.35 146.5 2051.35 145.65 2051.35 144.85 2051.35 144 2051.35 143.2 2051.35 142.35 2051.35 141.5 2051.35 140.7 2051.35 139.85 2051.35 139.05 2051.35 138.2 2051.35 137.4 2051.35 136.55 2051.35 135.7 2051.35 134.9 2051.35 134.05 2051.35 133.25 2051.35 132.4 2051.35 131.55 2051.35 130.75 2051.35 129.9 2051.35 129.1 2051.35 128.25 2051.35 127.45 2051.35 126.6 2051.35 125.75 2051.35 124.95 2051.35 124.1 2051.35 123.3 2051.65 122.45 2051.9 121.6 2051.9 120.8 2051.9 119.95 2051.9 119.15 2051.9 118.3 2051.9 117.5 2051.9 116.65 2051.9 115.8 2051.9 115 2051.9 114.15 2051.9 113.35 2051.9 112.5 2051.9 111.65 2051.9 110.85 2051.9 110 2051.9 109.2 2051.9 108.35 2052.2 107.55 2052.45 106.7 2052.45 105.85 2052.45 105.05 2052.45 104.2 2052.45 103.4 2052.75 102.55 2053 101.7 2053.3 100.9 2053.6 100.05 2053.6 99.25 2053.6 98.4 2053.6 97.6 2053.6 96.75 2053.85 95.9 2054.15 95.1 2054.15 94.25 2054.15 93.45 2054.15 92.6 2054.15 91.75 2054.4 90.95 2054.7 90.1 2054.7 89.3 2054.7 88.45 2054.7 87.65 2054.7 86.8 2054.7 85.95 2054.7 85.15 2054.7 84.3 2054.7 83.5 2054.7 82.65 2054.7 81.8 2054.95 81 2055.25 80.15 2055.25 79.35 2055.25 78.5 2055.25 77.7 2055.25 76.85 2055.25 76 2055.25 75.2 2055.5 74.35 2055.8 73.55 2055.8 72.7 2055.8 71.85 2055.8 71.05 2055.8 70.2 2055.8 69.4 2055.8 68.55 2055.8 67.75 2055.8 66.9 2055.8 66.05 2055.8 65.25 2055.8 64.4 2055.8 63.6 2055.5 62.75 2055.25 61.9 2055.25 61.1 2055.25 60.25 2055.25 59.45 2055.25 58.6 2054.95 57.8 2054.7 56.95 2054.7 56.1 2054.7 55.3 2054.7 54.45 2054.7 53.65 2054.7 52.8 2054.7 51.95 2054.7 51.15 2054.7 50.3 2054.7 49.5 2054.7 48.65 2054.7 47.85 2054.7 47 2054.7 46.15 2054.7 45.35 2054.7 44.5 2054.7 43.7 2054.7 42.85 2054.7 42 2054.7 41.2 2054.7 40.35 2054.7 39.55 2054.7 38.7 2054.7 37.9 2054.7 37.05 2054.7 36.2 2054.7 35.4 2054.7 34.55 2054.7 33.75 2054.7 32.9 2054.7 32.05 2054.7 31.25 2054.7 30.4 2054.7 29.6 2054.7 28.75 2054.7 27.95 2054.7 27.1 2054.7 26.25 2054.7 25.45 2054.7 24.6 2054.7 23.8 2054.7 22.95 2054.7 22.1 2054.7 21.3 2054.7 20.45 2054.7 19.65 2054.7 18.8 2054.7 18 2054.7 17.15 2054.7 16.3 2054.7 15.5 2054.7 14.65 2054.7 13.85 2054.7 13 2054.7 12.15 2054.7 11.35 2054.7 10.5 2054.7 9.7 2054.7 8.85 2054.7 8.05 2054.7 7.2 2054.7 6.35 2054.7 5.55 2054.7 4.7 2054.7 3.9 2054.7 3.05 2054.7 2.2 2054.7 1.4 2054.7 0.55 2054.7 -0.25 2054.7 -1.1 2054.7 -1.9 2054.7 -2.75 2054.7 -3.6 2054.7 -4.4 2054.7 -5.25 2054.7 -6.05 2054.7 -6.9 2054.7 -7.75 2054.7 -8.228515625 2054.7 -8.75 2053.85 -9.3625 2053 -10 2045.5 -12.5 2038.05 -15 2038.05 -13.75 2038.05 -12.5 2029.3 -11.25 2020.55 -10
M 10 -7.5
Q 8.75 -6.25 7.5 -5 5 -2.5 2.5 0 0 3.75 -2.5 7.5 -3.75 11.25 -5 15 -6.2 18.75 -7.45 22.5 -7.45 26.2 -7.45 29.95 -7.45 33.7 -7.45 37.45 -8.7 41.2 -9.95 44.95 -9.95 48.7 -9.95 52.45 -9.95 56.2 -9.95 59.95 -9.95 63.7 -9.95 67.45 -9.95 71.2 -9.95 74.95 -9.95 78.65 -9.95 82.4 -9.95 86.15 -9.95 89.9 -9.95 93.65 -9.95 97.4 -9.95 101.15 -9.95 104.9 -9.95 108.65 -9.95 112.4 -9.95 116.15 -9.95 119.9 -9.95 123.65 -9.95 127.4 -9.95 131.1 -9.95 134.85 -9.95 138.6 -9.95 142.35 -9.95 146.1 -9.95 149.85 -9.95 153.6 -9.95 157.35 -9.95 161.1 -9.95 164.85 -9.95 168.6 -9.95 172.35 -9.95 176.1 -9.95 179.8 -9.95 183.55 -9.95 187.3 -9.95 191.05 -9.95 194.8 -9.95 198.55 -9.95 202.3 -11.2 206.05 -12.45 209.8 -12.45 213.55 -12.45 217.3 -12.45 221.05 -12.45 224.8 -12.45 228.55 -12.45 232.25 -12.45 236 -12.45 239.75 -12.45 243.5 -12.45 247.25 -12.45 251 -12.45 254.75 -12.45 258.5 -12.45 262.25 -12.45 266 -12.45 269.75 -12.45 273.5 -12.45 277.25 -12.45 281 -12.45 284.7 -12.45 288.45 -12.45 292.2 -12.45 295.95 -12.45 299.7 -12.45 303.45 -12.45 307.2 -12.45 310.95 -12.45 314.7 -12.45 318.45 -12.45 322.2 -12.45 325.95 -12.45 329.7 -12.45 333.4 -12.45 337.15 -12.45 340.9 -12.45 344.65 -12.45 348.4 -12.45 352.15 -12.45 355.9 -12.45 359.65 -12.45 363.4 -12.45 367.15 -12.45 370.9 -12.45 374.65 -12.45 378.4 -12.45 382.15 -12.45 385.85 -12.45 389.6 -12.45 393.35 -12.45 397.1 -12.45 400.85 -12.45 404.6 -12.45 408.35 -12.45 412.1 -12.45 415.85 -12.45 419.6 -12.45 423.35 -12.45 427.1 -12.45 430.85 -12.45 434.6 -12.45 438.3 -12.45 442.05 -12.45 445.8 -12.45 449.55 -12.45 453.3 -12.45 457.05 -12.45 460.8 -12.45 464.55 -12.45 468.3 -12.45 472.05 -12.45 475.8 -12.45 479.55 -12.45 483.3 -12.45 487 -12.45 490.75 -12.45 494.5 -12.45 498.25 -12.45 502 -12.45 505.75 -12.45 509.5 -12.45 513.25 -12.45 517 -12.45 520.75 -12.45 524.5 -12.45 528.25 -12.45 532 -12.45 535.75 -12.45 539.45 -12.45 543.2 -12.45 546.95 -12.45 550.7 -12.45 554.45 -12.45 558.2 -12.45 561.95 -12.45 565.7 -12.45 569.45 -12.45 573.2 -12.45 576.95 -12.45 580.7 -12.45 584.45 -12.45 588.2 -12.45 591.9 -12.45 595.65 -12.45 599.4 -12.45 603.15 -12.45 606.9 -12.45 610.65 -12.45 614.4 -12.45 618.15 -12.45 621.9 -12.45 625.65 -12.45 629.4 -12.45 633.15 -12.45 636.9 -12.45 640.6 -12.45 644.35 -12.45 648.1 -12.45 651.85 -12.45 655.6 -12.45 659.35 -12.45 663.1 -12.45 666.85 -12.45 670.6 -12.45 674.35 -12.45 678.1 -12.45 681.85 -12.45 685.6 -12.45 689.35 -12.45 693.05 -12.45 696.8 -12.45 700.55 -12.45 704.3 -12.45 708.05 -12.45 711.8 -12.45 715.55 -12.45 719.3 -11.2 723.05 -9.95 726.8 -9.95 730.55 -9.95 734.3 -11.2 738.05 -12.45 741.8 -12.45 745.5 -12.45 749.25 -12.45 753 -12.45 756.75 -12.45 760.5 -12.45 764.25 -12.45 768 -12.45 771.75 -11.2 775.5 -9.95 779.25 -9.95 783 -9.95 786.75 -9.95 790.5 -9.95 794.2 -11.2 797.95 -12.45 801.7 -12.45 805.45 -12.45 809.2 -11.2 812.95 -9.95 816.7 -9.95 820.45 -9.95 824.2 -9.95 827.95 -9.95 831.7 -9.95 835.45 -9.95 839.2 -9.95 842.95 -9.95 846.65 -9.95 850.4 -9.95 854.15 -9.95 857.9 -9.95 861.65 -9.95 865.4 -9.95 869.15 -9.95 872.9 -9.95 876.65 -9.95 880.4 -9.95 884.15 -9.95 887.9 -9.95 891.65 -9.95 895.4 -9.95 899.1 -9.95 902.85 -9.95 906.6 -9.95 910.35 -9.95 914.1 -9.95 917.85 -9.95 921.6 -9.95 925.35 -9.95 929.1 -9.95 932.85 -9.95 936.6 -9.95 940.35 -9.95 944.1 -9.95 947.8 -9.95 951.55 -9.95 955.3 -9.95 959.05 -9.95 962.8 -9.95 966.55 -9.95 970.3 -9.95 974.05 -9.95 977.8 -9.95 981.55 -9.95 985.3 -9.95 989.05 -9.95 992.8 -9.95 996.55 -9.62578125 997.5095703125 -9.3 998.45 -9.9416015625 1003.7734375 -8.25 1009.1 -7.8974609375 1010.210546875 -7.45 1011.3 -7.45 1011.413671875 -7.45 1011.5 -7.3896484375 1011.5611328125 -7.35 1011.6 -5.24140625 1016.6984375 -1.2 1021.9 0.2666015625 1023.75625 2.5 1026.2 5.139453125 1029.1123046875 8.85 1032.85 43.2927734375 1067.81640625 79.95 1105.7 162.333203125 1190.8046875 255.9 1290.6 341.6 1382 498.6 1552.55 665.25 1733.45 741.1 1814.65 811.8294921875 1890.401953125 875.65 1957.3 926.5880859375 2010.708984375 973.1 2058.45 975.4037109375 2060.82109375 977.65 2063.15 1006.5388671875 2064.951171875 1049.15 2068.9 1048.3455078125 2066.275390625 1046.9 2063.5 1045.5912109375 2061.011328125 1043.6 2058.25
L 1043.6 2058.2
Q 1044.2736328125 2058.2291015625 1044.9 2058.25
L 1082.6 2058.3
Q 1244.3685546875 2059.4814453125 1406.15 2060.5 1413.65 2060.5 1421.15 2060.5 1424.9 2060.5 1428.6 2060.5 1533.5 2060.5 1638.4 2060.5 1688.482421875 2060.5 1738.55 2060.5 1802.2505859375 2056.8025390625 1865.9 2052.65 1904.7 2050.1 1924.5 2050.7 1957.05 2051.7 1981.65 2059.9 1982.5208984375 2060.192578125 1983.35 2060.5 2022.9115234375 2060.5 2062.45 2060.5 2062.028125 2043.89140625 2062.15 2020.1
L 2062.5 1953 2049.2 1939.5 1086.25 964.5
Q 763.75 638 600.3 477 375.495703125 255.4966796875 181.95 76.75 148.2771484375 45.6640625 115.55 15.85 115.090625 15.66953125 114.65 15.5 111.4 14.4 109.8 13.8 106.95 12.75 105.15 11.55 102.85 10.05 101.65 7.75 100.3 5.3 100.85 2.9 100.8857421875 2.737109375 100.9 2.55 95.0947265625 -2.67265625 90.25 -6.65 85.6232421875 -6.5384765625 80.9 -6.5 55.45 -6.35 23.4 -7.6 23.317578125 -7.6 20 -7.75 20 -7.6181640625 20 -7.5 15 -7.5 10 -7.5 Z"/>
</g>

<g id="Layer1_0_FILL">
<path fill="#000000" stroke="none" d="
M 1135.15 371.3
Q 1115.25 367.65 1075.05 362.55
L 744.4 320.75
Q 737.05 319.85 733.5 319.65 727.4 319.35 722.6 320.2 929.65 347.8 1135.15 371.3
M 910.05 224.4
Q 799.05 240.85 718.45 242.6 613.95 244.95 528.3 224.8 495.1 216.3 478.5 212.25 449.15 205.15 428.1 203.3 386.3 199.65 336.3 211.35 301.25 219.55 247.2 239.75 306.15 220.2 337.85 213.4 389 202.4 430.55 207 445.15 208.6 464.45 212.9 475.65 215.4 497.95 220.85 599.1 244.65 703.8 245.6 808.55 246.5 910.05 224.4
M 673.2 1737.3
Q 663.9 1739.25 659.35 1740.65 651.8 1742.95 646.45 1746.35 657.95 1743.2 672.7 1739.95 680.7 1738.2 699.15 1734.45
L 764.1 1721.35
Q 756.9 1720.9 748 1722.1 742.55 1722.85 732.05 1725.05
L 673.2 1737.3
M 454.3 1624.4
Q 422.95 1631.7 406.65 1635.9 380.3 1642.7 359.6 1649.65 366.45 1649.45 374.85 1647.6 379.6 1646.55 389.8 1643.65 584.65 1588.1 786.75 1569.95 711.75 1572.15 619.45 1588.85 563.8 1598.9 454.3 1624.4
M 1485.5 1063.1
Q 1438.7 1061.05 1381.1 1054.65 1344.25 1050.55 1277.1 1041.45 1204.95 1031.65 1173.15 1027.9 1115 1021.1 1068.8 1018.5 1044.45 1017.15 1014.3 1016.4 995.05 1015.95 959.75 1015.5
L 867.1 1014.3
Q 880.95 1016.6 895.45 1017.65 907.55 1018.55 923.4 1018.65 927.8 1018.7 951.35 1018.55 1076.15 1017.95 1200.8 1033.4 1225.5 1036.5 1271.85 1043.15 1320.6 1050.15 1342.9 1053 1426.1 1063.65 1485.5 1063.1
M 1439.7 1165.9
Q 1580.25 1175.3 1697.7 1195.95 1589.3 1173.1 1456.45 1163.1 1359.3 1155.75 1212.6 1153.45 1135.85 1152.25 1088.65 1153.5 1020.6 1155.3 965.2 1162.5 937.35 1166.1 896.2 1173.5 850.4 1181.9 827.45 1185.8 776.8 1194.45 727.8 1200.25 726.05 1199.2 724.7 1201.4 723.3 1203.55 725 1204.65
L 800.85 1191.9
Q 891.5 1176.7 937.05 1170.5 1012.95 1160.2 1074.1 1157.65 1097.9 1156.65 1126.95 1156.5 1146.95 1156.45 1179.75 1156.8 1331.1 1158.7 1439.7 1165.9 Z"/>
</g>
</defs>

<g transform="matrix( 1, 0, 0, 1, 0,0) ">
<use xlink:href="#Layer2_0_FILL"/>
</g>

<g transform="matrix( 1, 0, 0, 1, 0,0) ">
<use xlink:href="#Layer1_0_FILL"/>
</g>
</svg>
