
<svg xmlns="http://www.w3.org/2000/svg" version="1.1" xmlns:xlink="http://www.w3.org/1999/xlink" preserveAspectRatio="none" x="0px" y="0px" width="2048px" height="2048px" viewBox="0 0 2048 2048">
<defs>
<g id="Layer2_0_FILL">
<path fill="#000000" stroke="none" d="
M 1439.65 -1.05
Q 1403.6 -1.05 1367.55 -1.05 1331.45 -1.05 1295.4 -1.05 1259.35 -1.05 1223.3 -1.05 1187.2 -1.05 1151.1 -1.05 1112.05 -1.05 1073 -1 1035.65 -1 998.35 -1 961.85 -1 925.4 -1 885.3 -1 845.25 -1 803.95 -1 762.65 -1.15 727.95 -1.25 693.25 -1.4 649.75 -1.55 606.2 -1.7 575.9 -1.8 545.65 -1.85 515.4 -1.9 485.15 -1.95 452.35 -2.05 419.6 -2.15 364.8 -1.75 310.05 -1.55 273.4 -1.45 236.75 -1.45 200 -1.4 163.3 -1.45 132.7 -1.5 102.1 -1.7 65.4 -1.9 28.8 -3 24.25 -3.15 19.55 -2.1 16.6 -1.55 13.75 -0.65 10.9 0.35 8.25 1.75 5.75 3 3.4 4.5 1.5 5.85 0.1 7.85 -1.8 10.6 -2 14 -2.4 21.2 -1.25 28.5 -0.45 33.3 -0.1 38.2 0.2 43.15 0.3 48.1 0.4 53.1 0.35 58.1 -0.05 101.2 -0.25 144.3 -0.45 187.4 -0.45 230.55 -0.45 273.65 -0.45 316.8 -0.45 359.9 -0.55 403 -0.75 489.2 -0.25 575.5 0 618.65 -0.3 661.7 -0.95 748.75 -1.3 835.85 -2.15 1032.05 -2.8 1228.1 -3.75 1531.1 -3.8 1834.1 -3.8 1882.2 -3.8 1930.3 -3.8 1931.95 -3.8 1933.65 -3.8 1935.3 -3.85 1936.95 -3.9 1941.5 -4.15 1946.05 -4.35 1949.75 -4.4 1953.45 -4.45 1956 -4.2 1958.6 -4.05 1960.2 -3.95 1961.8 -3.8 1965.1 -3.8 1968.45 -3.8 1971.75 -3.8 1975.1 -3.8 1978.4 -3.8 1981.7 -3.75 1987.5 -3.75 1993.35 -3.75 2002.45 -3.5 2011.55 -3.35 2018.2 -2.55 2024.8 -2.5248046875 2025.0009765625 -2.5 2025.2 -2.599609375 2025.528515625 -2.7 2025.85 -3 2026.7 -3.25 2027.5 -3.25 2028.35 -3.25 2029.15 -3.55 2030 -3.8 2030.85 -3.55 2031.65 -3.25 2032.5 -3.25 2033.3 -3.25 2034.15 -3.25 2035 -3.25 2035.8 -3 2036.65 -2.7 2037.45 -2.45 2038.3 -2.15 2039.1 -1.6 2039.95 -1.05 2040.8 -0.25 2041.6 0.6 2042.45 1.45 2043.25 2.25 2044.1 3.1 2044.95 3.9 2045.75 5.85 2046.6 7.8 2047.4 10.55 2047.95 13.3 2048.5 15.25 2048.8 17.2 2049.05 17.45 2049.05 17.75 2049.05 22.15 2049.05 26.6 2049.05 32.1 2049.05 37.65 2049.05 38.75 2049.05 39.85 2049.05 47.6 2049.05 55.35 2049.05 56.45 2049.05 57.55 2049.05 58.65 2049.05 59.75 2049.05 60 2049.05 60.3 2049.05 62.25 2049.05 64.15 2049.05 68.6 2049.05 73 2049.05 73.55 2049.05 74.1 2049.05 81.6 2049.05 89.05 2049.05 93.2 2049.05 97.35 2049.05 103.7 2049.05 110.05 2049.05 113.65 2049.05 117.25 2049.05 122.5 2049.05 127.75 2049.05 128.3 2049.05 128.85 2049.05 131.05 2049.05 133.25 2049.05 146.25 2049.05 159.25 2049.05 172.25 2049.05 185.25 2049.05 188 2049.05 190.75 2049.05 191.3 2049.05 191.85 2049.05 192.95 2049.05 194.05 2049.05 196.85 2049.05 199.6 2049.05 220.05 2049.05 240.5 2049.05 243 2049.05 245.5 2049.05 249.9 2049.05 254.3 2049.05 260.7 2048.8 267.05 2048.5 299.35 2048.5 331.7 2048.5 360.75 2048.8 389.75 2049.05 395 2049.35 400.25 2049.65 416.85 2049.9 433.4 2050.2 434.5 2050.2 435.65 2050.2 448.9 2050.2 462.15 2050.2 463 2050.2 463.8 2050.2 488.4 2049.9 513 2049.65 515.25 2049.35 517.45 2049.05 518.25 2048.8 519.1 2048.5 520.2 2048.25 521.3 2047.95 553.1 2047.95 584.9 2047.95 590.95 2047.95 597.05 2047.95 598.15 2047.95 599.25 2047.95 825.9 2048.25 1052.5 2048.5 1054.75 2048.5 1056.95 2048.5 1061.65 2048.5 1066.35 2048.5 1105.85 2048.8 1145.4 2049.05 1147.05 2049.05 1148.7 2049.05 1205.1 2049.05 1261.45 2049.05 1262.55 2049.05 1263.65 2049.05 1387.75 2049.05 1511.85 2049.05 1514.1 2049.05 1516.3 2049.05 1517.65 2049.05 1519.05 2049.05 1533.7 2049.05 1548.35 2049.05 1549.75 2049.05 1551.1 2049.05 1644 2049.35 1736.85 2049.65 1739.05 2049.65 1741.25 2049.65 1744.6 2049.65 1747.9 2049.65 1750.95 2049.65 1754 2049.65 1755.35 2049.65 1756.75 2049.65 1763.35 2049.65 1770 2049.65 1771.1 2049.65 1772.2 2049.65 1776.65 2049.65 1781.05 2049.65 1782.15 2049.65 1783.25 2049.65 1786.3 2049.65 1789.35 2049.65 1907.1 2049.9 2024.85 2050.2 2025.1 2050.2 2025.4 2050.2 2032.85 2050.2 2040.3 2050.2 2042.5 2049.9 2044.75 2049.65 2045.85 2049.35 2046.95 2049.05 2047.75 2048.8 2048.6 2048.5 2049.7 2047.95 2050.8 2047.4 2051.9 2046.6 2053 2045.75 2054.15 2044.95 2055.25 2044.1 2055.8 2043.25 2056.35 2042.45 2056.9 2041.6 2057.45 2040.8 2058 2039.95 2058.55 2039.1 2058.85 2038.3 2059.1 2037.45 2059.4 2036.65 2059.65 2035.8 2059.95 2035 2060.2 2034.15 2060.2 2033.3 2060.2 2032.5 2060.2 2031.65 2060.2 2030.85 2060.2 2030 2060.2 2029.15 2060.2 2029.10390625 2060.2 2029.05 2063.96484375 2021.3884765625 2063.8 2004.3 2063.591015625 1975.7912109375 2063.3 1932.3 2063.0529296875 1888.8529296875 2063.2 1845.75 2063.35 1802.6 2063.5 1759.5 2063.7 1716.35 2063.85 1673.25 2063.95 1630.15 2063.95 1587.05 2063.95 1543.95 2063.8 1500.8 2063.7 1457.7 2063.7 1414.6 2063.75 1371.45 2063.85 1328.35 2064 1285.2 2064.2 1242.1 2064.35 1199 2064.55 1155.9 2064.8 1112.75 2064.05 1069.65 2063.3 1026.6 2063.3 983.4 2063.25 939.45 2063.35 895.55 2063.45 851.6 2063.5 807.65 2063.5 763.7 2063.2 719.75 2062.95 676.6 2062.4 633.5 2061.85 590.4 2061.3 547.3 2060.75 503.35 2060.45 459.4 2060.2 416.25 2060.45 373.15 2060.7 330.15 2058.85 286.95 2057 243.95 2057.5 200.7 2058 157.6 2056.7 114.45 2055.4 71.35 2056.55 28.25 2056.75 20 2054.8 12.1 2051.95 0.8 2040.2 0.15 2005.15 -2.3 1969.8 -1.9 1926.3 -1.4 1882.8 -1.3 1858.6 -1.25 1834.45 -1.2 1790.5 -1.1 1746.55 -1.05 1705 -1.05 1663.45 -1.05 1623.7 -1.05 1583.95 -1.05 1547.9 -1.05 1511.85 -1.05 1475.75 -1.05 1439.65 -1.05
M 1968.45 38.75
Q 1960.75 112.45 1958.05 186.5 1956.85 219.25 1956.95 251.9 1957.05 295.85 1956.9 339.8 1956.8 361.7 1956.5 383.65 1956.25 405.3 1955.85 426.95 1955.45 448.4 1955.05 469.9 1954.25 513.85 1953.75 557.8 1953.25 600.9 1952.75 644 1952.05 709.5 1951.85 775.05 1951.45 904.5 1951.35 1033.75 1951.25 1142.35 1951.3 1250.95 1951.3 1294.05 1951.3 1337.2 1951.3 1381.15 1951.3 1425.1 1951.35 1491.05 1951.3 1556.95 1951.3 1600.9 1951.3 1644.85 1951.3 1688.8 1951.3 1732.75 1951.3 1775.4 1951.3 1818.1 1951.3 1819.75 1951.3 1821.4 1951.3 1823.05 1951.3 1824.75 1951.3 1826.4 1951.3 1828.05 1951.35 1830.5 1951.35 1833 1951.35 1836.3 1951.35 1839.65 1951.35 1850.45 1951.45 1861.15 1951.55 1876.55 1951.05 1891.9 1950.85 1898.05 1950.6 1904.35 1950.5 1907.65 1950.8 1910.95 1951.1 1913.9 1951.4 1916.85 1951.5 1918.05 1951.5 1919.25 1951.4 1926.7 1951.3 1934.2 1943.1 1934.2 1934.95 1934.2 1910.05 1934.25 1885 1934.25 1850.7 1934.2 1816.4 1934.2 1782.05 1934.15 1747.7 1934.15 1713.35 1934.15 1679 1934.15 1644.65 1934.2 1610.3 1934.2 1575.95 1934.25 1541.65 1934.3 1507.3 1934.35 1472.95 1934.45 1421.5 1934.6 1369.95 1934.5 1319.5 1934.4 1269.75 1935 1243.35 1935.3 1216.75 1936 1195.7 1936.55 1174.7 1936.7 1135.7 1937 1096.75 1937.4 1056.6 1937.8 1016.35 1938.2 993.5 1938.45 970.7 1938.8 929.8 1939.45 888.95 1939.9 848 1940.4 807.1 1940.6 779.45 1940.75 751.8 1940.85 716.4 1940.95 681.05 1941.05 645.65 1941.2 610.3 1941.35 578.25 1941.45 546.2 1941.65 506.1 1941.9 466.05 1942.25 409.3 1942.8 352.4 1941.45 303.35 1940.3 254.3 1938.15 231.6 1937.85 209 1937.85 180.25 1937.9 151.5 1937.95 121.25 1938 91 1938.05 75.85 1938.1 60.75 1938.25 45.6 1938.45 30.45 1938.65
L 27.15 37.05 1786.05 36.55 1968.45 38.75
M 2018 1998.3
Q 2014.4 1998.1 2018.2 1997.75 2018.1 1998 2018 1998.3
M 333.15 1782.75
Q 351.95 1742.65 346.25 1698.8 341.85 1665.1 316.3 1643.2 298.4 1627.8 276.2 1619.45 244.15 1607.55 211.2 1616.45 167.15 1628.2 145.85 1668.45 142.8 1674.1 139.6 1679.7 132.65 1691.95 130.3 1705.9 125 1736.8 131.85 1767.5 138.45 1796.85 160.05 1817.35 182.95 1839.05 213.3 1848.75 243.95 1858.6 272.3 1843.9 290.7 1834.45 305.9 1820.2 323.15 1804 333.15 1782.75
M 178.65 1649.15
Q 195.2 1631.8 218.55 1629.65 262.15 1625.55 297.05 1652.05 332.9 1679.15 332.5 1723.8 330.2 1762.75 300.9 1789.9 283.8 1805.75 261.35 1811.75 217.85 1823.2 180.2 1797.55 140.2 1770.3 144.9 1722.8 149.15 1680.05 178.65 1649.15
M 316.35 1785.75
Q 301.9 1808.15 279.05 1822.15 256.95 1835.7 231.1 1835.2 186.35 1832.95 159.65 1797.1
L 149.4 1776.85
Q 179.6 1817.95 230.25 1822.35 252.85 1824.45 273.75 1815.8 300.5 1804.8 318.7 1781.9 317.6 1783.85 316.35 1785.75
M 1870.15 1766.9
Q 1884.35 1724.55 1869.85 1681.9 1857.4 1645.2 1824.35 1625.4 1784.8 1601.65 1740.25 1612.65 1704.65 1627.45 1680 1657.65 1664.85 1676.25 1658.55 1699.35 1646.9 1742.05 1659.55 1784.7 1672.65 1828.85 1716.05 1845.75 1748.3 1858.2 1781.4 1847.75 1824.4 1834.15 1852.7 1798.85 1864.3 1784.4 1870.15 1766.9
M 1824.15 1649.6
Q 1829.75 1653.95 1833.9 1659.45 1847.05 1677.1 1853.2 1698.1 1858.75 1717 1856.15 1736.3 1852.65 1761.95 1834.95 1781.55 1804.7 1815.2 1759.5 1813.1 1713 1810.3 1683.95 1774 1676.8 1765.05 1674.6 1753.95 1669.6 1729.1 1674.7 1704.15 1683.45 1661.6 1721 1639.55 1730.95 1633.75 1742.2 1631.35 1787.05 1621.35 1824.15 1649.6
M 1758.05 1832
Q 1713.25 1830.8 1686.6 1794.85
L 1676.35 1774.6
Q 1682.4 1782.7 1689.7 1789.6 1725.25 1823.35 1774.35 1819.45 1811.9 1816.8 1836.8 1788.85 1829.45 1800.5 1819.25 1809.55 1792.95 1832.95 1758.05 1832
M 1694.6 167.25
Q 1684.6 179.25 1677.9 193.35 1659.35 232.25 1665.55 274.8 1671.95 319 1708.45 343.7 1723.7 354.05 1740.8 361.7 1769.2 374.45 1797.4 361.05 1838.3 341.75 1859.75 301.6 1880.65 262.55 1877.2 218.15 1874.3 180.95 1847.4 155.85 1813.9 124.55 1768.15 128.4 1722.95 132.45 1694.6 167.25
M 1820.3 163.2
Q 1833.8 170.85 1842.1 183.9 1854.3 203.1 1856.7 226.05 1861.5 271.95 1828.35 303.2 1795.4 334.15 1750.4 326.55 1707.75 319.55 1683 283.75 1677.9 273.5 1676.85 261.7 1674.7 238 1682.2 215.2 1686.35 202.65 1694 192 1708.15 172.3 1727.65 157.5 1733.85 152.75 1741.75 152.7 1746.2 152.7 1750.5 151.8 1787.7 144.5 1820.3 163.2
M 1687.2 299.85
Q 1689.2 301.95 1691.25 304 1722.5 334.3 1766.1 335.1 1775.1 335.45 1783.8 334.05 1802.6 331.4 1818.35 321.05 1807.95 331.65 1794.4 337.85 1760.25 353.8 1725.05 338.15 1698.45 326.35 1687.2 299.85
M 237.85 127
Q 192 127.3 163.5 163.75 160.65 167.95 158.1 172.35 149.05 187.7 140.7 203.4 119.05 243.95 134.25 288 143.7 315.35 165.45 334.25 199.4 363.7 244.45 356.75 289.4 349.6 317.6 313.75 345.5 278.25 345.45 233.05 345.4 189.3 314.45 158.35 282.85 126.7 237.85 127
M 208.5 160
Q 221.55 151.7 237 151.3 283.8 150 309.3 189.3 320.7 207 323.5 227.9 329.8 274.35 292.65 304.25 256.85 333 212.2 322 185.7 315.7 165.9 297.2 141.6 274.55 146.45 242.15 149.05 224.6 158.75 209.4 178.25 179.05 208.5 160
M 162.85 303
Q 193.4 331 235.05 331.65 242.9 331.9 250.9 330.9 267.55 328.8 282.3 320.65 246.95 348.5 203.4 336.25 173.3 327.75 158.85 299.2 160.8 301.1 162.85 303 Z"/>

<path fill="#CCCCCC" stroke="none" d="
M 1958.05 186.5
Q 1960.75 112.45 1968.45 38.75
L 1786.05 36.55 27.15 37.05 30.45 1938.65
Q 45.6 1938.45 60.75 1938.25 75.85 1938.1 91 1938.05 121.25 1938 151.5 1937.95 180.25 1937.9 209 1937.85 231.6 1937.85 254.3 1938.15 303.35 1940.3 352.4 1941.45 409.3 1942.8 466.05 1942.25 506.1 1941.9 546.2 1941.65 578.25 1941.45 610.3 1941.35 645.65 1941.2 681.05 1941.05 716.4 1940.95 751.8 1940.85 779.45 1940.75 807.1 1940.6 848 1940.4 888.95 1939.9 929.8 1939.45 970.7 1938.8 993.5 1938.45 1016.35 1938.2 1056.6 1937.8 1096.75 1937.4 1135.7 1937 1174.7 1936.7 1195.7 1936.55 1216.75 1936 1243.35 1935.3 1269.75 1935 1319.5 1934.4 1369.95 1934.5 1421.5 1934.6 1472.95 1934.45 1507.3 1934.35 1541.65 1934.3 1575.95 1934.25 1610.3 1934.2 1644.65 1934.2 1679 1934.15 1713.35 1934.15 1747.7 1934.15 1782.05 1934.15 1816.4 1934.2 1850.7 1934.2 1885 1934.25 1910.05 1934.25 1934.95 1934.2 1943.1 1934.2 1951.3 1934.2 1951.4 1926.7 1951.5 1919.25 1951.5 1918.05 1951.4 1916.85 1951.1 1913.9 1950.8 1910.95 1950.5 1907.65 1950.6 1904.35 1950.85 1898.05 1951.05 1891.9 1951.55 1876.55 1951.45 1861.15 1951.35 1850.45 1951.35 1839.65 1951.35 1836.3 1951.35 1833 1951.35 1830.5 1951.3 1828.05 1951.3 1826.4 1951.3 1824.75 1951.3 1823.05 1951.3 1821.4 1951.3 1819.75 1951.3 1818.1 1951.3 1775.4 1951.3 1732.75 1951.3 1688.8 1951.3 1644.85 1951.3 1600.9 1951.3 1556.95 1951.35 1491.05 1951.3 1425.1 1951.3 1381.15 1951.3 1337.2 1951.3 1294.05 1951.3 1250.95 1951.25 1142.35 1951.35 1033.75 1951.45 904.5 1951.85 775.05 1952.05 709.5 1952.75 644 1953.25 600.9 1953.75 557.8 1954.25 513.85 1955.05 469.9 1955.45 448.4 1955.85 426.95 1956.25 405.3 1956.5 383.65 1956.8 361.7 1956.9 339.8 1957.05 295.85 1956.95 251.9 1956.85 219.25 1958.05 186.5
M 163.5 163.75
Q 192 127.3 237.85 127 282.85 126.7 314.45 158.35 345.4 189.3 345.45 233.05 345.5 278.25 317.6 313.75 289.4 349.6 244.45 356.75 199.4 363.7 165.45 334.25 143.7 315.35 134.25 288 119.05 243.95 140.7 203.4 149.05 187.7 158.1 172.35 160.65 167.95 163.5 163.75
M 1677.9 193.35
Q 1684.6 179.25 1694.6 167.25 1722.95 132.45 1768.15 128.4 1813.9 124.55 1847.4 155.85 1874.3 180.95 1877.2 218.15 1880.65 262.55 1859.75 301.6 1838.3 341.75 1797.4 361.05 1769.2 374.45 1740.8 361.7 1723.7 354.05 1708.45 343.7 1671.95 319 1665.55 274.8 1659.35 232.25 1677.9 193.35
M 1869.85 1681.9
Q 1884.35 1724.55 1870.15 1766.9 1864.3 1784.4 1852.7 1798.85 1824.4 1834.15 1781.4 1847.75 1748.3 1858.2 1716.05 1845.75 1672.65 1828.85 1659.55 1784.7 1646.9 1742.05 1658.55 1699.35 1664.85 1676.25 1680 1657.65 1704.65 1627.45 1740.25 1612.65 1784.8 1601.65 1824.35 1625.4 1857.4 1645.2 1869.85 1681.9
M 346.25 1698.8
Q 351.95 1742.65 333.15 1782.75 323.15 1804 305.9 1820.2 290.7 1834.45 272.3 1843.9 243.95 1858.6 213.3 1848.75 182.95 1839.05 160.05 1817.35 138.45 1796.85 131.85 1767.5 125 1736.8 130.3 1705.9 132.65 1691.95 139.6 1679.7 142.8 1674.1 145.85 1668.45 167.15 1628.2 211.2 1616.45 244.15 1607.55 276.2 1619.45 298.4 1627.8 316.3 1643.2 341.85 1665.1 346.25 1698.8 Z"/>

<path fill="#666666" stroke="none" d="
M 279.05 1822.15
Q 301.9 1808.15 316.35 1785.75 317.6 1783.85 318.7 1781.9 300.5 1804.8 273.75 1815.8 252.85 1824.45 230.25 1822.35 179.6 1817.95 149.4 1776.85
L 159.65 1797.1
Q 186.35 1832.95 231.1 1835.2 256.95 1835.7 279.05 1822.15
M 1686.6 1794.85
Q 1713.25 1830.8 1758.05 1832 1792.95 1832.95 1819.25 1809.55 1829.45 1800.5 1836.8 1788.85 1811.9 1816.8 1774.35 1819.45 1725.25 1823.35 1689.7 1789.6 1682.4 1782.7 1676.35 1774.6
L 1686.6 1794.85
M 1691.25 304
Q 1689.2 301.95 1687.2 299.85 1698.45 326.35 1725.05 338.15 1760.25 353.8 1794.4 337.85 1807.95 331.65 1818.35 321.05 1802.6 331.4 1783.8 334.05 1775.1 335.45 1766.1 335.1 1722.5 334.3 1691.25 304
M 235.05 331.65
Q 193.4 331 162.85 303 160.8 301.1 158.85 299.2 173.3 327.75 203.4 336.25 246.95 348.5 282.3 320.65 267.55 328.8 250.9 330.9 242.9 331.9 235.05 331.65 Z"/>

<path fill="#999999" stroke="none" d="
M 218.55 1629.65
Q 195.2 1631.8 178.65 1649.15 149.15 1680.05 144.9 1722.8 140.2 1770.3 180.2 1797.55 217.85 1823.2 261.35 1811.75 283.8 1805.75 300.9 1789.9 330.2 1762.75 332.5 1723.8 332.9 1679.15 297.05 1652.05 262.15 1625.55 218.55 1629.65
M 1833.9 1659.45
Q 1829.75 1653.95 1824.15 1649.6 1787.05 1621.35 1742.2 1631.35 1730.95 1633.75 1721 1639.55 1683.45 1661.6 1674.7 1704.15 1669.6 1729.1 1674.6 1753.95 1676.8 1765.05 1683.95 1774 1713 1810.3 1759.5 1813.1 1804.7 1815.2 1834.95 1781.55 1852.65 1761.95 1856.15 1736.3 1858.75 1717 1853.2 1698.1 1847.05 1677.1 1833.9 1659.45
M 1842.1 183.9
Q 1833.8 170.85 1820.3 163.2 1787.7 144.5 1750.5 151.8 1746.2 152.7 1741.75 152.7 1733.85 152.75 1727.65 157.5 1708.15 172.3 1694 192 1686.35 202.65 1682.2 215.2 1674.7 238 1676.85 261.7 1677.9 273.5 1683 283.75 1707.75 319.55 1750.4 326.55 1795.4 334.15 1828.35 303.2 1861.5 271.95 1856.7 226.05 1854.3 203.1 1842.1 183.9
M 237 151.3
Q 221.55 151.7 208.5 160 178.25 179.05 158.75 209.4 149.05 224.6 146.45 242.15 141.6 274.55 165.9 297.2 185.7 315.7 212.2 322 256.85 333 292.65 304.25 329.8 274.35 323.5 227.9 320.7 207 309.3 189.3 283.8 150 237 151.3 Z"/>
</g>

<g id="Layer1_0_FILL">
<path fill="#000000" stroke="none" d="
M 1985.3 440.4
Q 1986.25 439.75 1985.65 439.1 1933.7 432.15 1860.35 429.7 1851.5 429.4 1846.65 429.65 1839.05 430.05 1833.2 431.8 1830.95 432.5 1830.2 433.55 1829.5 434.55 1829.75 436 1830 437.3 1830.95 438.3 1832.35 439.7 1835.5 440.75 1836.8 441.2 1837.35 441 1837.8 440.85 1838.05 440.35 1838.25 439.9 1838 439.55 1834.85 438.65 1832.5 436.35 1837.85 434.5 1844.8 434 1849.25 433.65 1857.4 433.8 1898.25 434.5 1937.1 437.35
L 1983.45 440.9
Q 1984.45 441 1985.3 440.4
M 1987.6 407.9
Q 1991.3 408.7 1992.15 406.8 1952.35 395.25 1911.2 394.7 1910.35 394.7 1909.7 395.15 1908.95 395.6 1909.3 396.2 1948.95 399.6 1987.6 407.9
M 1724.5 1396.3
Q 1717.95 1397.05 1713.1 1399.15 1712.05 1400.9 1713.1 1402.6 1719.55 1400.9 1727.75 1400.3 1733.05 1399.9 1742.6 1399.85 1885.3 1398.8 2028.05 1409.4 2024.45 1407.25 2019.35 1406.25 2016.05 1405.6 2010 1405.15 1873.2 1394.35 1736.4 1395.75 1728.55 1395.85 1724.5 1396.3
M 1498.85 1299.2
Q 1511.7 1303.6 1528.75 1305.35 1538.75 1306.35 1559.5 1306.9 1810.2 1313.55 2059.8 1343.25 2046.35 1338.8 2029.15 1335.85 2017.7 1333.9 1997.75 1331.6 1887.35 1318.95 1748.65 1310.8 1665.55 1305.9 1498.85 1299.2
M 667.7 702.15
Q 679 701.75 684.9 701.2 694.35 700.3 701.75 698.35 523.1 701 345.4 716.05 288.95 720.8 253.3 725.95 203.05 733.2 162.85 744.85 273.15 724.3 414.25 714.2 494.1 708.45 667.7 702.15
M 25.85 681.25
Q 27.6 681.65 30.85 681.8 70.5 683.6 131.4 681.1 221.5 677.45 231.95 677.25 258.35 676.8 291.35 677.35 311.15 677.65 350.75 678.75
L 449.6 681.45
Q 335.45 669 213.45 672.95 149.45 675.9 117.45 677.35 59.9 679.95 21.45 679.2 23.1 680.65 25.85 681.25 Z"/>
</g>
</defs>

<g transform="matrix( 1, 0, 0, 1, 0,0) ">
<use xlink:href="#Layer2_0_FILL"/>
</g>

<g transform="matrix( 1, 0, 0, 1, 0,0) ">
<use xlink:href="#Layer1_0_FILL"/>
</g>
</svg>
