
<svg xmlns="http://www.w3.org/2000/svg" version="1.1" xmlns:xlink="http://www.w3.org/1999/xlink" preserveAspectRatio="none" x="0px" y="0px" width="2048px" height="2048px" viewBox="0 0 2048 2048">
<defs>
<linearGradient id="Gradient_1" gradientUnits="userSpaceOnUse" x1="-819.2" y1="0" x2="819.2" y2="0" spreadMethod="pad">
<stop  offset="0%" stop-color="#0051A1"/>

<stop  offset="100%" stop-color="#0051A1"/>
</linearGradient>

<g id="Layer2_0_FILL">
<path fill="#000000" stroke="none" d="
M 1439.65 -1.05
Q 1403.6 -1.05 1367.55 -1.05 1331.45 -1.05 1295.4 -1.05 1259.35 -1.05 1223.3 -1.05 1187.2 -1.05 1151.1 -1.05 1112.05 -1.05 1073 -1 1035.65 -1 998.35 -1 961.85 -1 925.4 -1 885.3 -1 845.25 -1 803.95 -1 762.65 -1.15 727.95 -1.25 693.25 -1.4 649.75 -1.55 606.2 -1.7 575.9 -1.8 545.65 -1.85 515.4 -1.9 485.15 -1.95 452.35 -2.05 419.6 -2.15 364.8 -1.75 310.05 -1.55 273.4 -1.45 236.75 -1.45 200 -1.4 163.3 -1.45 132.7 -1.5 102.1 -1.7 65.4 -1.9 28.8 -3 24.25 -3.15 19.55 -2.1 16.6 -1.55 13.75 -0.65 10.9 0.35 8.25 1.75 5.75 3 3.4 4.5 1.5 5.85 0.1 7.85 -1.8 10.6 -2 14 -2.4 21.2 -1.25 28.5 -0.45 33.3 -0.1 38.2 0.2 43.15 0.3 48.1 0.4 53.1 0.35 58.1 -0.05 101.2 -0.25 144.3 -0.45 187.4 -0.45 230.55 -0.45 273.65 -0.45 316.8 -0.45 359.9 -0.55 403 -0.75 489.2 -0.25 575.5 0 618.65 -0.3 661.7 -0.95 748.75 -1.3 835.85 -2.15 1032.05 -2.8 1228.1 -3.75 1531.1 -3.8 1834.1 -3.8 1882.2 -3.8 1930.3 -3.8 1931.95 -3.8 1933.65 -3.8 1935.3 -3.85 1936.95 -3.9 1941.5 -4.15 1946.05 -4.35 1949.75 -4.4 1953.45 -4.45 1956 -4.2 1958.6 -4.05 1960.2 -3.95 1961.8 -3.8 1965.1 -3.8 1968.45 -3.8 1971.75 -3.8 1975.1 -3.8 1978.4 -3.8 1981.7 -3.75 1987.5 -3.75 1993.35 -3.75 2002.45 -3.5 2011.55 -3.35 2018.2 -2.55 2024.8 -2.5248046875 2025.0009765625 -2.5 2025.2 -2.599609375 2025.528515625 -2.7 2025.85 -3 2026.7 -3.25 2027.5 -3.25 2028.35 -3.25 2029.15 -3.55 2030 -3.8 2030.85 -3.55 2031.65 -3.25 2032.5 -3.25 2033.3 -3.25 2034.15 -3.25 2035 -3.25 2035.8 -3 2036.65 -2.7 2037.45 -2.45 2038.3 -2.15 2039.1 -1.6 2039.95 -1.05 2040.8 -0.25 2041.6 0.6 2042.45 1.45 2043.25 2.25 2044.1 3.1 2044.95 3.9 2045.75 5.85 2046.6 7.8 2047.4 10.55 2047.95 13.3 2048.5 15.25 2048.8 17.2 2049.05 17.45 2049.05 17.75 2049.05 22.15 2049.05 26.6 2049.05 32.1 2049.05 37.65 2049.05 38.75 2049.05 39.85 2049.05 47.6 2049.05 55.35 2049.05 56.45 2049.05 57.55 2049.05 58.65 2049.05 59.75 2049.05 60 2049.05 60.3 2049.05 62.25 2049.05 64.15 2049.05 68.6 2049.05 73 2049.05 73.55 2049.05 74.1 2049.05 81.6 2049.05 89.05 2049.05 93.2 2049.05 97.35 2049.05 103.7 2049.05 110.05 2049.05 113.65 2049.05 117.25 2049.05 122.5 2049.05 127.75 2049.05 128.3 2049.05 128.85 2049.05 131.05 2049.05 133.25 2049.05 146.25 2049.05 159.25 2049.05 172.25 2049.05 185.25 2049.05 188 2049.05 190.75 2049.05 191.3 2049.05 191.85 2049.05 192.95 2049.05 194.05 2049.05 196.85 2049.05 199.6 2049.05 220.05 2049.05 240.5 2049.05 243 2049.05 245.5 2049.05 249.9 2049.05 254.3 2049.05 260.7 2048.8 267.05 2048.5 299.35 2048.5 331.7 2048.5 360.75 2048.8 389.75 2049.05 395 2049.35 400.25 2049.65 416.85 2049.9 433.4 2050.2 434.5 2050.2 435.65 2050.2 448.9 2050.2 462.15 2050.2 463 2050.2 463.8 2050.2 488.4 2049.9 513 2049.65 515.25 2049.35 517.45 2049.05 518.25 2048.8 519.1 2048.5 520.2 2048.25 521.3 2047.95 553.1 2047.95 584.9 2047.95 590.95 2047.95 597.05 2047.95 598.15 2047.95 599.25 2047.95 825.9 2048.25 1052.5 2048.5 1054.75 2048.5 1056.95 2048.5 1061.65 2048.5 1066.35 2048.5 1105.85 2048.8 1145.4 2049.05 1147.05 2049.05 1148.7 2049.05 1205.1 2049.05 1261.45 2049.05 1262.55 2049.05 1263.65 2049.05 1387.75 2049.05 1511.85 2049.05 1514.1 2049.05 1516.3 2049.05 1517.65 2049.05 1519.05 2049.05 1533.7 2049.05 1548.35 2049.05 1549.75 2049.05 1551.1 2049.05 1644 2049.35 1736.85 2049.65 1739.05 2049.65 1741.25 2049.65 1744.6 2049.65 1747.9 2049.65 1750.95 2049.65 1754 2049.65 1755.35 2049.65 1756.75 2049.65 1763.35 2049.65 1770 2049.65 1771.1 2049.65 1772.2 2049.65 1776.65 2049.65 1781.05 2049.65 1782.15 2049.65 1783.25 2049.65 1786.3 2049.65 1789.35 2049.65 1907.1 2049.9 2024.85 2050.2 2025.1 2050.2 2025.4 2050.2 2032.85 2050.2 2040.3 2050.2 2042.5 2049.9 2044.75 2049.65 2045.85 2049.35 2046.95 2049.05 2047.75 2048.8 2048.6 2048.5 2049.7 2047.95 2050.8 2047.4 2051.9 2046.6 2053 2045.75 2054.15 2044.95 2055.25 2044.1 2055.8 2043.25 2056.35 2042.45 2056.9 2041.6 2057.45 2040.8 2058 2039.95 2058.55 2039.1 2058.85 2038.3 2059.1 2037.45 2059.4 2036.65 2059.65 2035.8 2059.95 2035 2060.2 2034.15 2060.2 2033.3 2060.2 2032.5 2060.2 2031.65 2060.2 2030.85 2060.2 2030 2060.2 2029.15 2060.2 2029.10390625 2060.2 2029.05 2063.96484375 2021.3884765625 2063.8 2004.3 2063.591015625 1975.7912109375 2063.3 1932.3 2063.0529296875 1888.8529296875 2063.2 1845.75 2063.35 1802.6 2063.5 1759.5 2063.7 1716.35 2063.85 1673.25 2063.95 1630.15 2063.95 1587.05 2063.95 1543.95 2063.8 1500.8 2063.7 1457.7 2063.7 1414.6 2063.75 1371.45 2063.85 1328.35 2064 1285.2 2064.2 1242.1 2064.35 1199 2064.55 1155.9 2064.8 1112.75 2064.05 1069.65 2063.3 1026.6 2063.3 983.4 2063.25 939.45 2063.35 895.55 2063.45 851.6 2063.5 807.65 2063.5 763.7 2063.2 719.75 2062.95 676.6 2062.4 633.5 2061.85 590.4 2061.3 547.3 2060.75 503.35 2060.45 459.4 2060.2 416.25 2060.45 373.15 2060.7 330.15 2058.85 286.95 2057 243.95 2057.5 200.7 2058 157.6 2056.7 114.45 2055.4 71.35 2056.55 28.25 2056.75 20 2054.8 12.1 2051.95 0.8 2040.2 0.15 2005.15 -2.3 1969.8 -1.9 1926.3 -1.4 1882.8 -1.3 1858.6 -1.25 1834.45 -1.2 1790.5 -1.1 1746.55 -1.05 1705 -1.05 1663.45 -1.05 1623.7 -1.05 1583.95 -1.05 1547.9 -1.05 1511.85 -1.05 1475.75 -1.05 1439.65 -1.05
M 1968.45 38.75
Q 1960.75 112.45 1958.05 186.5 1956.85 219.25 1956.95 251.9 1957.05 295.85 1956.9 339.8 1956.8 361.7 1956.5 383.65 1956.25 405.3 1955.85 426.95 1955.45 448.4 1955.05 469.9 1954.25 513.85 1953.75 557.8 1953.25 600.9 1952.75 644 1952.05 709.5 1951.85 775.05 1951.45 904.5 1951.35 1033.75 1951.25 1142.35 1951.3 1250.95 1951.3 1294.05 1951.3 1337.2 1951.3 1381.15 1951.3 1425.1 1951.35 1491.05 1951.3 1556.95 1951.3 1600.9 1951.3 1644.85 1951.3 1688.8 1951.3 1732.75 1951.3 1775.4 1951.3 1818.1 1951.3 1819.75 1951.3 1821.4 1951.3 1823.05 1951.3 1824.75 1951.3 1826.4 1951.3 1828.05 1951.35 1830.5 1951.35 1833 1951.35 1836.3 1951.35 1839.65 1951.35 1850.45 1951.45 1861.15 1951.55 1876.55 1951.05 1891.9 1950.85 1898.05 1950.6 1904.35 1950.5 1907.65 1950.8 1910.95 1951.1 1913.9 1951.4 1916.85 1951.5 1918.05 1951.5 1919.25 1951.4 1926.7 1951.3 1934.2 1943.1 1934.2 1934.95 1934.2 1910.05 1934.25 1885 1934.25 1850.7 1934.2 1816.4 1934.2 1782.05 1934.15 1747.7 1934.15 1713.35 1934.15 1679 1934.15 1644.65 1934.2 1610.3 1934.2 1575.95 1934.25 1541.65 1934.3 1507.3 1934.35 1472.95 1934.45 1421.5 1934.6 1369.95 1934.5 1319.5 1934.4 1269.75 1935 1243.35 1935.3 1216.75 1936 1195.7 1936.55 1174.7 1936.7 1135.7 1937 1096.75 1937.4 1056.6 1937.8 1016.35 1938.2 993.5 1938.45 970.7 1938.8 929.8 1939.45 888.95 1939.9 848 1940.4 807.1 1940.6 779.45 1940.75 751.8 1940.85 716.4 1940.95 681.05 1941.05 645.65 1941.2 610.3 1941.35 578.25 1941.45 546.2 1941.65 506.1 1941.9 466.05 1942.25 409.3 1942.8 352.4 1941.45 303.35 1940.3 254.3 1938.15 231.6 1937.85 209 1937.85 180.25 1937.9 151.5 1937.95 121.25 1938 91 1938.05 75.85 1938.1 60.75 1938.25 45.6 1938.45 30.45 1938.65
L 27.15 37.05 1786.05 36.55 1968.45 38.75
M 2018.2 1997.75
Q 2018.1 1998 2018 1998.3 2014.4 1998.1 2018.2 1997.75
M 1660.1 248.9
Q 1659.7 248.6 1659.3 248.4 1647.25 247.95 1635.2 247.6 1576.9 246.05 1518.55 245.8 1476 245.6 1433.5 245.65 1395.5 245.65 1357.5 245.75 1319.45 245.8 1281.4 245.9 1243.35 245.95 1205.35 246.05 1167.3 246.1 1129.25 246.2 1091.25 246.3 1053.25 246.4 1015.2 246.5 977.15 246.6 901.05 246.75 824.95 247.05 748.9 247.35 672.85 247.65 596.7 248 520.65 248.4 463.6 248.7 406.5 248.55 328 248.35 250.1 250.85
L 247.7 254.3
Q 247.85 257.85 247.8 261.45 247.8 262.35 247.65 263.35 247.6 263.75 247.6 264.25 247.65 265.1 247.6 265.9 246.95 275.05 246.65 284.2 244.5 346.35 244.65 408.6 244.9 538.7 242.85 668.9 241.35 766.6 241.1 864.25 241 896.75 240.75 929.25 240.45 972.35 240.25 1015.5 239.9 1102.15 239.95 1188.8 239.95 1232.3 239.95 1275.85 239.95 1318.95 239.9 1362.1 239.9 1405.2 239.9 1448.35 239.9 1491.45 239.85 1534.55 239.8 1566.9 239.95 1599.25 240.05 1620.8 240.45 1642.4 240.7 1654.15 241.4 1665.95 241.65 1669.65 244.55 1671.95 247.65 1674.5 251.5 1675.25 254.65 1675.8 258.05 1675.25 260 1675 261.75 1673.8 267.05 1670.2 267.65 1663.75
L 369.95 1666.05
Q 370.55 1666.45 371.2 1666.85 371.75 1667.25 372.35 1667.65 372.9 1667.95 373.5 1668.25 374.1 1668.5 374.7 1668.75 375.3 1668.9 375.9 1669.05 376.5 1669.15 377.1 1669.25 377.65 1669.25 378.2 1669.25 378.8 1669.25 379.4 1669.25 380 1669.15 380.6 1669.05 381.2 1668.85 381.8 1668.75 382.35 1668.45 382.95 1668.2 383.55 1667.9 384.15 1667.6 384.75 1667.2 385.3 1666.8 385.95 1666.4 386.5 1665.85 387.1 1665.4 387.65 1664.9 428.4 1665.25 469.2 1665.55 498.85 1665.75 528.5 1665.85 558.15 1665.9 587.8 1665.95 617.4 1666 647.05 1666 681.65 1666.05 716.3 1666.05 755.1 1666.1 793.9 1666.1 833.3 1666.05 872.7 1666.15 910.8 1666.2 948.9 1666.45 986.45 1666.65 1024 1667 1058.3 1667.35 1092.6 1668.05 1131.85 1668.85 1171 1669.15 1212.9 1669.5 1254.85 1669.45 1298.6 1669.4 1342.35 1669.35 1376.75 1669.35 1411.15 1669.35 1454.3 1669.35 1497.5 1669.4 1521.55 1669.45 1545.6 1669.6 1572.1 1669.8 1598.65 1670.15 1624.6 1670.45 1650.6 1671 1652.25 1671.05 1653.9 1671.05 1667.65 1670.95 1670.1 1657.95 1671.6 1650.1 1671.95 1642.2 1673.55 1603.55 1673.45 1564.95 1673.3 1521 1673.15 1477.05 1673 1433.1 1672.7 1389.15 1672.45 1346 1672.65 1302.9 1672.85 1259.8 1672.9 1216.7 1672.95 1173.55 1672.85 1130.45 1672.7 1086.5 1672.65 1042.55 1672.65 999.45 1672.75 956.35 1672.9 913.2 1673 870.1 1673.1 826.95 1673.2 783.85 1673.35 739.9 1673.7 696 1674.05 652.9 1673.3 609.75 1672.5 566.55 1670.85 523.5 1669.2 480.4 1669.15 437.3 1669.05 393.35 1670 349.4 1670.9 305.9 1663.3 263.15 1663.6 262.35 1663.85 261.5 1664.05 260.7 1664.15 259.9 1664.25 259.1 1664.25 258.3 1664.25 257.45 1664.15 256.7 1664.05 255.85 1663.85 255.05 1663.6 254.25 1663.3 253.45 1663 252.65 1662.6 251.9 1662.15 251.1 1661.65 250.3 1661.3 249.85 1660.95 249.45 1660.55 249.1 1660.1 248.9
M 1553.35 772.25
L 1636.8 775.65 1636.8 882.25
Q 1609 877.9 1580.75 876.3 1575.4 876.2 1570.1 876.2 1564.75 876.25 1559.4 876.45 1554 876.65 1548.65 876.95
L 1553.35 772.25
M 1636.8 898.85
L 1637.35 1147.6 1539.1 1148.65
Q 1542.1 1110.6 1542.15 1072.4 1542.15 1046.7 1541.8 1021 1541.1 964.1 1547.15 907.5 1547.45 904.7 1547.85 901.9 1548.25 899.1 1548.65 896.35
L 1636.8 898.85
M 1645.1 268.7
L 1641.2 371.5
Q 1604.3 371.55 1567.4 371.65 1493.65 371.85 1419.8 371.9 1161.65 372 903.5 372.2 700.85 372.35 498.25 372.65 455.5 372.7 412.7 371.5 404.55 371.3 396.45 371.2 390.05 371.1 383.95 372.75 381.9544921875 373.3640625 380.05 374.2 371.4615234375 364.2490234375 360.7 352.05 347.6 337.15 340.85 329.85 329.6 317.75 319.85 308.8 317.25 306.4 311.5 301.35 306.05 296.55 303.2 293.9 296.3 287.55 287.5 278.45 277.85 268.6 275.05 265.85 274.2396484375 265.056640625 273.45 264.3
L 1645.1 268.7
M 1541.1 756.25
Q 1540.05 756.9 1539.95 757.8 1519.4 956.6 1522.3 1156.95 1522.35 1161.2 1524.65 1164.6 1526.45 1167.35 1529.55 1168.2 1529.85 1168.35 1530.2 1168.35
L 1536.45 1163.1
Q 1542.8 1163.85 1549.15 1164.65 1586.8 1168.65 1624.75 1167.85 1631.05 1167.7 1637.35 1167.5
L 1637.9 1645.1 391.4 1651.7
Q 392.05 1577.8 391.9 1504.15 391.9 1495 392 1485.9 392 1483.55 392 1480.9 392 1475 391.9 1469.3 391.8 1461 391.8 1452.7 392.25 1307.55 392.6 1162.5 393.2 907.95 388.2 653.4 385.85 533.25 385.05 413.15 385.0015625 402.7537109375 384.8 392.35 385.2171875 392.215625 385.6 392 385.88515625 391.84453125 386.15 391.65
L 1641.2 394.7 1636.8 754.6
Q 1615.05 753.85 1593.45 751.95 1573.75 749.85 1554.5 754.45 1551.35 755.25 1548.2 756.05 1547.8 755.85 1547.45 755.7 1545.45 754.8 1543.45 755.2 1542.25 755.5 1541.1 756.25
M 337.15 346.8
Q 350.1 360.25 354.15 365 357.8 369.25 364.85 377.9 368.7380859375 382.430859375 372.3 385.8 371.6357421875 395.008984375 371.3 404.2 370.3 431.05 370.15 457.75 369.95 501.7 369.5 545.65 369.2 578.6 368.6 611.6 368 644.1 367.45 676.65 366.5 730.7 365.35 784.6 364.4 827.55 364.35 870.65 364.3 946.05 364.3 1021.6 364.25 1237.1 364.25 1452.7 364.25 1473.45 364.55 1494.2 364.7 1502.95 364.3 1511.65 364.15 1515.3 364.15 1519.05 364.25 1542.35 364.3 1565.5 364.45 1608.55 364.3 1651.7
L 268.15 1652.25
Q 268.35 1650 268.5 1647.7 268.8 1643.2 268.8 1638.65 268.95 1614.45 268.9 1590.25 268.75 1546.25 268.75 1502.25 268.7 1436.3 268.7 1370.35 268.7 1326.4 268.7 1282.45 268.7 1239.35 268.7 1196.25 268.7 1153.1 268.7 1110 268.65 1045.35 268.1 980.75 267.35 894.55 267.4 808.2 267.4 754.25 266.45 700.5 264.35 584.35 263.9 468.25 263.85 449.1 263.3 430.1 263.15 424.35 263.15 418.5 263.15 415.15 263.15 411.85 263 381.15 263.4 350.5 263.952734375 310.7099609375 261.4 271.05 263.152734375 272.66796875 265.4 275.25 266.7 276.8 269.3 279.9 273.2 284.45 281.95 292.6
L 312.1 320.75
Q 317.9 326.1 320.75 328.2 326.4 335.6 337.15 346.8
M 1422.95 1423.95
Q 1407.8 1442.55 1401.5 1465.65 1389.85 1508.35 1402.5 1551 1415.6 1595.15 1459 1612.05 1491.25 1624.5 1524.35 1614.05 1567.35 1600.45 1595.65 1565.15 1607.25 1550.7 1613.1 1533.2 1627.3 1490.85 1612.8 1448.2 1600.35 1411.5 1567.3 1391.7 1527.75 1367.95 1483.2 1378.95 1447.6 1393.75 1422.95 1423.95
M 1419.3 1540.9
Q 1425.35 1549 1432.65 1555.9 1468.2 1589.65 1517.3 1585.75 1554.85 1583.1 1579.75 1555.15 1572.4 1566.8 1562.2 1575.85 1535.9 1599.25 1501 1598.3 1456.2 1597.1 1429.55 1561.15
L 1419.3 1540.9
M 1426.9 1540.3
Q 1419.75 1531.35 1417.55 1520.25 1412.55 1495.4 1417.65 1470.45 1426.4 1427.9 1463.95 1405.85 1473.9 1400.05 1485.15 1397.65 1530 1387.65 1567.1 1415.9 1572.7 1420.25 1576.85 1425.75 1590 1443.4 1596.15 1464.4 1601.7 1483.3 1599.1 1502.6 1595.6 1528.25 1577.9 1547.85 1547.65 1581.5 1502.45 1579.4 1455.95 1576.6 1426.9 1540.3
M 573.2 1379.85
Q 541.15 1367.95 508.2 1376.85 464.15 1388.6 442.85 1428.85 439.8 1434.5 436.6 1440.1 429.65 1452.35 427.3 1466.3 422 1497.2 428.85 1527.9 435.45 1557.25 457.05 1577.75 479.95 1599.45 510.3 1609.15 540.95 1619 569.3 1604.3 587.7 1594.85 602.9 1580.6 620.15 1564.4 630.15 1543.15 648.95 1503.05 643.25 1459.2 638.85 1425.5 613.3 1403.6 595.4 1388.2 573.2 1379.85
M 441.9 1483.2
Q 446.15 1440.45 475.65 1409.55 492.2 1392.2 515.55 1390.05 559.15 1385.95 594.05 1412.45 629.9 1439.55 629.5 1484.2 627.2 1523.15 597.9 1550.3 580.8 1566.15 558.35 1572.15 514.85 1583.6 477.2 1557.95 437.2 1530.7 441.9 1483.2
M 456.65 1557.5
L 446.4 1537.25
Q 476.6 1578.35 527.25 1582.75 549.85 1584.85 570.75 1576.2 597.5 1565.2 615.7 1542.3 614.6 1544.25 613.35 1546.15 598.9 1568.55 576.05 1582.55 553.95 1596.1 528.1 1595.6 483.35 1593.35 456.65 1557.5
M 616.65 590.75
Q 644.55 555.25 644.5 510.05 644.45 466.3 613.5 435.35 581.9 403.7 536.9 404 491.05 404.3 462.55 440.75 459.7 444.95 457.15 449.35 448.1 464.7 439.75 480.4 418.1 520.95 433.3 565 442.75 592.35 464.5 611.25 498.45 640.7 543.5 633.75 588.45 626.6 616.65 590.75
M 507.55 437
Q 520.6 428.7 536.05 428.3 582.85 427 608.35 466.3 619.75 484 622.55 504.9 628.85 551.35 591.7 581.25 555.9 610 511.25 599 484.75 592.7 464.95 574.2 440.65 551.55 445.5 519.15 448.1 501.6 457.8 486.4 477.3 456.05 507.55 437
M 457.9 576.2
Q 459.85 578.1 461.9 580 492.45 608 534.1 608.65 541.95 608.9 549.95 607.9 566.6 605.8 581.35 597.65 546 625.5 502.45 613.25 472.35 604.75 457.9 576.2
M 1600.65 583.65
Q 1621.55 544.6 1618.1 500.2 1615.2 463 1588.3 437.9 1554.8 406.6 1509.05 410.45 1463.85 414.5 1435.5 449.3 1425.5 461.3 1418.8 475.4 1400.25 514.3 1406.45 556.85 1412.85 601.05 1449.35 625.75 1464.6 636.1 1481.7 643.75 1510.1 656.5 1538.3 643.1 1579.2 623.8 1600.65 583.65
M 1561.2 445.25
Q 1574.7 452.9 1583 465.95 1595.2 485.15 1597.6 508.1 1602.4 554 1569.25 585.25 1536.3 616.2 1491.3 608.6 1448.65 601.6 1423.9 565.8 1418.8 555.55 1417.75 543.75 1415.6 520.05 1423.1 497.25 1427.25 484.7 1434.9 474.05 1449.05 454.35 1468.55 439.55 1474.75 434.8 1482.65 434.75 1487.1 434.75 1491.4 433.85 1528.6 426.55 1561.2 445.25
M 1428.1 581.9
Q 1430.1 584 1432.15 586.05 1463.4 616.35 1507 617.15 1516 617.5 1524.7 616.1 1543.5 613.45 1559.25 603.1 1548.85 613.7 1535.3 619.9 1501.15 635.85 1465.95 620.2 1439.35 608.4 1428.1 581.9 Z"/>

<path fill="#0066CC" stroke="none" d="
M 1958.05 186.5
Q 1960.75 112.45 1968.45 38.75
L 1786.05 36.55 27.15 37.05 30.45 1938.65
Q 45.6 1938.45 60.75 1938.25 75.85 1938.1 91 1938.05 121.25 1938 151.5 1937.95 180.25 1937.9 209 1937.85 231.6 1937.85 254.3 1938.15 303.35 1940.3 352.4 1941.45 409.3 1942.8 466.05 1942.25 506.1 1941.9 546.2 1941.65 578.25 1941.45 610.3 1941.35 645.65 1941.2 681.05 1941.05 716.4 1940.95 751.8 1940.85 779.45 1940.75 807.1 1940.6 848 1940.4 888.95 1939.9 929.8 1939.45 970.7 1938.8 993.5 1938.45 1016.35 1938.2 1056.6 1937.8 1096.75 1937.4 1135.7 1937 1174.7 1936.7 1195.7 1936.55 1216.75 1936 1243.35 1935.3 1269.75 1935 1319.5 1934.4 1369.95 1934.5 1421.5 1934.6 1472.95 1934.45 1507.3 1934.35 1541.65 1934.3 1575.95 1934.25 1610.3 1934.2 1644.65 1934.2 1679 1934.15 1713.35 1934.15 1747.7 1934.15 1782.05 1934.15 1816.4 1934.2 1850.7 1934.2 1885 1934.25 1910.05 1934.25 1934.95 1934.2 1943.1 1934.2 1951.3 1934.2 1951.4 1926.7 1951.5 1919.25 1951.5 1918.05 1951.4 1916.85 1951.1 1913.9 1950.8 1910.95 1950.5 1907.65 1950.6 1904.35 1950.85 1898.05 1951.05 1891.9 1951.55 1876.55 1951.45 1861.15 1951.35 1850.45 1951.35 1839.65 1951.35 1836.3 1951.35 1833 1951.35 1830.5 1951.3 1828.05 1951.3 1826.4 1951.3 1824.75 1951.3 1823.05 1951.3 1821.4 1951.3 1819.75 1951.3 1818.1 1951.3 1775.4 1951.3 1732.75 1951.3 1688.8 1951.3 1644.85 1951.3 1600.9 1951.3 1556.95 1951.35 1491.05 1951.3 1425.1 1951.3 1381.15 1951.3 1337.2 1951.3 1294.05 1951.3 1250.95 1951.25 1142.35 1951.35 1033.75 1951.45 904.5 1951.85 775.05 1952.05 709.5 1952.75 644 1953.25 600.9 1953.75 557.8 1954.25 513.85 1955.05 469.9 1955.45 448.4 1955.85 426.95 1956.25 405.3 1956.5 383.65 1956.8 361.7 1956.9 339.8 1957.05 295.85 1956.95 251.9 1956.85 219.25 1958.05 186.5
M 1659.3 248.4
Q 1659.7 248.6 1660.1 248.9 1660.55 249.1 1660.95 249.45 1661.3 249.85 1661.65 250.3 1662.15 251.1 1662.6 251.9 1663 252.65 1663.3 253.45 1663.6 254.25 1663.85 255.05 1664.05 255.85 1664.15 256.7 1664.25 257.45 1664.25 258.3 1664.25 259.1 1664.15 259.9 1664.05 260.7 1663.85 261.5 1663.6 262.35 1663.3 263.15 1670.9 305.9 1670 349.4 1669.05 393.35 1669.15 437.3 1669.2 480.4 1670.85 523.5 1672.5 566.55 1673.3 609.75 1674.05 652.9 1673.7 696 1673.35 739.9 1673.2 783.85 1673.1 826.95 1673 870.1 1672.9 913.2 1672.75 956.35 1672.65 999.45 1672.65 1042.55 1672.7 1086.5 1672.85 1130.45 1672.95 1173.55 1672.9 1216.7 1672.85 1259.8 1672.65 1302.9 1672.45 1346 1672.7 1389.15 1673 1433.1 1673.15 1477.05 1673.3 1521 1673.45 1564.95 1673.55 1603.55 1671.95 1642.2 1671.6 1650.1 1670.1 1657.95 1667.65 1670.95 1653.9 1671.05 1652.25 1671.05 1650.6 1671 1624.6 1670.45 1598.65 1670.15 1572.1 1669.8 1545.6 1669.6 1521.55 1669.45 1497.5 1669.4 1454.3 1669.35 1411.15 1669.35 1376.75 1669.35 1342.35 1669.35 1298.6 1669.4 1254.85 1669.45 1212.9 1669.5 1171 1669.15 1131.85 1668.85 1092.6 1668.05 1058.3 1667.35 1024 1667 986.45 1666.65 948.9 1666.45 910.8 1666.2 872.7 1666.15 833.3 1666.05 793.9 1666.1 755.1 1666.1 716.3 1666.05 681.65 1666.05 647.05 1666 617.4 1666 587.8 1665.95 558.15 1665.9 528.5 1665.85 498.85 1665.75 469.2 1665.55 428.4 1665.25 387.65 1664.9 387.1 1665.4 386.5 1665.85 385.95 1666.4 385.3 1666.8 384.75 1667.2 384.15 1667.6 383.55 1667.9 382.95 1668.2 382.35 1668.45 381.8 1668.75 381.2 1668.85 380.6 1669.05 380 1669.15 379.4 1669.25 378.8 1669.25 378.2 1669.25 377.65 1669.25 377.1 1669.25 376.5 1669.15 375.9 1669.05 375.3 1668.9 374.7 1668.75 374.1 1668.5 373.5 1668.25 372.9 1667.95 372.35 1667.65 371.75 1667.25 371.2 1666.85 370.55 1666.45 369.95 1666.05
L 267.65 1663.75
Q 267.05 1670.2 261.75 1673.8 260 1675 258.05 1675.25 254.65 1675.8 251.5 1675.25 247.65 1674.5 244.55 1671.95 241.65 1669.65 241.4 1665.95 240.7 1654.15 240.45 1642.4 240.05 1620.8 239.95 1599.25 239.8 1566.9 239.85 1534.55 239.9 1491.45 239.9 1448.35 239.9 1405.2 239.9 1362.1 239.95 1318.95 239.95 1275.85 239.95 1232.3 239.95 1188.8 239.9 1102.15 240.25 1015.5 240.45 972.35 240.75 929.25 241 896.75 241.1 864.25 241.35 766.6 242.85 668.9 244.9 538.7 244.65 408.6 244.5 346.35 246.65 284.2 246.95 275.05 247.6 265.9 247.65 265.1 247.6 264.25 247.6 263.75 247.65 263.35 247.8 262.35 247.8 261.45 247.85 257.85 247.7 254.3
L 250.1 250.85
Q 328 248.35 406.5 248.55 463.6 248.7 520.65 248.4 596.7 248 672.85 247.65 748.9 247.35 824.95 247.05 901.05 246.75 977.15 246.6 1015.2 246.5 1053.25 246.4 1091.25 246.3 1129.25 246.2 1167.3 246.1 1205.35 246.05 1243.35 245.95 1281.4 245.9 1319.45 245.8 1357.5 245.75 1395.5 245.65 1433.5 245.65 1476 245.6 1518.55 245.8 1576.9 246.05 1635.2 247.6 1647.25 247.95 1659.3 248.4
M 1417.55 1520.25
Q 1419.75 1531.35 1426.9 1540.3 1455.95 1576.6 1502.45 1579.4 1547.65 1581.5 1577.9 1547.85 1595.6 1528.25 1599.1 1502.6 1601.7 1483.3 1596.15 1464.4 1590 1443.4 1576.85 1425.75 1572.7 1420.25 1567.1 1415.9 1530 1387.65 1485.15 1397.65 1473.9 1400.05 1463.95 1405.85 1426.4 1427.9 1417.65 1470.45 1412.55 1495.4 1417.55 1520.25
M 475.65 1409.55
Q 446.15 1440.45 441.9 1483.2 437.2 1530.7 477.2 1557.95 514.85 1583.6 558.35 1572.15 580.8 1566.15 597.9 1550.3 627.2 1523.15 629.5 1484.2 629.9 1439.55 594.05 1412.45 559.15 1385.95 515.55 1390.05 492.2 1392.2 475.65 1409.55
M 536.05 428.3
Q 520.6 428.7 507.55 437 477.3 456.05 457.8 486.4 448.1 501.6 445.5 519.15 440.65 551.55 464.95 574.2 484.75 592.7 511.25 599 555.9 610 591.7 581.25 628.85 551.35 622.55 504.9 619.75 484 608.35 466.3 582.85 427 536.05 428.3
M 1583 465.95
Q 1574.7 452.9 1561.2 445.25 1528.6 426.55 1491.4 433.85 1487.1 434.75 1482.65 434.75 1474.75 434.8 1468.55 439.55 1449.05 454.35 1434.9 474.05 1427.25 484.7 1423.1 497.25 1415.6 520.05 1417.75 543.75 1418.8 555.55 1423.9 565.8 1448.65 601.6 1491.3 608.6 1536.3 616.2 1569.25 585.25 1602.4 554 1597.6 508.1 1595.2 485.15 1583 465.95 Z"/>

<path fill="#00468C" stroke="none" d="
M 354.15 365
Q 350.1 360.25 337.15 346.8 326.4 335.6 320.75 328.2 317.9 326.1 312.1 320.75
L 281.95 292.6
Q 273.2 284.45 269.3 279.9 266.7 276.8 265.4 275.25 263.152734375 272.66796875 261.4 271.05 263.952734375 310.7099609375 263.4 350.5 263 381.15 263.15 411.85 263.15 415.15 263.15 418.5 263.15 424.35 263.3 430.1 263.85 449.1 263.9 468.25 264.35 584.35 266.45 700.5 267.4 754.25 267.4 808.2 267.35 894.55 268.1 980.75 268.65 1045.35 268.7 1110 268.7 1153.1 268.7 1196.25 268.7 1239.35 268.7 1282.45 268.7 1326.4 268.7 1370.35 268.7 1436.3 268.75 1502.25 268.75 1546.25 268.9 1590.25 268.95 1614.45 268.8 1638.65 268.8 1643.2 268.5 1647.7 268.35 1650 268.15 1652.25
L 364.3 1651.7
Q 364.45 1608.55 364.3 1565.5 364.25 1542.35 364.15 1519.05 364.15 1515.3 364.3 1511.65 364.7 1502.95 364.55 1494.2 364.25 1473.45 364.25 1452.7 364.25 1237.1 364.3 1021.6 364.3 946.05 364.35 870.65 364.4 827.55 365.35 784.6 366.5 730.7 367.45 676.65 368 644.1 368.6 611.6 369.2 578.6 369.5 545.65 369.95 501.7 370.15 457.75 370.3 431.05 371.3 404.2 371.6357421875 395.008984375 372.3 385.8 368.7380859375 382.430859375 364.85 377.9 357.8 369.25 354.15 365
M 1432.65 1555.9
Q 1425.35 1549 1419.3 1540.9
L 1429.55 1561.15
Q 1456.2 1597.1 1501 1598.3 1535.9 1599.25 1562.2 1575.85 1572.4 1566.8 1579.75 1555.15 1554.85 1583.1 1517.3 1585.75 1468.2 1589.65 1432.65 1555.9
M 446.4 1537.25
L 456.65 1557.5
Q 483.35 1593.35 528.1 1595.6 553.95 1596.1 576.05 1582.55 598.9 1568.55 613.35 1546.15 614.6 1544.25 615.7 1542.3 597.5 1565.2 570.75 1576.2 549.85 1584.85 527.25 1582.75 476.6 1578.35 446.4 1537.25
M 461.9 580
Q 459.85 578.1 457.9 576.2 472.35 604.75 502.45 613.25 546 625.5 581.35 597.65 566.6 605.8 549.95 607.9 541.95 608.9 534.1 608.65 492.45 608 461.9 580
M 1432.15 586.05
Q 1430.1 584 1428.1 581.9 1439.35 608.4 1465.95 620.2 1501.15 635.85 1535.3 619.9 1548.85 613.7 1559.25 603.1 1543.5 613.45 1524.7 616.1 1516 617.5 1507 617.15 1463.4 616.35 1432.15 586.05
M 1641.2 371.5
L 1645.1 268.7 273.45 264.3
Q 274.2396484375 265.056640625 275.05 265.85 277.85 268.6 287.5 278.45 296.3 287.55 303.2 293.9 306.05 296.55 311.5 301.35 317.25 306.4 319.85 308.8 329.6 317.75 340.85 329.85 347.6 337.15 360.7 352.05 371.4615234375 364.2490234375 380.05 374.2 381.9544921875 373.3640625 383.95 372.75 390.05 371.1 396.45 371.2 404.55 371.3 412.7 371.5 455.5 372.7 498.25 372.65 700.85 372.35 903.5 372.2 1161.65 372 1419.8 371.9 1493.65 371.85 1567.4 371.65 1604.3 371.55 1641.2 371.5
M 1636.8 775.65
L 1553.35 772.25 1548.65 876.95
Q 1554 876.65 1559.4 876.45 1564.75 876.25 1570.1 876.2 1575.4 876.2 1580.75 876.3 1609 877.9 1636.8 882.25
L 1636.8 775.65 Z"/>

<path fill="url(#Gradient_1)" stroke="none" d="
M 1539.95 757.8
Q 1540.05 756.9 1541.1 756.25 1542.25 755.5 1543.45 755.2 1545.45 754.8 1547.45 755.7 1547.8 755.85 1548.2 756.05 1551.35 755.25 1554.5 754.45 1573.75 749.85 1593.45 751.95 1615.05 753.85 1636.8 754.6
L 1641.2 394.7 386.15 391.65
Q 385.88515625 391.84453125 385.6 392 385.2171875 392.215625 384.8 392.35 385.0015625 402.7537109375 385.05 413.15 385.85 533.25 388.2 653.4 393.2 907.95 392.6 1162.5 392.25 1307.55 391.8 1452.7 391.8 1461 391.9 1469.3 392 1475 392 1480.9 392 1483.55 392 1485.9 391.9 1495 391.9 1504.15 392.05 1577.8 391.4 1651.7
L 1637.9 1645.1 1637.35 1167.5
Q 1631.05 1167.7 1624.75 1167.85 1586.8 1168.65 1549.15 1164.65 1542.8 1163.85 1536.45 1163.1
L 1530.2 1168.35
Q 1529.85 1168.35 1529.55 1168.2 1526.45 1167.35 1524.65 1164.6 1522.35 1161.2 1522.3 1156.95 1519.4 956.6 1539.95 757.8
M 1618.1 500.2
Q 1621.55 544.6 1600.65 583.65 1579.2 623.8 1538.3 643.1 1510.1 656.5 1481.7 643.75 1464.6 636.1 1449.35 625.75 1412.85 601.05 1406.45 556.85 1400.25 514.3 1418.8 475.4 1425.5 461.3 1435.5 449.3 1463.85 414.5 1509.05 410.45 1554.8 406.6 1588.3 437.9 1615.2 463 1618.1 500.2
M 644.5 510.05
Q 644.55 555.25 616.65 590.75 588.45 626.6 543.5 633.75 498.45 640.7 464.5 611.25 442.75 592.35 433.3 565 418.1 520.95 439.75 480.4 448.1 464.7 457.15 449.35 459.7 444.95 462.55 440.75 491.05 404.3 536.9 404 581.9 403.7 613.5 435.35 644.45 466.3 644.5 510.05
M 508.2 1376.85
Q 541.15 1367.95 573.2 1379.85 595.4 1388.2 613.3 1403.6 638.85 1425.5 643.25 1459.2 648.95 1503.05 630.15 1543.15 620.15 1564.4 602.9 1580.6 587.7 1594.85 569.3 1604.3 540.95 1619 510.3 1609.15 479.95 1599.45 457.05 1577.75 435.45 1557.25 428.85 1527.9 422 1497.2 427.3 1466.3 429.65 1452.35 436.6 1440.1 439.8 1434.5 442.85 1428.85 464.15 1388.6 508.2 1376.85
M 1401.5 1465.65
Q 1407.8 1442.55 1422.95 1423.95 1447.6 1393.75 1483.2 1378.95 1527.75 1367.95 1567.3 1391.7 1600.35 1411.5 1612.8 1448.2 1627.3 1490.85 1613.1 1533.2 1607.25 1550.7 1595.65 1565.15 1567.35 1600.45 1524.35 1614.05 1491.25 1624.5 1459 1612.05 1415.6 1595.15 1402.5 1551 1389.85 1508.35 1401.5 1465.65 Z"/>

<path fill="#003F7D" stroke="none" d="
M 1637.35 1147.6
L 1636.8 898.85 1548.65 896.35
Q 1548.25 899.1 1547.85 901.9 1547.45 904.7 1547.15 907.5 1541.1 964.1 1541.8 1021 1542.15 1046.7 1542.15 1072.4 1542.1 1110.6 1539.1 1148.65
L 1637.35 1147.6 Z"/>
</g>

<g id="Layer1_0_FILL">
<path fill="#000000" stroke="none" d="
M 1315.45 917.8
Q 1314.85 919.1 1314.8 920.9 1314.47265625 937.2580078125 1313.45 953.5 1298.7396484375 954.4880859375 1278.65 955.4 1241.3 957.1 1223.5 958.7 1221.2373046875 958.900390625 1218.85 959.1 1220.11875 953.8853515625 1221.65 947.05 1229 913.65 1231.6 900.45 1232.35 896.9 1233.15 895.05 1234.45 892.15 1236.6 891 1236.7 889.9 1236.1 888.95 1235.55 887.95 1234.55 887.45 1232.75 889.6 1231.6 892.9 1230.85 894.95 1229.95 898.95
L 1221.35 937.3
Q 1218.4849609375 950.126171875 1216.2 959.35 1209.5369140625 960.0408203125 1201.9 960.9
L 1171.2 964.25
Q 1169.45 964.45 1168.25 965.1 1166.8 965.95 1166.95 967.25 1197.8369140625 963.865625 1215.5 962.15 1213.957421875 968.3685546875 1212.7 972.75 1210.8 979.5 1206.5 992.9 1203.428125 1002.5134765625 1201.45 1009.15 1026.5705078125 1012.6037109375 853.25 1037.35 837.6 1039.55 828.4 1041.3 814.8 1043.9 804.05 1047.35 935.25 1025.95 1068.15 1017.35 1134.380859375 1013.0626953125 1200.6 1011.95 1199.708984375 1015.1900390625 1199.1 1017.55 1198.3 1020.75 1195.75 1031.65 1192.65 1045.4 1191.35 1051.85 1189.1 1063.15 1187.85 1072.2 1187.45 1075.35 1188.65 1076.5
L 1197.4 1034.5
Q 1199.3 1025.55 1200.5 1020.3 1201.571875 1015.8201171875 1202.6 1011.95 1255.1203125 1011.1302734375 1307.65 1012.3 1307.121875 1016.2154296875 1306.55 1020.1 1308 1019.35 1308.8 1017.4 1309.3 1016.1 1309.65 1013.7 1309.7369140625 1013.03828125 1309.8 1012.35 1321.8638671875 1012.660546875 1333.9 1013.05 1322.40390625 1011.7611328125 1310 1010.85 1313.5439453125 983.4583984375 1315.5 956 1324.6693359375 955.2814453125 1332.1 954.1 1333.05 953.95 1333.75 953.2 1334.45 952.45 1333.8 951.95 1326.1865234375 952.6791015625 1315.7 953.35 1316.979296875 934.846875 1317.55 916.3 1316.2 916.25 1315.45 917.8
M 1303.75 956.8
Q 1308.7337890625 956.5568359375 1313.3 956.2 1311.5365234375 983.5603515625 1307.85 1010.7 1291.4349609375 1009.5435546875 1273.45 1009.05 1248 1008.4 1212.8 1008.95 1208.068359375 1009.024609375 1203.35 1009.1 1203.773828125 1007.4978515625 1204.2 1006 1206.45 998.4 1208.85 991.2
L 1212.55 980.5
Q 1214.75 974.1 1216.05 969.75 1216.980078125 966.5921875 1218.15 961.9 1219.65546875 961.7775390625 1221.05 961.65 1251.1 958.85 1275.2 957.9 1284.7 957.5 1303.75 956.8
M 1525.2 116
Q 1528.8 116 1529.6 114.25 1477.2 114 1411.3 118.95 1374.25 121.75 1293.25 129.9 1282.25 130.95 1277 131.15 1267.9 131.5 1260.8 130.35 1262.4 128.4 1262.3 125.9 1260.5 124.6 1258.9 126.9 1257.35 129.2 1258.65 131.05 1259.8 132.7 1262.25 133.3 1263.95 133.75 1266.85 133.75 1279.55 133.65 1295.95 132.2 1302.3 131.65 1324.95 129.25 1424.45 118.5 1525.2 116
M 1687.1 85.2
Q 1665.8 84.75 1623.3 84.85
L 1496.05 85.15
Q 1476.35 85.2 1466.5 85.35 1450.1 85.6 1437 86.35 1404.35 88.15 1372.2 93.7 1437.55 88.8 1519.4 87.75 1568.55 87.1 1666.8 87.85
L 1750.7 88.5
Q 1722.5 85.95 1687.1 85.2
M 60.9 1811.95
Q 57.15 1816.95 50.3 1827.45
L 24.6 1866.7
Q 21.95 1870.8 20.9 1873.2 19.2 1877 19.4 1880.3 26.65 1867.2 36.75 1851.65 43.2 1841.7 55.45 1823.8
L 73.15 1797.85
Q 67.1 1803.55 60.9 1811.95
M 201.6 1613.7
Q 197.7 1619.4 190.1 1630.95 175.15 1652.2 158.25 1655.85 155.45 1656.45 149.65 1657 143.85 1657.5 141 1658.15 134.6 1659.6 127.85 1663.8 122.85 1666.95 116.3 1672.65 92.7 1693.15 69.15 1724.25 54.8 1743.2 29.3 1782.25
L 14.15 1805.5
Q 12.8 1807.55 12.25 1808.7 11.4 1810.55 11.4 1812.2
L 44.45 1764.45
Q 66.4 1732.7 78.6 1717.25 98.6 1691.85 118.1 1674.85 124.15 1669.55 128.85 1666.55 135.1 1662.55 141.1 1661.15 144.1 1660.45 152 1659.85 158.95 1659.3 162.75 1658.05 167.65 1656.45 172.55 1652.55 176.2 1649.65 180.75 1644.6 189.4 1635.1 198.65 1621.9 204.2 1614.1 214.75 1597.8 208.55 1603.6 201.6 1613.7
M 1101.1 1820.85
Q 1044.85 1825.8 1004.65 1827.8 941.05 1830.15 909.35 1832.25 854.7 1835.9 815.2 1844.85 965.25 1833.75 1228.25 1815.3
L 1390.35 1803.9
Q 1315.05 1801.95 1197.45 1812.2 1133.2 1818.05 1101.1 1820.85
M 1243.8 1755.6
Q 1093.95 1770.1 971.65 1794.55 1140.4 1766.35 1352.2 1751.85 1486 1742.65 1735.3 1734.15 1686.7 1731 1626.9 1732.2 1587.2 1733 1518.5 1736.55 1351.8 1745.2 1243.8 1755.6
M 1677.65 1374.55
Q 1675.7 1374.65 1675.5 1375.65 1719.15 1377.55 1762.75 1374.45 1763.95 1374.35 1764.75 1373.9 1765.75 1373.35 1765.6 1372.45
L 1677.65 1374.55
M 1828.5 1315.7
Q 1829.4 1315.05 1829.15 1314.25 1780.45 1318.9 1730.55 1326.6 1720.8 1328.1 1717.3 1328.55 1709.85 1329.5 1703.95 1329.7 1697 1329.9 1677.25 1328.45 1660.5 1327.2 1650.6 1328.45 1648.9 1328.7 1647.75 1329.45 1646.3 1330.4 1646.65 1331.7 1657.55 1330.05 1675.25 1331.05 1698.4 1332.35 1704 1332.25 1713.25 1332.1 1728.95 1330.1
L 1826.6 1316.35
Q 1827.75 1316.15 1828.5 1315.7
M 301.3 819.6
L 301.15 818.4 275.7 803.25
Q 271.4 800.7 269.3 799.6 265.7 797.7 262.6 796.7 260.85 796.15 260.1 795.85 258.8 795.25 258.05 794.4 257.15 793.3 256.7 793.2 256.15 793.1 255.75 793.6 255.3 794.1 255.35 794.7 255.4 795.55 256.5 796.65 258.3 798.3 261.3 799.75 263.05 800.6 266.6 802.05 270.85 803.9 279 808.9
L 286 813.1
Q 290.55 815.95 293.35 817.25 297.55 819.2 301.3 819.6
M 251.05 796.65
Q 251.15 795.6 250.55 794.95 216.45 809.35 184.45 827.3 180.45 829.55 180.75 831.95
L 183.3 832.6
Q 213.95 813.95 247.2 800.35 249.6 799.3 250.35 798.4 251 797.65 251.05 796.65
M 163.5 869.35
Q 185.6 866.25 196.55 864.2 199.5 863.65 210.3 861.4
L 224.9 858.35
Q 234.8 856.35 240.15 854.6 241 854.35 241.55 853.7 242.1 853 241.6 852.5 234.45 852.9 221.75 855.2
L 114.35 874.6
Q 113.95 875.2 114.75 875.7 115.55 876.15 116.4 876
L 163.5 869.35
M 347.65 916.5
Q 340.15 907.1 336.3 902.45 329.65 894.4 324.2 889.1 321.2 886.25 318.85 884.3 317.05 882.75 313.3 879.8 309.55 876.8 307.7 875.25 303.15 871.4 297.65 865.9 295.7 863.9 288.15 856 273.25 840.3 258.3 825.9 260.45 830.3 264.2 835.05 266.6 838.1 271.45 843.3 282.2 854.95 287.4 860.3 296.5 869.55 304.4 876.15 307.25 878.55 313 883.3 320.2 889.45 326.6 896.45 331.2 901.5 337.6 909.65 347.55 922.25 348.25 923.15 358.6 935.95 370.55 947.75 372.5 949.7 373.85 950.05 374.9 950.35 375.95 950 377 949.65 377.4 948.75 361.35 933.3 347.65 916.5 Z"/>
</g>
</defs>

<g transform="matrix( 1, 0, 0, 1, 0,0) ">
<use xlink:href="#Layer2_0_FILL"/>
</g>

<g transform="matrix( 1, 0, 0, 1, 0,0) ">
<use xlink:href="#Layer1_0_FILL"/>
</g>
</svg>
