
<svg xmlns="http://www.w3.org/2000/svg" version="1.1" xmlns:xlink="http://www.w3.org/1999/xlink" preserveAspectRatio="none" x="0px" y="0px" width="2048px" height="2048px" viewBox="0 0 2048 2048">
<defs>
<g id="Layer2_0_FILL">
<path fill="#000000" stroke="none" d="
M 1439.65 -1.05
Q 1403.6 -1.05 1367.55 -1.05 1331.45 -1.05 1295.4 -1.05 1259.35 -1.05 1223.3 -1.05 1187.2 -1.05 1151.1 -1.05 1112.05 -1.05 1073 -1 1035.65 -1 998.35 -1 961.85 -1 925.4 -1 885.3 -1 845.25 -1 803.95 -1 762.65 -1.15 727.95 -1.25 693.25 -1.4 649.75 -1.55 606.2 -1.7 575.9 -1.8 545.65 -1.85 515.4 -1.9 485.15 -1.95 452.35 -2.05 419.6 -2.15 364.8 -1.75 310.05 -1.55 273.4 -1.45 236.75 -1.45 200 -1.4 163.3 -1.45 132.7 -1.5 102.1 -1.7 65.4 -1.9 28.8 -3 24.25 -3.15 19.55 -2.1 16.6 -1.55 13.75 -0.65 10.9 0.35 8.25 1.75 5.75 3 3.4 4.5 1.5 5.85 0.1 7.85 -1.8 10.6 -2 14 -2.4 21.2 -1.25 28.5 -0.45 33.3 -0.1 38.2 0.2 43.15 0.3 48.1 0.4 53.1 0.35 58.1 -0.05 101.2 -0.25 144.3 -0.45 187.4 -0.45 230.55 -0.45 273.65 -0.45 316.8 -0.45 359.9 -0.55 403 -0.75 489.2 -0.25 575.5 0 618.65 -0.3 661.7 -0.95 748.75 -1.3 835.85 -2.15 1032.05 -2.8 1228.1 -3.75 1531.1 -3.8 1834.1 -3.8 1882.2 -3.8 1930.3 -3.8 1931.95 -3.8 1933.65 -3.8 1935.3 -3.85 1936.95 -3.9 1941.5 -4.15 1946.05 -4.35 1949.75 -4.4 1953.45 -4.45 1956 -4.2 1958.6 -4.05 1960.2 -3.95 1961.8 -3.8 1965.1 -3.8 1968.45 -3.8 1971.75 -3.8 1975.1 -3.8 1978.4 -3.8 1981.7 -3.75 1987.5 -3.75 1993.35 -3.75 2002.45 -3.5 2011.55 -3.35 2018.2 -2.55 2024.8 -2.5248046875 2025.0009765625 -2.5 2025.2 -2.599609375 2025.528515625 -2.7 2025.85 -3 2026.7 -3.25 2027.5 -3.25 2028.35 -3.25 2029.15 -3.55 2030 -3.8 2030.85 -3.55 2031.65 -3.25 2032.5 -3.25 2033.3 -3.25 2034.15 -3.25 2035 -3.25 2035.8 -3 2036.65 -2.7 2037.45 -2.45 2038.3 -2.15 2039.1 -1.6 2039.95 -1.05 2040.8 -0.25 2041.6 0.6 2042.45 1.45 2043.25 2.25 2044.1 3.1 2044.95 3.9 2045.75 5.85 2046.6 7.8 2047.4 10.55 2047.95 13.3 2048.5 15.25 2048.8 17.2 2049.05 17.45 2049.05 17.75 2049.05 22.15 2049.05 26.6 2049.05 32.1 2049.05 37.65 2049.05 38.75 2049.05 39.85 2049.05 47.6 2049.05 55.35 2049.05 56.45 2049.05 57.55 2049.05 58.65 2049.05 59.75 2049.05 60 2049.05 60.3 2049.05 62.25 2049.05 64.15 2049.05 68.6 2049.05 73 2049.05 73.55 2049.05 74.1 2049.05 81.6 2049.05 89.05 2049.05 93.2 2049.05 97.35 2049.05 103.7 2049.05 110.05 2049.05 113.65 2049.05 117.25 2049.05 122.5 2049.05 127.75 2049.05 128.3 2049.05 128.85 2049.05 131.05 2049.05 133.25 2049.05 146.25 2049.05 159.25 2049.05 172.25 2049.05 185.25 2049.05 188 2049.05 190.75 2049.05 191.3 2049.05 191.85 2049.05 192.95 2049.05 194.05 2049.05 196.85 2049.05 199.6 2049.05 220.05 2049.05 240.5 2049.05 243 2049.05 245.5 2049.05 249.9 2049.05 254.3 2049.05 260.7 2048.8 267.05 2048.5 299.35 2048.5 331.7 2048.5 360.75 2048.8 389.75 2049.05 395 2049.35 400.25 2049.65 416.85 2049.9 433.4 2050.2 434.5 2050.2 435.65 2050.2 448.9 2050.2 462.15 2050.2 463 2050.2 463.8 2050.2 488.4 2049.9 513 2049.65 515.25 2049.35 517.45 2049.05 518.25 2048.8 519.1 2048.5 520.2 2048.25 521.3 2047.95 553.1 2047.95 584.9 2047.95 590.95 2047.95 597.05 2047.95 598.15 2047.95 599.25 2047.95 825.9 2048.25 1052.5 2048.5 1054.75 2048.5 1056.95 2048.5 1061.65 2048.5 1066.35 2048.5 1105.85 2048.8 1145.4 2049.05 1147.05 2049.05 1148.7 2049.05 1205.1 2049.05 1261.45 2049.05 1262.55 2049.05 1263.65 2049.05 1387.75 2049.05 1511.85 2049.05 1514.1 2049.05 1516.3 2049.05 1517.65 2049.05 1519.05 2049.05 1533.7 2049.05 1548.35 2049.05 1549.75 2049.05 1551.1 2049.05 1644 2049.35 1736.85 2049.65 1739.05 2049.65 1741.25 2049.65 1744.6 2049.65 1747.9 2049.65 1750.95 2049.65 1754 2049.65 1755.35 2049.65 1756.75 2049.65 1763.35 2049.65 1770 2049.65 1771.1 2049.65 1772.2 2049.65 1776.65 2049.65 1781.05 2049.65 1782.15 2049.65 1783.25 2049.65 1786.3 2049.65 1789.35 2049.65 1907.1 2049.9 2024.85 2050.2 2025.1 2050.2 2025.4 2050.2 2032.85 2050.2 2040.3 2050.2 2042.5 2049.9 2044.75 2049.65 2045.85 2049.35 2046.95 2049.05 2047.75 2048.8 2048.6 2048.5 2049.7 2047.95 2050.8 2047.4 2051.9 2046.6 2053 2045.75 2054.15 2044.95 2055.25 2044.1 2055.8 2043.25 2056.35 2042.45 2056.9 2041.6 2057.45 2040.8 2058 2039.95 2058.55 2039.1 2058.85 2038.3 2059.1 2037.45 2059.4 2036.65 2059.65 2035.8 2059.95 2035 2060.2 2034.15 2060.2 2033.3 2060.2 2032.5 2060.2 2031.65 2060.2 2030.85 2060.2 2030 2060.2 2029.15 2060.2 2029.10390625 2060.2 2029.05 2063.96484375 2021.3884765625 2063.8 2004.3 2063.591015625 1975.7912109375 2063.3 1932.3 2063.0529296875 1888.8529296875 2063.2 1845.75 2063.35 1802.6 2063.5 1759.5 2063.7 1716.35 2063.85 1673.25 2063.95 1630.15 2063.95 1587.05 2063.95 1543.95 2063.8 1500.8 2063.7 1457.7 2063.7 1414.6 2063.75 1371.45 2063.85 1328.35 2064 1285.2 2064.2 1242.1 2064.35 1199 2064.55 1155.9 2064.8 1112.75 2064.05 1069.65 2063.3 1026.6 2063.3 983.4 2063.25 939.45 2063.35 895.55 2063.45 851.6 2063.5 807.65 2063.5 763.7 2063.2 719.75 2062.95 676.6 2062.4 633.5 2061.85 590.4 2061.3 547.3 2060.75 503.35 2060.45 459.4 2060.2 416.25 2060.45 373.15 2060.7 330.15 2058.85 286.95 2057 243.95 2057.5 200.7 2058 157.6 2056.7 114.45 2055.4 71.35 2056.55 28.25 2056.75 20 2054.8 12.1 2051.95 0.8 2040.2 0.15 2005.15 -2.3 1969.8 -1.9 1926.3 -1.4 1882.8 -1.3 1858.6 -1.25 1834.45 -1.2 1790.5 -1.1 1746.55 -1.05 1705 -1.05 1663.45 -1.05 1623.7 -1.05 1583.95 -1.05 1547.9 -1.05 1511.85 -1.05 1475.75 -1.05 1439.65 -1.05
M 1968.45 38.75
Q 1960.75 112.45 1958.05 186.5 1956.85 219.25 1956.95 251.9 1957.05 295.85 1956.9 339.8 1956.8 361.7 1956.5 383.65 1956.25 405.3 1955.85 426.95 1955.45 448.4 1955.05 469.9 1954.25 513.85 1953.75 557.8 1953.25 600.9 1952.75 644 1952.05 709.5 1951.85 775.05 1951.45 904.5 1951.35 1033.75 1951.25 1142.35 1951.3 1250.95 1951.3 1294.05 1951.3 1337.2 1951.3 1381.15 1951.3 1425.1 1951.35 1491.05 1951.3 1556.95 1951.3 1600.9 1951.3 1644.85 1951.3 1688.8 1951.3 1732.75 1951.3 1775.4 1951.3 1818.1 1951.3 1819.75 1951.3 1821.4 1951.3 1823.05 1951.3 1824.75 1951.3 1826.4 1951.3 1828.05 1951.35 1830.5 1951.35 1833 1951.35 1836.3 1951.35 1839.65 1951.35 1850.45 1951.45 1861.15 1951.55 1876.55 1951.05 1891.9 1950.85 1898.05 1950.6 1904.35 1950.5 1907.65 1950.8 1910.95 1951.1 1913.9 1951.4 1916.85 1951.5 1918.05 1951.5 1919.25 1951.4 1926.7 1951.3 1934.2 1943.1 1934.2 1934.95 1934.2 1910.05 1934.25 1885 1934.25 1850.7 1934.2 1816.4 1934.2 1782.05 1934.15 1747.7 1934.15 1713.35 1934.15 1679 1934.15 1644.65 1934.2 1610.3 1934.2 1575.95 1934.25 1541.65 1934.3 1507.3 1934.35 1472.95 1934.45 1421.5 1934.6 1369.95 1934.5 1319.5 1934.4 1269.75 1935 1243.35 1935.3 1216.75 1936 1195.7 1936.55 1174.7 1936.7 1135.7 1937 1096.75 1937.4 1056.6 1937.8 1016.35 1938.2 993.5 1938.45 970.7 1938.8 929.8 1939.45 888.95 1939.9 848 1940.4 807.1 1940.6 779.45 1940.75 751.8 1940.85 716.4 1940.95 681.05 1941.05 645.65 1941.2 610.3 1941.35 578.25 1941.45 546.2 1941.65 506.1 1941.9 466.05 1942.25 409.3 1942.8 352.4 1941.45 303.35 1940.3 254.3 1938.15 231.6 1937.85 209 1937.85 180.25 1937.9 151.5 1937.95 121.25 1938 91 1938.05 75.85 1938.1 60.75 1938.25 45.6 1938.45 30.45 1938.65
L 27.15 37.05 1786.05 36.55 1968.45 38.75
M 2018.2 1997.75
Q 2018.1 1998 2018 1998.3 2014.4 1998.1 2018.2 1997.75
M 1660.1 248.9
Q 1659.7 248.6 1659.3 248.4 1647.25 247.95 1635.2 247.6 1576.9 246.05 1518.55 245.8 1476 245.6 1433.5 245.65 1395.5 245.65 1357.5 245.75 1319.45 245.8 1281.4 245.9 1243.35 245.95 1205.35 246.05 1167.3 246.1 1129.25 246.2 1091.25 246.3 1053.25 246.4 1015.2 246.5 977.15 246.6 901.05 246.75 824.95 247.05 748.9 247.35 672.85 247.65 596.7 248 520.65 248.4 463.6 248.7 406.5 248.55 328 248.35 250.1 250.85
L 247.7 254.3
Q 247.85 257.85 247.8 261.45 247.8 262.35 247.65 263.35 247.6 263.75 247.6 264.25 247.65 265.1 247.6 265.9 246.95 275.05 246.65 284.2 244.5 346.35 244.65 408.6 244.9 538.7 242.85 668.9 241.35 766.6 241.1 864.25 241 896.75 240.75 929.25 240.45 972.35 240.25 1015.5 239.9 1102.15 239.95 1188.8 239.95 1232.3 239.95 1275.85 239.95 1318.95 239.9 1362.1 239.9 1405.2 239.9 1448.35 239.9 1491.45 239.85 1534.55 239.8 1566.9 239.95 1599.25 240.05 1620.8 240.45 1642.4 240.660546875 1652.2912109375 241.2 1662.2 242.501953125 1662.36796875 245.4 1662.7 255.75 1663.9 266.25 1663.45 271.15 1663.15 272.9 1663.2 276.283203125 1663.245703125 278.85 1664
L 369.95 1666.05
Q 370.55 1666.45 371.2 1666.85 371.75 1667.25 372.35 1667.65 372.9 1667.95 373.5 1668.25 374.1 1668.5 374.7 1668.75 375.3 1668.9 375.9 1669.05 376.5 1669.15 377.1 1669.25 377.65 1669.25 378.2 1669.25 378.8 1669.25 379.4 1669.25 380 1669.15 380.6 1669.05 381.2 1668.85 381.8 1668.75 382.35 1668.45 382.95 1668.2 383.55 1667.9 384.15 1667.6 384.75 1667.2 385.3 1666.8 385.95 1666.4 386.5 1665.85 387.1 1665.4 387.65 1664.9 428.4 1665.25 469.2 1665.55 498.85 1665.75 528.5 1665.85 558.15 1665.9 587.8 1665.95 617.4 1666 647.05 1666 681.65 1666.05 716.3 1666.05 755.1 1666.1 793.9 1666.1 833.3 1666.05 872.7 1666.15 910.8 1666.2 948.9 1666.45 986.45 1666.65 1024 1667 1058.3 1667.35 1092.6 1668.05 1131.85 1668.85 1171 1669.15 1212.9 1669.5 1254.85 1669.45 1298.6 1669.4 1342.35 1669.35 1376.75 1669.35 1411.15 1669.35 1454.3 1669.35 1497.5 1669.4 1521.55 1669.45 1545.6 1669.6 1572.1 1669.8 1598.65 1670.15 1624.6 1670.45 1650.6 1671 1652.25 1671.05 1653.9 1671.05 1667.65 1670.95 1670.1 1657.95 1671.6 1650.1 1671.95 1642.2 1673.55 1603.55 1673.45 1564.95 1673.3 1521 1673.15 1477.05 1673 1433.1 1672.7 1389.15 1672.45 1346 1672.65 1302.9 1672.85 1259.8 1672.9 1216.7 1672.95 1173.55 1672.85 1130.45 1672.7 1086.5 1672.65 1042.55 1672.65 999.45 1672.75 956.35 1672.9 913.2 1673 870.1 1673.1 826.95 1673.2 783.85 1673.35 739.9 1673.7 696 1674.05 652.9 1673.3 609.75 1672.5 566.55 1670.85 523.5 1669.2 480.4 1669.15 437.3 1669.05 393.35 1670 349.4 1670.9 305.9 1663.3 263.15 1663.6 262.35 1663.85 261.5 1664.05 260.7 1664.15 259.9 1664.25 259.1 1664.25 258.3 1664.25 257.45 1664.15 256.7 1664.05 255.85 1663.85 255.05 1663.6 254.25 1663.3 253.45 1663 252.65 1662.6 251.9 1662.15 251.1 1661.65 250.3 1661.3 249.85 1660.95 249.45 1660.55 249.1 1660.1 248.9
M 1638.35 629.4
Q 1636.1947265625 629.2125 1634.05 629.05 1494.75 629.05 1355.45 629.05 1252.05 629.05 1148.7 629.05 1147.05 628.75 1145.4 628.5 1143.7 628.5 1142.05 628.5 1130.45 628.75 1118.85 629.05 1103.35 629.05 1087.9 629.05 1084.6 629.05 1081.25 629.05 1071.3 629.05 1061.35 629.05 1045.35 629.05 1029.3 629.05 1012.15 629.05 995.05 629.05 990.6 629.05 986.2 629.05 981.75 629.05 977.35 629.05 969.6 629.05 961.85 629.05 887.25 628.75 812.6 628.5 803.75 628.5 794.95 628.5 755.7 628.5 716.45 628.5 712.85 628.5 709.25 628.5 705.4 628.5 701.5 628.5 699.85 628.5 698.2 628.5 629.35 628.5 560.55 628.5 550.05 628.5 539.55 628.5 498.1 628.5 456.65 628.5 456.35 628.5 456.1 628.5 435.9 628.5 415.75 628.5 413.5 628.5 411.3 628.5 405.8 628.5 400.25 628.5 398.3 628.5 396.4 628.5 392.0650390625 628.5 387.7 628.5 385.7671875 520.8048828125 385.05 413.15 385 402.4 384.8 391.65
L 1641.2 394.7 1638.35 629.4
M 1069.1 909.3
Q 1073.5 909.55 1077.95 909.85 1090.65 910.1 1103.35 910.4 1156.45 910.65 1209.5 910.95 1414.6 911.2 1619.65 911.5 1620.2 911.5 1620.75 911.5 1629.63359375 911.328125 1638.5 911.15 1638.500390625 911.2365234375 1638.5 911.3 1638.46796875 919.64609375 1636.85 926.55
L 1637.3 1131.35
Q 1637.95 1133.3560546875 1637.95 1135.55 1637.95 1137.5 1637.45 1140.1 1637.404296875 1140.3361328125 1637.35 1140.6 1634.5791015625 1140.4697265625 1631.8 1140.35 1626.85 1140.05 1621.85 1139.8 1613.55 1139.5 1605.3 1139.25 1330 1138.95 1054.75 1138.7 1006.9 1138.7 959.1 1138.7 937.8 1138.4 916.55 1138.15 654.5703125 1138.15 392.65 1138.15 392.7953125 1022.0474609375 391.75 905.95 393.241796875 905.95 394.7 905.95 464.65 905.95 534.55 905.95 536.25 905.95 537.9 905.95 654.25 906.25 770.6 906.5 827.8 906.8 885.05 907.05 901.35 907.35 917.65 907.65 931.45 907.9 945.3 908.2 1000 908.45 1054.75 908.75 1061.9 909 1069.1 909.3
M 672.2 1428.9
Q 769.5 1429.15 866.8 1429.45 948.3 1429.45 1029.85 1429.45 1055.3 1429.45 1080.7 1429.45 1312.85 1429.7 1545.05 1430 1550 1430 1555 1430 1557.75 1430 1560.5 1430 1566.6 1430 1572.65 1430 1579.6 1430 1586.5 1430 1587.3 1430 1588.15 1430 1589.55 1430 1590.9 1430 1592.55 1430 1594.25 1430 1596.45 1430 1598.65 1430 1600.6 1430 1602.5 1430 1602.8 1430 1603.05 1430 1604.45 1430 1605.85 1430 1606.1 1430 1606.4 1430 1608.05 1430 1609.7 1430 1610.8 1430 1611.9 1430 1613 1430 1614.15 1430 1615.25 1430 1616.35 1430 1619.4 1430 1622.4 1430 1622.7 1430 1622.95 1430 1624.1 1430 1625.2 1430 1627.4 1430 1629.6 1430 1630.7 1430 1631.8 1430 1634.7369140625 1429.801953125 1637.65 1429.6
L 1637.9 1645.1 391.4 1651.7
Q 392.05 1577.8 391.9 1504.15 391.9 1495 392 1485.9 392 1483.55 392 1480.9 392 1475 391.9 1469.3 391.8 1461 391.8 1452.7 391.8412109375 1439.399609375 391.85 1426.1 401.5888671875 1426.1 411.3 1426.1 432.85 1426.1 454.4 1426.1 455.55 1426.1 456.65 1426.1 480.95 1426.1 505.3 1426.1 509.4 1426.1 513.55 1426.1 535.15 1426.4 556.7 1426.65 569.1 1426.95 581.55 1427.25 595.95 1427.5 610.3 1427.8 625.5 1428.05 640.7 1428.35 656.45 1428.6 672.2 1428.9
M 1364.3 709.2
Q 1362.05 709.2 1359.85 709.2 1359.85 709.45 1359.85 709.75 1240.2 709.75 1120.5 709.75 1078.5 709.75 1036.5 709.75 1024.6 709.75 1012.7 709.75 978.45 710 944.15 710.3 941.15 710.3 938.1 710.3 937.25 710.3 936.45 710.3 826.45 710.55 716.45 710.85 713.65 710.85 710.9 710.85 708.7 710.85 706.5 710.85 679.95 710.85 653.4 710.85 646.25 710.55 639.05 710.3 637.95 710.3 636.85 710.3 636 710.3 635.2 710.3 604.8 710 574.35 709.75 481.8189453125 709.75 389.25 709.75 388.753515625 681.578125 388.2 653.4 388.1833984375 652.55 388.15 651.7 392.28359375 651.7 396.4 651.7 398.3 651.7 400.25 651.7 405.8 651.7 411.3 651.7 413.5 651.7 415.75 651.7 435.9 651.7 456.1 651.7 456.35 651.7 456.65 651.7 498.1 651.7 539.55 651.7 550.05 651.7 560.55 651.7 629.35 651.7 698.2 651.7 699.85 651.7 701.5 651.7 705.4 651.7 709.25 651.7 712.85 651.7 716.45 651.7 755.7 651.7 794.95 651.7 803.75 651.7 812.6 651.7 887.25 651.4 961.85 651.15 969.6 651.15 977.35 651.15 981.75 651.15 986.2 651.15 990.6 651.15 995.05 651.15 1012.15 651.15 1029.3 651.15 1045.35 651.15 1061.35 651.15 1071.3 651.15 1081.25 651.15 1084.6 651.15 1087.9 651.15 1103.35 651.15 1118.85 651.15 1130.45 651.4 1142.05 651.7 1143.7 651.7 1145.4 651.7 1147.05 651.4 1148.7 651.15 1252.05 651.15 1355.45 651.15 1494.75 651.15 1634.05 651.15 1636.0685546875 650.96640625 1638.05 650.8
L 1637.35 709.7
Q 1500.831640625 709.4384765625 1364.3 709.2
M 1359.85 728
Q 1362.05 728 1364.3 728 1500.7224609375 727.7140625 1637.15 727.45
L 1637.1 731.1
Q 1637.826953125 733.209765625 1638.1 735.85 1638.25 737.05 1638.3 746.15 1638.35 748.1 1638.45 751.95 1638.5 755.3 1638.05 757.7 1637.85 758.65 1637.3 760.8 1636.8 762.75 1636.6 763.85 1636.1 766.7 1636.4 772.55 1636.4736328125 773.9044921875 1636.55 775.65
L 1636.8 775.65 1636.8 784.9
Q 1636.91640625 790.69375 1637 798.45 1637.05 803.75 1636.95 806.4 1636.8931640625 807.64921875 1636.8 808.8
L 1636.8 882.25
Q 1636.35546875 882.18046875 1635.9 882.1 1636.268359375 884.81015625 1636.65 887.9 1636.691796875 888.2375 1636.7 888.55 1628.748046875 888.42890625 1620.75 888.3 1620.2 888.3 1619.65 888.3 1619.65 888.55 1619.65 888.85 1414.6 888.85 1209.5 888.85 1156.45 889.1 1103.35 889.4 1090.65 889.65 1077.95 889.95 1073.5 890.2 1069.1 890.5 1061.9 890.75 1054.75 891.05 1000 891.3 945.3 891.6 931.45 891.85 917.65 892.15 901.35 892.45 885.05 892.7 827.8 893 770.6 893.25 654.25 893.55 537.9 893.8 536.25 893.8 534.55 893.8 464.65 893.8 394.7 893.8 393.1865234375 893.8 391.65 893.8 390.94921875 815.4951171875 389.7 737.15 389.9966796875 736.71875 390.3 736.25 390.3 735.45 390.3 734.6 390.6 733.8 390.85 732.95 391.15 732.1 391.4 731.3 391.4 730.45 391.4 729.65 391.4 728.8 391.4 728 391.4 727.725 391.4 727.45 482.89921875 727.45 574.35 727.45 604.8 727.15 635.2 726.85 636 726.85 636.85 726.85 637.95 726.85 639.05 726.85 646.25 726.6 653.4 726.3 679.95 726.3 706.5 726.3 708.7 726.3 710.9 726.3 713.65 726.3 716.45 726.3 826.45 726.6 936.45 726.85 937.25 726.85 938.1 726.85 941.15 726.85 944.15 726.85 978.45 727.15 1012.7 727.45 1024.6 727.45 1036.5 727.45 1078.5 727.45 1120.5 727.45 1240.2 727.7 1359.85 728
M 916.55 1161.35
Q 937.8 1161.05 959.1 1160.8 1006.9 1160.8 1054.75 1160.8 1330 1160.5 1605.3 1160.25 1613.55 1159.95 1621.85 1159.7 1626.85 1159.4 1631.8 1159.15 1633.3501953125 1159.0697265625 1634.9 1159 1634.833203125 1159.8931640625 1634.75 1160.65 1635.2537109375 1164.255078125 1635.45 1167.55 1636.410546875 1167.5298828125 1637.35 1167.5
L 1637.4 1215.5
Q 1636.826953125 1215.5 1636.25 1215.5 1636.25 1215.8 1636.25 1216.05 1629.6 1216.05 1622.95 1216.05 1622.4 1216.05 1621.85 1216.05 1607.5 1216.05 1593.1 1216.05 1592.85 1216.05 1592.55 1216.05 1548.6 1216.05 1504.7 1216.05 1496.4 1216.05 1488.1 1216.05 1485.35 1216.05 1482.55 1216.05 1143.15 1216.35 803.75 1216.6 768.4 1216.9 733 1217.2 700.7 1217.45 668.35 1217.75 640.7 1218 613.05 1218.3 592.9 1218.55 572.7 1218.85 556.15 1219.1 539.55 1219.4 465.980078125 1219.641015625 392.45 1219.9 392.5306640625 1191.2125 392.6 1162.5 392.6013671875 1161.924609375 392.6 1161.35 654.55 1161.35 916.55 1161.35
M 733 1232.65
Q 768.4 1232.95 803.75 1233.2 1143.15 1233.5 1482.55 1233.75 1485.35 1233.75 1488.1 1233.75 1496.4 1233.75 1504.7 1233.75 1548.6 1233.75 1592.55 1233.75 1592.85 1233.75 1593.1 1233.75 1607.5 1233.75 1621.85 1233.75 1622.4 1233.75 1622.95 1233.75 1629.6 1234.05 1636.25 1234.3 1636.838671875 1234.3 1637.4 1234.3
L 1637.6 1404.9
Q 1634.7216796875 1404.746875 1631.8 1404.55 1630.7 1404.55 1629.6 1404.55 1628.2 1404.55 1626.85 1404.55 1626 1404.55 1625.2 1404.55 1624.1 1404.55 1622.95 1404.55 1619.65 1404.55 1616.35 1404.55 1615.25 1404.55 1614.15 1404.55 1613 1404.55 1611.9 1404.55 1610.8 1404.55 1609.7 1404.55 1608.05 1404.55 1606.4 1404.55 1606.1 1404.55 1605.85 1404.55 1604.45 1404.55 1603.05 1404.55 1602.8 1404.55 1602.5 1404.55 1600.6 1404.55 1598.65 1404.55 1596.45 1404.55 1594.25 1404.55 1592.55 1404.55 1590.9 1404.55 1589.55 1404.55 1588.15 1404.55 1587.3 1404.55 1586.5 1404.55 1579.6 1404.55 1572.65 1404.55 1566.6 1404.55 1560.5 1404.55 1557.75 1404.55 1555 1404.55 1550 1404.55 1545.05 1404.55 1545.05 1404.85 1545.05 1405.1 1312.85 1405.1 1080.7 1405.1 1055.3 1405.1 1029.85 1405.1 948.3 1405.1 866.8 1405.1 769.5 1405.4 672.2 1405.65 656.45 1405.95 640.7 1406.2 625.5 1406.5 610.3 1406.8 595.95 1407.05 581.55 1407.35 569.1 1407.6 556.7 1407.9 535.15 1408.15 513.55 1408.45 509.4 1408.45 505.3 1408.45 480.95 1408.45 456.65 1408.45 455.55 1408.45 454.4 1408.45 432.85 1408.45 411.3 1408.45 401.6173828125 1408.45 391.9 1408.45 392.199609375 1319.16640625 392.4 1229.9 465.9638671875 1230.1607421875 539.55 1230.45 556.15 1230.7 572.7 1231 592.9 1231.25 613.05 1231.55 640.7 1231.8 668.35 1232.1 700.7 1232.4 733 1232.65
M 1645.1 268.7
L 1641.2 371.5
Q 1604.3 371.55 1567.4 371.65 1493.65 371.85 1419.8 371.9 1161.65 372 903.5 372.2 700.85 372.35 498.25 372.65 455.5 372.7 412.7 371.5 404.55 371.3 396.45 371.2 390.815625 371.1119140625 385.4 372.35 335.2009765625 323.448046875 282.85 275.3 276.25 269.35 272.85 265.35 272.4125 264.7982421875 272 264.25
L 1645.1 268.7
M 374.8 377
Q 373.973828125 377.55078125 373.15 378.15 372.7 380.2 372.55 382.3 371.7 393.25 371.3 404.2 370.3 431.05 370.15 457.75 369.95 501.7 369.5 545.65 369.2 578.6 368.6 611.6 368.4365234375 620.4509765625 368.25 629.3 367.5220703125 629.491015625 366.75 629.65 366.95234375 630.8724609375 367.05 632.15 367.3 635.15 367.05 639.85 366.65 646.8 366.65 647.55 366.6103515625 649.1916015625 366.55 650.45 367.2365234375 650.6341796875 367.9 650.8 367.668359375 663.7212890625 367.45 676.65 366.5 730.7 365.35 784.6 364.4 827.55 364.35 870.65 364.3 946.05 364.3 1021.6 364.25 1237.1 364.25 1452.7 364.25 1473.45 364.55 1494.2 364.7 1502.95 364.3 1511.65 364.15 1515.3 364.15 1519.05 364.25 1542.35 364.3 1565.5 364.45 1608.55 364.3 1651.7
L 268.15 1652.25
Q 268.35 1650 268.5 1647.7 268.8 1643.2 268.8 1638.65 268.95 1614.45 268.9 1590.25 268.75 1546.25 268.75 1502.25 268.7 1436.3 268.7 1370.35 268.7 1326.4 268.7 1282.45 268.7 1239.35 268.7 1196.25 268.7 1153.1 268.7 1110 268.65 1045.35 268.1 980.75 267.35 894.55 267.4 808.2 267.4 754.25 266.45 700.5 264.35 584.35 263.9 468.25 263.85 449.1 263.3 430.1 263.15 424.35 263.15 418.5 263.15 415.15 263.15 411.85 263 381.15 263.4 350.5 263.975390625 309.0724609375 261.2 267.75 270.1029296875 277.18359375 282.6 288.8 291.15 296.75 308.35 312.4
L 321.3 324.6
Q 348.425 350.45625 374.8 377 Z"/>

<path fill="#CCCCCC" stroke="none" d="
M 1958.05 186.5
Q 1960.75 112.45 1968.45 38.75
L 1786.05 36.55 27.15 37.05 30.45 1938.65
Q 45.6 1938.45 60.75 1938.25 75.85 1938.1 91 1938.05 121.25 1938 151.5 1937.95 180.25 1937.9 209 1937.85 231.6 1937.85 254.3 1938.15 303.35 1940.3 352.4 1941.45 409.3 1942.8 466.05 1942.25 506.1 1941.9 546.2 1941.65 578.25 1941.45 610.3 1941.35 645.65 1941.2 681.05 1941.05 716.4 1940.95 751.8 1940.85 779.45 1940.75 807.1 1940.6 848 1940.4 888.95 1939.9 929.8 1939.45 970.7 1938.8 993.5 1938.45 1016.35 1938.2 1056.6 1937.8 1096.75 1937.4 1135.7 1937 1174.7 1936.7 1195.7 1936.55 1216.75 1936 1243.35 1935.3 1269.75 1935 1319.5 1934.4 1369.95 1934.5 1421.5 1934.6 1472.95 1934.45 1507.3 1934.35 1541.65 1934.3 1575.95 1934.25 1610.3 1934.2 1644.65 1934.2 1679 1934.15 1713.35 1934.15 1747.7 1934.15 1782.05 1934.15 1816.4 1934.2 1850.7 1934.2 1885 1934.25 1910.05 1934.25 1934.95 1934.2 1943.1 1934.2 1951.3 1934.2 1951.4 1926.7 1951.5 1919.25 1951.5 1918.05 1951.4 1916.85 1951.1 1913.9 1950.8 1910.95 1950.5 1907.65 1950.6 1904.35 1950.85 1898.05 1951.05 1891.9 1951.55 1876.55 1951.45 1861.15 1951.35 1850.45 1951.35 1839.65 1951.35 1836.3 1951.35 1833 1951.35 1830.5 1951.3 1828.05 1951.3 1826.4 1951.3 1824.75 1951.3 1823.05 1951.3 1821.4 1951.3 1819.75 1951.3 1818.1 1951.3 1775.4 1951.3 1732.75 1951.3 1688.8 1951.3 1644.85 1951.3 1600.9 1951.3 1556.95 1951.35 1491.05 1951.3 1425.1 1951.3 1381.15 1951.3 1337.2 1951.3 1294.05 1951.3 1250.95 1951.25 1142.35 1951.35 1033.75 1951.45 904.5 1951.85 775.05 1952.05 709.5 1952.75 644 1953.25 600.9 1953.75 557.8 1954.25 513.85 1955.05 469.9 1955.45 448.4 1955.85 426.95 1956.25 405.3 1956.5 383.65 1956.8 361.7 1956.9 339.8 1957.05 295.85 1956.95 251.9 1956.85 219.25 1958.05 186.5
M 1659.3 248.4
Q 1659.7 248.6 1660.1 248.9 1660.55 249.1 1660.95 249.45 1661.3 249.85 1661.65 250.3 1662.15 251.1 1662.6 251.9 1663 252.65 1663.3 253.45 1663.6 254.25 1663.85 255.05 1664.05 255.85 1664.15 256.7 1664.25 257.45 1664.25 258.3 1664.25 259.1 1664.15 259.9 1664.05 260.7 1663.85 261.5 1663.6 262.35 1663.3 263.15 1670.9 305.9 1670 349.4 1669.05 393.35 1669.15 437.3 1669.2 480.4 1670.85 523.5 1672.5 566.55 1673.3 609.75 1674.05 652.9 1673.7 696 1673.35 739.9 1673.2 783.85 1673.1 826.95 1673 870.1 1672.9 913.2 1672.75 956.35 1672.65 999.45 1672.65 1042.55 1672.7 1086.5 1672.85 1130.45 1672.95 1173.55 1672.9 1216.7 1672.85 1259.8 1672.65 1302.9 1672.45 1346 1672.7 1389.15 1673 1433.1 1673.15 1477.05 1673.3 1521 1673.45 1564.95 1673.55 1603.55 1671.95 1642.2 1671.6 1650.1 1670.1 1657.95 1667.65 1670.95 1653.9 1671.05 1652.25 1671.05 1650.6 1671 1624.6 1670.45 1598.65 1670.15 1572.1 1669.8 1545.6 1669.6 1521.55 1669.45 1497.5 1669.4 1454.3 1669.35 1411.15 1669.35 1376.75 1669.35 1342.35 1669.35 1298.6 1669.4 1254.85 1669.45 1212.9 1669.5 1171 1669.15 1131.85 1668.85 1092.6 1668.05 1058.3 1667.35 1024 1667 986.45 1666.65 948.9 1666.45 910.8 1666.2 872.7 1666.15 833.3 1666.05 793.9 1666.1 755.1 1666.1 716.3 1666.05 681.65 1666.05 647.05 1666 617.4 1666 587.8 1665.95 558.15 1665.9 528.5 1665.85 498.85 1665.75 469.2 1665.55 428.4 1665.25 387.65 1664.9 387.1 1665.4 386.5 1665.85 385.95 1666.4 385.3 1666.8 384.75 1667.2 384.15 1667.6 383.55 1667.9 382.95 1668.2 382.35 1668.45 381.8 1668.75 381.2 1668.85 380.6 1669.05 380 1669.15 379.4 1669.25 378.8 1669.25 378.2 1669.25 377.65 1669.25 377.1 1669.25 376.5 1669.15 375.9 1669.05 375.3 1668.9 374.7 1668.75 374.1 1668.5 373.5 1668.25 372.9 1667.95 372.35 1667.65 371.75 1667.25 371.2 1666.85 370.55 1666.45 369.95 1666.05
L 278.85 1664
Q 276.283203125 1663.245703125 272.9 1663.2 271.15 1663.15 266.25 1663.45 255.75 1663.9 245.4 1662.7 242.501953125 1662.36796875 241.2 1662.2 240.660546875 1652.2912109375 240.45 1642.4 240.05 1620.8 239.95 1599.25 239.8 1566.9 239.85 1534.55 239.9 1491.45 239.9 1448.35 239.9 1405.2 239.9 1362.1 239.95 1318.95 239.95 1275.85 239.95 1232.3 239.95 1188.8 239.9 1102.15 240.25 1015.5 240.45 972.35 240.75 929.25 241 896.75 241.1 864.25 241.35 766.6 242.85 668.9 244.9 538.7 244.65 408.6 244.5 346.35 246.65 284.2 246.95 275.05 247.6 265.9 247.65 265.1 247.6 264.25 247.6 263.75 247.65 263.35 247.8 262.35 247.8 261.45 247.85 257.85 247.7 254.3
L 250.1 250.85
Q 328 248.35 406.5 248.55 463.6 248.7 520.65 248.4 596.7 248 672.85 247.65 748.9 247.35 824.95 247.05 901.05 246.75 977.15 246.6 1015.2 246.5 1053.25 246.4 1091.25 246.3 1129.25 246.2 1167.3 246.1 1205.35 246.05 1243.35 245.95 1281.4 245.9 1319.45 245.8 1357.5 245.75 1395.5 245.65 1433.5 245.65 1476 245.6 1518.55 245.8 1576.9 246.05 1635.2 247.6 1647.25 247.95 1659.3 248.4
M 866.8 1429.45
Q 769.5 1429.15 672.2 1428.9 656.45 1428.6 640.7 1428.35 625.5 1428.05 610.3 1427.8 595.95 1427.5 581.55 1427.25 569.1 1426.95 556.7 1426.65 535.15 1426.4 513.55 1426.1 509.4 1426.1 505.3 1426.1 480.95 1426.1 456.65 1426.1 455.55 1426.1 454.4 1426.1 432.85 1426.1 411.3 1426.1 401.5888671875 1426.1 391.85 1426.1 391.8412109375 1439.399609375 391.8 1452.7 391.8 1461 391.9 1469.3 392 1475 392 1480.9 392 1483.55 392 1485.9 391.9 1495 391.9 1504.15 392.05 1577.8 391.4 1651.7
L 1637.9 1645.1 1637.65 1429.6
Q 1634.7369140625 1429.801953125 1631.8 1430 1630.7 1430 1629.6 1430 1627.4 1430 1625.2 1430 1624.1 1430 1622.95 1430 1622.7 1430 1622.4 1430 1619.4 1430 1616.35 1430 1615.25 1430 1614.15 1430 1613 1430 1611.9 1430 1610.8 1430 1609.7 1430 1608.05 1430 1606.4 1430 1606.1 1430 1605.85 1430 1604.45 1430 1603.05 1430 1602.8 1430 1602.5 1430 1600.6 1430 1598.65 1430 1596.45 1430 1594.25 1430 1592.55 1430 1590.9 1430 1589.55 1430 1588.15 1430 1587.3 1430 1586.5 1430 1579.6 1430 1572.65 1430 1566.6 1430 1560.5 1430 1557.75 1430 1555 1430 1550 1430 1545.05 1430 1312.85 1429.7 1080.7 1429.45 1055.3 1429.45 1029.85 1429.45 948.3 1429.45 866.8 1429.45
M 1077.95 909.85
Q 1073.5 909.55 1069.1 909.3 1061.9 909 1054.75 908.75 1000 908.45 945.3 908.2 931.45 907.9 917.65 907.65 901.35 907.35 885.05 907.05 827.8 906.8 770.6 906.5 654.25 906.25 537.9 905.95 536.25 905.95 534.55 905.95 464.65 905.95 394.7 905.95 393.241796875 905.95 391.75 905.95 392.7953125 1022.0474609375 392.65 1138.15 654.5703125 1138.15 916.55 1138.15 937.8 1138.4 959.1 1138.7 1006.9 1138.7 1054.75 1138.7 1330 1138.95 1605.3 1139.25 1613.55 1139.5 1621.85 1139.8 1626.85 1140.05 1631.8 1140.35 1634.5791015625 1140.4697265625 1637.35 1140.6 1637.404296875 1140.3361328125 1637.45 1140.1 1637.95 1137.5 1637.95 1135.55 1637.95 1133.3560546875 1637.3 1131.35
L 1636.85 926.55
Q 1638.46796875 919.64609375 1638.5 911.3 1638.500390625 911.2365234375 1638.5 911.15 1629.63359375 911.328125 1620.75 911.5 1620.2 911.5 1619.65 911.5 1414.6 911.2 1209.5 910.95 1156.45 910.65 1103.35 910.4 1090.65 910.1 1077.95 909.85
M 1634.05 629.05
Q 1636.1947265625 629.2125 1638.35 629.4
L 1641.2 394.7 384.8 391.65
Q 385 402.4 385.05 413.15 385.7671875 520.8048828125 387.7 628.5 392.0650390625 628.5 396.4 628.5 398.3 628.5 400.25 628.5 405.8 628.5 411.3 628.5 413.5 628.5 415.75 628.5 435.9 628.5 456.1 628.5 456.35 628.5 456.65 628.5 498.1 628.5 539.55 628.5 550.05 628.5 560.55 628.5 629.35 628.5 698.2 628.5 699.85 628.5 701.5 628.5 705.4 628.5 709.25 628.5 712.85 628.5 716.45 628.5 755.7 628.5 794.95 628.5 803.75 628.5 812.6 628.5 887.25 628.75 961.85 629.05 969.6 629.05 977.35 629.05 981.75 629.05 986.2 629.05 990.6 629.05 995.05 629.05 1012.15 629.05 1029.3 629.05 1045.35 629.05 1061.35 629.05 1071.3 629.05 1081.25 629.05 1084.6 629.05 1087.9 629.05 1103.35 629.05 1118.85 629.05 1130.45 628.75 1142.05 628.5 1143.7 628.5 1145.4 628.5 1147.05 628.75 1148.7 629.05 1252.05 629.05 1355.45 629.05 1494.75 629.05 1634.05 629.05 Z"/>

<path fill="#666666" stroke="none" d="
M 373.15 378.15
Q 373.973828125 377.55078125 374.8 377 348.425 350.45625 321.3 324.6
L 308.35 312.4
Q 291.15 296.75 282.6 288.8 270.1029296875 277.18359375 261.2 267.75 263.975390625 309.0724609375 263.4 350.5 263 381.15 263.15 411.85 263.15 415.15 263.15 418.5 263.15 424.35 263.3 430.1 263.85 449.1 263.9 468.25 264.35 584.35 266.45 700.5 267.4 754.25 267.4 808.2 267.35 894.55 268.1 980.75 268.65 1045.35 268.7 1110 268.7 1153.1 268.7 1196.25 268.7 1239.35 268.7 1282.45 268.7 1326.4 268.7 1370.35 268.7 1436.3 268.75 1502.25 268.75 1546.25 268.9 1590.25 268.95 1614.45 268.8 1638.65 268.8 1643.2 268.5 1647.7 268.35 1650 268.15 1652.25
L 364.3 1651.7
Q 364.45 1608.55 364.3 1565.5 364.25 1542.35 364.15 1519.05 364.15 1515.3 364.3 1511.65 364.7 1502.95 364.55 1494.2 364.25 1473.45 364.25 1452.7 364.25 1237.1 364.3 1021.6 364.3 946.05 364.35 870.65 364.4 827.55 365.35 784.6 366.5 730.7 367.45 676.65 367.668359375 663.7212890625 367.9 650.8 367.2365234375 650.6341796875 366.55 650.45 366.6103515625 649.1916015625 366.65 647.55 366.65 646.8 367.05 639.85 367.3 635.15 367.05 632.15 366.95234375 630.8724609375 366.75 629.65 367.5220703125 629.491015625 368.25 629.3 368.4365234375 620.4509765625 368.6 611.6 369.2 578.6 369.5 545.65 369.95 501.7 370.15 457.75 370.3 431.05 371.3 404.2 371.7 393.25 372.55 382.3 372.7 380.2 373.15 378.15
M 1641.2 371.5
L 1645.1 268.7 272 264.25
Q 272.4125 264.7982421875 272.85 265.35 276.25 269.35 282.85 275.3 335.2009765625 323.448046875 385.4 372.35 390.815625 371.1119140625 396.45 371.2 404.55 371.3 412.7 371.5 455.5 372.7 498.25 372.65 700.85 372.35 903.5 372.2 1161.65 372 1419.8 371.9 1493.65 371.85 1567.4 371.65 1604.3 371.55 1641.2 371.5
M 959.1 1160.8
Q 937.8 1161.05 916.55 1161.35 654.55 1161.35 392.6 1161.35 392.6013671875 1161.924609375 392.6 1162.5 392.5306640625 1191.2125 392.45 1219.9 465.980078125 1219.641015625 539.55 1219.4 556.15 1219.1 572.7 1218.85 592.9 1218.55 613.05 1218.3 640.7 1218 668.35 1217.75 700.7 1217.45 733 1217.2 768.4 1216.9 803.75 1216.6 1143.15 1216.35 1482.55 1216.05 1485.35 1216.05 1488.1 1216.05 1496.4 1216.05 1504.7 1216.05 1548.6 1216.05 1592.55 1216.05 1592.85 1216.05 1593.1 1216.05 1607.5 1216.05 1621.85 1216.05 1622.4 1216.05 1622.95 1216.05 1629.6 1216.05 1636.25 1216.05 1636.25 1215.8 1636.25 1215.5 1636.826953125 1215.5 1637.4 1215.5
L 1637.35 1167.5
Q 1636.410546875 1167.5298828125 1635.45 1167.55 1635.2537109375 1164.255078125 1634.75 1160.65 1634.833203125 1159.8931640625 1634.9 1159 1633.3501953125 1159.0697265625 1631.8 1159.15 1626.85 1159.4 1621.85 1159.7 1613.55 1159.95 1605.3 1160.25 1330 1160.5 1054.75 1160.8 1006.9 1160.8 959.1 1160.8
M 1359.85 709.2
Q 1362.05 709.2 1364.3 709.2 1500.831640625 709.4384765625 1637.35 709.7
L 1638.05 650.8
Q 1636.0685546875 650.96640625 1634.05 651.15 1494.75 651.15 1355.45 651.15 1252.05 651.15 1148.7 651.15 1147.05 651.4 1145.4 651.7 1143.7 651.7 1142.05 651.7 1130.45 651.4 1118.85 651.15 1103.35 651.15 1087.9 651.15 1084.6 651.15 1081.25 651.15 1071.3 651.15 1061.35 651.15 1045.35 651.15 1029.3 651.15 1012.15 651.15 995.05 651.15 990.6 651.15 986.2 651.15 981.75 651.15 977.35 651.15 969.6 651.15 961.85 651.15 887.25 651.4 812.6 651.7 803.75 651.7 794.95 651.7 755.7 651.7 716.45 651.7 712.85 651.7 709.25 651.7 705.4 651.7 701.5 651.7 699.85 651.7 698.2 651.7 629.35 651.7 560.55 651.7 550.05 651.7 539.55 651.7 498.1 651.7 456.65 651.7 456.35 651.7 456.1 651.7 435.9 651.7 415.75 651.7 413.5 651.7 411.3 651.7 405.8 651.7 400.25 651.7 398.3 651.7 396.4 651.7 392.28359375 651.7 388.15 651.7 388.1833984375 652.55 388.2 653.4 388.753515625 681.578125 389.25 709.75 481.8189453125 709.75 574.35 709.75 604.8 710 635.2 710.3 636 710.3 636.85 710.3 637.95 710.3 639.05 710.3 646.25 710.55 653.4 710.85 679.95 710.85 706.5 710.85 708.7 710.85 710.9 710.85 713.65 710.85 716.45 710.85 826.45 710.55 936.45 710.3 937.25 710.3 938.1 710.3 941.15 710.3 944.15 710.3 978.45 710 1012.7 709.75 1024.6 709.75 1036.5 709.75 1078.5 709.75 1120.5 709.75 1240.2 709.75 1359.85 709.75 1359.85 709.45 1359.85 709.2 Z"/>

<path fill="#0D0D0D" stroke="none" d="
M 803.75 1233.2
Q 768.4 1232.95 733 1232.65 700.7 1232.4 668.35 1232.1 640.7 1231.8 613.05 1231.55 592.9 1231.25 572.7 1231 556.15 1230.7 539.55 1230.45 465.9638671875 1230.1607421875 392.4 1229.9 392.199609375 1319.16640625 391.9 1408.45 401.6173828125 1408.45 411.3 1408.45 432.85 1408.45 454.4 1408.45 455.55 1408.45 456.65 1408.45 480.95 1408.45 505.3 1408.45 509.4 1408.45 513.55 1408.45 535.15 1408.15 556.7 1407.9 569.1 1407.6 581.55 1407.35 595.95 1407.05 610.3 1406.8 625.5 1406.5 640.7 1406.2 656.45 1405.95 672.2 1405.65 769.5 1405.4 866.8 1405.1 948.3 1405.1 1029.85 1405.1 1055.3 1405.1 1080.7 1405.1 1312.85 1405.1 1545.05 1405.1 1545.05 1404.85 1545.05 1404.55 1550 1404.55 1555 1404.55 1557.75 1404.55 1560.5 1404.55 1566.6 1404.55 1572.65 1404.55 1579.6 1404.55 1586.5 1404.55 1587.3 1404.55 1588.15 1404.55 1589.55 1404.55 1590.9 1404.55 1592.55 1404.55 1594.25 1404.55 1596.45 1404.55 1598.65 1404.55 1600.6 1404.55 1602.5 1404.55 1602.8 1404.55 1603.05 1404.55 1604.45 1404.55 1605.85 1404.55 1606.1 1404.55 1606.4 1404.55 1608.05 1404.55 1609.7 1404.55 1610.8 1404.55 1611.9 1404.55 1613 1404.55 1614.15 1404.55 1615.25 1404.55 1616.35 1404.55 1619.65 1404.55 1622.95 1404.55 1624.1 1404.55 1625.2 1404.55 1626 1404.55 1626.85 1404.55 1628.2 1404.55 1629.6 1404.55 1630.7 1404.55 1631.8 1404.55 1634.7216796875 1404.746875 1637.6 1404.9
L 1637.4 1234.3
Q 1636.838671875 1234.3 1636.25 1234.3 1629.6 1234.05 1622.95 1233.75 1622.4 1233.75 1621.85 1233.75 1607.5 1233.75 1593.1 1233.75 1592.85 1233.75 1592.55 1233.75 1548.6 1233.75 1504.7 1233.75 1496.4 1233.75 1488.1 1233.75 1485.35 1233.75 1482.55 1233.75 1143.15 1233.5 803.75 1233.2
M 1364.3 728
Q 1362.05 728 1359.85 728 1240.2 727.7 1120.5 727.45 1078.5 727.45 1036.5 727.45 1024.6 727.45 1012.7 727.45 978.45 727.15 944.15 726.85 941.15 726.85 938.1 726.85 937.25 726.85 936.45 726.85 826.45 726.6 716.45 726.3 713.65 726.3 710.9 726.3 708.7 726.3 706.5 726.3 679.95 726.3 653.4 726.3 646.25 726.6 639.05 726.85 637.95 726.85 636.85 726.85 636 726.85 635.2 726.85 604.8 727.15 574.35 727.45 482.89921875 727.45 391.4 727.45 391.4 727.725 391.4 728 391.4 728.8 391.4 729.65 391.4 730.45 391.4 731.3 391.15 732.1 390.85 732.95 390.6 733.8 390.3 734.6 390.3 735.45 390.3 736.25 389.9966796875 736.71875 389.7 737.15 390.94921875 815.4951171875 391.65 893.8 393.1865234375 893.8 394.7 893.8 464.65 893.8 534.55 893.8 536.25 893.8 537.9 893.8 654.25 893.55 770.6 893.25 827.8 893 885.05 892.7 901.35 892.45 917.65 892.15 931.45 891.85 945.3 891.6 1000 891.3 1054.75 891.05 1061.9 890.75 1069.1 890.5 1073.5 890.2 1077.95 889.95 1090.65 889.65 1103.35 889.4 1156.45 889.1 1209.5 888.85 1414.6 888.85 1619.65 888.85 1619.65 888.55 1619.65 888.3 1620.2 888.3 1620.75 888.3 1628.748046875 888.42890625 1636.7 888.55 1636.691796875 888.2375 1636.65 887.9 1636.268359375 884.81015625 1635.9 882.1 1636.35546875 882.18046875 1636.8 882.25
L 1636.8 808.8
Q 1636.8931640625 807.64921875 1636.95 806.4 1637.05 803.75 1637 798.45 1636.91640625 790.69375 1636.8 784.9
L 1636.8 775.65 1636.55 775.65
Q 1636.4736328125 773.9044921875 1636.4 772.55 1636.1 766.7 1636.6 763.85 1636.8 762.75 1637.3 760.8 1637.85 758.65 1638.05 757.7 1638.5 755.3 1638.45 751.95 1638.35 748.1 1638.3 746.15 1638.25 737.05 1638.1 735.85 1637.826953125 733.209765625 1637.1 731.1
L 1637.15 727.45
Q 1500.7224609375 727.7140625 1364.3 728 Z"/>
</g>

<g id="Layer1_0_FILL">
<path fill="#000000" stroke="none" d="
M 397 1759.9
Q 504.55 1750.95 589.45 1746.05 804.2 1733.65 974.65 1741.95 820.05 1731.2 627.7 1740.95 506.9 1747.1 281.05 1768.15 222.35 1773.6 193 1774.9 143.95 1777 104.95 1772.8 126.3 1779.5 154.3 1779.75 171.6 1779.95 204.75 1776.95 340.65 1764.6 397 1759.9
M 829.4 138.65
L 887.7 138.75
Q 849.8193359375 137.729296875 781.25 135.25 700.4 132.35 655.3 132.05 585.8 131.65 530.05 135.95 463.7 141.1 406.25 153.45 472.8 144.4 506.6 140.8 562.4 134.9 607.35 134.15 635.6 133.65 677.15 135.15 700.4 135.95 746.9 137.7 776.7 138.45 829.4 138.65
M 515.85 100.45
Q 437.55 101.45 337.8 109.7 195.45 121.45 53.95 143.25 36.3 146 26.95 148.1 12.1 151.4 0.85 156.25 171.8 123.75 345.85 111.65 519.85 99.55 693.7 108.15 611.35 99.2 515.85 100.45
M 1809.65 1658.2
Q 1812.75 1653.25 1813.9 1648.8 1810.15 1655 1804.6 1662.2 1801.45 1666.3 1794.3 1674.9 1759.3 1717.15 1716.85 1771.6 1713.7896484375 1775.5185546875 1710.3 1780 1708.6927734375 1778.25859375 1707.1 1776.5 1704.85 1774 1703.5 1772.9 1701.35 1771.15 1699.15 1770.6
L 1699.9 1773.55
Q 1702.65 1775.1 1705.55 1777.7 1706.933203125 1778.9646484375 1709.25 1781.35 1692.3279296875 1803.1462890625 1665.6 1837.95 1660.582421875 1832.8283203125 1656.1 1827.8 1650.6 1821.65 1647.4 1816.8 1643.25 1810.45 1641.55 1804.3 1642.8 1804.35 1643.95 1803.65 1645.1 1803 1645.7 1801.9 1644.55 1800.7 1642.65 1801.25 1640.85 1801.8 1640.05 1803.4 1638.85 1805.95 1640.4 1810.05 1642.5 1815.9 1648.6 1823.65 1654.15 1830.7 1661.9 1838.65 1662.7421875 1839.5083984375 1663.7 1840.45 1653.2060546875 1854.1267578125 1641.25 1869.75 1625.6 1890.25 1618.15 1900.6 1605.6 1917.95 1596.85 1932.65 1609.9 1914.15 1622.1 1897.9 1633.15 1883.2 1656.65 1853.35
L 1665.4 1842.15
Q 1669.890625 1846.5572265625 1676.35 1852.6 1692.25 1867.45 1703.85 1877.25 1704.6201171875 1877.9068359375 1705.4 1878.55 1694.61328125 1893.280859375 1685.1 1905.4 1684.3 1906.4 1684.15 1907.5 1683.95 1908.8 1684.9 1909.15 1694.541796875 1896.155859375 1706.65 1879.6 1713.408203125 1885.2751953125 1720.25 1890.5 1730.4 1898.3 1741.55 1905.85 1744.15 1907.55 1745.55 1906.8 1732.9 1897.9 1720.85 1887.95 1715.6265625 1883.569140625 1708.35 1877.2 1715.92578125 1866.913671875 1724.4 1855.25
L 1748.5 1821.85
Q 1761.893359375 1834.34375 1773.95 1842.55 1761.60078125 1831.6412109375 1749.65 1820.25
L 1756.1 1811.35
Q 1762.7 1802.25 1766.05 1797.2 1773.3 1785.7 1777.05 1780.05 1783.6 1770.05 1789.25 1763.8
L 1786.25 1763.1 1750.75 1813.95
Q 1749.19140625 1816.2064453125 1747.7 1818.35 1729.590625 1800.9224609375 1712.45 1782.35
L 1803.45 1666.65
Q 1807.75 1661.15 1809.65 1658.2
M 1711.45 1783.65
Q 1739.4705078125 1813.1205078125 1740.75 1814.4 1743.6791015625 1817.3125 1746.55 1820 1725.21875 1850.8880859375 1718.6 1860.2 1712.708203125 1868.5158203125 1707.15 1876.15 1704.1873046875 1873.56015625 1700.9 1870.65 1681.7 1853.55 1673.4 1845.55 1670.2951171875 1842.6083984375 1667.35 1839.7
L 1711.45 1783.65
M 744.45 555.85
Q 742.85 555.85 742.2 556.45 767.5 558 801.65 558 821.45 558 861.15 557.5 935.15 556.95 979.65 563.15 981.5 563.4 983 562.9 984.75 562.25 984.6 560.8 904.6 551.6 824.65 553.25 813.05 553.45 790.2 554.25
L 744.45 555.85
M 819.6 609.6
Q 846.5 610.25 863.7 609.35 887.85 608.15 907.3 603.7 804.45 609.1 702.4 599.75 657.3 595.55 618.85 589.1 610.05 587.6 605.3 586.3 597.95 584.3 592.6 581.2 585.55 577.1 578.6 568.85 576.65 566.55 567.1 553.7 550.7 531.55 525.6 507.9 510.2 493.4 478.7 467.2
L 504 490.35
Q 525.65 510.2 536 520.7 553.15 538.1 564.6 553.95 568.15 558.85 575.2 568.65 581.5 576.8 587.7 581.4 596.05 587.7 608.6 591.1 616.85 593.3 631.8 595.25 725.45 607.3 819.6 609.6
M 1420.35 1108.8
L 1417.85 1109.5
Q 1414.1 1121.15 1407.95 1131.3 1404.65 1136.8 1403.7 1138.85 1401.75 1143.3 1402.15 1147 1402.45 1149.9 1404.95 1154.65 1413.05 1170.55 1423.55 1185.8 1425.1 1185.05 1424.75 1182.85 1424.5 1181 1423.2 1179.2 1415.15 1167.6 1408.75 1154.5 1407.45 1151.7 1406.85 1149.95 1406.05 1147.4 1406.15 1145.2 1406.35 1142.2 1409.05 1137.1
L 1417.9 1120.25
Q 1419.7 1116.75 1420.35 1114.6 1421.25 1111.35 1420.35 1108.8
M 1412.6 1027.6
Q 1412.1 1028.95 1411.8 1031.8 1411.35 1035.65 1409.75 1040.25 1408.7 1043.2 1406.4 1048.35 1395.9 1072.1 1383.1 1099.5 1378.8 1108.7 1376.35 1113.1 1373 1118.85 1371.35 1121.75 1368.45 1126.8 1366.95 1130.65 1365.25 1135.05 1365.5 1138 1365.7 1140 1367.1 1143.6 1375.7 1165.8 1386.1 1189.15 1387.25 1188.8 1387.25 1187.2 1387.2 1185.9 1386.5 1184.45 1382.05 1175.6 1377.35 1164.05 1374.8 1157.75 1369.25 1143.15 1367.55 1138.55 1367.8 1136 1368 1134.4 1369.65 1130.95 1380.35 1109.65 1385.55 1098.95 1401.4 1066.05 1415.05 1032.7 1417.25 1027.2 1415.15 1024.85 1413.45 1025.35 1412.6 1027.6 Z"/>
</g>
</defs>

<g transform="matrix( 1, 0, 0, 1, 0,0) ">
<use xlink:href="#Layer2_0_FILL"/>
</g>

<g transform="matrix( 1, 0, 0, 1, 0,0) ">
<use xlink:href="#Layer1_0_FILL"/>
</g>
</svg>
