
<svg xmlns="http://www.w3.org/2000/svg" version="1.1" xmlns:xlink="http://www.w3.org/1999/xlink" preserveAspectRatio="none" x="0px" y="0px" width="2000px" height="2000px" viewBox="0 0 2000 2000">
<defs>
<g id="Layer3_0_FILL">
<path fill="#000000" stroke="none" d="
M 628.25 1129.9
Q 623.1 1153.55 621.6 1174.3 619.05 1209.4 625.85 1248.95 631.65 1282.45 644.7 1321.75 674.95 1412.75 727.65 1492.8 731.8 1499.15 735.75 1502.4 741.1 1506.75 746.55 1505.95 751.65 1505.2 755.55 1499.95 758.25 1496.3 760.9 1489.45
L 838.25 1288.4
Q 851.45 1311.2 862.95 1342 869.8 1360.35 881.7 1398.35 893.5 1436.1 900.45 1454.7 912.05 1485.45 925.3 1508.2 936.7 1527.65 949.55 1527.05 957.65 1526.65 964.05 1518.6 968.7 1512.75 972.8 1502.15
L 1046.55 1313.4
Q 1054.9 1356.05 1065.4 1427.6 1078.2 1514.45 1082.9 1542.15 1093.85 1606.3 1106.9 1654.65 1122.9 1713.9 1145.25 1762.55 1150 1772.85 1156.1 1778.6 1163.9 1785.95 1172.05 1783.75 1178.2 1782.1 1182.3 1775.15 1185.25 1770.2 1187.5 1761.5 1226.2 1615.05 1242.3 1463.85 1258.45 1312.6 1251.45 1161.3 1248.65 1100.15 1240.2 1060.8 1228.5 1006.55 1202.65 969.1 1179.5 935.6 1143.9 913.6 1108.3 891.6 1068 885.8 1048.65 883.05 1033.3 886.15 1014.7 889.85 1004.3 901.8 940.85 896.45 877.6 908.15 814.25 919.9 757 947.65 729.75 960.85 710.3 975.1 686.8 992.3 672.2 1012.7 661.5 1027.7 653 1048.1 646.7 1063.25 639.75 1086.35 632.4 1110.75 628.25 1129.9
M 1053.8 935.55
Q 1079.6 939.25 1097.15 944.55 1120.2 951.6 1136.55 963.3 1165.95 984.35 1182.35 1025.85 1194.25 1056.05 1201.4 1104.65 1224.4 1260.95 1214.5 1419.85 1204.55 1578.7 1162.25 1730.95 1142.75 1682.85 1128.4 1624.75 1116.8 1577.7 1106.5 1515.15 1102.75 1492.15 1089.85 1403.95 1079.85 1335.35 1071.75 1293.15 1070.25 1285.6 1069.1 1281.8 1067.15 1275.6 1064.15 1271.45 1060.6 1266.5 1055.2 1264.1 1049.4 1261.5 1044.15 1263.25 1039 1264.9 1035.1 1270.5 1032.5 1274.3 1029.6 1281.55
L 945.25 1492.7 860.6 1264.85
Q 857.35 1256.1 854 1251.4 849.15 1244.7 842.75 1243.5 834.35 1242 826.85 1249.9 821.15 1255.9 816.55 1266.65 775.55 1362.8 739.9 1462.35 690.15 1387.65 663.8 1301.95 649.2 1254.65 646.85 1216.95 643.5 1164.45 660.95 1102.95 667.2 1080.95 674.45 1064.55 683.35 1044.5 694.95 1029.65 705.95 1015.6 721.85 1003.05 735.45 992.25 753.55 981.95 817.85 945.25 899 934.05 972.75 923.9 1053.8 935.55
M 1116.55 1037.4
Q 1083.25 1006.15 1041.35 991.2 1004.5 978.1 956.25 976.25 918.45 974.85 880.8 980.15 843.15 985.5 807.25 997.4 794.2 1001.75 785.7 1005.75 774.35 1011.15 766.4 1018 756.55 1026.35 748.25 1039.95 742.55 1049.25 735.2 1065.65 716.75 1106.65 707.95 1138.5 696.7 1179.1 697.8 1214.7 698.55 1238.45 705.2 1267.4 709.2 1284.85 719.4 1318.95 721.4 1325.6 723.35 1329.2 726.3 1334.5 730.65 1336.5 735.3 1338.65 740.85 1337 746.05 1335.5 749.95 1331.45 753.2 1328.05 755.9 1322.75 757.4 1319.8 760.15 1312.95 777.55 1270.15 802.8 1231.6 825.45 1196.95 848.9 1200.45 857.25 1201.65 865.4 1208.15 871.3 1212.85 878.55 1221.75 913.15 1264.35 931.8 1316.15 935.1 1325.4 939.45 1330.65 945.25 1337.6 952.2 1336.25 956.8 1335.35 960.4 1330.6 962.85 1327.3 965.4 1321.15 976.7 1292.9 982.55 1278.7 992.8 1254.05 1001.65 1237.1 1025.45 1191.35 1056.8 1167.65 1066.7 1193.6 1075.4 1230.55 1080.4 1251.9 1089.45 1294.8 1105.05 1364.8 1128.5 1432.65 1131.05 1440.05 1133.9 1444.15 1137.9 1449.85 1143.35 1450.95 1148.1 1451.9 1152.85 1449.05 1157.3 1446.4 1159.85 1441.7 1162 1437.8 1163.1 1432.25 1163.7 1429.1 1164.45 1422.15 1167 1397.35 1175.35 1343.7 1183.35 1292.75 1185.8 1265.25 1189.65 1221.7 1186.1 1185.9 1181.95 1143.65 1167.35 1109.55 1149.85 1068.7 1116.55 1037.4
M 987.6 1014.45
Q 1022.2 1019.45 1047.45 1030.55 1077.05 1043.55 1099.85 1066.55 1127.8 1094.8 1143.05 1136.35 1156.85 1174 1158.8 1218.1 1160.45 1255.05 1154.05 1300.85 1150.2 1328.45 1139.2 1382.85 1111.55 1284.45 1090.25 1185.45 1086.85 1169.65 1082.6 1160.95 1076.3 1148.2 1065.9 1143.95 1056.75 1140.25 1045.6 1143.55 1036 1146.35 1026.75 1153.6 1017.25 1161.1 1008.3 1172.25 1001.3 1180.9 993.1 1193.8 965.35 1237.35 947.25 1285.75 929.25 1245.95 902.8 1211.15 890.75 1195.25 879.6 1186.4 865.05 1174.8 849.85 1173.1 838.45 1171.8 826.4 1176.1 815.4 1180.05 805.55 1188 797.1 1194.85 788.9 1205.1 782.95 1212.5 774.95 1224.65 763.25 1242.5 754.9 1257.9 745 1276 738.4 1293 722.45 1245 722.85 1193.55 723.25 1142.1 739.85 1094.3 742.9 1085.6 745.75 1079.7 749.5 1071.95 754.1 1066.4 759.85 1059.4 769.05 1053.5 775.8 1049.1 786.65 1044 833.35 1022.3 885 1014.7 936.65 1007.05 987.6 1014.45 Z"/>

<path fill="#FF3300" stroke="none" d="
M 1097.15 944.55
Q 1079.6 939.25 1053.8 935.55 972.75 923.9 899 934.05 817.85 945.25 753.55 981.95 735.45 992.25 721.85 1003.05 705.95 1015.6 694.95 1029.65 683.35 1044.5 674.45 1064.55 667.2 1080.95 660.95 1102.95 643.5 1164.45 646.85 1216.95 649.2 1254.65 663.8 1301.95 690.15 1387.65 739.9 1462.35 775.55 1362.8 816.55 1266.65 821.15 1255.9 826.85 1249.9 834.35 1242 842.75 1243.5 849.15 1244.7 854 1251.4 857.35 1256.1 860.6 1264.85
L 945.25 1492.7 1029.6 1281.55
Q 1032.5 1274.3 1035.1 1270.5 1039 1264.9 1044.15 1263.25 1049.4 1261.5 1055.2 1264.1 1060.6 1266.5 1064.15 1271.45 1067.15 1275.6 1069.1 1281.8 1070.25 1285.6 1071.75 1293.15 1079.85 1335.35 1089.85 1403.95 1102.75 1492.15 1106.5 1515.15 1116.8 1577.7 1128.4 1624.75 1142.75 1682.85 1162.25 1730.95 1204.55 1578.7 1214.5 1419.85 1224.4 1260.95 1201.4 1104.65 1194.25 1056.05 1182.35 1025.85 1165.95 984.35 1136.55 963.3 1120.2 951.6 1097.15 944.55
M 1041.35 991.2
Q 1083.25 1006.15 1116.55 1037.4 1149.85 1068.7 1167.35 1109.55 1181.95 1143.65 1186.1 1185.9 1189.65 1221.7 1185.8 1265.25 1183.35 1292.75 1175.35 1343.7 1167 1397.35 1164.45 1422.15 1163.7 1429.1 1163.1 1432.25 1162 1437.8 1159.85 1441.7 1157.3 1446.4 1152.85 1449.05 1148.1 1451.9 1143.35 1450.95 1137.9 1449.85 1133.9 1444.15 1131.05 1440.05 1128.5 1432.65 1105.05 1364.8 1089.45 1294.8 1080.4 1251.9 1075.4 1230.55 1066.7 1193.6 1056.8 1167.65 1025.45 1191.35 1001.65 1237.1 992.8 1254.05 982.55 1278.7 976.7 1292.9 965.4 1321.15 962.85 1327.3 960.4 1330.6 956.8 1335.35 952.2 1336.25 945.25 1337.6 939.45 1330.65 935.1 1325.4 931.8 1316.15 913.15 1264.35 878.55 1221.75 871.3 1212.85 865.4 1208.15 857.25 1201.65 848.9 1200.45 825.45 1196.95 802.8 1231.6 777.55 1270.15 760.15 1312.95 757.4 1319.8 755.9 1322.75 753.2 1328.05 749.95 1331.45 746.05 1335.5 740.85 1337 735.3 1338.65 730.65 1336.5 726.3 1334.5 723.35 1329.2 721.4 1325.6 719.4 1318.95 709.2 1284.85 705.2 1267.4 698.55 1238.45 697.8 1214.7 696.7 1179.1 707.95 1138.5 716.75 1106.65 735.2 1065.65 742.55 1049.25 748.25 1039.95 756.55 1026.35 766.4 1018 774.35 1011.15 785.7 1005.75 794.2 1001.75 807.25 997.4 843.15 985.5 880.8 980.15 918.45 974.85 956.25 976.25 1004.5 978.1 1041.35 991.2 Z"/>

<path fill="#FFCC00" stroke="none" d="
M 1047.45 1030.55
Q 1022.2 1019.45 987.6 1014.45 936.65 1007.05 885 1014.7 833.35 1022.3 786.65 1044 775.8 1049.1 769.05 1053.5 759.85 1059.4 754.1 1066.4 749.5 1071.95 745.75 1079.7 742.9 1085.6 739.85 1094.3 723.25 1142.1 722.85 1193.55 722.45 1245 738.4 1293 745 1276 754.9 1257.9 763.25 1242.5 774.95 1224.65 782.95 1212.5 788.9 1205.1 797.1 1194.85 805.55 1188 815.4 1180.05 826.4 1176.1 838.45 1171.8 849.85 1173.1 865.05 1174.8 879.6 1186.4 890.75 1195.25 902.8 1211.15 929.25 1245.95 947.25 1285.75 965.35 1237.35 993.1 1193.8 1001.3 1180.9 1008.3 1172.25 1017.25 1161.1 1026.75 1153.6 1036 1146.35 1045.6 1143.55 1056.75 1140.25 1065.9 1143.95 1076.3 1148.2 1082.6 1160.95 1086.85 1169.65 1090.25 1185.45 1111.55 1284.45 1139.2 1382.85 1150.2 1328.45 1154.05 1300.85 1160.45 1255.05 1158.8 1218.1 1156.85 1174 1143.05 1136.35 1127.8 1094.8 1099.85 1066.55 1077.05 1043.55 1047.45 1030.55 Z"/>
</g>

<g id="Layer2_0_FILL">
<path fill="#000000" stroke="none" d="
M 1580.65 490.6
Q 1571.05 476.85 1557.55 467.1 1533.85 450.05 1505.6 458 1484.95 463.85 1468.35 477.85 1454.75 489.3 1451.4 506.1 1448.5 520.45 1453.05 534.5 1466.9 577.2 1509.65 590.8 1516 619.55 1516.2 648.85 1516.4 683 1513.7 717.15 1511.35 746.5 1501.55 774.3 1493.95 795.95 1478.95 813.35 1456.8 838.95 1422.95 840.45 1421.6 828.6 1419.3 816.75 1407.9 758.15 1372.15 710.45 1335.65 661.7 1287.25 624.7 1239.75 588.35 1184.7 564.75 1129.6 541.2 1070.45 531.25 1011.4 521.4 951.7 526.4 896.75 531.5 844.65 548.85 788.25 567.8 735.45 594.9 681.5 622.55 635.6 661.8 588.95 701.7 559.85 755.5 531.75 807.55 523.3 866.2 514.75 925.3 523.8 984.45 532.65 1042.05 557.8 1094.8 565.4 1106.9 579.2 1109.9 603.1 1114.85 627.5 1112.95 655.35 1110.25 683.15 1109.15 741.95 1107.3 800.8 1105.75 828 1105.05 855.15 1101.95 880.5 1141.85 916.5 1172.4 951.4 1202.05 993.25 1220.85 1049.85 1246.35 1111.85 1247.4 1157.2 1248.15 1199.9 1233.3 1255.7 1213.9 1299.95 1174.95 1335.95 1143.3 1362.3 1103.25 1385.6 1067.75 1400.65 1027.8 1429.1 952.25 1425.7 871.5 1440.4 869.8 1454.4 865.15 1482.5 855.9 1502.45 833.85 1524.65 809.35 1535.85 778.45 1546.95 747.7 1550.05 715 1552.2 692.1 1553.25 669.3 1554.4 644.95 1551.4 620.65 1549.05 601.25 1552.4 584.85 1562.95 578.25 1571.8 569.85 1585.85 556.35 1590 537.2 1595.55 511.9 1580.65 490.6
M 1320.35 727.2
Q 1329.75 736.35 1336.2 747.3 1367 799.6 1374.3 859.8 1381.45 918.9 1366.15 976.5 1350.8 1034.35 1316.35 1083.25 1282.5 1131.4 1232.7 1162.6 1181.6 1194.75 1121.1 1197.35 1060.2 1199.2 1005.4 1172.55 951.15 1146.05 913 1099.1 874.35 1051.45 860.8 991.6 850.7 946.85 863.7 903.15 881.4 843.65 936.75 815.7 991.55 788.05 1052.2 796.8 1086.15 801.95 1112.45 823.5 1157.1 860.1 1155.65 918.55 1154.05 982.85 1104.35 1022.75 1099.3 1026.75 1093.05 1026.95 1055.1 1029.9 1034.75 995.45 1030.2 987.7 1029.7 978.85 1028.25 954.65 1007.6 948.25 999.65 949.4 995.3 956.45 978.3 984.45 992.15 1014.5 1010.75 1055 1052.95 1071.25 1069.1 1077.45 1086.35 1076.05 1127.7 1073.05 1154.85 1040.4 1194.25 992.95 1198.65 931.05 1203.65 861.2 1157.95 808.85 1123.6 769.5 1072.1 759.35 970.75 739.25 887.45 800.75 908 761.6 937.7 728.75 979.2 682.8 1035.95 658.75 1090.25 635.85 1149.1 638.9 1207.4 641.9 1255.65 674.45 1290.35 697.9 1320.35 727.2
M 837.7 590.55
Q 895.35 573.65 955.25 570.05 1014.45 566.8 1072.3 580.7
L 1165.75 608.4
Q 1159.85 608 1154 607.6 1093.55 605.05 1037.25 626.8 972.65 651.75 924.9 702.1 885.45 743.8 860.5 795.6 837.2 843.8 822.2 895.1 797.55 979.5 833.05 1060.15 832 1060.25 830.95 1060.4 805.4 1063.3 780.4 1067.2 754.25 1070.85 727.65 1072.8 706.55 1073.75 685.3 1073.9 663.4 1074.1 641.65 1076 608.85 1078.45 577.85 1082.35 563.3 1051.9 554.65 1019.25 539.65 962.4 544.25 903.6 548.55 848.05 570.9 797.05 593.8 744.8 633.7 704.1 675.35 661.6 728.3 634.3 780.9 607.05 837.7 590.55 Z"/>

<path fill="#324A15" stroke="none" d="
M 955.25 570.05
Q 895.35 573.65 837.7 590.55 780.9 607.05 728.3 634.3 675.35 661.6 633.7 704.1 593.8 744.8 570.9 797.05 548.55 848.05 544.25 903.6 539.65 962.4 554.65 1019.25 563.3 1051.9 577.85 1082.35 608.85 1078.45 641.65 1076 663.4 1074.1 685.3 1073.9 706.55 1073.75 727.65 1072.8 754.25 1070.85 780.4 1067.2 805.4 1063.3 830.95 1060.4 832 1060.25 833.05 1060.15 797.55 979.5 822.2 895.1 837.2 843.8 860.5 795.6 885.45 743.8 924.9 702.1 972.65 651.75 1037.25 626.8 1093.55 605.05 1154 607.6 1159.85 608 1165.75 608.4
L 1072.3 580.7
Q 1014.45 566.8 955.25 570.05 Z"/>

<path fill="#B2A03D" stroke="none" d="
M 1336.2 747.3
Q 1329.75 736.35 1320.35 727.2 1290.35 697.9 1255.65 674.45 1207.4 641.9 1149.1 638.9 1090.25 635.85 1035.95 658.75 979.2 682.8 937.7 728.75 908 761.6 887.45 800.75 970.75 739.25 1072.1 759.35 1123.6 769.5 1157.95 808.85 1203.65 861.2 1198.65 931.05 1194.25 992.95 1154.85 1040.4 1127.7 1073.05 1086.35 1076.05 1069.1 1077.45 1052.95 1071.25 1010.75 1055 992.15 1014.5 978.3 984.45 995.3 956.45 999.65 949.4 1007.6 948.25 1028.25 954.65 1029.7 978.85 1030.2 987.7 1034.75 995.45 1055.1 1029.9 1093.05 1026.95 1099.3 1026.75 1104.35 1022.75 1154.05 982.85 1155.65 918.55 1157.1 860.1 1112.45 823.5 1086.15 801.95 1052.2 796.8 991.55 788.05 936.75 815.7 881.4 843.65 863.7 903.15 850.7 946.85 860.8 991.6 874.35 1051.45 913 1099.1 951.15 1146.05 1005.4 1172.55 1060.2 1199.2 1121.1 1197.35 1181.6 1194.75 1232.7 1162.6 1282.5 1131.4 1316.35 1083.25 1350.8 1034.35 1366.15 976.5 1381.45 918.9 1374.3 859.8 1367 799.6 1336.2 747.3 Z"/>
</g>

<g id="Layer1_0_FILL">
<path fill="#000000" stroke="none" d="
M 780.5 601.85
Q 777.85 597.35 774.55 595 770.5 592.05 766.95 593.85 764.8 594.95 763.85 597.55 762.9 599.95 763.35 602.55 763.7 604.7 765 607.25 765.6 608.45 767.55 611.6 779.1 630.4 786.35 651.45
L 729.9 693.8
Q 715.05 704.95 707.75 710.9 695.7 720.7 687 729.55 661.1 755.9 643.65 794.85 628.95 827.6 619.8 870.6 592.55 865.2 567.05 852.9 561.05 849.95 558.65 849 553.75 847.15 549.75 847.05 544.9 846.95 540.85 849.55 536.55 852.35 535.9 856.7 535.2 861.8 539.6 866.5 543 870.1 549.15 873.2 586.85 892.45 622.25 896.55 626.8 897.1 629.8 896.75 633.9 896.2 636.35 893.9 638.35 892.05 639.45 888.85 640.1 886.85 640.75 882.85 646.3 850.35 659.05 819.75 672.85 786.55 694.5 757.45 716.1 728.3 743.9 705.45 762.25 690.35 792.65 671.15 797.5 668.1 799.75 665.95 803.35 662.65 804.3 658.9 805.15 655.55 804.1 651.35 803.4 648.65 801.35 644.1 794.9 629.75 791.5 622.7 785.8 610.9 780.5 601.85 Z"/>

<path fill="#000000" fill-opacity="0.18823529411764706" stroke="none" d="
M 1396.4 877.45
Q 1389.4 875.9 1381.9 878.95 1375.05 881.7 1369.55 887.45 1365.05 892.2 1360.9 899.55 1358.9 903.05 1354.05 912.95 1311.65 1000.3 1250.05 1050.05 1215.2 1078.25 1175.05 1093.35 1132.6 1109.3 1090.4 1108.1 1060.65 1107.25 1026.95 1097.5 1000.3 1089.8 966.15 1074.85 946.3 1066.2 934.35 1059.05 917.65 1049.05 907.05 1037.1 897.25 1024.55 892.15 1018.55 883.2 1007.95 874.3 1004.1 868.85 1001.75 863.4 1002 857.35 1002.3 853.5 1005.8 846.4681640625 1012.196484375 849.1 1026.25 846.1791015625 1021.6779296875 841.8 1018.55 837.9619140625 1015.7845703125 833.15 1014.2 831.5494140625 1009.2314453125 830.4 1004.05 829.328125 999.1375 828.7 994.2 829.8275390625 974.337890625 832.2 954.5 834.0267578125 939.3451171875 836.35 927.8 842.613671875 906.504296875 853.35 884.4 864.4 861.7 880.9 836.75 884.1 831.9 885.45 829.5 887.8 825.3 888.75 821.65 889.9 817.25 889.15 813.05 888.557421875 809.680078125 886.8 807.2 890.4533203125 801.0796875 893.15 796.7 905 777.5 915.85 763.15 920.4 757.1 922 752.5 923.18515625 749.1025390625 922.85 746.3 924.1916015625 744.2806640625 925.3 742.4 930.1890625 738.3513671875 935.35 734.55 941.25 730.15 942.45 729.15 946.3 725.9 948.5 722.75 951.15 718.85 951.65 714.4 952.2 709.6 949.85 706.05 947.85 703 944.05 701.5 940.55 700.1 936.6 700.4 930.75 700.8 922.4 705.4 894.25 720.8 870.25 751.95 853.05 774.25 832.65 812.85 823.65 829.8 818.45 841.2 808.548828125 862.6755859375 801.6 885.15 787.5171875 912.7265625 779.5 947.95 774.537890625 969.720703125 771.3 997.8 769.7919921875 1005.775390625 768.2 1014.65 767.58984375 1017.99375 767.1 1020.95 753.0927734375 1023.84140625 733.55 1027.95 693.5 1036.4 667.8 1039.75 638.6 1042.95 624.05 1044.75 598.4 1047.9 580.9 1052.75 574.45 1054.55 570.65 1056.65 565.35 1059.55 563 1063.8 560.4 1068.6 561.6 1074.5 562.75 1080.15 566.75 1084.25 570.4 1088.05 575.95 1090.25 580.9 1092.15 586.8 1092.6 591.6 1093 597.9 1092.45 599 1092.35 609 1091.2 621.15 1089.85 646.45 1088.7 671.2 1087.6 683.9 1086.1 692.45 1085.1 707.5 1082.5 724.1 1079.7 731.05 1078.75 746.7 1076.65 773.6 1075.15 774.2947265625 1075.112109375 774.95 1075.05 777.4076171875 1077.0970703125 780.4 1078.25 783.5341796875 1081.4564453125 787.5 1083.9 798 1090.35 808.35 1087.5 816.959375 1085.151953125 822.5 1077 826.209765625 1078.9029296875 830.5 1079.45 838.4 1080.5 843.85 1076.1 848.5 1072.4 850.05 1065.7 851.1994140625 1060.548828125 850.25 1055.05 853.5513671875 1048.9021484375 853.65 1042.15 853.651171875 1042.0759765625 853.65 1042 860.702734375 1061.6935546875 873.2 1079.15 888.85 1101.2 910.7 1116.3 917.05 1120.7 918.95 1122.35 923.3 1126.05 925.15 1130.05 926.5 1133 927.25 1138.3 928.2 1145 928.7 1146.85 931.1 1155.55 939.7 1162.75 945.9 1167.95 957 1173.4 1008.05 1198.5 1061 1206.75 1117.7 1215.55 1169.15 1203.6 1200.25 1196.3 1236.35 1179.45 1253.85 1171.3 1266.9 1163.5 1282.75 1154.05 1294.9 1143.6 1310.8 1129.9 1326 1109.45 1336.9 1094.8 1351.55 1070.65 1374.7 1032.55 1388.5 1003.3 1406.25 965.65 1414.35 931.4 1416.55 922.15 1417.15 915.7 1417.95 907 1416.4 899.95 1414.6 891.85 1409.4 885.7 1403.85 879.15 1396.4 877.45 Z"/>
</g>

<g id="Layer0_0_FILL">
<path fill="#000000" fill-opacity="0.00392156862745098" stroke="none" d="
M 2679.35 2472.9
L 2679.35 472.9 679.35 472.9 679.35 2472.9 2679.35 2472.9 Z"/>
</g>

<path id="Layer0_0_1_STROKES" stroke="#000000" stroke-opacity="0" stroke-width="1" stroke-linejoin="round" stroke-linecap="round" fill="none" d="
M 679.35 472.9
L 2679.35 472.9 2679.35 2472.9 679.35 2472.9 679.35 472.9 Z"/>
</defs>

<g transform="matrix( 1, 0, 0, 1, 0,0) ">
<use xlink:href="#Layer3_0_FILL"/>
</g>

<g transform="matrix( 1, 0, 0, 1, 0,0) ">
<use xlink:href="#Layer2_0_FILL"/>
</g>

<g transform="matrix( 1, 0, 0, 1, 0,0) ">
<use xlink:href="#Layer1_0_FILL"/>
</g>

<g transform="matrix( 1, 0, 0, 1, -679.35,-472.9) ">
<use xlink:href="#Layer0_0_FILL"/>

<use xlink:href="#Layer0_0_1_STROKES"/>
</g>
</svg>
