
<svg xmlns="http://www.w3.org/2000/svg" version="1.1" xmlns:xlink="http://www.w3.org/1999/xlink" preserveAspectRatio="none" x="0px" y="0px" width="2048px" height="2048px" viewBox="0 0 2048 2048">
<defs>
<linearGradient id="Gradient_1" gradientUnits="userSpaceOnUse" x1="924.2" y1="283.04999999999995" x2="924.2" y2="1565.15" spreadMethod="pad">
<stop  offset="0%" stop-color="#0051A1"/>

<stop  offset="100%" stop-color="#0051A1"/>
</linearGradient>

<g id="Layer3_0_FILL">
<path fill="#0066CC" stroke="none" d="
M 2033.3 326.4
L 33.3 326.4 33.3 2326.4 2033.3 2326.4 2033.3 326.4 Z"/>
</g>

<g id="Layer3_1_FILL">
<path fill="#000000" stroke="none" d="
M 1102.5 1051.55
L 1102.5 923.55 -111 923.55 -111 1051.55 1102.5 1051.55 Z"/>
</g>

<g id="Layer3_2_FILL">
<path fill="#000000" stroke="none" d="
M 1074.05 971.55
L 1074.05 923.55 -111 923.55 -111 971.55 1074.05 971.55 Z"/>
</g>

<g id="Layer3_3_FILL">
<path fill="url(#Gradient_1)" stroke="none" d="
M 1497.55 1564.15
L 1497.55 284.15 217.6 284.15 217.6 1564.15 1497.55 1564.15 Z"/>
</g>

<g id="Layer3_4_FILL">
<path fill="#00468C" stroke="none" d="
M 345.55 284.15
L 217.6 284.15 217.6 1692.1 345.55 1692.1 345.55 284.15 Z"/>
</g>

<g id="Layer3_5_FILL">
<path fill="#00468C" stroke="none" d="
M 345.55 284.15
L 217.6 284.15 217.6 1948.1 345.55 1948.1 345.55 284.15 Z"/>
</g>

<g id="Layer3_6_FILL">
<path fill="#003F7D" stroke="none" d="
M 1280 768
L 1152 768 1152 1024 1280 1024 1280 768 Z"/>
</g>

<g id="Layer3_7_FILL">
<path fill="#00468C" stroke="none" d="
M 1280 768
L 1152 768 1152 896 1280 896 1280 768 Z"/>
</g>

<g id="Layer3_8_FILL">
<path fill="#00468C" stroke="none" d="
M 610.65 468.95
Q 581.3 439.6 539.8 439.6 498.3 439.6 468.95 468.95 439.6 498.3 439.6 539.8 439.6 581.3 468.95 610.65 498.3 640 539.8 640 581.3 640 610.65 610.65 640 581.3 640 539.8 640 498.3 610.65 468.95 Z"/>
</g>

<g id="Layer3_9_FILL">
<path fill="#00468C" stroke="none" d="
M 640 539.8
Q 640 498.3 610.65 468.95 581.3 439.6 539.8 439.6 498.3 439.6 468.95 468.95 439.6 498.3 439.6 539.8 439.6 581.3 468.95 610.65 498.3 640 539.8 640 581.3 640 610.65 610.65 640 581.3 640 539.8 Z"/>
</g>

<g id="Layer3_10_FILL">
<path fill="#00468C" stroke="none" d="
M 640 539.8
Q 640 498.3 610.65 468.95 581.3 439.6 539.8 439.6 498.3 439.6 468.95 468.95 439.6 498.3 439.6 539.8 439.6 581.3 468.95 610.65 498.3 640 539.8 640 581.3 640 610.65 610.65 640 581.3 640 539.8 Z"/>
</g>

<g id="Layer3_11_FILL">
<path fill="#00468C" stroke="none" d="
M 640 539.8
Q 640 498.3 610.65 468.95 581.3 439.6 539.8 439.6 498.3 439.6 468.95 468.95 439.6 498.3 439.6 539.8 439.6 581.3 468.95 610.65 498.3 640 539.8 640 581.3 640 610.65 610.65 640 581.3 640 539.8 Z"/>
</g>

<g id="Layer3_12_FILL">
<path fill="#0066CC" stroke="none" d="
M 640 539.8
Q 640 498.3 610.65 468.95 581.3 439.6 539.8 439.6 498.3 439.6 468.95 468.95 439.6 498.3 439.6 539.8 439.6 581.3 468.95 610.65 498.3 640 539.8 640 581.3 640 610.65 610.65 640 581.3 640 539.8 Z"/>
</g>

<g id="Layer3_13_FILL">
<path fill="#0066CC" stroke="none" d="
M 640 539.8
Q 640 498.3 610.65 468.95 581.3 439.6 539.8 439.6 498.3 439.6 468.95 468.95 439.6 498.3 439.6 539.8 439.6 581.3 468.95 610.65 498.3 640 539.8 640 581.3 640 610.65 610.65 640 581.3 640 539.8 Z"/>
</g>

<g id="Layer3_14_FILL">
<path fill="#0066CC" stroke="none" d="
M 640 539.8
Q 640 498.3 610.65 468.95 581.3 439.6 539.8 439.6 498.3 439.6 468.95 468.95 439.6 498.3 439.6 539.8 439.6 581.3 468.95 610.65 498.3 640 539.8 640 581.3 640 610.65 610.65 640 581.3 640 539.8 Z"/>
</g>

<g id="Layer3_15_FILL">
<path fill="#0066CC" stroke="none" d="
M 640 539.8
Q 640 498.3 610.65 468.95 581.3 439.6 539.8 439.6 498.3 439.6 468.95 468.95 439.6 498.3 439.6 539.8 439.6 581.3 468.95 610.65 498.3 640 539.8 640 581.3 640 610.65 610.65 640 581.3 640 539.8 Z"/>
</g>

<g id="Layer3_16_FILL">
<path fill="#0051A1" stroke="none" d="
M -295.2 435.7
Q -299.4 434.95 -303.15 438.25 -306.7 441.4 -307.6 446 -308.35 449.85 -307.5 454.85 -307.15 456.95 -305.5 463.6 -302.05 477.2 -300.3 494.4 -299.15 505.8 -298.3 525.65 -295.05 599.3 -294.55 689.7 -294.2 750.3 -295.15 853.8 -295.2 859 -294.85 861.75 -294.35 866.15 -292.65 869.25 -290.6 872.85 -286.75 874.55 -282.7 876.3 -279.35 874.55 -276.05 872.8 -274.75 868.3 -273.8 865.05 -273.8 859.8 -273.4 777.9 -273.5 695.9 -273.6 616.6 -275.15 573.85 -277.65 506.35 -285 452.4 -286.95 437.25 -295.2 435.7 Z"/>
</g>
</defs>

<g transform="matrix( 1, 0, 0, 1, -33.3,-326.4) ">
<use xlink:href="#Layer3_0_FILL"/>
</g>

<g transform="matrix( 1.6876678466796875, 0, 0, 1, 187.35,996.45) ">
<use xlink:href="#Layer3_1_FILL"/>
</g>

<g transform="matrix( 0, 1.7281646728515625, -2.6666717529296875, 0, 4510.8,191.85) ">
<use xlink:href="#Layer3_2_FILL"/>
</g>

<g transform="matrix( 1.0000457763671875, 0, 0, 1, 166.4,99.85) ">
<use xlink:href="#Layer3_3_FILL"/>
</g>

<g transform="matrix( 1.000396728515625, 0, 0, 1.000030517578125, 38.3,-28.15) ">
<use xlink:href="#Layer3_4_FILL"/>
</g>

<g transform="matrix( 0, 1.0003814697265625, -0.8461761474609375, 0, 1904.45,38.3) ">
<use xlink:href="#Layer3_5_FILL"/>
</g>

<g transform="matrix( 1, 0, 0, 1, 384,128) ">
<use xlink:href="#Layer3_6_FILL"/>
</g>

<g transform="matrix( 1, 0, 0, 1, 384,0) ">
<use xlink:href="#Layer3_7_FILL"/>
</g>

<g transform="matrix( 1, 0, 0, 1, 0,968.4) ">
<use xlink:href="#Layer3_8_FILL"/>
</g>

<g transform="matrix( 1, 0, 0, 1, 0,0) ">
<use xlink:href="#Layer3_9_FILL"/>
</g>

<g transform="matrix( 1, 0, 0, 1, 968.4,0) ">
<use xlink:href="#Layer3_10_FILL"/>
</g>

<g transform="matrix( 1, 0, 0, 1, 968.4,968.4) ">
<use xlink:href="#Layer3_11_FILL"/>
</g>

<g transform="matrix( 1, 0, 0, 1, 0,937.6) ">
<use xlink:href="#Layer3_12_FILL"/>
</g>

<g transform="matrix( 1, 0, 0, 1, 0,-30.8) ">
<use xlink:href="#Layer3_13_FILL"/>
</g>

<g transform="matrix( 1, 0, 0, 1, 968.4,-30.8) ">
<use xlink:href="#Layer3_14_FILL"/>
</g>

<g transform="matrix( 1, 0, 0, 1, 968.4,937.6) ">
<use xlink:href="#Layer3_15_FILL"/>
</g>

<g transform="matrix( 1, 0, 0, 1, 0,0) ">
<use xlink:href="#Layer3_16_FILL"/>
</g>
</svg>
