
<svg xmlns="http://www.w3.org/2000/svg" version="1.1" xmlns:xlink="http://www.w3.org/1999/xlink" preserveAspectRatio="none" x="0px" y="0px" width="2000px" height="2000px" viewBox="0 0 2000 2000">
<defs>
<g id="Layer2_0_FILL">
<path fill="#FFFFFF" stroke="none" d="
M 1548.65 350.55
Q 1482.85 309.35 1409.35 284.75 1308.15 251 1201.55 242.35 1092.35 233.2 983.3 246 877.3 258 779.05 297.95 679 338.65 584.15 391.25 492.95 441.7 415.7 511.65 338.9 581.2 282.3 667.8 223.4 758.05 191.7 861.15 159.75 965.2 158.2 1073.95 156.7 1176.7 183.7 1275.75 212.2 1380.15 270.6 1471.15 330 1563.7 415.2 1633.4 500.5 1703.25 603.25 1743.75 697.55 1781.05 797.2 1800.65 900.25 1820.9 1005.3 1823.05 1107.7 1825.1 1209.3 1812.15 1319 1797.8 1421 1756.15 1520.25 1715.75 1602.15 1646.45 1685.35 1575.9 1745.15 1484.55 1804.15 1394.5 1836.7 1292 1869.3 1189.25 1876.55 1081.6 1883.75 975.1 1866.9 869.6 1850.8 769 1812.4 674.55 1772.2 575.6 1705.65 492.05 1638.85 408.2 1548.65 350.55
M 1624.85 567.3
Q 1690.85 653.75 1725.5 756.8 1760.5 861 1766.9 970.6 1773.4 1081.1 1750.7 1189.15 1728.7 1293.85 1676.95 1387.25 1623.2 1484.3 1540.85 1558.5 1459.5 1631.8 1357.4 1671.2 1258.45 1709.25 1153.05 1719.75 1050.45 1730.35 947.4 1722.85 843.05 1715.85 741.95 1690.15 635.5 1663.1 540.7 1608.25 448.25 1554.7 382.3 1470.95 315.2 1385.75 281.2 1282.9 247.15 1179.9 249.55 1071.75 251.9 964.1 288.05 862.7 324.4 760.55 388.55 673 453.2 584.75 539.4 517.3 626.35 449.2 729.3 410.15 827.6 372.9 931.25 353.95 992.6 342.65 1054.85 339.15 1164.55 333.55 1272.3 353.6 1374.05 372.65 1463.3 424.7 1558.3 480.1 1624.85 567.3
M 1429.9 1217.25
Q 1402.7 1292.35 1444.3 1357.4 1467.15 1393.05 1507.4 1383.4 1624.95 1355.7 1636.55 1231.9 1647.2 1118.55 1541.1 1104.25 1460.2 1133.75 1429.9 1217.25
M 1523.8 544.35
Q 1452.85 457.75 1346.85 419.95 1236.35 380.5 1141.45 443.6 1085.55 498.55 1086.8 577.65 1087.95 649 1143.8 691.75 1211.85 743.95 1293.6 775.1 1399.05 815.25 1426.7 923.85 1451.05 1019.6 1533.45 1067.2 1563.8 1084.8 1596.2 1073.25 1683.3 1042.45 1679.5 941.35 1675.3 830.4 1632.95 727.35 1592.05 627.7 1523.8 544.35 Z"/>

<path fill="#0099FF" fill-opacity="0.4980392156862745" stroke="none" d="
M 1725.5 756.8
Q 1690.85 653.75 1624.85 567.3 1558.3 480.1 1463.3 424.7 1374.05 372.65 1272.3 353.6 1164.55 333.55 1054.85 339.15 992.6 342.65 931.25 353.95 827.6 372.9 729.3 410.15 626.35 449.2 539.4 517.3 453.2 584.75 388.55 673 324.4 760.55 288.05 862.7 251.9 964.1 249.55 1071.75 247.15 1179.9 281.2 1282.9 315.2 1385.75 382.3 1470.95 448.25 1554.7 540.7 1608.25 635.5 1663.1 741.95 1690.15 843.05 1715.85 947.4 1722.85 1050.45 1730.35 1153.05 1719.75 1258.45 1709.25 1357.4 1671.2 1459.5 1631.8 1540.85 1558.5 1623.2 1484.3 1676.95 1387.25 1728.7 1293.85 1750.7 1189.15 1773.4 1081.1 1766.9 970.6 1760.5 861 1725.5 756.8
M 1346.85 419.95
Q 1452.85 457.75 1523.8 544.35 1592.05 627.7 1632.95 727.35 1675.3 830.4 1679.5 941.35 1683.3 1042.45 1596.2 1073.25 1563.8 1084.8 1533.45 1067.2 1451.05 1019.6 1426.7 923.85 1399.05 815.25 1293.6 775.1 1211.85 743.95 1143.8 691.75 1087.95 649 1086.8 577.65 1085.55 498.55 1141.45 443.6 1236.35 380.5 1346.85 419.95
M 1444.3 1357.4
Q 1402.7 1292.35 1429.9 1217.25 1460.2 1133.75 1541.1 1104.25 1647.2 1118.55 1636.55 1231.9 1624.95 1355.7 1507.4 1383.4 1467.15 1393.05 1444.3 1357.4 Z"/>
</g>
</defs>

<g transform="matrix( 1, 0, 0, 1, 0,0) ">
<use xlink:href="#Layer2_0_FILL"/>
</g>
</svg>
