
<svg xmlns="http://www.w3.org/2000/svg" version="1.1" xmlns:xlink="http://www.w3.org/1999/xlink" preserveAspectRatio="none" x="0px" y="0px" width="2000px" height="2000px" viewBox="0 0 2000 2000">
<defs>
<g id="Layer3_0_FILL">
<path fill="#000000" stroke="none" d="
M 1631.8 1153.85
Q 1628.8 1158.65 1628.25 1164.35 1623.1 1215.4 1631.9 1266.45 1632.9 1272.2 1633.7 1277.9 1634.75 1285.15 1635.5 1292.1 1636.55 1301.95 1637.6 1311.8 1638.55 1320.7 1639.25 1329.5 1640.9 1349.45 1640.5 1369.5 1640.35 1378.35 1632.45 1381.55 1608.05 1391.2 1581.8 1395.25 1581.4 1379.4 1578.2 1364.25 1576.3 1355.3 1573.55 1346.6 1570.8 1337.95 1567 1329.7 1563.2 1321.6 1558.45 1313.7 1553.65 1305.8 1548.15 1298.55 1542.6 1291.3 1535.9 1285.15 1494.2 1246.6 1440.35 1226.95 1438.15 1222.55 1436 1218.2 1430.25 1206.7 1424.7 1195.05 1418.8 1182.7 1412.85 1170.05 1367.5 1073.55 1325.2 975.65 1318.15 959.25 1302.9 965.3
L 1242.9 965.5 1005.55 982.95
Q 971.05 985.5 936.5 988.3 854.2 994.55 773.25 1006.85 710.1 1016.35 645.95 1017.35 641.45 1017.4 637.05 1017.6 633.75 1017.7 630.35 1017.8 628.2 1017.9 625.95 1018 624.9 1018 623.65 1018 589.9 1019.05 556.65 1024.7 549.85 1025.75 543.3 1028.5 530.1 1034.2 539.3 1043.35 536.75 1055.05 533.85 1066.7 525.15 1101.45 515.55 1136.15 506.05 1170.7 495.8 1205.2 485.55 1239.65 474.8 1273.9 464.05 1308.3 452.9 1342.35 441.75 1376.5 429.9 1410.45 428.05 1415.8 427.65 1421.2 426.5 1436.25 440.3 1435.45 440.9 1435.15 441.4 1435.3 443.05 1435.9 444 1437.35 466.1 1471.5 486.2 1506.8 522.65 1570.7 569.8 1627.3 610.45 1676.15 653.65 1722.85 657.6 1727.15 661.3 1731.4 664.75 1735.2 668 1739 672.85 1744.6 677.6 1750.25 684.4 1758.25 691 1766.5 697.25 1774.25 702.55 1782.35 711.4 1795.9 723.45 1806.35 725.3 1807.95 727.7 1808.45 736.3 1809.5 745.1 1808.8
L 1037.3 1803.65
Q 1051.35 1803.6 1065.25 1803.4 1153.6 1802.05 1241.65 1794.75 1247.35 1794.35 1253.1 1793.85 1259.7 1793.3 1266.25 1792.7 1273.65 1791.95 1281.15 1791.4 1289.55 1790.7 1297.8 1789.85 1340.5 1785.8 1383.1 1781.4 1402.45 1779.45 1397.6 1761.7 1409.5 1690.8 1427.25 1621.45 1429.75 1611.65 1433.2 1602.1 1445.55 1600.2 1457.1 1595.1 1463.25 1592.35 1469.25 1589.3 1475.3 1586.2 1481.05 1582.6 1486.85 1578.95 1492.15 1575.1 1497.6 1571.15 1502.6 1566.7 1538.25 1534.85 1562.55 1495.5 1573.25 1494.95 1584.1 1494.3 1595.25 1493.3 1606.2 1492.25 1651.7 1487.95 1695.75 1476.5 1707.55 1473.35 1710.05 1461.55 1716.7 1429.9 1717.85 1397.2 1717.95 1394.25 1718.25 1391.3 1720.45 1368.9 1722.25 1346.25 1724.95 1311.9 1725 1277.55 1725.05 1252.6 1722.2 1227.8 1718.1 1192.25 1695.4 1164.65 1685.15 1152.25 1671.25 1144.2 1646.75 1130.1 1631.8 1153.85
M 1366.1 1137.1
Q 1371.35 1149 1377.25 1160.3 1384.65 1174.45 1392.7 1188.15 1399.75 1200.1 1405.8 1212.7 1420.5 1243.25 1434.45 1274.25 1438.15 1282.5 1442.25 1290.45 1446.25 1298.25 1450.6 1306.05 1455.3 1314.5 1460.3 1322.7 1463.4 1327.8 1466.65 1332.95 1469.15 1336.85 1471.7 1340.65 1474.75 1345.25 1477.45 1349.65 1466.6 1349.7 1455.8 1349.7 1414.9 1349.8 1373.8 1350.15 1336.8 1350.45 1299.6 1350.85 1266.4 1351.25 1233.15 1351.9 1179.8 1352.9 1126.35 1354.85 1021.35 1358.45 916.8 1366.25 860.8 1370.7 804.95 1376.15 758.8 1380.6 712.45 1384.6 656.05 1389.5 599.35 1391.95 584.75 1392.5 570.1 1393.25 561.6 1393.65 553.15 1394.15 545.85 1394.65 538.45 1395.25 525.15 1396.2 511.6 1397.9 496.2 1399.65 480.8 1402.65 466.9 1405.35 453.3 1408.9 457.2 1397.8 461 1386.75 472.6 1353.2 483.35 1319.75 494.2 1286.05 504.15 1252.35 514.1 1218.55 523.6 1184.35 533.05 1150.25 541.6 1116 550.2 1081.45 557.95 1047.05
L 558.85 1042.7 832.45 1019.8
Q 842 1019 851.55 1018.25 916.95 1012.85 982.6 1007.55 1018.9 1004.55 1055.4 1001.85 1092 999.1 1128.55 996.6 1151.3 995.1 1173.85 993.65 1195.6 992.35 1217.25 991 1238.1 989.95 1258.85 988.75 1272.25 988.05 1285.45 986 1296.25 984.6 1302.35 987.8 1333.25 1063.25 1366.1 1137.1
M 1513.45 1352
L 1508.75 1350.55 1452.55 1250.95
Q 1469.65 1258.7 1485.45 1268.8 1515.3 1287.8 1533.15 1318.35 1562.75 1368.95 1556.95 1427.4 1555.25 1444.75 1548.55 1457.5 1510.95 1463.5 1473.15 1460.15
L 1501.65 1380.85
Q 1511.3 1382.4 1518.2 1374.55 1530.05 1361.15 1513.45 1352
M 1451.35 1461.9
L 1448.4 1466.05
Q 1448.6 1467.15 1448.45 1467.75 1437.45 1508.2 1425 1549.2 1422.55 1557.25 1420.25 1565.35 1396.15 1649.5 1379 1735.25 1377.2 1744.1 1374 1750.25 1298.65 1758.85 1223.3 1764.8 1166.95 1769.3 1110.35 1772.35 1072.1 1774.55 1033.8 1776.2 1022.2 1776.75 1010.5 1777.3 949.25 1780 887.9 1782.6 882.15 1782.85 876.45 1783.1 865.4 1783.6 854.4 1784.1 797.3 1786.45 740.2 1790.25 738.65 1787.9 737.1 1785.6 720.2 1761.4 701.15 1738.8 677.5 1710.8 652.55 1684.05 645.6 1676.65 638.6 1669.2 591.1 1618.75 550.3 1562.6 547.1 1558.15 543.9 1553.7 539.9 1548 536 1542.3 495.9 1484.2 459.7 1423.8 462.25 1423.35 464.8 1422.9 507.65 1416.25 551.2 1414.25 608.45 1410.7 665.7 1407.2 674.1 1406.7 682.55 1406.2 725.95 1403.6 769.3 1400.95 813.8 1398.55 858.3 1396.2 1169.4 1380.65 1481.05 1380.9
L 1451.35 1461.9
M 1440.5 1581.05
L 1436.3 1582 1468.35 1474.55
Q 1498.05 1478.25 1527.75 1476.2 1538.25 1475.35 1544.55 1475.5 1537.6 1492.8 1528.75 1509.7 1521.65 1523.35 1511.4 1534.85 1482.35 1567.7 1440.5 1581.05
M 1583.55 1414.9
Q 1596.85 1414.05 1609.85 1410.65 1625.25 1406.6 1640.65 1402.25 1658.2 1397.35 1659.8 1379.8 1664.05 1333.7 1658.15 1287.75 1656.7 1276.25 1655.05 1264.9 1649.9 1229 1647.35 1192.75 1646.15 1175.95 1655.9 1163.55 1676.8 1172.2 1686.75 1194.2 1700.15 1224 1699.6 1256.85 1698.9 1299.95 1695.5 1342.8 1692.5 1381.1 1688.55 1419.15 1687.85 1425.8 1688.2 1432.45 1689.15 1450.6 1673.3 1454.05
L 1571.35 1468.65 1583.55 1414.9
M 609.35 1563.15
Q 612.25 1570.05 616.15 1576.2 639.45 1612.85 665.75 1647.65 688.85 1678.2 708.4 1711.1 722.5 1734.95 742.2 1754.65 742.5 1760.7 748.55 1761.45 781 1762.8 813.7 1761.5 817.4 1761.4 820.9 1761.3 854.9 1760.25 888.5 1757.85 933.9 1754.55 979.2 1749.7 1031 1744.25 1080.55 1729.25 1091.3 1726 1092.25 1715.15 1094.8 1685.05 1093.45 1654.7 1090.35 1584.95 1088.9 1515.05
L 1090.85 1508.45
Q 1080.35 1487.45 1066.6 1468.2 1062.15 1461.95 1058.35 1455.35 1047.5 1436.35 1028.55 1440.85 1026 1439.9 1023.35 1439.9 1007.55 1438.2 991.7 1439.85 813.7 1454.7 636.75 1478 628.35 1479.1 624.65 1485.9 609.1 1514.7 600.15 1546.6 596.25 1560.45 609.35 1563.15
M 620.2 1546.4
L 636.55 1498.25 739.35 1486.1 726.25 1532.7 620.2 1546.4
M 745.3 1530.35
L 755.15 1484.5 849.9 1477.15 846.85 1518.75 745.3 1530.35
M 863.6 1477.05
L 863.25 1475.6
Q 895.9 1471.1 928.95 1468.1
L 953.6 1508.8 862.75 1517.1 863.6 1477.05
M 851.95 1536.75
L 862.15 1582.4 759.65 1595.55 745.95 1547.45 851.95 1536.75
M 873.85 1580.95
L 860.05 1536 963.4 1527.4 969.35 1569.85 873.85 1580.95
M 970.25 1507.5
L 955.75 1465.75 1022.95 1459.8 1026.25 1459.05 1061.55 1501.4 970.25 1507.5
M 984.9 1568.3
L 977.45 1527.1 1072.05 1521.3 1072.35 1536.35 1071.1 1561.75 984.9 1568.3
M 620.05 1562.15
L 734.3 1548.7 746.45 1597.25
Q 726.15 1599.75 705.95 1602.8 681.2 1606.2 657.65 1614.6
L 620.05 1562.15
M 1072.65 1585.1
L 1073.05 1649.45 1000.95 1657.6 988.25 1587.15 1072.65 1585.1
M 973.05 1588.2
L 987.5 1659.35 899.8 1671.65 878.95 1597.9 973.05 1588.2
M 1002.5 1722.85
Q 991.75 1724.5 980.95 1725.85 959.4 1729 937.95 1732.65 924.35 1735.2 915.9 1732.05
L 905.4 1692.05 992.25 1681.9 1002.5 1722.85
M 1012.85 1719.9
L 1005.05 1680.4 1073.1 1669.8 1072.95 1710.2 1012.85 1719.9
M 866.95 1599.3
L 888.15 1673.4 795 1688.8 765.05 1612.5 866.95 1599.3
M 893.25 1693.5
L 903.8 1734.5 819.05 1740.35 802.45 1704.85 893.25 1693.5
M 683.9 1647.95
L 664.9 1623.8 751.8 1613.25 783.35 1690.9 723.5 1702.15 683.9 1647.95
M 757.35 1741.3
L 750.75 1734.75 735.6 1718.3 790.3 1706.8 807.9 1740.65 757.35 1741.3
M 1332.55 1530
Q 1327.7 1520.45 1317.6 1516.95 1276.5 1502.75 1232.75 1504.4 1188.85 1506.2 1152.5 1530.2 1147.1 1533.8 1144.8 1539.85 1137.65 1558.95 1137.55 1579.85 1137.45 1593.1 1134.9 1606 1131.2 1624.9 1140.5 1642.1 1143.8 1648.15 1148.95 1652.8 1175.05 1676.25 1209.85 1683.4 1217.3 1684.8 1224.95 1685 1253 1685.65 1280.4 1679.75 1325.95 1669.85 1346.9 1630.15 1355.05 1624.95 1354.65 1614.15 1352.95 1569.85 1332.55 1530
M 1305.05 1534.75
Q 1324.5 1548.2 1327.35 1573.35 1309.75 1558.1 1287.65 1550.9 1265.35 1543.75 1242.05 1543.45 1195.9 1542.85 1162.45 1572.3
L 1155.9 1579.6
Q 1156.2 1573.4 1156.5 1567.4 1157.3 1550.15 1172.65 1542.65 1230.75 1514.3 1294.05 1529.8 1299.95 1531.25 1305.05 1534.75
M 1229.6 1563.3
Q 1231.45 1565.15 1233.75 1565.95 1241.1 1568.1 1248.65 1568.55 1293.65 1571.55 1323.5 1605.55 1326 1608.4 1325.6 1612 1322.85 1636.05 1299.75 1646.65 1259.1 1665.5 1214.55 1660.55 1206.9 1659.05 1199.55 1656.7 1182.1 1651.2 1167.7 1640.15 1157.8 1632.6 1158.45 1620.3 1159.05 1608.8 1166.3 1599.75 1191.2 1568.55 1229.6 1563.3
M 620.65 1144.2
Q 620.85 1147.4 621.05 1150.6 622.35 1171.45 618.3 1192.5 612.7 1221.75 614.5 1250.9 614.6 1252.45 615.05 1253.95 617.95 1264.5 628 1267.75 641.7 1272.3 656.25 1273.65 685.3 1276.4 714.3 1274.15 719.65 1273.85 722 1269.2 727.35 1258.4 726.4 1245.65 790.75 1244.05 854.75 1238.95 1010.95 1226.9 1163.55 1194.05 1164.5 1197.8 1165.15 1201.65 1167.05 1213.45 1175.7 1220.75 1179.2 1223.65 1183.65 1222.3 1217.45 1212.15 1248.6 1195.1 1252.85 1192.8 1255.85 1189.1 1263.25 1179.8 1260.95 1167.15 1253.5 1126.6 1244.6 1085.7 1243.25 1079.55 1239.35 1074.85 1238.75 1074.1 1238 1073.55 1236.25 1072.45 1234.35 1072.05 1211.55 1068.1 1188.65 1074.2 1176.9 1077.4 1165.1 1079.65 1150.9 1082.15 1144 1093.8 1143.15 1095.25 1143.7 1096.75 1146.6 1104.7 1148.55 1113
L 731.15 1183.9
Q 731.7 1179.85 732.55 1175.9 736.15 1158.85 732.95 1142.25 731.25 1133.55 722.75 1131.3 703.65 1125.95 683.6 1127.55 658.65 1129.6 634.05 1133.35 623.6 1134.95 620.65 1144.2
M 636.3 1229.65
Q 638.1 1217.2 638.95 1204.7 640.7 1178.95 649.15 1155.7 680.6 1148.8 712.45 1151.4
L 709.75 1188.3 702.1 1249.65 638.2 1245.65
Q 635.1 1238.1 636.3 1229.65
M 972.25 1164.1
Q 1006.25 1158.6 1040.15 1153.1 1096.1 1143.95 1152.15 1134.5
L 1159 1171.8
Q 1135.6 1177.8 1111.8 1182.6 1072.05 1190.7 1032.1 1196.85 994.85 1202.5 957.45 1206.95 915 1211.9 872.55 1216.05 832 1219.95 791.45 1223.95 759.55 1227.1 727.6 1230.45
L 729.85 1197.35
Q 758.1 1194.4 786.25 1190.8 842 1183.8 897.55 1175.5 934.8 1170 972.25 1164.1
M 1170.35 1127.4
Q 1171.35 1125.65 1170.95 1123.95 1168.9 1115.05 1165.2 1106.55
L 1218.7 1092.2 1234.25 1174.35 1186.5 1196.65 1185 1185.2
Q 1188 1182.15 1187.25 1177.9 1186.2 1172.05 1180.3 1169.8
L 1170.35 1127.4 Z"/>

<path fill="#0C0C0C" stroke="none" d="
M 1609.85 1410.65
Q 1596.85 1414.05 1583.55 1414.9
L 1571.35 1468.65 1673.3 1454.05
Q 1689.15 1450.6 1688.2 1432.45 1687.85 1425.8 1688.55 1419.15 1692.5 1381.1 1695.5 1342.8 1698.9 1299.95 1699.6 1256.85 1700.15 1224 1686.75 1194.2 1676.8 1172.2 1655.9 1163.55 1646.15 1175.95 1647.35 1192.75 1649.9 1229 1655.05 1264.9 1656.7 1276.25 1658.15 1287.75 1664.05 1333.7 1659.8 1379.8 1658.2 1397.35 1640.65 1402.25 1625.25 1406.6 1609.85 1410.65
M 1040.15 1153.1
Q 1006.25 1158.6 972.25 1164.1 934.8 1170 897.55 1175.5 842 1183.8 786.25 1190.8 758.1 1194.4 729.85 1197.35
L 727.6 1230.45
Q 759.55 1227.1 791.45 1223.95 832 1219.95 872.55 1216.05 915 1211.9 957.45 1206.95 994.85 1202.5 1032.1 1196.85 1072.05 1190.7 1111.8 1182.6 1135.6 1177.8 1159 1171.8
L 1152.15 1134.5
Q 1096.1 1143.95 1040.15 1153.1 Z"/>

<path fill="#B2A03D" stroke="none" d="
M 1436.3 1582
L 1440.5 1581.05
Q 1482.35 1567.7 1511.4 1534.85 1521.65 1523.35 1528.75 1509.7 1537.6 1492.8 1544.55 1475.5 1538.25 1475.35 1527.75 1476.2 1498.05 1478.25 1468.35 1474.55
L 1436.3 1582
M 750.75 1734.75
L 757.35 1741.3 807.9 1740.65 790.3 1706.8 735.6 1718.3 750.75 1734.75
M 664.9 1623.8
L 683.9 1647.95 723.5 1702.15 783.35 1690.9 751.8 1613.25 664.9 1623.8
M 903.8 1734.5
L 893.25 1693.5 802.45 1704.85 819.05 1740.35 903.8 1734.5
M 888.15 1673.4
L 866.95 1599.3 765.05 1612.5 795 1688.8 888.15 1673.4
M 1005.05 1680.4
L 1012.85 1719.9 1072.95 1710.2 1073.1 1669.8 1005.05 1680.4
M 980.95 1725.85
Q 991.75 1724.5 1002.5 1722.85
L 992.25 1681.9 905.4 1692.05 915.9 1732.05
Q 924.35 1735.2 937.95 1732.65 959.4 1729 980.95 1725.85
M 987.5 1659.35
L 973.05 1588.2 878.95 1597.9 899.8 1671.65 987.5 1659.35
M 1073.05 1649.45
L 1072.65 1585.1 988.25 1587.15 1000.95 1657.6 1073.05 1649.45
M 734.3 1548.7
L 620.05 1562.15 657.65 1614.6
Q 681.2 1606.2 705.95 1602.8 726.15 1599.75 746.45 1597.25
L 734.3 1548.7
M 977.45 1527.1
L 984.9 1568.3 1071.1 1561.75 1072.35 1536.35 1072.05 1521.3 977.45 1527.1
M 955.75 1465.75
L 970.25 1507.5 1061.55 1501.4 1026.25 1459.05 1022.95 1459.8 955.75 1465.75
M 860.05 1536
L 873.85 1580.95 969.35 1569.85 963.4 1527.4 860.05 1536
M 862.15 1582.4
L 851.95 1536.75 745.95 1547.45 759.65 1595.55 862.15 1582.4
M 863.25 1475.6
L 863.6 1477.05 862.75 1517.1 953.6 1508.8 928.95 1468.1
Q 895.9 1471.1 863.25 1475.6
M 755.15 1484.5
L 745.3 1530.35 846.85 1518.75 849.9 1477.15 755.15 1484.5
M 636.55 1498.25
L 620.2 1546.4 726.25 1532.7 739.35 1486.1 636.55 1498.25
M 1508.75 1350.55
L 1513.45 1352
Q 1530.05 1361.15 1518.2 1374.55 1511.3 1382.4 1501.65 1380.85
L 1473.15 1460.15
Q 1510.95 1463.5 1548.55 1457.5 1555.25 1444.75 1556.95 1427.4 1562.75 1368.95 1533.15 1318.35 1515.3 1287.8 1485.45 1268.8 1469.65 1258.7 1452.55 1250.95
L 1508.75 1350.55
M 1170.95 1123.95
Q 1171.35 1125.65 1170.35 1127.4
L 1180.3 1169.8
Q 1186.2 1172.05 1187.25 1177.9 1188 1182.15 1185 1185.2
L 1186.5 1196.65 1234.25 1174.35 1218.7 1092.2 1165.2 1106.55
Q 1168.9 1115.05 1170.95 1123.95
M 638.95 1204.7
Q 638.1 1217.2 636.3 1229.65 635.1 1238.1 638.2 1245.65
L 702.1 1249.65 709.75 1188.3 712.45 1151.4
Q 680.6 1148.8 649.15 1155.7 640.7 1178.95 638.95 1204.7 Z"/>

<path fill="#324A15" stroke="none" d="
M 1448.4 1466.05
L 1451.35 1461.9 1481.05 1380.9
Q 1169.4 1380.65 858.3 1396.2 813.8 1398.55 769.3 1400.95 725.95 1403.6 682.55 1406.2 674.1 1406.7 665.7 1407.2 608.45 1410.7 551.2 1414.25 507.65 1416.25 464.8 1422.9 462.25 1423.35 459.7 1423.8 495.9 1484.2 536 1542.3 539.9 1548 543.9 1553.7 547.1 1558.15 550.3 1562.6 591.1 1618.75 638.6 1669.2 645.6 1676.65 652.55 1684.05 677.5 1710.8 701.15 1738.8 720.2 1761.4 737.1 1785.6 738.65 1787.9 740.2 1790.25 797.3 1786.45 854.4 1784.1 865.4 1783.6 876.45 1783.1 882.15 1782.85 887.9 1782.6 949.25 1780 1010.5 1777.3 1022.2 1776.75 1033.8 1776.2 1072.1 1774.55 1110.35 1772.35 1166.95 1769.3 1223.3 1764.8 1298.65 1758.85 1374 1750.25 1377.2 1744.1 1379 1735.25 1396.15 1649.5 1420.25 1565.35 1422.55 1557.25 1425 1549.2 1437.45 1508.2 1448.45 1467.75 1448.6 1467.15 1448.4 1466.05
M 1317.6 1516.95
Q 1327.7 1520.45 1332.55 1530 1352.95 1569.85 1354.65 1614.15 1355.05 1624.95 1346.9 1630.15 1325.95 1669.85 1280.4 1679.75 1253 1685.65 1224.95 1685 1217.3 1684.8 1209.85 1683.4 1175.05 1676.25 1148.95 1652.8 1143.8 1648.15 1140.5 1642.1 1131.2 1624.9 1134.9 1606 1137.45 1593.1 1137.55 1579.85 1137.65 1558.95 1144.8 1539.85 1147.1 1533.8 1152.5 1530.2 1188.85 1506.2 1232.75 1504.4 1276.5 1502.75 1317.6 1516.95
M 616.15 1576.2
Q 612.25 1570.05 609.35 1563.15 596.25 1560.45 600.15 1546.6 609.1 1514.7 624.65 1485.9 628.35 1479.1 636.75 1478 813.7 1454.7 991.7 1439.85 1007.55 1438.2 1023.35 1439.9 1026 1439.9 1028.55 1440.85 1047.5 1436.35 1058.35 1455.35 1062.15 1461.95 1066.6 1468.2 1080.35 1487.45 1090.85 1508.45
L 1088.9 1515.05
Q 1090.35 1584.95 1093.45 1654.7 1094.8 1685.05 1092.25 1715.15 1091.3 1726 1080.55 1729.25 1031 1744.25 979.2 1749.7 933.9 1754.55 888.5 1757.85 854.9 1760.25 820.9 1761.3 817.4 1761.4 813.7 1761.5 781 1762.8 748.55 1761.45 742.5 1760.7 742.2 1754.65 722.5 1734.95 708.4 1711.1 688.85 1678.2 665.75 1647.65 639.45 1612.85 616.15 1576.2
M 1377.25 1160.3
Q 1371.35 1149 1366.1 1137.1 1333.25 1063.25 1302.35 987.8 1296.25 984.6 1285.45 986 1272.25 988.05 1258.85 988.75 1238.1 989.95 1217.25 991 1195.6 992.35 1173.85 993.65 1151.3 995.1 1128.55 996.6 1092 999.1 1055.4 1001.85 1018.9 1004.55 982.6 1007.55 916.95 1012.85 851.55 1018.25 842 1019 832.45 1019.8
L 558.85 1042.7 557.95 1047.05
Q 550.2 1081.45 541.6 1116 533.05 1150.25 523.6 1184.35 514.1 1218.55 504.15 1252.35 494.2 1286.05 483.35 1319.75 472.6 1353.2 461 1386.75 457.2 1397.8 453.3 1408.9 466.9 1405.35 480.8 1402.65 496.2 1399.65 511.6 1397.9 525.15 1396.2 538.45 1395.25 545.85 1394.65 553.15 1394.15 561.6 1393.65 570.1 1393.25 584.75 1392.5 599.35 1391.95 656.05 1389.5 712.45 1384.6 758.8 1380.6 804.95 1376.15 860.8 1370.7 916.8 1366.25 1021.35 1358.45 1126.35 1354.85 1179.8 1352.9 1233.15 1351.9 1266.4 1351.25 1299.6 1350.85 1336.8 1350.45 1373.8 1350.15 1414.9 1349.8 1455.8 1349.7 1466.6 1349.7 1477.45 1349.65 1474.75 1345.25 1471.7 1340.65 1469.15 1336.85 1466.65 1332.95 1463.4 1327.8 1460.3 1322.7 1455.3 1314.5 1450.6 1306.05 1446.25 1298.25 1442.25 1290.45 1438.15 1282.5 1434.45 1274.25 1420.5 1243.25 1405.8 1212.7 1399.75 1200.1 1392.7 1188.15 1384.65 1174.45 1377.25 1160.3
M 621.05 1150.6
Q 620.85 1147.4 620.65 1144.2 623.6 1134.95 634.05 1133.35 658.65 1129.6 683.6 1127.55 703.65 1125.95 722.75 1131.3 731.25 1133.55 732.95 1142.25 736.15 1158.85 732.55 1175.9 731.7 1179.85 731.15 1183.9
L 1148.55 1113
Q 1146.6 1104.7 1143.7 1096.75 1143.15 1095.25 1144 1093.8 1150.9 1082.15 1165.1 1079.65 1176.9 1077.4 1188.65 1074.2 1211.55 1068.1 1234.35 1072.05 1236.25 1072.45 1238 1073.55 1238.75 1074.1 1239.35 1074.85 1243.25 1079.55 1244.6 1085.7 1253.5 1126.6 1260.95 1167.15 1263.25 1179.8 1255.85 1189.1 1252.85 1192.8 1248.6 1195.1 1217.45 1212.15 1183.65 1222.3 1179.2 1223.65 1175.7 1220.75 1167.05 1213.45 1165.15 1201.65 1164.5 1197.8 1163.55 1194.05 1010.95 1226.9 854.75 1238.95 790.75 1244.05 726.4 1245.65 727.35 1258.4 722 1269.2 719.65 1273.85 714.3 1274.15 685.3 1276.4 656.25 1273.65 641.7 1272.3 628 1267.75 617.95 1264.5 615.05 1253.95 614.6 1252.45 614.5 1250.9 612.7 1221.75 618.3 1192.5 622.35 1171.45 621.05 1150.6 Z"/>

<path fill="#333333" stroke="none" d="
M 1233.75 1565.95
Q 1231.45 1565.15 1229.6 1563.3 1191.2 1568.55 1166.3 1599.75 1159.05 1608.8 1158.45 1620.3 1157.8 1632.6 1167.7 1640.15 1182.1 1651.2 1199.55 1656.7 1206.9 1659.05 1214.55 1660.55 1259.1 1665.5 1299.75 1646.65 1322.85 1636.05 1325.6 1612 1326 1608.4 1323.5 1605.55 1293.65 1571.55 1248.65 1568.55 1241.1 1568.1 1233.75 1565.95
M 1327.35 1573.35
Q 1324.5 1548.2 1305.05 1534.75 1299.95 1531.25 1294.05 1529.8 1230.75 1514.3 1172.65 1542.65 1157.3 1550.15 1156.5 1567.4 1156.2 1573.4 1155.9 1579.6
L 1162.45 1572.3
Q 1195.9 1542.85 1242.05 1543.45 1265.35 1543.75 1287.65 1550.9 1309.75 1558.1 1327.35 1573.35 Z"/>
</g>

<g id="Layer2_0_FILL">
<path fill="#000000" fill-opacity="0.2" stroke="none" d="
M 642.55 1225.3
Q 636.5 1224.4 633.5 1224.45 628.5 1224.6 625.3 1226.9 620.8 1230.25 621 1236.8 621.2 1243.05 625.3 1247.45 628.9 1251.3 634.9 1253.6 639.35 1255.35 646.2 1256.5 650.88828125 1257.2875 655.4 1257.75 649.9884765625 1259.0201171875 646.35 1259.55 643.3 1260 637.45 1260.55 631.4 1261.1 628.55 1261.5 619.55 1262.75 616.05 1266.85 613.45 1269.85 613.55 1274.1 613.6 1278.4 616.3 1281.3 619.25 1284.45 626.3 1286.2 640 1289.65 656.2 1289.35 669.85 1289.15 686.25 1286.2 706.8 1282.45 723.15 1276.05 729.4 1273.6 733.2 1270.95 738.25 1267.45 740.3 1262.8 741.8814453125 1259.208984375 741.45 1255.3 824.312109375 1255.2482421875 944.3 1238.95 955.9 1237.35 1048.15 1224 1110.398828125 1215.0013671875 1151.15 1210.4 1153.270703125 1214.0392578125 1156.55 1217.75 1161.05 1222.75 1165.1 1224.8 1171 1227.8 1180.55 1227.45 1189.05 1227.05 1196.7 1224.8 1201.0123046875 1223.5296875 1206.85 1221.05 1214.39765625 1219.6072265625 1219.95 1216.25 1222.11484375 1214.924609375 1225.1 1212.55 1232.2984375 1208.940234375 1237.6 1205.85 1247 1200.4 1251.3 1195.35 1252.500390625 1193.96640625 1253.45 1192.45 1256.6185546875 1189.4091796875 1258.6 1185.85 1261.7 1180.35 1261.05 1174.95 1260.65 1171.55 1258.75 1168.55 1256.9 1165.6 1254.05 1163.7 1251.15 1161.85 1247.65 1161.4 1244.15 1160.95 1240.9 1162 1240.465234375 1162.142578125 1240 1162.3 1235.0443359375 1160.6384765625 1226.8 1162.2 1207.55 1165.8 1189.65 1173.65 1188.0298828125 1174.359765625 1186.6 1175.1 1185.3453125 1173.408203125 1183.6 1171.9 1178.8 1167.7 1172.3 1166.25 1166.85 1165 1159.85 1165.5 1155.45 1165.85 1147.35 1167.25
L 920.3 1206.1
Q 881.7 1212.7 862.35 1215.55 810.4 1223.3 737.25 1229.7 732.4 1230.1 729.75 1230.6 725.6 1231.4 722.65 1233 719.15 1234.95 717.2 1238.25 716.043359375 1240.205078125 715.7 1242.15 715.5935546875 1242.2044921875 715.45 1242.25 712.5 1243.2 707.15 1245.5 705.9111328125 1246.0310546875 704.8 1246.5 705.2451171875 1242.9349609375 702.5 1238.95 699.8 1235 695.1 1232.35 690.95 1230 685.65 1228.85 681.45 1227.95 675.7 1227.7 668.95 1227.5 665.6 1227.4 653.95 1227.1 642.55 1225.3
M 1481.25 1375.75
Q 1478.2 1366.85 1471.2 1362.55 1464 1358.1 1453.1 1359.15 1446.9 1359.75 1433.95 1363.4 1379.55 1378.65 1301.25 1375.25 1277.35 1374.25 1233.7 1370.45 1186.7 1366.4 1166.2 1365.3 1124.4 1363.05 1076.75 1364.3 1036.75 1365.3 987.35 1368.95 921.3 1373.85 876 1381.2 834.65 1388.75 813.95 1392.5 776.8 1399.25 751.6 1401.3 732.7 1402.85 707.1 1403.05 677.35 1402.95 662.5 1402.9 621.45 1402.85 580.45 1404.7 559.35 1405.7 516.6 1408.4 505.75 1409.1 500.3 1410 491.776171875 1411.3333984375 485.4 1414.25 484.314453125 1413.3830078125 483.2 1412.7 479.5 1410.45 475.4 1410.1 471 1409.7 467.65 1411.75 464.4 1413.8 462.7 1417.8 461.15 1421.55 461.4 1425.8 461.65 1429.4 463.1 1433.6 464.1 1436.35 466.3 1441.05 466.940625 1442.4015625 467.6 1443.75 468.7265625 1448.83984375 472.3 1453.3 485.2875 1479.1572265625 505.05 1512.95 531.7 1558.5 560.8 1602.9 574.55 1623.85 585.3 1639 598.9 1658.2 611.7 1673.7 625.1 1690.05 658 1725.25 688.5 1757.9 703.65 1777.2 711.9 1787.75 715.1 1791.2 722 1798.7 728.9 1802.5 737.15 1807.15 746.4 1806.6 756.35 1806.05 762.05 1799.6 763.238671875 1798.2416015625 764.15 1796.7 765.52578125 1796.85703125 767.05 1797 835.75 1803.55 935.15 1793.65 955.85 1791.6 1019.25 1784.2 1071.8 1778.05 1103.35 1775.45 1125.05 1773.7 1151.85 1772.25 1169.3 1771.3 1200.35 1769.9
L 1353.55 1762.9
Q 1366.75 1762.3 1374.15 1760.45 1385.3 1757.7 1391.45 1750.95 1398.55 1743.15 1397.7 1731.6 1396.9359375 1721.2173828125 1390.25 1714.75 1395.5705078125 1689.9748046875 1403.25 1649.4 1413.2 1597.15 1418.8 1572 1418.982421875 1571.1837890625 1419.15 1570.35 1419.2197265625 1570.9880859375 1419.3 1571.6 1420 1577 1422.6 1581.2 1426.1 1586.85 1432.7 1589.45 1439.3 1592.05 1445.75 1590.3 1448.95 1589.45 1452.6 1587.3 1454.25 1586.4 1459 1583.2 1467.75 1577.3 1477 1572.35 1484 1568.7 1487.45 1566.8 1493.5 1563.5 1497.45 1560.55 1502.9 1556.5 1508.4 1550.35 1512.3 1545.95 1517.75 1538.55 1530.35 1521.5 1543.4 1500.15 1545.3 1497.05 1546.15 1495.4 1547.6 1492.65 1548.25 1490.3 1549.5 1485.95 1548.7 1481.55 1547.9 1476.95 1545.15 1473.6 1544.29140625 1472.5607421875 1543.3 1471.7 1543.258984375 1470.818359375 1543.05 1469.95 1542.1 1466.3 1538.25 1463.85 1535.05 1461.8 1530.45 1461 1520.95 1459.35 1503.05 1462.35 1484.15 1465.5 1475.5 1464.55 1465.65 1463.45 1463.9 1463.45 1457.4 1463.6 1454.2 1467.25 1451.35 1470.5 1452 1475.45 1452.6 1480.1 1455.85 1483.45 1458.7 1486.4 1463.25 1488.3 1466.75 1489.75 1471.9 1490.75 1486.4 1493.6 1501.15 1492.45 1503.6896484375 1492.2455078125 1506.2 1491.9 1498.52734375 1498.8025390625 1488.65 1504.5 1474.25 1512.85 1454.6 1518.95 1448.1 1521 1445.7 1521.95 1440.8 1523.9 1437.65 1526.45 1434.35 1529.15 1431.5 1533.65 1429.7 1536.45 1426.95 1542.05 1425.8201171875 1544.3693359375 1424.9 1546.3 1443.351953125 1473.775 1469.5 1424.55 1475.85 1412.6 1477.4 1409.2 1481.45 1400.3 1482.6 1392.9 1484.05 1383.9 1481.25 1375.75
M 1304.45 1536.85
Q 1311.75 1541 1317.3 1545.55 1321.75 1549.2 1330.65 1556.85 1335.7591796875 1560.68203125 1340.55 1562.25 1341.6142578125 1572.5015625 1344.2 1582.6 1346.1 1590.2 1346.25 1591.05 1347.25 1595.9 1346.95 1599.6 1346.4 1605.8 1342.3 1612.55 1340.162109375 1615.9794921875 1335.05 1622.25 1335.85546875 1616.7931640625 1335.3 1611.35 1334 1598.75 1325.35 1586.1 1314.45 1570.1 1295.95 1560.25 1278.3 1550.8 1257.95 1549.1 1243.65 1547.9 1230.95 1550.7 1225.25 1552.1 1222.35 1552.8 1217.25 1554.05 1213.7 1554.35 1210.75 1554.65 1201.7 1554.3 1194.2 1554.05 1189.85 1555.05 1181.25 1557.05 1171.65 1565.9 1160.5 1576 1154.3 1587.85 1147.3 1601.2 1147.9 1614.35 1148.5111328125 1627.4505859375 1156.55 1640.6 1149.565234375 1639.221484375 1144 1639.55 1143.1248046875 1623.8630859375 1142.15 1596.65
L 1141.1 1566.5
Q 1142.575390625 1563.7869140625 1143.8 1559.75 1145.2 1554.65 1146 1552.1 1151.75 1534.25 1168.3 1523 1184.85 1511.7 1203.55 1512.9 1208.6 1513.2 1216.75 1514.85 1226.7 1516.85 1229.9 1517.3 1234.7 1517.95 1245.6 1518.5 1255.8 1519 1261.3 1519.95 1268.35 1521.15 1276.2 1523.9 1282.5 1526.1 1290.5 1529.8 1298.7 1533.6 1304.45 1536.85
M 625.6 1482.1
Q 626.1625 1482.1740234375 626.75 1482.2
L 674.75 1484.2
Q 697.8 1485.1 708.55 1485.3 727.35 1485.65 742.3 1484.8 771.65 1483.15 814 1474.9 820.75 1473.6 849.6 1467.65 871.5 1463.15 885.2 1460.75 920.55 1454.5 965.2 1450.05 992.35 1447.4 1045.65 1443.5 1048.05 1455.1 1060.8 1472.1 1068.45 1482.3 1070.6 1485.5 1075.75 1493.25 1078.2 1500 1078.919921875 1501.969921875 1079.5 1504.15 1073.5373046875 1503.7009765625 1066.15 1503.9 1017.5 1505 986.85 1506.85 943.4 1509.5 907.95 1514.8 889.05 1517.6 858.1 1523.55 820.25 1530.8 808.35 1532.85 774.5 1538.65 732.05 1543.4 705.95 1546.3 655.35 1550.95 647.35 1551.7 643.3 1551.9 636.6 1552.15 631.25 1551.6 626.8 1551.2 626.3 1551.2 623.5 1551.1 621.5 1551.8 619.8 1552.4 617.85 1553.95 616.7 1554.8 614.45 1556.65 612.7080078125 1557.984375 608.65 1560.25 607.6888671875 1554.8556640625 608.85 1548.15 609.7 1543.25 614.65 1528 616.75 1521.55 618.75 1513.2 619.8 1508.9 622.15 1498.2
L 625.6 1482.1
M 1098.15 1420
Q 1099.4318359375 1419.9943359375 1100.7 1420 1100.14375 1421.7826171875 1099.8 1423.7 1098.9640625 1421.776171875 1098.15 1420
M 1153.2 1718.9
Q 1153.120703125 1716.793359375 1152.9 1714.5 1155.1892578125 1716.6443359375 1157.55 1718.6 1155.345703125 1718.7521484375 1153.2 1718.9
M 1088.25 1665.6
Q 1088.7552734375 1668.1119140625 1089.45 1671.6 1090.9 1678.8 1090.55 1683.7 1090.1515625 1690.5244140625 1086.15 1698.9 1086.21484375 1691.3607421875 1086.25 1687 1086.3240234375 1677.93125 1088.25 1665.6
M 694 1607.85
Q 693.6 1607.25 692.6 1605.3 691.75 1603.7 691 1602.9 692.5 1601.9 695.3 1601.6 699.1 1601.15 699.9 1600.9 700.6 1600.75 702 1600.35 703.15 1600.15 703.9 1600.65 703.35 1604.65 703.25 1609.1 703.15 1612.15 702.9 1613.25 702.5 1615.55 700.95 1616.8 699.6 1616 698.35 1614.05 697.05 1611.75 696.25 1610.7 694.7 1608.85 694 1607.85 Z"/>
</g>
</defs>

<g transform="matrix( 1, 0, 0, 1, 0,0) ">
<use xlink:href="#Layer3_0_FILL"/>
</g>

<g transform="matrix( 1, 0, 0, 1, 0,0) ">
<use xlink:href="#Layer2_0_FILL"/>
</g>
</svg>
