
<svg xmlns="http://www.w3.org/2000/svg" version="1.1" xmlns:xlink="http://www.w3.org/1999/xlink" preserveAspectRatio="none" x="0px" y="0px" width="2000px" height="2000px" viewBox="0 0 2000 2000">
<defs>
<filter id="Filter_1" x="-20.630458712369087%" y="-39.539910119145695%" width="141.26091742473818%" height="179.0798202382914%" color-interpolation-filters="sRGB">
<feFlood flood-color="#2284D6" flood-opacity="1" in="SourceGraphic" result="result1"/>

<feGaussianBlur in="SourceGraphic" stdDeviation="33.333333333333336,33.333333333333336" result="result2"/>

<feComposite in2="result2" in="result1" operator="in" result="result3"/>

<feComposite in2="result3" in="SourceGraphic" operator="over" result="result4"/>
</filter>

<g id="Layer3_0_FILL">
<path fill="#000000" stroke="none" d="
M 1531.55 1482
Q 1549 1373.85 1529.5 1266.45 1515 1186.7 1462.4 1125.75 1389.35 1040.95 1278.25 1016 1170.65 991.6 1059.9 997.15 951.7 1002.1 844.55 1016.15 736.55 1030.1 645.45 1088.7 577.85 1132.1 540.8 1202.85 490.6 1298.65 507.85 1407.6 524.95 1515.3 572.1 1613.15 621.05 1714.8 721.2 1765.05 770.6 1787.25 822.65 1801.15 929.6 1829.65 1040.2 1828.35 1148.9 1827.1 1249.15 1785.2 1351.3 1742.6 1432.4 1667.1 1513.95 1591.25 1531.55 1482
M 1330.85 1079.45
Q 1378.15 1097.35 1412.5 1134.05 1489.4 1216 1491.95 1331.25
L 1492.4 1347.65
Q 1439.45 1382.15 1382.55 1410 1259.1 1470.35 1122.45 1483.95 983.65 1498.1 845.95 1481 758.05 1469.9 675.7 1436.75 596.1 1404.8 528.55 1353.1 524.05 1287 552.35 1228.3 599.8 1129.95 700.25 1084.45 798.15 1040 905.85 1030.05 1013.55 1020.15 1120.05 1030.3 1228.8 1041 1330.85 1079.45
M 1495.85 1374.1
L 1497.7 1414.45
Q 1435.45 1455.9 1367.3 1486.4 1271.5 1529.15 1168.2 1548.05 1065.15 1567.15 960.45 1560.9 848.9 1553.6 739.8 1529.3 630.05 1504.85 539.35 1438.5
L 530.4 1380.35
Q 537.45 1385.2 544.65 1389.85 596.35 1422.65 653.15 1445.9 721.4 1473.9 792.5 1492.8 857.05 1510 923.95 1510.85 984.65 1511.65 1045.4 1509.85 1138 1506.15 1228.1 1485.55 1371.35 1452.75 1495.85 1374.1
M 542.85 1455.6
Q 576.85 1481.95 615.5 1501.1 764.55 1574.95 931.9 1584.7 1042.7 1590.4 1152.5 1576.2 1337.6 1552.3 1496.7 1454.6 1492.4 1539.45 1439.3 1605.35 1370.65 1690.45 1273.05 1739.85 1175.4 1789.25 1066.15 1798.05 957.05 1806.3 851.1 1778.6 794.2 1766.8 740.8 1744.05 670.45 1714.1 625.85 1652.15 562.05 1563.6 542.85 1455.6
M 849.05 1614.3
Q 848.1 1614.35 847.45 1614.85 797.75 1649.1 854.75 1677.3 866.45 1679.7 877.65 1675.6 897.3 1668.25 895.4 1648.25 890.5 1597.05 849.05 1614.3
M 868.4 1627.65
L 868.5 1627.1
Q 899.55 1654.55 857.55 1658.5 855.9 1658 854.75 1657 831.15 1636.4 868.4 1627.65
M 1209.5 1639.3
Q 1203.55 1579.75 1153.9 1605.75 1135.3 1615.5 1144.55 1634.75 1173.55 1694.85 1209.5 1639.3
M 1185.1 1624.4
L 1188.6 1620.4
Q 1191.35 1621.7 1190.75 1623.75 1177.6 1668.6 1157.3 1630.1 1158.65 1627.95 1161 1627.35 1172.8 1624 1185.1 1624.4
M 609.4 1565.7
Q 605.1 1568.6 604.15 1573.2 593.7 1624.85 654.9 1619.9 666.5 1619.05 668.25 1608.75 679.25 1544.45 609.4 1565.7
M 658.05 1589.2
Q 663.5 1601.85 650.4 1600.4 598.2 1595.45 633.9 1576.4 651.75 1574.35 658.05 1589.2
M 1427.6 1568.4
Q 1406.25 1509.3 1366.3 1563.65 1373.95 1622.65 1422.4 1584.05 1430.8 1577.35 1427.6 1568.4
M 1410.6 1579.05
Q 1401.3 1587.4 1394.65 1579.6 1370.3 1551 1412.8 1556.2 1424.75 1566.4 1410.6 1579.05
M 1092.5 1374.5
Q 1085.1 1375.7 1083.4 1381.25 1068.25 1430.9 1132.5 1424.5 1141.3 1423.75 1143.65 1416.9 1162.35 1362.85 1092.5 1374.5
M 1137.9 1402.65
L 1134.45 1405.45
Q 1109.5 1412.85 1091.2 1396.35 1120.75 1379.95 1137.9 1402.65
M 888.3 1374.4
Q 875.5 1365.95 857.4 1365.95 839.3 1365.95 826.45 1374.4 813.65 1382.85 813.65 1394.8 813.65 1406.75 826.45 1415.2 839.3 1423.65 857.4 1423.65 875.5 1423.65 888.3 1415.2 901.15 1406.75 901.15 1394.8 901.15 1382.85 888.3 1374.4
M 838.05 1401.05
Q 821.7 1392.9 843.7 1388.35 888.15 1379.25 878.35 1405.3 857.5 1410.85 838.05 1401.05
M 596.2 1346.4
Q 613.3 1358.35 634.3 1360.9 661.3 1363.65 662.95 1339.45 665.35 1304 627.15 1302.4 566.75 1298.65 596.2 1346.4
M 616.6 1310.4
Q 617.1 1310.6 617.6 1310.6 649.1 1309.75 654.4 1336.6 618.9 1360.75 594.7 1323.75 595.5 1322.25 596.75 1321.6 607.4 1316.45 616.6 1310.4
M 1347.15 1331.45
Q 1338 1342.3 1343.85 1354.4 1371.05 1410.5 1420.3 1354.55 1430.5 1344.05 1423.45 1333.9 1388.05 1282.7 1347.15 1331.45
M 1361.05 1358.4
Q 1360.85 1358.1 1360.8 1357.8 1358.75 1336 1379.4 1328.45 1382.35 1327.8 1385.25 1327.3 1405.45 1324.75 1417.15 1338.9 1396.3 1366.15 1361.05 1358.4 Z"/>

<path fill="#778A9A" stroke="none" d="
M 615.5 1501.1
Q 576.85 1481.95 542.85 1455.6 562.05 1563.6 625.85 1652.15 670.45 1714.1 740.8 1744.05 794.2 1766.8 851.1 1778.6 957.05 1806.3 1066.15 1798.05 1175.4 1789.25 1273.05 1739.85 1370.65 1690.45 1439.3 1605.35 1492.4 1539.45 1496.7 1454.6 1337.6 1552.3 1152.5 1576.2 1042.7 1590.4 931.9 1584.7 764.55 1574.95 615.5 1501.1
M 1366.3 1563.65
Q 1406.25 1509.3 1427.6 1568.4 1430.8 1577.35 1422.4 1584.05 1373.95 1622.65 1366.3 1563.65
M 604.15 1573.2
Q 605.1 1568.6 609.4 1565.7 679.25 1544.45 668.25 1608.75 666.5 1619.05 654.9 1619.9 593.7 1624.85 604.15 1573.2
M 1153.9 1605.75
Q 1203.55 1579.75 1209.5 1639.3 1173.55 1694.85 1144.55 1634.75 1135.3 1615.5 1153.9 1605.75
M 847.45 1614.85
Q 848.1 1614.35 849.05 1614.3 890.5 1597.05 895.4 1648.25 897.3 1668.25 877.65 1675.6 866.45 1679.7 854.75 1677.3 797.75 1649.1 847.45 1614.85
M 1412.5 1134.05
Q 1378.15 1097.35 1330.85 1079.45 1228.8 1041 1120.05 1030.3 1013.55 1020.15 905.85 1030.05 798.15 1040 700.25 1084.45 599.8 1129.95 552.35 1228.3 524.05 1287 528.55 1353.1 596.1 1404.8 675.7 1436.75 758.05 1469.9 845.95 1481 983.65 1498.1 1122.45 1483.95 1259.1 1470.35 1382.55 1410 1439.45 1382.15 1492.4 1347.65
L 1491.95 1331.25
Q 1489.4 1216 1412.5 1134.05
M 1343.85 1354.4
Q 1338 1342.3 1347.15 1331.45 1388.05 1282.7 1423.45 1333.9 1430.5 1344.05 1420.3 1354.55 1371.05 1410.5 1343.85 1354.4
M 634.3 1360.9
Q 613.3 1358.35 596.2 1346.4 566.75 1298.65 627.15 1302.4 665.35 1304 662.95 1339.45 661.3 1363.65 634.3 1360.9
M 857.4 1365.95
Q 875.5 1365.95 888.3 1374.4 901.15 1382.85 901.15 1394.8 901.15 1406.75 888.3 1415.2 875.5 1423.65 857.4 1423.65 839.3 1423.65 826.45 1415.2 813.65 1406.75 813.65 1394.8 813.65 1382.85 826.45 1374.4 839.3 1365.95 857.4 1365.95
M 1083.4 1381.25
Q 1085.1 1375.7 1092.5 1374.5 1162.35 1362.85 1143.65 1416.9 1141.3 1423.75 1132.5 1424.5 1068.25 1430.9 1083.4 1381.25 Z"/>
</g>

<g id="S_mbolo_5_0_Layer0_0_FILL">
<path fill="#2284D6" stroke="none" d="
M 103.5 266
Q 67.8 285.05 120 290 133.1 291.45 127.65 278.8 121.35 263.95 103.5 266
M 87.2 0.2
Q 86.7 0.2 86.2 0 77 6.05 66.35 11.2 65.1 11.85 64.3 13.35 88.5 50.35 124 26.2 118.7 -0.65 87.2 0.2
M 313.3 77.95
Q 291.3 82.5 307.65 90.65 327.1 100.45 347.95 94.9 357.75 68.85 313.3 77.95
M 338.1 316.7
L 338 317.25
Q 300.75 326 324.35 346.6 325.5 347.6 327.15 348.1 369.15 344.15 338.1 316.7
M 604.05 95.05
L 607.5 92.25
Q 590.35 69.55 560.8 85.95 579.1 102.45 604.05 95.05
M 864.25 269.2
Q 870.9 277 880.2 268.65 894.35 256 882.4 245.8 839.9 240.6 864.25 269.2
M 658.2 310
L 654.7 314
Q 642.4 313.6 630.6 316.95 628.25 317.55 626.9 319.7 647.2 358.2 660.35 313.35 660.95 311.3 658.2 310
M 967.3 104.05
L 965.45 63.7
Q 840.95 142.35 697.7 175.15 607.6 195.75 515 199.45 454.25 201.25 393.55 200.45 326.65 199.6 262.1 182.4 191 163.5 122.75 135.5 65.95 112.25 14.25 79.45 7.05 74.8 0 69.95
L 8.95 128.1
Q 99.65 194.45 209.4 218.9 318.5 243.2 430.05 250.5 534.75 256.75 637.8 237.65 741.1 218.75 836.9 176 905.05 145.5 967.3 104.05
M 886.75 28.5
Q 875.05 14.35 854.85 16.9 851.95 17.4 849 18.05 828.35 25.6 830.4 47.4 830.45 47.7 830.65 48 865.9 55.75 886.75 28.5 Z"/>
</g>

<g id="Layer2_0_FILL">
<path fill="#000000" fill-opacity="0.2" stroke="none" d="
M 1446.55 1564.3
Q 1446.4091796875 1564.47265625 1446.25 1564.65 1443.6419921875 1566.444140625 1438.65 1570 1414.8 1587.35 1382.55 1605.15 1362.95 1616 1323.6 1635.65 1287.5 1653.7 1268.95 1662.15 1238.25 1676.1 1212.6 1684.55 1158.1 1702.45 1087.9 1708.25 1039.95 1712.2 960.05 1711.35 906.4 1710.85 874.05 1708.6 826.8 1705.3 789.05 1696.95 737 1685.45 688.7 1661.65 640.45 1637.9 599.6 1603.65 594.05 1598.95 588.35 1597.45 581.45 1595.7 578.5 1600.35 575.1 1605.8 581.85 1615.25 609.31015625 1653.745703125 648.55 1683.15 645.4845703125 1684.09296875 644.2 1686.7 642.6 1690.05 645.05 1694.15 646.9 1697.25 650.8 1700.4 731.7 1765.15 840.05 1793.4 942.45 1820.05 1052.2 1810.05 1094 1806.2 1151.4 1795.3 1179.5 1790 1197.95 1785.35 1223.1 1779.05 1243.25 1771.15 1260.25 1764.5 1278.75 1754.7 1294.1 1746.6 1312.65 1735.2 1353.3 1710.3 1396.6 1677.6 1406 1670.55 1410.85 1665.85 1418.2 1658.75 1421.9 1651.45 1425.160546875 1645.07734375 1425.6 1638.3 1450.7373046875 1621.728515625 1469.25 1604.45 1474.75 1599.3 1477.9 1595.45 1482.2 1590.1 1484.2 1584.85 1486.55 1578.8 1485.65 1572.55 1484.704296875 1565.8798828125 1480.4 1561.8 1487.4419921875 1553.7060546875 1493.85 1544.95 1501.9 1533.95 1505.45 1524.9 1510.05 1513.05 1507.85 1502.9 1506.8 1498.25 1504 1497.5 1501.65 1496.85 1498.35 1499.55 1491.4 1505.15 1484.2 1515.65 1480.1 1521.65 1472.15 1533.8 1467.55 1540.2 1459.65 1549.3 1447.5 1563.2 1446.55 1564.3 Z"/>
</g>

<g id="Layer1_0_FILL">
<path fill="#000000" stroke="none" d="
M 1388.2 1680.85
Q 1383.75 1670.6 1381.4 1665.8 1377.4 1657.5 1373.45 1651.35 1369.6 1645.3 1363.85 1638.4 1360.3 1634.1 1353.2 1626.2 1351.4 1624.1 1349.9 1624.25 1348.8 1624.35 1348.15 1625.45 1347.5 1626.55 1347.7 1627.7 1348 1629.4 1349.95 1631.65 1353.35 1635.5 1360.5 1642.85 1366.65 1649.55 1369.85 1654.9 1370.65 1656.25 1377.55 1671.2 1382.1 1681.05 1387.45 1685.7 1388.7 1685.4 1388.8 1683.75 1388.85 1682.4 1388.2 1680.85
M 1082.55 1609.4
Q 1078.5 1605.1 1075.45 1605.95 1073.7 1606.4 1072.75 1608.35 1071.9 1610.2 1072.25 1612.2 1072.6 1613.9 1073.75 1615.75 1074.4 1616.8 1076.05 1618.85
L 1097.85 1645.45
Q 1100.4 1648.6 1101.5 1650.55 1103.15 1653.55 1103 1656.3 1102.9 1658.95 1101.2 1661.4 1099.7 1663.6 1097.2 1665.25 1092.8 1668.1 1086.45 1668.7 1081.6 1669.15 1074.75 1668.3 1070.409375 1667.72890625 1068.15 1667.5 1065.06171875 1665.5958984375 1061 1663.15 1050.8 1657 1046.2 1651.05 1045.5 1650.15 1041.05 1643.25 1038 1638.45 1035.15 1636.15
L 1032.85 1637.85
Q 1033.75 1638.25 1034.15 1639.4 1034.45 1640.35 1034.3 1641.5 1034.2 1642.05 1033.75 1643.55 1033.35 1644.8 1033.3 1645.6 1033.15 1648.1 1035.45 1651.7 1041 1660 1051.2 1667.3 1052.9064453125 1668.5189453125 1055.1 1669.9 1053.4115234375 1670.8513671875 1051.55 1672.15 1049.15 1673.8 1044.35 1677.15 1039.5 1680.05 1033.9 1681.3 1028.3 1682.55 1022.7 1681.95 1021.629296875 1681.8267578125 1020.65 1681.75 1022.070703125 1680.4806640625 1022.55 1678.75 1023 1677.15 1022.3 1675.6 1021.6 1673.95 1020.1 1673.6 1019.1 1673.3 1016.8 1673.95 1014.9 1674.5 1011.1 1675.35 1007.25 1676.15 1005.35 1676.7 1005.1234375 1676.766015625 1004.9 1676.8 1003.90390625 1670.198828125 1006.3 1658.05 1009.05 1643.9 1006.75 1637.1 1004.7 1631.15 998.95 1626.1 994.65 1622.35 987.3 1618.4 978.85 1613.9 972.2 1612.05 963.6 1609.6 956.35 1611.05 953.75 1611.55 952 1612.85 949.85 1614.4 949.75 1616.5 949.55 1619.95 954.55 1622.55 958.55 1624.65 965.5 1626.65 974.8 1629.3 976.8 1630.05 982.95 1632.35 987.1 1636 991.95 1640.3 993.05 1645.65 993.85 1649.5 992.65 1654.95 991.95 1658.05 990.35 1664.25 988.1 1675.35 992.2 1686.5 996.35 1697.7 1005.3 1704.65 1010.25 1708.5 1017.7 1711.8 1020.8 1713.15 1031.25 1717.05 1048.65 1723.5 1055.7 1731 1052.6 1737.25 1046.3 1745.2 1042.75 1749.65 1035.5 1758.55 1023.2 1774.9 1017.05 1794.6 1015.5 1799.55 1015.8 1802.4 1016.05 1804.5 1017.1 1806.2 1018.3 1808 1020.05 1808.7 1022.15 1809.55 1024.6 1808.6 1026.85 1807.7 1028.4 1805.75 1029.7 1804.15 1030.7 1801.65 1031.1 1800.65 1032.2 1797.15 1037 1781.9 1044.45 1770.5 1048 1765.15 1056.35 1755.05 1064.65 1745.1 1068.25 1739.6 1074.4 1730.25 1071.7 1724.1 1070.7 1721.9 1068.5 1720 1066.95 1718.65 1064.1 1716.9 1052.4 1709.7 1039.05 1704.25 1032.25 1701.6 1028.9 1700.2 1023.05 1697.75 1019.15 1695.4 1014.15 1692.35 1010.7 1688.45 1009.772265625 1687.4017578125 1008.95 1686.3 1010.07890625 1685.9263671875 1010.5 1685.8 1010.78125 1685.70625 1013.65 1684.95 1020.1 1688.15 1027.45 1688.7 1034.8 1689.2 1041.65 1687 1044.25 1686.15 1051.4 1682.9 1057.45 1680.15 1061.3 1679.35 1064.795703125 1678.6158203125 1070.25 1678.75 1070.3732421875 1678.830859375 1070.5 1678.9 1073.9 1680.8 1075.95 1680.75 1077.5 1680.7 1078.7 1679.75 1078.9541015625 1679.5466796875 1079.15 1679.3 1086.1775390625 1679.768359375 1089.4 1679.45 1099.15 1678.45 1106.3 1671.5 1113.8 1664.25 1113.25 1655.15 1113 1650.55 1110.45 1645.5 1108.65 1641.9 1104.95 1636.75 1094.35 1622.1 1082.55 1609.4
M 1295.95 1570.05
Q 1293.55 1568 1291.4 1569.35 1287.1 1583.4 1285.95 1590.5 1284 1602.5 1286.55 1611.75 1288.9 1620.3 1295.95 1629.4 1298.7 1632.95 1309.5 1644.7 1329.45 1666.35 1344.9 1691.9 1346.8 1695.05 1347.75 1696.35 1349.45 1698.7 1351.35 1700.05 1353.55 1701.7 1356.2 1702 1359.05 1702.3 1361.1 1700.8 1364.6 1698.25 1363.45 1692.85 1362.55 1688.4 1359.2 1683.85 1341.35 1659.4 1320 1637.75 1308.95 1626.55 1304.75 1620.6 1297.4 1610.2 1297.15 1600.25 1297.1 1597.1 1298.6 1587.45 1299.85 1579.45 1298.8 1574.75 1298.15 1571.85 1295.95 1570.05
M 750.5 1583.4
Q 749.4 1583.15 748.45 1583.45 747.35 1583.75 746.85 1584.55 746.3 1585.35 746.4 1587.3 747.1 1596.55 751.7 1604.5 752.75 1606.35 755.35 1610.15 757.85 1613.8 758.95 1615.85 762.8 1623.1 761.35 1628.8 760.8 1631.1 759.15 1633.6 758.2 1635.1 755.9 1637.95 752.8 1641.7 751 1643.7 748.15 1646.8 745.5 1648.9 742.65 1651.2 736.9 1654.5 730.6 1658.15 728.1 1659.95 723.5 1663.3 720.85 1667.4 717.8 1672.1 717.95 1676.95 718.1 1681.75 721.8 1687.45 725.15 1692.55 732.15 1699.4 741.25 1708.3 743.3 1710.65 747.15 1715 750 1719.8 752.6 1723.9 752.75 1726.85 752.9 1729.15 751.35 1733.6
L 748.5 1741.9
Q 747.5 1744.85 747.2 1746.55 746.75 1749.2 747.4 1751.2 748.15 1753.6 750.55 1754.75 753 1755.95 754.85 1754.55 756.15 1753.55 757.05 1750.5
L 760.45 1739.25
Q 761.7 1735.15 762.25 1732.85 763.05 1729.25 763 1726.25 762.85 1716.95 755.15 1707.75 752.75 1705 748.6 1701.15 742.7 1695.7 741.8 1694.8 732.25 1685.25 729 1675.4 730.6482421875 1672.954296875 733.1 1670.5 735.719921875 1670.3984375 738.95 1670.15
L 774.25 1667.8
Q 778.75 1667.5 781 1666.6 784.85 1665.1 785.7 1661.85 783.85 1660.4 781 1659.7 779.15 1659.25 775.75 1658.95 766.9 1658.3 753.2 1658.3 750.97578125 1658.2876953125 749 1658.3 755.775390625 1653.1740234375 763.2 1645.6 769.1 1639.6 771.85 1634.45 775.55 1627.6 774.45 1621.4 774 1618.95 772.6 1616.15 771.7 1614.3 769.85 1611.3
L 756.6 1589.25
Q 755.15 1586.85 754.05 1585.65 752.4 1583.85 750.5 1583.4
M 1028.75 1032.4
Q 1027.15 1023 1018.75 1012.75 1014.35 1007.3 1010.45 1008.25 1007 1009.05 1006.75 1013.45 1006.5 1017.5 1008.95 1020.75 1010.45 1022.75 1013.95 1026.45 1016.85 1029.8 1017.3 1032.85 1017.85 1036.3 1015.65 1039.65 1013.6 1042.75 1010.15 1044.5 1007.3 1045.95 1003.25 1046.65 1001.4 1047 995.95 1047.55 979.9 1049.2 964.1 1053.5 960.5 1054.5 958.45 1055.45 955.5 1056.85 953.8 1058.9 950.6 1062.75 951.5 1068.9 952.2 1073.75 955.3 1079.5 959.15 1086.6 960.2 1089.6 962.3 1095.5 960.9 1100.1 959.05 1105.95 952 1109.35 947.1 1111.65 938.35 1113.15 904.95 1118.9 873.1 1127.9 865.6 1130 861.4 1131.95 855.2 1134.8 851.55 1138.95 847.9 1143.15 846.35 1149.15 845 1154.6 845.5 1160.8 845.95 1165.95 847.8 1172.2 848.85 1175.9 851.55 1183.25
L 873.1 1241.75
Q 874.2 1244.8 875.6 1245.75 877.6 1247.15 880.15 1245.85 882.6 1244.6 883.35 1242.05 884 1239.9 883.5 1237.15 883.15 1235.35 882.05 1232.25
L 861.15 1173.4
Q 859.4818359375 1168.7505859375 858.7 1165.4 858.9662109375 1165.3724609375 859.25 1165.3 872.7 1161.75 886.35 1162.4 890.65 1162.6 892.85 1163.7 896.1 1165.3 897.7 1169.35 899.05 1172.85 898.85 1177.15 898.75 1178.85 897.85 1184.95 897.15 1189.7 897.35 1192.7 897.8 1198.45 901.4 1203.25 905 1208.1 910.35 1210.2 912.45 1211 915.35 1211.55 916.7 1211.8 920.45 1212.3
L 940.7 1214.7
Q 953.5 1216.2 959.8 1217.55 964.95 1218.65 966.95 1220.8 969.2 1223.35 969.2 1228.7 969.25 1236 966.65 1244.75 965 1250.2 960.9 1260.2
L 948.9 1289.3
Q 945.6 1297.25 944.25 1301.4 941.95 1308.2 941.3 1313.95 941 1316.5 942.15 1317.45 943.3 1318.35 944.95 1317.4 946.25 1316.55 947.3 1314.95 954.6 1303.4 961.3 1289.1 963.4095703125 1284.6314453125 965.6 1279.6 966.075 1279.7833984375 966.6 1279.9 967.75 1280.15 970 1280.25 972.3 1280.4 973.35 1280.6 977.9 1281.5 981.35 1285.55 984.45 1289.25 985.7 1294.3 986.7 1298.3 986.7 1303.95 986.75 1307.2 986.5 1313.7 986.4 1322.75 987.95 1334 988.85 1340.65 991.4 1354.15 991.95 1357.25 993.6 1357.7 994.8 1358.05 995.9 1356.95 996.8 1356.1 997.4 1354.6 1000.05 1347.6 998.85 1336.8 996.85 1324.55 996.45 1318.45 996.25 1315.05 996.4 1308.5 996.55 1301.75 996.4 1298.5 995.75 1286.45 990.3 1279.8 984.45 1272.6 972.4 1270.2 970.9525390625 1269.9265625 969.7 1269.8 971.2333984375 1266.07109375 972.8 1262.05 976.45 1252.65 978.1 1246.7 980.45 1238.1 980.55 1230.8 980.65 1225.35 979.25 1220.9 977.65 1215.75 974.25 1212.6 971.2 1209.8 966.25 1208.25 962.9 1207.2 957.05 1206.4 937.7 1203.55 918.45 1201.45 914.9 1201.05 912.9 1200.3 910 1199.25 908.85 1197.05 907.95 1195.35 908.05 1191.45
L 908.4 1176.75
Q 908.55 1171.45 908.2 1168.55 907.65 1164.05 905.8 1160.95 902.55 1155.5 894.9 1153.2 889.45 1151.55 880.6 1151.3 871.95 1151 866.85 1151.75 862.2478515625 1152.425 858.6 1154.05 858.8515625 1153.3099609375 859.15 1152.6 861.4 1147.2 867.85 1143.7 872.25 1141.3 880.3 1139.15 911.2 1130.8 941.75 1123.7 950.95 1121.55 955.75 1119.45 963.2 1116.2 966.85 1110.9 971.45 1104.35 970.4 1094.85 969.5 1086.7 964.85 1078.25 963.2 1075.3 962.7 1073.5 961.9 1070.7 963.05 1068.75 963.95 1067.2 966 1066.35 967.4 1065.75 969.9 1065.25
L 1006.55 1058.4
Q 1012 1057.35 1014.8 1056.45 1019.25 1055 1022.15 1052.65 1026.35 1049.25 1028.1 1043.5 1029.75 1038.15 1028.75 1032.4
M 609.75 1167.5
Q 596.9 1171.7 572.35 1181.55 560.85 1186.15 555.2 1188.7 552 1190.2 550.2 1192.25 547.95 1194.85 549.05 1197.3 550.2 1199.95 553.9 1199.75 556.9 1199.6 560.35 1197.85 608.95 1172.3 652.35 1167.55 659.9 1166.75 665.05 1167.65 671.9 1168.85 675.5 1173.2 679.1 1177.6 679 1184.85 678.9 1189.7 676.85 1197.8 670.25 1223.4 665 1249.25 664.25 1253 664.05 1255.2 663.8 1258.5 664.5 1261.1 665.7 1265.3 669.5 1268.4 673.05 1271.25 677.7 1272.35 681.6 1273.3 686.7 1273.1 689.6 1273 695.8 1272.3
L 722.3 1269.1
Q 729.3 1268.25 733.3 1268.5 738.8779296875 1268.82265625 742.65 1271.2 743.4416015625 1272.8486328125 744.95 1273.1 745.0345703125 1273.1130859375 745.1 1273.1 748.8513671875 1276.6466796875 750.6 1282.95 751.95 1287.65 752.65 1297.3 753.7 1311.25 756.5 1325.3 757.1 1328.45 758.8 1330.55 760.8 1333.05 763.15 1332.2 766.1 1324.85 766.15 1314.95 766.2 1308.8 764.8 1297.15 763.4 1285.25 761.4 1278.85 758.3 1268.95 752.15 1263.55 752.096484375 1263.5029296875 752.05 1263.45 754.6009765625 1255.4880859375 755.15 1245.35 755.5 1238.5 754.75 1220.65 754.6 1217.5 754.85 1215.75 755.2 1213.05 756.5 1211.35 757.95 1209.4 760.6 1208.6 763 1207.85 765.7 1208.15 767.85 1208.45 770.6 1209.5 771.3 1209.75 775.3 1211.5 788.35 1217.15 802.7 1218.65 804.4 1216.5 802.7 1213.55 801.25 1211 798.3 1209.15 785.85 1201.3 768.75 1196.85 763.15 1195.45 759.3 1195.4 754 1195.4 750.45 1197.75 745.1 1201.35 743.85 1209.45 743.35 1212.35 743.45 1216.35 743.55 1218.65 743.8 1223.25 744.25 1232.2 743.45 1244.8 743.140234375 1249.7548828125 742.55 1258.1 732.6326171875 1254.7302734375 717.95 1256.75 706.05 1258.85 700.1 1259.65 689.65 1261.1 682.25 1260.05 679 1259.65 677.8 1258.1 676.8 1256.75 677 1253.35 678.35 1237.25 682.6 1221.35 685.5 1211.45 686.8 1206.45 689.05 1197.75 689.45 1191.3 689.95 1183.05 687.5 1175.9 684.75 1168.05 679 1163.5 668.9 1155.6 648.45 1158.3 630.85 1160.55 609.75 1167.5
M 1309.45 1157.1
Q 1302.7 1157.7 1298.3 1160.85 1297.588671875 1161.3681640625 1296.9 1161.95 1284.4388671875 1141.5630859375 1266.2 1125.5 1262.35 1122.1 1259.2 1120.55 1255 1118.45 1251.25 1119.15 1246.4 1120.1 1241.6 1126.45 1237.25 1132.2 1233.35 1140.4 1231.05 1145.3 1227 1155.45
L 1208.95 1201.25
Q 1206.85 1206.35 1207 1209.3 1207.1 1211.5 1208.25 1213.25 1209.5 1215.2 1211.45 1215.7 1215.75 1211.4 1219.25 1204.75 1221.45 1200.55 1224.75 1192.35
L 1245.05 1142
Q 1246.55 1138.35 1247.95 1136.45 1250 1133.65 1252.65 1133.1 1255.2 1132.55 1258.1 1134 1260.2 1135.1 1262.85 1137.5 1276.95 1150.4 1287.45 1166.4 1289.1 1168.9 1290 1169.95 1290.60859375 1170.6345703125 1291.2 1171.15 1290.026953125 1174.9748046875 1289.95 1179.25 1289.9 1183.9 1291.2 1189.55 1292 1193.05 1294.1 1199.7
L 1299.55 1217.2
Q 1300.75 1221.15 1301.1 1222.8 1301.75 1225.95 1301.55 1228.5 1301.15 1234.4 1295.45 1241.8 1289 1250.2 1277.6 1259.55 1264.2 1270 1257.65 1275.3 1246.3 1284.55 1239.5 1293.2 1230.9 1304.05 1228.25 1315.4 1225.25 1328.05 1229.25 1345.15 1231.55 1355.1 1238.05 1374.75 1241.35 1386 1247.45 1385.4 1249.95 1385.2 1251.7 1382.95 1253.35 1380.8 1253.55 1378.1 1253.7 1375.8 1252.85 1373.05 1252.35 1371.4 1251 1368.15 1244.15 1351.9 1241.95 1341.95 1238.6 1326.95 1242.2 1315.25 1243.5337890625 1310.924609375 1245.9 1306.7 1247.1458984375 1307.5333984375 1248.65 1307.85 1251 1308.35 1254.15 1307.8 1254.95 1307.7 1259.65 1306.5 1264.65 1305.2 1270.25 1304.75 1276.3 1304.35 1278.9 1306.65 1280.85 1308.35 1281.4 1311.55 1281.8 1313.7 1281.6 1317.45 1280.9 1333.3 1282.1 1348.7 1282.5 1353.6 1283.8 1355.75 1284.8 1357.4 1286.55 1358.2 1288.4 1359.05 1290 1358.45 1293.5 1357.1 1293.6 1350.3
L 1294.6 1315.75
Q 1294.8 1310.65 1294.45 1307.8 1293.9 1303.45 1291.95 1300.5 1288.35 1294.95 1279.7 1293.15 1273.35 1291.8 1265.3 1292.6 1261.635546875 1292.962890625 1255.65 1294.1 1256.060546875 1293.7322265625 1256.45 1293.35 1263 1286.85 1277.65 1276.4 1291.55 1266.4 1298.5 1259.05 1308.8 1248.15 1311.45 1236.45 1313.8 1226.15 1310.65 1212.15 1305.95 1195.95 1303.8 1187.95 1303.05 1185.1 1302.9 1183.35 1302.7 1180.75 1303.45 1178.85 1306.3 1171.9 1320.25 1173.1
L 1373.5 1177.85
Q 1382.3 1178.65 1387.35 1178 1395 1177.1 1399.55 1173.05 1402.85 1170.05 1404.9 1165 1406.35 1161.35 1407.55 1155.45 1411.95 1134.35 1412.25 1112.45 1412.3 1110.95 1411.3 1109.7 1410.25 1108.4 1409.4 1109.4 1406.6 1114.2 1405.5 1121.45 1405.2 1123.55 1404.45 1134.35 1403.9 1142 1402.2 1147.15 1399.95 1153.95 1395.4 1157.65 1390.6 1161.55 1382.9 1162.35 1377.7 1162.85 1368.85 1162
L 1321.7 1157.45
Q 1313.8 1156.7 1309.45 1157.1 Z"/>
</g>
</defs>

<g transform="matrix( 1, 0, 0, 1, 0,0) ">
<use xlink:href="#Layer3_0_FILL"/>
</g>

<g filter="url(#Filter_1)" transform="matrix( 1, 0, 0, 1, 0,0) ">
<g transform="matrix( 1, 0, 0, 1, 530.4,1310.4) ">
<g transform="matrix( 1, 0, 0, 1, 0,0) ">
<use xlink:href="#S_mbolo_5_0_Layer0_0_FILL"/>
</g>
</g>
</g>

<g transform="matrix( 1, 0, 0, 1, 0,0) ">
<use xlink:href="#Layer2_0_FILL"/>
</g>

<g transform="matrix( 1, 0, 0, 1, 0,0) ">
<use xlink:href="#Layer1_0_FILL"/>
</g>
</svg>
