
<svg xmlns="http://www.w3.org/2000/svg" version="1.1" xmlns:xlink="http://www.w3.org/1999/xlink" preserveAspectRatio="none" x="0px" y="0px" width="2000px" height="2000px" viewBox="0 0 2000 2000">
<defs>
<g id="Layer2_0_FILL">
<path fill="#000000" stroke="none" d="
M 1587.35 778.4
Q 1583.2 775.6 1578.2 776.55 1564.15 779.7 1569.45 794.25 1580.65 824.7 1585.4 856.5 1579.15 854.6 1573.1 852.35 1536.55 838.8 1500.3 824.25 1481.8 816.8 1462.25 816.8 1458.45 816.8 1455.8 819.35 1444.4 830.1 1453.15 844.65 1467.65 868.65 1474 895.2 1464.4 890.9 1455.1 886 1421.4 868.1 1385.25 856.15 1379.15 854.1 1372.9 855.35 1356.45 858.05 1358.7 875.2 1362.4 903.45 1370.9 931.1 1328.3 908.3 1283.75 890.3 1279.25 888.55 1274.65 889.05 1260.2 891.2 1264.05 906.3 1175.15 852.45 1070.6 847.75 1077.3 827.45 1082.65 806.55 1085.5 795.3 1085.7 783.9 1086 766.05 1068.1 767.6 1034.4 771.1 1000.7 774.15 1004.95 761.9 1006.65 748.95 1007.45 743.05 1004.2 738.6 1005.6 731.05 1005.95 723.25 1006.5 711.9 1007.25 700.65 1008.45 682.2 995.55 669.75 991.8 666.2 986.55 666.8 950.45 670.9 915.85 682.5 921.5 660.2 926.25 637.95 930.4 618.6 926.35 599.3 924.85 592.05 917.85 589.9 909.05 587.2 900.35 590.85 864.1 606.25 825.65 614.65 814.15 603.05 802.75 591.4 797.55 586.1 790.4 584.6 782.2 582.6 779 590.25 770.8 610 769.8 631.7 739.2 639.3 708.6 646.7 692.15 650.55 677.3 658.65 672.9 661 670.05 664.8 658.9 680 672.6 692.55 686.55 705.3 700.35 718.2 714.9 731.9 731.05 744 698.3 755.1 665.25 770 649.35 777.05 649.45 793.6 649.5 798.85 653.7 802.1 687.7 828.3 726.4 848.2 686.9 854.3 655.45 878.65 650.8 882.3 647.7 887.4 638.3 902.6 653.6 913.95 661.15 919.5 668.85 925.15 696.25 945.3 727.85 955.15
L 707.6 972.85 673.2 1015.05
Q 663.35 987.05 651.65 957.3 647.95 947.9 638.45 945.4 628.3 942.8 622 951.55 592.4 992.6 562.65 1033.4 551.15 1002.5 537.65 972.5 534.75 966.1 529.35 961.75 519.8 954.05 512.5 963.95 507.35 970.95 502.1 977.75 466.2 1023.95 427.15 1067.75 424.3 1059.1 421.3 1050.5 410.65 1019.8 395.65 991.85 386.45 974.65 369.15 982.8 366.2 984.2 365 987.2 357.55 1006.15 344.55 1022.15 316.7 1056.4 290.5 1092.2 279.75 1076.9 268.6 1061.9 258.1 1047.65 248.9 1032.6 242.25 1021.8 230.15 1021 224.6 1020.45 222.05 1025.3 205.5 1057.1 187.55 1088.15 176.3 1107.6 176.25 1129.35 160.85 1133.4 145.7 1138.5 134.05 1142.4 132.1 1153.9 130.6 1162.8 139.25 1165.75 158.05 1172.15 175.3 1176.8 179.2 1204.25 184.55 1232.35 189.6 1259.1 187.9 1286.25 187.7 1289.35 189.6 1291.7 199.25 1303.85 212.15 1293.05 244.8 1265.75 275.75 1237.65 289.75 1224.9 298.5 1208.35 306.6 1257.35 323.45 1303.8 327.35 1314.6 338.3 1316.5 346.4 1318.15 351.15 1311.1 365.55 1289.65 382.75 1270.1 397.5 1253.3 409.7 1234.6 414.25 1252.2 418.95 1269.9 427.5 1301.95 432 1335 433.65 1347.2 443.45 1353.85 446.6 1356 450.05 1354.65 472.3 1345.65 484.5 1323.45 487.45 1318.15 491.45 1313.8 515.75 1287.3 532.7 1255.85 538.5 1292.2 544.05 1328.7 547.15 1349.05 555.2 1367.75 556.6 1371.05 559.7 1372.35 577.85 1380.1 590.7 1363.05 595.8 1356.25 600.45 1354.55
L 610.45 1362.65
Q 607.65 1365.95 605.45 1369.8 597.2 1384.25 609.8 1394.65 617.1 1400.65 626.45 1402.65 662.1 1409.8 696.75 1418 661.65 1434.5 628.7 1454.55 613.95 1463.6 603.45 1476.95 594 1488.9 605.1 1498.95 612.2 1505.35 621.65 1507.2 658.6 1514.05 695.35 1523 686 1528.3 676.65 1533.5 652.55 1546.65 632.2 1565 618.75 1577.2 625.5 1593.35 627.6 1598.4 632.45 1600.9 669.55 1619.7 710.95 1626.45 673.5 1649.55 641.35 1679.5 638.9 1681.75 638.3 1685.15 635.4 1702.2 653.2 1707.4 692.25 1718.6 732.7 1728.2 746.4 1731.6 760.55 1733.15 761.45 1741.65 764.75 1749.35 766.35 1753.05 770.15 1754.05 780.55 1756.4 786.1 1746 797 1749.35 808.4 1749.85 818.55 1750.5 828.85 1751.55 858.95 1752.9 887.5 1743.4 907.75 1736.7 896.7 1717.7 877.85 1685.45 861 1651.95 880 1652 899.1 1650.8 938.95 1648.6 973.25 1629.2 979.65 1625.55 980.75 1618.4 982 1610.55 978.3 1603.35 961.3 1570.4 938.85 1541.3 990.05 1543 1038.05 1525.75 1052.75 1520.45 1062.55 1508.6 1065.15 1505.45 1064.25 1501.5 1058.4 1475.95 1040.95 1455.15
L 1125.5 1454.1
Q 1124.95 1459.65 1125.6 1465.25 1126.7 1475.25 1136.85 1476.1 1147.75 1476.55 1158.1 1472.8 1186.15 1462.65 1213.95 1451.35 1232.65 1443.75 1248.9 1437.85 1248.3 1469.15 1249.9 1500.5 1250.7 1516.05 1250.5 1531.7 1250.3 1548.95 1265.15 1555.4 1268.05 1556.65 1271.15 1555.25 1324.3 1530.9 1375.3 1502.1 1377.4 1537.15 1377.35 1572.4 1377.35 1585.1 1378 1597.8 1378.3 1604.15 1379.2 1610.4 1381.7 1627.85 1399.4 1621.25 1425.8 1611.35 1451.15 1598.95 1487.55 1581 1520.6 1557.75 1521.5 1613.9 1535.95 1667.75 1541.2 1687.3 1560.35 1690.45 1564 1691.15 1567.4 1689.15 1628.6 1652.5 1692.45 1620.8 1712.6 1627.3 1732.4 1634.7 1745.5 1639.55 1757.5 1633.45 1764.65 1636.4 1772.45 1636.2 1775.95 1636.1 1778.15 1633.7 1788.25 1622.45 1775.95 1610.5 1762.05 1596.95 1758.15 1586.8 1783.55 1555.1 1796.2 1515.8 1802.3 1496.75 1786.3 1486.8 1784.45 1485.65 1782.4 1485.35 1736.8 1487.9 1691.9 1496.8 1689.7 1497.15 1687.4 1497 1711.2 1452.5 1728.1 1404.9 1733 1391 1727 1378.1 1723.3 1370.2 1714.6 1371.25 1679.3 1376.15 1644.8 1386.2 1615.5 1394.85 1589.35 1399.3 1611.9 1360.75 1630.1 1320.2 1636.1 1306.9 1632.75 1292.8 1630.55 1283.65 1621.15 1283.7 1566.2 1283.95 1512.05 1292.5 1521.15 1270.2 1525.75 1246.55 1527.2 1239.05 1523.7 1232.3 1516.3 1218.2 1498.85 1222.45 1491.2 1224.3 1487.7 1221.25
L 1484.65 1192.55
Q 1540.1 1206.8 1596.05 1192.9 1602.4 1191.4 1607.25 1187 1618.75 1176.35 1608.35 1162.95 1585.7 1133.8 1557.75 1108.85 1589.3 1118.1 1621.75 1121.85 1636.05 1123.35 1639 1110.1 1640.05 1105.45 1637.9 1101.15 1621.35 1067.75 1596.5 1039.55 1643.85 1051.55 1692.2 1045.25 1696.85 1044.7 1700.25 1041.55 1711.85 1031.1 1699.85 1019 1679.45 998.4 1659.15 977.55 1680.3 980.9 1701.85 980.8 1723.45 982.2 1744.35 977.5 1758.15 974.3 1757.3 960.05 1756.35 944.05 1747.5 930.4 1729.25 902.2 1706.4 877.55 1715.55 865.85 1713.1 851.75 1712.5 848.15 1709.25 846.75 1694.75 840.2 1678.85 847.3 1673.4 841.5 1666.95 836.55 1627.8 806.4 1587.35 778.4
M 1680.8 912.1
L 1690.65 902.75 1733.55 959.05 1642.4 955.9 1680.8 912.1
M 1627.75 972.2
Q 1628.65 975.1 1630.3 977.5 1649.15 1004.85 1675.8 1025.55 1662.45 1026.1 1649.1 1026 1618.15 1025.8 1589.35 1016.55
L 1627.75 972.2
M 1666.6 883.3
Q 1656.05 896.5 1645.4 909.65 1576.3 994.85 1499.1 1073.1 1492.4 1079.9 1484.75 1085.45 1464.4 1100.45 1453.95 1123.65 1452.25 1122.35 1450.65 1121 1435.45 1107.8 1416.1 1107.65
L 1405.05 1080.5 1417.7 1066.2 1417.75 1065.75
Q 1423.1 1067.3 1428.75 1067.15 1437.5 1066.95 1445.1 1062.9 1468.6 1050.65 1468.15 1025.5
L 1512.6 991.75
Q 1513.2 991.85 1513.85 992 1517.15 992.25 1520.45 992.4 1523.35 992.5 1526.15 992.25 1529.2 991.8 1532.1 990.6 1540.05 987.4 1547.1 982.1 1566.65 967.55 1564.95 946.7 1565.4 946.35 1565.85 946 1577.8 937.1 1590.1 928.25 1595.3 924.5 1600.35 920.4 1606.3 915.5 1612.75 911 1618 907.3 1623.2 903.45 1642.95 888.9 1666.6 883.3
M 1609.05 868.5
L 1595.05 809.2 1653 854.3 1609.05 868.5
M 1496.05 904.3
Q 1496.25 899.1 1495.5 894.1 1491.5 868 1479.75 844.3
L 1578.95 880.6 1504.35 910.65 1496.05 904.3
M 1511.9 977.45
Q 1511.7 971.75 1516.45 968.3 1522.9 963.55 1530.2 959.6 1542.8 953 1555.55 955.05 1555.55 955.55 1555.35 956 1550.25 968.3 1538.8 976 1533.9 980.55 1527.4 982.2 1520.45 983.95 1513.9 981.9 1512 980.15 1511.9 977.45
M 1517.7 951.85
Q 1499.05 964.4 1504 984.45
L 1463.8 1017.8
Q 1461.75 1015.9 1459.25 1014.65 1455.4 1012.65 1451.7 1010.35 1441.8 1004.2 1431.85 1010.4 1419.1 1018.25 1410.35 1030.3 1399.3 1045.55 1411.4 1061.15
L 1400.85 1070.8 1367.15 1014.15 1349.85 991.45 1616.2 897 1558.1 942.55
Q 1557.25 942.25 1556.4 942 1550.1 939.6 1543.55 940.9 1529.7 943.75 1517.7 951.85
M 1335.95 974.25
L 1319.05 954.4 1294.75 929.85 1292.9 920.1 1371.4 958.65 1335.95 974.25
M 1426.55 940.75
L 1397.6 949.9 1384.65 881.65 1475.05 923.2 1426.55 940.75
M 1445.85 1023.9
Q 1461 1023.5 1455.5 1036.2 1448.45 1051.55 1432.4 1054.25 1428.55 1054.85 1424.85 1053.65 1412.45 1049.85 1420.9 1037.55 1429.95 1024.3 1445.85 1023.9
M 1387.55 1114.15
Q 1384.5 1114.9 1381.65 1116.15 1361.85 1124.8 1341.25 1131.5 1243.85 1163.5 1141.25 1162.35 1085.15 1161.7 1029.5 1154.2 973.4 1146.75 918.05 1134.55 851.85 1120.1 785.95 1104.2 738.95 1092.8 693.65 1076.55 676.7 1070.5 665.25 1060.75 667.8 1056 670.15 1051.15 690.6 1008.45 726 977.05 736.55 967.7 746.95 962.9 748.2 964.95 750.5 965.6 754.9 966.8 758.15 963.35 759.9 961.4 760.9 959.05 762.7 954.95 763.55 950.45 776.8 942.25 790.25 934.5 902.2 870.55 1031.2 866.75 1031.8 867.1 1032.45 867.5 1036.55 869.8 1041.15 870.05 1043.65 870.05 1046.15 869.3 1048.75 868.6 1050.8 866.9 1087.55 868.05 1123.55 875.05 1200.45 890.05 1265.05 934.15 1269.85 937.35 1272.7 942.05 1277.7 950.15 1287 952.1 1310.65 976.65 1331.8 1003.5 1358.45 1037.2 1377.75 1075.55
L 1390.25 1113.55
Q 1388.9 1113.85 1387.55 1114.15
M 1399.15 1167.55
Q 1398 1167.8 1396.85 1168.1 1377.75 1174 1358.3 1179.95 1316.15 1192.85 1272.8 1201.25 1231.65 1209.45 1190.05 1214.95 1146.3 1220.9 1102.65 1225 1068.95 1228.15 1035 1229.25 958.95 1232.25 884.95 1215.2 883.85 1214.95 882.8 1214.7 803.55 1196.45 724.55 1176.95 676 1165.05 632.95 1140
L 645.9 1100 660.55 1073.3
Q 663.85 1075.35 667.3 1077.25 698.05 1094.65 732 1105.35 843.9 1140.65 959.25 1163 964.35 1163.9 969.5 1164.85 1053.55 1180.25 1138.95 1181.6 1272.45 1183.75 1396.4 1134.75
L 1399.15 1167.55
M 1449.05 1157.9
Q 1458.35 1171.95 1452.15 1187.1 1445.95 1202.25 1431.25 1210.35 1347.95 1256.45 1253.55 1271.85 1190.75 1282.2 1127.25 1287.6 1054.4 1294.15 981.25 1292.15 927.65 1290.65 875.6 1276.95 748.2 1243.25 621.75 1208.35 594.5 1200.9 572.75 1182.95 565.95 1177.3 561.5 1169.45 559.35 1165.6 558.4 1161.4 557.7 1158.1 558.05 1154.65 558.7 1148.3 563.35 1144 589.15 1120.1 624.25 1113.2 622.15 1119.3 620.1 1125.4 616.9 1135.05 613.4 1144.15 609.15 1155.3 619.8 1162.8 655.2 1187.6 697.55 1198.4 734.2 1207.9 770.85 1217.05 817.75 1228.85 864.85 1239.85 906.3 1249.45 948.7 1253.95 978.45 1257.25 1008.3 1257.2 1023.15 1257.2 1038 1256.75 1064.25 1255.9 1090.4 1254.2 1125 1252.05 1159.45 1247.9 1193.95 1243.95 1228.2 1238.2 1273.65 1230.8 1318.4 1219.9 1364.25 1209 1408.25 1197.55
L 1414.95 1200
Q 1417.35 1200 1419.25 1198.9 1421.35 1197.7 1422.65 1195.8 1423.7 1194.3 1424.1 1192.5 1429.85 1164.7 1421.7 1136.55 1438.95 1142.8 1449.05 1157.9
M 1513.85 1099.05
Q 1516.1 1104.7 1520.3 1108.95 1550.4 1139.35 1579.25 1171.25 1530.95 1181.5 1483.55 1169.75
L 1472.3 1142.95 1474.55 1138.95 1513.85 1099.05
M 1606.95 1099.7
L 1565.6 1092 1528.35 1082.9 1567.1 1039.75 1606.95 1099.7
M 1474.25 1207.9
L 1474 1223.3 1457.4 1224.35 1463.75 1218.8 1474.25 1207.9
M 1519.75 1330.05
L 1511.2 1319.6 1601.45 1311.3 1568.05 1380.8 1519.75 1330.05
M 1478.3 1321.25
Q 1504.95 1352.65 1533 1383.15
L 1729.65 1599.3 1720.3 1601.8
Q 1616.95 1569.15 1516.4 1528.55 1392.25 1478.5 1273.2 1416.7 1273 1416.1 1272.75 1415.65 1272.15 1414.4 1271.4 1413.3 1270.15 1411.6 1268.6 1410.45 1267.6 1409.7 1266.5 1409.15 1265.4 1408.6 1264.2 1408.35 1260.35 1407.25 1256.35 1407.9
L 1148.4 1346.75
Q 1148.25 1346.15 1148.15 1345.6 1147.9 1343.8 1146.8 1342.25 1146.3 1341.65 1145.75 1341.15 1144.6 1340.1 1143.3 1339.25 1141.45 1337.95 1138.95 1337.95 1136.3 1337.95 1133.85 1339.3
L 1088.65 1311.95
Q 1095.4 1311.55 1102.1 1311.1 1145.55 1308.2 1188.65 1303.85 1230.05 1299.8 1271.25 1292.4
L 1287.45 1290.75 1332.5 1328.1
Q 1328.55 1330.2 1326.05 1334.1 1324.25 1336.85 1324.35 1340 1325.15 1363.1 1343.45 1379.15 1344.45 1380 1345.45 1380.95 1360.4 1396.35 1380.75 1401.8 1394.3 1405.4 1408.05 1402.6 1419 1400.4 1426.8 1393.15
L 1466.4 1429.3
Q 1466.1 1430.95 1465.9 1432.6 1465.35 1437 1466.45 1441.25 1467.65 1446.15 1470.25 1450.45 1473.4 1455.6 1477.6 1460 1482.35 1465 1487.75 1469.5 1492.75 1473.65 1497.9 1477.7 1515.8 1491.95 1537.4 1489.35 1542.1 1488.6 1544.35 1484.3 1554.75 1464.25 1539.4 1445.8 1523.85 1427.2 1501.1 1418.75 1485.45 1412.9 1471.65 1421.25
L 1429.25 1386.45
Q 1429.95 1384.2 1430.25 1381.8 1430.6 1378.85 1430.15 1376.05 1429.8 1373.7 1428.8 1371.65 1422.9 1359.3 1413.2 1349.5 1411.15 1347.4 1408.9 1345.45 1393.85 1332.6 1374.55 1328.75 1367.9 1327.35 1361.05 1326.85 1351.35 1326.3 1341.6 1325.95
L 1294.55 1287.8
Q 1303.45 1285.8 1312.4 1283.8 1369.7 1270.4 1422.75 1245.25 1447.75 1285.3 1478.3 1321.25
M 1500.55 1247.3
L 1485.45 1295.5 1457.25 1259.95 1449.25 1247.8 1500.55 1247.3
M 1362.9 1382.3
Q 1347.8 1371.95 1337 1356.8 1331.7 1349.4 1333.2 1340.7 1333.85 1336.75 1337.9 1336.15 1378.25 1332.15 1408.35 1359.65 1421.55 1371.7 1416.15 1386.7 1415.2 1387.7 1414 1388.1 1387.7 1399.35 1362.9 1382.3
M 1390.1 1560.9
Q 1391.25 1528.85 1384.25 1497.45
L 1493.2 1547.8 1392.8 1600.85
Q 1389.35 1581.1 1390.1 1560.9
M 1480.35 1428.85
Q 1488.5 1427.05 1496.05 1431.7 1499.6 1433.9 1502.1 1437.25 1505.75 1442.15 1508.7 1439.4 1508.95 1438.85 1509.3 1438.7 1513.4 1437.6 1519.75 1442.25 1538.7 1456 1536.25 1477.35 1517.35 1480.4 1501.05 1466.45 1493.1 1459.65 1485.35 1452.75 1472.6 1441.35 1480.35 1428.85
M 1541.95 1572.35
L 1539.75 1565.15 1657.35 1608.95 1563.55 1660.85 1541.95 1572.35
M 1699.25 1399.45
L 1673.35 1465.75 1665.6 1487.85 1604.9 1421.15 1699.25 1399.45
M 1741 1567.5
L 1740.35 1569.9 1698.45 1523.1 1764.05 1514.8 1741 1567.5
M 737.15 666.3
L 765.6 660.1 755.35 734.3 695.1 679.45 737.15 666.3
M 890.8 681.15
L 844.5 633.75 903.3 615.45 890.8 681.15
M 855.6 728.4
Q 854.2 726.55 852.6 724.95 850.85 723.25 848.95 721.85 843 717.6 836.45 715.05
L 810.35 637.55 1012.6 848 928.55 861.45 916.05 864.85
Q 909.55 854.45 901.8 845.05 900.75 843.75 899.7 842.55 898.6 841.35 897.5 840.15 896.4 839.05 895.35 838 894.25 836.95 893.15 835.9 892.05 834.9 890.95 833.95 889.8 833 888.65 832.1 887.6 831.25 886.55 830.45 883.45 828.3 880 826.95 875.2 825 871.7 822.8
L 853 774.1
Q 861.85 769.3 863.05 759.05 864.5 747.15 860.15 736.2 859.3 734.1 858.15 732.1 857 730.15 855.6 728.4
M 815.55 720.6
Q 809.95 728.85 811.6 739 812.25 743.15 814.25 746.95 814.65 747.7 815.75 747.2 818.35 754 823.85 762.95 828.65 770.8 837.05 774.15 840.65 775.65 844.45 775.7
L 860.95 824.65
Q 857.75 825.9 855.5 828.75 847.6 838.65 849.35 851.8 851.65 869 858.7 884.85
L 805.55 908.75 767.45 927.05
Q 767.6 925.95 767.65 924.9 774.7 777.25 798.8 631.65
L 821.7 715.85
Q 817.9 717.2 815.55 720.6
M 846.25 764.7
Q 834.7 765.35 829.35 754.3 823.2 741.75 827.3 729.55 843.25 728.15 849.75 744.3 855 757.4 846.25 764.7
M 977.9 762.5
L 976.95 770.5 913.65 704.65 982.5 690.35 977.9 762.5
M 436.6 1082
L 435.6 1082.15
Q 440.15 1073.6 447.95 1066.7 453.95 1061.3 459.3 1055.15 488 1021.95 517 989
L 550.3 1059.5 437.4 1081.85
Q 437 1081.9 436.6 1082
M 376.15 1024.7
L 404.6 1086.85 309.3 1101.55 376.15 1024.7
M 367.6 1132.5
L 370.8 1132.15
Q 388.85 1132.25 401 1143.55 401.55 1144.45 401.1 1145.5 394.9 1160.1 377.95 1161.45 368 1162.5 357.95 1160.7 344.95 1158.6 338.5 1149.25 342.2 1142.45 350.35 1140.9 360.65 1139.15 367.6 1132.5
M 330.15 1157
Q 349.85 1174.8 377.05 1172.05 398.95 1169.75 410.55 1151.45
L 444.3 1153.25
Q 445.45 1160.35 451.25 1164.6 469.85 1178 493.25 1174.45 509.15 1171.85 514.75 1157.3
L 540.7 1161.85
Q 546.05 1184.05 564.7 1197.5 599.4 1222.6 641.35 1232.4
L 713.8 1252.6 714.1 1257.45
Q 458.4 1208.45 204.6 1149.9 211.65 1149.05 218.65 1149.85 238.4 1150.75 258.45 1150.55 270.65 1150.45 282.7 1151.45 307.25 1153.6 330.15 1157
M 370.2 1123.25
Q 362.75 1124.4 355.45 1125.7 335.4 1129.3 327.05 1145.6 314.2 1144.6 301.75 1142.45 294.75 1141.15 287.7 1141.05 262.7 1140.8 237.7 1140.95 253.2 1137.1 268.85 1134.2 338.4 1120.7 408.7 1110.85 460.75 1103.55 512.05 1092.1 529.15 1088.25 546.3 1083.8 595.75 1071 646.15 1062.1
L 629.25 1094.75
Q 608.45 1097.5 588.8 1104.65 556.05 1116.4 541.65 1146.4
L 540.65 1150.95 514.3 1147.85
Q 508.2 1137.15 496.5 1132.7 464.75 1120.6 445.5 1147.05
L 411.35 1143.25
Q 398.9 1119.55 370.2 1123.25
M 455.95 1156.65
L 453.95 1153.7 455.95 1150.5
Q 454.8 1148.45 456.3 1146.65 465.5 1135.55 478.75 1138.3 484.05 1139.45 489.5 1140.35 502.4 1142.5 505.15 1154.15 505.9 1157.25 503.05 1158.85 478.7 1172.65 455.95 1156.65
M 576.6 1052.3
Q 585.3 1044.25 592.85 1034.9 615.3 1006.9 633.95 976.5
L 662.8 1031.55 656.95 1041.6
Q 656.3 1042.75 655.35 1043.35 654.8 1043.7 653.95 1043.5
L 576.6 1052.3
M 225.8 1057.6
Q 228.7 1052.1 233.15 1047.95
L 275.45 1107.35 246.15 1112.85 193.4 1124.8
Q 200.2 1106 209.65 1088.25 217.75 1073 225.8 1057.6
M 292.3 1201.45
Q 287.95 1203.3 284.1 1206 243 1234.5 207.3 1269.45
L 198.6 1214.8 191.2 1178.85 292.3 1201.45
M 319.95 1235.6
L 309.85 1204.35 391.3 1221.85
Q 385 1227.65 378.7 1233.35 352.25 1257.15 338.55 1289.3
L 319.95 1235.6
M 517.25 1249.95
Q 504.7 1261.3 493.25 1273.8 473 1295.7 456.2 1319.85
L 444.95 1270.35 433.25 1230.8 517.25 1249.95
M 572.7 1343.9
L 570 1336.75 549.8 1255.55 638.95 1274.2
Q 600.6 1305.55 572.7 1343.9
M 620.05 1351.7
L 607.9 1344.3 653.9 1291.45 661.15 1278.85 692.85 1286.7 620.05 1351.7
M 1045.4 842.7
L 1001.95 796.75 1060.85 793.9 1045.4 842.7
M 905.2 864.55
L 907.3 867.45 867.15 881.45
Q 854.4 857.85 862 834.6 865.5 832.8 869.35 833.95 893.15 841.55 905.2 864.55
M 730.35 868.9
Q 738.4 867.35 746.1 864.85
L 743.9 943.45 737.3 946.65
Q 735.75 941.1 731.1 937.7 706.9 920.05 681.35 903.85 676 900.45 671.05 896.85 696.95 874.8 730.35 868.9
M 746.5 831.35
L 686.5 792.4 752.85 767.8 746.5 831.35
M 877.25 1297.55
Q 875.55 1301.35 874.1 1305.15 873.1 1307.85 871.9 1310.2 871.45 1311.1 871 1312 870.45 1313 869.95 1314.05 869.7 1314.55 869.45 1315.1 868.2 1318.1 869.5 1321.2 869.7 1321.7 869.95 1322.2 846.75 1321.9 840.55 1345.15 839.95 1347.25 839.5 1349.45 838.85 1352.8 838.35 1356.2 835.65 1375.4 835.25 1394.6 834.9 1411.45 849.1 1419.95 849.2 1420 849.05 1420.55
L 833.05 1485.15
Q 823.7 1487.6 817.65 1495.4 816.75 1496.55 815.85 1497.75 812.15 1502.8 809.9 1508.7 802.9 1526.8 800.5 1546.3 798.6 1561.7 806.45 1574.85 806.65 1575.2 806.4 1575.8
L 777.1 1683.3 756.8 1451.4
Q 755.75 1439.05 754.65 1426.75 751.2 1387.1 746.25 1347.6 741 1306.1 731.2 1265.7 730.1 1261.2 729 1256.7
L 824.25 1282.3 877.25 1297.55
M 885.05 1332.55
Q 879 1325.95 874.35 1322.65
L 886.4 1298.25
Q 919.7 1306.2 953.7 1310.35 993.75 1315.4 1034.05 1314.35
L 1038.65 1314.25
Q 957.15 1467 857.2 1608.7 829.95 1647.35 803.15 1686.3 791.05 1703.9 780.05 1716.9
L 814.05 1582.15
Q 815.15 1582.15 816.25 1582.4 833.7 1586.5 844.9 1571.3 854.3 1558.4 860.2 1543.4 867.45 1524.95 863.35 1505.5 860.8 1493.35 849.15 1489.45 842.55 1487.15 841.2 1483.45
L 857.9 1422
Q 864.45 1422.8 869.8 1419.2 899.15 1399.35 897.6 1363.2 896.85 1345.5 885.05 1332.55
M 874.15 1339.2
Q 878.35 1342.75 880.5 1347.75 892.2 1374.45 875.9 1400.05 868.25 1412 855.05 1408.65 851.25 1407.7 850.1 1404.15 841.05 1375.65 853.25 1346.8 860.15 1330.5 874.15 1339.2
M 714.25 1300.3
L 718.85 1296.45 728.9 1405.7 719.15 1408.35
Q 717.7 1407.8 716.25 1407.3 712 1405.7 708.45 1403.25 701.75 1398.55 693.85 1395.55 663.4 1383.55 631.65 1377.3 640.05 1365.1 650.85 1354.7 681.05 1325.8 714.25 1300.3
M 719.95 1508.6
Q 719 1507.85 718 1507.3 700.75 1498.35 681.3 1495.4
L 637.95 1482.4 732.7 1426.7 740.15 1505.3 719.95 1508.6
M 656.75 1580.7
L 741.95 1522.9 748.15 1610.1 738.4 1611.3 656.75 1580.7
M 837.4 1499.4
Q 842.05 1498 845.65 1501.05 859.45 1513.05 852.1 1532 848.05 1542.4 844.1 1552.7 837.25 1570.35 820.25 1571.5 811.95 1568.2 811.2 1558.85 809.4 1536.7 817.9 1516.2 823.25 1503.3 837.4 1499.4
M 1066.1 1319.85
L 1126.45 1357.8 1125.45 1430.9 1027.25 1434.2 1021.85 1426
Q 1029.15 1426.25 1036.5 1426.85 1068.5 1429.85 1097.5 1417.6 1103.5 1415.05 1104.65 1408.65 1106.75 1397.3 1101.45 1386.55 1084.75 1352.55 1066.1 1319.85
M 1078.3 1393.95
L 1082.35 1403.9 1017.1 1406.95 1052.45 1346.15 1078.3 1393.95
M 999.35 1436.45
Q 1004.75 1448 1011.45 1458.8 1026.45 1483.1 1045.65 1504.05
L 987.75 1518.2 944.6 1522.1 999.35 1436.45
M 1230.45 1418.5
L 1147.25 1448.8 1146.55 1370.05 1230.45 1418.5
M 1271.6 1529.8
L 1264.3 1437.8 1357.5 1484.6 1271.6 1529.8
M 958.25 1616.7
L 900.9 1625.3 871.8 1627.55 923.1 1556.1 958.25 1616.7
M 880.2 1727.35
L 822.9 1729.6 799.9 1727.15 843.95 1666.5 880.2 1727.35
M 755.9 1689.25
L 755.85 1707.35 675.75 1685.05 751.2 1629.45 755.9 1689.25 Z"/>

<path fill="#FF0066" stroke="none" d="
M 755.85 1707.35
L 755.9 1689.25 751.2 1629.45 675.75 1685.05 755.85 1707.35
M 822.9 1729.6
L 880.2 1727.35 843.95 1666.5 799.9 1727.15 822.9 1729.6
M 900.9 1625.3
L 958.25 1616.7 923.1 1556.1 871.8 1627.55 900.9 1625.3
M 1264.3 1437.8
L 1271.6 1529.8 1357.5 1484.6 1264.3 1437.8
M 1147.25 1448.8
L 1230.45 1418.5 1146.55 1370.05 1147.25 1448.8
M 1011.45 1458.8
Q 1004.75 1448 999.35 1436.45
L 944.6 1522.1 987.75 1518.2 1045.65 1504.05
Q 1026.45 1483.1 1011.45 1458.8
M 1082.35 1403.9
L 1078.3 1393.95 1052.45 1346.15 1017.1 1406.95 1082.35 1403.9
M 845.65 1501.05
Q 842.05 1498 837.4 1499.4 823.25 1503.3 817.9 1516.2 809.4 1536.7 811.2 1558.85 811.95 1568.2 820.25 1571.5 837.25 1570.35 844.1 1552.7 848.05 1542.4 852.1 1532 859.45 1513.05 845.65 1501.05
M 741.95 1522.9
L 656.75 1580.7 738.4 1611.3 748.15 1610.1 741.95 1522.9
M 718 1507.3
Q 719 1507.85 719.95 1508.6
L 740.15 1505.3 732.7 1426.7 637.95 1482.4 681.3 1495.4
Q 700.75 1498.35 718 1507.3
M 718.85 1296.45
L 714.25 1300.3
Q 681.05 1325.8 650.85 1354.7 640.05 1365.1 631.65 1377.3 663.4 1383.55 693.85 1395.55 701.75 1398.55 708.45 1403.25 712 1405.7 716.25 1407.3 717.7 1407.8 719.15 1408.35
L 728.9 1405.7 718.85 1296.45
M 880.5 1347.75
Q 878.35 1342.75 874.15 1339.2 860.15 1330.5 853.25 1346.8 841.05 1375.65 850.1 1404.15 851.25 1407.7 855.05 1408.65 868.25 1412 875.9 1400.05 892.2 1374.45 880.5 1347.75
M 686.5 792.4
L 746.5 831.35 752.85 767.8 686.5 792.4
M 746.1 864.85
Q 738.4 867.35 730.35 868.9 696.95 874.8 671.05 896.85 676 900.45 681.35 903.85 706.9 920.05 731.1 937.7 735.75 941.1 737.3 946.65
L 743.9 943.45 746.1 864.85
M 907.3 867.45
L 905.2 864.55
Q 893.15 841.55 869.35 833.95 865.5 832.8 862 834.6 854.4 857.85 867.15 881.45
L 907.3 867.45
M 1001.95 796.75
L 1045.4 842.7 1060.85 793.9 1001.95 796.75
M 570 1336.75
L 572.7 1343.9
Q 600.6 1305.55 638.95 1274.2
L 549.8 1255.55 570 1336.75
M 493.25 1273.8
Q 504.7 1261.3 517.25 1249.95
L 433.25 1230.8 444.95 1270.35 456.2 1319.85
Q 473 1295.7 493.25 1273.8
M 309.85 1204.35
L 319.95 1235.6 338.55 1289.3
Q 352.25 1257.15 378.7 1233.35 385 1227.65 391.3 1221.85
L 309.85 1204.35
M 284.1 1206
Q 287.95 1203.3 292.3 1201.45
L 191.2 1178.85 198.6 1214.8 207.3 1269.45
Q 243 1234.5 284.1 1206
M 233.15 1047.95
Q 228.7 1052.1 225.8 1057.6 217.75 1073 209.65 1088.25 200.2 1106 193.4 1124.8
L 246.15 1112.85 275.45 1107.35 233.15 1047.95
M 592.85 1034.9
Q 585.3 1044.25 576.6 1052.3
L 653.95 1043.5
Q 654.8 1043.7 655.35 1043.35 656.3 1042.75 656.95 1041.6
L 662.8 1031.55 633.95 976.5
Q 615.3 1006.9 592.85 1034.9
M 453.95 1153.7
L 455.95 1156.65
Q 478.7 1172.65 503.05 1158.85 505.9 1157.25 505.15 1154.15 502.4 1142.5 489.5 1140.35 484.05 1139.45 478.75 1138.3 465.5 1135.55 456.3 1146.65 454.8 1148.45 455.95 1150.5
L 453.95 1153.7
M 370.8 1132.15
L 367.6 1132.5
Q 360.65 1139.15 350.35 1140.9 342.2 1142.45 338.5 1149.25 344.95 1158.6 357.95 1160.7 368 1162.5 377.95 1161.45 394.9 1160.1 401.1 1145.5 401.55 1144.45 401 1143.55 388.85 1132.25 370.8 1132.15
M 404.6 1086.85
L 376.15 1024.7 309.3 1101.55 404.6 1086.85
M 435.6 1082.15
L 436.6 1082
Q 437 1081.9 437.4 1081.85
L 550.3 1059.5 517 989
Q 488 1021.95 459.3 1055.15 453.95 1061.3 447.95 1066.7 440.15 1073.6 435.6 1082.15
M 976.95 770.5
L 977.9 762.5 982.5 690.35 913.65 704.65 976.95 770.5
M 829.35 754.3
Q 834.7 765.35 846.25 764.7 855 757.4 849.75 744.3 843.25 728.15 827.3 729.55 823.2 741.75 829.35 754.3
M 844.5 633.75
L 890.8 681.15 903.3 615.45 844.5 633.75
M 765.6 660.1
L 737.15 666.3 695.1 679.45 755.35 734.3 765.6 660.1
M 1740.35 1569.9
L 1741 1567.5 1764.05 1514.8 1698.45 1523.1 1740.35 1569.9
M 1673.35 1465.75
L 1699.25 1399.45 1604.9 1421.15 1665.6 1487.85 1673.35 1465.75
M 1539.75 1565.15
L 1541.95 1572.35 1563.55 1660.85 1657.35 1608.95 1539.75 1565.15
M 1496.05 1431.7
Q 1488.5 1427.05 1480.35 1428.85 1472.6 1441.35 1485.35 1452.75 1493.1 1459.65 1501.05 1466.45 1517.35 1480.4 1536.25 1477.35 1538.7 1456 1519.75 1442.25 1513.4 1437.6 1509.3 1438.7 1508.95 1438.85 1508.7 1439.4 1505.75 1442.15 1502.1 1437.25 1499.6 1433.9 1496.05 1431.7
M 1384.25 1497.45
Q 1391.25 1528.85 1390.1 1560.9 1389.35 1581.1 1392.8 1600.85
L 1493.2 1547.8 1384.25 1497.45
M 1337 1356.8
Q 1347.8 1371.95 1362.9 1382.3 1387.7 1399.35 1414 1388.1 1415.2 1387.7 1416.15 1386.7 1421.55 1371.7 1408.35 1359.65 1378.25 1332.15 1337.9 1336.15 1333.85 1336.75 1333.2 1340.7 1331.7 1349.4 1337 1356.8
M 1485.45 1295.5
L 1500.55 1247.3 1449.25 1247.8 1457.25 1259.95 1485.45 1295.5
M 1511.2 1319.6
L 1519.75 1330.05 1568.05 1380.8 1601.45 1311.3 1511.2 1319.6
M 1565.6 1092
L 1606.95 1099.7 1567.1 1039.75 1528.35 1082.9 1565.6 1092
M 1520.3 1108.95
Q 1516.1 1104.7 1513.85 1099.05
L 1474.55 1138.95 1472.3 1142.95 1483.55 1169.75
Q 1530.95 1181.5 1579.25 1171.25 1550.4 1139.35 1520.3 1108.95
M 1381.65 1116.15
Q 1384.5 1114.9 1387.55 1114.15 1388.9 1113.85 1390.25 1113.55
L 1377.75 1075.55
Q 1358.45 1037.2 1331.8 1003.5 1310.65 976.65 1287 952.1 1277.7 950.15 1272.7 942.05 1269.85 937.35 1265.05 934.15 1200.45 890.05 1123.55 875.05 1087.55 868.05 1050.8 866.9 1048.75 868.6 1046.15 869.3 1043.65 870.05 1041.15 870.05 1036.55 869.8 1032.45 867.5 1031.8 867.1 1031.2 866.75 902.2 870.55 790.25 934.5 776.8 942.25 763.55 950.45 762.7 954.95 760.9 959.05 759.9 961.4 758.15 963.35 754.9 966.8 750.5 965.6 748.2 964.95 746.95 962.9 736.55 967.7 726 977.05 690.6 1008.45 670.15 1051.15 667.8 1056 665.25 1060.75 676.7 1070.5 693.65 1076.55 738.95 1092.8 785.95 1104.2 851.85 1120.1 918.05 1134.55 973.4 1146.75 1029.5 1154.2 1085.15 1161.7 1141.25 1162.35 1243.85 1163.5 1341.25 1131.5 1361.85 1124.8 1381.65 1116.15
M 1455.5 1036.2
Q 1461 1023.5 1445.85 1023.9 1429.95 1024.3 1420.9 1037.55 1412.45 1049.85 1424.85 1053.65 1428.55 1054.85 1432.4 1054.25 1448.45 1051.55 1455.5 1036.2
M 1397.6 949.9
L 1426.55 940.75 1475.05 923.2 1384.65 881.65 1397.6 949.9
M 1319.05 954.4
L 1335.95 974.25 1371.4 958.65 1292.9 920.1 1294.75 929.85 1319.05 954.4
M 1516.45 968.3
Q 1511.7 971.75 1511.9 977.45 1512 980.15 1513.9 981.9 1520.45 983.95 1527.4 982.2 1533.9 980.55 1538.8 976 1550.25 968.3 1555.35 956 1555.55 955.55 1555.55 955.05 1542.8 953 1530.2 959.6 1522.9 963.55 1516.45 968.3
M 1495.5 894.1
Q 1496.25 899.1 1496.05 904.3
L 1504.35 910.65 1578.95 880.6 1479.75 844.3
Q 1491.5 868 1495.5 894.1
M 1595.05 809.2
L 1609.05 868.5 1653 854.3 1595.05 809.2
M 1630.3 977.5
Q 1628.65 975.1 1627.75 972.2
L 1589.35 1016.55
Q 1618.15 1025.8 1649.1 1026 1662.45 1026.1 1675.8 1025.55 1649.15 1004.85 1630.3 977.5
M 1690.65 902.75
L 1680.8 912.1 1642.4 955.9 1733.55 959.05 1690.65 902.75 Z"/>

<path fill="#41344A" stroke="none" d="
M 1126.45 1357.8
L 1066.1 1319.85
Q 1084.75 1352.55 1101.45 1386.55 1106.75 1397.3 1104.65 1408.65 1103.5 1415.05 1097.5 1417.6 1068.5 1429.85 1036.5 1426.85 1029.15 1426.25 1021.85 1426
L 1027.25 1434.2 1125.45 1430.9 1126.45 1357.8
M 874.35 1322.65
Q 879 1325.95 885.05 1332.55 896.85 1345.5 897.6 1363.2 899.15 1399.35 869.8 1419.2 864.45 1422.8 857.9 1422
L 841.2 1483.45
Q 842.55 1487.15 849.15 1489.45 860.8 1493.35 863.35 1505.5 867.45 1524.95 860.2 1543.4 854.3 1558.4 844.9 1571.3 833.7 1586.5 816.25 1582.4 815.15 1582.15 814.05 1582.15
L 780.05 1716.9
Q 791.05 1703.9 803.15 1686.3 829.95 1647.35 857.2 1608.7 957.15 1467 1038.65 1314.25
L 1034.05 1314.35
Q 993.75 1315.4 953.7 1310.35 919.7 1306.2 886.4 1298.25
L 874.35 1322.65
M 874.1 1305.15
Q 875.55 1301.35 877.25 1297.55
L 824.25 1282.3 729 1256.7
Q 730.1 1261.2 731.2 1265.7 741 1306.1 746.25 1347.6 751.2 1387.1 754.65 1426.75 755.75 1439.05 756.8 1451.4
L 777.1 1683.3 806.4 1575.8
Q 806.65 1575.2 806.45 1574.85 798.6 1561.7 800.5 1546.3 802.9 1526.8 809.9 1508.7 812.15 1502.8 815.85 1497.75 816.75 1496.55 817.65 1495.4 823.7 1487.6 833.05 1485.15
L 849.05 1420.55
Q 849.2 1420 849.1 1419.95 834.9 1411.45 835.25 1394.6 835.65 1375.4 838.35 1356.2 838.85 1352.8 839.5 1349.45 839.95 1347.25 840.55 1345.15 846.75 1321.9 869.95 1322.2 869.7 1321.7 869.5 1321.2 868.2 1318.1 869.45 1315.1 869.7 1314.55 869.95 1314.05 870.45 1313 871 1312 871.45 1311.1 871.9 1310.2 873.1 1307.85 874.1 1305.15
M 607.9 1344.3
L 620.05 1351.7 692.85 1286.7 661.15 1278.85 653.9 1291.45 607.9 1344.3
M 355.45 1125.7
Q 362.75 1124.4 370.2 1123.25 398.9 1119.55 411.35 1143.25
L 445.5 1147.05
Q 464.75 1120.6 496.5 1132.7 508.2 1137.15 514.3 1147.85
L 540.65 1150.95 541.65 1146.4
Q 556.05 1116.4 588.8 1104.65 608.45 1097.5 629.25 1094.75
L 646.15 1062.1
Q 595.75 1071 546.3 1083.8 529.15 1088.25 512.05 1092.1 460.75 1103.55 408.7 1110.85 338.4 1120.7 268.85 1134.2 253.2 1137.1 237.7 1140.95 262.7 1140.8 287.7 1141.05 294.75 1141.15 301.75 1142.45 314.2 1144.6 327.05 1145.6 335.4 1129.3 355.45 1125.7
M 377.05 1172.05
Q 349.85 1174.8 330.15 1157 307.25 1153.6 282.7 1151.45 270.65 1150.45 258.45 1150.55 238.4 1150.75 218.65 1149.85 211.65 1149.05 204.6 1149.9 458.4 1208.45 714.1 1257.45
L 713.8 1252.6 641.35 1232.4
Q 599.4 1222.6 564.7 1197.5 546.05 1184.05 540.7 1161.85
L 514.75 1157.3
Q 509.15 1171.85 493.25 1174.45 469.85 1178 451.25 1164.6 445.45 1160.35 444.3 1153.25
L 410.55 1151.45
Q 398.95 1169.75 377.05 1172.05
M 811.6 739
Q 809.95 728.85 815.55 720.6 817.9 717.2 821.7 715.85
L 798.8 631.65
Q 774.7 777.25 767.65 924.9 767.6 925.95 767.45 927.05
L 805.55 908.75 858.7 884.85
Q 851.65 869 849.35 851.8 847.6 838.65 855.5 828.75 857.75 825.9 860.95 824.65
L 844.45 775.7
Q 840.65 775.65 837.05 774.15 828.65 770.8 823.85 762.95 818.35 754 815.75 747.2 814.65 747.7 814.25 746.95 812.25 743.15 811.6 739
M 852.6 724.95
Q 854.2 726.55 855.6 728.4 857 730.15 858.15 732.1 859.3 734.1 860.15 736.2 864.5 747.15 863.05 759.05 861.85 769.3 853 774.1
L 871.7 822.8
Q 875.2 825 880 826.95 883.45 828.3 886.55 830.45 887.6 831.25 888.65 832.1 889.8 833 890.95 833.95 892.05 834.9 893.15 835.9 894.25 836.95 895.35 838 896.4 839.05 897.5 840.15 898.6 841.35 899.7 842.55 900.75 843.75 901.8 845.05 909.55 854.45 916.05 864.85
L 928.55 861.45 1012.6 848 810.35 637.55 836.45 715.05
Q 843 717.6 848.95 721.85 850.85 723.25 852.6 724.95
M 1533 1383.15
Q 1504.95 1352.65 1478.3 1321.25 1447.75 1285.3 1422.75 1245.25 1369.7 1270.4 1312.4 1283.8 1303.45 1285.8 1294.55 1287.8
L 1341.6 1325.95
Q 1351.35 1326.3 1361.05 1326.85 1367.9 1327.35 1374.55 1328.75 1393.85 1332.6 1408.9 1345.45 1411.15 1347.4 1413.2 1349.5 1422.9 1359.3 1428.8 1371.65 1429.8 1373.7 1430.15 1376.05 1430.6 1378.85 1430.25 1381.8 1429.95 1384.2 1429.25 1386.45
L 1471.65 1421.25
Q 1485.45 1412.9 1501.1 1418.75 1523.85 1427.2 1539.4 1445.8 1554.75 1464.25 1544.35 1484.3 1542.1 1488.6 1537.4 1489.35 1515.8 1491.95 1497.9 1477.7 1492.75 1473.65 1487.75 1469.5 1482.35 1465 1477.6 1460 1473.4 1455.6 1470.25 1450.45 1467.65 1446.15 1466.45 1441.25 1465.35 1437 1465.9 1432.6 1466.1 1430.95 1466.4 1429.3
L 1426.8 1393.15
Q 1419 1400.4 1408.05 1402.6 1394.3 1405.4 1380.75 1401.8 1360.4 1396.35 1345.45 1380.95 1344.45 1380 1343.45 1379.15 1325.15 1363.1 1324.35 1340 1324.25 1336.85 1326.05 1334.1 1328.55 1330.2 1332.5 1328.1
L 1287.45 1290.75 1271.25 1292.4
Q 1230.05 1299.8 1188.65 1303.85 1145.55 1308.2 1102.1 1311.1 1095.4 1311.55 1088.65 1311.95
L 1133.85 1339.3
Q 1136.3 1337.95 1138.95 1337.95 1141.45 1337.95 1143.3 1339.25 1144.6 1340.1 1145.75 1341.15 1146.3 1341.65 1146.8 1342.25 1147.9 1343.8 1148.15 1345.6 1148.25 1346.15 1148.4 1346.75
L 1256.35 1407.9
Q 1260.35 1407.25 1264.2 1408.35 1265.4 1408.6 1266.5 1409.15 1267.6 1409.7 1268.6 1410.45 1270.15 1411.6 1271.4 1413.3 1272.15 1414.4 1272.75 1415.65 1273 1416.1 1273.2 1416.7 1392.25 1478.5 1516.4 1528.55 1616.95 1569.15 1720.3 1601.8
L 1729.65 1599.3 1533 1383.15
M 1474 1223.3
L 1474.25 1207.9 1463.75 1218.8 1457.4 1224.35 1474 1223.3
M 1452.15 1187.1
Q 1458.35 1171.95 1449.05 1157.9 1438.95 1142.8 1421.7 1136.55 1429.85 1164.7 1424.1 1192.5 1423.7 1194.3 1422.65 1195.8 1421.35 1197.7 1419.25 1198.9 1417.35 1200 1414.95 1200
L 1408.25 1197.55
Q 1364.25 1209 1318.4 1219.9 1273.65 1230.8 1228.2 1238.2 1193.95 1243.95 1159.45 1247.9 1125 1252.05 1090.4 1254.2 1064.25 1255.9 1038 1256.75 1023.15 1257.2 1008.3 1257.2 978.45 1257.25 948.7 1253.95 906.3 1249.45 864.85 1239.85 817.75 1228.85 770.85 1217.05 734.2 1207.9 697.55 1198.4 655.2 1187.6 619.8 1162.8 609.15 1155.3 613.4 1144.15 616.9 1135.05 620.1 1125.4 622.15 1119.3 624.25 1113.2 589.15 1120.1 563.35 1144 558.7 1148.3 558.05 1154.65 557.7 1158.1 558.4 1161.4 559.35 1165.6 561.5 1169.45 565.95 1177.3 572.75 1182.95 594.5 1200.9 621.75 1208.35 748.2 1243.25 875.6 1276.95 927.65 1290.65 981.25 1292.15 1054.4 1294.15 1127.25 1287.6 1190.75 1282.2 1253.55 1271.85 1347.95 1256.45 1431.25 1210.35 1445.95 1202.25 1452.15 1187.1
M 1396.85 1168.1
Q 1398 1167.8 1399.15 1167.55
L 1396.4 1134.75
Q 1272.45 1183.75 1138.95 1181.6 1053.55 1180.25 969.5 1164.85 964.35 1163.9 959.25 1163 843.9 1140.65 732 1105.35 698.05 1094.65 667.3 1077.25 663.85 1075.35 660.55 1073.3
L 645.9 1100 632.95 1140
Q 676 1165.05 724.55 1176.95 803.55 1196.45 882.8 1214.7 883.85 1214.95 884.95 1215.2 958.95 1232.25 1035 1229.25 1068.95 1228.15 1102.65 1225 1146.3 1220.9 1190.05 1214.95 1231.65 1209.45 1272.8 1201.25 1316.15 1192.85 1358.3 1179.95 1377.75 1174 1396.85 1168.1
M 1504 984.45
Q 1499.05 964.4 1517.7 951.85 1529.7 943.75 1543.55 940.9 1550.1 939.6 1556.4 942 1557.25 942.25 1558.1 942.55
L 1616.2 897 1349.85 991.45 1367.15 1014.15 1400.85 1070.8 1411.4 1061.15
Q 1399.3 1045.55 1410.35 1030.3 1419.1 1018.25 1431.85 1010.4 1441.8 1004.2 1451.7 1010.35 1455.4 1012.65 1459.25 1014.65 1461.75 1015.9 1463.8 1017.8
L 1504 984.45
M 1645.4 909.65
Q 1656.05 896.5 1666.6 883.3 1642.95 888.9 1623.2 903.45 1618 907.3 1612.75 911 1606.3 915.5 1600.35 920.4 1595.3 924.5 1590.1 928.25 1577.8 937.1 1565.85 946 1565.4 946.35 1564.95 946.7 1566.65 967.55 1547.1 982.1 1540.05 987.4 1532.1 990.6 1529.2 991.8 1526.15 992.25 1523.35 992.5 1520.45 992.4 1517.15 992.25 1513.85 992 1513.2 991.85 1512.6 991.75
L 1468.15 1025.5
Q 1468.6 1050.65 1445.1 1062.9 1437.5 1066.95 1428.75 1067.15 1423.1 1067.3 1417.75 1065.75
L 1417.7 1066.2 1405.05 1080.5 1416.1 1107.65
Q 1435.45 1107.8 1450.65 1121 1452.25 1122.35 1453.95 1123.65 1464.4 1100.45 1484.75 1085.45 1492.4 1079.9 1499.1 1073.1 1576.3 994.85 1645.4 909.65 Z"/>
</g>

<g id="Layer1_0_FILL">
<path fill="#000000" stroke="none" d="
M 1543.1 1482.25
Q 1541.65 1481.05 1540.9 1480.6 1539.6 1479.8 1538.4 1479.7 1536.95 1479.6 1535.8 1480.55 1534.8427734375 1481.4240234375 1534.9 1482.45 1534.8998046875 1482.6822265625 1534.95 1482.9 1535.15 1483.8 1536.5 1484.95 1559.95 1506.05 1579.45 1521.2 1588.05 1528 1599.6 1536.3 1609.65 1543.5 1616.4 1547.3 1622.3 1550.65 1634.6 1556.6 1644.65 1561.75 1658 1570.05 1665.7 1574.8 1680.9 1584.45 1709 1601.95 1728.85 1608.4 1728.3 1603.75 1724 1599.75 1723.1826171875 1598.9607421875 1722.1 1598.1 1719.4509765625 1596.0197265625 1715.25 1593.65
L 1677.9 1572.35
Q 1669.7 1567.65 1664.85 1565.6 1662.7 1564.75 1658.1 1563.15 1653.6 1561.65 1651.3 1560.7 1645.75 1558.45 1639.45 1554.5 1635.6 1552.05 1628.4 1546.9 1599.75 1526.4 1585.05 1515.45 1561.25 1497.7 1543.1 1482.25 Z"/>

<path fill="#000000" fill-opacity="0.2" stroke="none" d="
M 1324.4 1323.1
Q 1320.85 1318.4 1313.15 1310.45 1307 1304.1 1303.55 1301.15 1297.9 1296.3 1292.55 1293.75 1285.45 1290.4 1275.65 1289.65 1269.25 1289.1 1257.95 1289.7 1198.25 1292.7 1139.1 1300.95 1130.65 1302.1 1125.75 1303.95 1125.5802734375 1304.0150390625 1125.4 1304.05 1125.38125 1304.0658203125 1125.35 1304.05 1103.25 1292.95 1094.75 1302.45 1091.35 1306.2 1091.45 1312 1091.488671875 1314.083984375 1091.95 1316.05 1090.6908203125 1314.84453125 1089.45 1313.9 1084.5 1310.2 1078.1 1309.2 1071.7 1308.25 1065.85 1310.35 1060 1312.5 1055.7 1317.3 1051.35 1322.1 1049.9 1328.15 1046.1 1343.95 1061.9 1363.45 1070.5 1374.15 1080.05 1381.3 1085.7 1385.55 1087.15 1386.9 1090.85 1390.4 1091.95 1394.15 1092.5 1396.05 1092.55 1399.1 1092.6 1403.5 1092.65 1404.15 1092.9 1407 1092.9 1407.65 1092.8 1409.65 1091.9 1410.8 1090.65 1412.35 1086.95 1412.85 1080.1 1413.8 1062.45 1414 1046.85 1414.15 1038.1 1416.1 1031.1 1417.65 1027.15 1420.45 1024.65 1422.2 1023 1424.6 1021.2 1427.2 1020.8 1430 1020.2 1434.25 1022.7 1438.45 1025 1442.35 1029.05 1444.7 1032.55 1446.7 1037.35 1447.75 1040.8 1448.5 1046.25 1448.95 1056.75 1449.8 1077.8 1450.1 1092.85 1450.4 1100.95 1449.55 1107.2 1448.85 1111.75 1447.4 1117.4 1445.5 1121.2 1442.2 1128.95 1435.45 1130.85 1421.5 1131.45 1417.25 1131.65 1409.85 1131.85 1401.4 1132.15 1398.2 1133.35 1389.45 1133.4 1385.05 1133.55 1370.2 1123.2 1355 1119.85 1350.05 1112.85 1342 1106.8435546875 1335.0634765625 1103.75 1331.1 1106.4822265625 1333.0505859375 1110.6 1335.5 1130.6 1347.25 1163.3 1362.7 1209.2 1384.5 1216.85 1388.35 1235.3 1397.7 1257.8 1410.6 1271.25 1418.3 1297.95 1434.2
L 1370.15 1477.15
Q 1391.25 1489.7 1402.2 1495.8 1420.2 1505.8 1435.25 1512.5 1447.6 1518 1478.75 1529.5 1506.7 1539.8 1521.9 1547.2 1525.6 1549 1539.25 1556.05 1550 1561.65 1556.8 1564.65 1577.25 1573.65 1593.6 1573.75 1600.4 1573.85 1605.65 1571.65 1609.34765625 1570.08671875 1611.55 1567.6 1636.4931640625 1584.278125 1677.25 1608.15 1690.4 1615.85 1697.55 1619.65 1708.95 1625.75 1718.6 1629.6 1725.5 1632.35 1730.6 1633.25 1737.35 1634.45 1742.8 1632.95 1749.05 1631.25 1752.85 1625.75 1756.85 1620.05 1754.95 1614.35 1753.95 1611.25 1751.25 1608.65 1748.8 1606.4 1745.4 1604.9 1742.75 1603.75 1738.85 1602.75 1734.35 1601.75 1732.1 1601.2 1727.3712890625 1600.03671875 1722.1 1598.1 1723.1826171875 1598.9607421875 1724 1599.75 1728.3 1603.75 1728.85 1608.4 1709 1601.95 1680.9 1584.45 1665.7 1574.8 1658 1570.05 1644.65 1561.75 1634.6 1556.6 1622.3 1550.65 1616.4 1547.3 1609.65 1543.5 1599.6 1536.3 1588.05 1528 1579.45 1521.2 1559.95 1506.05 1536.5 1484.95 1535.15 1483.8 1534.95 1482.9 1534.8998046875 1482.6822265625 1534.9 1482.45 1533.367578125 1482.68515625 1532.1 1483.5 1529.7 1485 1528.85 1488.1 1528.3912109375 1489.7634765625 1528.45 1491.45 1519.4556640625 1484.3900390625 1511.3 1480.05 1501.6 1475.45 1496.95 1472.9 1488.75 1468.5 1484.55 1463.35 1479.9 1457.65 1476.55 1445.7 1472.5 1431.4 1470.2 1427 1466.15 1419.2 1457.85 1412.1 1452.65 1407.65 1441.8 1400.5 1434.9 1396 1430.8 1394.2 1424.4 1391.4 1418.85 1391.75 1415.05 1392 1409.25 1394.15 1402 1396.9 1399.8 1397.4 1392.25 1399.2 1382.75 1397.1 1376.75 1395.8 1366 1391.7 1355.6 1387.7 1350.25 1384.45 1342 1379.45 1338.35 1372.7 1335.15 1366.8 1334.3 1355.6 1333.3 1342.05 1332.05 1337.75 1330 1330.55 1324.4 1323.1
M 1492.35 1213.15
Q 1490.8 1207.3 1486.45 1203.1 1480.45 1197.45 1471.2 1197.35 1462.35 1197.25 1455.1 1202.15 1449 1206.3 1445.95 1212.8 1442.65 1219.7 1444.5 1226.25 1445.55 1229.95 1448.25 1233.15 1450.75 1236.15 1454.3 1238.35 1460.6 1242.2 1468.2 1242.3 1475.9 1242.35 1482.05 1238.45 1488.25 1234.5 1491.2 1227.4 1494.2 1220.15 1492.35 1213.15
M 394.35 1156.65
Q 375.45 1161.8 365.6 1162.15 355.25 1162.45 342.2 1159.25 336.75 1157.95 319.1 1152.45 304.85 1148 296.15 1146.55 283.5 1144.5 273.05 1146.55 271.85 1146.8 263.6 1148.9 257.9 1150.35 254.1 1150.55 249 1150.8 236.65 1148.2 225.55 1145.85 219.3 1147.05 216.85 1147.5 215.1 1148.7 213.05 1150.1 212.75 1152.1 212.25 1155.6 217.4 1159.3 229.3 1167.5 245.55 1172.4 258.55 1176.35 276.35 1178.65 282.65 1179.5 295.25 1181 306.15 1182.5 313.9 1184.6 325.3 1187.65 347.9 1196.15 367.95 1202.4 382.05 1199.15 384.7 1206.1 391.35 1211.3 397.35 1215.95 405.35 1218.25 411.9 1220.1 420.75 1220.7 423.15 1220.85 436.4 1221.15 468.15 1221.85 505.35 1228.15 533.1 1232.85 573.45 1242.55 596.1 1247.95 641.4 1258.95 650.398828125 1261.0328125 658.85 1262.85 658.4142578125 1263.121484375 657.95 1263.4 651.85 1267.05 645.5 1273.25 641.6 1277.1 634.6 1285.05
L 609.85 1313.25
Q 603.95 1320 601.35 1324.05 597.25 1330.5 596.55 1336.5 595.9 1341.85 597.9 1347.1 599.9 1352.35 603.9 1355.95 607.95 1359.55 613.4 1360.95 618.8 1362.35 624.05 1361.15 629.1 1359.95 636.1 1355.45 648.15 1347.8 658.85 1337.85 662.05 1334.85 671.9 1324.75 679.95 1316.5 685.3 1311.95 691.05 1307.3 693.75 1304.8 698.45 1300.55 700.85 1296.5 703.7 1291.75 704.3 1286.05 704.9 1280.4 703.15 1275.15 702.401953125 1272.9060546875 701.25 1270.85 705.65546875 1271.5568359375 709.85 1272.15 717.3 1273.2 722.65 1271.9 729.55 1270.25 731.2 1264.9 732.75 1259.95 728.75 1254.75 725.6 1250.7 719.65 1247.1 688.3 1228.15 647.15 1213.9 615.5 1202.95 569.95 1192.35 564.05 1190.95 561.05 1189.75 556.3 1187.85 553.55 1184.8 551.35 1182.25 549.35 1177.2 546.75 1170.65 545.9 1169.05 542.7 1163.35 536.45 1159.55 530.8 1156.05 523.65 1154.7 517.95 1153.65 512.95 1154.3 507.25 1155 503.15 1157.9 498.65 1161.05 497.1 1166.55 495.5 1172.2 498.25 1176.6 489.7 1177.75 479.2 1172.05 467.35 1164.45 461.5 1161 452.7 1155.8 442.95 1153.25 433 1150.6 423.05 1151.05 413.35 1151.45 394.35 1156.65
M 792.05 638.4
Q 791.8 641 791.15 642.65 790.55 644.15 789.05 646.05 787.35 648.15 786.55 649.25 784.05 652.8 782.8 658.1 782.05 661.5 781.45 667.85
L 778.95 693.55
Q 769.2 794.5 768.9 797.55 765.6 832.45 764.1 851.2 761.75 880.95 760.95 905 760.65 912.3 761.5 916.7 762.75 923.05 766.55 926.6 769.3 929.2 773.5 930.25 777.15 931.2 781.55 930.9 784.7 930.65 789.5 929.65 796.25 928.2 797.35 928 799.95 927.55 805.2 926.75 809.7 925.9 812.7 924.4 815.9 922.85 819.85 919.2 826.35 913.25 826.45 913.15 830.2 910.05 837.3 906.15 845.85 901.5 848.55 899.65 854.5 895.65 858 890.6 862 884.7 861.7 878.65 861.45 874.5 858.05 867.15 854.55 859.55 854.2 855.6 853.65 849.7 858.4 839.35 863.35 828.45 863.35 823.05 863.35 818.7 861.05 812.65 858.2 806 857.15 802.55 856.15 799.35 855.05 793.55 853.75 786.65 853.15 784.45 850.55 774 844.5 769.8 842.05 768.1 836.75 766.3 831.2 764.4 828.9 763 824.9 760.5 822.4 756.05 820 751.8 819.55 746.8 818.7 737.9 823.8 728.15 826.2 723.95 827.25 721.8 828.95 718.05 829 715 829.05 712.05 827.5 708.4 825.45 704.25 824.45 702.15 822.2 697.6 820.3 691.5 819.25 687.95 817.35 680.4
L 806.5 636.9
Q 805.35 632.4 803.05 629.55 800.2 626.05 796.85 627.1 794.95 627.7 793.7 629.8 792.65 631.65 792.35 634.05 792.2 635.5 792.05 638.4
M 1374.9 1131.7
Q 1366.75 1132.45 1356.25 1136.6 1344.3 1141.9 1338.3 1144.35 1307.95 1156.75 1262.35 1159.05 1248.6 1159.75 1222.95 1159.85 1195.6 1160 1183.55 1160.5 1165.25 1161.25 1125 1165.1 1087 1168.75 1066.4 1169.3 1038.15 1170.05 1005.4 1167.3 979.05 1165.1 944.65 1160.05 923.1 1156.9 908.4 1154.05 888.75 1150.25 872.7 1145.5 863.8599609375 1142.584375 856.65 1140.2 856.5236328125 1136.873828125 855.2 1133.65 852.85 1127.8 847.1 1123.4 841.95 1119.5 835.05 1117.45 829.8 1115.9 821.95 1114.95 813.1 1114.05 808.65 1113.45 791.95 1111.25 764.3 1101.55 732.8 1090.55 720.2 1087.85 713.75 1086.55 710.55 1085.75 705.05 1084.4 701.25 1082.65 697.4 1080.9 688.65 1074.7 680.9 1069.15 675.75 1067.45 670.2 1065.6 664.5 1066.4 658.5 1067.25 654.35 1070.8 648.7 1075.7 647.8 1084.1 647.4154296875 1087.6962890625 647.95 1091.15 645.096484375 1094.5830078125 642 1099.3 637.45 1106.3 635 1111.15 631.6 1117.85 630.3 1123.95 628.8 1131 630.15 1137.65 631.6 1144.85 636.05 1149.65 639.75 1153.65 646.8 1156.9 650.8 1158.75 659.05 1162.1 664.65 1164.7 675.4 1171.85 685.85 1178.75 691.8 1181.4 708.2 1188.7 736.5 1187.2 741.4015625 1186.9470703125 749.45 1186.4 769.039453125 1198.0921875 795.5 1205.5 812.15 1210.15 839.3 1214.95 874.9 1221.25 883.35 1223.05 895.1 1225.6 918.55 1231.15 939.15 1235.7 954.05 1236.55 973.45 1237.7 990.05 1233.3 995.1662109375 1231.945703125 999.8 1230.1 1016.789453125 1231.1240234375 1034.3 1231.45 1120.65 1233.05 1236.9 1217.3 1277.6 1211.8 1304.95 1206.35 1341.8 1199.05 1371.5 1188.9 1380.15 1185.9 1385.2 1183.45 1392.5 1179.9 1397.35 1175.35 1403.05 1170.1 1405.6 1163.2 1408.35 1155.7 1406.35 1148.95 1403.75 1140.05 1394.1 1135.2 1385.2 1130.7 1374.9 1131.7
M 1643.75 880.85
Q 1641 882.45 1636.65 885.85 1613.6 903.95 1587.15 932 1581.1 938.4 1541.75 982.45 1540.1 984.25 1539.1 985.05 1537.45 986.35 1535.8 986.65 1534.35 986.95 1532.35 986.45 1530.1 985.75 1528.95 985.4 1520 982.7 1509.9 986.8 1501 990.45 1493.5 998.25 1488.75 1003.25 1481.3 1013.85 1473.45 1025 1469.25 1029.65 1462.9 1036.1 1459.7 1039.35 1454 1045.15 1451.15 1049.75 1447.35 1056.9 1445.2 1060.25 1441.45 1066.05 1436.85 1067.85 1433.35 1069.25 1426.3 1068.7 1418.8 1068.15 1415.55 1069.1 1411.4 1070.35 1408.3 1074.05 1405.35 1077.5 1404.15 1082.05 1402.3 1089.05 1404.4 1099.9 1405.4 1105.05 1406.7 1108.45 1408.45 1112.95 1411.2 1115.85 1414.6 1119.45 1420.3 1121.5 1424.45 1123 1431.05 1124 1438.3 1125.2 1443.2 1125.25 1449.9 1125.35 1455.2 1123.6 1461.05 1121.65 1467.05 1116.75 1470.75 1113.7 1477.1 1107.1
L 1618.75 959.45
Q 1629.45 948.3 1634.65 943.25 1643.7 934.4 1651.45 928 1654.2 925.75 1659.75 921.25 1664.4 917.25 1667.3 913.75 1670.95 909.35 1672.75 904.5 1674.8 899.1 1674.15 894.1 1673.2 886.35 1666.3 881.3 1659.35 876.25 1651.7 877.7 1647.85 878.4 1643.75 880.85
M 877.75 1321.15
Q 877.3 1327 879.1 1333.4 880.4 1338.05 883.45 1344.8 888.15 1355.15 888.5 1355.95 895.85 1373.65 893.05 1388.5 891.45 1397 886.45 1403.8 881.2 1410.95 873.7 1414 872.05 1414.7 864.65 1416.7 859.05 1418.25 856 1420.25 850.6 1423.85 847.8 1431.55 845.9 1436.7 844.65 1446.05 842.7 1460.4 842.7 1468 842.65 1480.25 846.35 1489.25 847.4 1491.8 852 1500.25 855.65 1507 856.75 1511.55 858.2 1517.7 857.1 1525.45 856.35 1530.4 853.8 1539.25 851 1549.05 849 1554 845.85 1562 841.65 1567.45 836.45 1574.1 830.65 1575.2 829.7 1575.4 826.4 1575.6 823.8 1575.8 822.3 1576.35 819.4 1577.4 817.2 1580.5 815.65 1582.7 814.05 1586.65 804.9 1608.7 796.9 1637.5 792.05 1654.95 784 1689.65 782.65 1695.45 782.3 1698.75 781.8 1703.85 782.85 1707.8 784.1 1712.45 787.85 1715.45 791.8 1718.65 796.15 1717.9 800.15 1717.2 803.25 1713.2 805.55 1710.3 807.65 1705.15 812.85 1692.7 817.55 1676.9 820.1 1668.4 821.4 1665.15 824 1658.65 827.5 1654.55 829.45 1652.25 832.9 1649.35 836.85 1646.2 838.7 1644.55 844.05 1639.8 849.3 1632.6 852.65 1628.05 858.1 1619.2 868.95 1601.65 880.65 1582 888.2 1569.3 891.6 1564.05 898.05 1554.2 904.15 1547.2 905.65 1545.5 913.1 1537.55 918.65 1531.7 921.7 1527.6 926.55 1521.1 931.3 1511.3 936.5 1499.7 939.1 1493.9 952.4 1464.65 982 1421.5 998.1 1398.35 1006 1386.65 1019.65 1366.5 1028.65 1351 1032.4 1344.55 1033.95 1340.3 1035.01015625 1337.355078125 1035.4 1334.6 1037.7109375 1333.0994140625 1039.25 1330.85 1041.25 1327.95 1041.55 1324.35 1041.8 1320.65 1040.1 1317.65 1038.4 1314.7 1035.2 1312.95 1031.85 1311.1 1027.9 1311.2 1025.18515625 1311.2677734375 1022.8 1312.2 1019.732421875 1310.4978515625 1016.15 1309.45 1010.15 1307.7 1002 1307.5 999.6 1307.45 987.5 1307.75 956.4 1308.65 925.55 1302.75 916.3 1300.95 913.95 1300.6 907.3 1299.6 902.15 1299.9 895.85 1300.25 890.6 1302.65 884.8 1305.25 881.6 1309.85 878.25 1314.55 877.75 1321.15 Z"/>
</g>

<path id="Layer0_0_1_STROKES" stroke="#FF0000" stroke-opacity="0" stroke-width="1" stroke-linejoin="round" stroke-linecap="round" fill="none" d="
M 679.35 472.9
L 2679.35 472.9 2679.35 2472.9 679.35 2472.9 679.35 472.9 Z"/>
</defs>

<g transform="matrix( 1, 0, 0, 1, 0,0) ">
<use xlink:href="#Layer2_0_FILL"/>
</g>

<g transform="matrix( 1, 0, 0, 1, 0,0) ">
<use xlink:href="#Layer1_0_FILL"/>
</g>

<g transform="matrix( 1, 0, 0, 1, -679.35,-472.9) ">
<use xlink:href="#Layer0_0_1_STROKES"/>
</g>
</svg>
