
<svg xmlns="http://www.w3.org/2000/svg" version="1.1" xmlns:xlink="http://www.w3.org/1999/xlink" preserveAspectRatio="none" x="0px" y="0px" width="2000px" height="2000px" viewBox="0 0 2000 2000">
<defs>
<filter id="Filter_1" x="-20%" y="-20%" width="140%" height="140%" color-interpolation-filters="sRGB">
<feFlood flood-color="#FF0000" flood-opacity="1" in="SourceGraphic" result="result1"/>

<feGaussianBlur in="SourceGraphic" stdDeviation="33.333333333333336,33.333333333333336" result="result2"/>

<feComposite in2="result2" in="result1" operator="in" result="result3"/>

<feComposite in2="result3" in="SourceGraphic" operator="over" result="result4"/>
</filter>

<filter id="Filter_2" x="-20%" y="-20%" width="140%" height="140%" color-interpolation-filters="sRGB">
<feFlood flood-color="#FF0000" flood-opacity="1" in="SourceGraphic" result="result1"/>

<feGaussianBlur in="SourceGraphic" stdDeviation="33.333333333333336,33.333333333333336" result="result2"/>

<feComposite in2="result2" in="result1" operator="in" result="result3"/>

<feComposite in2="result3" in="SourceGraphic" operator="over" result="result4"/>
</filter>

<g id="S_mbolo_9_0_Layer2_0_FILL">
<path fill="#000000" stroke="none" d="
M 787 -203.25
Q 773.05 -226 756.75 -246.95 734.5 -275.55 702.45 -292.25 651.6 -318.9 594 -319.2 551.6 -319.45 510.95 -307.6 478.8 -298.1 449.75 -281.2 448.1 -285 446.45 -288.8 421 -347.9 375.4 -392.95 366.8 -401.45 355.05 -403.65 340.5 -406.2 327.1 -399.55 283.7 -378 244.1 -350.15 255.05 -410.3 255.95 -471.65 256.6 -514.25 243.95 -554.7 220.35 -630.4 154.95 -675.4 123 -697.4 84.9 -704.25 30.95 -714.05 -13.7 -681.65 -55.15 -651.45 -73.2 -603.85 -84.3 -574.55 -77.5 -543.85 -69.35 -507.05 -45.05 -477.9 -26.8 -456.05 -7.55 -434.95 42.3 -380.05 67.5 -310.7 82.2 -270.2 80.8 -227.15 80.6 -221.2 79.05 -215.55 75 -200.6 79.6 -187.75 58.15 -154.05 41.75 -117.65 30.2 -91.9 18.95 -66.15 11 -48 4.95 -29.15 -20.1 -43.7 -48.65 -49.4 -70.05 -53.5 -91.3 -57.25 -119.8 -62.5 -148.6 -67.9 -153 -68.75 -156.65 -70.8 -188.5 -88.9 -216.9 -112.15 -240.75 -131.75 -256 -158.4 -281.35 -202.7 -282.75 -254.15 -284.75 -326.45 -262.85 -395.35 -250.4 -434.4 -243.75 -474.85 -235.35 -526.3 -257 -573.25 -272.95 -607.9 -305.65 -627.6 -342.45 -649.85 -384.3 -639.5 -443.1 -624.7 -483.9 -579.9 -510.75 -550.45 -525 -512.9 -543.1 -465.2 -544.85 -414.25 -547.45 -338.3 -517.95 -268.05 -498.25 -221.1 -467.15 -180.8 -435.4 -139.75 -394.95 -106.95 -426.15 -109.75 -457.5 -111.35 -509.5 -113.9 -561.45 -110 -577.45 -108.85 -592.4 -102.8 -624.65 -89.7 -628.5 -54.4 -633.95 -4.25 -622.25 45.15 -607.9 105.95 -580.4 162.05 -585.6 162.55 -590.75 163.35 -631.55 171.05 -668.4 190.15 -733.15 223.65 -786.4 273.1 -819.9 304.25 -838.3 345.9 -853.95 381.4 -850.25 420.05 -844.25 483.05 -811.65 537.45 -786.8 579 -743.8 600.4 -720.6 612 -694.75 610.95 -687.75 610.2 -686.55 613.1 -687.85 619.7 -687.75 626.45 -687.4 658.2 -668.7 684.2 -654.25 704.35 -635 720.05 -681.2 770.1 -686.95 838.9 -691.3 890.7 -671.2 938.35 -651.8 984.3 -612.85 1015.2 -606.6 1020.2 -599.15 1018.05 -591.6 1016.05 -590.2 1008.25 -588.35 998.15 -588.45 987.9 -589.15 927.05 -568.9 869.55 -556 832.9 -528.55 805.5 -522.7 799.7 -517.85 792.9
L -495.85 799.6
Q -502.1 816.85 -502.5 835.3 -503 858.15 -499.1 880.6 -491.45 924.4 -466.05 960.9 -437 1002.8 -391.35 1024.7 -381.65 1029.35 -374.75 1021.95 -369.55 1016.4 -370.75 1008.75 -373.6 990.65 -378.75 973.1 -393.95 921 -381.85 868.55 -377.75 850.7 -371.1 833.9 -365.6 819.95 -360.65 805.8 -339.85 803.05 -319.8 797.65 -259.65 781.25 -212.65 740.15 -189 719.4 -172.5 692.45 -158.55 669.75 -151.2 644.25 -132.15 651.1 -112.95 657.85 -81.55 668.7 -49.75 677.95 -9.75 689.65 31.2 696.6 68 702.8 105.1 700.05 140.1 696.9 169.65 677.75 213.75 649.15 253.1 614.55 268.2 601.15 282.15 589.75 289.55 592.55 297.4 591.65 335.85 590.55 362.5 617.95 385.7 641.75 381.15 674.85 378 697.9 359.75 712.25 351.75 718.55 347.2 727.45 340.15 741.35 354.05 748.55 364 753.7 375.35 751.45 399.5 746.35 422.5 736.85 459.65 721.6 486.1 691.7 502.05 673.7 509.6 650.6 519.75 619.35 520.35 586.6
L 539.85 581.45
Q 548.5 592.2 555.4 604.2 568.2 626.3 568.85 651.5 569.1 660.5 564.25 668.15 556.85 679.9 549.75 691.95 546.4 697.7 547.35 704.2 549.75 720.45 567.05 718.5 576.7 717.4 585.75 713.7 608.35 704.25 631.1 695.05 651.65 686.7 669.65 673.85 692.55 657.35 708.65 634.05 732.1 600.05 735.75 558.8 738.15 531.75 726.8 506.95 717.75 487.1 703.75 470.3 709.45 463.55 715.05 456.75 740.6 425.9 756.95 389.55 773.3 353.25 777.4 313.7 781.7 272.35 782.75 230.9 783.8 189.55 774.8 149.2 765.8 108.65 744.3 72.8
L 738.45 63.3
Q 744.2 55.55 749.9 47.85 779.25 8.15 801.6 -35.85 821.45 -74.95 816.45 -118.25 811.15 -163.85 787 -203.25
M 722 -228.45
Q 723.5 -226.65 723.95 -224.55 729.55 -196.85 723.75 -169.25 714.8 -126.75 694.35 -88.55 677.15 -56.3 655.65 -26.7
L 630.3 -45.85 586.45 -74.3
Q 595.1 -88.9 602.7 -104.1 615.3 -129.4 617.8 -157.35 621.05 -193.55 599.1 -222.8 582.35 -245.05 554.6 -243.6 533.75 -242.15 517.25 -228.9 496.55 -212.2 476.4 -194.75
L 459 -263.1
Q 462.85 -264.8 466.6 -266.35 502.25 -280.55 539.9 -287.95 580.65 -296 620.85 -285 633.3 -281.75 645.6 -278.1 691.4 -264.45 722 -228.45
M 746.25 -194.75
Q 764.65 -168.55 775.65 -138.6 782.9 -118.95 782.25 -98.2 780.8 -50.85 754.4 -11.15 737.8 13.75 720.65 38.25
L 693.5 7.4 666.3 -17.9
Q 695.55 -52.6 715.15 -93.6 738.2 -141.8 746.25 -194.75
M 651.2 9.15
Q 681.4 36.95 701.9 72.2 722.8 108.1 731.55 148.8 740.4 189.9 740.2 232 740 272.8 734.5 313.2 728.9 354.6 709.45 391.35 690.3 427.5 662.35 457.35 634.25 487.25 600.9 511.3 566.65 535.95 526.35 548.75 515.6 552.2 504.75 552.4 501.9 552.45 499.05 553 488.95 555.55 478.7 556.4 436.75 561 397.05 547.95 356.4 534.55 327.55 502.9 299.75 472.35 277.4 437.45 254 400.85 247.9 357.75 247.45 354 247.05 350.25 244.4 324 248.6 297.65 270.25 324.2 292.25 350.4 317.85 380.85 344.25 410.75 358.3 426.6 375.65 438.1 382.15 442.45 388.25 438 395.2 432.95 396.75 424.25 409.4 353 422.6 281.9 430.55 294.35 440.05 305.8 478.2 351.85 518.35 397 526.7 406.4 537.8 411.85 544.3 422.2 556.35 422.5 570.25 421.35 574.85 407.7 580.3 391.55 580.85 374.3 581.75 345.25 585.2 316.4 588.8 286.5 595 256.9 602.55 220.8 608.8 184.5 614.3 152.4 612.7 119.95 612.7 119.9 612.7 119.85
L 614.9 91.55
Q 615.55 83.5 615.4 79.2 615.2 72.35 613.3 67.2 611.1 61.1 606.2 57.2 600.9 53 595 53.45 590.85 53.75 586.5 56.5 583.55 58.4 579.25 62.35 547.2 91.95 522.35 128 519.4 117.65 515.75 100 511.25 78.55 509.6 71.8 501.6 38.85 487.95 19.9 482.35 12.2 476.15 7.55 468.7 1.95 460.85 1.2 454 0.55 446.15 3.65 440.45 5.85 432.55 10.85 408.8 25.9 388.6 45.85 368.4 65.75 352.95 89.3 345.65 36.2 322.2 -11.65 316.5 -23.2 311.15 -29.9 303.85 -39 294.95 -42.45 285.2 -46.2 272.7 -43.55 263.25 -41.5 250.85 -35.4 225.6 -22.85 197.2 -2 182.5 8.85 156.75 29.95 159.4 24.1 162.25 18.35 181.4 -20.45 212 -51 241.85 -80.8 282.05 -93.95 322.1 -107.05 364.55 -107.5 404.65 -107.9 444.2 -101.5 484.1 -95.1 520.3 -77.3 557.7 -58.95 592.7 -36.3 623.85 -16.05 651.2 9.15
M 675.2 502.8
Q 677.75 506.65 680.6 510.45 690.7 523.85 693.25 540.3 700.05 584.65 669.65 618.5 640.7 650.75 600.6 667.85 598.2 668.95 595.55 669.35 603.4 645.45 594.65 621.7 584.3 593.75 561.9 573.8 566.1 572.1 570.25 570.35 600.35 557.55 627.25 538.85
L 675.2 502.8
M 48.5 -676.3
Q 50.25 -675.05 52.05 -673.75 74.4 -657.9 95.3 -640.2 122 -617.65 141.35 -588.65 164.6 -553.75 181.2 -515 199.55 -472.1 209.7 -426.5 204.75 -416.55 198.45 -407.35 185.85 -388.85 168.75 -374.2 168.6 -375.95 168.4 -377.65 163.95 -411.65 151.55 -443.8 136.35 -483.05 114.7 -519.05 93.1 -554.9 66.35 -587 36.2 -623.25 0.85 -654.45
L 14.2 -663.65 48.5 -676.3
M 95.65 -652.4
Q 80.05 -665.1 64 -677.15 80.6 -676.35 96.2 -670.6 135.85 -656.25 165.1 -625.95 194.4 -595.55 208.7 -555.55 222.85 -515.85 223.9 -473.5
L 215.85 -440.8
Q 212.25 -458.5 206.7 -475.65 187.3 -535.1 153.5 -587.75 129.8 -624.65 95.65 -652.4
M 58.4 -477.05
Q 54.4 -483.4 49.7 -489.1 6 -542.1 -46.05 -586.9 -45.7 -588.2 -45.3 -589.45 -35.85 -618.3 -14.65 -640.25
L -5.1 -648.2
Q 54.65 -596.5 97.5 -530.25 111.65 -508.45 123 -485.1 150.45 -428.55 158.6 -366.4 155.55 -364.65 152.4 -363.1 149.45 -361.7 146.4 -360.65 140.55 -358.65 134.35 -358.25 124.15 -357.75 114.05 -359.8 93.35 -421.75 58.4 -477.05
M 18.25 -513.6
Q 28.6 -501.75 38.15 -489.2 81.85 -431.9 101.85 -362.35 86.6 -365.25 73.6 -373.65 71.4 -375.05 70.1 -377.1 47.4 -412.5 21.4 -446.25 8.75 -462.75 -5.55 -477.65 -34.8 -508.15 -47.8 -547.75
L -47.3 -581.95
Q -12.9 -549.5 18.25 -513.6
M 196.25 -367
Q 208.15 -380.05 217.9 -394.95
L 201.85 -318.1 126.55 -246.75 96.6 -211.45
Q 97.65 -217 98.45 -222.6 104.55 -264.85 94.45 -306.65 89 -329.4 79.8 -351.1
L 107.85 -340.85 112.05 -334.2 119 -338.65
Q 122.45 -338.6 125.95 -338.5 138.15 -337.45 150.2 -340.05 177.2 -346.05 196.25 -367
M 66.4 -111.95
L 71.5 -119.85
Q 87.25 -106.5 102.2 -92.15 124.25 -70.8 140.25 -44.85 149.75 -29.45 158.9 -13.75
L 130.25 43.6
Q 119.9 41.75 109.4 42.3 99.55 42.4 89.75 42.5 80.2 43 70.65 43.55 52.25 44.8 33.95 47.75 -48.45 60.6 -110.75 115.9 -127.65 130.9 -140.3 149.7 -180.05 208.8 -207 275 -239.6 146 -247.55 13 -249.5 -20 -251.95 -52.95 -123.5 -30.8 3.25 0.5 4.5 1.7 6 2.35 17.55 7.95 20.65 -5.45 24.2 -20.9 29.65 -35.8 44.2 -75.7 66.4 -111.95
M 153.25 -56.55
Q 137.35 -80.25 116.2 -99.05 97.4 -115.8 78.05 -131.9 81 -136.85 83.9 -141.65 148.15 -248.55 250.4 -320.6 290.35 -348.85 334.15 -370.6 341.45 -374.15 349.6 -374.2 355.05 -373.7 358.75 -369.65 391.25 -334.25 412.25 -290.15 428.95 -255.2 439.3 -217.8 451.45 -173.95 454 -128.55 436.25 -130.7 418.45 -131.2 375.6 -133 333.05 -128.95 290.55 -124.8 252.1 -106.45 249.2 -104.9 246.4 -103.2 199.35 -75.8 169.35 -30.05 161.95 -43.6 153.25 -56.55
M 251.75 -24.45
Q 262.75 -30.45 270.8 -32.55 281.9 -35.4 290.45 -32.05 297.95 -29.1 303.95 -21.15 308.25 -15.45 312.85 -5.45 335.05 43.35 342.15 96.4 343 102.55 345.35 106.55 348.35 111.6 352.9 111 355.6 110.65 357.9 108 359.4 106.35 361.4 102.75 374.55 78.8 393.35 58.65 412.2 38.5 435.15 23.75 442.3 19.15 447.75 17.25 455.1 14.7 461.25 16.25 467.15 17.75 472.25 22.95 476.2 27.05 480 33.85 490.45 52.7 497.5 83.85 498.2 86.95 503.05 110.1 506.35 126.1 509.15 136.2 513.05 149.95 520.95 150.55 525.15 150.8 529.05 147.15 531.65 144.65 534.9 139.4 559.8 98.35 596.55 67.85 600.6 76.45 601.1 87.65 601.4 94.1 600.45 103.75 596.2 103.05 591.8 106.3 573.65 119.6 559.7 137.2 528 177.25 507.5 224.1 480.8 142.75 449.65 62.8 445.7 52.6 435.6 50.65 431.4 49.8 428.45 52.85 374.4 107.75 328.55 170.15 301.15 91.95 283.85 10.75 282.15 2.85 274.4 1.35 264.6 -0.6 256.2 5.2 195.7 46.8 134.8 87.9 141.1 67.1 149.3 47.05 181.2 22.1 198.05 10 226.85 -10.8 251.75 -24.45
M 527.85 -220.15
Q 541.55 -229.2 557.8 -229.85 577.35 -231.1 588.95 -215.2 610.35 -185.75 603.15 -150.55 595.45 -113.2 574.65 -81.2
L 559.9 -89.55 524.2 -107.85
Q 536.9 -123.5 550.3 -138.35 564.9 -154.55 571.15 -175 571.85 -177.25 569.85 -178.65 559.4 -186.35 546.95 -178.25 533.6 -169.65 523.4 -157.3 508.6 -139.25 498.9 -118.05
L 486.35 -124.15 478.35 -185.2
Q 502.5 -203.5 527.85 -220.15
M -307.3 -583.95
L -298.1 -571.05
Q -305.3 -557.75 -310.6 -543.7 -316.15 -528.95 -321.55 -514.2 -326.9 -499.55 -331.9 -484.85 -340.15 -460.65 -346 -435.7 -365.25 -354.1 -347.2 -272.05 -355.3 -264.3 -363.9 -257.2 -383.25 -241.35 -407.8 -241.8 -408.35 -243.55 -408.85 -245.3 -412.4 -257.35 -414.2 -269.85 -418.6 -300.65 -419.6 -331.85 -420.95 -374.05 -416.2 -416.15 -404.75 -517 -360 -608.2 -357.55 -607.8 -355.1 -607.4 -327.7 -602.5 -307.3 -583.95
M -290.35 -562.3
Q -277.7 -539.05 -275.75 -512.65 -272.65 -471.1 -284.3 -430.9 -296.1 -390.05 -305.45 -348.65 -306.5 -342.15 -307.4 -335.65 -308.35 -328.75 -310.9 -322.55 -320.9 -298.3 -339.5 -279.65 -341.4 -300.1 -342.9 -320.8 -347.25 -379.95 -332.55 -437.25 -316.1 -501.5 -290.35 -562.3
M -399.35 -606.4
L -370.8 -609.15
Q -379.75 -590 -387.45 -570.3 -426.7 -469.65 -428.95 -361.6 -430.2 -301.25 -416.65 -243 -444.75 -249 -467.9 -266.15 -476.05 -289.95 -480.95 -314.7 -493.75 -379.5 -483.4 -444.5 -477.5 -481.4 -467.55 -517.4 -457.85 -552.45 -444.15 -585.8 -444 -585.95 -443.8 -586.1 -423.45 -600.45 -399.35 -606.4
M -526.4 -397.3
Q -525.05 -436.65 -514.9 -475 -503.9 -516.65 -479 -551.6
L -456.55 -576
Q -471.55 -534.8 -481.4 -491.8 -489.85 -455.1 -493.8 -417.85 -497.35 -384.65 -494.15 -351.35 -490.45 -313.05 -480.25 -275.9 -497.85 -291.4 -512.8 -309.6 -515.45 -312.9 -516.5 -316.65 -527.85 -356.15 -526.4 -397.3
M -382.3 -219.15
Q -359 -222.2 -340.7 -236.85 -324.75 -249.55 -311.35 -264.75 -311.4 -227.05 -302.2 -190.65 -292.1 -150.6 -265.45 -119.05 -248.45 -98.9 -227.8 -82.55
L -314.75 -97.1 -365.5 -103.85
Q -378.1 -114.5 -390.6 -125.3 -438.45 -166.55 -473.95 -218.8 -494.35 -248.95 -507.55 -282.9 -485.55 -253.25 -454.25 -234.15 -420.7 -213.7 -382.3 -219.15
M -594.75 -62
Q -586.8 -76.5 -569.95 -78.85 -529.05 -84.5 -487.7 -82.55 -448.25 -80.5 -409.4 -75.7
L -264.5 -55.05
Q -258.4 30.6 -251.25 116.35 -249 143 -244.85 169.45 -234.6 234.9 -215.45 298.45 -215.8 299.5 -216.15 300.6 -217.05 303.45 -217.25 306.3 -217.4 308.1 -216.8 309.9 -216.45 311.05 -215.65 312 -214.9 312.9 -213.9 313.3 -212.75 313.85 -211.55 313.9
L -155.9 473.35
Q -157.15 476.5 -158.3 479.7 -158.65 480.75 -159 481.8 -159.65 483.95 -159.05 486.1 -158.6 487.7 -157.35 488.9 -156.2 490 -154.5 490.35 -152.5 490.75 -150.6 490.4 -143.05 505.75 -136.35 523.55 -129.95 540.55 -122.6 557.25 -101 606.35 -70.55 650.25
L -147.1 627.8
Q -142.85 608.7 -142.55 589.25 -142 557.65 -151 527.55 -160.1 497.1 -178.3 470.95 -218.65 412.75 -285.55 387.8 -328.2 371.8 -373.6 367.45 -387.2 366.05 -400.8 366.9 -414.7 367.7 -424.15 365.2 -424.6 363.35 -425.2 361.6 -427.4 355.55 -431.25 350.4 -478.15 287.8 -514.65 219.5 -526.45 202.6 -536.15 183.5 -553.6 149 -569.1 113.65 -585.65 75.95 -593.55 35.55 -601.2 -3.55 -599.8 -43.35 -599.45 -53.3 -594.75 -62
M -110.7 140.95
Q -97 127.65 -81.35 116.45 -48.3 92.85 -9.85 80.15 9.9 73.7 29.95 69.15 44.65 65.7 55.65 68.25 57.8 75.1 60.4 81.85 68.25 102.15 74.95 122.8 77.75 131.3 80.95 139.55 87.1 155.55 93.6 171.25 100.95 189.05 107.35 207.1 111.9 219.9 117.35 232.45 67.5 245.3 22.65 270.75 -5.6 286.75 -30.65 304.4 -52.05 284.45 -64.65 257.65 -72.4 241.05 -78.6 224 -93.85 182.1 -110.7 140.95
M -126.6 158.35
Q -126 160.7 -125.05 162.9 -91.05 242.8 -38.35 311.7 -58.45 328.75 -76.3 348 -82.35 354.5 -88.05 361.25 -123.45 402.9 -146.75 452.05
L -189.75 330.35 -200.05 298.6
Q -193.9 284.1 -187.8 269.6 -186.8 267.2 -185.85 264.75 -163.55 207.5 -126.6 158.35
M -543.3 231.5
L -512.85 282.05
Q -546.1 278.85 -577.1 290.65 -597.35 298.3 -608.2 317.05 -624.15 344.55 -614.9 375.55 -604.2 411.3 -572.15 429.55
L -588.45 443.9 -638.2 498.85
Q -644.4 496.4 -650.6 493.95 -676.4 483.3 -698.65 466.6 -726.65 445.7 -738.35 412.95 -748.15 385.65 -738.5 358.7 -732.05 340.65 -719.9 325.55 -707.85 310.55 -692.45 299.45 -624.65 250.45 -543.3 231.5
M -600.8 321.3
Q -596.25 312.95 -587.95 308.2 -549.95 286.35 -505.95 294.05
L -500.6 301.95 -482.35 332.7 -520.7 353.05
Q -531.85 348.75 -543.8 343.25 -555.15 338.15 -565.4 340.55 -566.35 344.75 -562.5 347.15 -531.9 366.15 -501.4 385.65 -535.5 400.5 -564.6 423.45 -593.4 408.7 -604.55 378.7 -615.7 348.75 -600.8 321.3
M -454.7 371.25
L -483.9 379.05 -503.2 363.05 -472.85 345.55 -454.7 371.25
M -570.25 182.5
L -550.15 219.6
Q -619.2 233.7 -678.65 272.05 -701.15 286.6 -720.2 305.45 -738.25 323.35 -749.1 346.5 -765.55 381.4 -752.2 417.8 -742.7 443.75 -723.3 463.5 -690.65 496.7 -647.15 510.45 -650.8 515.35 -654.85 519.9 -678.5 546.35 -681.85 580.95
L -683.45 586.45
Q -684.4 586.25 -685.25 586.25 -689.15 585.85 -693.2 585.4 -703.35 584.35 -713.3 582.9 -723.55 581.3 -732.9 576.8 -773.65 557.55 -794.5 517.25 -815.3 477.15 -824.4 432.9 -829 410.35 -824.4 387.85 -812.7 331.05 -770.05 291.35 -684.2 211.3 -570.25 182.5
M -418.75 485.5
Q -420.5 481.25 -424.3 478.9 -446.3 465.25 -468.45 473.55 -490.65 481.85 -506.25 508.55 -521.9 535.25 -535.8 560.05 -549.7 584.85 -547.75 606.1 -547.05 613.9 -546.75 621.55 -546.05 637.75 -538.1 649.9 -537 650.45 -535.8 650.6 -534.25 661.05 -528.55 663.25 -523.1 665.35 -515.55 659.7 -508.85 654.7 -502.25 646.8 -497.9 641.6 -491.1 631.85 -460.7 588.3 -433.4 542.15 -429.55 558.85 -420.4 578.25 -414.85 590.05 -402.35 612.35 -379.45 653.2 -369.6 670.35 -358.25 690.1 -350.9 700.8 -339.75 717.1 -328.15 728.1 -317.2 738.35 -308.65 736.55 -303.9 735.55 -299.9 731 -297.2 727.9 -293.85 721.8 -265.5 669.4 -242.75 614.6 -235.4 634.2 -224.3 656.85 -217.45 670.8 -206.7 690.75 -219.35 708 -236.15 722.15 -268 748.95 -307 763.35 -345.5 777.6 -386.4 780.45 -429.1 783.5 -470.45 773.75 -511.8 764.2 -549.35 743.6 -571 731.8 -591.15 717.9 -626.45 693.45 -648.4 657.1 -649.85 654.05 -651.1 650.95 -664.3 618.25 -662.5 582.7 -661.5 562.15 -650.5 545.05 -603.4 472.25 -531.05 424.8 -488.15 396.75 -437.2 393.05 -388.1 389 -339.75 399.15 -301 407.5 -266.95 427.45 -233.15 447.35 -209.85 478.75 -196.25 497 -187.5 518 -168.3 564.15 -175.35 613.5 -188.2 582.55 -205.15 553.6 -219.75 528.6 -235.4 503.95 -239.8 497.05 -247.6 495.3 -256.75 493.35 -261.6 501.9 -296.65 563.4 -309.4 633.15 -344.3 610 -368.8 575.85 -399 533.7 -418.75 485.5
M -422.5 540.1
Q -424.65 528.1 -430.95 528.1 -433.55 528.15 -435.85 530.5 -437.4 532.15 -439.25 535.4 -472.45 595.9 -517 649.6 -521.8 655.4 -525.65 653.8 -528.35 652.65 -528.9 648.15 -525.3 645.35 -524.45 640.2 -521.15 620.1 -517.2 600.25 -512.2 575.25 -499.8 552.9 -474.5 507.2 -429.15 481.3 -403.1 532.6 -373.2 581.85 -353.25 614.75 -332.7 646.95 -325.4 658.35 -315.05 666.5 -310.6 670 -305.2 668.1 -300.95 666.5 -299.55 662.15 -278.35 595.7 -248.45 532.4 -241.2 543.3 -234.2 554.2 -218.5 578.75 -206.8 605.6 -200.65 619.75 -197.75 634.65 -195.25 647.4 -187.7 657.6 -192.05 667.4 -197.35 676.45 -218 641 -232.85 602.5 -236.7 592.45 -242.45 592.9 -245 593.1 -247.1 595.45 -248.65 597.1 -250.25 600.25 -256.55 612.45 -264.2 629.8 -268.6 639.8 -277.15 659.85 -293.25 696.7 -307.05 717.65 -308.55 719.9 -309.65 721.05 -311.35 722.7 -313.2 723.15 -317.8 724.2 -323.4 717.5 -343 694 -362.95 661.3 -375.05 641.6 -397 601.35 -407.6 581.9 -412.2 571.6 -419.8 554.7 -422.5 540.1
M -548.6 779.7
Q -549.95 782.3 -551.85 784.4 -577.75 813.4 -591.75 849.8 -614.35 908.7 -616.8 971.95 -618.2 970.75 -619.45 969.4 -640.55 945.7 -650.4 915 -665.6 867.7 -659 818.3 -652.3 768.35 -615.8 735.25
L -548.6 779.7
M -121.15 522.15
Q -130.25 498.7 -138.6 474.9 -116.75 425.75 -83.4 383.85 -16.05 298.95 85.75 262.15 130.75 246 178.2 242.45 193.75 241.35 209.35 242.25 245.4 245.35 281.15 248.6
L 294.75 309.65
Q 284 297.7 272.1 286.95 265.9 281.35 260 275.6 246.7 262.85 229.8 267.7 222.3 270 219.2 277.25 205.95 308.35 207.45 342.95 209.25 384.9 226.1 423.2 242.6 460.85 269.9 491.95
L 298.65 524.05
Q 280.65 549.65 258.45 571.8 228.95 601.25 197.05 627.8 168.95 651.25 136.05 666.95 105.3 681.7 71.45 679.4 6.4 674.75 -55.85 655.2 -51.95 647 -57.75 638.9 -96.9 584.45 -121.15 522.15
M 580.6 154.8
Q 585.05 148.85 589.7 143.05 580.1 193.55 571.3 244.45 558.15 320.4 558.4 396.95
L 558.25 396.35 469.55 299.95
Q 462.1 291.8 455.35 282.8 444.6 268.45 436.3 252.55 429.65 239.9 416.9 244.3 413.75 245.3 412.55 248.35 387 312.6 378.05 381.9 376.9 390.8 375.65 399.75 346.2 372.2 321.15 340.7 318.4 337.15 317.3 333.2 304.35 286.4 293.2 239.15
L 290.55 227.85
Q 272.15 135.2 215.65 59.1 215.6 59 215.55 58.95
L 265.8 25.5
Q 278.15 99.5 301.7 170.6 304.9 180.3 308.65 189.65 309.05 190.6 309.45 191.6 312.85 199.55 320.85 202.3 324.3 203.5 327.2 201.5 348.05 187.65 362.4 166.1 391.6 122.2 429.9 86.2 431.2 85 432.6 83.9 462.6 164.2 492 244.8 496.65 257.55 508.95 255.95 513.5 255.4 515.85 251.45 545.85 201.65 580.6 154.8
M 206.15 65.2
Q 207.3 67.25 208.5 69.3 219.4 87.9 230.8 106.5 236.55 115.85 241.5 125.7 264.9 172.45 275.6 223.7 267.45 222.7 259.3 221.7 194 215.05 129.8 229.5 120.65 203.35 111.6 177.2 106.9 163.7 101.95 150.4 85.75 106.9 64.3 65.45
L 121.85 65.45 114.7 95.95 114.95 102.35
Q 113.1 104.2 112.4 106.7 111.6 109.45 113.35 111.5 122.25 122.3 134.95 113.55 170.3 89.05 206.15 65.2
M 303 565.1
L 319.3 543.8
Q 335.3 555.6 354.25 566.05 391.2 586.35 433.2 591.1
L 480.7 592.4
Q 481.3 609.95 477.5 627.05 469.65 662.6 440.85 685.3 422.95 699.45 400.9 704.25 406.6 689.5 409.95 674.2 415.15 650.2 405.65 627.8 390.85 592.85 356.85 576.25 331.35 563.65 303 565.1
M -394.05 809.05
L -391.25 808.9
Q -395.15 820.8 -399.2 832.65 -414.8 878.6 -411.2 926.75 -408.9 957.85 -401.25 988.25 -438 970.8 -458.3 935.25 -483.05 891.95 -483.45 841.7 -483.6 822.25 -477.3 803.8 -475.4 804.15 -473.45 804.5 -434 811.5 -394.05 809.05
M 383.95 326.95
Q 384.45 318.3 377.2 314.8 372.2 312.45 366.25 312 356.4 311.55 350.8 319.5 339.75 335.15 350.25 349.8 353.2 353 357.25 354.7 369.95 359.8 377.45 347.65 383.35 338.25 383.95 326.95
M 371.85 333.15
Q 371.85 338.2 369.1 341.75 366.3 345.3 362.35 345.3 358.4 345.3 355.65 341.75 352.85 338.2 352.85 333.15 352.85 328.1 355.65 324.55 358.4 321 362.35 321 366.3 321 369.1 324.55 371.85 328.1 371.85 333.15
M -294.3 278.95
Q -297.6 280.9 -299.5 284.05 -308.15 298 -296.45 310.6 -285.4 322.45 -269.85 318.1 -248.65 312.05 -256.65 291.75 -258.85 287.25 -262.2 283.6 -276.25 268.2 -294.3 278.95
M -293 295.15
L -289.9 289.6 -278.1 285.7
Q -267.6 290.35 -265.3 301.35 -266.25 304.5 -269.5 305.75 -286.95 312.45 -293 295.15
M -310.95 47.85
Q -302.65 49.15 -296.75 43.9 -292.65 40.35 -291.2 34.95 -286.95 19.15 -294.95 5.8 -296.2 3.75 -298.5 3.4 -311.65 2.7 -325.05 2.5 -331.55 4.75 -335.1 10.85 -344.5 26.95 -329.95 38.95 -321.65 45.85 -310.95 47.85
M -322.95 11.75
Q -311.2 7.65 -304.25 17.65 -301.55 21.55 -300.8 26.3 -298.95 37.9 -310.1 38.15 -327.45 38.5 -331.55 22.7 -330.85 14.45 -322.95 11.75
M 199.15 -108.05
Q 183.9 -124.55 166.45 -108.95 151.5 -95.55 162.35 -79.95 168.4 -71.25 179.1 -72.3 202 -75.15 203.15 -98.5 202.95 -104 199.15 -108.05
M 179.65 -108.15
Q 182 -105.45 184.55 -103.15 193.25 -95.1 183.25 -88.35 172.9 -81.4 166.85 -90.85 167.35 -94 168 -96.8 170.25 -106.1 179.65 -108.15 Z"/>

<path fill="#B45A2F" stroke="none" d="
M -391.25 808.9
L -394.05 809.05
Q -434 811.5 -473.45 804.5 -475.4 804.15 -477.3 803.8 -483.6 822.25 -483.45 841.7 -483.05 891.95 -458.3 935.25 -438 970.8 -401.25 988.25 -408.9 957.85 -411.2 926.75 -414.8 878.6 -399.2 832.65 -395.15 820.8 -391.25 808.9
M 319.3 543.8
L 303 565.1
Q 331.35 563.65 356.85 576.25 390.85 592.85 405.65 627.8 415.15 650.2 409.95 674.2 406.6 689.5 400.9 704.25 422.95 699.45 440.85 685.3 469.65 662.6 477.5 627.05 481.3 609.95 480.7 592.4
L 433.2 591.1
Q 391.2 586.35 354.25 566.05 335.3 555.6 319.3 543.8
M 589.7 143.05
Q 585.05 148.85 580.6 154.8 545.85 201.65 515.85 251.45 513.5 255.4 508.95 255.95 496.65 257.55 492 244.8 462.6 164.2 432.6 83.9 431.2 85 429.9 86.2 391.6 122.2 362.4 166.1 348.05 187.65 327.2 201.5 324.3 203.5 320.85 202.3 312.85 199.55 309.45 191.6 309.05 190.6 308.65 189.65 304.9 180.3 301.7 170.6 278.15 99.5 265.8 25.5
L 215.55 58.95
Q 215.6 59 215.65 59.1 272.15 135.2 290.55 227.85
L 293.2 239.15
Q 304.35 286.4 317.3 333.2 318.4 337.15 321.15 340.7 346.2 372.2 375.65 399.75 376.9 390.8 378.05 381.9 387 312.6 412.55 248.35 413.75 245.3 416.9 244.3 429.65 239.9 436.3 252.55 444.6 268.45 455.35 282.8 462.1 291.8 469.55 299.95
L 558.25 396.35 558.4 396.95
Q 558.15 320.4 571.3 244.45 580.1 193.55 589.7 143.05
M 377.2 314.8
Q 384.45 318.3 383.95 326.95 383.35 338.25 377.45 347.65 369.95 359.8 357.25 354.7 353.2 353 350.25 349.8 339.75 335.15 350.8 319.5 356.4 311.55 366.25 312 372.2 312.45 377.2 314.8
M -138.6 474.9
Q -130.25 498.7 -121.15 522.15 -96.9 584.45 -57.75 638.9 -51.95 647 -55.85 655.2 6.4 674.75 71.45 679.4 105.3 681.7 136.05 666.95 168.95 651.25 197.05 627.8 228.95 601.25 258.45 571.8 280.65 549.65 298.65 524.05
L 269.9 491.95
Q 242.6 460.85 226.1 423.2 209.25 384.9 207.45 342.95 205.95 308.35 219.2 277.25 222.3 270 229.8 267.7 246.7 262.85 260 275.6 265.9 281.35 272.1 286.95 284 297.7 294.75 309.65
L 281.15 248.6
Q 245.4 245.35 209.35 242.25 193.75 241.35 178.2 242.45 130.75 246 85.75 262.15 -16.05 298.95 -83.4 383.85 -116.75 425.75 -138.6 474.9
M -551.85 784.4
Q -549.95 782.3 -548.6 779.7
L -615.8 735.25
Q -652.3 768.35 -659 818.3 -665.6 867.7 -650.4 915 -640.55 945.7 -619.45 969.4 -618.2 970.75 -616.8 971.95 -614.35 908.7 -591.75 849.8 -577.75 813.4 -551.85 784.4
M -424.3 478.9
Q -420.5 481.25 -418.75 485.5 -399 533.7 -368.8 575.85 -344.3 610 -309.4 633.15 -296.65 563.4 -261.6 501.9 -256.75 493.35 -247.6 495.3 -239.8 497.05 -235.4 503.95 -219.75 528.6 -205.15 553.6 -188.2 582.55 -175.35 613.5 -168.3 564.15 -187.5 518 -196.25 497 -209.85 478.75 -233.15 447.35 -266.95 427.45 -301 407.5 -339.75 399.15 -388.1 389 -437.2 393.05 -488.15 396.75 -531.05 424.8 -603.4 472.25 -650.5 545.05 -661.5 562.15 -662.5 582.7 -664.3 618.25 -651.1 650.95 -649.85 654.05 -648.4 657.1 -626.45 693.45 -591.15 717.9 -571 731.8 -549.35 743.6 -511.8 764.2 -470.45 773.75 -429.1 783.5 -386.4 780.45 -345.5 777.6 -307 763.35 -268 748.95 -236.15 722.15 -219.35 708 -206.7 690.75 -217.45 670.8 -224.3 656.85 -235.4 634.2 -242.75 614.6 -265.5 669.4 -293.85 721.8 -297.2 727.9 -299.9 731 -303.9 735.55 -308.65 736.55 -317.2 738.35 -328.15 728.1 -339.75 717.1 -350.9 700.8 -358.25 690.1 -369.6 670.35 -379.45 653.2 -402.35 612.35 -414.85 590.05 -420.4 578.25 -429.55 558.85 -433.4 542.15 -460.7 588.3 -491.1 631.85 -497.9 641.6 -502.25 646.8 -508.85 654.7 -515.55 659.7 -523.1 665.35 -528.55 663.25 -534.25 661.05 -535.8 650.6 -537 650.45 -538.1 649.9 -546.05 637.75 -546.75 621.55 -547.05 613.9 -547.75 606.1 -549.7 584.85 -535.8 560.05 -521.9 535.25 -506.25 508.55 -490.65 481.85 -468.45 473.55 -446.3 465.25 -424.3 478.9
M -569.95 -78.85
Q -586.8 -76.5 -594.75 -62 -599.45 -53.3 -599.8 -43.35 -601.2 -3.55 -593.55 35.55 -585.65 75.95 -569.1 113.65 -553.6 149 -536.15 183.5 -526.45 202.6 -514.65 219.5 -478.15 287.8 -431.25 350.4 -427.4 355.55 -425.2 361.6 -424.6 363.35 -424.15 365.2 -414.7 367.7 -400.8 366.9 -387.2 366.05 -373.6 367.45 -328.2 371.8 -285.55 387.8 -218.65 412.75 -178.3 470.95 -160.1 497.1 -151 527.55 -142 557.65 -142.55 589.25 -142.85 608.7 -147.1 627.8
L -70.55 650.25
Q -101 606.35 -122.6 557.25 -129.95 540.55 -136.35 523.55 -143.05 505.75 -150.6 490.4 -152.5 490.75 -154.5 490.35 -156.2 490 -157.35 488.9 -158.6 487.7 -159.05 486.1 -159.65 483.95 -159 481.8 -158.65 480.75 -158.3 479.7 -157.15 476.5 -155.9 473.35
L -211.55 313.9
Q -212.75 313.85 -213.9 313.3 -214.9 312.9 -215.65 312 -216.45 311.05 -216.8 309.9 -217.4 308.1 -217.25 306.3 -217.05 303.45 -216.15 300.6 -215.8 299.5 -215.45 298.45 -234.6 234.9 -244.85 169.45 -249 143 -251.25 116.35 -258.4 30.6 -264.5 -55.05
L -409.4 -75.7
Q -448.25 -80.5 -487.7 -82.55 -529.05 -84.5 -569.95 -78.85
M -296.75 43.9
Q -302.65 49.15 -310.95 47.85 -321.65 45.85 -329.95 38.95 -344.5 26.95 -335.1 10.85 -331.55 4.75 -325.05 2.5 -311.65 2.7 -298.5 3.4 -296.2 3.75 -294.95 5.8 -286.95 19.15 -291.2 34.95 -292.65 40.35 -296.75 43.9
M -299.5 284.05
Q -297.6 280.9 -294.3 278.95 -276.25 268.2 -262.2 283.6 -258.85 287.25 -256.65 291.75 -248.65 312.05 -269.85 318.1 -285.4 322.45 -296.45 310.6 -308.15 298 -299.5 284.05
M -340.7 -236.85
Q -359 -222.2 -382.3 -219.15 -420.7 -213.7 -454.25 -234.15 -485.55 -253.25 -507.55 -282.9 -494.35 -248.95 -473.95 -218.8 -438.45 -166.55 -390.6 -125.3 -378.1 -114.5 -365.5 -103.85
L -314.75 -97.1 -227.8 -82.55
Q -248.45 -98.9 -265.45 -119.05 -292.1 -150.6 -302.2 -190.65 -311.4 -227.05 -311.35 -264.75 -324.75 -249.55 -340.7 -236.85
M 116.2 -99.05
Q 137.35 -80.25 153.25 -56.55 161.95 -43.6 169.35 -30.05 199.35 -75.8 246.4 -103.2 249.2 -104.9 252.1 -106.45 290.55 -124.8 333.05 -128.95 375.6 -133 418.45 -131.2 436.25 -130.7 454 -128.55 451.45 -173.95 439.3 -217.8 428.95 -255.2 412.25 -290.15 391.25 -334.25 358.75 -369.65 355.05 -373.7 349.6 -374.2 341.45 -374.15 334.15 -370.6 290.35 -348.85 250.4 -320.6 148.15 -248.55 83.9 -141.65 81 -136.85 78.05 -131.9 97.4 -115.8 116.2 -99.05
M 166.45 -108.95
Q 183.9 -124.55 199.15 -108.05 202.95 -104 203.15 -98.5 202 -75.15 179.1 -72.3 168.4 -71.25 162.35 -79.95 151.5 -95.55 166.45 -108.95
M 71.5 -119.85
L 66.4 -111.95
Q 44.2 -75.7 29.65 -35.8 24.2 -20.9 20.65 -5.45 17.55 7.95 6 2.35 4.5 1.7 3.25 0.5 -123.5 -30.8 -251.95 -52.95 -249.5 -20 -247.55 13 -239.6 146 -207 275 -180.05 208.8 -140.3 149.7 -127.65 130.9 -110.75 115.9 -48.45 60.6 33.95 47.75 52.25 44.8 70.65 43.55 80.2 43 89.75 42.5 99.55 42.4 109.4 42.3 119.9 41.75 130.25 43.6
L 158.9 -13.75
Q 149.75 -29.45 140.25 -44.85 124.25 -70.8 102.2 -92.15 87.25 -106.5 71.5 -119.85
M 217.9 -394.95
Q 208.15 -380.05 196.25 -367 177.2 -346.05 150.2 -340.05 138.15 -337.45 125.95 -338.5 122.45 -338.6 119 -338.65
L 112.05 -334.2 107.85 -340.85 79.8 -351.1
Q 89 -329.4 94.45 -306.65 104.55 -264.85 98.45 -222.6 97.65 -217 96.6 -211.45
L 126.55 -246.75 201.85 -318.1 217.9 -394.95
M 680.6 510.45
Q 677.75 506.65 675.2 502.8
L 627.25 538.85
Q 600.35 557.55 570.25 570.35 566.1 572.1 561.9 573.8 584.3 593.75 594.65 621.7 603.4 645.45 595.55 669.35 598.2 668.95 600.6 667.85 640.7 650.75 669.65 618.5 700.05 584.65 693.25 540.3 690.7 523.85 680.6 510.45
M 701.9 72.2
Q 681.4 36.95 651.2 9.15 623.85 -16.05 592.7 -36.3 557.7 -58.95 520.3 -77.3 484.1 -95.1 444.2 -101.5 404.65 -107.9 364.55 -107.5 322.1 -107.05 282.05 -93.95 241.85 -80.8 212 -51 181.4 -20.45 162.25 18.35 159.4 24.1 156.75 29.95 182.5 8.85 197.2 -2 225.6 -22.85 250.85 -35.4 263.25 -41.5 272.7 -43.55 285.2 -46.2 294.95 -42.45 303.85 -39 311.15 -29.9 316.5 -23.2 322.2 -11.65 345.65 36.2 352.95 89.3 368.4 65.75 388.6 45.85 408.8 25.9 432.55 10.85 440.45 5.85 446.15 3.65 454 0.55 460.85 1.2 468.7 1.95 476.15 7.55 482.35 12.2 487.95 19.9 501.6 38.85 509.6 71.8 511.25 78.55 515.75 100 519.4 117.65 522.35 128 547.2 91.95 579.25 62.35 583.55 58.4 586.5 56.5 590.85 53.75 595 53.45 600.9 53 606.2 57.2 611.1 61.1 613.3 67.2 615.2 72.35 615.4 79.2 615.55 83.5 614.9 91.55
L 612.7 119.85
Q 612.7 119.9 612.7 119.95 614.3 152.4 608.8 184.5 602.55 220.8 595 256.9 588.8 286.5 585.2 316.4 581.75 345.25 580.85 374.3 580.3 391.55 574.85 407.7 570.25 421.35 556.35 422.5 544.3 422.2 537.8 411.85 526.7 406.4 518.35 397 478.2 351.85 440.05 305.8 430.55 294.35 422.6 281.9 409.4 353 396.75 424.25 395.2 432.95 388.25 438 382.15 442.45 375.65 438.1 358.3 426.6 344.25 410.75 317.85 380.85 292.25 350.4 270.25 324.2 248.6 297.65 244.4 324 247.05 350.25 247.45 354 247.9 357.75 254 400.85 277.4 437.45 299.75 472.35 327.55 502.9 356.4 534.55 397.05 547.95 436.75 561 478.7 556.4 488.95 555.55 499.05 553 501.9 552.45 504.75 552.4 515.6 552.2 526.35 548.75 566.65 535.95 600.9 511.3 634.25 487.25 662.35 457.35 690.3 427.5 709.45 391.35 728.9 354.6 734.5 313.2 740 272.8 740.2 232 740.4 189.9 731.55 148.8 722.8 108.1 701.9 72.2 Z"/>
</g>

<g id="S_mbolo_9_0_Layer1_0_FILL">
<path fill="#000000" fill-opacity="0.2" stroke="none" d="
M 283 240.5
Q 281.35 238.05 279.3 236.85 275.15 234.45 270.15 237.05 265.35 239.5 263.5 244.35 261.95 248.5 262.3 254.1 262.55 257.55 263.95 264
L 272.15 301.35
Q 273.75 308.65 275.6 312.6 278.35 318.45 282.95 320.85 287.8 323.35 293.4 321.3 299.05 319.25 301.1 314.25 302.5 310.9 302.2 306.3 302 303.45 300.8 298.2 296.7 280.35 294.25 271.4 290.15 256.6 285.4 245.3 284.15 242.3 283 240.5
M -449.6 787.95
Q -454 783.7 -460.65 783.65 -467.35 783.6 -471.8 787.8 -473.3 789.2 -475.45 792.15 -477.8 795.45 -478.95 796.65 -480.2 797.95 -483.4 800.5 -486.35 802.9 -487.75 804.5 -491.25 808.55 -492.45 815.2 -493.25 819.75 -493.1 827.4 -492.65 852.8 -490.1 878 -489 888.95 -487.05 895.5 -484.25 904.85 -478.6 910.4 -477.4 911.55 -474.9 913.7 -472.65 915.7 -471.5 917.35 -470.05 919.4 -469.1 922.5 -468.85 923.3 -467.6 928.1 -463.25 945.2 -452.3 958.95 -450.7 960.95 -447.45 964.85 -444.55 968.35 -442.95 971 -441.65 973.15 -438.05 980.95 -435.15 987.25 -432.45 990.45 -429.1 994.5 -424.15 996.8 -419.25 999.1 -413.95 999.15 -408.65 999.15 -403.75 996.9 -398.8 994.6 -395.4 990.6 -389.1 983.2 -388.4 970.95 -388.15 966.3 -388.7 960.35 -389 957.3 -390.1 949.8 -394.5 919.1 -394.2 897.3 -393.65 862.8 -382.6 830.35 -379.45 821.15 -378.7 818.1 -376.95 811.1 -377.65 805.55 -378.75 796.85 -385.65 790.3 -392.5 783.85 -401.35 782.95 -410.1 782.05 -418.25 786.75 -426.35 791.35 -430.3 799.35 -431.05 800.75 -431.25 801.05 -431.8 802 -432.5 802.45 -434.6 803.8 -437.7 802.15 -440.8 800.45 -444 795.55 -448 789.5 -449.6 787.95
M -584.7 728.25
Q -586.65 727.35 -589.25 725.15 -592.8 722.1 -593.5 721.6 -597.6 718.75 -602.7 718.15 -607.85 717.5 -612.45 719.3 -617.15 721.15 -621.5 725.55 -624.5 728.55 -628.6 734.3 -638.8 748.5 -645.55 760.05 -653.85 774.4 -658.8 787.75 -666.6 808.9 -668.15 833.15 -669.55 855.75 -665.55 879.7 -661.9 901.35 -653.7 924.7 -646.65 944.8 -635.7 967.7 -631.85 975.75 -628.7 980.15 -624.1 986.5 -618.4 989.25 -611.65 992.6 -603.85 990.75 -596 988.95 -591.4 983 -587.1 977.45 -586 968.55 -585.35 963.4 -585.65 952.4 -586.8 909.7 -577.6 873.25 -567.3 832.15 -544.5 802.2 -539 794.95 -537.65 792.75 -534.15 787.15 -533.35 782.15 -532.2 774.9 -536.45 768.2 -540.7 761.5 -547.7 759.4 -546.9 749.15 -553.9 740.5 -560.85 731.8 -571 730.4 -575.65 730.05 -578 729.85 -582.15 729.45 -584.7 728.25
M -248.2 -39.55
Q -248.65 -34.9 -248.65 -27.85 -248.6 -14.25 -246.5 12.75 -241.75 74.7 -231.55 202.3
L -230.2 219.45
Q -229.1 232.4 -228.6 237.55 -227.6 247.7 -226.4 255.6 -225.45 261.65 -224.35 265.3 -222.75 270.5 -220.05 274 -217.45 277.3 -213.9 278.85 -209.95 280.6 -206.45 279.35 -202.6 277.95 -200.45 273.4 -198.75 269.7 -198.4 264.5 -197.55 251.35 -202.7 232.45 -209.25 211.4 -211.55 200.75 -213.3 192.65 -215.05 177.55 -219.8 136.7 -224.05 85.75 -226.7 54 -231 -6.25
L -234.25 -51.3
Q -234.4 -53.5 -234.8 -54.8 -235.35 -56.7 -236.65 -57.55 -239.2 -59.3 -242.2 -56.8 -244.9 -54.6 -246 -51 -247.6 -45.9 -248.2 -39.55
M -368.2 -116.7
Q -372.55 -115.45 -378.9 -111.05 -383.6 -107.65 -383 -104.55 -382.65 -102.85 -380.4 -101 -371.5 -93.45 -357 -90.05 -348.65 -88.05 -330.6 -86.35 -301.15 -83.6 -277.3 -79.55 -249.15 -74.7 -225.1 -67.35 -218.7 -65.35 -215.75 -64.8 -210.45 -63.75 -206.3 -64.5 -201.3 -65.35 -197.8 -69 -194.1 -72.85 -194.65 -77.45 -195.45 -84.3 -205.85 -89.35 -215.2 -93.9 -230.95 -98 -256.25 -104.6 -290.6 -109.45 -295.15 -110.1 -351 -116.9 -356.75 -117.6 -359.65 -117.65 -364.5 -117.75 -368.2 -116.7
M 105.55 -100.05
Q 95.5 -110.3 90.25 -115.05 81.1 -123.3 72.8 -127.05 68.5 -129 64.6 -128.95 59.9 -128.95 57.55 -125.95 56.1 -124.1 55.9 -121.4 55.75 -118.9 56.7 -116.5 57.55 -114.4 59.15 -112.2 60.2 -110.8 62.35 -108.35 74.85 -94 102.25 -61.05 114.3 -46.6 120.15 -38.9 129.75 -26.35 136.15 -15.4 139.75 -9.25 141.6 -6.85 145.1 -2.4 149.15 -0.7 154.35 1.5 160.05 -0.85 165.75 -3.2 167.9 -8.4 170.05 -13.6 168.2 -20.3 166.85 -25.2 163 -31.75 151.3 -51.4 133.35 -71.9 125 -81.45 118.05 -88.2 109.65 -96.05 105.55 -100.05
M 195.35 -333.55
Q 185.05 -326 176.5 -317.25 173.75 -314.45 168.5 -308.6 163.25 -302.8 160.5 -300 157.9 -297.35 153.5 -293.25 147.85 -287.9 146.45 -286.55 139.8 -280.1 131.95 -271.6 127.25 -266.4 118.1 -256.05 111.95 -249 110.05 -246.65 104.35 -239.75 93.4 -224.2 91.2 -221 90.3 -219.45 88.7 -216.65 88.15 -214.25 87.5 -211.35 88.2 -208.6 88.95 -205.65 91.1 -204 93.45 -202.2 96.75 -202.4 99.8 -202.6 102.5 -204.35 104.75 -205.8 106.95 -208.4 108.3 -210 110.6 -213.35 134.55 -247.75 165.2 -275.9 170.95 -281.25 185.25 -293.5
L 195.3 -302.15
Q 203.8 -309.45 208.15 -313.05 211.9 -316.1 213.5 -317.95 216.2 -320.95 217 -324.05 217.7 -326.7 217 -329.5 216.35 -332.3 214.55 -334.35 212.75 -336.4 210.05 -337.4 207.4 -338.4 204.65 -338.05 202.3 -337.75 199.8 -336.4 198.05 -335.5 195.35 -333.55
M 684.35 472.85
Q 679.25 469.1 673.25 468.8 664.35 468.4 655.5 475 652.1 477.55 648.45 481.4 646.25 483.75 642.15 488.65 628.75 504.6 620.95 512.5 609.95 523.7 594.95 535.55 584.45 543.9 567 556.25 562 559.85 559.75 561.85 555.95 565.2 554 568.75 551.25 573.75 551.6 579.7 552 585.7 555.35 590.3 558.05 594 562.35 596.45 566.4 598.75 571.25 599.55 572.65 599.75 574.1 599.9
L 577.55 610.85
Q 579.3 616.45 579.9 619.2 581 623.9 581.05 627.7 581.1 633.15 578.55 641.9 575.55 652.4 575.05 656.05 574.15 662.45 575.45 668.7 576.75 675.1 580.15 680.3 583.7 685.7 589.1 689.15 594.7 692.65 600.9 693.3 611.85 694.5 623.35 686.9 627.8 683.95 632.6 679.45 635.5 676.7 640.95 670.95 659.35 651.5 668 641.4 682.5 624.55 692.05 609.55 700.05 597.05 703.75 586.5 708.4 573.2 708.8 555.9 709.05 543.8 707.05 524.5 706.5 519.1 705.95 516.1 705.15 511.45 703.65 507.95 700.25 499.95 692.65 495.1 693.8 488.05 691.6 482.15 689.45 476.55 684.35 472.85
M 781.7 239.05
Q 781.55 231.5 778.3 225.1 774.85 218.15 768.75 214.85 760.3 210.25 749.7 214 739.85 217.5 733.4 226.05 728.2 232.95 724.35 243.9 722.15 250.25 718.45 263.35 710.75 288.75 695.8 315.85 683.8 337.6 664.85 364.3 637.95 402.25 612.55 428.5 581.55 460.45 548.45 479.8 511.1 501.6 470.5 507.1 426.9 513 389.85 498.35 370.55 490.75 351.45 476.7 335.3 464.8 318 447.35 301.75 430.95 290.15 415.35 276.65 397.3 268.4 379.1 257.45 354.85 254.45 328.75 253.65 321.6 251.75 317.45 249.1 311.55 244.15 310.9 238.65 310.2 234.85 316.05 231.7 320.9 230.85 327.95 227.8 353.65 233.7 380.65 239.3 406.25 252.3 430.35 259.95 444.55 270.05 458.1 263.15 458.1 256.45 461.05 248.85 464.4 240.6 471.75 240.05 472.25 226.7 485.3 206.45 505.1 181.6 519.3 156.75 533.55 129.45 541 92.15 551.2 41.9 550.25 23.1 549.9 -2.65 547.9 -32.35 545.35 -47.1 544.15 -74.45 541.9 -84.8 540.5 -93.9 539.25 -102 537.5 -106.05 525.3 -111.45 505.9
L -122.55 466.25
Q -123.35 463.4 -123.85 462.1 -124.7 459.8 -125.8 458.25 -127.15 456.35 -129 455.25 -131 454.05 -133.1 454.2 -135.65 454.35 -137.7 456.45 -139.6 458.35 -140.3 461.05 -140.9 463.35 -140.7 466.35 -140.55 468.2 -139.9 471.6 -136.95 487.2 -130.85 509.85 -127.8 521.3 -124.9 530.75 -130.35 528.8 -131.05 528.55 -136.6 526.85 -141 526.75 -146.35 526.6 -150.9 529.05 -155.85 531.65 -157.45 536.25 -159.75 543 -154.35 552 -151.4 556.95 -147.3 561.25 -147.4 561.45 -147.5 561.65 -149 565.3 -149.9 571.45 -151.1 579.9 -151.45 581.5 -152.55 586.2 -155.35 592.65 -156.95 596.3 -160.25 603.55 -165.85 616.65 -163.75 625.55 -161.35 635.8 -149.95 642.8 -141.9 647.75 -127.55 651.85
L -65.05 669.65
Q -38.65 677.15 -26.45 680.4 -4.85 686.15 12.55 689.75 27.85 692.9 38.9 694.1 53.35 695.65 65.5 694.5 79.15 693.25 94.35 688.3 106.55 684.3 121.85 677.1 174.5 652.5 218.8 615 227.25 607.9 255 582.3 277.25 561.85 292.05 550.65 294.4 548.9 296.5 547.3 296.1 547.75 295.75 548.25 292.55 552.75 292.35 557.65 292.05 563.8 296.3 569.4 300.2 574.6 306.4 577.4 311.55 579.75 318.7 580.85 322.2 581.4 331.55 582.1 339.55 582.7 344.4 583.75 351.35 585.3 356.25 588.4 362.95 592.55 369.45 602.35 377.4 614.2 381.45 626.7 384.9 637.3 386.95 655.15 387.55 660.55 387.65 663.75 387.8 668.5 387.1 672.3 386.55 675.05 384.6 680.8 382.75 686.2 382.25 689.25 381.1 696.1 383.35 702.9 385.55 709.7 390.55 714.5 395.5 719.3 402.4 721.3 409.3 723.3 416.05 721.9 422.6 720.55 429.25 715.95 434.25 712.45 440.35 706.2 462.55 683.3 476.85 652.4 490.4 623.1 495.5 589.7 496.8 581.05 496.7 575.15 517.35 570.4 538.75 558.5 556.8 548.45 577 532.3 598 515.5 621.45 492.45 652.15 468.25 678.7 437.25 737.95 368.1 775.4 266.95 778.55 258.35 779.85 253.25 781.85 245.5 781.7 239.05
M 312.75 537.5
Q 308.9 538.5 305.7 540.05 309.75 536.7 311.7 534.85 321.95 525.1 325.15 514.7 325.3 514.25 325.4 513.85 341.6 526.55 357.65 535.9 341.4 533.4 322.9 535.65 316.85 536.4 312.75 537.5
M 440.45 561.75
Q 439.75 563.45 439.25 565.5 436.55 563.15 433.75 561.35 437.05 561.6 440.45 561.75
M 410.05 557.5
Q 407.8 558.35 405.7 559.65 403.2 557.15 400.6 554.95 405.3 556.4 410.05 557.5 Z"/>
</g>

<g id="S_mbolo_6_0_Layer0_0_FILL">
<path fill="#FF0000" stroke="none" d="
M 1195.8 1018.9
Q 1198.55 1015.35 1198.55 1010.3 1198.55 1005.25 1195.8 1001.7 1193 998.15 1189.05 998.15 1185.1 998.15 1182.35 1001.7 1179.55 1005.25 1179.55 1010.3 1179.55 1015.35 1182.35 1018.9 1185.1 1022.45 1189.05 1022.45 1193 1022.45 1195.8 1018.9
M 301.05 1330.95
Q 304.9 1332.55 309.7 1326.75 354.25 1273.05 387.45 1212.55 389.3 1209.3 390.85 1207.65 393.15 1205.3 395.75 1205.25 402.05 1205.25 404.2 1217.25 406.9 1231.85 414.5 1248.75 419.1 1259.05 429.7 1278.5 451.65 1318.75 463.75 1338.45 483.7 1371.15 503.3 1394.65 508.9 1401.35 513.5 1400.3 515.35 1399.85 517.05 1398.2 518.15 1397.05 519.65 1394.8 533.45 1373.85 549.55 1337 558.1 1316.95 562.5 1306.95 570.15 1289.6 576.45 1277.4 578.05 1274.25 579.6 1272.6 581.7 1270.25 584.25 1270.05 590 1269.6 593.85 1279.65 608.7 1318.15 629.35 1353.6 634.65 1344.55 639 1334.75 631.45 1324.55 628.95 1311.8 626.05 1296.9 619.9 1282.75 608.2 1255.9 592.5 1231.35 585.5 1220.45 578.25 1209.55 548.35 1272.85 527.15 1339.3 525.75 1343.65 521.5 1345.25 516.1 1347.15 511.65 1343.65 501.3 1335.5 494 1324.1 473.45 1291.9 453.5 1259 423.6 1209.75 397.55 1158.45 352.2 1184.35 326.9 1230.05 314.5 1252.4 309.5 1277.4 305.55 1297.25 302.25 1317.35 301.4 1322.5 297.8 1325.3 298.35 1329.8 301.05 1330.95
M 276.55 896.75
L 256.45 859.65
Q 142.5 888.45 56.65 968.5 14 1008.2 2.3 1065 -2.3 1087.5 2.3 1110.05 11.4 1154.3 32.2 1194.4 53.05 1234.7 93.8 1253.95 103.15 1258.45 113.4 1260.05 123.35 1261.5 133.5 1262.55 137.55 1263 141.45 1263.4 142.3 1263.4 143.25 1263.6
L 144.85 1258.1
Q 148.2 1223.5 171.85 1197.05 175.9 1192.5 179.55 1187.6 136.05 1173.85 103.4 1140.65 84 1120.9 74.5 1094.95 61.15 1058.55 77.6 1023.65 88.45 1000.5 106.5 982.6 125.55 963.75 148.05 949.2 207.5 910.85 276.55 896.75
M 313.85 959.2
L 283.4 908.65
Q 202.05 927.6 134.25 976.6 118.85 987.7 106.8 1002.7 94.65 1017.8 88.2 1035.85 78.55 1062.8 88.35 1090.1 100.05 1122.85 128.05 1143.75 150.3 1160.45 176.1 1171.1 182.3 1173.55 188.5 1176
L 238.25 1121.05 254.55 1106.7
Q 222.5 1088.45 211.8 1052.7 202.55 1021.7 218.5 994.2 229.35 975.45 249.6 967.8 280.6 956 313.85 959.2
M 344.35 1009.85
L 326.1 979.1 320.75 971.2
Q 276.75 963.5 238.75 985.35 230.45 990.1 225.9 998.45 211 1025.9 222.15 1055.85 233.3 1085.85 262.1 1100.6 291.2 1077.65 325.3 1062.8 294.8 1043.3 264.2 1024.3 260.35 1021.9 261.3 1017.7 271.55 1015.3 282.9 1020.4 294.85 1025.9 306 1030.2
L 344.35 1009.85
M 638.9 946.75
Q 632.8 961.25 626.65 975.75
L 636.95 1007.5 679.95 1129.2
Q 703.25 1080.05 738.65 1038.4 744.35 1031.65 750.4 1025.15 768.25 1005.9 788.35 988.85 735.65 919.95 701.65 840.05 700.7 837.85 700.1 835.5 663.15 884.65 640.85 941.9 639.9 944.35 638.9 946.75
M 548.6 962.85
L 536.8 966.75 533.7 972.3
Q 539.75 989.6 557.2 982.9 560.45 981.65 561.4 978.5 559.1 967.5 548.6 962.85
M 525.9 703.45
Q 525.15 698.7 522.45 694.8 515.5 684.8 503.75 688.9 495.85 691.6 495.15 699.85 499.25 715.65 516.6 715.3 527.75 715.05 525.9 703.45
M 370.15 101.15
L 347.7 125.55
Q 322.8 160.5 311.8 202.15 301.65 240.5 300.3 279.85 298.85 321 310.2 360.5 311.25 364.25 313.9 367.55 328.85 385.75 346.45 401.25 336.25 364.1 332.55 325.8 329.35 292.5 332.9 259.3 336.85 222.05 345.3 185.35 355.15 142.35 370.15 101.15
M 455.9 68
L 427.35 70.75
Q 403.25 76.7 382.9 91.05 382.7 91.2 382.55 91.35 368.85 124.7 359.15 159.75 349.2 195.75 343.3 232.65 332.95 297.65 345.75 362.45 350.65 387.2 358.8 411 381.95 428.15 410.05 434.15 396.5 375.9 397.75 315.55 400 207.5 439.25 106.85 446.95 87.15 455.9 68
M 550.95 164.5
Q 549 138.1 536.35 114.85 510.6 175.65 494.15 239.9 479.45 297.2 483.8 356.35 485.3 377.05 487.2 397.5 505.8 378.85 515.8 354.6 518.35 348.4 519.3 341.5 520.2 335 521.25 328.5 530.6 287.1 542.4 246.25 554.05 206.05 550.95 164.5
M 494.8 192.3
Q 499.8 177.6 505.15 162.95 510.55 148.2 516.1 133.45 521.4 119.4 528.6 106.1
L 519.4 93.2
Q 499 74.65 471.6 69.75 469.15 69.35 466.7 68.95 421.95 160.15 410.5 261 405.75 303.1 407.1 345.3 408.1 376.5 412.5 407.3 414.3 419.8 417.85 431.85 418.35 433.6 418.9 435.35 443.45 435.8 462.8 419.95 471.4 412.85 479.5 405.1 461.45 323.05 480.7 241.45 486.55 216.5 494.8 192.3
M 994.7 580.35
Q 994.05 583.15 993.55 586.3 999.6 595.75 1009.95 588.8 1019.95 582.05 1011.25 574 1008.7 571.7 1006.35 569 996.95 571.05 994.7 580.35
M 941.65 779.5
L 941.4 773.1 948.55 742.6 891 742.6
Q 912.45 784.05 928.65 827.55 933.6 840.85 938.3 854.35 947.35 880.5 956.5 906.65 1020.7 892.2 1086 898.85 1094.15 899.85 1102.3 900.85 1091.6 849.6 1068.2 802.85 1063.25 793 1057.5 783.65 1046.1 765.05 1035.2 746.45 1034 744.4 1032.85 742.35 997 766.2 961.65 790.7 948.95 799.45 940.05 788.65 938.3 786.6 939.1 783.85 939.8 781.35 941.65 779.5
M 882.35 745.4
Q 871.35 742.85 856.65 746.3 836.6 750.85 816.85 757.3 778.4 770 745.35 793.6 729.7 804.8 716 818.1 732.85 859.25 748.1 901.15 754.3 918.2 762.05 934.8 774.65 961.6 796.05 981.55 821.1 963.9 849.35 947.9 894.2 922.45 944.05 909.6 938.6 897.05 934.05 884.25 927.65 866.2 920.3 848.4 913.8 832.7 907.65 816.7 904.45 808.45 901.65 799.95 894.95 779.3 887.1 759 884.5 752.25 882.35 745.4
M 864.85 187.95
Q 855.3 175.4 844.95 163.55 813.8 127.65 779.4 95.2
L 778.9 129.4
Q 791.9 169 821.15 199.5 835.45 214.4 848.1 230.9 874.1 264.65 896.8 300.05 898.1 302.1 900.3 303.5 913.3 311.9 928.55 314.8 908.55 245.25 864.85 187.95
M 979.1 314.05
Q 982.25 312.5 985.3 310.75 977.15 248.6 949.7 192.05 938.35 168.7 924.2 146.9 881.35 80.65 821.6 28.95
L 812.05 36.9
Q 790.85 58.85 781.4 87.7 781 88.95 780.65 90.25 832.7 135.05 876.4 188.05 881.1 193.75 885.1 200.1 920.05 255.4 940.75 317.35 950.85 319.4 961.05 318.9 967.25 318.5 973.1 316.5 976.15 315.45 979.1 314.05
M 1025.15 269.8
Q 1031.45 260.6 1036.4 250.65 1026.25 205.05 1007.9 162.15 991.3 123.4 968.05 88.5 948.7 59.5 922 36.95 901.1 19.25 878.75 3.4 876.95 2.1 875.2 0.85
L 840.9 13.5 827.55 22.7
Q 862.9 53.9 893.05 90.15 919.8 122.25 941.4 158.1 963.05 194.1 978.25 233.35 990.65 265.5 995.1 299.5 995.3 301.2 995.45 302.95 1012.55 288.3 1025.15 269.8
M 1035.4 121.6
Q 1021.1 81.6 991.8 51.2 962.55 20.9 922.9 6.55 907.3 0.8 890.7 0 906.75 12.05 922.35 24.75 956.5 52.5 980.2 89.4 1014 142.05 1033.4 201.5 1038.95 218.65 1042.55 236.35
L 1050.6 203.65
Q 1049.55 161.3 1035.4 121.6
M 1306.7 711
Q 1302.9 704.2 1298.95 700.1 1293.85 694.9 1287.95 693.4 1281.8 691.85 1274.45 694.4 1269 696.3 1261.85 700.9 1238.9 715.65 1220.05 735.8 1201.25 755.95 1188.1 779.9 1186.1 783.5 1184.6 785.15 1182.3 787.8 1179.6 788.15 1175.05 788.75 1172.05 783.7 1169.7 779.7 1168.85 773.55 1161.75 720.5 1139.55 671.7 1134.95 661.7 1130.65 656 1124.65 648.05 1117.15 645.1 1108.6 641.75 1097.5 644.6 1089.45 646.7 1078.45 652.7 1053.55 666.35 1024.75 687.15 1007.9 699.25 976 724.2 967.8 744.25 961.5 765.05 1022.4 723.95 1082.9 682.35 1091.3 676.55 1101.1 678.5 1108.85 680 1110.55 687.9 1127.85 769.1 1155.25 847.3 1201.1 784.9 1255.15 730 1258.1 726.95 1262.3 727.8 1272.4 729.75 1276.35 739.95 1307.5 819.9 1334.2 901.25 1354.7 854.4 1386.4 814.35 1400.35 796.75 1418.5 783.45 1422.9 780.2 1427.15 780.9 1428.1 771.25 1427.8 764.8 1427.3 753.6 1423.25 745 1386.5 775.5 1361.6 816.55 1358.35 821.8 1355.75 824.3 1351.85 827.95 1347.65 827.7 1339.75 827.1 1335.85 813.35 1333.05 803.25 1329.75 787.25 1324.9 764.1 1324.2 761 1317.15 729.85 1306.7 711
M 1415.65 461.95
Q 1404.05 446.05 1384.5 447.3 1368.25 447.95 1354.55 457 1329.2 473.65 1305.05 491.95
L 1313.05 553 1325.6 559.1
Q 1335.3 537.9 1350.1 519.85 1360.3 507.5 1373.65 498.9 1386.1 490.8 1396.55 498.5 1398.55 499.9 1397.85 502.15 1391.6 522.6 1377 538.8 1363.6 553.65 1350.9 569.3
L 1386.6 587.6 1401.35 595.95
Q 1422.15 563.95 1429.85 526.6 1437.05 491.4 1415.65 461.95
M 1608.95 578.95
Q 1609.6 558.2 1602.35 538.55 1591.35 508.6 1572.95 482.4 1564.9 535.35 1541.85 583.55 1522.25 624.55 1493 659.25
L 1520.2 684.55 1547.35 715.4
Q 1564.5 690.9 1581.1 666 1607.5 626.3 1608.95 578.95
M 1447.55 392.15
Q 1407.35 381.15 1366.6 389.2 1328.95 396.6 1293.3 410.8 1289.55 412.35 1285.7 414.05
L 1303.1 482.4
Q 1323.25 464.95 1343.95 448.25 1360.45 435 1381.3 433.55 1409.05 432.1 1425.8 454.35 1447.75 483.6 1444.5 519.8 1442 547.75 1429.4 573.05 1421.8 588.25 1413.15 602.85
L 1457 631.3 1482.35 650.45
Q 1503.85 620.85 1521.05 588.6 1541.5 550.4 1550.45 507.9 1556.25 480.3 1550.65 452.6 1550.2 450.5 1548.7 448.7 1518.1 412.7 1472.3 399.05 1460 395.4 1447.55 392.15 Z"/>
</g>

<g id="S_mbolo_8_0_Layer2_0_FILL">
<path fill="#000000" stroke="none" d="
M 402.5 -427.5
Q 403.4 -492.95 380.15 -553.9 369.2 -582.65 349.1 -606 311.85 -649.2 255.85 -660.7 227.75 -666.4 200.85 -656.4 155.95 -639.7 144.2 -593.05 133.4 -550.2 143.8 -506.75 152.6 -470.1 164 -433.8 170.3 -413.7 174.55 -393.05 184.8 -343 186.65 -292 188 -254.75 186.1 -217.4 185.3 -202.1 181.8 -187.2 180.2 -180.5 177.05 -174.55 171.65 -164.15 169.4 -153.1 161.05 -146.4 152.55 -139.95 90.85 -93.05 35.5 -39.25 22.9 -27 11.25 -13.65 10.35 -15.35 9.4 -17 0.1 -32.8 -13.8 -45 -22.7 -52.9 -32.2 -60 -46.95 -71.1 -61.9 -81.75 -75.2 -91.3 -88.7 -100.8 -110.2 -115.95 -132.75 -129.85 -170.3 -209.1 -156.55 -295.6 -153.7 -313.5 -148.05 -330.7 -145 -340.05 -142.95 -349.6 -142.6 -351.15 -142.2 -352.65 -138.35 -366.55 -133.85 -380.3 -126.65 -402.3 -120.05 -424.5 -109.1 -461.25 -106.7 -499.5 -104 -542.25 -123.1 -580.15 -141.9 -617.6 -180.2 -633.7 -194.9 -639.85 -210.85 -638.95 -263.75 -635.95 -304.25 -600.6 -334.2 -574.45 -354.3 -540.25 -368.55 -515.95 -377.05 -488.9 -387.85 -454.5 -390.35 -418.45 -393.3 -376.4 -387.05 -334.85 -381.95 -301.15 -371.25 -269 -362.35 -242.3 -347.1 -218.6 -380.7 -228.1 -415.35 -231.5 -447.75 -234.35 -477.9 -223.05 -498.45 -215.4 -506.75 -195.1 -515.1 -174.85 -517.6 -152.85 -521.7 -116.4 -518.95 -79.7 -516.95 -53.25 -511.45 -27.35 -507.55 -9.15 -502.75 8.85 -494.7 39 -487.25 68.4 -560.4 81.9 -618.05 129.25 -670.6 172.4 -706.35 230.1 -725.2 260.55 -739.3 293.4 -749.2 316.45 -753.45 341.25 -757.9 367.3 -757.6 393.85 -757.4 412.85 -753.3 431.25 -749.35 448.9 -736.5 461.25 -754.05 484.85 -764.8 512.2 -776.75 542.5 -779.45 574.9 -781.9 604.25 -777.1 633.1 -772.2 662.75 -760.9 690.5 -749.75 717.85 -732.9 742.1 -708.5 777.15 -675.35 803.85 -677.85 817.3 -676.75 830.8 -674.65 856.2 -672.85 881.95 -668.25 947.85 -636.25 1004.5 -632.65 1010.9 -625.8 1010.55 -619.25 1009.9 -616.3 1003.65 -611.45 993.6 -607.7 983.35 -600.5 963.65 -594.05 943.45 -586.75 920.55 -578.9 897.7 -573.15 881.1 -566.55 864.8
L -485.5 889.2
Q -474.6 943.3 -458.3 995.9 -453.7 1010.9 -444.25 1023.25 -439.05 1030.15 -430.65 1029.95 -423.8 1029.8 -419.6 1024.35 -414.45 1017.8 -412.55 1009.75 -405.55 980.55 -396.65 952.25 -387.6 923.35 -375.4 895.65 -350.45 893.55 -326.75 885.5 -304.2 877.75 -284.95 863.9 -265.7 850.15 -249.75 832.55 -227.25 807.7 -210.55 778.75 -199.15 758.95 -191.9 737.35 -183.85 713.45 -181.9 688.4 -172.15 695.95 -161.55 702.3 -119.45 727.55 -73.4 745.5 -38.65 758.9 -1.85 764.4 36.4 770.05 75 767.1 107.7 764.5 139.2 755.55 168.4 747.5 194.8 733.05 213.35 722.8 229.9 709.25 251.9 691.3 268.7 668.25 269.85 675 271.1 681.8 277.3 715 289.45 746.65 299.95 774.1 315.25 799.2 330.5 824.35 350.5 846.05 370.45 867.7 394.75 884.35 421.05 902.4 448.6 915.65 450.1 921.95 452.4 927.9 467.55 967.75 476.85 1009.4 478.6 1017.2 477.85 1025.2 476.7 1037.5 489 1039.7 496.35 1041.2 501.3 1035.65 514.65 1020.5 523.45 1002.15 527.1 994.6 530.65 986.8 534.25 979 537.4 971.15 545.45 951.4 550.95 930.8
L 615.9 921.55
Q 628.1 950.45 639.1 980 641.25 985.75 639.25 991.4 636.65 998.8 639.1 1006.05 643.05 1017.6 655.15 1016.3 662.3 1015.85 666.6 1009.75 679.95 990.85 691.4 970.65 704.05 948.45 715.2 925.5 720.7 914.15 723.8 902.1 727.8 886.4 730.2 870.35 758.4 851.55 782.7 827.95 811.7 799.75 834.3 766.1 857.8 731.1 873.75 692.1 889.9 652.6 898.6 610.7 907.2 569.1 908.35 526.7 909.5 485.95 902.6 445.85 901.2 438.6 899.1 431.3 894.6 415.7 892.95 399.65 888.15 352.85 871.6 308.65 845.65 239.4 801.25 180.25 765.9 133.15 721.25 95.2 697.75 75.25 669.7 62.45 642.9 50.15 614.35 42.15 605.85 39.85 597.5 37.55 582.05 33.4 566.6 29.35 551.1 25.15 535.8 20.75 538.5 -38.95 538.2 -98.6 538 -134.45 536.3 -170.25 534.25 -213 525.15 -254.9 521.6 -271.15 513.7 -285.55 506.75 -298.15 493.55 -303.8 478.65 -310.35 462.7 -306.4 426.05 -297.25 391.95 -280.35 397.3 -312.1 399.3 -344.35 401.9 -385.9 402.5 -427.5
M 343.35 -574.65
Q 363.15 -538.75 370.7 -498.45 378.4 -457.2 378.4 -415.2
L 377.2 -359.9
Q 373.3 -425.4 349.6 -486.6 331.4 -533.65 306.55 -577.75 287.95 -610.75 260 -636.5 271.25 -634.6 281.75 -630.3 321.9 -613.45 343.35 -574.65
M 191.95 -631.85
L 199.1 -634.65
Q 247.85 -573.9 276.85 -502 287.05 -476.8 293.5 -450.5 297.3 -434.9 301.05 -419.35 303.5 -409.25 305.45 -399.3 313.35 -359.25 314.05 -318.25
L 271.55 -328.9
Q 267.8 -350.4 262.95 -371.75 253.75 -412.1 240.5 -451.1 214.55 -527.45 165.25 -591.25 166.15 -594 167 -596.8 173.6 -618.8 191.95 -631.85
M 206.3 -636.95
L 238 -639 246.25 -638.3
Q 277.4 -613.15 296.9 -578.05 323.15 -530.85 341.8 -479.95 367.15 -410.9 368.95 -337.55 366.5 -335.55 364 -333.65 345.7 -319.75 322.8 -318.25 321.8 -364.45 311.95 -409.5 305.85 -437.4 298.6 -465 287.55 -507.25 266.75 -545.75 240.65 -593.85 206.3 -636.95
M 163.5 -584.6
Q 168.05 -578.95 172.1 -572.95 214.35 -510.4 236.15 -438.1 237.5 -433.55 238.75 -429.05 251.6 -381.55 261 -333.2 258.1 -334.65 255.25 -336.05 246.3 -340.65 239.5 -348.2 219.95 -370.05 206 -396.15 195.45 -415.8 187.4 -436.45 171.9 -476.1 163 -517.95 156.9 -551.3 163.5 -584.6
M 254.95 -320.7
Q 259.8 -318.35 265.05 -315.95
L 268.95 -311.65 271.85 -313
Q 283.3 -308 295.3 -304.6 320 -297.85 344.3 -305.4 354.75 -308.65 364.75 -313.55 368.6 -315.35 372.25 -315.95
L 367.05 -268.95
Q 330.45 -251.7 295 -232.05 259.35 -212.15 225.15 -190.25
L 187.65 -165.05
Q 202.4 -212.65 204.9 -262.55 206.3 -290.3 204.7 -317.95 203.2 -344.3 199.15 -370.4 198.45 -374.85 198.05 -379.3 199.7 -376.6 201.2 -373.8 215.9 -346.5 240.85 -328.85 247.55 -324.1 254.95 -320.7
M 155.85 -68.8
Q 152.6 -85.6 149.3 -102.35 163.8 -113.35 178.45 -124.2 296 -210.7 430.7 -267.3 450.2 -275.55 470.9 -278.9 479.65 -280.5 485.65 -274.1 491.15 -268.25 492.7 -260.15 500.1 -221.1 503.3 -181.3 506.55 -140.8 506.9 -100 507.25 -64.4 506.25 -28.8 505.2 9.95 501.75 48.4 495.25 121.45 475.2 191.75 460.2 244.2 438.55 294.25 430.85 312 423.75 330.05 417.7 345.55 412.05 361.35 378.25 387.35 348.7 418.15 321.7 446.3 300.2 478.75
L 275.4 528.55
Q 274.45 524.75 273.5 520.95 265.1 487.55 258.3 453.8 250.6 415.45 244.55 376.55 240.5 350.7 236.6 324.95 233.3 303.25 229.45 281.8 225.75 261.25 225.1 241.3 224.95 240.4 224.75 239.55 224.35 238 224.1 236.65 220 214.75 216.1 192.8 211.65 167.85 205.65 143.5 203.15 133.3 200.3 123.15 194.3 102.1 188.5 81 176.05 35.9 167.25 -9.85 161.6 -39.35 155.85 -68.8
M 571.75 82.5
Q 572.05 82.6 572.35 82.75 592.9 91.5 612.65 105.2 630.6 117.65 648.25 134.45 663.65 149.2 679.75 168.2 691.3 181.85 698.35 192.2 704.5 201.1 710.9 212.55 715.45 220.65 722.1 233.7 735.25 259.45 747.9 286.3
L 686.6 277 636 279.45
Q 635.2 278.95 633.65 278.05 626.3 273.95 618.3 267.6 617.6 267.05 616.8 266.4 609.75 259.2 603.5 251.25 561.9 198.3 531.45 138 527.45 128.7 524.4 121.65
L 531.65 72.2
Q 552.5 75.1 571.75 82.5
M 584.8 57.05
Q 614 65.05 642.2 75.6 664.45 84.1 684.4 97 713.55 115.9 737.15 141.55 769.7 176.85 797.65 215.8 839.7 274.25 857.85 343.85 853.1 338.05 847.75 332.6 817.2 301.75 774.85 291.8
L 767 288.25
Q 759.8 273.6 752.4 259 738.9 232.6 723.15 207.65 712.25 190.35 699.8 174.3 695.65 168.65 691.4 163.3 667.6 133.25 639.8 110.6 610 86.4 577.3 72 568.25 68 560.85 65.7 551.8 62.9 543.65 62.05 539.2 61.6 532.75 61.65
L 534.45 41.7
Q 559.4 50.1 584.8 57.05
M 507.8 193.1
L 521.5 136.5
Q 539.2 180.45 567.95 225.3 579.8 243.75 589.65 255.45 602.65 270.85 616.6 280.35 617.55 281 618.55 281.65
L 580.2 288.85 576.85 289.15
Q 577.4 288.4 577.65 287.6 580.6 278.7 572.6 272.65 530.35 241.2 507.8 193.1
M 499.35 220.55
Q 508.85 236.25 519.9 251.15 526.8 260.5 534.5 269.15 548.45 284.85 567.4 291.65
L 503.6 309.85 450.55 335.45
Q 480 280.1 499.35 220.55
M 542.2 320.55
Q 578.55 307.8 616.7 301.55 659.05 294.45 702.05 296.65 745.6 298.35 783.85 319 827.7 346.35 848.55 393.9 850 397.25 851.4 400.65 860.8 424.05 864.95 448.7 870.95 484.65 869.85 521.15 868.7 557.65 862.2 593.55 851.25 654.25 823.2 709.45 802.85 749.55 773.35 783.5 756.9 802.5 737.7 818.7 719.4 834.1 698.9 846.7 676.75 860.45 652.8 870.35 624.85 882 595.1 888.05 559.4 895.65 523.15 893.5 470.6 890.45 425.9 862.5
L 439.55 761.45
Q 477.75 798.1 526.3 819.15 543.25 826.5 561.45 825.15 572 824.2 578.65 816 584 809.45 586.85 801.6 591.05 789.9 593.55 777.8 597.1 760.6 598.9 743.25 601 723.25 601.2 703.1 601.55 665.65 599.55 628.25 602 630.15 604.5 632.1 651.05 668.5 708.1 682.7 709.5 683 710.95 683.15 722.1 684.4 732.2 679.65 739.85 676.05 744.55 668.95 752.2 657.35 753 643.3 755.4 600.45 753.3 557.7 751.95 529.9 747.4 502.65 743.25 477.8 731.55 455.6 725.5 444.2 716.9 434.65 710.25 427.25 701.35 423.3 693.95 420.05 686.15 422.1 679.1 423.8 674.3 429.1 662.6 442.2 663.1 460.3 664.8 523.2 670.35 584.8 637.1 571.65 604.8 556.05 576.5 542.35 549.75 525.9 537.65 518.45 523.7 516.45 514.4 514.85 510.85 523.45 507.4 531.65 508.05 540.7 509.6 562.35 511.6 584.15 512.85 597.95 514.05 611.85 514.95 622.25 515.8 632.4 519.85 680.6 508.5 727.35 466.45 698.3 427.3 665.2 416.55 656.2 406.75 646.3 394.65 634.15 379.45 627.1 372.85 624.1 368.25 629.3 363.5 634.7 363.7 642.05 365.9 726.15 367.45 810.25 350.9 789.6 338.3 766.4 318.05 728.95 306.7 687.9 296.1 649.55 294.8 609.7 293.35 566.55 307.9 526.15 321.7 487.8 347.65 456.1 374.5 423.45 407.15 396.5 436.95 371.8 470.7 352.95 505.05 333.65 542.2 320.55
M 1.45 13.5
Q 15.95 22.1 27.35 6.9
L 136.35 -92.05
Q 152.6 16.2 183.45 121.55 41.85 70.25 -106.85 96.35 -184.4 109.9 -234.95 169.05 -234.2 81.2 -216.4 -4.95 -212.2 -25.35 -208.35 -45.9 -200.25 -88.85 -181.7 -128.2 -135.1 -102.9 -91.3 -72.95 -63.9 -54.25 -38.2 -33.6 -16.4 -16.05 -1.25 7.35 -1.15 8.7 -0.9 10.05 -0.5 12.3 1.45 13.5
M 130.15 122.7
Q 140.05 125.55 149.45 129.55 168.6 137.9 188.55 140.2
L 203.45 215.85 205.05 225.85
Q 154.5 210.65 101.55 207.05 86.8 206.15 75.4 202.65
L 68.4 108.9
Q 99.75 113.95 130.15 122.7
M 217.8 309.3
Q 220.9 329.7 224 350.2 229.75 388.1 236.3 425.8 247.05 487.8 261.85 548.85 264 557.85 263.9 566.8 263.65 587 263.8 607.4 261.75 610.35 260.25 613.5 249.9 635.4 235 654.65 211.95 684.35 179.45 703.15 153.25 718.3 123.75 726.35 102.55 732.05 80.55 734.4 47.9 737.9 15.05 735.1 -46.8 730.25 -104.65 707.75 -144.95 692.05 -181.1 668.4 -181.15 647.65 -184.65 627.3 -191.7 586.15 -211.5 549.4 -213.8 545.45 -216.15 541.55 -218.5 537.7 -219.5 533.55 -223.05 519.15 -223.95 504.25 -226.5 463.15 -228.2 422.05 -230.6 364.6 -232.7 307.15 -227.15 303.05 -221.55 298.95 -193.1 278.65 -161.9 263.3 -116.15 240.85 -66.45 229.25 5.55 212.6 79.25 218.65 145.45 224 208.1 245.65 212.95 277.4 217.8 309.3
M 50.85 106.95
L 57.9 203.4
Q -27.9 200.25 -109.8 226 -99.45 189.5 -96.25 151.6 -94.4 129.3 -92.4 106.7
L -41.15 102.15 50.85 106.95
M 531.15 542.1
Q 551.75 553.35 572.3 564.35 616.75 588.1 663.35 607.7 674.4 612.3 685.1 607.95 689.9 605.95 691.25 601.05 698.7 574.3 694.8 546.05 688 497 692 447.8 709.45 462 716 483.6 726.6 518.45 728.25 555 730.1 595.8 728.5 636.5 728.3 641.65 726.6 646.65 721.35 662.25 704.85 656.75 664.3 643.35 629.95 617.6 613.7 605.4 596.45 594.7 588.05 589.45 580.3 595.25 575.2 599.1 575.25 605.55 575.45 641.9 576.6 678.5 577.85 719.8 571.4 760.45 568.85 776.7 562.8 792 559.45 800.5 550.45 799.15 538.5 797.1 527.5 791.6 489.65 772.55 457.45 745.3 450 739.05 441.4 735.1 423.5 726.95 420.2 746.5
L 404.6 847.35 391.5 834.15 388.05 661.15
Q 442.85 709.5 503.85 750.15 515.65 758 526.55 750.05 529.4 748 530 744.35 547 643.65 531.15 542.1
M 676.3 928
L 653.3 969.5
Q 648.65 960.7 645.45 951.35 639.35 933.65 628.35 918.2
L 690.65 893.5 676.3 928
M 495.8 927.55
L 521.6 930.95 492.85 997.55 470.3 921.75 495.8 927.55
M -238.1 -616.1
L -212.95 -619.65
Q -215.25 -616.15 -217.4 -612.55 -232.95 -586.3 -244.75 -558.05 -252.05 -540.6 -259.05 -523.2 -264 -510.95 -268.15 -498.45 -296.3 -413.5 -295.55 -324 -295.45 -310.6 -294.15 -297.25 -293.3 -288.35 -296.45 -285.95 -303.95 -287.9 -310.3 -292.6 -325.75 -304.15 -336.65 -320 -338.8 -339.05 -338.95 -358.3 -339.3 -398.35 -331.75 -437.65 -324.2 -476.65 -310.6 -514.1 -296.8 -551.95 -277.85 -587.35 -265.05 -611.25 -238.1 -616.1
M -200.65 -618.7
Q -198.95 -618.4 -197.25 -618.1 -174 -613 -156.95 -596.1
L -154.9 -592.9
Q -163.8 -584.1 -169.45 -572.9 -188 -536.3 -202.2 -498.05 -214.55 -464.65 -220.2 -429.45 -222.35 -416.05 -223.45 -402.6 -224.9 -385.1 -226.05 -367.5 -227.55 -345.3 -225.8 -323.2 -224.7 -309.15 -223.6 -297.1 -229.55 -293.55 -236.2 -291.4 -242.8 -289.2 -249.8 -287.9 -268.95 -284.05 -288.45 -284.65 -288.85 -292.5 -288.9 -300.25 -289 -321.2 -287.5 -342.1 -286.2 -360.25 -284.55 -378.45 -281.55 -410.85 -274.55 -442.95 -253.8 -537.65 -200.65 -618.7
M -284.6 -592.6
Q -301.05 -563.4 -311.7 -531.8 -320.3 -506.35 -328 -480.7 -336.6 -451.9 -340.65 -422 -347 -375.5 -342.2 -328.35 -361.15 -360.65 -369.6 -397.25 -370.8 -402.35 -371.15 -407.45 -372.75 -430.8 -368 -454.05 -359.55 -495.4 -338.35 -531.8 -335.55 -536.3 -332.65 -540.75 -313.25 -570.85 -284.6 -592.6
M -148.75 -587.05
Q -135.75 -570.65 -130.3 -550.35 -119.55 -510.2 -128.85 -469.45 -137.95 -429.35 -151.65 -390.6 -154.55 -381.35 -156.4 -372 -159.6 -355.5 -171.05 -343.4 -191.15 -322.2 -214 -303.65 -213.75 -320.65 -214.25 -337.6 -215.15 -367.2 -212.1 -396.85 -201.5 -499.05 -148.75 -587.05
M -371.9 -366.4
Q -362 -333.35 -342.15 -305.7 -320.45 -275.45 -284.2 -270.4 -263.6 -267.45 -243.45 -272.05 -224.4 -276.6 -207.05 -286.05 -188.1 -296.5 -172.4 -311 -173.15 -306.75 -173.9 -302.45 -181.25 -260.5 -177.95 -217.95 -175.05 -180.7 -161.05 -146
L -222.8 -175.4 -328.25 -213.35
Q -331.85 -220 -335.15 -226.75 -345.15 -246.95 -352 -268.35 -367.3 -316.35 -371.9 -366.4
M -493.15 -154.75
Q -491.4 -166.95 -486.45 -178.2 -474.7 -204.85 -444.5 -205.25 -402.35 -205.85 -361.55 -195.3 -322.05 -185.05 -283.65 -171.5 -244.85 -157.9 -207.35 -140.95
L -190 -132.5
Q -204.25 -110.25 -211.7 -84.8 -244.25 26.65 -247.9 142.8 -248.8 172.3 -251.9 200.7
L -250.3 202.8 -250.1 311.45 -248.7 313.4 -240.65 509.7
Q -250.3 500 -261.2 491.75 -280.45 477.1 -300.3 463.65 -328.5 444.55 -358.25 427.9 -361.75 417.25 -365.15 406.45 -378 365.65 -390.1 324.7 -401.6 285.75 -412.55 246.55 -423.05 208.85 -433.25 171 -444 130.9 -454.85 90.85 -465.55 51.45 -476.1 11.95 -486.8 -28.05 -492.95 -69.1 -499.4 -111.95 -493.15 -154.75
M -730.3 369.45
Q -728.5 350.6 -722.95 332.45 -700.4 258.8 -650.4 199.6 -582.4 118.95 -481.25 89.95
L -473.9 117.55
Q -494.1 130.05 -511.1 146.85 -540.5 175.8 -566.3 207.9 -593.75 242.2 -610.2 282.95 -616.65 298.95 -623.55 314.75 -639.5 351.5 -643.35 391.15
L -655.1 395.75
Q -691.35 411.65 -718.8 440.25 -722.85 432.8 -725.2 424.7 -733.05 397.65 -730.3 369.45
M -750.9 593.15
Q -750.25 551.2 -732.9 513 -715.85 475.45 -683.45 450.05 -650.7 424.35 -609.9 415.5 -568.6 406.45 -526.45 410.85 -484.75 415.05 -444.35 426.35 -403.35 437.95 -363.35 452.6 -345.65 459.2 -340.15 477.65 -336.2 483.45 -330.2 487.1 -320.1 493.2 -310 499.2 -285.65 513.7 -266.5 534.6 -248.8 553.9 -236.85 577.3 -199.1 651.1 -223.2 730.8 -227.95 730.75 -232.65 730.8 -245.95 730.95 -258.9 733.95 -335.95 751.25 -414.3 757.35 -418.55 734.25 -420.7 711.1 -424.35 672 -427.05 632.35 -428.65 609.4 -431.2 586.7 -433.2 569.1 -439.3 552.55 -442.75 543.3 -452.15 541.9 -457.05 541.45 -460.75 544.75 -511.75 590.35 -573.85 618.65 -595.8 567.05 -618 515.55 -619 513.25 -620.55 511.3 -628.55 501.2 -641.55 499.2 -653.25 497.6 -656.45 509.15 -660.2 522.55 -659.5 536.75 -657.9 570.5 -648.15 602.7 -639.1 632.55 -623.65 659.6 -614.65 675.5 -601.1 687.05 -591.15 695.4 -579.75 688.8 -536.35 663.55 -496.35 633.6 -494.95 669.45 -487.95 704.55 -476.9 759.75 -455.15 811.5 -451.6 820 -442.9 822.85 -433.8 825.9 -424.85 822.9 -406.5 816.6 -388.45 809.7 -321.9 784.1 -250.4 785.45 -271.7 816.35 -302.55 838.05 -337.65 862.8 -380.1 865 -390.95 865.95 -401.9 866.15 -443.45 867 -484.2 858.85 -524.15 851.1 -562.4 836.45 -600.7 821.65 -634.8 798.35 -668.8 775.15 -695.1 743.35 -721.7 711.15 -736.75 672.3 -751.55 634.05 -750.9 593.15
M -147.3 120.65
Q -126.25 112.55 -106.5 110.15
L -123.5 230.75
Q -137.2 235.85 -150.5 241.7 -195.1 261.25 -233.2 291.25
L -235.05 190.4
Q -217.65 162.35 -190.45 143.55 -170.2 129.5 -147.3 120.65
M -630.2 387.5
Q -630.95 383.6 -630.4 378.8 -630 375.45 -628.75 370.05 -620.2 333.9 -603.4 298.5 -587.45 264.85 -564.7 233.05 -526.8 180.15 -469.95 132.35
L -449.65 211.25
Q -450.6 213.75 -451.7 216.7 -455.2 225.75 -458.25 231.55 -461.05 236.75 -466.5 244.9 -473.05 254.7 -475.1 258.1 -477.1 261.4 -480.4 267.5 -484.05 274.15 -485.65 276.9 -491.95 287.6 -501.8 299.55 -507.9 306.95 -520.25 320.45 -539.45 341.3 -551.5 351.75 -569.95 367.8 -588 375.65 -590.45 376.7 -591.35 377.2 -593.2 378.15 -594.3 379.35 -595 380.05 -595.4 380.9
L -630.2 387.5
M -557.2 371.75
Q -545.7 363.55 -531.85 350.1 -499.2 318.5 -474.65 281.75 -456.95 255.3 -444.15 227.3
L -427.3 287.2
Q -433 293.3 -437.7 300.15 -453.35 323.05 -472 343.65 -491.4 365.1 -515.35 381
L -567.75 378.6
Q -562.5 375.55 -557.2 371.75
M -480.55 385.4
Q -445.2 355.75 -418.35 318.3
L -390.05 412.8 -480.55 385.4
M -642.05 517.55
Q -642.05 517.75 -641.2 518.05 -640.05 518.6 -639.7 519.5 -636.5 527.3 -633.3 535.5 -618.8 572.6 -603.2 608.95 -602.45 610.8 -601.75 612.7 -597.85 623.25 -591.5 632.45 -584.5 642.7 -572.55 640.1 -552.25 635.6 -534.45 624.5 -493.65 599.25 -455.95 569.25 -447.35 664.25 -439.7 759.3 -438.85 770 -431.5 777.25 -429.25 779.45 -426.25 779.75 -388.25 782.45 -350.65 774.95 -309.7 766.65 -268.55 759.9
L -233.25 756.15 -238.9 767.1
Q -256.55 768.4 -274.1 769.9 -275.15 769.95 -276.15 770.05 -352.3 775.65 -422.55 805.95 -427.8 808.25 -433.3 808 -436.6 807.5 -438 804.6 -480.15 718.3 -482 621.7 -482.1 615.65 -486.85 612.65 -491.1 611.9 -494.65 614.4 -534.85 643.1 -575 671.85 -578.2 674.15 -581.85 675.95 -588.95 679.5 -594.9 674.55 -604.25 666.85 -610.65 656.45 -649.85 592.6 -642.05 517.55
M -451.45 919.45
L -457.55 892.55 -408.05 898.05 -434.5 979 -451.45 919.45
M -611.25 845.1
L -592.7 854 -633.2 976.85
Q -651.7 930.75 -656.9 881.25 -660.45 847.75 -661.65 814.35
L -611.25 845.1
M -269.3 431.5
Q -271.4 428.8 -274.05 426.45 -285.85 416.15 -297.15 425.7 -303.95 442.05 -287.15 452.15 -278.7 457.1 -271.65 451.15 -261.05 442.25 -269.3 431.5
M -276.55 437.45
Q -276.55 440.95 -278.7 443.45 -280.85 445.9 -283.9 445.9 -286.95 445.9 -289.1 443.45 -291.25 440.95 -291.25 437.45 -291.25 433.95 -289.1 431.5 -286.95 429 -283.9 429 -280.85 429 -278.7 431.5 -276.55 433.95 -276.55 437.45
M -313.05 237.75
Q -300.8 237.75 -292.1 231.55 -283.45 225.35 -283.45 216.55 -283.45 207.75 -292.1 201.55 -300.8 195.35 -313.05 195.35 -325.3 195.35 -333.95 201.55 -342.65 207.75 -342.65 216.55 -342.65 225.35 -333.95 231.55 -325.3 237.75 -313.05 237.75
M -320.25 205.25
Q -307.1 206.85 -296.85 215.05
L -296.25 219.6
Q -297.45 222.05 -300.4 223.5 -317.2 232.2 -330.35 219.3 -331.7 218 -331.55 216.35 -330.8 207.15 -320.25 205.25
M -288 -10.8
Q -290.95 -12.35 -292.6 -14.9 -297.65 -22.4 -306.7 -21.25 -316.9 -19.65 -324.05 -12.15 -329.55 -6.3 -331.25 1.15 -333.1 9.3 -328.35 16.65 -314.75 37.9 -290.25 28.95 -285.35 27.35 -281.3 24.15 -277.35 20.95 -275.9 16.15 -270.6 -1.3 -288 -10.8
M -310 -7.3
Q -305.85 -6.6 -301.8 -4.95 -294.3 -2 -288.9 3.75 -282.9 10.2 -290.4 15.15 -306.8 26 -317.55 11.1
L -321 3.75 -310 -7.3
M 306.95 443.45
Q 306.95 435.8 302.15 430.4 297.3 425 290.5 425 283.7 425 278.9 430.4 274.05 435.8 274.05 443.45 274.05 451.1 278.9 456.5 283.7 461.9 290.5 461.9 297.3 461.9 302.15 456.5 306.95 451.1 306.95 443.45
M 283.55 436.65
Q 285.8 433.9 289 433.9 292.2 433.9 294.45 436.65 296.7 439.4 296.7 443.3 296.7 447.2 294.45 449.95 292.2 452.7 289 452.7 285.8 452.7 283.55 449.95 281.3 447.2 281.3 443.3 281.3 439.4 283.55 436.65
M 297.85 245.1
Q 298.05 239.45 295.15 234.45 290.75 227 282.75 226.05 261.05 223.25 252.75 243.35 246.65 258.2 258.55 267.2 261 269.05 263.85 269.05 288.1 269.2 297.85 245.1
M 285.05 240.45
L 288.1 245.65
Q 288 248.35 286.25 250.05 274.65 261.85 260.2 256.4 255.05 254.5 256.1 248.95 258.55 236.15 272.2 232.05
L 285.05 240.45
M 277.25 -4.3
Q 278.5 -6.8 277.5 -9.4 271.25 -25 252.6 -28.35 231.35 -32.85 222.5 -11.5 217.3 1.05 227.75 9.55 239.1 18.85 253.55 14.95 270.15 10.25 277.25 -4.3
M 232.35 -2.3
Q 231.1 -4.2 232.25 -6 240.25 -18.55 256.65 -12.55
L 262.85 -8.25
Q 262.35 -3.55 257.9 -1.35 253.6 0.7 249.3 2.55 238.55 7.2 232.35 -2.3 Z"/>

<path fill="#B45A2F" stroke="none" d="
M -592.7 854
L -611.25 845.1 -661.65 814.35
Q -660.45 847.75 -656.9 881.25 -651.7 930.75 -633.2 976.85
L -592.7 854
M -457.55 892.55
L -451.45 919.45 -434.5 979 -408.05 898.05 -457.55 892.55
M -732.9 513
Q -750.25 551.2 -750.9 593.15 -751.55 634.05 -736.75 672.3 -721.7 711.15 -695.1 743.35 -668.8 775.15 -634.8 798.35 -600.7 821.65 -562.4 836.45 -524.15 851.1 -484.2 858.85 -443.45 867 -401.9 866.15 -390.95 865.95 -380.1 865 -337.65 862.8 -302.55 838.05 -271.7 816.35 -250.4 785.45 -321.9 784.1 -388.45 809.7 -406.5 816.6 -424.85 822.9 -433.8 825.9 -442.9 822.85 -451.6 820 -455.15 811.5 -476.9 759.75 -487.95 704.55 -494.95 669.45 -496.35 633.6 -536.35 663.55 -579.75 688.8 -591.15 695.4 -601.1 687.05 -614.65 675.5 -623.65 659.6 -639.1 632.55 -648.15 602.7 -657.9 570.5 -659.5 536.75 -660.2 522.55 -656.45 509.15 -653.25 497.6 -641.55 499.2 -628.55 501.2 -620.55 511.3 -619 513.25 -618 515.55 -595.8 567.05 -573.85 618.65 -511.75 590.35 -460.75 544.75 -457.05 541.45 -452.15 541.9 -442.75 543.3 -439.3 552.55 -433.2 569.1 -431.2 586.7 -428.65 609.4 -427.05 632.35 -424.35 672 -420.7 711.1 -418.55 734.25 -414.3 757.35 -335.95 751.25 -258.9 733.95 -245.95 730.95 -232.65 730.8 -227.95 730.75 -223.2 730.8 -199.1 651.1 -236.85 577.3 -248.8 553.9 -266.5 534.6 -285.65 513.7 -310 499.2 -320.1 493.2 -330.2 487.1 -336.2 483.45 -340.15 477.65 -345.65 459.2 -363.35 452.6 -403.35 437.95 -444.35 426.35 -484.75 415.05 -526.45 410.85 -568.6 406.45 -609.9 415.5 -650.7 424.35 -683.45 450.05 -715.85 475.45 -732.9 513
M -486.45 -178.2
Q -491.4 -166.95 -493.15 -154.75 -499.4 -111.95 -492.95 -69.1 -486.8 -28.05 -476.1 11.95 -465.55 51.45 -454.85 90.85 -444 130.9 -433.25 171 -423.05 208.85 -412.55 246.55 -401.6 285.75 -390.1 324.7 -378 365.65 -365.15 406.45 -361.75 417.25 -358.25 427.9 -328.5 444.55 -300.3 463.65 -280.45 477.1 -261.2 491.75 -250.3 500 -240.65 509.7
L -248.7 313.4 -250.1 311.45 -250.3 202.8 -251.9 200.7
Q -248.8 172.3 -247.9 142.8 -244.25 26.65 -211.7 -84.8 -204.25 -110.25 -190 -132.5
L -207.35 -140.95
Q -244.85 -157.9 -283.65 -171.5 -322.05 -185.05 -361.55 -195.3 -402.35 -205.85 -444.5 -205.25 -474.7 -204.85 -486.45 -178.2
M -292.6 -14.9
Q -290.95 -12.35 -288 -10.8 -270.6 -1.3 -275.9 16.15 -277.35 20.95 -281.3 24.15 -285.35 27.35 -290.25 28.95 -314.75 37.9 -328.35 16.65 -333.1 9.3 -331.25 1.15 -329.55 -6.3 -324.05 -12.15 -316.9 -19.65 -306.7 -21.25 -297.65 -22.4 -292.6 -14.9
M -292.1 231.55
Q -300.8 237.75 -313.05 237.75 -325.3 237.75 -333.95 231.55 -342.65 225.35 -342.65 216.55 -342.65 207.75 -333.95 201.55 -325.3 195.35 -313.05 195.35 -300.8 195.35 -292.1 201.55 -283.45 207.75 -283.45 216.55 -283.45 225.35 -292.1 231.55
M -274.05 426.45
Q -271.4 428.8 -269.3 431.5 -261.05 442.25 -271.65 451.15 -278.7 457.1 -287.15 452.15 -303.95 442.05 -297.15 425.7 -285.85 416.15 -274.05 426.45
M -342.15 -305.7
Q -362 -333.35 -371.9 -366.4 -367.3 -316.35 -352 -268.35 -345.15 -246.95 -335.15 -226.75 -331.85 -220 -328.25 -213.35
L -222.8 -175.4 -161.05 -146
Q -175.05 -180.7 -177.95 -217.95 -181.25 -260.5 -173.9 -302.45 -173.15 -306.75 -172.4 -311 -188.1 -296.5 -207.05 -286.05 -224.4 -276.6 -243.45 -272.05 -263.6 -267.45 -284.2 -270.4 -320.45 -275.45 -342.15 -305.7
M 521.6 930.95
L 495.8 927.55 470.3 921.75 492.85 997.55 521.6 930.95
M 653.3 969.5
L 676.3 928 690.65 893.5 628.35 918.2
Q 639.35 933.65 645.45 951.35 648.65 960.7 653.3 969.5
M 224 350.2
Q 220.9 329.7 217.8 309.3 212.95 277.4 208.1 245.65 145.45 224 79.25 218.65 5.55 212.6 -66.45 229.25 -116.15 240.85 -161.9 263.3 -193.1 278.65 -221.55 298.95 -227.15 303.05 -232.7 307.15 -230.6 364.6 -228.2 422.05 -226.5 463.15 -223.95 504.25 -223.05 519.15 -219.5 533.55 -218.5 537.7 -216.15 541.55 -213.8 545.45 -211.5 549.4 -191.7 586.15 -184.65 627.3 -181.15 647.65 -181.1 668.4 -144.95 692.05 -104.65 707.75 -46.8 730.25 15.05 735.1 47.9 737.9 80.55 734.4 102.55 732.05 123.75 726.35 153.25 718.3 179.45 703.15 211.95 684.35 235 654.65 249.9 635.4 260.25 613.5 261.75 610.35 263.8 607.4 263.65 587 263.9 566.8 264 557.85 261.85 548.85 247.05 487.8 236.3 425.8 229.75 388.1 224 350.2
M 27.35 6.9
Q 15.95 22.1 1.45 13.5 -0.5 12.3 -0.9 10.05 -1.15 8.7 -1.25 7.35 -16.4 -16.05 -38.2 -33.6 -63.9 -54.25 -91.3 -72.95 -135.1 -102.9 -181.7 -128.2 -200.25 -88.85 -208.35 -45.9 -212.2 -25.35 -216.4 -4.95 -234.2 81.2 -234.95 169.05 -184.4 109.9 -106.85 96.35 41.85 70.25 183.45 121.55 152.6 16.2 136.35 -92.05
L 27.35 6.9
M 616.7 301.55
Q 578.55 307.8 542.2 320.55 505.05 333.65 470.7 352.95 436.95 371.8 407.15 396.5 374.5 423.45 347.65 456.1 321.7 487.8 307.9 526.15 293.35 566.55 294.8 609.7 296.1 649.55 306.7 687.9 318.05 728.95 338.3 766.4 350.9 789.6 367.45 810.25 365.9 726.15 363.7 642.05 363.5 634.7 368.25 629.3 372.85 624.1 379.45 627.1 394.65 634.15 406.75 646.3 416.55 656.2 427.3 665.2 466.45 698.3 508.5 727.35 519.85 680.6 515.8 632.4 514.95 622.25 514.05 611.85 512.85 597.95 511.6 584.15 509.6 562.35 508.05 540.7 507.4 531.65 510.85 523.45 514.4 514.85 523.7 516.45 537.65 518.45 549.75 525.9 576.5 542.35 604.8 556.05 637.1 571.65 670.35 584.8 664.8 523.2 663.1 460.3 662.6 442.2 674.3 429.1 679.1 423.8 686.15 422.1 693.95 420.05 701.35 423.3 710.25 427.25 716.9 434.65 725.5 444.2 731.55 455.6 743.25 477.8 747.4 502.65 751.95 529.9 753.3 557.7 755.4 600.45 753 643.3 752.2 657.35 744.55 668.95 739.85 676.05 732.2 679.65 722.1 684.4 710.95 683.15 709.5 683 708.1 682.7 651.05 668.5 604.5 632.1 602 630.15 599.55 628.25 601.55 665.65 601.2 703.1 601 723.25 598.9 743.25 597.1 760.6 593.55 777.8 591.05 789.9 586.85 801.6 584 809.45 578.65 816 572 824.2 561.45 825.15 543.25 826.5 526.3 819.15 477.75 798.1 439.55 761.45
L 425.9 862.5
Q 470.6 890.45 523.15 893.5 559.4 895.65 595.1 888.05 624.85 882 652.8 870.35 676.75 860.45 698.9 846.7 719.4 834.1 737.7 818.7 756.9 802.5 773.35 783.5 802.85 749.55 823.2 709.45 851.25 654.25 862.2 593.55 868.7 557.65 869.85 521.15 870.95 484.65 864.95 448.7 860.8 424.05 851.4 400.65 850 397.25 848.55 393.9 827.7 346.35 783.85 319 745.6 298.35 702.05 296.65 659.05 294.45 616.7 301.55
M 149.3 -102.35
Q 152.6 -85.6 155.85 -68.8 161.6 -39.35 167.25 -9.85 176.05 35.9 188.5 81 194.3 102.1 200.3 123.15 203.15 133.3 205.65 143.5 211.65 167.85 216.1 192.8 220 214.75 224.1 236.65 224.35 238 224.75 239.55 224.95 240.4 225.1 241.3 225.75 261.25 229.45 281.8 233.3 303.25 236.6 324.95 240.5 350.7 244.55 376.55 250.6 415.45 258.3 453.8 265.1 487.55 273.5 520.95 274.45 524.75 275.4 528.55
L 300.2 478.75
Q 321.7 446.3 348.7 418.15 378.25 387.35 412.05 361.35 417.7 345.55 423.75 330.05 430.85 312 438.55 294.25 460.2 244.2 475.2 191.75 495.25 121.45 501.75 48.4 505.2 9.95 506.25 -28.8 507.25 -64.4 506.9 -100 506.55 -140.8 503.3 -181.3 500.1 -221.1 492.7 -260.15 491.15 -268.25 485.65 -274.1 479.65 -280.5 470.9 -278.9 450.2 -275.55 430.7 -267.3 296 -210.7 178.45 -124.2 163.8 -113.35 149.3 -102.35
M 277.5 -9.4
Q 278.5 -6.8 277.25 -4.3 270.15 10.25 253.55 14.95 239.1 18.85 227.75 9.55 217.3 1.05 222.5 -11.5 231.35 -32.85 252.6 -28.35 271.25 -25 277.5 -9.4
M 295.15 234.45
Q 298.05 239.45 297.85 245.1 288.1 269.2 263.85 269.05 261 269.05 258.55 267.2 246.65 258.2 252.75 243.35 261.05 223.25 282.75 226.05 290.75 227 295.15 234.45
M 302.15 430.4
Q 306.95 435.8 306.95 443.45 306.95 451.1 302.15 456.5 297.3 461.9 290.5 461.9 283.7 461.9 278.9 456.5 274.05 451.1 274.05 443.45 274.05 435.8 278.9 430.4 283.7 425 290.5 425 297.3 425 302.15 430.4
M 265.05 -315.95
Q 259.8 -318.35 254.95 -320.7 247.55 -324.1 240.85 -328.85 215.9 -346.5 201.2 -373.8 199.7 -376.6 198.05 -379.3 198.45 -374.85 199.15 -370.4 203.2 -344.3 204.7 -317.95 206.3 -290.3 204.9 -262.55 202.4 -212.65 187.65 -165.05
L 225.15 -190.25
Q 259.35 -212.15 295 -232.05 330.45 -251.7 367.05 -268.95
L 372.25 -315.95
Q 368.6 -315.35 364.75 -313.55 354.75 -308.65 344.3 -305.4 320 -297.85 295.3 -304.6 283.3 -308 271.85 -313
L 268.95 -311.65 265.05 -315.95 Z"/>
</g>

<g id="S_mbolo_8_0_Layer1_0_FILL">
<path fill="#000000" fill-opacity="0.2" stroke="none" d="
M -745.55 592.9
Q -748.05 577.8 -755.85 577.8 -760 577.85 -762.65 582.3 -764.85 586 -765.35 591.25 -766.45 603.15 -763.75 617.25 -761.75 627.85 -756.9 642.7 -734.65 710.85 -697.8 751.95 -682.8 770.9 -664.85 787.65 -656.25 795.7 -647.15 803.05 -647.5 803 -647.8 802.95 -651.35 802.45 -654.8 804.15 -658.1 805.8 -660.15 808.85 -662.35 812.1 -663.1 816.95 -663.6 820.1 -663.6 825.85
L -664.15 913.15
Q -664.25 927.1 -663.6 934 -662.4 946.45 -658.35 958.1 -654.8 968.3 -649.9 973.7 -646.8 977.15 -642.8 979.1 -638.55 981.2 -634.25 981 -629.85 980.8 -625.65 978.3 -621.75 975.95 -618.75 972.15 -616.2 968.9 -613.95 964.3 -612.55 961.35 -610.35 955.8 -590.8 905.75 -574.95 855.9 -573.4 850.95 -572.8 848.25 -547.6 859.15 -521.2 865.3 -504.6 869.15 -485.25 871.7 -469.05 873.8 -448.9 875.2 -436 876.1 -424.45 876.5 -429.85 879.75 -433.15 885.9 -433.4 886.35 -433.9 887.2 -434.35 887.9 -434.85 888.25 -435.55 884.45 -436.25 882.45 -437.4 879.35 -439.35 877.65 -441 876.25 -443.15 875.75 -445.35 875.3 -447.4 875.9 -450.3 876.7 -452.4 879.5 -454.35 881.95 -455.05 885.3 -455.6 887.95 -455.55 891.6 -455.55 893.75 -455.3 898 -455 905.6 -455.95 912.8 -456.15 914.35 -456.6 917.4 -457 920.15 -457.15 922 -457.3 924.3 -457.2 930.55
L -456.95 938.1
Q -456.7 948.45 -456.25 955.85 -455.75 964.6 -453.95 969.3 -452 974.3 -447.9 977.95 -443.75 981.6 -438.6 982.85 -433.4 984.1 -428.1 982.55 -422.75 980.95 -419.2 977.05 -416.95 974.55 -415.2 970.8 -414 968.2 -412.55 963.7 -409.8 955.25 -406.2 942.15
L -400.3 920.95
Q -398.1 912.65 -396.45 903.1 -395 894.8 -395.8 889.85 -396.7 884.5 -400.15 880.2 -401.8 878.15 -403.75 876.7 -402.1 876.7 -400.5 876.65 -374.55 876.1 -352.45 872.05 -351.9 871.95 -351.35 871.85 -342.9 871.55 -333.95 871 -323.85 870.35 -318.25 869.3 -309.7 867.65 -303.7 863.95 -296.7 859.65 -293.35 852.25 -293.25 852 -293.1 851.8 -277.85 843.5 -265.35 832.7 -259.15 827.4 -256.3 821.75 -252.75 814.7 -255.6 809.1 -257.95 804.5 -263.6 802.85 -268.9 801.3 -274.35 802.9 -278.75 804.2 -283.85 807.6 -283.95 807.7 -292.5 814 -300.6 820 -309.9 824.9 -310.5 824.8 -311.15 824.7 -316.2 823.95 -322.8 824.55 -325.65 824.8 -334.45 826.1 -361.7 830.1 -389.45 829.25 -417.15 828.35 -444.2 822.65 -465.15 818.2 -489.95 809.8 -506.9 804.1 -534.6 793.25 -587.4 772.55 -620.75 756.8 -635.1 750 -644.05 744.8 -656.45 737.6 -665.4 729.8 -674.3 722 -683.4 710.3 -688.9 703.2 -698.9 688.5 -718.8 659.3 -727.55 642.85 -741.6 616.45 -745.55 592.9
M -326.55 -225.75
Q -329.5 -226.8 -332.05 -226.9 -335 -227 -337.55 -225.75 -340.3 -224.4 -341.4 -221.9 -342.4 -219.7 -341.8 -216.95 -341.25 -214.45 -339.6 -212.35 -337.3 -209.5 -331.45 -206.3 -318.25 -198.95 -285.7 -184.35 -255.95 -171 -240.4 -161.55 -237.2 -159.6 -226.35 -152.6 -217.65 -147 -212.1 -143.9 -206.7 -140.9 -195.7 -135.45 -191.1 -133.05 -187.35 -130.75 -187.7 -130 -188.05 -129.2 -198 -106.05 -205.5 -75.35 -210 -56.8 -216.9 -19.6
L -221.85 6.95
Q -230.65 54.65 -234.5 78.85 -240.85 118.9 -243.45 151.25 -243.95 157.6 -242.8 161.95 -241.25 167.65 -236.9 169.3 -233.5 170.55 -229.75 168.75 -226.25 167.05 -224.25 163.65 -222.55 160.75 -221.7 156.7 -221.2 154.05 -220.8 149.2 -216.65 102.1 -206.35 43.9 -200.15 9 -185.75 -60.55 -181.55 -80.9 -178.65 -92.35 -175.85 -103.7 -172.2 -115.05 -171.55 -117.1 -171.1 -118.65 -167.6 -116.05 -164.7 -114.65 -160.1 -112.4 -155.4 -112.4 -150.2 -112.4 -146.7 -115.3 -142.6 -118.7 -142.15 -124.8 -141.8 -130.55 -144.7 -135.55 -147.2 -139.85 -151.95 -143.75 -155 -146.3 -161.1 -150.2 -175.55 -159.6 -183.05 -164 -195.5 -171.3 -206.1 -175.75 -214.3 -179.2 -230 -184.15 -246.65 -189.45 -254 -192.35 -260.35 -194.85 -272.65 -200.65
L -321.3 -223.5
Q -324.8 -225.15 -326.55 -225.75
M 534 939.15
Q 538.05 935.1 537.85 928.8 537.7 922.55 533.4 918.75 529.8 915.5 523.65 914.5 520.3 913.95 512.55 913.9 505.75 913.8 501.05 913.05 494.85 912.05 490.1 909.7 485.25 906.85 482.75 905.55 478.4 903.3 474.9 903.4 470.65 903.55 467.3 906.95 464.05 910.25 463.45 914.7 462.9 918.9 464.65 923.2 466.3 927.25 469.55 930.5 470.45 931.4 471.5 932.25 471.75 936.05 473.15 941.9
L 481.75 978.05
Q 483.4 984.85 485.3 988.65 488.05 994.15 492.5 996.2 496.8 998.2 501.95 996.75 506.75 995.4 510.4 991.75 513.5 988.7 516.1 983.85 517.7 980.8 520.1 974.85
L 527.5 956.6
Q 530.9 948.3 531.9 943.2 532.15 941.85 532.3 940.6 533.2 939.95 534 939.15
M 687.35 860.25
Q 679.15 862.3 669.5 870.1 668.1 871.25 661.7 876.75 656.95 880.85 653.7 883.2 649.95 885.85 639.8 891.6 630.8 896.7 626.25 900.45 619.55 905.85 617.4 911.8 616 915.7 616.45 920.05 616.9 924.3 619.05 928 621.15 931.65 624.6 934.3 627.95 936.9 632 938.2 632.3 938.3 632.6 938.4 632 944.4 633 950.3 634.75 960.3 640.85 967.1 647.35 974.35 657.4 975.75 667.8 977.2 674.95 971.3 681.45 965.9 682.55 956.6 683.65 947.5 679.05 940.05 687 927.85 688.15 925.9 691.85 919.4 693.4 913.65 696.9 910.6 700.05 907.45 710.7 896.7 713.2 886.55 714.8 880.25 713.2 874.05 711.55 867.5 706.85 863.7 702.95 860.6 697.55 859.75 692.5 858.9 687.35 860.25
M 904.9 476.35
Q 903.45 465.4 898.7 457.75 893 448.55 884.25 447.7 877.6 447 871.45 451.65 865.75 455.95 862.85 462.8 860.5 468.4 859.6 476.3 859.3 478.75 858.7 490.4 857.8 506.65 854.4 525.95 851.95 540 847.1 561.05 837.15 604.5 827.2 633.95 814.1 672.9 796.6 702.55 757.65 768.55 686.05 810.75 617.7 850.95 537.25 859.65 519.65 861.55 505.55 861.4 488.55 861.25 474.1 858.25 468.85 857.15 448.5 851.4 432.8 847 422.7 846 413.95 845.2 410.2 848.7 407.25 851.5 407.4 856.15 407.6 860.6 410.3 864.05 412.65 867.05 416.7 869.35 419.55 870.95 424.45 872.8 472.55 891.5 525.15 893.25 577.7 894.95 626.95 879.45 652.25 871.5 679 858.15 702 846.75 728.05 830.35 747.1 818.3 761.3 807.7 778.55 794.8 791.9 781.7 833.85 740.7 861.15 675.6 881.9 626.2 898 551.65 903.05 528.35 904.7 514.15 907.15 493.3 904.9 476.35
M 213.75 241.2
Q 212.6 238.15 211.55 236.55 210.05 234.15 207.95 233.3 204.9 232 201.6 234.05 198.45 236 197.3 239.4 196.3 242.3 196.6 246.15 196.75 248.35 197.7 253 204.15 283.85 208.8 323 211.6 346.4 215.85 393.6
L 218 417.6
Q 223.5 478.9 225.85 509.6 226.5 517.85 227.2 523.7 187.7 549.1 142.3 564.95 78 587.4 11.15 587.5 -55.7 587.6 -120.05 565.35 -170.35 547.95 -213.45 518.9 -213.4 517.3 -213.4 515.45 -213.35 501.75 -214.5 467.6 -215.5 437.15 -215.1 419.75 -215.05 417.85 -213.65 385.65 -212.75 365.1 -213.3 351.55 -213.35 349.6 -214.65 330.15 -215.45 317.2 -215.15 308.7 -214.95 303.7 -215 302.45 -215.1 298.95 -215.9 296.35 -216.9 293.2 -219.15 291 -221.6 288.65 -224.55 288.45 -227.4 288.3 -230 290.2 -232.4 291.95 -233.75 294.75 -235.6 298.8 -235.6 306.35 -235.7 317.15 -234.3 337.45 -232.85 358.65 -232.8 368.55 -232.75 376.65 -233.35 387.55 -233.7 393.9 -234.5 406.55 -236.05 432.5 -235.95 453.6 -235.85 478.7 -233.4 500.55 -233.15 502.8 -232.85 504.9 -234.9 503.35 -236.95 501.75 -241.55 498.1 -243.85 496.7 -247.85 494.1 -251.5 493.25 -255.9 492.25 -260 493.75 -264.45 495.35 -266.05 499.1 -269 506.05 -260.5 516.35 -242 538.85 -216.5 557.3 -215.8 558.75 -214.95 560.55 -212.2 566.2 -211.5 569.7 -210.7 573.55 -211.2 580.75 -211.75 588.5 -211.3 591.85 -210.35 599.35 -202.35 611.85 -194.15 624.7 -192.9 631.75 -192 637 -193.3 647.5 -194.6 658.05 -193.75 663.2 -192.3 672.15 -184.9 680.4 -179.35 686.65 -169.45 693.4 -120 727.25 -46.95 742.65 -21.45 748.05 0.6 749.9 26 752 48.6 749.55 67.2 747.55 88.05 741.9 105.25 737.25 126.35 729.45 147.35 721.65 163.85 713.85 183.4 704.6 199.25 694.15 213.3 684.9 228.55 671.85 239.95 662.1 255.75 647 266.05 637.15 271.05 630.6 278.55 620.7 280.7 611 282.65 602.35 280.8 588.6 278.2 569.05 278.1 565.95 278.85 549.55 278.6 541.5 278.6 541.1 278.6 540.7 285.85 535.1 292.85 529.2 302.25 521.25 306.6 513.1 312.05 502.7 307.6 494.55 304.35 488.6 296.95 486.4 290 484.35 282.85 486.35 276.9 488 270.3 492.4 267.1 494.5 258.95 500.95 254.75 504.3 250.45 507.55 249.6 492.4 248.2 475.15 246.85 458.5 244 427.95
L 233.95 320.2
Q 232.7 306.65 231.8 300.05 230.25 288.85 227.9 280.15 225.9 272.75 220.05 257.5
L 213.75 241.2
M 225.35 -179.8
Q 230.75 -183.4 241.25 -190.95 251.8 -198.5 257.15 -202.1 296.3 -228.2 353.15 -246.25 357.5 -247.6 359.45 -248.35 362.9 -249.65 365.3 -251.3 368.25 -253.2 370.15 -255.8 372.25 -258.65 372.7 -261.75 373.2 -265.8 370.85 -269.45 368.5 -273.1 364.6 -274.25 362 -275 358.7 -274.65 356.4 -274.4 352.75 -273.4 309.85 -261.95 262.85 -233.35 231.95 -214.5 181.5 -176 178.3 -173.55 176.85 -171.9 174.5 -169.35 173.95 -166.7 173.25 -163.35 175.35 -160.25 177.4 -157.15 180.75 -156.5 183.45 -156 186.65 -157.1 188.8 -157.9 192.2 -159.85 214.6 -172.65 225.35 -179.8
M 138.05 -99.65
Q 136.25 -101.4 134.25 -102.2 131.9 -103.1 129.9 -102.4 127 -101.45 125.9 -97.75 125 -94.95 125.25 -90.8 125.85 -81.5 127.65 -69.85 128.65 -63.2 131.2 -49.1
L 145.85 31.55
Q 150.9 59.1 153.65 71.95 158.45 94.35 163.85 111.7 164.95 115.25 165.9 117.3 167.25 120.25 169.1 122.15 171.2 124.35 174.2 125.05 177.35 125.8 179.75 124.35 183.4 122.1 184.05 116.05 184.6 111.1 183.3 104.85 182.65 101.85 180.3 93.85 176 79.15 172.15 60.35 169.95 49.6 165.85 26.4 156.1 -28.85 146.6 -78.8 145.25 -86.1 143.85 -90.05 141.7 -96.05 138.05 -99.65 Z"/>
</g>

<g id="S_mbolo_5_0_Layer0_0_FILL">
<path fill="#FF0000" stroke="none" d="
M 1025.45 1088.95
Q 1027.7 1086.2 1027.7 1082.3 1027.7 1078.4 1025.45 1075.65 1023.2 1072.9 1020 1072.9 1016.8 1072.9 1014.55 1075.65 1012.3 1078.4 1012.3 1082.3 1012.3 1086.2 1014.55 1088.95 1016.8 1091.7 1020 1091.7 1023.2 1091.7 1025.45 1088.95
M 1003.2 871.05
Q 989.55 875.15 987.1 887.95 986.05 893.5 991.2 895.4 1005.65 900.85 1017.25 889.05 1019 887.35 1019.1 884.65
L 1016.05 879.45 1003.2 871.05
M 89.8 1157.05
Q 88.95 1156.75 88.95 1156.55 81.15 1231.6 120.35 1295.45 126.75 1305.85 136.1 1313.55 142.05 1318.5 149.15 1314.95 152.8 1313.15 156 1310.85 196.15 1282.1 236.35 1253.4 239.9 1250.9 244.15 1251.65 248.9 1254.65 249 1260.7 250.85 1357.3 293 1443.6 294.4 1446.5 297.7 1447 303.2 1447.25 308.45 1444.95 378.7 1414.65 454.85 1409.05 455.85 1408.95 456.9 1408.9 474.45 1407.4 492.1 1406.1
L 497.75 1395.15 462.45 1398.9
Q 421.3 1405.65 380.35 1413.95 342.75 1421.45 304.75 1418.75 301.75 1418.45 299.5 1416.25 292.15 1409 291.3 1398.3 283.65 1303.25 275.05 1208.25 237.35 1238.25 196.55 1263.5 178.75 1274.6 158.45 1279.1 146.5 1281.7 139.5 1271.45 133.15 1262.25 129.25 1251.7 128.55 1249.8 127.8 1247.95 112.2 1211.6 97.7 1174.5 94.5 1166.3 91.3 1158.5 90.95 1157.6 89.8 1157.05
M 293.3 939.15
Q 298 932.3 303.7 926.2
L 286.85 866.3
Q 274.05 894.3 256.35 920.75 231.8 957.5 199.15 989.1 185.3 1002.55 173.8 1010.75 168.5 1014.55 163.25 1017.6
L 215.65 1020
Q 239.6 1004.1 259 982.65 277.65 962.05 293.3 939.15
M 279.3 855.7
Q 280.4 852.75 281.35 850.25
L 261.05 771.35
Q 204.2 819.15 166.3 872.05 143.55 903.85 127.6 937.5 110.8 972.9 102.25 1009.05 101 1014.45 100.6 1017.8 100.05 1022.6 100.8 1026.5
L 135.6 1019.9
Q 136 1019.05 136.7 1018.35 137.8 1017.15 139.65 1016.2 140.55 1015.7 143 1014.65 161.05 1006.8 179.5 990.75 191.55 980.3 210.75 959.45 223.1 945.95 229.2 938.55 239.05 926.6 245.35 915.9 246.95 913.15 250.6 906.5 253.9 900.4 255.9 897.1 257.95 893.7 264.5 883.9 269.95 875.75 272.75 870.55 275.8 864.75 279.3 855.7
M 439.75 1076.45
Q 439.75 1079.95 441.9 1082.45 444.05 1084.9 447.1 1084.9 450.15 1084.9 452.3 1082.45 454.45 1079.95 454.45 1076.45 454.45 1072.95 452.3 1070.5 450.15 1068 447.1 1068 444.05 1068 441.9 1070.5 439.75 1072.95 439.75 1076.45
M 434.15 854.05
Q 423.9 845.85 410.75 844.25 400.2 846.15 399.45 855.35 399.3 857 400.65 858.3 413.8 871.2 430.6 862.5 433.55 861.05 434.75 858.6
L 434.15 854.05
M 624.5 749.15
Q 604.75 751.55 583.7 759.65 560.8 768.5 540.55 782.55 513.35 801.35 495.95 829.4
L 497.8 930.25
Q 535.9 900.25 580.5 880.7 593.8 874.85 607.5 869.75
L 624.5 749.15
M 421 631.7
L 410 642.75 413.45 650.1
Q 424.2 665 440.6 654.15 448.1 649.2 442.1 642.75 436.7 637 429.2 634.05 425.15 632.4 421 631.7
M 257.1 756.55
L 249.75 728.95
Q 148.6 757.95 80.6 838.6 30.6 897.8 8.05 971.45 2.5 989.6 0.7 1008.45 -2.05 1036.65 5.8 1063.7 8.15 1071.8 12.2 1079.25 39.65 1050.65 75.9 1034.75
L 87.65 1030.15
Q 91.5 990.5 107.45 953.75 114.35 937.95 120.8 921.95 137.25 881.2 164.7 846.9 190.5 814.8 219.9 785.85 236.9 769.05 257.1 756.55
M 392.65 107.2
Q 371.45 143.6 363 184.95 358.25 208.2 359.85 231.55 360.2 236.65 361.4 241.75 369.85 278.35 388.8 310.65 384 263.5 390.35 217 394.4 187.1 403 158.3 410.7 132.65 419.3 107.2 429.95 75.6 446.4 46.4 417.75 68.15 398.35 98.25 395.45 102.7 392.65 107.2
M 518.05 19.35
L 492.9 22.9
Q 465.95 27.75 453.15 51.65 434.2 87.05 420.4 124.9 406.8 162.35 399.25 201.35 391.7 240.65 392.05 280.7 392.2 299.95 394.35 319 405.25 334.85 420.7 346.4 427.05 351.1 434.55 353.05 437.7 350.65 436.85 341.75 435.55 328.4 435.45 315 434.7 225.5 462.85 140.55 467 128.05 471.95 115.8 478.95 98.4 486.25 80.95 498.05 52.7 513.6 26.45 515.75 22.85 518.05 19.35
M 600.7 88.65
Q 595.25 68.35 582.25 51.95 529.5 139.95 518.9 242.15 515.85 271.8 516.75 301.4 517.25 318.35 517 335.35 539.85 316.8 559.95 295.6 571.4 283.5 574.6 267 576.45 257.65 579.35 248.4 593.05 209.65 602.15 169.55 611.45 128.8 600.7 88.65
M 576.1 46.1
L 574.05 42.9
Q 557 26 533.75 20.9 532.05 20.6 530.35 20.3 477.2 101.35 456.45 196.05 449.45 228.15 446.45 260.55 444.8 278.75 443.5 296.9 442 317.8 442.1 338.75 442.15 346.5 442.55 354.35 462.05 354.95 481.2 351.1 488.2 349.8 494.8 347.6 501.45 345.45 507.4 341.9 506.3 329.85 505.2 315.8 503.45 293.7 504.95 271.5 506.1 253.9 507.55 236.4 508.65 222.95 510.8 209.55 516.45 174.35 528.8 140.95 543 102.7 561.55 66.1 567.2 54.9 576.1 46.1
M 880.45 768.55
Q 871.05 764.55 861.15 761.7 830.75 752.95 799.4 747.9
L 806.4 841.65
Q 817.8 845.15 832.55 846.05 885.5 849.65 936.05 864.85
L 934.45 854.85 919.55 779.2
Q 899.6 776.9 880.45 768.55
M 963.25 633
Q 962.1 634.8 963.35 636.7 969.55 646.2 980.3 641.55 984.6 639.7 988.9 637.65 993.35 635.45 993.85 630.75
L 987.65 626.45
Q 971.25 620.45 963.25 633
M 781.85 745.95
L 689.85 741.15 638.6 745.7
Q 636.6 768.3 634.75 790.6 631.55 828.5 621.2 865 703.1 839.25 788.9 842.4
L 781.85 745.95
M 986.25 302.95
Q 989.1 304.35 992 305.8 982.6 257.45 969.75 209.95 968.5 205.45 967.15 200.9 945.35 128.6 903.1 66.05 899.05 60.05 894.5 54.4 887.9 87.7 894 121.05 902.9 162.9 918.4 202.55 926.45 223.2 937 242.85 950.95 268.95 970.5 290.8 977.3 298.35 986.25 302.95
M 1024.5 188.5
Q 1018.05 162.2 1007.85 137 978.85 65.1 930.1 4.35
L 922.95 7.15
Q 904.6 20.2 898 42.2 897.15 45 896.25 47.75 945.55 111.55 971.5 187.9 984.75 226.9 993.95 267.25 998.8 288.6 1002.55 310.1
L 1045.05 320.75
Q 1044.35 279.75 1036.45 239.7 1034.5 229.75 1032.05 219.65 1028.3 204.1 1024.5 188.5
M 991 2.5
Q 1018.95 28.25 1037.55 61.25 1062.4 105.35 1080.6 152.4 1104.3 213.6 1108.2 279.1
L 1109.4 223.8
Q 1109.4 181.8 1101.7 140.55 1094.15 100.25 1074.35 64.35 1052.9 25.55 1012.75 8.7 1002.25 4.4 991 2.5
M 1027.9 60.95
Q 1008.4 25.85 977.25 0.7
L 969 0 937.3 2.05
Q 971.65 45.15 997.75 93.25 1018.55 131.75 1029.6 174 1036.85 201.6 1042.95 229.5 1052.8 274.55 1053.8 320.75 1076.7 319.25 1095 305.35 1097.5 303.45 1099.95 301.45 1098.15 228.1 1072.8 159.05 1054.15 108.15 1027.9 60.95
M 1423 1086.8
Q 1419 1136 1425.8 1185.05 1429.7 1213.3 1422.25 1240.05 1420.9 1244.95 1416.1 1246.95 1405.4 1251.3 1394.35 1246.7 1347.75 1227.1 1303.3 1203.35 1282.75 1192.35 1262.15 1181.1 1278 1282.65 1261 1383.35 1260.4 1387 1257.55 1389.05 1246.65 1397 1234.85 1389.15 1173.85 1348.5 1119.05 1300.15
L 1122.5 1473.15 1135.6 1486.35 1151.2 1385.5
Q 1154.5 1365.95 1172.4 1374.1 1181 1378.05 1188.45 1384.3 1220.65 1411.55 1258.5 1430.6 1269.5 1436.1 1281.45 1438.15 1290.45 1439.5 1293.8 1431 1299.85 1415.7 1302.4 1399.45 1308.85 1358.8 1307.6 1317.5 1306.45 1280.9 1306.25 1244.55 1306.2 1238.1 1311.3 1234.25 1319.05 1228.45 1327.45 1233.7 1344.7 1244.4 1360.95 1256.6 1395.3 1282.35 1435.85 1295.75 1452.35 1301.25 1457.6 1285.65 1459.3 1280.65 1459.5 1275.5 1461.1 1234.8 1459.25 1194 1457.6 1157.45 1447 1122.6 1440.45 1101 1423 1086.8
M 1349.55 920.65
Q 1348.55 920 1347.6 919.35 1333.65 909.85 1320.65 894.45 1310.8 882.75 1298.95 864.3 1270.2 819.45 1252.5 775.5
L 1238.8 832.1
Q 1261.35 880.2 1303.6 911.65 1311.6 917.7 1308.65 926.6 1308.4 927.4 1307.85 928.15
L 1311.2 927.85 1349.55 920.65
M 1308.3 711
Q 1341 725.4 1370.8 749.6 1398.6 772.25 1422.4 802.3 1426.65 807.65 1430.8 813.3 1443.25 829.35 1454.15 846.65 1469.9 871.6 1483.4 898 1490.8 912.6 1498 927.25
L 1505.85 930.8
Q 1548.2 940.75 1578.75 971.6 1584.1 977.05 1588.85 982.85 1570.7 913.25 1528.65 854.8 1500.7 815.85 1468.15 780.55 1444.55 754.9 1415.4 736 1395.45 723.1 1373.2 714.6 1345 704.05 1315.8 696.05 1290.4 689.1 1265.45 680.7
L 1263.75 700.65
Q 1270.2 700.6 1274.65 701.05 1282.8 701.9 1291.85 704.7 1299.25 707 1308.3 711
M 1303.35 721.75
Q 1303.05 721.6 1302.75 721.5 1283.5 714.1 1262.65 711.2
L 1255.4 760.65
Q 1258.45 767.7 1262.45 777 1292.9 837.3 1334.5 890.25 1340.75 898.2 1347.8 905.4 1348.6 906.05 1349.3 906.6 1357.3 912.95 1364.65 917.05 1366.2 917.95 1367 918.45
L 1417.6 916 1478.9 925.3
Q 1466.25 898.45 1453.1 872.7 1446.45 859.65 1441.9 851.55 1435.5 840.1 1429.35 831.2 1422.3 820.85 1410.75 807.2 1394.65 788.2 1379.25 773.45 1361.6 756.65 1343.65 744.2 1323.9 730.5 1303.35 721.75 Z"/>
</g>
</defs>

<g transform="matrix( 1, 0, 0, 0.764312744140625, 1000.7,1240.15) ">
<g transform="matrix( 1, 0, 0, 1, 0,0) ">
<use xlink:href="#S_mbolo_9_0_Layer2_0_FILL"/>
</g>

<g transform="matrix( 1, 0, 0, 1, 0,0) ">
<use xlink:href="#S_mbolo_9_0_Layer1_0_FILL"/>
</g>

<g filter="url(#Filter_1)" transform="matrix( 1, 0, 0, 1.3083648681640625, -1000.7,-1622.55) ">
<g transform="matrix( 1, 0, 0, 0.764312744140625, 174,722.55) ">
<g transform="matrix( 1, 0, 0, 1, 0,0) ">
<use xlink:href="#S_mbolo_6_0_Layer0_0_FILL"/>
</g>
</g>
</g>
</g>

<g transform="matrix( -1, 0, 0, 0.786163330078125, 1124.6,1224.45) ">
<g transform="matrix( 1, 0, 0, 1, 0,0) ">
<use xlink:href="#S_mbolo_8_0_Layer2_0_FILL"/>
</g>

<g transform="matrix( 1, 0, 0, 1, 0,0) ">
<use xlink:href="#S_mbolo_8_0_Layer1_0_FILL"/>
</g>

<g filter="url(#Filter_2)" transform="matrix( -1, 0, 0, 1.2719879150390625, 1124.55,-1557.5) ">
<g transform="matrix( -1, 0, 0, 0.786163330078125, 1855.6,722.05) ">
<g transform="matrix( 1, 0, 0, 1, 0,0) ">
<use xlink:href="#S_mbolo_5_0_Layer0_0_FILL"/>
</g>
</g>
</g>
</g>
</svg>
