
<svg xmlns="http://www.w3.org/2000/svg" version="1.1" xmlns:xlink="http://www.w3.org/1999/xlink" preserveAspectRatio="none" x="0px" y="0px" width="2048px" height="2048px" viewBox="0 0 2048 2048">
<defs>
<linearGradient id="Gradient_1" gradientUnits="userSpaceOnUse" x1="924.2" y1="283.04999999999995" x2="924.2" y2="1565.15" spreadMethod="pad">
<stop  offset="0%" stop-color="#0051A1"/>

<stop  offset="100%" stop-color="#0051A1"/>
</linearGradient>

<g id="Layer3_0_FILL">
<path fill="#0066CC" stroke="none" d="
M 2033.3 326.4
L 33.3 326.4 33.3 2326.4 2033.3 2326.4 2033.3 326.4 Z"/>
</g>

<g id="Layer3_1_FILL">
<path fill="#000000" stroke="none" d="
M 1102.5 1051.55
L 1102.5 923.55 -111 923.55 -111 1051.55 1102.5 1051.55 Z"/>
</g>

<g id="Layer3_2_FILL">
<path fill="#000000" stroke="none" d="
M 1074.05 971.55
L 1074.05 923.55 -111 923.55 -111 971.55 1074.05 971.55 Z"/>
</g>

<g id="Layer3_3_FILL">
<path fill="url(#Gradient_1)" stroke="none" d="
M 1497.55 1564.15
L 1497.55 284.15 217.6 284.15 217.6 1564.15 1497.55 1564.15 Z"/>
</g>

<g id="Layer3_4_FILL">
<path fill="#00468C" stroke="none" d="
M 345.55 284.15
L 217.6 284.15 217.6 1692.1 345.55 1692.1 345.55 284.15 Z"/>
</g>

<g id="Layer3_5_FILL">
<path fill="#00468C" stroke="none" d="
M 345.55 284.15
L 217.6 284.15 217.6 1948.1 345.55 1948.1 345.55 284.15 Z"/>
</g>

<g id="Layer3_6_FILL">
<path fill="#003F7D" stroke="none" d="
M 1280 768
L 1152 768 1152 1024 1280 1024 1280 768 Z"/>
</g>

<g id="Layer3_7_FILL">
<path fill="#00468C" stroke="none" d="
M 1280 768
L 1152 768 1152 896 1280 896 1280 768 Z"/>
</g>

<g id="Layer3_8_FILL">
<path fill="#00468C" stroke="none" d="
M 640 539.8
Q 640 498.3 610.65 468.95 581.3 439.6 539.8 439.6 498.3 439.6 468.95 468.95 439.6 498.3 439.6 539.8 439.6 581.3 468.95 610.65 498.3 640 539.8 640 581.3 640 610.65 610.65 640 581.3 640 539.8 Z"/>
</g>

<g id="Layer3_9_FILL">
<path fill="#00468C" stroke="none" d="
M 640 539.8
Q 640 498.3 610.65 468.95 581.3 439.6 539.8 439.6 498.3 439.6 468.95 468.95 439.6 498.3 439.6 539.8 439.6 581.3 468.95 610.65 498.3 640 539.8 640 581.3 640 610.65 610.65 640 581.3 640 539.8 Z"/>
</g>

<g id="Layer3_10_FILL">
<path fill="#00468C" stroke="none" d="
M 640 539.8
Q 640 498.3 610.65 468.95 581.3 439.6 539.8 439.6 498.3 439.6 468.95 468.95 439.6 498.3 439.6 539.8 439.6 581.3 468.95 610.65 498.3 640 539.8 640 581.3 640 610.65 610.65 640 581.3 640 539.8 Z"/>
</g>

<g id="Layer3_11_FILL">
<path fill="#00468C" stroke="none" d="
M 640 539.8
Q 640 498.3 610.65 468.95 581.3 439.6 539.8 439.6 498.3 439.6 468.95 468.95 439.6 498.3 439.6 539.8 439.6 581.3 468.95 610.65 498.3 640 539.8 640 581.3 640 610.65 610.65 640 581.3 640 539.8 Z"/>
</g>

<g id="Layer3_12_FILL">
<path fill="#0066CC" stroke="none" d="
M 640 539.8
Q 640 498.3 610.65 468.95 581.3 439.6 539.8 439.6 498.3 439.6 468.95 468.95 439.6 498.3 439.6 539.8 439.6 581.3 468.95 610.65 498.3 640 539.8 640 581.3 640 610.65 610.65 640 581.3 640 539.8 Z"/>
</g>

<g id="Layer3_13_FILL">
<path fill="#0066CC" stroke="none" d="
M 640 539.8
Q 640 498.3 610.65 468.95 581.3 439.6 539.8 439.6 498.3 439.6 468.95 468.95 439.6 498.3 439.6 539.8 439.6 581.3 468.95 610.65 498.3 640 539.8 640 581.3 640 610.65 610.65 640 581.3 640 539.8 Z"/>
</g>

<g id="Layer3_14_FILL">
<path fill="#0066CC" stroke="none" d="
M 640 539.8
Q 640 498.3 610.65 468.95 581.3 439.6 539.8 439.6 498.3 439.6 468.95 468.95 439.6 498.3 439.6 539.8 439.6 581.3 468.95 610.65 498.3 640 539.8 640 581.3 640 610.65 610.65 640 581.3 640 539.8 Z"/>
</g>

<g id="Layer3_15_FILL">
<path fill="#0066CC" stroke="none" d="
M 640 539.8
Q 640 498.3 610.65 468.95 581.3 439.6 539.8 439.6 498.3 439.6 468.95 468.95 439.6 498.3 439.6 539.8 439.6 581.3 468.95 610.65 498.3 640 539.8 640 581.3 640 610.65 610.65 640 581.3 640 539.8 Z"/>
</g>

<g id="Layer2_0_FILL">
<path fill="#000000" stroke="none" d="
M 2038.05 -0.9
Q 2023.2 -1.6 2008.3 -1.55 1969.75 -1.5 1931.2 -1.4 1907 -1.35 1882.8 -1.3 1858.6 -1.25 1834.45 -1.15 1810.25 -1.1 1786.05 -1.1 1746.55 -1.05 1707 -1.05 1663.35 -1.1 1619.95 -1.05 1583.9 -1.05 1547.85 -1.05 1511.8 -1.05 1475.75 -1.05 1439.65 -1.05 1403.55 -1.05 1367.5 -1.05 1331.45 -1.05 1295.35 -1.05 1259.3 -1.05 1223.25 -1.05 1187.2 -1.05 1151.1 -1.05 1115 -1.05 1072.95 -1.05 1030.95 -1 998.3 -1 965.75 -1 925.35 -1 885.05 -1.05 845.25 -1.05 805.45 -0.95 762.6 -0.85 719.75 -1.3 693.2 -1.6 666.7 -1.6 636.45 -1.65 606.2 -1.75 575.9 -1.8 545.65 -1.85 515.4 -1.9 485.15 -1.95 452.25 -2.05 419.6 -2.15 273.7 -1.1 126.5 -1.5 77.65 -1.6 28.8 -3 15.9 -3.4 5.45 3 -3.7 8.55 -2.15 18.8 0.8 37.85 0.4 58.1 -0.45 101.2 -0.45 144.3 -0.45 187.4 -0.45 230.55 -0.45 273.7 -0.45 316.8 -0.45 359.9 -0.45 403 -0.45 446.15 -0.6 489.25 -0.8 532.5 -0.45 575.5 -0.05 618.75 -0.35 661.7 -0.65 705.75 -1.1 749.6 -1.55 792.8 -2 835.85 -2.45 878.9 -2.2 922.05 -1.95 965.45 -2.25 1008.3 -2.6 1052.35 -2.9 1096.2 -3.25 1140.2 -3.35 1184.1 -3.45 1228.1 -3.65 1271.95 -3.8 1315.05 -3.7 1358.2 -3.6 1402.2 -3.45 1446.1 -3.35 1489.1 -3.6 1532.3 -3.8 1575.45 -3.9 1618.55 -4 1661.6 -3.9 1704.8 -3.8 1747.85 -3.85 1791 -3.85 1834.05 -3.8 1877.25 -3.75 1903.75 -3.8 1930.3 -3.8 1931.95 -3.8 1933.65 -3.8 1934.45 -3.8 1935.3 -3.8 1936.1 -3.8 1936.95 -3.8 1937.75 -3.8 1938.6 -3.8 1946.1 -4.65 1953.45 -4.95 1955.95 -4.25 1958.6 -3.8 1960.15 -3.8 1961.8 -3.8 1963.45 -3.8 1965.15 -3.8 1966.8 -3.8 1968.45 -3.8 1970.1 -3.8 1971.75 -3.8 1973.4 -3.8 1975.1 -3.8 1976.75 -3.8 1978.4 -3.8 1980.05 -3.8 1981.7 -3.85 1987.45 -3.7 1993.35 -3.65 1996.7 -3.7 1999.95 -3.75 2005.75 -3.8 2011.55 -3.8 2013.2 -3.7 2014.9 -3.35 2019.8 -2.85 2024.85 -2.7 2026.5 -1.85 2027.95 -0.8 2029.8 0.65 2031.4 2.25 2033.1 4.25 2034.05 8.6 2036.15 13.4 2036.85 17.55 2037.4 21.15 2035.2 24.15 2036.65 27.3 2037.1 56 2041.25 85.2 2040.75 111.15 2040.3 137.15 2040.3 137.95 2040.3 138.8 2040.3 154.4 2040.15 170.05 2040 185.65 2039.9 201.25 2039.85 367.95 2039.05 534.6 2039.15 583.75 2039.15 633 2039.2 665.85 2039.2 698.7 2039.2 731.5 2039.2 764.3 2039.2 797.1 2039.2 829.95 2039.2 862.75 2039.2 895.55 2039.3 928.45 2039.35 961.35 2039.5 994.2 2039.6 1027.1 2039.7 1056.4 2039.75 1085.7 2039.95 1210.05 2040.75 1334.45 2039.4 1401.2 2038.7 1468.1 2038.85 1586.7 2039.1 1705.25 2039.2 1732.1 2039.2 1758.95 2039.2 1845.5 2039.2 1931.95 2039.6 1959.6 2039.75 1987.25 2039.9 1999.95 2040 2012.65 2040.25 2016.8 2040.3 2020.95 2040.3 2026.2 2040 2031.4 2039.3 2034.7 2039.1 2037.4 2037.2 2052.8 2038.4 2059.9 2024.95 2061.65 2021.7 2061.75 2018.2 2062.7 1975.85 2062.9 1931.95 2063.1 1889.05 2063.2 1845.75 2063.3 1802.6 2063.5 1759.5 2063.7 1716.25 2063.9 1673.25 2064.15 1630.2 2064 1587.05 2063.85 1544.45 2063.75 1500.8 2063.65 1457.75 2063.65 1414.6 2063.7 1371.45 2063.85 1328.35 2063.95 1285.5 2064.15 1242.1 2064.4 1198.65 2064.6 1155.9 2064.8 1112.8 2064 1069.65 2063.15 1026.4 2063.15 983.4 2063.15 939.6 2063.35 895.55 2063.55 851.6 2063.55 807.65 2063.55 763.7 2063.45 719.75 2063.35 676.6 2062.5 633.5 2061.65 590.35 2061.2 547.3 2060.75 503.35 2060.3 459.4 2059.85 416.35 2060.15 373.15 2060.5 329.9 2058.65 286.95 2056.85 244.1 2057.4 200.7 2057.95 157.35 2056.65 114.45 2055.3 71.35 2056.05 28.25 2056.15 23.05 2056.05 17.75 2055.8 0.65 2038.05 -0.9
M 1968.45 38.75
Q 1965.9 57.7 1964.7 76.9 1961.95 120.85 1959.25 164.8 1957.9 186.55 1957.55 207.9 1956.9 251.85 1957 295.8 1957.15 339.8 1956.6 383.65 1956.05 427.05 1954.95 469.9 1953.85 513.75 1953.6 557.8 1953.4 600.95 1952.95 644 1952.45 687.95 1952.1 731.9 1951.8 775.05 1951.8 818.15 1951.85 861.05 1951.45 904.4 1951.1 947.4 1951.2 990.6 1951.3 1033.75 1951.3 1076.85 1951.3 1120.8 1951.3 1164.75 1951.3 1207.85 1951.3 1250.95 1951.3 1294.05 1951.3 1337.2 1951.3 1381.15 1951.3 1425.1 1951.25 1469.05 1951.25 1512.95 1951.3 1556.9 1951.3 1600.85 1951.3 1644.8 1951.3 1688.75 1951.3 1732.7 1951.25 1776.65 1951.25 1797.4 1951.3 1818.1 1951.3 1818.9 1951.3 1819.75 1951.3 1820.55 1951.3 1821.4 1951.3 1822.2 1951.3 1823.05 1951.3 1823.9 1951.3 1824.75 1951.3 1825.55 1951.3 1826.4 1951.3 1827.2 1951.35 1828.05 1951.55 1830.55 1951.4 1833 1951.3 1834.65 1951.3 1836.35 1951.3 1838 1951.3 1839.65 1951.3 1841.3 1951.3 1842.95 1951.35 1845.4 1951.3 1847.95 1951.25 1853 1951.05 1857.9 1951 1859.55 1951.1 1861.15 1951.5 1866.1 1951.35 1871.15 1951.25 1875.3 1951.25 1879.45 1951.25 1884.4 1951.3 1889.4 1951.35 1891.9 1951.15 1894.4 1951 1896.05 1950.9 1897.7 1950.75 1899.35 1950.6 1901 1950.45 1902.65 1950.3 1904.35 1950.2 1906 1950.35 1907.65 1950.45 1909.3 1950.75 1910.95 1951 1912.6 1951.2 1914.3 1951.55 1916.85 1951.5 1919.25 1951.4 1926.75 1951.3 1934.2 1918.65 1934.25 1885 1934.2 1610.3 1933.85 1335.55 1934.75 1327.8 1934.75 1320.05 1934.65 1301.8 1934.45 1283.55 1934.25 1278 1934.2 1272.5 1934.2 1272.5 1934.45 1272.45 1934.3 1269.75 1934.75 1267 1934.8 1254.25 1935 1241.55 1935.3 1225.05 1936.6 1208.4 1936.55 1174.65 1936.4 1140.95 1936.9 1118.85 1937.2 1096.75 1937.4 1079.3 1937.6 1061.9 1937.7 1016.4 1937.9 970.7 1938.8 889 1940.4 807.1 1940.7 779.45 1940.8 751.8 1940.85 681 1941.05 610.3 1941.3 578.3 1941.4 546.2 1941.65 465.95 1942.35 385.9 1942.1 363.7 1942.05 341.1 1940.8 312.9 1940.25 284.7 1939.7 276.95 1939.15 269.25 1938.6 261.75 1938.3 254.3 1938.15 250.15 1938.05 246.05 1938.05 239.95 1938.05 233.85 1937.95 221.4 1937.75 209 1937.85 180.2 1938.15 151.5 1938 90.95 1937.65 30.45 1938.65
L 27.15 37.05 1786.05 36.55 1968.45 38.75
M 2018.2 1997.75
Q 2018.1 1998 2018 1998.3 2013.7 1998.1 2018.2 1997.75
M 1663.3 263.15
Q 1665.85 256.5 1661.65 250.3 1660.25 248.25 1658.35 248.2 1565.7 245.4 1471.5 245.5 862.95 246.3 254.3 249.6 249.2 249.65 247.7 254.3
L 248.55 260.55
Q 247.35 262.25 247.6 264.25 247.7 265.1 247.7 265.95 247.7 267.6 247.5 269.2 246.55 276.55 246.25 284.15 244.8 324.55 245.3 365.45 245.85 408.65 245.95 451.65 246.1 495.65 244.5 539.55 242.9 582.4 242.85 625.8 242.8 668.9 242.1 712 241.4 755.1 241.45 798.25 241.5 842.3 241.05 886.15 240.65 929.25 240.4 972.35 240.15 1015.45 240.05 1058.6 239.95 1101.75 239.95 1144.85 239.95 1188.75 239.95 1232.7 239.95 1275.8 239.95 1318.95 239.95 1362.1 239.9 1405.2 239.85 1448.4 239.9 1491.4 239.95 1534.55 239.75 1577.65 239.5 1620.8 240.85 1663.9 241.1 1672.3 249.6 1674.55 264.95 1678.55 267.65 1663.75
L 368.75 1665
Q 378.15 1673.55 387.65 1664.9 413.55 1665.2 439.5 1665.4 469.15 1665.65 498.8 1665.75 528.45 1665.8 558.1 1665.85 587.75 1665.9 617.4 1666 647 1666.05 676.65 1666.05 716.35 1666.05 755.75 1666.1 793.85 1666.1 832 1666.05 872.7 1665.95 913.4 1666.2 948.9 1666.4 984.4 1666.6 1023.95 1666.85 1063.55 1667.35 1092.55 1667.75 1121.6 1668.3 1154.45 1669.9 1187.4 1669.65 1221.15 1669.4 1254.85 1669.4 1298.6 1669.45 1342.35 1669.4 1376.75 1669.4 1411.15 1669.35 1454.3 1669.3 1497.5 1669.35 1521.55 1669.4 1545.6 1669.55 1572.1 1669.7 1598.65 1670.05 1624.6 1670.4 1650.6 1670.85 1652.75 1671.45 1655 1671.1 1670.8 1669.65 1671.1 1654.5 1671.35 1642.15 1671.95 1629.6 1673.5 1597.55 1673.4 1564.95 1673.3 1521 1673.25 1477.05 1673.25 1433.1 1672.8 1389.15 1672.4 1346.15 1672.7 1302.9 1673 1259.9 1673.05 1216.7 1673.05 1173.75 1672.85 1130.45 1672.65 1086.55 1672.6 1042.55 1672.55 999.1 1672.75 956.35 1672.95 913.15 1673.05 870.1 1673.1 827.05 1673.15 783.85 1673.25 739.95 1673.6 696 1673.9 652.9 1673.2 609.75 1672.45 566.5 1670.7 523.5 1669 480.55 1668.95 437.3 1668.85 393.35 1669.8 349.4 1670.75 305.4 1663.3 263.15
M 1645.1 268.7
Q 1643.2 276.8 1642.65 285.25 1639.95 328 1641.2 371.5 1050.55 372.05 461.35 372.3 428.85 372.3 396.45 371 383.05 370.85 373.15 378.15 372.05 382.25 371.85 386.4 370.2 421.85 370.2 457.75 370.2 501.55 369.7 545.65 369.25 589.65 368.2 633.5 367.2 676.65 366.55 719.75 365.9 763.2 364.9 806 363.9 849 364.1 892.2 364.3 935.3 364.3 978.45 364.3 1021.55 364.2 1064.7 364.15 1107.9 364.2 1150.9 364.3 1194.05 364.3 1237.15 364.25 1280.25 364.25 1323.35 364.3 1367.3 364.25 1411.25 364.25 1428.7 364.3 1446.1 364.3 1446.9 364.3 1447.75 364.3 1448.55 364.3 1449.4 364.3 1450.2 364.3 1451.05 364.3 1451.85 364.3 1452.7 364.4 1455.2 364.3 1457.7 364.2 1461.85 364.25 1466 364.3 1468.55 364.3 1470.95 364.3 1472.6 364.3 1474.3 364.3 1476.9 364.3 1479.25 364.3 1480.9 364.3 1482.55 364.3 1484.2 364.3 1485.9 364.3 1487.55 364.35 1489.2 364.4 1491.7 364.35 1494.2 364.3 1495.85 364.4 1497.5 364.65 1500.9 364.45 1504.2 364 1511.55 364.15 1519.05 364.25 1525.7 364.2 1532.3 364.2 1536.45 364.2 1540.6 364.25 1553.05 364.25 1565.5 364.35 1609.05 364.3 1651.7
L 268.15 1652.25
Q 269.1 1643.25 269.05 1634.05 268.75 1590.3 268.7 1546.15 268.7 1502.2 268.7 1458.25 268.7 1414.55 268.75 1370.35 268.75 1326.4 268.7 1282.45 268.7 1239.35 268.7 1196.25 268.7 1153.1 268.7 1110 268.7 1066.9 268.25 1023.75 267.8 980.8 267.6 937.55 267.4 894.4 267.3 851.3 267.2 808.15 267.15 765.1 267.1 722.15 266.1 678.85 265.15 635.85 265.05 592.6 264.95 548.7 263.4 504.75 262.75 487.2 263.65 469.9 263.7 469.05 263.7 468.25 263.7 467.4 263.7 466.6 263.7 465.75 263.7 464.95 263.7 464.1 263.7 463.25 263.8 460.75 263.75 458.3 263.65 454.15 263.75 450 263.8 447.55 263.55 445.05 263.4 443.35 263.35 441.7 263.3 439.2 263.2 436.75 263.15 435.05 263.15 433.4 263.15 431.75 263.15 430.1 263.15 428.45 263.15 426.8 263.1 424.2 263.15 421.8 263.15 420.15 263.15 418.5 263.15 415.25 263.15 411.85 263.15 404.45 263.1 396.95 263.1 390.3 263.15 383.65 263.2 379.5 263.2 375.4 263.2 362.95 263.35 350.5 263.9 307.05 260.95 264.25
L 1645.1 268.7
M 1548.2 756.05
Q 1545.1 754.2 1541.8 755.7 1538.55 757.25 1538.25 760.65 1520.05 957.2 1521.5 1154.6 1521.55 1159.3 1523.95 1163.3 1530.1 1173.5 1536.45 1163.1 1586.9 1169.6 1637.35 1167.5
L 1637.9 1645.1 391.4 1651.7
Q 392.2 1620.7 392.05 1588.7 391.95 1559.05 391.95 1529 391.95 1527.35 391.95 1525.7 391.95 1524.85 391.95 1524.05 391.95 1522.35 391.95 1520.7 391.9 1518.4 391.75 1515.75 391.55 1512.35 392.3 1509.05 392.5 1508.25 392.5 1507.45 392.5 1506.6 392.35 1505.8 392.2 1504.95 392.2 1504.15 392.05 1497.6 391.95 1490.85 391.9 1488.55 391.95 1485.9 391.95 1485.05 391.95 1484.25 391.95 1483.4 391.95 1482.55 391.95 1481.7 391.95 1480.9 391.9 1478.4 391.95 1475.95 391.95 1474.25 391.95 1472.6 391.95 1470.95 391.95 1469.3 391.95 1467.65 391.95 1466 391.95 1465.15 391.95 1464.35 391.95 1458.6 391.95 1452.7 391.95 1415.35 391.95 1378.1 391.95 1335 392 1291.85 392 1248.75 391.8 1205.65 391.55 1162.45 391.55 1119.4 391.55 1094.65 391.7 1069.65 391.9 1039.8 391.95 1009.95 391.95 1000.75 391.95 991.7 391.95 990.05 391.95 988.4 391.95 986.75 391.95 985.1 391.95 983.4 391.95 981.75 391.95 980.1 391.95 978.45 391.95 940.3 391.95 902.15 391.95 864.85 391.4 827.55 390.75 784.55 390.4 741.3 390.05 697.25 389 653.4 387.9 609.4 386.95 565.55 385.95 521.6 385.85 477.65 385.75 434.55 384.8 391.65
L 1641.2 394.7 1636.8 754.6
Q 1626.45 753.85 1616.1 753.55 1608.05 753.15 1600.2 752 1573.05 748.7 1548.2 756.05
M 1553.35 772.25
L 1636.8 775.65 1636.8 882.25
Q 1635.1 882.55 1633.5 882.35 1591.6 873.85 1548.65 876.95
L 1553.35 772.25
M 1636.8 898.85
L 1637.35 1147.6 1539.1 1148.65
Q 1542.95 1097.8 1542.1 1046.9 1541.25 995.1 1543.95 943.2 1545.25 918.15 1548.65 896.35
L 1636.8 898.85
M 1604.95 478.9
Q 1601.05 469.8 1595.25 461.65 1577.45 436.45 1550.35 422.45 1508.95 401.25 1467.55 422.15 1448.25 431.8 1435.5 449.3 1409.2 485.3 1407.2 530.6 1406.35 549.1 1411.45 566.95 1423.4 608.8 1462.35 629.2 1494.2 645.75 1529.25 635.1 1563.95 624.65 1585.95 595.65 1608.65 565.7 1612.55 528.55
L 1604.95 478.9
M 1466.35 430.25
Q 1475.1 424.5 1485.5 423.4 1530.85 418.75 1567.2 446.4 1603.25 473.75 1602.55 518.3 1602.65 524.7 1602 531.05 1601.55 535.65 1599.9 540.05 1591.2 563.5 1573.6 581.65 1541.85 614.45 1497 609.3 1450.55 604.25 1423.9 565.8 1415.95 554.35 1415.15 541.05 1413.9 520.45 1418.35 500.45 1428.35 455.3 1466.35 430.25
M 1579.15 586.2
Q 1586.85 577.95 1589.35 575.7 1571.15 607.1 1537.4 622.45 1517.65 631.4 1495.6 629.35 1454.75 625.5 1429.7 591.6
L 1419.45 571.35
Q 1452.4 615.75 1507 617.15 1549.55 618.2 1579.15 586.2
M 1407 1500.2
Q 1406.15 1518.7 1411.25 1536.55 1423.25 1578.35 1462.2 1598.7 1494.1 1615.3 1529.1 1604.65 1563.85 1594.15 1585.85 1565.2 1608.55 1535.2 1612.4 1498.1
L 1604.8 1448.45
Q 1600.8 1439.3 1595.1 1431.15 1577.35 1406 1550.2 1392 1508.8 1370.8 1467.4 1391.7 1448.15 1401.35 1435.35 1418.8 1409 1454.85 1407 1500.2
M 1429.55 1561.15
L 1419.3 1540.9
Q 1452.25 1585.25 1506.85 1586.65 1549.4 1587.75 1579.1 1555.85 1586.75 1547.7 1589.2 1545.25 1570.95 1576.65 1537.25 1592 1517.5 1601 1495.45 1598.9 1454.65 1595.05 1429.55 1561.15
M 1423.7 1535.4
Q 1415.8 1524 1415.15 1510.55 1413.9 1483.4 1421.95 1457.6 1433.5 1420.35 1466.15 1399.75 1474.95 1394.2 1485.35 1392.9 1530.7 1388.25 1567.1 1415.9 1603.05 1443.3 1602.4 1487.85 1602.5 1494.2 1601.9 1500.6 1601.45 1505.25 1599.8 1509.65 1591.05 1533 1573.45 1551.15 1541.7 1584.05 1496.85 1578.85 1450.4 1573.8 1423.7 1535.4
M 434.1 1496.5
Q 433.25 1515.1 438.35 1532.9 450.35 1574.65 489.35 1595 521.2 1611.6 556.2 1601 591 1590.5 612.95 1561.55 635.7 1531.6 639.5 1494.45
L 631.9 1444.8
Q 626.2 1431.95 617.45 1420.9 600.95 1400.2 577.4 1388.2 535.85 1367.2 494.45 1387.95 475.1 1397.7 462.4 1415.15 436.15 1451.2 434.1 1496.5
M 456.65 1557.5
L 446.4 1537.25
Q 479.35 1581.6 533.95 1583.05 576.45 1584.15 606.2 1552.25 613.95 1543.9 616.3 1541.6 598.05 1573.05 564.35 1588.35 544.6 1597.3 522.55 1595.2 481.75 1591.4 456.65 1557.5
M 446.15 1521.75
Q 443.65 1516.85 443 1511.6 440.25 1488.75 445.25 1466.3 455.3 1421.2 493.35 1396.2 502.05 1390.5 512.45 1389.25 557.75 1384.65 594.15 1412.3 630.1 1439.65 629.5 1484.2 629.4 1487.4 629.25 1490.65 629 1497.1 627.15 1502.85 617.3 1534.1 591.3 1555.35 555.85 1584.35 511.1 1573.35 467.05 1562.4 446.15 1521.75
M 632.05 470.4
Q 628.05 461.2 622.35 453.15 604.6 427.95 577.45 414 536.05 392.7 494.6 413.55 475.3 423.25 462.55 440.75 436.3 476.75 434.3 522.15 433.5 540.6 438.6 558.45 450.5 600.25 489.5 620.6 521.3 637.25 556.35 626.6 591.15 616.1 613.1 587.15 635.8 557.15 639.65 520.05
L 632.05 470.4
M 493.45 421.75
Q 502.2 416 512.6 414.9 557.9 410.2 594.3 437.9 630.3 465.25 629.65 509.8 629.55 513 629.45 516.25 629.25 522.6 627.35 528.5 617.4 559.7 591.4 580.9 555.95 609.95 511.25 599 467.2 588 446.35 547.35 443.8 542.45 443.15 537.15 440.45 514.35 445.4 491.9 455.4 446.8 493.45 421.75
M 606.35 577.85
Q 613.95 569.7 616.45 567.2 598.2 598.6 564.5 613.95 544.75 622.95 522.7 620.85 481.9 616.95 456.8 583.1
L 446.55 562.85
Q 479.5 607.2 534.1 608.65 576.55 609.75 606.35 577.85 Z"/>

<path fill="#0066CC" stroke="none" d="
M 1964.7 76.9
Q 1965.9 57.7 1968.45 38.75
L 1786.05 36.55 27.15 37.05 30.45 1938.65
Q 90.95 1937.65 151.5 1938 180.2 1938.15 209 1937.85 221.4 1937.75 233.85 1937.95 239.95 1938.05 246.05 1938.05 250.15 1938.05 254.3 1938.15 261.75 1938.3 269.25 1938.6 276.95 1939.15 284.7 1939.7 312.9 1940.25 341.1 1940.8 363.7 1942.05 385.9 1942.1 465.95 1942.35 546.2 1941.65 578.3 1941.4 610.3 1941.3 681 1941.05 751.8 1940.85 779.45 1940.8 807.1 1940.7 889 1940.4 970.7 1938.8 1016.4 1937.9 1061.9 1937.7 1079.3 1937.6 1096.75 1937.4 1118.85 1937.2 1140.95 1936.9 1174.65 1936.4 1208.4 1936.55 1225.05 1936.6 1241.55 1935.3 1254.25 1935 1267 1934.8 1269.75 1934.75 1272.45 1934.3 1272.5 1934.45 1272.5 1934.2 1278 1934.2 1283.55 1934.25 1301.8 1934.45 1320.05 1934.65 1327.8 1934.75 1335.55 1934.75 1610.3 1933.85 1885 1934.2 1918.65 1934.25 1951.3 1934.2 1951.4 1926.75 1951.5 1919.25 1951.55 1916.85 1951.2 1914.3 1951 1912.6 1950.75 1910.95 1950.45 1909.3 1950.35 1907.65 1950.2 1906 1950.3 1904.35 1950.45 1902.65 1950.6 1901 1950.75 1899.35 1950.9 1897.7 1951 1896.05 1951.15 1894.4 1951.35 1891.9 1951.3 1889.4 1951.25 1884.4 1951.25 1879.45 1951.25 1875.3 1951.35 1871.15 1951.5 1866.1 1951.1 1861.15 1951 1859.55 1951.05 1857.9 1951.25 1853 1951.3 1847.95 1951.35 1845.4 1951.3 1842.95 1951.3 1841.3 1951.3 1839.65 1951.3 1838 1951.3 1836.35 1951.3 1834.65 1951.4 1833 1951.55 1830.55 1951.35 1828.05 1951.3 1827.2 1951.3 1826.4 1951.3 1825.55 1951.3 1824.75 1951.3 1823.9 1951.3 1823.05 1951.3 1822.2 1951.3 1821.4 1951.3 1820.55 1951.3 1819.75 1951.3 1818.9 1951.3 1818.1 1951.25 1797.4 1951.25 1776.65 1951.3 1732.7 1951.3 1688.75 1951.3 1644.8 1951.3 1600.85 1951.3 1556.9 1951.25 1512.95 1951.25 1469.05 1951.3 1425.1 1951.3 1381.15 1951.3 1337.2 1951.3 1294.05 1951.3 1250.95 1951.3 1207.85 1951.3 1164.75 1951.3 1120.8 1951.3 1076.85 1951.3 1033.75 1951.2 990.6 1951.1 947.4 1951.45 904.4 1951.85 861.05 1951.8 818.15 1951.8 775.05 1952.1 731.9 1952.45 687.95 1952.95 644 1953.4 600.95 1953.6 557.8 1953.85 513.75 1954.95 469.9 1956.05 427.05 1956.6 383.65 1957.15 339.8 1957 295.8 1956.9 251.85 1957.55 207.9 1957.9 186.55 1959.25 164.8 1961.95 120.85 1964.7 76.9
M 1661.65 250.3
Q 1665.85 256.5 1663.3 263.15 1670.75 305.4 1669.8 349.4 1668.85 393.35 1668.95 437.3 1669 480.55 1670.7 523.5 1672.45 566.5 1673.2 609.75 1673.9 652.9 1673.6 696 1673.25 739.95 1673.15 783.85 1673.1 827.05 1673.05 870.1 1672.95 913.15 1672.75 956.35 1672.55 999.1 1672.6 1042.55 1672.65 1086.55 1672.85 1130.45 1673.05 1173.75 1673.05 1216.7 1673 1259.9 1672.7 1302.9 1672.4 1346.15 1672.8 1389.15 1673.25 1433.1 1673.25 1477.05 1673.3 1521 1673.4 1564.95 1673.5 1597.55 1671.95 1629.6 1671.35 1642.15 1671.1 1654.5 1670.8 1669.65 1655 1671.1 1652.75 1671.45 1650.6 1670.85 1624.6 1670.4 1598.65 1670.05 1572.1 1669.7 1545.6 1669.55 1521.55 1669.4 1497.5 1669.35 1454.3 1669.3 1411.15 1669.35 1376.75 1669.4 1342.35 1669.4 1298.6 1669.45 1254.85 1669.4 1221.15 1669.4 1187.4 1669.65 1154.45 1669.9 1121.6 1668.3 1092.55 1667.75 1063.55 1667.35 1023.95 1666.85 984.4 1666.6 948.9 1666.4 913.4 1666.2 872.7 1665.95 832 1666.05 793.85 1666.1 755.75 1666.1 716.35 1666.05 676.65 1666.05 647 1666.05 617.4 1666 587.75 1665.9 558.1 1665.85 528.45 1665.8 498.8 1665.75 469.15 1665.65 439.5 1665.4 413.55 1665.2 387.65 1664.9 378.15 1673.55 368.75 1665
L 267.65 1663.75
Q 264.95 1678.55 249.6 1674.55 241.1 1672.3 240.85 1663.9 239.5 1620.8 239.75 1577.65 239.95 1534.55 239.9 1491.4 239.85 1448.4 239.9 1405.2 239.95 1362.1 239.95 1318.95 239.95 1275.8 239.95 1232.7 239.95 1188.75 239.95 1144.85 239.95 1101.75 240.05 1058.6 240.15 1015.45 240.4 972.35 240.65 929.25 241.05 886.15 241.5 842.3 241.45 798.25 241.4 755.1 242.1 712 242.8 668.9 242.85 625.8 242.9 582.4 244.5 539.55 246.1 495.65 245.95 451.65 245.85 408.65 245.3 365.45 244.8 324.55 246.25 284.15 246.55 276.55 247.5 269.2 247.7 267.6 247.7 265.95 247.7 265.1 247.6 264.25 247.35 262.25 248.55 260.55
L 247.7 254.3
Q 249.2 249.65 254.3 249.6 862.95 246.3 1471.5 245.5 1565.7 245.4 1658.35 248.2 1660.25 248.25 1661.65 250.3
M 1485.5 423.4
Q 1475.1 424.5 1466.35 430.25 1428.35 455.3 1418.35 500.45 1413.9 520.45 1415.15 541.05 1415.95 554.35 1423.9 565.8 1450.55 604.25 1497 609.3 1541.85 614.45 1573.6 581.65 1591.2 563.5 1599.9 540.05 1601.55 535.65 1602 531.05 1602.65 524.7 1602.55 518.3 1603.25 473.75 1567.2 446.4 1530.85 418.75 1485.5 423.4
M 1415.15 1510.55
Q 1415.8 1524 1423.7 1535.4 1450.4 1573.8 1496.85 1578.85 1541.7 1584.05 1573.45 1551.15 1591.05 1533 1599.8 1509.65 1601.45 1505.25 1601.9 1500.6 1602.5 1494.2 1602.4 1487.85 1603.05 1443.3 1567.1 1415.9 1530.7 1388.25 1485.35 1392.9 1474.95 1394.2 1466.15 1399.75 1433.5 1420.35 1421.95 1457.6 1413.9 1483.4 1415.15 1510.55
M 443 1511.6
Q 443.65 1516.85 446.15 1521.75 467.05 1562.4 511.1 1573.35 555.85 1584.35 591.3 1555.35 617.3 1534.1 627.15 1502.85 629 1497.1 629.25 1490.65 629.4 1487.4 629.5 1484.2 630.1 1439.65 594.15 1412.3 557.75 1384.65 512.45 1389.25 502.05 1390.5 493.35 1396.2 455.3 1421.2 445.25 1466.3 440.25 1488.75 443 1511.6
M 512.6 414.9
Q 502.2 416 493.45 421.75 455.4 446.8 445.4 491.9 440.45 514.35 443.15 537.15 443.8 542.45 446.35 547.35 467.2 588 511.25 599 555.95 609.95 591.4 580.9 617.4 559.7 627.35 528.5 629.25 522.6 629.45 516.25 629.55 513 629.65 509.8 630.3 465.25 594.3 437.9 557.9 410.2 512.6 414.9 Z"/>

<path fill="#003F7D" stroke="none" d="
M 1637.35 1147.6
L 1636.8 898.85 1548.65 896.35
Q 1545.25 918.15 1543.95 943.2 1541.25 995.1 1542.1 1046.9 1542.95 1097.8 1539.1 1148.65
L 1637.35 1147.6
M 1541.8 755.7
Q 1545.1 754.2 1548.2 756.05 1573.05 748.7 1600.2 752 1608.05 753.15 1616.1 753.55 1626.45 753.85 1636.8 754.6
L 1641.2 394.7 384.8 391.65
Q 385.75 434.55 385.85 477.65 385.95 521.6 386.95 565.55 387.9 609.4 389 653.4 390.05 697.25 390.4 741.3 390.75 784.55 391.4 827.55 391.95 864.85 391.95 902.15 391.95 940.3 391.95 978.45 391.95 980.1 391.95 981.75 391.95 983.4 391.95 985.1 391.95 986.75 391.95 988.4 391.95 990.05 391.95 991.7 391.95 1000.75 391.95 1009.95 391.9 1039.8 391.7 1069.65 391.55 1094.65 391.55 1119.4 391.55 1162.45 391.8 1205.65 392 1248.75 392 1291.85 391.95 1335 391.95 1378.1 391.95 1415.35 391.95 1452.7 391.95 1458.6 391.95 1464.35 391.95 1465.15 391.95 1466 391.95 1467.65 391.95 1469.3 391.95 1470.95 391.95 1472.6 391.95 1474.25 391.95 1475.95 391.9 1478.4 391.95 1480.9 391.95 1481.7 391.95 1482.55 391.95 1483.4 391.95 1484.25 391.95 1485.05 391.95 1485.9 391.9 1488.55 391.95 1490.85 392.05 1497.6 392.2 1504.15 392.2 1504.95 392.35 1505.8 392.5 1506.6 392.5 1507.45 392.5 1508.25 392.3 1509.05 391.55 1512.35 391.75 1515.75 391.9 1518.4 391.95 1520.7 391.95 1522.35 391.95 1524.05 391.95 1524.85 391.95 1525.7 391.95 1527.35 391.95 1529 391.95 1559.05 392.05 1588.7 392.2 1620.7 391.4 1651.7
L 1637.9 1645.1 1637.35 1167.5
Q 1586.9 1169.6 1536.45 1163.1 1530.1 1173.5 1523.95 1163.3 1521.55 1159.3 1521.5 1154.6 1520.05 957.2 1538.25 760.65 1538.55 757.25 1541.8 755.7
M 622.35 453.15
Q 628.05 461.2 632.05 470.4
L 639.65 520.05
Q 635.8 557.15 613.1 587.15 591.15 616.1 556.35 626.6 521.3 637.25 489.5 620.6 450.5 600.25 438.6 558.45 433.5 540.6 434.3 522.15 436.3 476.75 462.55 440.75 475.3 423.25 494.6 413.55 536.05 392.7 577.45 414 604.6 427.95 622.35 453.15
M 438.35 1532.9
Q 433.25 1515.1 434.1 1496.5 436.15 1451.2 462.4 1415.15 475.1 1397.7 494.45 1387.95 535.85 1367.2 577.4 1388.2 600.95 1400.2 617.45 1420.9 626.2 1431.95 631.9 1444.8
L 639.5 1494.45
Q 635.7 1531.6 612.95 1561.55 591 1590.5 556.2 1601 521.2 1611.6 489.35 1595 450.35 1574.65 438.35 1532.9
M 1411.25 1536.55
Q 1406.15 1518.7 1407 1500.2 1409 1454.85 1435.35 1418.8 1448.15 1401.35 1467.4 1391.7 1508.8 1370.8 1550.2 1392 1577.35 1406 1595.1 1431.15 1600.8 1439.3 1604.8 1448.45
L 1612.4 1498.1
Q 1608.55 1535.2 1585.85 1565.2 1563.85 1594.15 1529.1 1604.65 1494.1 1615.3 1462.2 1598.7 1423.25 1578.35 1411.25 1536.55
M 1595.25 461.65
Q 1601.05 469.8 1604.95 478.9
L 1612.55 528.55
Q 1608.65 565.7 1585.95 595.65 1563.95 624.65 1529.25 635.1 1494.2 645.75 1462.35 629.2 1423.4 608.8 1411.45 566.95 1406.35 549.1 1407.2 530.6 1409.2 485.3 1435.5 449.3 1448.25 431.8 1467.55 422.15 1508.95 401.25 1550.35 422.45 1577.45 436.45 1595.25 461.65 Z"/>

<path fill="#00468C" stroke="none" d="
M 1636.8 775.65
L 1553.35 772.25 1548.65 876.95
Q 1591.6 873.85 1633.5 882.35 1635.1 882.55 1636.8 882.25
L 1636.8 775.65
M 1589.35 575.7
Q 1586.85 577.95 1579.15 586.2 1549.55 618.2 1507 617.15 1452.4 615.75 1419.45 571.35
L 1429.7 591.6
Q 1454.75 625.5 1495.6 629.35 1517.65 631.4 1537.4 622.45 1571.15 607.1 1589.35 575.7
M 1419.3 1540.9
L 1429.55 1561.15
Q 1454.65 1595.05 1495.45 1598.9 1517.5 1601 1537.25 1592 1570.95 1576.65 1589.2 1545.25 1586.75 1547.7 1579.1 1555.85 1549.4 1587.75 1506.85 1586.65 1452.25 1585.25 1419.3 1540.9
M 446.4 1537.25
L 456.65 1557.5
Q 481.75 1591.4 522.55 1595.2 544.6 1597.3 564.35 1588.35 598.05 1573.05 616.3 1541.6 613.95 1543.9 606.2 1552.25 576.45 1584.15 533.95 1583.05 479.35 1581.6 446.4 1537.25
M 616.45 567.2
Q 613.95 569.7 606.35 577.85 576.55 609.75 534.1 608.65 479.5 607.2 446.55 562.85
L 456.8 583.1
Q 481.9 616.95 522.7 620.85 544.75 622.95 564.5 613.95 598.2 598.6 616.45 567.2
M 1642.65 285.25
Q 1643.2 276.8 1645.1 268.7
L 260.95 264.25
Q 263.9 307.05 263.35 350.5 263.2 362.95 263.2 375.4 263.2 379.5 263.15 383.65 263.1 390.3 263.1 396.95 263.15 404.45 263.15 411.85 263.15 415.25 263.15 418.5 263.15 420.15 263.15 421.8 263.1 424.2 263.15 426.8 263.15 428.45 263.15 430.1 263.15 431.75 263.15 433.4 263.15 435.05 263.2 436.75 263.3 439.2 263.35 441.7 263.4 443.35 263.55 445.05 263.8 447.55 263.75 450 263.65 454.15 263.75 458.3 263.8 460.75 263.7 463.25 263.7 464.1 263.7 464.95 263.7 465.75 263.7 466.6 263.7 467.4 263.7 468.25 263.7 469.05 263.65 469.9 262.75 487.2 263.4 504.75 264.95 548.7 265.05 592.6 265.15 635.85 266.1 678.85 267.1 722.15 267.15 765.1 267.2 808.15 267.3 851.3 267.4 894.4 267.6 937.55 267.8 980.8 268.25 1023.75 268.7 1066.9 268.7 1110 268.7 1153.1 268.7 1196.25 268.7 1239.35 268.7 1282.45 268.75 1326.4 268.75 1370.35 268.7 1414.55 268.7 1458.25 268.7 1502.2 268.7 1546.15 268.75 1590.3 269.05 1634.05 269.1 1643.25 268.15 1652.25
L 364.3 1651.7
Q 364.35 1609.05 364.25 1565.5 364.25 1553.05 364.2 1540.6 364.2 1536.45 364.2 1532.3 364.25 1525.7 364.15 1519.05 364 1511.55 364.45 1504.2 364.65 1500.9 364.4 1497.5 364.3 1495.85 364.35 1494.2 364.4 1491.7 364.35 1489.2 364.3 1487.55 364.3 1485.9 364.3 1484.2 364.3 1482.55 364.3 1480.9 364.3 1479.25 364.3 1476.9 364.3 1474.3 364.3 1472.6 364.3 1470.95 364.3 1468.55 364.25 1466 364.2 1461.85 364.3 1457.7 364.4 1455.2 364.3 1452.7 364.3 1451.85 364.3 1451.05 364.3 1450.2 364.3 1449.4 364.3 1448.55 364.3 1447.75 364.3 1446.9 364.3 1446.1 364.25 1428.7 364.25 1411.25 364.3 1367.3 364.25 1323.35 364.25 1280.25 364.3 1237.15 364.3 1194.05 364.2 1150.9 364.15 1107.9 364.2 1064.7 364.3 1021.55 364.3 978.45 364.3 935.3 364.1 892.2 363.9 849 364.9 806 365.9 763.2 366.55 719.75 367.2 676.65 368.2 633.5 369.25 589.65 369.7 545.65 370.2 501.55 370.2 457.75 370.2 421.85 371.85 386.4 372.05 382.25 373.15 378.15 383.05 370.85 396.45 371 428.85 372.3 461.35 372.3 1050.55 372.05 1641.2 371.5 1639.95 328 1642.65 285.25 Z"/>
</g>
</defs>

<g transform="matrix( 1, 0, 0, 1, -33.3,-326.4) ">
<use xlink:href="#Layer3_0_FILL"/>
</g>

<g transform="matrix( 1.6876678466796875, 0, 0, 1, 187.35,996.45) ">
<use xlink:href="#Layer3_1_FILL"/>
</g>

<g transform="matrix( 0, 1.7281494140625, -2.6666717529296875, 0, 4510.8,191.85) ">
<use xlink:href="#Layer3_2_FILL"/>
</g>

<g transform="matrix( 1.0000457763671875, 0, 0, 1, 166.4,99.85) ">
<use xlink:href="#Layer3_3_FILL"/>
</g>

<g transform="matrix( 1.0003814697265625, 0, 0, 1.0000152587890625, 38.3,-28.15) ">
<use xlink:href="#Layer3_4_FILL"/>
</g>

<g transform="matrix( 0, 1.0003662109375, -0.8461761474609375, 0, 1904.45,38.3) ">
<use xlink:href="#Layer3_5_FILL"/>
</g>

<g transform="matrix( 1, 0, 0, 1, 384,128) ">
<use xlink:href="#Layer3_6_FILL"/>
</g>

<g transform="matrix( 1, 0, 0, 1, 384,0) ">
<use xlink:href="#Layer3_7_FILL"/>
</g>

<g transform="matrix( 1, 0, 0, 1, 0,968.4) ">
<use xlink:href="#Layer3_8_FILL"/>
</g>

<g transform="matrix( 1, 0, 0, 1, 0,0) ">
<use xlink:href="#Layer3_9_FILL"/>
</g>

<g transform="matrix( 1, 0, 0, 1, 968.4,0) ">
<use xlink:href="#Layer3_10_FILL"/>
</g>

<g transform="matrix( 1, 0, 0, 1, 968.4,968.4) ">
<use xlink:href="#Layer3_11_FILL"/>
</g>

<g transform="matrix( 1, 0, 0, 1, 0,937.6) ">
<use xlink:href="#Layer3_12_FILL"/>
</g>

<g transform="matrix( 1, 0, 0, 1, 0,-30.8) ">
<use xlink:href="#Layer3_13_FILL"/>
</g>

<g transform="matrix( 1, 0, 0, 1, 968.4,-30.8) ">
<use xlink:href="#Layer3_14_FILL"/>
</g>

<g transform="matrix( 1, 0, 0, 1, 968.4,937.6) ">
<use xlink:href="#Layer3_15_FILL"/>
</g>

<g transform="matrix( 1, 0, 0, 1, 0,0) ">
<use xlink:href="#Layer2_0_FILL"/>
</g>
</svg>
