
<svg xmlns="http://www.w3.org/2000/svg" version="1.1" xmlns:xlink="http://www.w3.org/1999/xlink" preserveAspectRatio="none" x="0px" y="0px" width="2048px" height="3072px" viewBox="0 0 2048 3072">
<defs>
<g id="Layer2_0_FILL">
<path fill="#0051A1" stroke="none" d="
M 256 256
L 256 2816 1792 2816 1792 256 256 256 Z"/>
</g>

<g id="Layer2_1_MEMBER_0_FILL">
<path fill="#00468C" stroke="none" d="
M 640 539.8
Q 640 498.3 610.65 468.95 581.3 439.6 539.8 439.6 498.3 439.6 468.95 468.95 439.6 498.3 439.6 539.8 439.6 581.3 468.95 610.65 498.3 640 539.8 640 581.3 640 610.65 610.65 640 581.3 640 539.8 Z"/>
</g>

<g id="Layer2_1_MEMBER_1_FILL">
<path fill="#0066CC" stroke="none" d="
M 640 539.8
Q 640 498.3 610.65 468.95 581.3 439.6 539.8 439.6 498.3 439.6 468.95 468.95 439.6 498.3 439.6 539.8 439.6 581.3 468.95 610.65 498.3 640 539.8 640 581.3 640 610.65 610.65 640 581.3 640 539.8 Z"/>
</g>

<g id="Layer2_2_MEMBER_0_FILL">
<path fill="#00468C" stroke="none" d="
M 640 539.8
Q 640 498.3 610.65 468.95 581.3 439.6 539.8 439.6 498.3 439.6 468.95 468.95 439.6 498.3 439.6 539.8 439.6 581.3 468.95 610.65 498.3 640 539.8 640 581.3 640 610.65 610.65 640 581.3 640 539.8 Z"/>
</g>

<g id="Layer2_2_MEMBER_1_FILL">
<path fill="#0066CC" stroke="none" d="
M 640 539.8
Q 640 498.3 610.65 468.95 581.3 439.6 539.8 439.6 498.3 439.6 468.95 468.95 439.6 498.3 439.6 539.8 439.6 581.3 468.95 610.65 498.3 640 539.8 640 581.3 640 610.65 610.65 640 581.3 640 539.8 Z"/>
</g>

<g id="Layer2_3_MEMBER_0_FILL">
<path fill="#00468C" stroke="none" d="
M 640 539.8
Q 640 498.3 610.65 468.95 581.3 439.6 539.8 439.6 498.3 439.6 468.95 468.95 439.6 498.3 439.6 539.8 439.6 581.3 468.95 610.65 498.3 640 539.8 640 581.3 640 610.65 610.65 640 581.3 640 539.8 Z"/>
</g>

<g id="Layer2_3_MEMBER_1_FILL">
<path fill="#0066CC" stroke="none" d="
M 640 539.8
Q 640 498.3 610.65 468.95 581.3 439.6 539.8 439.6 498.3 439.6 468.95 468.95 439.6 498.3 439.6 539.8 439.6 581.3 468.95 610.65 498.3 640 539.8 640 581.3 640 610.65 610.65 640 581.3 640 539.8 Z"/>
</g>

<g id="Layer2_4_MEMBER_0_FILL">
<path fill="#00468C" stroke="none" d="
M 640 539.8
Q 640 498.3 610.65 468.95 581.3 439.6 539.8 439.6 498.3 439.6 468.95 468.95 439.6 498.3 439.6 539.8 439.6 581.3 468.95 610.65 498.3 640 539.8 640 581.3 640 610.65 610.65 640 581.3 640 539.8 Z"/>
</g>

<g id="Layer2_4_MEMBER_1_FILL">
<path fill="#0066CC" stroke="none" d="
M 640 539.8
Q 640 498.3 610.65 468.95 581.3 439.6 539.8 439.6 498.3 439.6 468.95 468.95 439.6 498.3 439.6 539.8 439.6 581.3 468.95 610.65 498.3 640 539.8 640 581.3 640 610.65 610.65 640 581.3 640 539.8 Z"/>
</g>

<g id="Layer2_5_MEMBER_0_FILL">
<path fill="#00468C" stroke="none" d="
M 640 539.8
Q 640 498.3 610.65 468.95 581.3 439.6 539.8 439.6 498.3 439.6 468.95 468.95 439.6 498.3 439.6 539.8 439.6 581.3 468.95 610.65 498.3 640 539.8 640 581.3 640 610.65 610.65 640 581.3 640 539.8 Z"/>
</g>

<g id="Layer2_5_MEMBER_1_FILL">
<path fill="#0066CC" stroke="none" d="
M 640 539.8
Q 640 498.3 610.65 468.95 581.3 439.6 539.8 439.6 498.3 439.6 468.95 468.95 439.6 498.3 439.6 539.8 439.6 581.3 468.95 610.65 498.3 640 539.8 640 581.3 640 610.65 610.65 640 581.3 640 539.8 Z"/>
</g>

<g id="Layer2_6_MEMBER_0_FILL">
<path fill="#003F7D" stroke="none" d="
M 1280 768
L 1152 768 1152 1024 1280 1024 1280 768 Z"/>
</g>

<g id="Layer2_6_MEMBER_1_FILL">
<path fill="#00468C" stroke="none" d="
M 1280 768
L 1152 768 1152 896 1280 896 1280 768 Z"/>
</g>

<g id="Layer2_7_FILL">
<path fill="#000000" stroke="none" d="
M -244 584.1
L -444.05 584.1 -444.05 1536.35 -244 1536.35 -244 584.1 Z"/>
</g>

<g id="Layer2_8_FILL">
<path fill="#0066CC" stroke="none" d="
M -244 584.1
L -444.05 584.1 -444.05 1536.35 -244 1536.35 -244 584.1 Z"/>
</g>

<g id="Layer2_9_FILL">
<path fill="#0066CC" stroke="none" d="
M -244 584.1
L -444.05 584.1 -444.05 1536.35 -244 1536.35 -244 584.1 Z"/>
</g>

<g id="Layer2_10_FILL">
<path fill="#000000" stroke="none" d="
M -244 584.1
L -444.05 584.1 -444.05 1536.35 -244 1536.35 -244 584.1 Z"/>
</g>

<g id="Layer2_11_FILL">
<path fill="#0066CC" stroke="none" d="
M -244 584.1
L -444.05 584.1 -444.05 1536.35 -244 1536.35 -244 584.1 Z"/>
</g>

<g id="Layer2_12_FILL">
<path fill="#0066CC" stroke="none" d="
M -244 584.1
L -444.05 584.1 -444.05 1536.35 -244 1536.35 -244 584.1 Z"/>
</g>

<g id="Layer2_13_FILL">
<path fill="#00468C" stroke="none" d="
M -244 584.1
L -444.05 584.1 -444.05 1536.35 -244 1536.35 -244 584.1 Z"/>
</g>

<g id="Layer2_14_FILL">
<path fill="#00468C" stroke="none" d="
M -244 584.1
L -444.05 584.1 -444.05 1536.35 -244 1536.35 -244 584.1 Z"/>
</g>
</defs>

<g transform="matrix( 1, 0, 0, 1, 0,0) ">
<use xlink:href="#Layer2_0_FILL"/>
</g>

<g transform="matrix( 1, 0, 0, 1, -128,-128) ">
<use xlink:href="#Layer2_1_MEMBER_0_FILL"/>
</g>

<g transform="matrix( 1, 0, 0, 1, -128,-158.8) ">
<use xlink:href="#Layer2_1_MEMBER_1_FILL"/>
</g>

<g transform="matrix( 1, 0, 0, 1, -128,2151.2) ">
<use xlink:href="#Layer2_2_MEMBER_0_FILL"/>
</g>

<g transform="matrix( 1, 0, 0, 1, -128,2120.4) ">
<use xlink:href="#Layer2_2_MEMBER_1_FILL"/>
</g>

<g transform="matrix( 1, 0, 0, 1, 1096.4,2151.2) ">
<use xlink:href="#Layer2_3_MEMBER_0_FILL"/>
</g>

<g transform="matrix( 1, 0, 0, 1, 1096.4,2120.4) ">
<use xlink:href="#Layer2_3_MEMBER_1_FILL"/>
</g>

<g transform="matrix( 1, 0, 0, 1, 915,-408.8) ">
<use xlink:href="#Layer2_4_MEMBER_0_FILL"/>
</g>

<g transform="matrix( 1, 0, 0, 1, 915,-439.6) ">
<use xlink:href="#Layer2_4_MEMBER_1_FILL"/>
</g>

<g transform="matrix( 1, 0, 0, 1, 1096.4,-128) ">
<use xlink:href="#Layer2_5_MEMBER_0_FILL"/>
</g>

<g transform="matrix( 1, 0, 0, 1, 1096.4,-158.8) ">
<use xlink:href="#Layer2_5_MEMBER_1_FILL"/>
</g>

<g transform="matrix( 1, 0, 0, 1, 512.1,768) ">
<use xlink:href="#Layer2_6_MEMBER_0_FILL"/>
</g>

<g transform="matrix( 1, 0, 0, 1, 512.1,640) ">
<use xlink:href="#Layer2_6_MEMBER_1_FILL"/>
</g>

<g transform="matrix( 0, 0.63983154296875, -2.1507568359375, 0, 3304.3,3228.1) ">
<use xlink:href="#Layer2_7_FILL"/>
</g>

<g transform="matrix( -0.63983154296875, 0, 0, -3.09161376953125, -156.1,4749.8) ">
<use xlink:href="#Layer2_8_FILL"/>
</g>

<g transform="matrix( 0, 0.63983154296875, -2.150726318359375, 0, 3304.25,284.1) ">
<use xlink:href="#Layer2_9_FILL"/>
</g>

<g transform="matrix( -0.63983154296875, 0, 0, -3.09161376953125, 1763.85,4749.6) ">
<use xlink:href="#Layer2_10_FILL"/>
</g>

<g transform="matrix( 0.63983154296875, 0, 0, 3.09161376953125, 2076.05,-1805.8) ">
<use xlink:href="#Layer2_11_FILL"/>
</g>

<g transform="matrix( 0, -0.63983154296875, 2.016204833984375, 0, -1177.6,2659.9) ">
<use xlink:href="#Layer2_12_FILL"/>
</g>

<g transform="matrix( -0.63983154296875, 0, 0, -2.82275390625, -27.95,4464.75) ">
<use xlink:href="#Layer2_13_FILL"/>
</g>

<g transform="matrix( 0, 0.63983154296875, -1.747406005859375, 0, 2812.75,412.1) ">
<use xlink:href="#Layer2_14_FILL"/>
</g>
</svg>
