
<svg xmlns="http://www.w3.org/2000/svg" version="1.1" xmlns:xlink="http://www.w3.org/1999/xlink" preserveAspectRatio="none" x="0px" y="0px" width="2000px" height="2000px" viewBox="0 0 2000 2000">
<defs>
<g id="Layer3_0_FILL">
<path fill="#000000" stroke="none" d="
M 598.25 1005.4
Q 595.8 1020.5 594.5 1047.15 592.7 1084.6 592.95 1109.65 593.25 1143.8 597.1 1171.9 604.65 1227.2 630.4 1291.7 646.75 1332.6 683.35 1405.4 719.95 1478.15 742.85 1519.8 777.1 1582.1 809.7 1629.9 814.5 1636.9 818.95 1640.4 825.05 1645.15 831 1643.95 837.15 1642.75 841 1635.75 843.75 1630.65 845.4 1622
L 899.6 1336
Q 916.2 1407.45 945.15 1474.55 948.85 1483.1 953.5 1487.9 959.6 1494.15 966.35 1492.8 972.05 1491.65 975.75 1485.35 978.4 1480.8 980.3 1472.9
L 1030.7 1264.35 1050.25 1329.35
Q 1067.65 1387.2 1078.3 1415.8 1095.9 1463.1 1117.05 1497.45 1120.5 1503.1 1123.75 1506.1 1128.15 1510.2 1133 1510.25 1143.3 1510.3 1150.1 1492.65 1195.4 1377 1215.3 1278.7 1239.05 1161.2 1229.2 1057.6 1225.05 1014.1 1214.55 981.8 1201.65 942.1 1178.15 915.45 1152.1 886 1106.8 865.75 995.05 816 830 846.85 779.55 856.25 741.05 870.05 694.65 886.7 659.9 911.55 624.6 936.8 610.2 965.75 601.9 982.5 598.25 1005.4
M 1082.6 940
Q 1093.2 950.5 1099.8 966.6 1105.25 979.9 1108.2 997.7 1114.4 1035 1109.5 1082 1106.45 1110.95 1095.65 1166.1 1086.7 1138.8 1072.9 1113.45 1059.1 1088.05 1041.1 1065.7 1022.15 1042.15 1005.25 1046.15 998.55 1047.75 992.65 1053.9 988.4 1058.3 983.45 1066.4 966.9 1093.5 951.2 1129.95 941.65 1152 924.9 1196.45 910.45 1153 882.8 1116.9 872.8 1103.85 863.8 1105.55 859.2 1106.45 855.5 1111.1 852.9 1114.35 850.2 1120.45 805 1221.8 777.35 1329.3
L 758.2 1267.65
Q 754.5 1255.75 752.15 1249.9 748.2 1240.25 743.25 1233.6 741.9 1231.75 737.8 1226.95 734.3 1222.8 732.55 1220.15 729.65 1215.85 727.3 1209.95 725.75 1206 723.6 1199 714.05 1167.9 710.15 1143.1 705.35 1112.5 708 1086.1 711.05 1056.15 724.1 1031.05 738.2 1003.9 761.05 988.4 769.85 993.05 782.2 989.9 790.25 987.85 803.3 981.05 836.1 963.95 880.6 945.45 926.65 926.3 958.25 919.35 1002.2 909.75 1038.05 917.7 1066.5 924.05 1082.6 940
M 614.75 1087.55
Q 615.65 1074.2 618.3 1047.75 620.65 1024.35 622.9 1012.5 626.6 993.15 633.5 979 644.7 956.15 668.2 937.55 687.4 922.35 715.8 909.25 766.75 885.75 822 876.5 828.25 886.2 843.3 886.25 853.15 886.25 870.15 881.55 909.2 870.8 956.25 874.1 971.9822265625 875.1990234375 989.2 877.95 959.8021484375 880.0369140625 926.8 889.8 894.6 899.3 836.3 924.75 789.75 945.15 766.55 959.65 729.9 982.65 711.25 1011.6 690.15 1044.35 687.7 1090.15 685.7 1128.35 696.7 1174.2 700.8 1191.3 705.45 1204.75 710.95 1220.8 717.95 1233.9 719.85 1237.5 726.3 1248.5 731.6 1257.55 734.3 1263.3 738.8 1272.9 743.05 1287.1 745.45 1295.25 749.95 1311.65 758.7 1341.45 772.5 1369 775.4 1374.95 778.95 1378.2 783.5 1382.4 788.3 1381.4 792.25 1380.6 795.05 1376.25 797 1373.2 798.65 1367.65 831.65 1257.85 871.4 1150.3 890.15 1179.45 901.65 1211.5 905.05 1220.85 906.15 1223.4 909 1230 912.45 1234.35 916.7 1239.6 922.45 1242.2 928.75 1245.05 934.6 1243.55 941.1 1241.85 946.15 1235.05 949.6 1230.3 953.3 1221.45
L 1011.7 1082.45
Q 1034.05 1100.6 1052.2 1138.75 1055.4 1145.55 1066.7 1171.6 1075.55 1191.95 1082 1203.9 1087.2 1213.6 1094.75 1218.8 1103.7 1225 1111.05 1220.45 1114.25 1218.45 1116.45 1214.3 1117.95 1211.5 1119.6 1206.35 1141.45 1137.65 1146.85 1066.2 1148.65 1042.6 1148.05 1024 1147.3 1001.35 1143 982.25 1138.15 960.7 1128.4 942.65 1119.3427734375 925.8294921875 1106.75 913.5 1126.03046875 924.2712890625 1139.25 938.3 1155.65 955.75 1166.7 982.5 1174.95 1002.45 1182.1 1033.15 1189.7 1065.95 1193.55 1094.8 1197.95 1127.55 1197.75 1157.3 1197.55 1194.15 1189.75 1242.55 1171.5 1355.95 1127.15 1461.75 1076.1 1338.55 1046.7 1208.55 1045 1201.05 1042.65 1196.8 1039.35 1190.8 1034.1 1189.45 1026.6 1187.55 1020.5 1195.3 1015.6 1201.55 1013 1211.55
L 958.4 1423.1
Q 926.45 1350.3 916.2 1271.55 912.65 1244.45 898.45 1242.5 888.7 1241.2 882.2 1251.95 877 1260.55 875.3 1273.5 853.5 1437.1 816.9 1596.75 755.9 1496.15 700.65 1391.35 660.3 1314.65 641.55 1263.4 615 1190.7 613.6 1127.4 613.2 1109.65 614.75 1087.55 Z"/>

<path fill="#FF3300" stroke="none" d="
M 618.3 1047.75
Q 615.65 1074.2 614.75 1087.55 613.2 1109.65 613.6 1127.4 615 1190.7 641.55 1263.4 660.3 1314.65 700.65 1391.35 755.9 1496.15 816.9 1596.75 853.5 1437.1 875.3 1273.5 877 1260.55 882.2 1251.95 888.7 1241.2 898.45 1242.5 912.65 1244.45 916.2 1271.55 926.45 1350.3 958.4 1423.1
L 1013 1211.55
Q 1015.6 1201.55 1020.5 1195.3 1026.6 1187.55 1034.1 1189.45 1039.35 1190.8 1042.65 1196.8 1045 1201.05 1046.7 1208.55 1076.1 1338.55 1127.15 1461.75 1171.5 1355.95 1189.75 1242.55 1197.55 1194.15 1197.75 1157.3 1197.95 1127.55 1193.55 1094.8 1189.7 1065.95 1182.1 1033.15 1174.95 1002.45 1166.7 982.5 1155.65 955.75 1139.25 938.3 1126.03046875 924.2712890625 1106.75 913.5 1119.3427734375 925.8294921875 1128.4 942.65 1138.15 960.7 1143 982.25 1147.3 1001.35 1148.05 1024 1148.65 1042.6 1146.85 1066.2 1141.45 1137.65 1119.6 1206.35 1117.95 1211.5 1116.45 1214.3 1114.25 1218.45 1111.05 1220.45 1103.7 1225 1094.75 1218.8 1087.2 1213.6 1082 1203.9 1075.55 1191.95 1066.7 1171.6 1055.4 1145.55 1052.2 1138.75 1034.05 1100.6 1011.7 1082.45
L 953.3 1221.45
Q 949.6 1230.3 946.15 1235.05 941.1 1241.85 934.6 1243.55 928.75 1245.05 922.45 1242.2 916.7 1239.6 912.45 1234.35 909 1230 906.15 1223.4 905.05 1220.85 901.65 1211.5 890.15 1179.45 871.4 1150.3 831.65 1257.85 798.65 1367.65 797 1373.2 795.05 1376.25 792.25 1380.6 788.3 1381.4 783.5 1382.4 778.95 1378.2 775.4 1374.95 772.5 1369 758.7 1341.45 749.95 1311.65 745.45 1295.25 743.05 1287.1 738.8 1272.9 734.3 1263.3 731.6 1257.55 726.3 1248.5 719.85 1237.5 717.95 1233.9 710.95 1220.8 705.45 1204.75 700.8 1191.3 696.7 1174.2 685.7 1128.35 687.7 1090.15 690.15 1044.35 711.25 1011.6 729.9 982.65 766.55 959.65 789.75 945.15 836.3 924.75 894.6 899.3 926.8 889.8 959.8021484375 880.0369140625 989.2 877.95 971.9822265625 875.1990234375 956.25 874.1 909.2 870.8 870.15 881.55 853.15 886.25 843.3 886.25 828.25 886.2 822 876.5 766.75 885.75 715.8 909.25 687.4 922.35 668.2 937.55 644.7 956.15 633.5 979 626.6 993.15 622.9 1012.5 620.65 1024.35 618.3 1047.75 Z"/>

<path fill="#FFCC00" stroke="none" d="
M 1099.8 966.6
Q 1093.2 950.5 1082.6 940 1066.5 924.05 1038.05 917.7 1002.2 909.75 958.25 919.35 926.65 926.3 880.6 945.45 836.1 963.95 803.3 981.05 790.25 987.85 782.2 989.9 769.85 993.05 761.05 988.4 738.2 1003.9 724.1 1031.05 711.05 1056.15 708 1086.1 705.35 1112.5 710.15 1143.1 714.05 1167.9 723.6 1199 725.75 1206 727.3 1209.95 729.65 1215.85 732.55 1220.15 734.3 1222.8 737.8 1226.95 741.9 1231.75 743.25 1233.6 748.2 1240.25 752.15 1249.9 754.5 1255.75 758.2 1267.65
L 777.35 1329.3
Q 805 1221.8 850.2 1120.45 852.9 1114.35 855.5 1111.1 859.2 1106.45 863.8 1105.55 872.8 1103.85 882.8 1116.9 910.45 1153 924.9 1196.45 941.65 1152 951.2 1129.95 966.9 1093.5 983.45 1066.4 988.4 1058.3 992.65 1053.9 998.55 1047.75 1005.25 1046.15 1022.15 1042.15 1041.1 1065.7 1059.1 1088.05 1072.9 1113.45 1086.7 1138.8 1095.65 1166.1 1106.45 1110.95 1109.5 1082 1114.4 1035 1108.2 997.7 1105.25 979.9 1099.8 966.6 Z"/>
</g>

<g id="Layer2_0_FILL">
<path fill="#000000" stroke="none" d="
M 1580.65 490.6
Q 1571.05 476.85 1557.55 467.1 1533.85 450.05 1505.6 458 1484.95 463.85 1468.35 477.85 1454.75 489.3 1451.4 506.1 1448.5 520.45 1453.05 534.5 1466.9 577.2 1509.65 590.8 1516 619.55 1516.2 648.85 1516.4 683 1513.7 717.15 1511.35 746.5 1501.55 774.3 1493.95 795.95 1478.95 813.35 1456.8 838.95 1422.95 840.45 1421.6 828.6 1419.3 816.75 1407.9 758.15 1372.15 710.45 1335.65 661.7 1287.25 624.7 1239.75 588.35 1184.7 564.75 1129.6 541.2 1070.45 531.25 1011.4 521.4 951.7 526.4 896.75 531.5 844.65 548.85 788.25 567.8 735.45 594.9 681.5 622.55 635.6 661.8 588.95 701.7 559.85 755.5 531.75 807.55 523.3 866.2 514.75 925.3 523.8 984.45 532.65 1042.05 557.8 1094.8 565.4 1106.9 579.2 1109.9 603.1 1114.85 627.5 1112.95 655.35 1110.25 683.15 1109.15 741.95 1107.3 800.8 1105.75 828 1105.05 855.15 1101.95 880.5 1141.85 916.5 1172.4 951.4 1202.05 993.25 1220.85 1049.85 1246.35 1111.85 1247.4 1157.2 1248.15 1199.9 1233.3 1255.7 1213.9 1299.95 1174.95 1335.95 1143.3 1362.3 1103.25 1385.6 1067.75 1400.65 1027.8 1429.1 952.25 1425.7 871.5 1440.4 869.8 1454.4 865.15 1482.5 855.9 1502.45 833.85 1524.65 809.35 1535.85 778.45 1546.95 747.7 1550.05 715 1552.2 692.1 1553.25 669.3 1554.4 644.95 1551.4 620.65 1549.05 601.25 1552.4 584.85 1562.95 578.25 1571.8 569.85 1585.85 556.35 1590 537.2 1595.55 511.9 1580.65 490.6
M 1320.35 727.2
Q 1329.75 736.35 1336.2 747.3 1367 799.6 1374.3 859.8 1381.45 918.9 1366.15 976.5 1350.8 1034.35 1316.35 1083.25 1282.5 1131.4 1232.7 1162.6 1181.6 1194.75 1121.1 1197.35 1060.2 1199.2 1005.4 1172.55 951.15 1146.05 913 1099.1 874.35 1051.45 860.8 991.6 850.7 946.85 863.7 903.15 881.4 843.65 936.75 815.7 991.55 788.05 1052.2 796.8 1086.15 801.95 1112.45 823.5 1157.1 860.1 1155.65 918.55 1154.05 982.85 1104.35 1022.75 1099.3 1026.75 1093.05 1026.95 1055.1 1029.9 1034.75 995.45 1030.2 987.7 1029.7 978.85 1028.25 954.65 1007.6 948.25 999.65 949.4 995.3 956.45 978.3 984.45 992.15 1014.5 1010.75 1055 1052.95 1071.25 1069.1 1077.45 1086.35 1076.05 1127.7 1073.05 1154.85 1040.4 1194.25 992.95 1198.65 931.05 1203.65 861.2 1157.95 808.85 1123.6 769.5 1072.1 759.35 970.75 739.25 887.45 800.75 908 761.6 937.7 728.75 979.2 682.8 1035.95 658.75 1090.25 635.85 1149.1 638.9 1207.4 641.9 1255.65 674.45 1290.35 697.9 1320.35 727.2
M 837.7 590.55
Q 895.35 573.65 955.25 570.05 1014.45 566.8 1072.3 580.7
L 1165.75 608.4
Q 1159.85 608 1154 607.6 1093.55 605.05 1037.25 626.8 972.65 651.75 924.9 702.1 885.45 743.8 860.5 795.6 837.2 843.8 822.2 895.1 797.55 979.5 833.05 1060.15 832 1060.25 830.95 1060.4 805.4 1063.3 780.4 1067.2 754.25 1070.85 727.65 1072.8 706.55 1073.75 685.3 1073.9 663.4 1074.1 641.65 1076 608.85 1078.45 577.85 1082.35 563.3 1051.9 554.65 1019.25 539.65 962.4 544.25 903.6 548.55 848.05 570.9 797.05 593.8 744.8 633.7 704.1 675.35 661.6 728.3 634.3 780.9 607.05 837.7 590.55 Z"/>

<path fill="#324A15" stroke="none" d="
M 955.25 570.05
Q 895.35 573.65 837.7 590.55 780.9 607.05 728.3 634.3 675.35 661.6 633.7 704.1 593.8 744.8 570.9 797.05 548.55 848.05 544.25 903.6 539.65 962.4 554.65 1019.25 563.3 1051.9 577.85 1082.35 608.85 1078.45 641.65 1076 663.4 1074.1 685.3 1073.9 706.55 1073.75 727.65 1072.8 754.25 1070.85 780.4 1067.2 805.4 1063.3 830.95 1060.4 832 1060.25 833.05 1060.15 797.55 979.5 822.2 895.1 837.2 843.8 860.5 795.6 885.45 743.8 924.9 702.1 972.65 651.75 1037.25 626.8 1093.55 605.05 1154 607.6 1159.85 608 1165.75 608.4
L 1072.3 580.7
Q 1014.45 566.8 955.25 570.05 Z"/>

<path fill="#B2A03D" stroke="none" d="
M 1336.2 747.3
Q 1329.75 736.35 1320.35 727.2 1290.35 697.9 1255.65 674.45 1207.4 641.9 1149.1 638.9 1090.25 635.85 1035.95 658.75 979.2 682.8 937.7 728.75 908 761.6 887.45 800.75 970.75 739.25 1072.1 759.35 1123.6 769.5 1157.95 808.85 1203.65 861.2 1198.65 931.05 1194.25 992.95 1154.85 1040.4 1127.7 1073.05 1086.35 1076.05 1069.1 1077.45 1052.95 1071.25 1010.75 1055 992.15 1014.5 978.3 984.45 995.3 956.45 999.65 949.4 1007.6 948.25 1028.25 954.65 1029.7 978.85 1030.2 987.7 1034.75 995.45 1055.1 1029.9 1093.05 1026.95 1099.3 1026.75 1104.35 1022.75 1154.05 982.85 1155.65 918.55 1157.1 860.1 1112.45 823.5 1086.15 801.95 1052.2 796.8 991.55 788.05 936.75 815.7 881.4 843.65 863.7 903.15 850.7 946.85 860.8 991.6 874.35 1051.45 913 1099.1 951.15 1146.05 1005.4 1172.55 1060.2 1199.2 1121.1 1197.35 1181.6 1194.75 1232.7 1162.6 1282.5 1131.4 1316.35 1083.25 1350.8 1034.35 1366.15 976.5 1381.45 918.9 1374.3 859.8 1367 799.6 1336.2 747.3 Z"/>
</g>

<g id="Layer1_0_FILL">
<path fill="#000000" stroke="none" d="
M 780.5 601.85
Q 777.85 597.35 774.55 595 770.5 592.05 766.95 593.85 764.8 594.95 763.85 597.55 762.9 599.95 763.35 602.55 763.7 604.7 765 607.25 765.6 608.45 767.55 611.6 779.1 630.4 786.35 651.45
L 729.9 693.8
Q 715.05 704.95 707.75 710.9 695.7 720.7 687 729.55 661.1 755.9 643.65 794.85 628.95 827.6 619.8 870.6 592.55 865.2 567.05 852.9 561.05 849.95 558.65 849 553.75 847.15 549.75 847.05 544.9 846.95 540.85 849.55 536.55 852.35 535.9 856.7 535.2 861.8 539.6 866.5 543 870.1 549.15 873.2 586.85 892.45 622.25 896.55 626.8 897.1 629.8 896.75 633.9 896.2 636.35 893.9 638.35 892.05 639.45 888.85 640.1 886.85 640.75 882.85 646.3 850.35 659.05 819.75 672.85 786.55 694.5 757.45 716.1 728.3 743.9 705.45 762.25 690.35 792.65 671.15 797.5 668.1 799.75 665.95 803.35 662.65 804.3 658.9 805.15 655.55 804.1 651.35 803.4 648.65 801.35 644.1 794.9 629.75 791.5 622.7 785.8 610.9 780.5 601.85 Z"/>

<path fill="#000000" fill-opacity="0.18823529411764706" stroke="none" d="
M 1396.4 877.45
Q 1389.4 875.9 1381.9 878.95 1375.05 881.7 1369.55 887.45 1365.05 892.2 1360.9 899.55 1358.9 903.05 1354.05 912.95 1311.65 1000.3 1250.05 1050.05 1215.2 1078.25 1175.05 1093.35 1132.6 1109.3 1090.4 1108.1 1060.65 1107.25 1026.95 1097.5 1000.3 1089.8 966.15 1074.85 946.3 1066.2 934.35 1059.05 917.65 1049.05 907.05 1037.1 897.25 1024.55 892.15 1018.55 883.2 1007.95 874.3 1004.1 868.85 1001.75 863.4 1002 857.35 1002.3 853.5 1005.8 846.4681640625 1012.196484375 849.1 1026.25 846.1791015625 1021.6779296875 841.8 1018.55 837.9619140625 1015.7845703125 833.15 1014.2 831.5494140625 1009.2314453125 830.4 1004.05 829.328125 999.1375 828.7 994.2 829.8275390625 974.337890625 832.2 954.5 834.0267578125 939.3451171875 836.35 927.8 842.613671875 906.504296875 853.35 884.4 864.4 861.7 880.9 836.75 884.1 831.9 885.45 829.5 887.8 825.3 888.75 821.65 889.9 817.25 889.15 813.05 888.557421875 809.680078125 886.8 807.2 890.4533203125 801.0796875 893.15 796.7 905 777.5 915.85 763.15 920.4 757.1 922 752.5 923.18515625 749.1025390625 922.85 746.3 924.1916015625 744.2806640625 925.3 742.4 930.1890625 738.3513671875 935.35 734.55 941.25 730.15 942.45 729.15 946.3 725.9 948.5 722.75 951.15 718.85 951.65 714.4 952.2 709.6 949.85 706.05 947.85 703 944.05 701.5 940.55 700.1 936.6 700.4 930.75 700.8 922.4 705.4 894.25 720.8 870.25 751.95 853.05 774.25 832.65 812.85 823.65 829.8 818.45 841.2 808.548828125 862.6755859375 801.6 885.15 787.5171875 912.7265625 779.5 947.95 774.537890625 969.720703125 771.3 997.8 769.7919921875 1005.775390625 768.2 1014.65 767.58984375 1017.99375 767.1 1020.95 753.0927734375 1023.84140625 733.55 1027.95 693.5 1036.4 667.8 1039.75 638.6 1042.95 624.05 1044.75 598.4 1047.9 580.9 1052.75 574.45 1054.55 570.65 1056.65 565.35 1059.55 563 1063.8 560.4 1068.6 561.6 1074.5 562.75 1080.15 566.75 1084.25 570.4 1088.05 575.95 1090.25 580.9 1092.15 586.8 1092.6 591.6 1093 597.9 1092.45 599 1092.35 609 1091.2 621.15 1089.85 646.45 1088.7 671.2 1087.6 683.9 1086.1 692.45 1085.1 707.5 1082.5 724.1 1079.7 731.05 1078.75 746.7 1076.65 773.6 1075.15 774.2947265625 1075.112109375 774.95 1075.05 777.4076171875 1077.0970703125 780.4 1078.25 783.5341796875 1081.4564453125 787.5 1083.9 798 1090.35 808.35 1087.5 816.959375 1085.151953125 822.5 1077 826.209765625 1078.9029296875 830.5 1079.45 838.4 1080.5 843.85 1076.1 848.5 1072.4 850.05 1065.7 851.1994140625 1060.548828125 850.25 1055.05 853.5513671875 1048.9021484375 853.65 1042.15 853.651171875 1042.0759765625 853.65 1042 860.702734375 1061.6935546875 873.2 1079.15 888.85 1101.2 910.7 1116.3 917.05 1120.7 918.95 1122.35 923.3 1126.05 925.15 1130.05 926.5 1133 927.25 1138.3 928.2 1145 928.7 1146.85 931.1 1155.55 939.7 1162.75 945.9 1167.95 957 1173.4 1008.05 1198.5 1061 1206.75 1117.7 1215.55 1169.15 1203.6 1200.25 1196.3 1236.35 1179.45 1253.85 1171.3 1266.9 1163.5 1282.75 1154.05 1294.9 1143.6 1310.8 1129.9 1326 1109.45 1336.9 1094.8 1351.55 1070.65 1374.7 1032.55 1388.5 1003.3 1406.25 965.65 1414.35 931.4 1416.55 922.15 1417.15 915.7 1417.95 907 1416.4 899.95 1414.6 891.85 1409.4 885.7 1403.85 879.15 1396.4 877.45 Z"/>
</g>

<g id="Layer0_0_FILL">
<path fill="#000000" fill-opacity="0.00392156862745098" stroke="none" d="
M 2679.35 2472.9
L 2679.35 472.9 679.35 472.9 679.35 2472.9 2679.35 2472.9 Z"/>
</g>

<path id="Layer0_0_1_STROKES" stroke="#000000" stroke-opacity="0" stroke-width="1" stroke-linejoin="round" stroke-linecap="round" fill="none" d="
M 679.35 472.9
L 2679.35 472.9 2679.35 2472.9 679.35 2472.9 679.35 472.9 Z"/>
</defs>

<g transform="matrix( 1, 0, 0, 1, 0,0) ">
<use xlink:href="#Layer3_0_FILL"/>
</g>

<g transform="matrix( 1, 0, 0, 1, 0,0) ">
<use xlink:href="#Layer2_0_FILL"/>
</g>

<g transform="matrix( 1, 0, 0, 1, 0,0) ">
<use xlink:href="#Layer1_0_FILL"/>
</g>

<g transform="matrix( 1, 0, 0, 1, -679.35,-472.9) ">
<use xlink:href="#Layer0_0_FILL"/>

<use xlink:href="#Layer0_0_1_STROKES"/>
</g>
</svg>
