
<svg xmlns="http://www.w3.org/2000/svg" version="1.1" xmlns:xlink="http://www.w3.org/1999/xlink" preserveAspectRatio="none" x="0px" y="0px" width="2000px" height="2000px" viewBox="0 0 2000 2000">
<defs>
<g id="Layer3_0_FILL">
<path fill="#000000" stroke="none" d="
M 637.7 923.8
Q 616.45 942.75 603.8 965.35 595.95 979.4 592.6 993.3 588.85 1008.85 591.05 1022.95 592.3 1030.9 596.2 1041.45 598.4 1047.5 603.2 1059.45 606.05 1066.95 609 1076.6 610.7 1082.25 614.05 1094 649.05 1218.05 668.8 1279.6 701.65 1381.95 736.5 1460.5 740.5 1469.55 745.5 1474.55 751.95 1481.1 759.05 1479.55 765.25 1478.15 768.95 1470.95 771.55 1465.8 773.15 1456.9 786.35 1381.55 814.5 1309.95 835.6 1355.65 855.45 1415.6 867 1450.4 888.65 1524.3 909.6 1596.1 922 1632.9 942.05 1692.5 963.65 1738.2 967.9 1747.25 974.65 1752.25 982.65 1758.2 988.8 1753.45 991.5 1751.35 992.9 1747.3 993.8 1744.55 994.4 1739.65 1016.65 1561.95 1067.8 1389.9 1096.95 1448.5 1135.85 1500.85 1141.75 1508.7 1147.15 1512.55 1154.45 1517.7 1161.35 1515.95 1167.75 1514.35 1171.9 1507.05 1174.8 1501.9 1177 1492.8 1199.65 1399.15 1213.4 1324.6 1230.1 1234.05 1237.2 1154.35 1241.35 1107.65 1239.85 1076.05 1237.8 1033.25 1225.6 999.95 1204.55 942.55 1150.75 901.1 1100.55 862.45 1035.9 847.6 978.75 834.45 910.3 839.15 855 842.9 784.75 859.2 753.95 866.35 732.45 873.2 704.5 882.15 682.5 893.5 657.15 906.55 637.7 923.8
M 628.5 1047.35
Q 625.35 1016.9 634.6 994.25 643.5 972.35 665 954.45 682.6 939.85 709.05 927.65 740 913.4 777.4 903.45 809.2 894.95 848.7 888.8 902.9 880.35 946.4 880.55 999.05 880.8 1042.75 893.45 1091.85 907.7 1129.65 938.25 1170.2 971.05 1187.55 1014.9 1198.8 1043.3 1201.35 1079.95 1203.2 1107.35 1200.25 1147.25 1194.85 1220.4 1178.7 1308.6 1167.65 1369.05 1145.05 1468.1 1110.95 1422 1088 1370.1 1083.1 1359 1077.4 1353.05 1069.8 1345.05 1061.35 1346.95 1054.8 1348.45 1050.55 1355.9 1047.5 1361.2 1045.3 1370.45
L 969.8 1686.3
Q 909.35 1476.45 833.7 1272.5 830.45 1263.8 827.05 1259.05 822.2 1252.35 815.75 1251.25 807.15 1249.8 799.85 1258.1 794.2 1264.55 790.2 1275.6 763.15 1350.85 749.4 1429.75 740.5 1413.15 732.1 1391.6 726.5 1377.3 718 1352.1 676 1228.3 640.15 1101.5 630.55 1067.45 628.5 1047.35
M 1123.9 1089.95
Q 1108.65 1041.4 1071.7 1002.35 1035.6 964.25 987.35 943.95 940.6 924.25 887.15 923 835.45 921.8 785.4 937.9 728.25 956.25 696.65 990.75 680.75 1007.95 680 1023.6 679.75 1029.55 681.6 1037.05 682.3 1039.8 685.6 1050.15 690.55 1065.85 694.5 1086.1 696.85 1098.4 700.6 1122.65
L 713.2 1204.8
Q 714.7 1214.45 717.95 1220.4 722.3 1228.25 729.35 1228.8 735.35 1229.25 740.95 1223.9 744.7 1220.25 749.2 1212.6 774.1 1170.4 810.45 1137.65 843.2 1191.75 872.35 1279.3 877.65 1295.25 895.95 1353.6 910.35 1399.65 920.45 1427.55 922.7 1433.8 924.4 1437.3 927 1442.5 930.2 1445.9 934.05 1449.9 939.1 1451.45 944.6 1453.15 949.2 1451.15 953.9 1449.15 957.05 1443.55 959.15 1439.9 961.35 1432.8 995.15 1323.75 1043.35 1219.55 1066.35 1256.45 1083 1296.95 1086.5 1305.55 1088.4 1309.15 1091.85 1315.75 1096.1 1319.8 1101.2 1324.6 1107.95 1325.85 1115.2 1327.2 1120.35 1323.5 1124.85 1320.35 1127 1313.75 1128.5 1309.3 1129.2 1301.45 1132.65 1265.1 1134.6 1228.55 1136.95 1186.15 1135.45 1158.5 1133.4 1120.15 1123.9 1089.95
M 1038.8 1173.5
Q 1030.5 1174.5 1023.6 1182.45 1018.7 1188.15 1013.65 1198.65 992.9 1241.75 973.4 1292.3 956.8 1335.25 939.3 1388.45 912.6 1300.7 897.25 1257.25 871.65 1185.1 843.6 1130.75 837.5 1118.9 831.4 1112.5 823.1 1103.75 813.45 1103.3 804.7 1102.9 795.85 1109.55 789.8 1114.15 781.85 1123.85
L 730.2 1187.2 709.9 1073.15
Q 708.3 1064.05 708 1059.3 707.55 1051.5 709.2 1045.55 711.35 1037.9 719.05 1028.15 744.8 995.85 788.6 979.15 827.85 964.15 874.45 964.05 904.75 963.95 932.8 969.65 962.55 975.7 988.25 988.05 1015.3 1001 1036.9 1020.55 1059.45 1040.9 1073.4 1066 1093.3 1101.7 1098.2 1152.3 1101.45 1186.15 1098.25 1244.25
L 1071.4 1198.65
Q 1064.4 1186.8 1057.75 1180.75 1048.55 1172.35 1038.8 1173.5 Z"/>

<path fill="#FF3300" stroke="none" d="
M 634.6 994.25
Q 625.35 1016.9 628.5 1047.35 630.55 1067.45 640.15 1101.5 676 1228.3 718 1352.1 726.5 1377.3 732.1 1391.6 740.5 1413.15 749.4 1429.75 763.15 1350.85 790.2 1275.6 794.2 1264.55 799.85 1258.1 807.15 1249.8 815.75 1251.25 822.2 1252.35 827.05 1259.05 830.45 1263.8 833.7 1272.5 909.35 1476.45 969.8 1686.3
L 1045.3 1370.45
Q 1047.5 1361.2 1050.55 1355.9 1054.8 1348.45 1061.35 1346.95 1069.8 1345.05 1077.4 1353.05 1083.1 1359 1088 1370.1 1110.95 1422 1145.05 1468.1 1167.65 1369.05 1178.7 1308.6 1194.85 1220.4 1200.25 1147.25 1203.2 1107.35 1201.35 1079.95 1198.8 1043.3 1187.55 1014.9 1170.2 971.05 1129.65 938.25 1091.85 907.7 1042.75 893.45 999.05 880.8 946.4 880.55 902.9 880.35 848.7 888.8 809.2 894.95 777.4 903.45 740 913.4 709.05 927.65 682.6 939.85 665 954.45 643.5 972.35 634.6 994.25
M 1071.7 1002.35
Q 1108.65 1041.4 1123.9 1089.95 1133.4 1120.15 1135.45 1158.5 1136.95 1186.15 1134.6 1228.55 1132.65 1265.1 1129.2 1301.45 1128.5 1309.3 1127 1313.75 1124.85 1320.35 1120.35 1323.5 1115.2 1327.2 1107.95 1325.85 1101.2 1324.6 1096.1 1319.8 1091.85 1315.75 1088.4 1309.15 1086.5 1305.55 1083 1296.95 1066.35 1256.45 1043.35 1219.55 995.15 1323.75 961.35 1432.8 959.15 1439.9 957.05 1443.55 953.9 1449.15 949.2 1451.15 944.6 1453.15 939.1 1451.45 934.05 1449.9 930.2 1445.9 927 1442.5 924.4 1437.3 922.7 1433.8 920.45 1427.55 910.35 1399.65 895.95 1353.6 877.65 1295.25 872.35 1279.3 843.2 1191.75 810.45 1137.65 774.1 1170.4 749.2 1212.6 744.7 1220.25 740.95 1223.9 735.35 1229.25 729.35 1228.8 722.3 1228.25 717.95 1220.4 714.7 1214.45 713.2 1204.8
L 700.6 1122.65
Q 696.85 1098.4 694.5 1086.1 690.55 1065.85 685.6 1050.15 682.3 1039.8 681.6 1037.05 679.75 1029.55 680 1023.6 680.75 1007.95 696.65 990.75 728.25 956.25 785.4 937.9 835.45 921.8 887.15 923 940.6 924.25 987.35 943.95 1035.6 964.25 1071.7 1002.35 Z"/>

<path fill="#FFCC00" stroke="none" d="
M 1023.6 1182.45
Q 1030.5 1174.5 1038.8 1173.5 1048.55 1172.35 1057.75 1180.75 1064.4 1186.8 1071.4 1198.65
L 1098.25 1244.25
Q 1101.45 1186.15 1098.2 1152.3 1093.3 1101.7 1073.4 1066 1059.45 1040.9 1036.9 1020.55 1015.3 1001 988.25 988.05 962.55 975.7 932.8 969.65 904.75 963.95 874.45 964.05 827.85 964.15 788.6 979.15 744.8 995.85 719.05 1028.15 711.35 1037.9 709.2 1045.55 707.55 1051.5 708 1059.3 708.3 1064.05 709.9 1073.15
L 730.2 1187.2 781.85 1123.85
Q 789.8 1114.15 795.85 1109.55 804.7 1102.9 813.45 1103.3 823.1 1103.75 831.4 1112.5 837.5 1118.9 843.6 1130.75 871.65 1185.1 897.25 1257.25 912.6 1300.7 939.3 1388.45 956.8 1335.25 973.4 1292.3 992.9 1241.75 1013.65 1198.65 1018.7 1188.15 1023.6 1182.45 Z"/>
</g>

<g id="Layer2_0_FILL">
<path fill="#000000" stroke="none" d="
M 1580.65 490.6
Q 1571.05 476.85 1557.55 467.1 1533.85 450.05 1505.6 458 1484.95 463.85 1468.35 477.85 1454.75 489.3 1451.4 506.1 1448.5 520.45 1453.05 534.5 1466.9 577.2 1509.65 590.8 1516 619.55 1516.2 648.85 1516.4 683 1513.7 717.15 1511.35 746.5 1501.55 774.3 1493.95 795.95 1478.95 813.35 1456.8 838.95 1422.95 840.45 1421.6 828.6 1419.3 816.75 1407.9 758.15 1372.15 710.45 1335.65 661.7 1287.25 624.7 1239.75 588.35 1184.7 564.75 1129.6 541.2 1070.45 531.25 1011.4 521.4 951.7 526.4 896.75 531.5 844.65 548.85 788.25 567.8 735.45 594.9 681.5 622.55 635.6 661.8 588.95 701.7 559.85 755.5 531.75 807.55 523.3 866.2 514.75 925.3 523.8 984.45 532.65 1042.05 557.8 1094.8 565.4 1106.9 579.2 1109.9 603.1 1114.85 627.5 1112.95 655.35 1110.25 683.15 1109.15 741.95 1107.3 800.8 1105.75 828 1105.05 855.15 1101.95 880.5 1141.85 916.5 1172.4 951.4 1202.05 993.25 1220.85 1049.85 1246.35 1111.85 1247.4 1157.2 1248.15 1199.9 1233.3 1255.7 1213.9 1299.95 1174.95 1335.95 1143.3 1362.3 1103.25 1385.6 1067.75 1400.65 1027.8 1429.1 952.25 1425.7 871.5 1440.4 869.8 1454.4 865.15 1482.5 855.9 1502.45 833.85 1524.65 809.35 1535.85 778.45 1546.95 747.7 1550.05 715 1552.2 692.1 1553.25 669.3 1554.4 644.95 1551.4 620.65 1549.05 601.25 1552.4 584.85 1562.95 578.25 1571.8 569.85 1585.85 556.35 1590 537.2 1595.55 511.9 1580.65 490.6
M 1320.35 727.2
Q 1329.75 736.35 1336.2 747.3 1367 799.6 1374.3 859.8 1381.45 918.9 1366.15 976.5 1350.8 1034.35 1316.35 1083.25 1282.5 1131.4 1232.7 1162.6 1181.6 1194.75 1121.1 1197.35 1060.2 1199.2 1005.4 1172.55 951.15 1146.05 913 1099.1 874.35 1051.45 860.8 991.6 850.7 946.85 863.7 903.15 881.4 843.65 936.75 815.7 991.55 788.05 1052.2 796.8 1086.15 801.95 1112.45 823.5 1157.1 860.1 1155.65 918.55 1154.05 982.85 1104.35 1022.75 1099.3 1026.75 1093.05 1026.95 1055.1 1029.9 1034.75 995.45 1030.2 987.7 1029.7 978.85 1028.25 954.65 1007.6 948.25 999.65 949.4 995.3 956.45 978.3 984.45 992.15 1014.5 1010.75 1055 1052.95 1071.25 1069.1 1077.45 1086.35 1076.05 1127.7 1073.05 1154.85 1040.4 1194.25 992.95 1198.65 931.05 1203.65 861.2 1157.95 808.85 1123.6 769.5 1072.1 759.35 970.75 739.25 887.45 800.75 908 761.6 937.7 728.75 979.2 682.8 1035.95 658.75 1090.25 635.85 1149.1 638.9 1207.4 641.9 1255.65 674.45 1290.35 697.9 1320.35 727.2
M 837.7 590.55
Q 895.35 573.65 955.25 570.05 1014.45 566.8 1072.3 580.7
L 1165.75 608.4
Q 1159.85 608 1154 607.6 1093.55 605.05 1037.25 626.8 972.65 651.75 924.9 702.1 885.45 743.8 860.5 795.6 837.2 843.8 822.2 895.1 797.55 979.5 833.05 1060.15 832 1060.25 830.95 1060.4 805.4 1063.3 780.4 1067.2 754.25 1070.85 727.65 1072.8 706.55 1073.75 685.3 1073.9 663.4 1074.1 641.65 1076 608.85 1078.45 577.85 1082.35 563.3 1051.9 554.65 1019.25 539.65 962.4 544.25 903.6 548.55 848.05 570.9 797.05 593.8 744.8 633.7 704.1 675.35 661.6 728.3 634.3 780.9 607.05 837.7 590.55 Z"/>

<path fill="#324A15" stroke="none" d="
M 955.25 570.05
Q 895.35 573.65 837.7 590.55 780.9 607.05 728.3 634.3 675.35 661.6 633.7 704.1 593.8 744.8 570.9 797.05 548.55 848.05 544.25 903.6 539.65 962.4 554.65 1019.25 563.3 1051.9 577.85 1082.35 608.85 1078.45 641.65 1076 663.4 1074.1 685.3 1073.9 706.55 1073.75 727.65 1072.8 754.25 1070.85 780.4 1067.2 805.4 1063.3 830.95 1060.4 832 1060.25 833.05 1060.15 797.55 979.5 822.2 895.1 837.2 843.8 860.5 795.6 885.45 743.8 924.9 702.1 972.65 651.75 1037.25 626.8 1093.55 605.05 1154 607.6 1159.85 608 1165.75 608.4
L 1072.3 580.7
Q 1014.45 566.8 955.25 570.05 Z"/>

<path fill="#B2A03D" stroke="none" d="
M 1336.2 747.3
Q 1329.75 736.35 1320.35 727.2 1290.35 697.9 1255.65 674.45 1207.4 641.9 1149.1 638.9 1090.25 635.85 1035.95 658.75 979.2 682.8 937.7 728.75 908 761.6 887.45 800.75 970.75 739.25 1072.1 759.35 1123.6 769.5 1157.95 808.85 1203.65 861.2 1198.65 931.05 1194.25 992.95 1154.85 1040.4 1127.7 1073.05 1086.35 1076.05 1069.1 1077.45 1052.95 1071.25 1010.75 1055 992.15 1014.5 978.3 984.45 995.3 956.45 999.65 949.4 1007.6 948.25 1028.25 954.65 1029.7 978.85 1030.2 987.7 1034.75 995.45 1055.1 1029.9 1093.05 1026.95 1099.3 1026.75 1104.35 1022.75 1154.05 982.85 1155.65 918.55 1157.1 860.1 1112.45 823.5 1086.15 801.95 1052.2 796.8 991.55 788.05 936.75 815.7 881.4 843.65 863.7 903.15 850.7 946.85 860.8 991.6 874.35 1051.45 913 1099.1 951.15 1146.05 1005.4 1172.55 1060.2 1199.2 1121.1 1197.35 1181.6 1194.75 1232.7 1162.6 1282.5 1131.4 1316.35 1083.25 1350.8 1034.35 1366.15 976.5 1381.45 918.9 1374.3 859.8 1367 799.6 1336.2 747.3 Z"/>
</g>

<g id="Layer1_0_FILL">
<path fill="#000000" stroke="none" d="
M 780.5 601.85
Q 777.85 597.35 774.55 595 770.5 592.05 766.95 593.85 764.8 594.95 763.85 597.55 762.9 599.95 763.35 602.55 763.7 604.7 765 607.25 765.6 608.45 767.55 611.6 779.1 630.4 786.35 651.45
L 729.9 693.8
Q 715.05 704.95 707.75 710.9 695.7 720.7 687 729.55 661.1 755.9 643.65 794.85 628.95 827.6 619.8 870.6 592.55 865.2 567.05 852.9 561.05 849.95 558.65 849 553.75 847.15 549.75 847.05 544.9 846.95 540.85 849.55 536.55 852.35 535.9 856.7 535.2 861.8 539.6 866.5 543 870.1 549.15 873.2 586.85 892.45 622.25 896.55 626.8 897.1 629.8 896.75 633.9 896.2 636.35 893.9 638.35 892.05 639.45 888.85 640.1 886.85 640.75 882.85 646.3 850.35 659.05 819.75 672.85 786.55 694.5 757.45 716.1 728.3 743.9 705.45 762.25 690.35 792.65 671.15 797.5 668.1 799.75 665.95 803.35 662.65 804.3 658.9 805.15 655.55 804.1 651.35 803.4 648.65 801.35 644.1 794.9 629.75 791.5 622.7 785.8 610.9 780.5 601.85 Z"/>

<path fill="#000000" fill-opacity="0.18823529411764706" stroke="none" d="
M 1396.4 877.45
Q 1389.4 875.9 1381.9 878.95 1375.05 881.7 1369.55 887.45 1365.05 892.2 1360.9 899.55 1358.9 903.05 1354.05 912.95 1311.65 1000.3 1250.05 1050.05 1215.2 1078.25 1175.05 1093.35 1132.6 1109.3 1090.4 1108.1 1060.65 1107.25 1026.95 1097.5 1000.3 1089.8 966.15 1074.85 946.3 1066.2 934.35 1059.05 917.65 1049.05 907.05 1037.1 897.25 1024.55 892.15 1018.55 883.2 1007.95 874.3 1004.1 868.85 1001.75 863.4 1002 857.35 1002.3 853.5 1005.8 846.4681640625 1012.196484375 849.1 1026.25 846.1791015625 1021.6779296875 841.8 1018.55 837.9619140625 1015.7845703125 833.15 1014.2 831.5494140625 1009.2314453125 830.4 1004.05 829.328125 999.1375 828.7 994.2 829.8275390625 974.337890625 832.2 954.5 834.0267578125 939.3451171875 836.35 927.8 842.613671875 906.504296875 853.35 884.4 864.4 861.7 880.9 836.75 884.1 831.9 885.45 829.5 887.8 825.3 888.75 821.65 889.9 817.25 889.15 813.05 888.557421875 809.680078125 886.8 807.2 890.4533203125 801.0796875 893.15 796.7 905 777.5 915.85 763.15 920.4 757.1 922 752.5 923.18515625 749.1025390625 922.85 746.3 924.1916015625 744.2806640625 925.3 742.4 930.1890625 738.3513671875 935.35 734.55 941.25 730.15 942.45 729.15 946.3 725.9 948.5 722.75 951.15 718.85 951.65 714.4 952.2 709.6 949.85 706.05 947.85 703 944.05 701.5 940.55 700.1 936.6 700.4 930.75 700.8 922.4 705.4 894.25 720.8 870.25 751.95 853.05 774.25 832.65 812.85 823.65 829.8 818.45 841.2 808.548828125 862.6755859375 801.6 885.15 787.5171875 912.7265625 779.5 947.95 774.537890625 969.720703125 771.3 997.8 769.7919921875 1005.775390625 768.2 1014.65 767.58984375 1017.99375 767.1 1020.95 753.0927734375 1023.84140625 733.55 1027.95 693.5 1036.4 667.8 1039.75 638.6 1042.95 624.05 1044.75 598.4 1047.9 580.9 1052.75 574.45 1054.55 570.65 1056.65 565.35 1059.55 563 1063.8 560.4 1068.6 561.6 1074.5 562.75 1080.15 566.75 1084.25 570.4 1088.05 575.95 1090.25 580.9 1092.15 586.8 1092.6 591.6 1093 597.9 1092.45 599 1092.35 609 1091.2 621.15 1089.85 646.45 1088.7 671.2 1087.6 683.9 1086.1 692.45 1085.1 707.5 1082.5 724.1 1079.7 731.05 1078.75 746.7 1076.65 773.6 1075.15 774.2947265625 1075.112109375 774.95 1075.05 777.4076171875 1077.0970703125 780.4 1078.25 783.5341796875 1081.4564453125 787.5 1083.9 798 1090.35 808.35 1087.5 816.959375 1085.151953125 822.5 1077 826.209765625 1078.9029296875 830.5 1079.45 838.4 1080.5 843.85 1076.1 848.5 1072.4 850.05 1065.7 851.1994140625 1060.548828125 850.25 1055.05 853.5513671875 1048.9021484375 853.65 1042.15 853.651171875 1042.0759765625 853.65 1042 860.702734375 1061.6935546875 873.2 1079.15 888.85 1101.2 910.7 1116.3 917.05 1120.7 918.95 1122.35 923.3 1126.05 925.15 1130.05 926.5 1133 927.25 1138.3 928.2 1145 928.7 1146.85 931.1 1155.55 939.7 1162.75 945.9 1167.95 957 1173.4 1008.05 1198.5 1061 1206.75 1117.7 1215.55 1169.15 1203.6 1200.25 1196.3 1236.35 1179.45 1253.85 1171.3 1266.9 1163.5 1282.75 1154.05 1294.9 1143.6 1310.8 1129.9 1326 1109.45 1336.9 1094.8 1351.55 1070.65 1374.7 1032.55 1388.5 1003.3 1406.25 965.65 1414.35 931.4 1416.55 922.15 1417.15 915.7 1417.95 907 1416.4 899.95 1414.6 891.85 1409.4 885.7 1403.85 879.15 1396.4 877.45 Z"/>
</g>

<g id="Layer0_0_FILL">
<path fill="#000000" fill-opacity="0.00392156862745098" stroke="none" d="
M 2679.35 2472.9
L 2679.35 472.9 679.35 472.9 679.35 2472.9 2679.35 2472.9 Z"/>
</g>

<path id="Layer0_0_1_STROKES" stroke="#000000" stroke-opacity="0" stroke-width="1" stroke-linejoin="round" stroke-linecap="round" fill="none" d="
M 679.35 472.9
L 2679.35 472.9 2679.35 2472.9 679.35 2472.9 679.35 472.9 Z"/>
</defs>

<g transform="matrix( 1, 0, 0, 1, 0,0) ">
<use xlink:href="#Layer3_0_FILL"/>
</g>

<g transform="matrix( 1, 0, 0, 1, 0,0) ">
<use xlink:href="#Layer2_0_FILL"/>
</g>

<g transform="matrix( 1, 0, 0, 1, 0,0) ">
<use xlink:href="#Layer1_0_FILL"/>
</g>

<g transform="matrix( 1, 0, 0, 1, -679.35,-472.9) ">
<use xlink:href="#Layer0_0_FILL"/>

<use xlink:href="#Layer0_0_1_STROKES"/>
</g>
</svg>
