
<svg xmlns="http://www.w3.org/2000/svg" version="1.1" xmlns:xlink="http://www.w3.org/1999/xlink" preserveAspectRatio="none" x="0px" y="0px" width="2000px" height="2000px" viewBox="0 0 2000 2000">
<defs>
<g id="Layer2_0_FILL">
<path fill="#000000" stroke="none" d="
M 1426 789.5
Q 1418.95 785.8 1411.45 788.15 1340.4 810.7 1277.25 852.75 1221.8 889.65 1161.4 918.25
L 1055.85 903.2 1041 836.65
Q 1035.9 808.3 1031.15 780.2 1011.8 666.5 978.25 556.05 972.3 536.35 953.2 538.5 944.8 539.6 941.7 547.75 927.1 586 919.75 626.7 891.3 784.05 876.5 943.4 865.8 945.9 855.9 950.85 745.65 1005.85 676.5 1109.45 638.4 1105.1 600.25 1107.55 474.6 1117 349.05 1112.55 311.4 1110.9 273.9 1113.95 262.8 1114.8 257.6 1124.05 253.45 1131.45 260.1 1136.9 283.9 1156.1 314.55 1163.85 344.55 1171.35 372.9 1183.6 496.4 1236.6 616.4 1297.65 621.65 1387.4 680.6 1455 609.5 1563.3 538.2 1671.45 533.5 1678.55 530.4 1686.25 525.9 1697.2 533.05 1706.05 542.15 1717.3 555.25 1709.15 621.85 1667.8 690.35 1629.95 758.15 1592.6 825.75 1555.1
L 856.8 1572.95
Q 858.4 1585.55 861.9 1597.8 869.7 1624.85 878.4 1651.4 915.5 1764.5 943.1 1879.95 952.3 1918.5 966.75 1955.1 970.2 1963.9 979 1967 1001.35 1975.1 1007.05 1950.45 1049.7 1766.95 1105.15 1586.9 1116.85 1583.3 1127.8 1578.3 1212.9 1539.55 1279 1472.8 1284.7 1467.05 1291.15 1462.25 1317.3 1442.75 1326.5 1412.9 1539.35 1417.1 1751.85 1428.6 1754.55 1428.65 1756.6 1429.6 1778.2 1439.9 1795.9 1425.55 1800.05 1422.2 1800 1416.7 1799.85 1398.7 1782.2 1391.45 1711.2 1362.45 1640.75 1331 1514.85 1274.9 1382.45 1237.5 1369.25 1233.7 1362.25 1226.9 1363.1 1220.95 1362.55 1215.15 1354.1 1128.9 1314.2 1050.95 1305.7 1034.3 1299.55 1019.15 1301.35 1015.85 1303.1 1012.7 1341.95 943.55 1393.5 882.85 1417.85 854.15 1435.1 821 1446 800.1 1426 789.5
M 1323.15 1248.7
Q 1325.5 1250.5 1328.3 1251.4 1338.55 1255.05 1348.15 1250.05
L 1680.25 1392.55 1269.7 1382.95
Q 1261.6 1373.45 1257.1 1361.7 1250.7 1345.15 1253.55 1327.8 1262.3 1274.35 1313.25 1252.4
L 1323.15 1248.7
M 936.4 734.4
Q 945.25 679.65 958.5 625.8 973.25 671.15 982.75 718.05 993.95 773.5 1004.15 829.35 1014.45 886.05 1028.1 942 1042.05 999.05 1056.4 1056.2 1056.2 1057.4 1055.55 1057.8 1012.4 1085.8 961.45 1083.4 934.15 1081.65 910.9 1068.15 903.45 1063.8 897 1057.95 897.25 1056.6 897.45 1055.3 901.25 1030 904.25 1004.65 907.8 975.05 910.9 945.35 916 896.5 921.25 847.1 927.3 790.45 936.4 734.4
M 428.6 1140.25
Q 488.8 1137.5 549 1133.25 605.7 1129.1 662.4 1131.45
L 657.05 1140.65
Q 627.45 1192.15 618.45 1250.95 605.4 1245.75 592.3 1240.1 538.05 1216.95 484.15 1193.65 405.55 1159.7 323 1136.45 375.65 1142.45 428.6 1140.25
M 1208.8 935.8
L 1194.7 927.55 1376.05 844.75 1272.55 989.95 1208.8 935.8
M 1064.45 938.95
Q 1066.7 938.9 1068.75 939.6 1092.8 947.75 1117.4 954.05 1135.25 958.5 1152.1 966.05 1227.3 999.85 1266.65 1072.5 1305.15 1143.55 1311.85 1223.2 1287.7 1230.45 1268.3 1246.65 1239.65 1270.5 1230.75 1306.55 1214.7 1371.35 1262.8 1415.3 1261.8 1417.2 1260.35 1418.7 1216.75 1464.65 1164.6 1501.1 1140.25 1518.1 1112.4 1528.5 986.9 1574.75 857.9 1536.8 913.7 1504.9 966.6 1468.3 972.55 1464.15 978.85 1460.65 997.95 1449.95 1005.45 1430.55 1007.95 1424.1 1002.8 1419.55 995.2 1412.8 986.9 1411.45 957.8 1340.8 882.65 1324.65 841.1 1315.65 798.35 1317.05 775.5 1318.5 761.95 1335.95 730.75 1376 705.5 1419.2 688.95 1400.65 678.8 1377.95 635.2 1280.4 680.2 1182.05 691.25 1157.85 706.6 1136.35 774.8 1040.75 873.15 975.8 870.5 1001.2 868.3 1026.75 867.15 1039.8 869.5 1052.7 873.75 1076.3 893 1092.7 898.65 1097.6 904.9 1101.55 954.6 1132.95 1013.85 1118.5 1025.75 1115.75 1037.65 1112.65 1072.4 1103.65 1088.3 1073.7 1092.55 1065.7 1091.05 1056.8 1080.85 997.35 1064.45 938.95
M 839.1 1347
Q 868.05 1350.25 895.55 1359.45 932.95 1372.1 949.9 1406.8 950.3 1407.65 950.75 1408.55 951.7 1410.55 952.7 1412.6 953.85 1415 955 1417.4 956.35 1420.15 957.8 1422.85 959.25 1425.45 960.8 1428 944.3 1440.35 927.15 1451.9 867.35 1492.25 804.25 1527.25 802.45 1528.3 800.6 1529.3 794.9 1532.5 789.2 1535.7 781.1 1540.2 773.05 1544.75 766.6 1548.3 760.2 1551.9 680.05 1596.35 599.9 1640.8
L 788.2 1359.1 794.85 1348.6
Q 816.75 1344.75 839.1 1347
M 1001.1 1601.8
L 1057.45 1597.95 981.4 1876.65
Q 979.25 1867.95 977.1 1859.3 942.45 1720.8 895.1 1586.1 901.7 1587.9 908.35 1589.7 953.95 1601.35 1001.1 1601.8 Z"/>

<path fill="#FF0000" stroke="none" d="
M 1057.45 1597.95
L 1001.1 1601.8
Q 953.95 1601.35 908.35 1589.7 901.7 1587.9 895.1 1586.1 942.45 1720.8 977.1 1859.3 979.25 1867.95 981.4 1876.65
L 1057.45 1597.95
M 895.55 1359.45
Q 868.05 1350.25 839.1 1347 816.75 1344.75 794.85 1348.6
L 788.2 1359.1 599.9 1640.8
Q 680.05 1596.35 760.2 1551.9 766.6 1548.3 773.05 1544.75 781.1 1540.2 789.2 1535.7 794.9 1532.5 800.6 1529.3 802.45 1528.3 804.25 1527.25 867.35 1492.25 927.15 1451.9 944.3 1440.35 960.8 1428 959.25 1425.45 957.8 1422.85 956.35 1420.15 955 1417.4 953.85 1415 952.7 1412.6 951.7 1410.55 950.75 1408.55 950.3 1407.65 949.9 1406.8 932.95 1372.1 895.55 1359.45
M 1194.7 927.55
L 1208.8 935.8 1272.55 989.95 1376.05 844.75 1194.7 927.55
M 549 1133.25
Q 488.8 1137.5 428.6 1140.25 375.65 1142.45 323 1136.45 405.55 1159.7 484.15 1193.65 538.05 1216.95 592.3 1240.1 605.4 1245.75 618.45 1250.95 627.45 1192.15 657.05 1140.65
L 662.4 1131.45
Q 605.7 1129.1 549 1133.25
M 958.5 625.8
Q 945.25 679.65 936.4 734.4 927.3 790.45 921.25 847.1 916 896.5 910.9 945.35 907.8 975.05 904.25 1004.65 901.25 1030 897.45 1055.3 897.25 1056.6 897 1057.95 903.45 1063.8 910.9 1068.15 934.15 1081.65 961.45 1083.4 1012.4 1085.8 1055.55 1057.8 1056.2 1057.4 1056.4 1056.2 1042.05 999.05 1028.1 942 1014.45 886.05 1004.15 829.35 993.95 773.5 982.75 718.05 973.25 671.15 958.5 625.8
M 1328.3 1251.4
Q 1325.5 1250.5 1323.15 1248.7
L 1313.25 1252.4
Q 1262.3 1274.35 1253.55 1327.8 1250.7 1345.15 1257.1 1361.7 1261.6 1373.45 1269.7 1382.95
L 1680.25 1392.55 1348.15 1250.05
Q 1338.55 1255.05 1328.3 1251.4 Z"/>

<path fill="#41344A" stroke="none" d="
M 1068.75 939.6
Q 1066.7 938.9 1064.45 938.95 1080.85 997.35 1091.05 1056.8 1092.55 1065.7 1088.3 1073.7 1072.4 1103.65 1037.65 1112.65 1025.75 1115.75 1013.85 1118.5 954.6 1132.95 904.9 1101.55 898.65 1097.6 893 1092.7 873.75 1076.3 869.5 1052.7 867.15 1039.8 868.3 1026.75 870.5 1001.2 873.15 975.8 774.8 1040.75 706.6 1136.35 691.25 1157.85 680.2 1182.05 635.2 1280.4 678.8 1377.95 688.95 1400.65 705.5 1419.2 730.75 1376 761.95 1335.95 775.5 1318.5 798.35 1317.05 841.1 1315.65 882.65 1324.65 957.8 1340.8 986.9 1411.45 995.2 1412.8 1002.8 1419.55 1007.95 1424.1 1005.45 1430.55 997.95 1449.95 978.85 1460.65 972.55 1464.15 966.6 1468.3 913.7 1504.9 857.9 1536.8 986.9 1574.75 1112.4 1528.5 1140.25 1518.1 1164.6 1501.1 1216.75 1464.65 1260.35 1418.7 1261.8 1417.2 1262.8 1415.3 1214.7 1371.35 1230.75 1306.55 1239.65 1270.5 1268.3 1246.65 1287.7 1230.45 1311.85 1223.2 1305.15 1143.55 1266.65 1072.5 1227.3 999.85 1152.1 966.05 1135.25 958.5 1117.4 954.05 1092.8 947.75 1068.75 939.6 Z"/>
</g>

<g id="Layer1_0_FILL">
<path fill="#000000" fill-opacity="0.18823529411764706" stroke="none" d="
M 916.6 1475
Q 908.75 1475.65 903.3 1477.85 896.55 1480.55 892.5 1486.35 888.1 1492.6 889.5 1499 878.1 1501.1 868.65 1507.85 858.9 1514.8 853.85 1524.85 848.6 1535.2 849.3 1547 850.05 1559.05 856.75 1568.15 862.2 1575.6 871.2 1580.45 879.45 1584.9 889.5 1586.55 898.15 1587.95 908.65 1587.4 916.4 1587 927.8 1585.3 977.7 1577.7 1035.3 1557.4 1076.8 1542.75 1138.6 1515.15 1185.2 1494.3 1211.2 1479.15 1249.75 1456.65 1274.85 1430.5 1281.35 1423.75 1285.3 1418.15 1290.35 1411 1292.65 1404 1295.3 1395.95 1294.2 1387.95 1293 1379.35 1287.75 1373.65 1280.3 1365.5 1266.95 1365 1255.75 1364.6 1243.1 1369.45 1229.05 1374.9 1208.55 1387.55 1181.7 1404.15 1174.9 1407.75 1159.65 1415.75 1139.65 1422.65 1126.3 1427.25 1102.95 1433.85 1041.3 1451.15 978.5 1466.15 963.25 1469.75 954.6 1471.35 941.3 1473.8 930.4 1474.35 921.2 1474.6 916.6 1475
M 638.6 1315.85
Q 641.3 1326.6 643.1 1332.5 645.85 1341.65 649 1348.7 653.4 1358.55 661.1 1369.75 665.75 1376.45 675.75 1389.3 677.1 1391.05 677.6 1391.95 678.55 1393.45 678.85 1394.85 679.15 1396.25 678.95 1398.2 678.8 1399.3 678.4 1401.55 677.05 1409.5 679.3 1417.25 681.6 1425.2 687.1 1430.7 692.85 1436.35 700.85 1438.1 709.15 1439.9 716.25 1436.7 719.25 1435.4 723.7 1432.2 728.95 1428.4 730.9 1427.3 732.2 1426.55 735.55 1424.95 738.5 1423.55 740.1 1422.55 746.05 1418.85 749.6 1412.35 753.05 1405.95 753.1 1398.85 753.15 1391.85 749.85 1385.3 746.6 1378.85 740.95 1374.45 738.4 1372.45 734.05 1370.05 727.35 1366.3 726.85 1366 722.85 1363.55 718.25 1359.9 715.4 1357.55 710.25 1353 690.05 1335.2 680.6 1325.6 670.8 1315.65 661.85 1304.75 659.25 1301.55 658.1 1300.3 655.85 1297.95 653.7 1296.6 651.1 1294.95 648.25 1294.55 645.1 1294.1 642.65 1295.35 640.2 1296.55 638.7 1299.25 637.35 1301.65 637.05 1304.65 636.75 1308.6 638.6 1315.85 Z"/>
</g>

<path id="Layer0_0_1_STROKES" stroke="#000000" stroke-opacity="0" stroke-width="1" stroke-linejoin="round" stroke-linecap="round" fill="none" d="
M 679.35 472.9
L 2679.35 472.9 2679.35 2472.9 679.35 2472.9 679.35 472.9 Z"/>
</defs>

<g transform="matrix( 1, 0, 0, 1, 0,0) ">
<use xlink:href="#Layer2_0_FILL"/>
</g>

<g transform="matrix( 1, 0, 0, 1, 0,0) ">
<use xlink:href="#Layer1_0_FILL"/>
</g>

<g transform="matrix( 1, 0, 0, 1, -679.35,-472.9) ">
<use xlink:href="#Layer0_0_1_STROKES"/>
</g>
</svg>
